<svg width="172px" height="56px" viewBox="0 0 172 56" version="1.1" xmlns="http://www.w3.org/2000/svg" xmlns:xlink="http://www.w3.org/1999/xlink">
    <defs>
        <path d="M24.3749692,13.2840697 L16.6209324,8.83027178 C16.6209324,8.83027178 2.49471445,0.715094077 1.66424499,0.23810453 C0.833803551,-0.238885017 0.00638801108,0.0501184669 0.00638801108,1.04691289 L0.00638801108,36.0521533 C0.00638801108,36.7994146 0.597755335,37.1215331 1.31926438,36.7074286 C2.0404372,36.2926551 16.6209324,27.9172404 16.6209324,27.9172404 L24.374633,23.4637491 C24.374633,23.4637491 30.953612,19.6849895 31.8280691,19.182885 C32.7025822,18.6801394 32.6185294,17.9910801 31.880546,17.5957352 C31.1428988,17.2 24.3749692,13.2840697 24.3749692,13.2840697 Z" id="path-1"></path>
        <linearGradient x1="49.9998541%" y1="0.000147098194%" x2="49.9998541%" y2="100.000147%" id="linearGradient-3-gp">
            <stop stop-color="#257CB0" offset="0%"></stop>
            <stop stop-color="#4A93B5" offset="28.6%"></stop>
            <stop stop-color="#78BCBB" offset="76.7%"></stop>
            <stop stop-color="#89CFBD" offset="100%"></stop>
        </linearGradient>
        <path d="M24.3749692,13.2840697 L16.6209324,8.83027178 C16.6209324,8.83027178 2.49471445,0.715094077 1.66424499,0.23810453 C0.833803551,-0.238885017 0.00638801108,0.0501184669 0.00638801108,1.04691289 L0.00638801108,36.0521533 C0.00638801108,36.7994146 0.597755335,37.1215331 1.31926438,36.7074286 C2.0404372,36.2926551 16.6209324,27.9172404 16.6209324,27.9172404 L24.374633,23.4637491 C24.374633,23.4637491 30.953612,19.6849895 31.8280691,19.182885 C32.7025822,18.6801394 32.6185294,17.9910801 31.880546,17.5957352 C31.1428988,17.2 24.3749692,13.2840697 24.3749692,13.2840697 Z" id="path-4"></path>
        <linearGradient x1="0.00126473415%" y1="49.9985397%" x2="100.001265%" y2="49.9985397%" id="linearGradient-6-gp">
            <stop stop-color="#52C1AD" offset="0%"></stop>
            <stop stop-color="#DEE89A" offset="100%"></stop>
        </linearGradient>
        <path d="M24.3749692,13.2840697 L16.6209324,8.83027178 C16.6209324,8.83027178 2.49471445,0.715094077 1.66424499,0.23810453 C0.833803551,-0.238885017 0.00638801108,0.0501184669 0.00638801108,1.04691289 L0.00638801108,36.0521533 C0.00638801108,36.7994146 0.597755335,37.1215331 1.31926438,36.7074286 C2.0404372,36.2926551 16.6209324,27.9172404 16.6209324,27.9172404 L24.374633,23.4637491 C24.374633,23.4637491 30.953612,19.6849895 31.8280691,19.182885 C32.7025822,18.6801394 32.6185294,17.9910801 31.880546,17.5957352 C31.1428988,17.2 24.3749692,13.2840697 24.3749692,13.2840697 Z" id="path-7"></path>
        <linearGradient x1="49.999885%" y1="0.000292074841%" x2="49.999885%" y2="100.000292%" id="linearGradient-9-gp">
            <stop stop-color="#EC413D" offset="0%"></stop>
            <stop stop-color="#DA4452" offset="16.7%"></stop>
            <stop stop-color="#B0487A" offset="57.5%"></stop>
            <stop stop-color="#954A92" offset="86.2%"></stop>
            <stop stop-color="#8A4A9D" offset="100%"></stop>
        </linearGradient>
        <path d="M24.3749692,13.2840697 L16.6209324,8.83027178 C16.6209324,8.83027178 2.49471445,0.715094077 1.66424499,0.23810453 C0.833803551,-0.238885017 0.00638801108,0.0501184669 0.00638801108,1.04691289 L0.00638801108,36.0521533 C0.00638801108,36.7994146 0.597755335,37.1215331 1.31926438,36.7074286 C2.0404372,36.2926551 16.6209324,27.9172404 16.6209324,27.9172404 L24.374633,23.4637491 C24.374633,23.4637491 30.953612,19.6849895 31.8280691,19.182885 C32.7025822,18.6801394 32.6185294,17.9910801 31.880546,17.5957352 C31.1428988,17.2 24.3749692,13.2840697 24.3749692,13.2840697 Z" id="path-10"></path>
        <linearGradient x1="50.0010991%" y1="0.000547669119%" x2="50.0010991%" y2="99.9972617%" id="linearGradient-12-gp">
            <stop stop-color="#F58879" offset="0%"></stop>
            <stop stop-color="#F69079" offset="11.9%"></stop>
            <stop stop-color="#FCB877" offset="71.3%"></stop>
            <stop stop-color="#FEC874" offset="100%"></stop>
        </linearGradient>
    </defs>
    <g stroke="none" stroke-width="1" fill="none" fill-rule="evenodd">
        <g id="google-play">
            <path d="M171.989381,48.4237491 C171.989381,52.6002509 168.586561,55.9873449 164.389301,55.9873449 L7.62582831,55.9873449 C3.42823261,55.9876794 0.0240951295,52.6005854 0.0240951295,48.4237491 L0.0240951295,7.58561672 C0.0240951295,3.40944948 3.42823261,0.0226898955 7.62582831,0.0226898955 L164.388965,0.0226898955 C168.586224,0.0226898955 171.989045,3.40944948 171.989045,7.58561672 L171.989045,48.4237491 L171.989381,48.4237491 Z" fill="#000000"></path>
            <g id="Clipped" transform="translate(12.916110, 11.372822)">
                <mask id="mask-2-gp" fill="white">
                    <use xlink:href="#path-1"></use>
                </mask>
                <g id="a"></g>
                <polygon fill="url(#linearGradient-3-gp)" mask="url(#mask-2-gp)" points="0.00672422219 -0.575721254 0.00672422219 37.3235401 19.2158097 18.3740767"></polygon>
            </g>
            <g id="Clipped" transform="translate(12.916110, 11.372822)">
                <mask id="mask-5-gp" fill="white">
                    <use xlink:href="#path-4"></use>
                </mask>
                <g id="d"></g>
                <polygon fill="url(#linearGradient-6-gp)" mask="url(#mask-5-gp)" points="24.3749692 13.2840697 16.6209324 8.83027178 0.00672422219 -0.713533101 0.00672422219 -0.575721254 19.2158097 18.3740767"></polygon>
            </g>
            <g id="Clipped" transform="translate(12.916110, 11.372822)">
                <mask id="mask-8-gp" fill="white">
                    <use xlink:href="#path-7"></use>
                </mask>
                <g id="g"></g>
                <polygon fill="url(#linearGradient-9-gp)" mask="url(#mask-8-gp)" points="0.00672422219 37.3235401 0.00672422219 37.4613519 16.6209324 27.9172125 24.374633 23.4634146 19.2158097 18.3740767"></polygon>
            </g>
            <g id="Clipped" transform="translate(12.916110, 11.372822)">
                <mask id="mask-11-gp" fill="white">
                    <use xlink:href="#path-10"></use>
                </mask>
                <g id="j"></g>
                <polygon fill="url(#linearGradient-12-gp)" mask="url(#mask-11-gp)" points="24.3749692 13.2840697 19.2158097 18.3740767 24.374633 23.4634146 33.2361212 18.3737422"></polygon>
            </g>
            <path d="M133.855617,37.1552892 C133.134108,37.1552892 132.475806,37.0228293 131.879704,36.7582439 C131.283602,36.493324 130.782675,36.0859094 130.378185,35.536669 L130.257177,35.536669 C130.33784,36.1802369 130.378185,36.7903833 130.378185,37.3666899 L130.378185,41.9021045 L128.701164,41.9021045 L128.701164,25.9323206 L130.065509,25.9323206 L130.297495,27.440892 L130.378185,27.440892 C130.809852,26.8371289 131.31218,26.4019512 131.884719,26.1336864 C132.457315,25.8654216 133.11458,25.7312892 133.855253,25.7312892 C135.324495,25.7312892 136.458535,26.2310244 137.2567,27.2298258 C138.055202,28.2286272 138.454621,29.6301603 138.454621,31.4330871 C138.454621,33.2433728 138.048478,34.6492544 137.2372,35.6524042 C136.425278,36.6545226 135.298299,37.1552892 133.855617,37.1552892 Z M133.612872,27.1492125 C132.48085,27.1492125 131.662176,27.4612962 131.15685,28.0844878 C130.651525,28.7079582 130.39197,29.7004321 130.378185,31.0614913 L130.378185,31.433115 C130.378185,32.9821324 130.63774,34.0899791 131.15685,34.757324 C131.67596,35.424669 132.508419,35.7574634 133.653218,35.7574634 C134.610747,35.7574634 135.360526,35.3724599 135.903171,34.6014495 C136.445143,33.8307735 136.716437,32.7680836 136.716437,31.4130453 C136.716437,30.0392753 136.445115,28.9842509 135.903171,28.2503693 C135.360834,27.5158188 134.596962,27.1492125 133.612872,27.1492125 Z M142.339904,36.9539233 L140.662183,36.9539233 L140.662183,21.3062578 L142.339904,21.3062578 L142.339904,36.9539233 Z M151.98681,36.9539233 L151.652952,35.3851707 L151.572261,35.3851707 C151.019502,36.0762091 150.468788,36.5441672 149.919447,36.7880139 C149.370415,37.0331986 148.684544,37.1553171 147.862844,37.1553171 C146.76447,37.1553171 145.903742,36.8736725 145.28007,36.3106899 C144.656399,35.7477631 144.345067,34.9469547 144.345067,33.9073449 C144.345067,31.6819512 146.134383,30.5152334 149.712313,30.4075261 L151.593106,30.3469826 L151.593106,29.6632753 C151.593106,28.7982718 151.405809,28.1593868 151.031606,27.7476237 C150.658075,27.3348293 150.058947,27.1288084 149.237611,27.1288084 C148.314011,27.1288084 147.269432,27.410453 146.104096,27.9734077 L145.588376,26.6963066 C146.134719,26.4012822 146.732166,26.1701742 147.383071,26.0025645 C148.033303,25.8349826 148.68488,25.7510523 149.338811,25.7510523 C150.659476,25.7510523 151.638159,26.0423972 152.275307,26.6257561 C152.911754,27.209115 153.230146,28.1443345 153.230146,29.4318328 L153.230146,36.9536167 L151.986838,36.9536167 L151.986838,36.9539233 L151.98681,36.9539233 Z M148.196366,35.7778397 C149.240301,35.7778397 150.060656,35.4928223 150.657431,34.9232056 C151.253225,34.3535331 151.552117,33.5554564 151.552117,32.5292265 L151.552117,31.53377 L149.873415,31.6036794 C148.539329,31.6515122 147.578073,31.856892 146.987715,32.2231638 C146.398337,32.5884321 146.103451,33.1567387 146.103451,33.9277491 C146.103451,34.5308432 146.286686,34.990439 146.654529,35.3048362 C147.02198,35.6202927 147.535374,35.7778397 148.196366,35.7778397 Z M154.204122,25.9323206 L156.002851,25.9323206 L158.428979,32.217784 C158.961201,33.6527666 159.291668,34.6883902 159.420101,35.3255749 L159.50082,35.3255749 C159.588543,34.9830523 159.77245,34.3986899 160.051505,33.5698397 C160.331233,32.7416307 161.246372,30.1964321 162.795661,25.9323206 L164.595735,25.9323206 L159.834313,38.482899 C159.362945,39.7232056 158.811923,40.6032334 158.181163,41.1237073 C157.55144,41.6428432 156.777818,41.9021045 155.862315,41.9021045 C155.349929,41.9021045 154.844604,41.8452404 154.345331,41.7315122 L154.345331,40.3941742 C154.715807,40.474453 155.130692,40.5149268 155.588975,40.5149268 C156.741507,40.5149268 157.562871,39.8713589 158.05542,38.5839164 L158.671695,37.0154425 L154.204122,25.9323206 Z M102.773208,26.9565436 C103.305794,27.3950383 104.417981,28.3162369 104.417981,30.0693519 C104.417981,31.7742718 103.44465,32.5827456 102.471318,33.3423833 C102.170073,33.6417282 101.822431,33.9655192 101.822431,34.4732822 C101.822431,34.9793728 102.169737,35.2563624 102.425594,35.4640836 L103.26007,36.1082927 C104.279462,36.9615889 105.205387,37.7459791 105.205387,39.3371707 C105.205387,41.5040279 103.096671,43.6932962 99.1118971,43.6932962 C95.751495,43.6932962 94.1302851,42.103108 94.1302851,40.3961812 C94.1302851,39.5666341 94.5454778,38.391554 95.9145574,37.5837491 C97.3501789,36.7077073 99.2978498,36.5936446 100.340076,36.5227596 C100.014652,36.1083206 99.6448197,35.6701324 99.6448197,34.9566551 C99.6448197,34.5652962 99.7611487,34.3344948 99.8764971,34.0565296 C99.6206125,34.0799443 99.3661007,34.1030244 99.134143,34.1030244 C96.6787653,34.1030244 95.2885604,32.2817003 95.2885604,30.4844599 C95.2885604,29.423777 95.7757302,28.2473589 96.7709151,27.3954007 C98.0921968,26.312 99.667682,26.1269965 100.920096,26.1269965 L105.692277,26.1269965 L104.209222,26.956878 L102.773236,26.956878 L102.773236,26.9565436 L102.773208,26.9565436 Z M101.127455,37.1927526 C100.94223,37.168669 100.825873,37.168669 100.595232,37.168669 C100.38681,37.168669 99.1337508,37.2158328 98.1617645,37.5392892 C97.6520964,37.7222578 96.168677,38.2755122 96.168677,39.9131986 C96.168677,41.5492125 97.7683975,42.726662 100.247954,42.726662 C102.470982,42.726662 103.654081,41.6639721 103.654081,40.2359861 C103.654109,39.0578955 102.889229,38.4380767 101.127455,37.1927526 Z M101.799877,32.8118746 C102.332099,32.2810314 102.377852,31.5441394 102.377852,31.1286969 C102.377852,29.4692683 101.381966,26.8873031 99.4592031,26.8873031 C98.8560124,26.8873031 98.2078254,27.186676 97.8369845,27.6482787 C97.4435895,28.1322927 97.326588,28.7541185 97.326588,29.3542021 C97.326588,30.8985645 98.2303235,33.457784 100.224055,33.457784 C100.803375,33.457784 101.427719,33.1811568 101.799877,32.8118746 Z M88.1853722,36.8238049 C84.5075589,36.8238049 82.5410881,33.969561 82.5410881,31.3912753 C82.5410881,28.375777 85.0159381,25.7991916 88.5337149,25.7991916 C91.9327812,25.7991916 94.0613618,28.4450453 94.0613618,31.2306899 C94.06167,33.9454774 91.9573246,36.8238049 88.1853722,36.8238049 Z M91.0768158,34.9596655 C91.6329089,34.222439 91.7717361,33.3022439 91.7717361,32.4038188 C91.7717361,30.3777561 90.800086,26.5116934 87.9311966,26.5116934 C87.1680254,26.5116934 86.4048262,26.8114007 85.8497417,27.2957491 C84.947323,28.1001812 84.7846249,29.1133937 84.7846249,30.1041672 C84.7846249,32.3810732 85.9183007,36.1317352 88.7182668,36.1317352 C89.6203212,36.1317352 90.5458824,35.6952195 91.0768158,34.9596655 Z M75.6463789,36.8238049 C71.9678651,36.8238049 70.0010582,33.969561 70.0010582,31.3912753 C70.0010582,28.375777 72.4768887,25.7991916 75.993685,25.7991916 C79.3937879,25.7991916 81.5219762,28.4450453 81.5219762,31.2306899 C81.5223404,33.9454774 79.4176589,36.8238049 75.6463789,36.8238049 Z M78.5384669,34.9596655 C79.0935514,34.222439 79.2327428,33.3022439 79.2327428,32.4038188 C79.2327428,30.3777561 78.2603922,26.5116934 75.3915029,26.5116934 C74.6286398,26.5116934 73.8647962,26.8114007 73.3100199,27.2957491 C72.4076293,28.1001812 72.2459117,29.1133937 72.2459117,30.1041672 C72.2459117,32.3810732 73.3789432,36.1317352 76.1792735,36.1317352 C77.0816641,36.1317352 78.0066089,35.6952195 78.5384669,34.9596655 Z M68.2339326,36.462885 L64.9074318,37.2265366 C63.5578804,37.4352613 62.3488933,37.618899 61.0702825,37.618899 C54.6499951,37.618899 52.2087662,32.9212544 52.2087662,29.2418118 C52.2087662,24.7532544 55.6737579,20.589101 61.6055305,20.589101 C62.8619515,20.589101 64.0703222,20.7737422 65.1633165,21.0747875 C66.9075797,21.5608362 67.7215748,22.1618955 68.2335964,22.5094634 L66.3023997,24.3374495 L65.4887689,24.5217561 L66.0700779,23.5958746 C65.2796455,22.832892 63.8362913,21.4216585 61.0928086,21.4216585 C57.417685,21.4216585 54.6493507,24.1996376 54.6493507,28.2486969 C54.6493507,32.5977979 57.8130972,36.6936864 62.8824603,36.6936864 C64.372548,36.6936864 65.1384649,36.393338 65.8367474,36.1150105 L65.8367474,32.3904111 L62.3253585,32.5753868 L64.1852784,31.5792892 L69.1164867,31.5792892 L68.5123154,32.1576307 C68.3482724,32.297115 68.3257462,32.3439443 68.2793491,32.5272474 C68.2551419,32.7359721 68.2332882,33.4076376 68.2332882,33.6387735 L68.2332882,36.4629129 L68.2339326,36.4629129 L68.2339326,36.462885 Z" fill="#F9F9F9" fill-rule="nonzero"></path>
            <path d="M110.124492,35.7965714 C109.356586,35.7269965 109.195849,35.5888502 109.195849,34.6853798 L109.195849,21.5885714 C109.200556,21.5387317 109.203582,21.487554 109.208261,21.4393589 C109.302092,20.6298815 109.534413,20.4910662 110.256231,20.0739791 L106.929142,20.0739791 L105.184234,20.9072056 L106.962454,20.9072056 L106.962454,20.9175749 L106.96111,20.9092125 L106.96111,35.1951498 C106.96111,35.6570871 106.869324,35.727331 106.333712,36.4207387 L110.450981,36.4207387 L111.311653,35.9129756 C110.916605,35.8651429 110.520549,35.8427317 110.124492,35.7965714 Z M119.588807,36.0093101 C119.335668,36.1474564 119.081492,36.3090174 118.828297,36.4230801 C118.064762,36.7676098 117.279737,36.8599303 116.585433,36.8599303 C115.848122,36.8599303 114.692228,36.8124321 113.513136,35.9631498 C111.874471,34.8131568 111.158341,32.8369895 111.158341,31.1139791 C111.158341,27.5526132 114.068556,25.806216 116.447586,25.806216 C117.279373,25.806216 118.135058,26.0125993 118.827961,26.4501463 C119.981865,27.2070801 120.282046,28.1952056 120.442783,28.7240139 L115.016027,30.9079582 L113.237134,31.0457422 C113.813736,33.9642091 115.8001,35.6634425 117.995194,35.6634425 C119.172942,35.6634425 120.027926,35.250676 120.812979,34.8606551 L119.588807,36.0093101 Z M117.418256,29.1601951 C117.856339,28.9999721 118.087288,28.8614913 118.087288,28.5400418 C118.087288,27.6215192 117.048396,26.5638467 115.800044,26.5638467 C114.875099,26.5638467 113.143976,27.2766551 113.143976,29.7579652 C113.143976,30.1486551 113.190373,30.5620906 113.214244,30.9771707 L117.418256,29.1601951 Z M121.818223,25.9634286 L121.818223,27.4796934 L121.632998,27.4796934 L121.632998,25.9634286 L121.128682,25.9634286 L121.128682,25.8061882 L122.322231,25.8061882 L122.322231,25.9634286 L121.818223,25.9634286 Z M123.896035,27.4796934 L123.896035,25.9493798 L123.88763,25.9493798 L123.418279,27.4796934 L123.273372,27.4796934 L122.799987,25.9493798 L122.793907,25.9493798 L122.793907,27.4796934 L122.625802,27.4796934 L122.625802,25.806216 L122.913935,25.806216 L123.342267,27.1589129 L123.348319,27.1589129 L123.770264,25.806216 L124.06246,25.806216 L124.06246,27.4796934 L123.896035,27.4796934 Z" fill="#F9F9F9" fill-rule="nonzero"></path>
            <path d="M56.8283069,16.0834564 L55.6724131,16.0834564 C55.6724131,15.9252404 55.5628083,15.4773519 55.3435986,14.7394564 L53.6749549,14.7394564 C53.4487128,15.4653101 53.3354097,15.9131707 53.3354097,16.0834564 L52.2484392,16.0834564 C52.2484392,15.9901045 52.5295116,15.2234425 53.0916566,13.7838049 C53.6537736,12.3441394 53.9348741,11.5510244 53.9348741,11.4052125 L55.3002274,11.4052125 C55.3002274,11.5416864 55.5547392,12.3230662 56.064099,13.7496864 C56.5734589,15.1763066 56.8283069,15.954007 56.8283069,16.0834564 Z M55.1596631,14.0530732 C54.7478325,12.8170871 54.5420713,12.1487944 54.5420713,12.0480836 L54.484243,12.0480836 C54.484243,12.1414355 54.2710852,12.8097282 53.8451057,14.0530732 L55.1596631,14.0530732 Z M61.4855032,16.0834564 L60.5935351,16.0834564 C60.5935351,15.985115 60.2623952,15.4666481 59.6003675,14.5277213 C58.9071002,13.5382857 58.5120521,12.8619373 58.4159238,12.4977003 L58.3580955,12.4977003 C58.4182772,13.0221603 58.4485643,13.4964739 58.4485643,13.9206411 C58.4485643,14.5123624 58.4653748,15.2335331 58.4989959,16.0838188 L57.61039,16.0838188 C57.6463365,15.3412404 57.66452,14.5257422 57.66452,13.6369895 C57.66452,12.7626481 57.6463646,12.0187038 57.61039,11.4055749 L58.6828754,11.4055749 C58.6828754,11.5326829 58.980086,12.0394425 59.5748435,12.9255192 C60.207957,13.8667875 60.5717094,14.505338 60.6655403,14.8408362 L60.7196703,14.8408362 C60.66187,14.3066481 60.6329278,13.8276237 60.6329278,13.4035122 C60.6329278,12.7546202 60.6160893,12.0882787 60.5824962,11.4055749 L61.4855592,11.4055749 C61.4515739,11.9996376 61.4350995,12.743554 61.4350995,13.6369895 C61.4347353,14.5370871 61.4515459,15.3525854 61.4855032,16.0834564 Z M66.7199739,13.5824669 C66.7199739,14.2628014 66.5007923,14.856892 66.0626812,15.3646551 C65.6242619,15.8727526 65.0103124,16.1262997 64.2205806,16.1262997 C63.8641968,16.1262997 63.3729923,16.1118885 62.7469673,16.083122 C62.7782069,15.3596376 62.7940368,14.543777 62.7940368,13.6363206 C62.7940368,12.7646272 62.7782349,12.0207108 62.7469673,11.404878 L63.3790722,11.404878 C63.4825972,11.404878 63.6365819,11.4011986 63.8413624,11.3941742 C64.0457508,11.3871498 64.1795628,11.3834704 64.2420981,11.3834704 C65.1112318,11.3834704 65.7412914,11.5992195 66.1329493,12.0303833 C66.5242991,12.461547 66.7199739,12.978676 66.7199739,13.5824669 Z M65.7341749,13.7369477 C65.7341749,13.2770174 65.5993543,12.8896725 65.329713,12.5742439 C65.0600717,12.2594843 64.6482131,12.1019652 64.0944734,12.1019652 C63.9909484,12.1019652 63.8490393,12.112669 63.6681577,12.1344111 C63.6920287,12.6137143 63.7041323,13.1141185 63.7041323,13.6362927 C63.7041323,14.2089477 63.7162359,14.7765854 63.7400788,15.3395401 C63.8945939,15.3705111 64.0518099,15.3861973 64.2094295,15.3863693 C64.7271947,15.3863693 65.1104753,15.2261742 65.3596358,14.9063693 C65.6087962,14.5865923 65.7341749,14.196878 65.7341749,13.7369477 Z M71.5469568,16.0834564 L70.4778055,16.0834564 C70.1984141,15.2355122 69.9842756,14.7120279 69.8349979,14.513338 C69.6857201,14.3143136 69.444993,14.2149686 69.1128164,14.2149686 C68.9729526,14.2149686 68.8394488,14.2163066 68.7120528,14.2186481 C68.7120528,14.8344808 68.7227835,15.4559443 68.7446653,16.0834564 L67.7407389,16.0834564 C67.7719785,15.3599443 67.7878084,14.5441115 67.7878084,13.6366272 C67.7878084,12.7649617 67.7720065,12.0210174 67.7407389,11.4052125 L68.3653911,11.4052125 C68.4376765,11.4052125 68.5886633,11.4015331 68.8186317,11.3945087 C69.0486001,11.3874843 69.2610855,11.383777 69.456088,11.383777 C70.5612139,11.383777 71.1139449,11.7597491 71.1139449,12.5120557 C71.1139449,13.1084599 70.7985789,13.5239024 70.1678469,13.7590523 L70.1678469,13.8129059 C70.4109275,13.8798049 70.6240854,14.0687944 70.8069842,14.3785366 C70.9895188,14.6886132 71.2362978,15.2569199 71.5469568,16.0834564 Z M70.1926985,12.7776167 C70.1926985,12.3009617 69.8843929,12.0624948 69.2681179,12.0624948 C69.0418479,12.0624948 68.8417742,12.0792195 68.6686535,12.112669 C68.6952142,12.4839582 68.7083264,12.9679721 68.7083264,13.5643763 C68.8408216,13.5693937 68.9527799,13.5714007 69.0442013,13.5714007 C69.809754,13.5717352 70.1926985,13.3071498 70.1926985,12.7776167 Z M76.7239075,13.658007 C76.7239075,14.3932544 76.4976374,15.0030105 76.0447891,15.4870244 C75.5919127,15.9707317 75.0321212,16.212878 74.3654146,16.212878 C73.7296674,16.212878 73.1974172,15.9907735 72.7690842,15.54623 C72.3404151,15.1020209 72.1262486,14.5370871 72.1262486,13.8523484 C72.1262486,13.1171289 72.3525187,12.5073449 72.805395,12.023331 C73.2579352,11.5396516 73.8177267,11.2974774 74.4847415,11.2974774 C75.1205167,11.2974774 75.6524307,11.5189129 76.0810999,11.9621185 C76.509769,12.4053519 76.7239075,12.9703136 76.7239075,13.658007 Z M75.7274058,13.7620627 C75.7274058,13.261324 75.5986089,12.8552474 75.3410992,12.5438328 C75.0832253,12.2324181 74.7655058,12.076878 74.3876045,12.076878 C74.0359277,12.076878 73.7373722,12.2337561 73.4919381,12.5475122 C73.246504,12.8612683 73.1231145,13.2576725 73.1231145,13.7369756 C73.1231145,14.2350383 73.2525558,14.640446 73.5114103,14.9532265 C73.7702929,15.2659791 74.087368,15.4221882 74.463252,15.4221882 C74.8145926,15.4221882 75.1134843,15.2646411 75.3589184,14.9495192 C75.6043525,14.6347596 75.7274058,14.2386899 75.7274058,13.7620627 Z M78.7660818,16.0834564 L77.744,16.0834564 C77.7752676,15.340878 77.7910696,14.5253798 77.7910696,13.6366272 C77.7910696,12.7622578 77.7752957,12.0183415 77.744,11.4052125 L78.7660818,11.4052125 C78.7348141,12.0089756 78.7190122,12.7525575 78.7190122,13.6366272 C78.7190122,14.5394286 78.7348141,15.3552613 78.7660818,16.0834564 Z M84.0008887,13.5824669 C84.0008887,14.2628014 83.7816791,14.856892 83.343596,15.3646551 C82.9052048,15.8727526 82.2912553,16.1262997 81.5014954,16.1262997 C81.1451116,16.1262997 80.6539072,16.1118885 80.027854,16.083122 C80.0591497,15.3596376 80.0749516,14.543777 80.0749516,13.6363206 C80.0749516,12.7646272 80.0591777,12.0207108 80.027854,11.404878 L80.659959,11.404878 C80.763512,11.404878 80.9174967,11.4011986 81.1222492,11.3941742 C81.3266936,11.3871498 81.4604776,11.3834704 81.5230409,11.3834704 C82.3921466,11.3834704 83.0222062,11.5992195 83.4138641,12.0303833 C83.8052139,12.461547 84.0008887,12.978676 84.0008887,13.5824669 Z M83.0151178,13.7369477 C83.0151178,13.2770174 82.8802971,12.8896725 82.6106278,12.5742439 C82.3409865,12.2594843 81.9291559,12.1019652 81.3753882,12.1019652 C81.2718352,12.1019652 81.1299541,12.112669 80.9490725,12.1344111 C80.9729435,12.6137143 80.9850191,13.1141185 80.9850191,13.6362927 C80.9850191,14.2089477 80.9971507,14.7765854 81.0209936,15.3395401 C81.1755089,15.3705098 81.3327247,15.386196 81.4903444,15.3863693 C82.0080814,15.3863693 82.3913901,15.2261742 82.6405226,14.9063693 C82.889711,14.5865923 83.0151178,14.196878 83.0151178,13.7369477 Z M90.9456654,16.0834564 L89.7897716,16.0834564 C89.7897716,15.9252404 89.6801668,15.4773519 89.4606209,14.7394564 L87.7920052,14.7394564 C87.5657351,15.4653101 87.452404,15.9131707 87.452404,16.0834564 L86.3657977,16.0834564 C86.3657977,15.9901045 86.6468422,15.2234425 87.2090151,13.7838049 C87.7711601,12.3441394 88.0522326,11.5510244 88.0522326,11.4052125 L89.4175859,11.4052125 C89.4175859,11.5416864 89.6724339,12.3230662 90.1814576,13.7496864 C90.6904812,15.1763066 90.9456654,15.954007 90.9456654,16.0834564 Z M89.2770497,14.0530732 C88.8651911,12.8170871 88.6590656,12.1487944 88.6590656,12.0480836 L88.6012373,12.0480836 C88.6012373,12.1414355 88.3884157,12.8097282 87.9624642,14.0530732 L89.2770497,14.0530732 Z M95.1583906,12.6301324 C95.1583906,13.2027875 94.9445323,13.6255889 94.517208,13.8985366 C94.0898837,14.1714843 93.5657306,14.3082648 92.9443844,14.3082648 C92.8311093,14.3082648 92.7507548,14.3059233 92.7023404,14.3012404 C92.7023404,14.7518049 92.7154247,15.345561 92.7420134,16.0834564 L91.726964,16.0834564 C91.7582036,15.3913868 91.7740336,14.5755261 91.7740336,13.6366272 C91.7740336,12.7742997 91.7582597,12.0303833 91.726964,11.4052125 L92.3553426,11.4052125 C92.4444385,11.4052125 92.6152057,11.4015331 92.8680645,11.3945087 C93.1209233,11.3874843 93.3397967,11.383777 93.5253572,11.383777 C93.9826043,11.383777 94.3692471,11.4868014 94.6846131,11.6928502 C95.0000072,11.8989268 95.1583906,12.2110105 95.1583906,12.6301324 Z M94.2267496,12.8278188 C94.2267496,12.3153449 93.8847949,12.0588153 93.2009695,12.0588153 C93.0298381,12.0588153 92.8492927,12.0768502 92.6593334,12.112669 C92.6858941,12.5655749 92.6990064,13.0780209 92.6990064,13.650676 C92.7591601,13.6556934 92.8291201,13.6577003 92.9084659,13.6577003 C93.7873217,13.658007 94.2267496,13.3814077 94.2267496,12.8278188 Z M99.4901345,12.6301324 C99.4901345,13.2027875 99.2763043,13.6255889 98.8493162,13.8985366 C98.4219919,14.1714843 97.8975025,14.3082648 97.2762124,14.3082648 C97.1628813,14.3082648 97.0825548,14.3059233 97.0341124,14.3012404 C97.0341124,14.7518049 97.0472526,15.345561 97.0737853,16.0834564 L96.058764,16.0834564 C96.0900316,15.3913868 96.1058615,14.5755261 96.1058615,13.6366272 C96.1058615,12.7742997 96.0900596,12.0303833 96.058764,11.4052125 L96.6871425,11.4052125 C96.7762665,11.4052125 96.9470337,11.4015331 97.1998645,11.3945087 C97.4526952,11.3874843 97.6715687,11.383777 97.8571572,11.383777 C98.3143763,11.383777 98.7010471,11.4868014 99.0164131,11.6928502 C99.3317511,11.8989268 99.4901345,12.2110105 99.4901345,12.6301324 Z M98.5584936,12.8278188 C98.5584936,12.3153449 98.2165669,12.0588153 97.5327415,12.0588153 C97.36161,12.0588153 97.1810367,12.0768502 96.9911054,12.112669 C97.0176381,12.5655749 97.0307783,13.0780209 97.0307783,13.650676 C97.0909321,13.6556934 97.160892,13.6577003 97.2402378,13.6577003 C98.1190656,13.658007 98.5584936,13.3814077 98.5584936,12.8278188 Z M106.572422,13.658007 C106.572422,14.3932544 106.346151,15.0030105 105.893275,15.4870244 C105.440427,15.9710383 104.880607,16.212878 104.213901,16.212878 C103.578153,16.212878 103.045903,15.9907735 102.617598,15.54623 C102.189237,15.1020209 101.974763,14.5370871 101.974763,13.8523484 C101.974763,13.1171289 102.201033,12.5073449 102.653881,12.023331 C103.106757,11.5393171 103.666577,11.2974774 104.333256,11.2974774 C104.969031,11.2974774 105.501253,11.5189129 105.929586,11.9621185 C106.357919,12.4053519 106.572422,12.9703136 106.572422,13.658007 Z M105.575556,13.7620627 C105.575556,13.261324 105.446759,12.8552474 105.189249,12.5438328 C104.931739,12.2324181 104.613656,12.076878 104.235782,12.076878 C103.884078,12.076878 103.585522,12.2337561 103.340088,12.5475122 C103.094654,12.8612683 102.971601,13.2576725 102.971601,13.7369756 C102.971601,14.2350383 103.10107,14.640446 103.359924,14.9532265 C103.618779,15.2659791 103.935854,15.4221882 104.311402,15.4221882 C104.663079,15.4221882 104.961634,15.2646411 105.207068,14.949547 C105.452839,14.6347596 105.575556,14.2386899 105.575556,13.7620627 Z M111.467655,16.0834564 L110.575687,16.0834564 C110.575687,15.985115 110.244827,15.4666481 109.58252,14.5277213 C108.889252,13.5382857 108.494176,12.8619373 108.398048,12.4977003 L108.34022,12.4977003 C108.400401,13.0221603 108.430688,13.4964739 108.430688,13.9206411 C108.430688,14.5123624 108.447499,15.2335331 108.481148,16.0838188 L107.592514,16.0838188 C107.628489,15.3412404 107.646644,14.5257422 107.646644,13.6369895 C107.646644,12.7626481 107.628545,12.0187038 107.592514,11.4055749 L108.665028,11.4055749 C108.665028,11.5326829 108.962574,12.0394425 109.556996,12.9255192 C110.190417,13.8667875 110.553862,14.505338 110.647692,14.8408362 L110.701822,14.8408362 C110.643994,14.3066481 110.61508,13.8276237 110.61508,13.4035122 C110.61508,12.7546202 110.598269,12.0882787 110.56462,11.4055749 L111.467683,11.4055749 C111.433726,11.9996376 111.417252,12.743554 111.417252,13.6369895 C111.417224,14.5370871 111.434034,15.3525854 111.467655,16.0834564 Z" fill="#F9F9FA" fill-rule="nonzero"></path>
        </g>
    </g>
</svg>