<?xml version="1.0" encoding="UTF-8" standalone="no"?>
<!DOCTYPE svg PUBLIC "-//W3C//DTD SVG 1.1//EN"
 "http://www.w3.org/Graphics/SVG/1.1/DTD/svg11.dtd">
<!-- Generated by graphviz version 2.40.1 (20161225.0304)
 -->
<!-- Title: LIEF::VDEX::JsonVisitor Pages: 1 -->
<svg width="134pt" height="140pt"
 viewBox="0.00 0.00 134.00 140.00" xmlns="http://www.w3.org/2000/svg" xmlns:xlink="http://www.w3.org/1999/xlink">
<g id="graph0" class="graph" transform="scale(1 1) rotate(0) translate(4 136)">
<title>LIEF::VDEX::JsonVisitor</title>
<polygon fill="#ffffff" stroke="transparent" points="-4,4 -4,-136 130,-136 130,4 -4,4"/>
<!-- Node3 -->
<g id="node1" class="node">
<title>Node3</title>
<polygon fill="#bfbfbf" stroke="#000000" points="0,-.5 0,-19.5 126,-19.5 126,-.5 0,-.5"/>
<text text-anchor="middle" x="63" y="-7.5" font-family="Helvetica,sans-Serif" font-size="10.00" fill="#000000">LIEF::VDEX::JsonVisitor</text>
</g>
<!-- Node4 -->
<g id="node2" class="node">
<title>Node4</title>
<g id="a_node2"><a xlink:href="classLIEF_1_1JsonVisitor.html" target="_top" xlink:title="LIEF::JsonVisitor">
<polygon fill="#ffffff" stroke="#000000" points="16.5,-56.5 16.5,-75.5 109.5,-75.5 109.5,-56.5 16.5,-56.5"/>
<text text-anchor="middle" x="63" y="-63.5" font-family="Helvetica,sans-Serif" font-size="10.00" fill="#000000">LIEF::JsonVisitor</text>
</a>
</g>
</g>
<!-- Node4&#45;&gt;Node3 -->
<g id="edge1" class="edge">
<title>Node4&#45;&gt;Node3</title>
<path fill="none" stroke="#191970" d="M63,-46.1575C63,-37.155 63,-26.9199 63,-19.6427"/>
<polygon fill="#191970" stroke="#191970" points="59.5001,-46.2455 63,-56.2455 66.5001,-46.2456 59.5001,-46.2455"/>
</g>
<!-- Node5 -->
<g id="node3" class="node">
<title>Node5</title>
<g id="a_node3"><a xlink:href="classLIEF_1_1Visitor.html" target="_top" xlink:title="LIEF::Visitor">
<polygon fill="#ffffff" stroke="#000000" points="26.5,-112.5 26.5,-131.5 99.5,-131.5 99.5,-112.5 26.5,-112.5"/>
<text text-anchor="middle" x="63" y="-119.5" font-family="Helvetica,sans-Serif" font-size="10.00" fill="#000000">LIEF::Visitor</text>
</a>
</g>
</g>
<!-- Node5&#45;&gt;Node4 -->
<g id="edge2" class="edge">
<title>Node5&#45;&gt;Node4</title>
<path fill="none" stroke="#191970" d="M63,-102.1575C63,-93.155 63,-82.9199 63,-75.6427"/>
<polygon fill="#191970" stroke="#191970" points="59.5001,-102.2455 63,-112.2455 66.5001,-102.2456 59.5001,-102.2455"/>
</g>
</g>
</svg>
