<?xml version="1.0" encoding="UTF-8" standalone="no"?>
<!DOCTYPE svg PUBLIC "-//W3C//DTD SVG 1.1//EN"
 "http://www.w3.org/Graphics/SVG/1.1/DTD/svg11.dtd">
<!-- Generated by graphviz version 2.40.1 (20161225.0304)
 -->
<!-- Title: LIEF::DEX::Type Pages: 1 -->
<svg width="159pt" height="152pt"
 viewBox="0.00 0.00 159.00 152.00" xmlns="http://www.w3.org/2000/svg" xmlns:xlink="http://www.w3.org/1999/xlink">
<g id="graph0" class="graph" transform="scale(1 1) rotate(0) translate(4 148)">
<title>LIEF::DEX::Type</title>
<polygon fill="#ffffff" stroke="transparent" points="-4,4 -4,-148 155,-148 155,4 -4,4"/>
<!-- Node2 -->
<g id="node1" class="node">
<title>Node2</title>
<polygon fill="#bfbfbf" stroke="#000000" points="0,-.5 0,-19.5 90,-19.5 90,-.5 0,-.5"/>
<text text-anchor="middle" x="45" y="-7.5" font-family="Helvetica,sans-Serif" font-size="10.00" fill="#000000">LIEF::DEX::Type</text>
</g>
<!-- Node3 -->
<g id="node2" class="node">
<title>Node3</title>
<g id="a_node2"><a xlink:href="classLIEF_1_1Object.html" target="_top" xlink:title="LIEF::Object">
<polygon fill="#ffffff" stroke="#000000" points="4.5,-124.5 4.5,-143.5 77.5,-143.5 77.5,-124.5 4.5,-124.5"/>
<text text-anchor="middle" x="41" y="-131.5" font-family="Helvetica,sans-Serif" font-size="10.00" fill="#000000">LIEF::Object</text>
</a>
</g>
</g>
<!-- Node3&#45;&gt;Node2 -->
<g id="edge1" class="edge">
<title>Node3&#45;&gt;Node2</title>
<path fill="none" stroke="#191970" d="M41.6429,-114.0697C42.5138,-87.0713 44.0346,-39.9273 44.6876,-19.6849"/>
<polygon fill="#191970" stroke="#191970" points="38.1382,-114.1622 41.3139,-124.2699 45.1346,-114.388 38.1382,-114.1622"/>
</g>
<!-- Node4 -->
<g id="node3" class="node">
<title>Node4</title>
<g id="a_node3"><a xlink:href="classLIEF_1_1DEX_1_1Class.html" target="_top" xlink:title="LIEF::DEX::Class">
<polygon fill="#ffffff" stroke="#000000" points="57,-67.5 57,-86.5 151,-86.5 151,-67.5 57,-67.5"/>
<text text-anchor="middle" x="104" y="-74.5" font-family="Helvetica,sans-Serif" font-size="10.00" fill="#000000">LIEF::DEX::Class</text>
</a>
</g>
</g>
<!-- Node3&#45;&gt;Node4 -->
<g id="edge3" class="edge">
<title>Node3&#45;&gt;Node4</title>
<path fill="none" stroke="#191970" d="M59.2007,-117.5327C70.318,-107.4742 84.1423,-94.9664 93.4707,-86.5265"/>
<polygon fill="#191970" stroke="#191970" points="56.7543,-115.0262 51.6871,-124.3307 61.4507,-120.2169 56.7543,-115.0262"/>
</g>
<!-- Node4&#45;&gt;Node2 -->
<g id="edge2" class="edge">
<title>Node4&#45;&gt;Node2</title>
<path fill="none" stroke="#9a32cd" stroke-dasharray="5,2" d="M88.7786,-59.7147C77.5302,-46.941 62.6316,-30.0224 53.4376,-19.5817"/>
<polygon fill="#9a32cd" stroke="#9a32cd" points="86.3112,-62.2087 95.5467,-67.4005 91.5646,-57.5825 86.3112,-62.2087"/>
<text text-anchor="middle" x="89" y="-41" font-family="Helvetica,sans-Serif" font-size="10.00" fill="#000000"> cls_</text>
</g>
</g>
</svg>
