<?xml version="1.0" encoding="UTF-8" standalone="no"?>
<!DOCTYPE svg PUBLIC "-//W3C//DTD SVG 1.1//EN"
 "http://www.w3.org/Graphics/SVG/1.1/DTD/svg11.dtd">
<!-- Generated by graphviz version 2.40.1 (20161225.0304)
 -->
<!-- Title: LIEF::ELF::NoteDetails Pages: 1 -->
<svg width="400pt" height="256pt"
 viewBox="0.00 0.00 400.00 256.00" xmlns="http://www.w3.org/2000/svg" xmlns:xlink="http://www.w3.org/1999/xlink">
<g id="graph0" class="graph" transform="scale(1 1) rotate(0) translate(4 252)">
<title>LIEF::ELF::NoteDetails</title>
<polygon fill="#ffffff" stroke="transparent" points="-4,4 -4,-252 396,-252 396,4 -4,4"/>
<!-- Node0 -->
<g id="node1" class="node">
<title>Node0</title>
<polygon fill="#bfbfbf" stroke="#000000" points="109,-114.5 109,-133.5 230,-133.5 230,-114.5 109,-114.5"/>
<text text-anchor="middle" x="169.5" y="-121.5" font-family="Helvetica,sans-Serif" font-size="10.00" fill="#000000">LIEF::ELF::NoteDetails</text>
</g>
<!-- Node2 -->
<g id="node3" class="node">
<title>Node2</title>
<g id="a_node3"><a xlink:href="classLIEF_1_1ELF_1_1AndroidNote.html" target="_top" xlink:title="LIEF::ELF::AndroidNote">
<polygon fill="#ffffff" stroke="#000000" points="267,-228.5 267,-247.5 391,-247.5 391,-228.5 267,-228.5"/>
<text text-anchor="middle" x="329" y="-235.5" font-family="Helvetica,sans-Serif" font-size="10.00" fill="#000000">LIEF::ELF::AndroidNote</text>
</a>
</g>
</g>
<!-- Node0&#45;&gt;Node2 -->
<g id="edge2" class="edge">
<title>Node0&#45;&gt;Node2</title>
<path fill="none" stroke="#191970" d="M182.7991,-141.5389C199.8386,-162.8357 231.3427,-198.4491 266,-219 272.4854,-222.8457 279.8142,-225.9713 287.1205,-228.4926"/>
<polygon fill="#191970" stroke="#191970" points="185.5283,-139.3472 176.6094,-133.6284 180.0153,-143.6609 185.5283,-139.3472"/>
</g>
<!-- Node3 -->
<g id="node4" class="node">
<title>Node3</title>
<g id="a_node4"><a xlink:href="classLIEF_1_1ELF_1_1CoreAuxv.html" target="_top" xlink:title="Class representing core Auxv object. ">
<polygon fill="#ffffff" stroke="#000000" points="274,-190.5 274,-209.5 384,-209.5 384,-190.5 274,-190.5"/>
<text text-anchor="middle" x="329" y="-197.5" font-family="Helvetica,sans-Serif" font-size="10.00" fill="#000000">LIEF::ELF::CoreAuxv</text>
</a>
</g>
</g>
<!-- Node0&#45;&gt;Node3 -->
<g id="edge3" class="edge">
<title>Node0&#45;&gt;Node3</title>
<path fill="none" stroke="#191970" d="M191.8634,-139.314C210.9118,-151.8344 239.3534,-169.3163 266,-181 274.1608,-184.5782 283.1972,-187.7399 291.818,-190.4065"/>
<polygon fill="#191970" stroke="#191970" points="193.5775,-136.2502 183.316,-133.6134 189.6935,-142.0738 193.5775,-136.2502"/>
</g>
<!-- Node4 -->
<g id="node5" class="node">
<title>Node4</title>
<g id="a_node5"><a xlink:href="classLIEF_1_1ELF_1_1CoreFile.html" target="_top" xlink:title="Class representing core PrPsInfo object. ">
<polygon fill="#ffffff" stroke="#000000" points="278,-152.5 278,-171.5 380,-171.5 380,-152.5 278,-152.5"/>
<text text-anchor="middle" x="329" y="-159.5" font-family="Helvetica,sans-Serif" font-size="10.00" fill="#000000">LIEF::ELF::CoreFile</text>
</a>
</g>
</g>
<!-- Node0&#45;&gt;Node4 -->
<g id="edge4" class="edge">
<title>Node0&#45;&gt;Node4</title>
<path fill="none" stroke="#191970" d="M219.734,-135.968C242.0855,-141.2931 268.0383,-147.4762 289.0408,-152.4799"/>
<polygon fill="#191970" stroke="#191970" points="220.2875,-132.502 209.7486,-133.589 218.6651,-139.3114 220.2875,-132.502"/>
</g>
<!-- Node5 -->
<g id="node6" class="node">
<title>Node5</title>
<g id="a_node6"><a xlink:href="classLIEF_1_1ELF_1_1CorePrPsInfo.html" target="_top" xlink:title="Class representing core PrPsInfo object. ">
<polygon fill="#ffffff" stroke="#000000" points="266.5,-114.5 266.5,-133.5 391.5,-133.5 391.5,-114.5 266.5,-114.5"/>
<text text-anchor="middle" x="329" y="-121.5" font-family="Helvetica,sans-Serif" font-size="10.00" fill="#000000">LIEF::ELF::CorePrPsInfo</text>
</a>
</g>
</g>
<!-- Node0&#45;&gt;Node5 -->
<g id="edge5" class="edge">
<title>Node0&#45;&gt;Node5</title>
<path fill="none" stroke="#191970" d="M240.3236,-124C248.9772,-124 257.7728,-124 266.2958,-124"/>
<polygon fill="#191970" stroke="#191970" points="240.2552,-120.5001 230.2551,-124 240.2551,-127.5001 240.2552,-120.5001"/>
</g>
<!-- Node6 -->
<g id="node7" class="node">
<title>Node6</title>
<g id="a_node7"><a xlink:href="classLIEF_1_1ELF_1_1CorePrStatus.html" target="_top" xlink:title="Class representing core PrPsInfo object. ">
<polygon fill="#ffffff" stroke="#000000" points="266,-76.5 266,-95.5 392,-95.5 392,-76.5 266,-76.5"/>
<text text-anchor="middle" x="329" y="-83.5" font-family="Helvetica,sans-Serif" font-size="10.00" fill="#000000">LIEF::ELF::CorePrStatus</text>
</a>
</g>
</g>
<!-- Node0&#45;&gt;Node6 -->
<g id="edge6" class="edge">
<title>Node0&#45;&gt;Node6</title>
<path fill="none" stroke="#191970" d="M219.734,-112.032C242.0855,-106.7069 268.0383,-100.5238 289.0408,-95.5201"/>
<polygon fill="#191970" stroke="#191970" points="218.6651,-108.6886 209.7486,-114.411 220.2875,-115.498 218.6651,-108.6886"/>
</g>
<!-- Node7 -->
<g id="node8" class="node">
<title>Node7</title>
<g id="a_node8"><a xlink:href="classLIEF_1_1ELF_1_1CoreSigInfo.html" target="_top" xlink:title="Class representing core siginfo object. ">
<polygon fill="#ffffff" stroke="#000000" points="269.5,-38.5 269.5,-57.5 388.5,-57.5 388.5,-38.5 269.5,-38.5"/>
<text text-anchor="middle" x="329" y="-45.5" font-family="Helvetica,sans-Serif" font-size="10.00" fill="#000000">LIEF::ELF::CoreSigInfo</text>
</a>
</g>
</g>
<!-- Node0&#45;&gt;Node7 -->
<g id="edge7" class="edge">
<title>Node0&#45;&gt;Node7</title>
<path fill="none" stroke="#191970" d="M191.8634,-108.686C210.9118,-96.1656 239.3534,-78.6837 266,-67 274.1608,-63.4218 283.1972,-60.2601 291.818,-57.5935"/>
<polygon fill="#191970" stroke="#191970" points="189.6935,-105.9262 183.316,-114.3866 193.5775,-111.7498 189.6935,-105.9262"/>
</g>
<!-- Node8 -->
<g id="node9" class="node">
<title>Node8</title>
<g id="a_node9"><a xlink:href="classLIEF_1_1ELF_1_1NoteAbi.html" target="_top" xlink:title="LIEF::ELF::NoteAbi">
<polygon fill="#ffffff" stroke="#000000" points="278,-.5 278,-19.5 380,-19.5 380,-.5 278,-.5"/>
<text text-anchor="middle" x="329" y="-7.5" font-family="Helvetica,sans-Serif" font-size="10.00" fill="#000000">LIEF::ELF::NoteAbi</text>
</a>
</g>
</g>
<!-- Node0&#45;&gt;Node8 -->
<g id="edge8" class="edge">
<title>Node0&#45;&gt;Node8</title>
<path fill="none" stroke="#191970" d="M182.7991,-106.4611C199.8386,-85.1643 231.3427,-49.5509 266,-29 272.4854,-25.1543 279.8142,-22.0287 287.1205,-19.5074"/>
<polygon fill="#191970" stroke="#191970" points="180.0153,-104.3391 176.6094,-114.3716 185.5283,-108.6528 180.0153,-104.3391"/>
</g>
<!-- Node1 -->
<g id="node2" class="node">
<title>Node1</title>
<g id="a_node2"><a xlink:href="classLIEF_1_1Object.html" target="_top" xlink:title="LIEF::Object">
<polygon fill="#ffffff" stroke="#000000" points="0,-114.5 0,-133.5 73,-133.5 73,-114.5 0,-114.5"/>
<text text-anchor="middle" x="36.5" y="-121.5" font-family="Helvetica,sans-Serif" font-size="10.00" fill="#000000">LIEF::Object</text>
</a>
</g>
</g>
<!-- Node1&#45;&gt;Node0 -->
<g id="edge1" class="edge">
<title>Node1&#45;&gt;Node0</title>
<path fill="none" stroke="#191970" d="M83.38,-124C91.6426,-124 100.349,-124 108.923,-124"/>
<polygon fill="#191970" stroke="#191970" points="83.1949,-120.5001 73.1949,-124 83.1949,-127.5001 83.1949,-120.5001"/>
</g>
</g>
</svg>
