<?xml version="1.0" encoding="UTF-8" standalone="no"?>
<!DOCTYPE svg PUBLIC "-//W3C//DTD SVG 1.1//EN"
 "http://www.w3.org/Graphics/SVG/1.1/DTD/svg11.dtd">
<!-- Generated by graphviz version 2.40.1 (20161225.0304)
 -->
<!-- Title: LIEF::PE::LoadConfigurationV4 Pages: 1 -->
<svg width="169pt" height="532pt"
 viewBox="0.00 0.00 169.00 532.00" xmlns="http://www.w3.org/2000/svg" xmlns:xlink="http://www.w3.org/1999/xlink">
<g id="graph0" class="graph" transform="scale(1 1) rotate(0) translate(4 528)">
<title>LIEF::PE::LoadConfigurationV4</title>
<polygon fill="#ffffff" stroke="transparent" points="-4,4 -4,-528 165,-528 165,4 -4,4"/>
<!-- Node0 -->
<g id="node1" class="node">
<title>Node0</title>
<polygon fill="#bfbfbf" stroke="#000000" points="0,-168.5 0,-187.5 161,-187.5 161,-168.5 0,-168.5"/>
<text text-anchor="middle" x="80.5" y="-175.5" font-family="Helvetica,sans-Serif" font-size="10.00" fill="#000000">LIEF::PE::LoadConfigurationV4</text>
</g>
<!-- Node7 -->
<g id="node8" class="node">
<title>Node7</title>
<g id="a_node8"><a xlink:href="classLIEF_1_1PE_1_1LoadConfigurationV5.html" target="_top" xlink:title="Load Configuration enhanced with Return Flow Guard. ">
<polygon fill="#ffffff" stroke="#000000" points="0,-112.5 0,-131.5 161,-131.5 161,-112.5 0,-112.5"/>
<text text-anchor="middle" x="80.5" y="-119.5" font-family="Helvetica,sans-Serif" font-size="10.00" fill="#000000">LIEF::PE::LoadConfigurationV5</text>
</a>
</g>
</g>
<!-- Node0&#45;&gt;Node7 -->
<g id="edge7" class="edge">
<title>Node0&#45;&gt;Node7</title>
<path fill="none" stroke="#191970" d="M80.5,-158.1575C80.5,-149.155 80.5,-138.9199 80.5,-131.6427"/>
<polygon fill="#191970" stroke="#191970" points="77.0001,-158.2455 80.5,-168.2455 84.0001,-158.2456 77.0001,-158.2455"/>
</g>
<!-- Node1 -->
<g id="node2" class="node">
<title>Node1</title>
<g id="a_node2"><a xlink:href="classLIEF_1_1PE_1_1LoadConfigurationV3.html" target="_top" xlink:title="LoadConfiguration with Control Flow Guard improved. ">
<polygon fill="#ffffff" stroke="#000000" points="0,-224.5 0,-243.5 161,-243.5 161,-224.5 0,-224.5"/>
<text text-anchor="middle" x="80.5" y="-231.5" font-family="Helvetica,sans-Serif" font-size="10.00" fill="#000000">LIEF::PE::LoadConfigurationV3</text>
</a>
</g>
</g>
<!-- Node1&#45;&gt;Node0 -->
<g id="edge1" class="edge">
<title>Node1&#45;&gt;Node0</title>
<path fill="none" stroke="#191970" d="M80.5,-214.1575C80.5,-205.155 80.5,-194.9199 80.5,-187.6427"/>
<polygon fill="#191970" stroke="#191970" points="77.0001,-214.2455 80.5,-224.2455 84.0001,-214.2456 77.0001,-214.2455"/>
</g>
<!-- Node2 -->
<g id="node3" class="node">
<title>Node2</title>
<g id="a_node3"><a xlink:href="classLIEF_1_1PE_1_1LoadConfigurationV2.html" target="_top" xlink:title="LoadConfiguration enhanced with code integrity. ">
<polygon fill="#ffffff" stroke="#000000" points="0,-280.5 0,-299.5 161,-299.5 161,-280.5 0,-280.5"/>
<text text-anchor="middle" x="80.5" y="-287.5" font-family="Helvetica,sans-Serif" font-size="10.00" fill="#000000">LIEF::PE::LoadConfigurationV2</text>
</a>
</g>
</g>
<!-- Node2&#45;&gt;Node1 -->
<g id="edge2" class="edge">
<title>Node2&#45;&gt;Node1</title>
<path fill="none" stroke="#191970" d="M80.5,-270.1575C80.5,-261.155 80.5,-250.9199 80.5,-243.6427"/>
<polygon fill="#191970" stroke="#191970" points="77.0001,-270.2455 80.5,-280.2455 84.0001,-270.2456 77.0001,-270.2455"/>
</g>
<!-- Node3 -->
<g id="node4" class="node">
<title>Node3</title>
<g id="a_node4"><a xlink:href="classLIEF_1_1PE_1_1LoadConfigurationV1.html" target="_top" xlink:title="LoadConfiguration enhanced with Control Flow Guard. ">
<polygon fill="#ffffff" stroke="#000000" points="0,-336.5 0,-355.5 161,-355.5 161,-336.5 0,-336.5"/>
<text text-anchor="middle" x="80.5" y="-343.5" font-family="Helvetica,sans-Serif" font-size="10.00" fill="#000000">LIEF::PE::LoadConfigurationV1</text>
</a>
</g>
</g>
<!-- Node3&#45;&gt;Node2 -->
<g id="edge3" class="edge">
<title>Node3&#45;&gt;Node2</title>
<path fill="none" stroke="#191970" d="M80.5,-326.1575C80.5,-317.155 80.5,-306.9199 80.5,-299.6427"/>
<polygon fill="#191970" stroke="#191970" points="77.0001,-326.2455 80.5,-336.2455 84.0001,-326.2456 77.0001,-326.2455"/>
</g>
<!-- Node4 -->
<g id="node5" class="node">
<title>Node4</title>
<g id="a_node5"><a xlink:href="classLIEF_1_1PE_1_1LoadConfigurationV0.html" target="_top" xlink:title="LoadConfiguration enhanced with SEH. ">
<polygon fill="#ffffff" stroke="#000000" points="0,-392.5 0,-411.5 161,-411.5 161,-392.5 0,-392.5"/>
<text text-anchor="middle" x="80.5" y="-399.5" font-family="Helvetica,sans-Serif" font-size="10.00" fill="#000000">LIEF::PE::LoadConfigurationV0</text>
</a>
</g>
</g>
<!-- Node4&#45;&gt;Node3 -->
<g id="edge4" class="edge">
<title>Node4&#45;&gt;Node3</title>
<path fill="none" stroke="#191970" d="M80.5,-382.1575C80.5,-373.155 80.5,-362.9199 80.5,-355.6427"/>
<polygon fill="#191970" stroke="#191970" points="77.0001,-382.2455 80.5,-392.2455 84.0001,-382.2456 77.0001,-382.2455"/>
</g>
<!-- Node5 -->
<g id="node6" class="node">
<title>Node5</title>
<g id="a_node6"><a xlink:href="classLIEF_1_1PE_1_1LoadConfiguration.html" target="_top" xlink:title="Class modeling the default PE&#39;s LoadConfiguration ">
<polygon fill="#ffffff" stroke="#000000" points="6.5,-448.5 6.5,-467.5 154.5,-467.5 154.5,-448.5 6.5,-448.5"/>
<text text-anchor="middle" x="80.5" y="-455.5" font-family="Helvetica,sans-Serif" font-size="10.00" fill="#000000">LIEF::PE::LoadConfiguration</text>
</a>
</g>
</g>
<!-- Node5&#45;&gt;Node4 -->
<g id="edge5" class="edge">
<title>Node5&#45;&gt;Node4</title>
<path fill="none" stroke="#191970" d="M80.5,-438.1575C80.5,-429.155 80.5,-418.9199 80.5,-411.6427"/>
<polygon fill="#191970" stroke="#191970" points="77.0001,-438.2455 80.5,-448.2455 84.0001,-438.2456 77.0001,-438.2455"/>
</g>
<!-- Node6 -->
<g id="node7" class="node">
<title>Node6</title>
<g id="a_node7"><a xlink:href="classLIEF_1_1Object.html" target="_top" xlink:title="LIEF::Object">
<polygon fill="#ffffff" stroke="#000000" points="44,-504.5 44,-523.5 117,-523.5 117,-504.5 44,-504.5"/>
<text text-anchor="middle" x="80.5" y="-511.5" font-family="Helvetica,sans-Serif" font-size="10.00" fill="#000000">LIEF::Object</text>
</a>
</g>
</g>
<!-- Node6&#45;&gt;Node5 -->
<g id="edge6" class="edge">
<title>Node6&#45;&gt;Node5</title>
<path fill="none" stroke="#191970" d="M80.5,-494.1575C80.5,-485.155 80.5,-474.9199 80.5,-467.6427"/>
<polygon fill="#191970" stroke="#191970" points="77.0001,-494.2455 80.5,-504.2455 84.0001,-494.2456 77.0001,-494.2455"/>
</g>
<!-- Node8 -->
<g id="node9" class="node">
<title>Node8</title>
<g id="a_node9"><a xlink:href="classLIEF_1_1PE_1_1LoadConfigurationV6.html" target="_top" xlink:title="Load Configuration enhanced with Hotpatch and improved RFG. ">
<polygon fill="#ffffff" stroke="#000000" points="0,-56.5 0,-75.5 161,-75.5 161,-56.5 0,-56.5"/>
<text text-anchor="middle" x="80.5" y="-63.5" font-family="Helvetica,sans-Serif" font-size="10.00" fill="#000000">LIEF::PE::LoadConfigurationV6</text>
</a>
</g>
</g>
<!-- Node7&#45;&gt;Node8 -->
<g id="edge8" class="edge">
<title>Node7&#45;&gt;Node8</title>
<path fill="none" stroke="#191970" d="M80.5,-102.1575C80.5,-93.155 80.5,-82.9199 80.5,-75.6427"/>
<polygon fill="#191970" stroke="#191970" points="77.0001,-102.2455 80.5,-112.2455 84.0001,-102.2456 77.0001,-102.2455"/>
</g>
<!-- Node9 -->
<g id="node10" class="node">
<title>Node9</title>
<g id="a_node10"><a xlink:href="classLIEF_1_1PE_1_1LoadConfigurationV7.html" target="_top" xlink:title="LIEF::PE::LoadConfigurationV7">
<polygon fill="#ffffff" stroke="#000000" points="0,-.5 0,-19.5 161,-19.5 161,-.5 0,-.5"/>
<text text-anchor="middle" x="80.5" y="-7.5" font-family="Helvetica,sans-Serif" font-size="10.00" fill="#000000">LIEF::PE::LoadConfigurationV7</text>
</a>
</g>
</g>
<!-- Node8&#45;&gt;Node9 -->
<g id="edge9" class="edge">
<title>Node8&#45;&gt;Node9</title>
<path fill="none" stroke="#191970" d="M80.5,-46.1575C80.5,-37.155 80.5,-26.9199 80.5,-19.6427"/>
<polygon fill="#191970" stroke="#191970" points="77.0001,-46.2455 80.5,-56.2455 84.0001,-46.2456 77.0001,-46.2455"/>
</g>
</g>
</svg>
