<?xml version="1.0" encoding="UTF-8" standalone="no"?>
<!DOCTYPE svg PUBLIC "-//W3C//DTD SVG 1.1//EN"
 "http://www.w3.org/Graphics/SVG/1.1/DTD/svg11.dtd">
<!-- Generated by graphviz version 2.40.1 (20161225.0304)
 -->
<!-- Title: LIEF::PE::ResourceNode Pages: 1 -->
<svg width="302pt" height="140pt"
 viewBox="0.00 0.00 302.00 140.00" xmlns="http://www.w3.org/2000/svg" xmlns:xlink="http://www.w3.org/1999/xlink">
<g id="graph0" class="graph" transform="scale(1 1) rotate(0) translate(4 136)">
<title>LIEF::PE::ResourceNode</title>
<polygon fill="#ffffff" stroke="transparent" points="-4,4 -4,-136 298,-136 298,4 -4,4"/>
<!-- Node0 -->
<g id="node1" class="node">
<title>Node0</title>
<polygon fill="#bfbfbf" stroke="#000000" points="77,-56.5 77,-75.5 206,-75.5 206,-56.5 77,-56.5"/>
<text text-anchor="middle" x="141.5" y="-63.5" font-family="Helvetica,sans-Serif" font-size="10.00" fill="#000000">LIEF::PE::ResourceNode</text>
</g>
<!-- Node2 -->
<g id="node3" class="node">
<title>Node2</title>
<g id="a_node3"><a xlink:href="classLIEF_1_1PE_1_1ResourceData.html" target="_top" xlink:title="LIEF::PE::ResourceData">
<polygon fill="#ffffff" stroke="#000000" points="0,-.5 0,-19.5 127,-19.5 127,-.5 0,-.5"/>
<text text-anchor="middle" x="63.5" y="-7.5" font-family="Helvetica,sans-Serif" font-size="10.00" fill="#000000">LIEF::PE::ResourceData</text>
</a>
</g>
</g>
<!-- Node0&#45;&gt;Node2 -->
<g id="edge2" class="edge">
<title>Node0&#45;&gt;Node2</title>
<path fill="none" stroke="#191970" d="M119.5064,-50.2097C105.8071,-40.3743 88.6264,-28.0394 76.9309,-19.6427"/>
<polygon fill="#191970" stroke="#191970" points="117.7489,-53.2566 127.9134,-56.2455 121.8314,-47.5703 117.7489,-53.2566"/>
</g>
<!-- Node3 -->
<g id="node4" class="node">
<title>Node3</title>
<g id="a_node4"><a xlink:href="classLIEF_1_1PE_1_1ResourceDirectory.html" target="_top" xlink:title="LIEF::PE::ResourceDirectory">
<polygon fill="#ffffff" stroke="#000000" points="145,-.5 145,-19.5 294,-19.5 294,-.5 145,-.5"/>
<text text-anchor="middle" x="219.5" y="-7.5" font-family="Helvetica,sans-Serif" font-size="10.00" fill="#000000">LIEF::PE::ResourceDirectory</text>
</a>
</g>
</g>
<!-- Node0&#45;&gt;Node3 -->
<g id="edge3" class="edge">
<title>Node0&#45;&gt;Node3</title>
<path fill="none" stroke="#191970" d="M163.4936,-50.2097C177.1929,-40.3743 194.3736,-28.0394 206.0691,-19.6427"/>
<polygon fill="#191970" stroke="#191970" points="161.1686,-47.5703 155.0866,-56.2455 165.2511,-53.2566 161.1686,-47.5703"/>
</g>
<!-- Node1 -->
<g id="node2" class="node">
<title>Node1</title>
<g id="a_node2"><a xlink:href="classLIEF_1_1Object.html" target="_top" xlink:title="LIEF::Object">
<polygon fill="#ffffff" stroke="#000000" points="105,-112.5 105,-131.5 178,-131.5 178,-112.5 105,-112.5"/>
<text text-anchor="middle" x="141.5" y="-119.5" font-family="Helvetica,sans-Serif" font-size="10.00" fill="#000000">LIEF::Object</text>
</a>
</g>
</g>
<!-- Node1&#45;&gt;Node0 -->
<g id="edge1" class="edge">
<title>Node1&#45;&gt;Node0</title>
<path fill="none" stroke="#191970" d="M141.5,-102.1575C141.5,-93.155 141.5,-82.9199 141.5,-75.6427"/>
<polygon fill="#191970" stroke="#191970" points="138.0001,-102.2455 141.5,-112.2455 145.0001,-102.2456 138.0001,-102.2455"/>
</g>
</g>
</svg>
