<?xml version="1.0" encoding="UTF-8" standalone="no"?>
<!DOCTYPE svg PUBLIC "-//W3C//DTD SVG 1.1//EN"
 "http://www.w3.org/Graphics/SVG/1.1/DTD/svg11.dtd">
<!-- Generated by graphviz version 2.40.1 (20161225.0304)
 -->
<!-- Title: LIEF::pe_error Pages: 1 -->
<svg width="97pt" height="140pt"
 viewBox="0.00 0.00 97.00 140.00" xmlns="http://www.w3.org/2000/svg" xmlns:xlink="http://www.w3.org/1999/xlink">
<g id="graph0" class="graph" transform="scale(1 1) rotate(0) translate(4 136)">
<title>LIEF::pe_error</title>
<polygon fill="#ffffff" stroke="transparent" points="-4,4 -4,-136 93,-136 93,4 -4,4"/>
<!-- Node4 -->
<g id="node1" class="node">
<title>Node4</title>
<polygon fill="#bfbfbf" stroke="#000000" points="3.5,-.5 3.5,-19.5 85.5,-19.5 85.5,-.5 3.5,-.5"/>
<text text-anchor="middle" x="44.5" y="-7.5" font-family="Helvetica,sans-Serif" font-size="10.00" fill="#000000">LIEF::pe_error</text>
</g>
<!-- Node5 -->
<g id="node2" class="node">
<title>Node5</title>
<g id="a_node2"><a xlink:href="classLIEF_1_1exception.html" target="_top" xlink:title="LIEF::exception">
<polygon fill="#ffffff" stroke="#000000" points="0,-56.5 0,-75.5 89,-75.5 89,-56.5 0,-56.5"/>
<text text-anchor="middle" x="44.5" y="-63.5" font-family="Helvetica,sans-Serif" font-size="10.00" fill="#000000">LIEF::exception</text>
</a>
</g>
</g>
<!-- Node5&#45;&gt;Node4 -->
<g id="edge1" class="edge">
<title>Node5&#45;&gt;Node4</title>
<path fill="none" stroke="#191970" d="M44.5,-46.1575C44.5,-37.155 44.5,-26.9199 44.5,-19.6427"/>
<polygon fill="#191970" stroke="#191970" points="41.0001,-46.2455 44.5,-56.2455 48.0001,-46.2456 41.0001,-46.2455"/>
</g>
<!-- Node6 -->
<g id="node3" class="node">
<title>Node6</title>
<polygon fill="#ffffff" stroke="#bfbfbf" points="1.5,-112.5 1.5,-131.5 87.5,-131.5 87.5,-112.5 1.5,-112.5"/>
<text text-anchor="middle" x="44.5" y="-119.5" font-family="Helvetica,sans-Serif" font-size="10.00" fill="#000000">std::exception</text>
</g>
<!-- Node6&#45;&gt;Node5 -->
<g id="edge2" class="edge">
<title>Node6&#45;&gt;Node5</title>
<path fill="none" stroke="#191970" d="M44.5,-102.1575C44.5,-93.155 44.5,-82.9199 44.5,-75.6427"/>
<polygon fill="#191970" stroke="#191970" points="41.0001,-102.2455 44.5,-112.2455 48.0001,-102.2456 41.0001,-102.2455"/>
</g>
</g>
</svg>
