<?xml version="1.0" encoding="UTF-8" standalone="no"?>
<!DOCTYPE svg PUBLIC "-//W3C//DTD SVG 1.1//EN"
 "http://www.w3.org/Graphics/SVG/1.1/DTD/svg11.dtd">
<!-- Generated by graphviz version 2.40.1 (20161225.0304)
 -->
<!-- Title: LIEF::Symbol Pages: 1 -->
<svg width="458pt" height="140pt"
 viewBox="0.00 0.00 458.00 140.00" xmlns="http://www.w3.org/2000/svg" xmlns:xlink="http://www.w3.org/1999/xlink">
<g id="graph0" class="graph" transform="scale(1 1) rotate(0) translate(4 136)">
<title>LIEF::Symbol</title>
<polygon fill="#ffffff" stroke="transparent" points="-4,4 -4,-136 454,-136 454,4 -4,4"/>
<!-- Node0 -->
<g id="node1" class="node">
<title>Node0</title>
<polygon fill="#bfbfbf" stroke="#000000" points="179,-56.5 179,-75.5 257,-75.5 257,-56.5 179,-56.5"/>
<text text-anchor="middle" x="218" y="-63.5" font-family="Helvetica,sans-Serif" font-size="10.00" fill="#000000">LIEF::Symbol</text>
</g>
<!-- Node2 -->
<g id="node3" class="node">
<title>Node2</title>
<g id="a_node3"><a xlink:href="classLIEF_1_1ELF_1_1Symbol.html" target="_top" xlink:title="LIEF::ELF::Symbol">
<polygon fill="#ffffff" stroke="#000000" points="0,-.5 0,-19.5 100,-19.5 100,-.5 0,-.5"/>
<text text-anchor="middle" x="50" y="-7.5" font-family="Helvetica,sans-Serif" font-size="10.00" fill="#000000">LIEF::ELF::Symbol</text>
</a>
</g>
</g>
<!-- Node0&#45;&gt;Node2 -->
<g id="edge2" class="edge">
<title>Node0&#45;&gt;Node2</title>
<path fill="none" stroke="#191970" d="M179.5714,-53.1905C148.7927,-42.9309 106.3074,-28.7691 78.5034,-19.5011"/>
<polygon fill="#191970" stroke="#191970" points="178.5261,-56.5313 189.1198,-56.3733 180.7398,-49.8905 178.5261,-56.5313"/>
</g>
<!-- Node3 -->
<g id="node4" class="node">
<title>Node3</title>
<g id="a_node4"><a xlink:href="classLIEF_1_1Function.html" target="_top" xlink:title="LIEF::Function">
<polygon fill="#ffffff" stroke="#000000" points="118,-.5 118,-19.5 200,-19.5 200,-.5 118,-.5"/>
<text text-anchor="middle" x="159" y="-7.5" font-family="Helvetica,sans-Serif" font-size="10.00" fill="#000000">LIEF::Function</text>
</a>
</g>
</g>
<!-- Node0&#45;&gt;Node3 -->
<g id="edge3" class="edge">
<title>Node0&#45;&gt;Node3</title>
<path fill="none" stroke="#191970" d="M200.4693,-49.3607C190.2623,-39.6727 177.7531,-27.7995 169.1592,-19.6427"/>
<polygon fill="#191970" stroke="#191970" points="198.0604,-51.8998 207.723,-56.2455 202.8794,-46.8227 198.0604,-51.8998"/>
</g>
<!-- Node4 -->
<g id="node5" class="node">
<title>Node4</title>
<g id="a_node5"><a xlink:href="classLIEF_1_1MachO_1_1Symbol.html" target="_top" xlink:title="LIEF::MachO::Symbol">
<polygon fill="#ffffff" stroke="#000000" points="218.5,-.5 218.5,-19.5 335.5,-19.5 335.5,-.5 218.5,-.5"/>
<text text-anchor="middle" x="277" y="-7.5" font-family="Helvetica,sans-Serif" font-size="10.00" fill="#000000">LIEF::MachO::Symbol</text>
</a>
</g>
</g>
<!-- Node0&#45;&gt;Node4 -->
<g id="edge4" class="edge">
<title>Node0&#45;&gt;Node4</title>
<path fill="none" stroke="#191970" d="M235.5307,-49.3607C245.7377,-39.6727 258.2469,-27.7995 266.8408,-19.6427"/>
<polygon fill="#191970" stroke="#191970" points="233.1206,-46.8227 228.277,-56.2455 237.9396,-51.8998 233.1206,-46.8227"/>
</g>
<!-- Node5 -->
<g id="node6" class="node">
<title>Node5</title>
<g id="a_node6"><a xlink:href="classLIEF_1_1PE_1_1Symbol.html" target="_top" xlink:title="LIEF::PE::Symbol">
<polygon fill="#ffffff" stroke="#000000" points="354,-.5 354,-19.5 450,-19.5 450,-.5 354,-.5"/>
<text text-anchor="middle" x="402" y="-7.5" font-family="Helvetica,sans-Serif" font-size="10.00" fill="#000000">LIEF::PE::Symbol</text>
</a>
</g>
</g>
<!-- Node0&#45;&gt;Node5 -->
<g id="edge5" class="edge">
<title>Node0&#45;&gt;Node5</title>
<path fill="none" stroke="#191970" d="M259.2157,-53.4561C292.9916,-43.1765 340.0663,-28.8494 370.782,-19.5011"/>
<polygon fill="#191970" stroke="#191970" points="258.1784,-50.1132 249.6307,-56.3733 260.2166,-56.8099 258.1784,-50.1132"/>
</g>
<!-- Node1 -->
<g id="node2" class="node">
<title>Node1</title>
<g id="a_node2"><a xlink:href="classLIEF_1_1Object.html" target="_top" xlink:title="LIEF::Object">
<polygon fill="#ffffff" stroke="#000000" points="181.5,-112.5 181.5,-131.5 254.5,-131.5 254.5,-112.5 181.5,-112.5"/>
<text text-anchor="middle" x="218" y="-119.5" font-family="Helvetica,sans-Serif" font-size="10.00" fill="#000000">LIEF::Object</text>
</a>
</g>
</g>
<!-- Node1&#45;&gt;Node0 -->
<g id="edge1" class="edge">
<title>Node1&#45;&gt;Node0</title>
<path fill="none" stroke="#191970" d="M218,-102.1575C218,-93.155 218,-82.9199 218,-75.6427"/>
<polygon fill="#191970" stroke="#191970" points="214.5001,-102.2455 218,-112.2455 221.5001,-102.2456 214.5001,-102.2455"/>
</g>
</g>
</svg>
