<?xml version="1.0" encoding="UTF-8" standalone="no"?>
<!DOCTYPE svg PUBLIC "-//W3C//DTD SVG 1.1//EN"
 "http://www.w3.org/Graphics/SVG/1.1/DTD/svg11.dtd">
<!-- Generated by graphviz version 2.40.1 (20161225.0304)
 -->
<!-- Title: LIEF::oprefixstream Pages: 1 -->
<svg width="191pt" height="140pt"
 viewBox="0.00 0.00 191.00 140.00" xmlns="http://www.w3.org/2000/svg" xmlns:xlink="http://www.w3.org/1999/xlink">
<g id="graph0" class="graph" transform="scale(1 1) rotate(0) translate(4 136)">
<title>LIEF::oprefixstream</title>
<polygon fill="#ffffff" stroke="transparent" points="-4,4 -4,-136 187,-136 187,4 -4,4"/>
<!-- Node4 -->
<g id="node1" class="node">
<title>Node4</title>
<polygon fill="#bfbfbf" stroke="#000000" points="39,-.5 39,-19.5 149,-19.5 149,-.5 39,-.5"/>
<text text-anchor="middle" x="94" y="-7.5" font-family="Helvetica,sans-Serif" font-size="10.00" fill="#000000">LIEF::oprefixstream</text>
</g>
<!-- Node5 -->
<g id="node2" class="node">
<title>Node5</title>
<g id="a_node2"><a xlink:href="classLIEF_1_1prefixbuf.html" target="_top" xlink:title="LIEF::prefixbuf">
<polygon fill="#ffffff" stroke="#000000" points="1.5,-56.5 1.5,-75.5 86.5,-75.5 86.5,-56.5 1.5,-56.5"/>
<text text-anchor="middle" x="44" y="-63.5" font-family="Helvetica,sans-Serif" font-size="10.00" fill="#000000">LIEF::prefixbuf</text>
</a>
</g>
</g>
<!-- Node5&#45;&gt;Node4 -->
<g id="edge1" class="edge">
<title>Node5&#45;&gt;Node4</title>
<path fill="none" stroke="#8b1a1a" d="M59.6247,-48.5004C68.1273,-38.9775 78.3218,-27.5596 85.3905,-19.6427"/>
<polygon fill="#8b1a1a" stroke="#8b1a1a" points="56.7587,-46.4551 52.7093,-56.2455 61.9803,-51.1172 56.7587,-46.4551"/>
</g>
<!-- Node6 -->
<g id="node3" class="node">
<title>Node6</title>
<polygon fill="#ffffff" stroke="#bfbfbf" points="0,-112.5 0,-131.5 88,-131.5 88,-112.5 0,-112.5"/>
<text text-anchor="middle" x="44" y="-119.5" font-family="Helvetica,sans-Serif" font-size="10.00" fill="#000000">std::streambuf</text>
</g>
<!-- Node6&#45;&gt;Node5 -->
<g id="edge2" class="edge">
<title>Node6&#45;&gt;Node5</title>
<path fill="none" stroke="#191970" d="M44,-102.1575C44,-93.155 44,-82.9199 44,-75.6427"/>
<polygon fill="#191970" stroke="#191970" points="40.5001,-102.2455 44,-112.2455 47.5001,-102.2456 40.5001,-102.2455"/>
</g>
<!-- Node7 -->
<g id="node4" class="node">
<title>Node7</title>
<polygon fill="#ffffff" stroke="#bfbfbf" points="105,-56.5 105,-75.5 183,-75.5 183,-56.5 105,-56.5"/>
<text text-anchor="middle" x="144" y="-63.5" font-family="Helvetica,sans-Serif" font-size="10.00" fill="#000000">std::ostream</text>
</g>
<!-- Node7&#45;&gt;Node4 -->
<g id="edge3" class="edge">
<title>Node7&#45;&gt;Node4</title>
<path fill="none" stroke="#191970" d="M128.3753,-48.5004C119.8727,-38.9775 109.6782,-27.5596 102.6095,-19.6427"/>
<polygon fill="#191970" stroke="#191970" points="126.0197,-51.1172 135.2907,-56.2455 131.2413,-46.4551 126.0197,-51.1172"/>
</g>
</g>
</svg>
