<?xml version="1.0" encoding="UTF-8" standalone="no"?>
<!DOCTYPE svg PUBLIC "-//W3C//DTD SVG 1.1//EN"
 "http://www.w3.org/Graphics/SVG/1.1/DTD/svg11.dtd">
<!-- Generated by graphviz version 2.40.1 (20161225.0304)
 -->
<!-- Title: LIEF::MachO::DyldEnvironment Pages: 1 -->
<svg width="173pt" height="140pt"
 viewBox="0.00 0.00 173.00 140.00" xmlns="http://www.w3.org/2000/svg" xmlns:xlink="http://www.w3.org/1999/xlink">
<g id="graph0" class="graph" transform="scale(1 1) rotate(0) translate(4 136)">
<title>LIEF::MachO::DyldEnvironment</title>
<polygon fill="#ffffff" stroke="transparent" points="-4,4 -4,-136 169,-136 169,4 -4,4"/>
<!-- Node3 -->
<g id="node1" class="node">
<title>Node3</title>
<polygon fill="#bfbfbf" stroke="#000000" points="0,-.5 0,-19.5 165,-19.5 165,-.5 0,-.5"/>
<text text-anchor="middle" x="82.5" y="-7.5" font-family="Helvetica,sans-Serif" font-size="10.00" fill="#000000">LIEF::MachO::DyldEnvironment</text>
</g>
<!-- Node4 -->
<g id="node2" class="node">
<title>Node4</title>
<g id="a_node2"><a xlink:href="classLIEF_1_1MachO_1_1LoadCommand.html" target="_top" xlink:title="LIEF::MachO::LoadCommand">
<polygon fill="#ffffff" stroke="#000000" points="5.5,-56.5 5.5,-75.5 159.5,-75.5 159.5,-56.5 5.5,-56.5"/>
<text text-anchor="middle" x="82.5" y="-63.5" font-family="Helvetica,sans-Serif" font-size="10.00" fill="#000000">LIEF::MachO::LoadCommand</text>
</a>
</g>
</g>
<!-- Node4&#45;&gt;Node3 -->
<g id="edge1" class="edge">
<title>Node4&#45;&gt;Node3</title>
<path fill="none" stroke="#191970" d="M82.5,-46.1575C82.5,-37.155 82.5,-26.9199 82.5,-19.6427"/>
<polygon fill="#191970" stroke="#191970" points="79.0001,-46.2455 82.5,-56.2455 86.0001,-46.2456 79.0001,-46.2455"/>
</g>
<!-- Node5 -->
<g id="node3" class="node">
<title>Node5</title>
<g id="a_node3"><a xlink:href="classLIEF_1_1Object.html" target="_top" xlink:title="LIEF::Object">
<polygon fill="#ffffff" stroke="#000000" points="46,-112.5 46,-131.5 119,-131.5 119,-112.5 46,-112.5"/>
<text text-anchor="middle" x="82.5" y="-119.5" font-family="Helvetica,sans-Serif" font-size="10.00" fill="#000000">LIEF::Object</text>
</a>
</g>
</g>
<!-- Node5&#45;&gt;Node4 -->
<g id="edge2" class="edge">
<title>Node5&#45;&gt;Node4</title>
<path fill="none" stroke="#191970" d="M82.5,-102.1575C82.5,-93.155 82.5,-82.9199 82.5,-75.6427"/>
<polygon fill="#191970" stroke="#191970" points="79.0001,-102.2455 82.5,-112.2455 86.0001,-102.2456 79.0001,-102.2455"/>
</g>
</g>
</svg>
