<?xml version="1.0" encoding="UTF-8" standalone="no"?>
<!DOCTYPE svg PUBLIC "-//W3C//DTD SVG 1.1//EN"
 "http://www.w3.org/Graphics/SVG/1.1/DTD/svg11.dtd">
<!-- Generated by graphviz version 2.40.1 (20161225.0304)
 -->
<!-- Title: utf8::exception Pages: 1 -->
<svg width="365pt" height="154pt"
 viewBox="0.00 0.00 365.00 153.50" xmlns="http://www.w3.org/2000/svg" xmlns:xlink="http://www.w3.org/1999/xlink">
<g id="graph0" class="graph" transform="scale(1 1) rotate(0) translate(4 149.5)">
<title>utf8::exception</title>
<polygon fill="#ffffff" stroke="transparent" points="-4,4 -4,-149.5 361,-149.5 361,4 -4,4"/>
<!-- Node0 -->
<g id="node1" class="node">
<title>Node0</title>
<polygon fill="#bfbfbf" stroke="#000000" points="101,-57.5 101,-76.5 191,-76.5 191,-57.5 101,-57.5"/>
<text text-anchor="middle" x="146" y="-64.5" font-family="Helvetica,sans-Serif" font-size="10.00" fill="#000000">utf8::exception</text>
</g>
<!-- Node2 -->
<g id="node3" class="node">
<title>Node2</title>
<g id="a_node3"><a xlink:href="classutf8_1_1invalid__code__point.html" target="_top" xlink:title="utf8::invalid_code\l_point">
<polygon fill="#ffffff" stroke="#000000" points="240,-115 240,-145 344,-145 344,-115 240,-115"/>
<text text-anchor="start" x="248" y="-133" font-family="Helvetica,sans-Serif" font-size="10.00" fill="#000000">utf8::invalid_code</text>
<text text-anchor="middle" x="292" y="-122" font-family="Helvetica,sans-Serif" font-size="10.00" fill="#000000">_point</text>
</a>
</g>
</g>
<!-- Node0&#45;&gt;Node2 -->
<g id="edge2" class="edge">
<title>Node0&#45;&gt;Node2</title>
<path fill="none" stroke="#191970" d="M174.4935,-80.9763C189.9157,-88.3861 209.3684,-97.4849 227,-105 234.8969,-108.3659 243.4133,-111.7878 251.5981,-114.9757"/>
<polygon fill="#191970" stroke="#191970" points="175.9906,-77.8125 165.4642,-76.6101 172.9432,-84.1144 175.9906,-77.8125"/>
</g>
<!-- Node3 -->
<g id="node4" class="node">
<title>Node3</title>
<g id="a_node4"><a xlink:href="classutf8_1_1invalid__utf16.html" target="_top" xlink:title="utf8::invalid_utf16">
<polygon fill="#ffffff" stroke="#000000" points="239,-76.5 239,-95.5 345,-95.5 345,-76.5 239,-76.5"/>
<text text-anchor="middle" x="292" y="-83.5" font-family="Helvetica,sans-Serif" font-size="10.00" fill="#000000">utf8::invalid_utf16</text>
</a>
</g>
</g>
<!-- Node0&#45;&gt;Node3 -->
<g id="edge3" class="edge">
<title>Node0&#45;&gt;Node3</title>
<path fill="none" stroke="#191970" d="M201.5142,-74.2244C213.7966,-75.8228 226.7807,-77.5126 238.9616,-79.0977"/>
<polygon fill="#191970" stroke="#191970" points="201.7631,-70.7274 191.395,-72.9076 200.8597,-77.6689 201.7631,-70.7274"/>
</g>
<!-- Node4 -->
<g id="node5" class="node">
<title>Node4</title>
<g id="a_node5"><a xlink:href="classutf8_1_1invalid__utf8.html" target="_top" xlink:title="utf8::invalid_utf8">
<polygon fill="#ffffff" stroke="#000000" points="242,-38.5 242,-57.5 342,-57.5 342,-38.5 242,-38.5"/>
<text text-anchor="middle" x="292" y="-45.5" font-family="Helvetica,sans-Serif" font-size="10.00" fill="#000000">utf8::invalid_utf8</text>
</a>
</g>
</g>
<!-- Node0&#45;&gt;Node4 -->
<g id="edge4" class="edge">
<title>Node0&#45;&gt;Node4</title>
<path fill="none" stroke="#191970" d="M201.3627,-59.7953C214.6501,-58.0661 228.7668,-56.229 241.8046,-54.5323"/>
<polygon fill="#191970" stroke="#191970" points="200.8597,-56.3311 191.395,-61.0924 201.7631,-63.2726 200.8597,-56.3311"/>
</g>
<!-- Node5 -->
<g id="node6" class="node">
<title>Node5</title>
<g id="a_node6"><a xlink:href="classutf8_1_1not__enough__room.html" target="_top" xlink:title="utf8::not_enough_room">
<polygon fill="#ffffff" stroke="#000000" points="227,-.5 227,-19.5 357,-19.5 357,-.5 227,-.5"/>
<text text-anchor="middle" x="292" y="-7.5" font-family="Helvetica,sans-Serif" font-size="10.00" fill="#000000">utf8::not_enough_room</text>
</a>
</g>
</g>
<!-- Node0&#45;&gt;Node5 -->
<g id="edge5" class="edge">
<title>Node0&#45;&gt;Node5</title>
<path fill="none" stroke="#191970" d="M173.3329,-52.8872C188.8247,-45.2176 208.7116,-35.9156 227,-29 236.1275,-25.5485 246.169,-22.3379 255.5725,-19.5747"/>
<polygon fill="#191970" stroke="#191970" points="171.6766,-49.8024 164.3086,-57.4158 174.8162,-56.0588 171.6766,-49.8024"/>
</g>
<!-- Node1 -->
<g id="node2" class="node">
<title>Node1</title>
<polygon fill="#ffffff" stroke="#bfbfbf" points="0,-57.5 0,-76.5 65,-76.5 65,-57.5 0,-57.5"/>
<text text-anchor="middle" x="32.5" y="-64.5" font-family="Helvetica,sans-Serif" font-size="10.00" fill="#000000">exception</text>
</g>
<!-- Node1&#45;&gt;Node0 -->
<g id="edge1" class="edge">
<title>Node1&#45;&gt;Node0</title>
<path fill="none" stroke="#191970" d="M75.2889,-67C83.6194,-67 92.3779,-67 100.7838,-67"/>
<polygon fill="#191970" stroke="#191970" points="75.0246,-63.5001 65.0245,-67 75.0245,-70.5001 75.0246,-63.5001"/>
</g>
</g>
</svg>
