<?xml version="1.0" encoding="UTF-8" standalone="no"?>
<!DOCTYPE svg PUBLIC "-//W3C//DTD SVG 1.1//EN"
 "http://www.w3.org/Graphics/SVG/1.1/DTD/svg11.dtd">
<!-- Generated by graphviz version 2.40.1 (20161225.0304)
 -->
<!-- Title: LIEF::Relocation Pages: 1 -->
<svg width="426pt" height="196pt"
 viewBox="0.00 0.00 426.00 196.00" xmlns="http://www.w3.org/2000/svg" xmlns:xlink="http://www.w3.org/1999/xlink">
<g id="graph0" class="graph" transform="scale(1 1) rotate(0) translate(4 192)">
<title>LIEF::Relocation</title>
<polygon fill="#ffffff" stroke="transparent" points="-4,4 -4,-192 422,-192 422,4 -4,4"/>
<!-- Node0 -->
<g id="node1" class="node">
<title>Node0</title>
<polygon fill="#bfbfbf" stroke="#000000" points="152,-112.5 152,-131.5 244,-131.5 244,-112.5 152,-112.5"/>
<text text-anchor="middle" x="198" y="-119.5" font-family="Helvetica,sans-Serif" font-size="10.00" fill="#000000">LIEF::Relocation</text>
</g>
<!-- Node2 -->
<g id="node3" class="node">
<title>Node2</title>
<g id="a_node3"><a xlink:href="classLIEF_1_1ELF_1_1Relocation.html" target="_top" xlink:title="LIEF::ELF::Relocation">
<polygon fill="#ffffff" stroke="#000000" points="0,-56.5 0,-75.5 114,-75.5 114,-56.5 0,-56.5"/>
<text text-anchor="middle" x="57" y="-63.5" font-family="Helvetica,sans-Serif" font-size="10.00" fill="#000000">LIEF::ELF::Relocation</text>
</a>
</g>
</g>
<!-- Node0&#45;&gt;Node2 -->
<g id="edge2" class="edge">
<title>Node0&#45;&gt;Node2</title>
<path fill="none" stroke="#191970" d="M164.3968,-108.6541C138.6841,-98.4419 103.8539,-84.6086 80.9225,-75.5011"/>
<polygon fill="#191970" stroke="#191970" points="163.1755,-111.9349 173.7612,-112.3733 165.7593,-105.4292 163.1755,-111.9349"/>
</g>
<!-- Node3 -->
<g id="node4" class="node">
<title>Node3</title>
<g id="a_node4"><a xlink:href="classLIEF_1_1MachO_1_1Relocation.html" target="_top" xlink:title="Object modeling relocation. ">
<polygon fill="#ffffff" stroke="#000000" points="132.5,-56.5 132.5,-75.5 263.5,-75.5 263.5,-56.5 132.5,-56.5"/>
<text text-anchor="middle" x="198" y="-63.5" font-family="Helvetica,sans-Serif" font-size="10.00" fill="#000000">LIEF::MachO::Relocation</text>
</a>
</g>
</g>
<!-- Node0&#45;&gt;Node3 -->
<g id="edge3" class="edge">
<title>Node0&#45;&gt;Node3</title>
<path fill="none" stroke="#191970" d="M198,-102.1575C198,-93.155 198,-82.9199 198,-75.6427"/>
<polygon fill="#191970" stroke="#191970" points="194.5001,-102.2455 198,-112.2455 201.5001,-102.2456 194.5001,-102.2455"/>
</g>
<!-- Node6 -->
<g id="node7" class="node">
<title>Node6</title>
<g id="a_node7"><a xlink:href="classLIEF_1_1PE_1_1RelocationEntry.html" target="_top" xlink:title="LIEF::PE::RelocationEntry">
<polygon fill="#ffffff" stroke="#000000" points="282,-56.5 282,-75.5 418,-75.5 418,-56.5 282,-56.5"/>
<text text-anchor="middle" x="350" y="-63.5" font-family="Helvetica,sans-Serif" font-size="10.00" fill="#000000">LIEF::PE::RelocationEntry</text>
</a>
</g>
</g>
<!-- Node0&#45;&gt;Node6 -->
<g id="edge6" class="edge">
<title>Node0&#45;&gt;Node6</title>
<path fill="none" stroke="#191970" d="M233.859,-108.7888C261.6123,-98.5639 299.3819,-84.6488 324.2112,-75.5011"/>
<polygon fill="#191970" stroke="#191970" points="232.3032,-105.6319 224.1297,-112.3733 234.7232,-112.2003 232.3032,-105.6319"/>
</g>
<!-- Node1 -->
<g id="node2" class="node">
<title>Node1</title>
<g id="a_node2"><a xlink:href="classLIEF_1_1Object.html" target="_top" xlink:title="LIEF::Object">
<polygon fill="#ffffff" stroke="#000000" points="161.5,-168.5 161.5,-187.5 234.5,-187.5 234.5,-168.5 161.5,-168.5"/>
<text text-anchor="middle" x="198" y="-175.5" font-family="Helvetica,sans-Serif" font-size="10.00" fill="#000000">LIEF::Object</text>
</a>
</g>
</g>
<!-- Node1&#45;&gt;Node0 -->
<g id="edge1" class="edge">
<title>Node1&#45;&gt;Node0</title>
<path fill="none" stroke="#191970" d="M198,-158.1575C198,-149.155 198,-138.9199 198,-131.6427"/>
<polygon fill="#191970" stroke="#191970" points="194.5001,-158.2455 198,-168.2455 201.5001,-158.2456 194.5001,-158.2455"/>
</g>
<!-- Node4 -->
<g id="node5" class="node">
<title>Node4</title>
<g id="a_node5"><a xlink:href="classLIEF_1_1MachO_1_1RelocationDyld.html" target="_top" xlink:title="LIEF::MachO::RelocationDyld">
<polygon fill="#ffffff" stroke="#000000" points="33,-.5 33,-19.5 187,-19.5 187,-.5 33,-.5"/>
<text text-anchor="middle" x="110" y="-7.5" font-family="Helvetica,sans-Serif" font-size="10.00" fill="#000000">LIEF::MachO::RelocationDyld</text>
</a>
</g>
</g>
<!-- Node3&#45;&gt;Node4 -->
<g id="edge4" class="edge">
<title>Node3&#45;&gt;Node4</title>
<path fill="none" stroke="#191970" d="M174.0655,-50.769C158.4717,-40.8456 138.599,-28.1994 125.1528,-19.6427"/>
<polygon fill="#191970" stroke="#191970" points="172.3559,-53.8296 182.6716,-56.2455 176.114,-47.9239 172.3559,-53.8296"/>
</g>
<!-- Node5 -->
<g id="node6" class="node">
<title>Node5</title>
<g id="a_node6"><a xlink:href="classLIEF_1_1MachO_1_1RelocationObject.html" target="_top" xlink:title="LIEF::MachO::RelocationObject">
<polygon fill="#ffffff" stroke="#000000" points="205.5,-.5 205.5,-19.5 368.5,-19.5 368.5,-.5 205.5,-.5"/>
<text text-anchor="middle" x="287" y="-7.5" font-family="Helvetica,sans-Serif" font-size="10.00" fill="#000000">LIEF::MachO::RelocationObject</text>
</a>
</g>
</g>
<!-- Node3&#45;&gt;Node5 -->
<g id="edge5" class="edge">
<title>Node3&#45;&gt;Node5</title>
<path fill="none" stroke="#191970" d="M222.2064,-50.769C237.9775,-40.8456 258.076,-28.1994 271.675,-19.6427"/>
<polygon fill="#191970" stroke="#191970" points="220.1026,-47.9575 213.5026,-56.2455 223.8305,-53.8823 220.1026,-47.9575"/>
</g>
</g>
</svg>
