<?xml version="1.0" encoding="UTF-8" standalone="no"?>
<!DOCTYPE svg PUBLIC "-//W3C//DTD SVG 1.1//EN"
 "http://www.w3.org/Graphics/SVG/1.1/DTD/svg11.dtd">
<!-- Generated by graphviz version 2.40.1 (20161225.0304)
 -->
<!-- Title: LIEF::MachO::LoadCommand Pages: 1 -->
<svg width="481pt" height="762pt"
 viewBox="0.00 0.00 481.00 762.00" xmlns="http://www.w3.org/2000/svg" xmlns:xlink="http://www.w3.org/1999/xlink">
<g id="graph0" class="graph" transform="scale(1 1) rotate(0) translate(4 758)">
<title>LIEF::MachO::LoadCommand</title>
<polygon fill="#ffffff" stroke="transparent" points="-4,4 -4,-758 477,-758 477,4 -4,4"/>
<!-- Node0 -->
<g id="node1" class="node">
<title>Node0</title>
<polygon fill="#bfbfbf" stroke="#000000" points="109,-361.5 109,-380.5 263,-380.5 263,-361.5 109,-361.5"/>
<text text-anchor="middle" x="186" y="-368.5" font-family="Helvetica,sans-Serif" font-size="10.00" fill="#000000">LIEF::MachO::LoadCommand</text>
</g>
<!-- Node2 -->
<g id="node3" class="node">
<title>Node2</title>
<g id="a_node3"><a xlink:href="classLIEF_1_1MachO_1_1BuildVersion.html" target="_top" xlink:title="LIEF::MachO::BuildVersion">
<polygon fill="#ffffff" stroke="#000000" points="315.5,-734.5 315.5,-753.5 456.5,-753.5 456.5,-734.5 315.5,-734.5"/>
<text text-anchor="middle" x="386" y="-741.5" font-family="Helvetica,sans-Serif" font-size="10.00" fill="#000000">LIEF::MachO::BuildVersion</text>
</a>
</g>
</g>
<!-- Node0&#45;&gt;Node2 -->
<g id="edge2" class="edge">
<title>Node0&#45;&gt;Node2</title>
<path fill="none" stroke="#191970" d="M189.6396,-390.7883C202.4499,-458.3185 247.4721,-678.1001 299,-725 303.802,-729.3707 309.3701,-732.8187 315.3237,-735.5291"/>
<polygon fill="#191970" stroke="#191970" points="193.024,-389.8456 187.7447,-380.6598 186.1434,-391.1329 193.024,-389.8456"/>
</g>
<!-- Node3 -->
<g id="node4" class="node">
<title>Node3</title>
<g id="a_node4"><a xlink:href="classLIEF_1_1MachO_1_1CodeSignature.html" target="_top" xlink:title="LIEF::MachO::CodeSignature">
<polygon fill="#ffffff" stroke="#000000" points="310,-696.5 310,-715.5 462,-715.5 462,-696.5 310,-696.5"/>
<text text-anchor="middle" x="386" y="-703.5" font-family="Helvetica,sans-Serif" font-size="10.00" fill="#000000">LIEF::MachO::CodeSignature</text>
</a>
</g>
</g>
<!-- Node0&#45;&gt;Node3 -->
<g id="edge3" class="edge">
<title>Node0&#45;&gt;Node3</title>
<path fill="none" stroke="#191970" d="M186.7745,-390.8123C190.0826,-446.666 207.4936,-606.5493 299,-687 303.296,-690.777 308.1676,-693.8591 313.3586,-696.3682"/>
<polygon fill="#191970" stroke="#191970" points="190.2559,-390.3516 186.261,-380.5388 183.2646,-390.701 190.2559,-390.3516"/>
</g>
<!-- Node4 -->
<g id="node5" class="node">
<title>Node4</title>
<g id="a_node5"><a xlink:href="classLIEF_1_1MachO_1_1DataInCode.html" target="_top" xlink:title="Interface of the LC_DATA_IN_CODE command. ">
<polygon fill="#ffffff" stroke="#000000" points="317.5,-658.5 317.5,-677.5 454.5,-677.5 454.5,-658.5 317.5,-658.5"/>
<text text-anchor="middle" x="386" y="-665.5" font-family="Helvetica,sans-Serif" font-size="10.00" fill="#000000">LIEF::MachO::DataInCode</text>
</a>
</g>
</g>
<!-- Node0&#45;&gt;Node4 -->
<g id="edge4" class="edge">
<title>Node0&#45;&gt;Node4</title>
<path fill="none" stroke="#191970" d="M187.8594,-390.8163C193.7785,-442.0848 216.9351,-579.8962 299,-649 304.4399,-653.5807 310.7339,-657.1288 317.3993,-659.8673"/>
<polygon fill="#191970" stroke="#191970" points="191.3258,-390.3129 186.7942,-380.7362 184.3646,-391.0486 191.3258,-390.3129"/>
</g>
<!-- Node5 -->
<g id="node6" class="node">
<title>Node5</title>
<g id="a_node6"><a xlink:href="classLIEF_1_1MachO_1_1DyldEnvironment.html" target="_top" xlink:title="LIEF::MachO::DyldEnvironment">
<polygon fill="#ffffff" stroke="#000000" points="303.5,-620.5 303.5,-639.5 468.5,-639.5 468.5,-620.5 303.5,-620.5"/>
<text text-anchor="middle" x="386" y="-627.5" font-family="Helvetica,sans-Serif" font-size="10.00" fill="#000000">LIEF::MachO::DyldEnvironment</text>
</a>
</g>
</g>
<!-- Node0&#45;&gt;Node5 -->
<g id="edge5" class="edge">
<title>Node0&#45;&gt;Node5</title>
<path fill="none" stroke="#191970" d="M189.2104,-390.5732C197.8629,-436.7455 226.1339,-552.9287 299,-611 303.8361,-614.8542 309.285,-617.9678 315.037,-620.4782"/>
<polygon fill="#191970" stroke="#191970" points="192.6439,-389.8897 187.4563,-380.6518 185.7508,-391.1085 192.6439,-389.8897"/>
</g>
<!-- Node6 -->
<g id="node7" class="node">
<title>Node6</title>
<g id="a_node7"><a xlink:href="classLIEF_1_1MachO_1_1DyldInfo.html" target="_top" xlink:title="LC_DYLD_INFO and LC_DYLD_INFO_ONLY command model. ">
<polygon fill="#ffffff" stroke="#000000" points="325,-582.5 325,-601.5 447,-601.5 447,-582.5 325,-582.5"/>
<text text-anchor="middle" x="386" y="-589.5" font-family="Helvetica,sans-Serif" font-size="10.00" fill="#000000">LIEF::MachO::DyldInfo</text>
</a>
</g>
</g>
<!-- Node0&#45;&gt;Node6 -->
<g id="edge6" class="edge">
<title>Node0&#45;&gt;Node6</title>
<path fill="none" stroke="#191970" d="M191.116,-390.7661C202.7892,-431.7051 235.4231,-525.8726 299,-573 306.5762,-578.616 315.4816,-582.6344 324.6525,-585.4977"/>
<polygon fill="#191970" stroke="#191970" points="194.439,-389.6486 188.4262,-380.9253 187.6867,-391.4943 194.439,-389.6486"/>
</g>
<!-- Node7 -->
<g id="node8" class="node">
<title>Node7</title>
<g id="a_node8"><a xlink:href="classLIEF_1_1MachO_1_1DylibCommand.html" target="_top" xlink:title="LIEF::MachO::DylibCommand">
<polygon fill="#ffffff" stroke="#000000" points="308,-544.5 308,-563.5 464,-563.5 464,-544.5 308,-544.5"/>
<text text-anchor="middle" x="386" y="-551.5" font-family="Helvetica,sans-Serif" font-size="10.00" fill="#000000">LIEF::MachO::DylibCommand</text>
</a>
</g>
</g>
<!-- Node0&#45;&gt;Node7 -->
<g id="edge7" class="edge">
<title>Node0&#45;&gt;Node7</title>
<path fill="none" stroke="#191970" d="M193.5005,-390.1106C208.172,-424.8477 244.1067,-498.1468 299,-535 304.7761,-538.8778 311.2097,-541.9795 317.8913,-544.4579"/>
<polygon fill="#191970" stroke="#191970" points="196.657,-388.5826 189.6324,-380.6512 190.1778,-391.232 196.657,-388.5826"/>
</g>
<!-- Node8 -->
<g id="node9" class="node">
<title>Node8</title>
<g id="a_node9"><a xlink:href="classLIEF_1_1MachO_1_1DylinkerCommand.html" target="_top" xlink:title="LIEF::MachO::DylinkerCommand">
<polygon fill="#ffffff" stroke="#000000" points="300,-506.5 300,-525.5 472,-525.5 472,-506.5 300,-506.5"/>
<text text-anchor="middle" x="386" y="-513.5" font-family="Helvetica,sans-Serif" font-size="10.00" fill="#000000">LIEF::MachO::DylinkerCommand</text>
</a>
</g>
</g>
<!-- Node0&#45;&gt;Node8 -->
<g id="edge8" class="edge">
<title>Node0&#45;&gt;Node8</title>
<path fill="none" stroke="#191970" d="M197.1409,-389.5284C214.9698,-417.4774 252.6652,-470.0147 299,-497 305.6798,-500.8903 313.0691,-503.9857 320.6359,-506.4484"/>
<polygon fill="#191970" stroke="#191970" points="199.9348,-387.3935 191.6815,-380.7502 193.9906,-391.0903 199.9348,-387.3935"/>
</g>
<!-- Node9 -->
<g id="node10" class="node">
<title>Node9</title>
<g id="a_node10"><a xlink:href="classLIEF_1_1MachO_1_1DynamicSymbolCommand.html" target="_top" xlink:title="LIEF::MachO::DynamicSymbol\lCommand">
<polygon fill="#ffffff" stroke="#000000" points="305.5,-457 305.5,-487 466.5,-487 466.5,-457 305.5,-457"/>
<text text-anchor="start" x="313.5" y="-475" font-family="Helvetica,sans-Serif" font-size="10.00" fill="#000000">LIEF::MachO::DynamicSymbol</text>
<text text-anchor="middle" x="386" y="-464" font-family="Helvetica,sans-Serif" font-size="10.00" fill="#000000">Command</text>
</a>
</g>
</g>
<!-- Node0&#45;&gt;Node9 -->
<g id="edge9" class="edge">
<title>Node0&#45;&gt;Node9</title>
<path fill="none" stroke="#191970" d="M205.534,-386.9374C227.2046,-403.9263 263.7768,-430.5917 299,-447 306.9775,-450.7162 315.6279,-454.0029 324.2752,-456.8701"/>
<polygon fill="#191970" stroke="#191970" points="207.4721,-384.0067 197.4679,-380.5185 203.1132,-389.4841 207.4721,-384.0067"/>
</g>
<!-- Node10 -->
<g id="node11" class="node">
<title>Node10</title>
<g id="a_node11"><a xlink:href="classLIEF_1_1MachO_1_1EncryptionInfo.html" target="_top" xlink:title="LIEF::MachO::EncryptionInfo">
<polygon fill="#ffffff" stroke="#000000" points="310.5,-418.5 310.5,-437.5 461.5,-437.5 461.5,-418.5 310.5,-418.5"/>
<text text-anchor="middle" x="386" y="-425.5" font-family="Helvetica,sans-Serif" font-size="10.00" fill="#000000">LIEF::MachO::EncryptionInfo</text>
</a>
</g>
</g>
<!-- Node0&#45;&gt;Node10 -->
<g id="edge10" class="edge">
<title>Node0&#45;&gt;Node10</title>
<path fill="none" stroke="#191970" d="M221.412,-384.0193C243.5295,-391.8728 272.7042,-401.7307 299,-409 311.5171,-412.4603 325.1867,-415.6954 337.905,-418.4806"/>
<polygon fill="#191970" stroke="#191970" points="222.3767,-380.6471 211.7821,-380.5685 220.0152,-387.2368 222.3767,-380.6471"/>
</g>
<!-- Node11 -->
<g id="node12" class="node">
<title>Node11</title>
<g id="a_node12"><a xlink:href="classLIEF_1_1MachO_1_1FunctionStarts.html" target="_top" xlink:title="LIEF::MachO::FunctionStarts">
<polygon fill="#ffffff" stroke="#000000" points="311.5,-380.5 311.5,-399.5 460.5,-399.5 460.5,-380.5 311.5,-380.5"/>
<text text-anchor="middle" x="386" y="-387.5" font-family="Helvetica,sans-Serif" font-size="10.00" fill="#000000">LIEF::MachO::FunctionStarts</text>
</a>
</g>
</g>
<!-- Node0&#45;&gt;Node11 -->
<g id="edge11" class="edge">
<title>Node0&#45;&gt;Node11</title>
<path fill="none" stroke="#191970" d="M273.1591,-379.2801C285.873,-380.4879 298.8686,-381.7225 311.3052,-382.904"/>
<polygon fill="#191970" stroke="#191970" points="273.3254,-375.7802 263.0391,-378.3187 272.6633,-382.7489 273.3254,-375.7802"/>
</g>
<!-- Node12 -->
<g id="node13" class="node">
<title>Node12</title>
<g id="a_node13"><a xlink:href="classLIEF_1_1MachO_1_1MainCommand.html" target="_top" xlink:title="LIEF::MachO::MainCommand">
<polygon fill="#ffffff" stroke="#000000" points="309,-342.5 309,-361.5 463,-361.5 463,-342.5 309,-342.5"/>
<text text-anchor="middle" x="386" y="-349.5" font-family="Helvetica,sans-Serif" font-size="10.00" fill="#000000">LIEF::MachO::MainCommand</text>
</a>
</g>
</g>
<!-- Node0&#45;&gt;Node12 -->
<g id="edge12" class="edge">
<title>Node0&#45;&gt;Node12</title>
<path fill="none" stroke="#191970" d="M273.3059,-362.7059C285.0778,-361.5876 297.0882,-360.4466 308.6703,-359.3463"/>
<polygon fill="#191970" stroke="#191970" points="272.6633,-359.2511 263.0391,-363.6813 273.3254,-366.2198 272.6633,-359.2511"/>
</g>
<!-- Node13 -->
<g id="node14" class="node">
<title>Node13</title>
<g id="a_node14"><a xlink:href="classLIEF_1_1MachO_1_1RPathCommand.html" target="_top" xlink:title="LIEF::MachO::RPathCommand">
<polygon fill="#ffffff" stroke="#000000" points="307,-304.5 307,-323.5 465,-323.5 465,-304.5 307,-304.5"/>
<text text-anchor="middle" x="386" y="-311.5" font-family="Helvetica,sans-Serif" font-size="10.00" fill="#000000">LIEF::MachO::RPathCommand</text>
</a>
</g>
</g>
<!-- Node0&#45;&gt;Node13 -->
<g id="edge13" class="edge">
<title>Node0&#45;&gt;Node13</title>
<path fill="none" stroke="#191970" d="M221.412,-357.9807C243.5295,-350.1272 272.7042,-340.2693 299,-333 311.5171,-329.5397 325.1867,-326.3046 337.905,-323.5194"/>
<polygon fill="#191970" stroke="#191970" points="220.0152,-354.7632 211.7821,-361.4315 222.3767,-361.3529 220.0152,-354.7632"/>
</g>
<!-- Node14 -->
<g id="node15" class="node">
<title>Node14</title>
<g id="a_node15"><a xlink:href="classLIEF_1_1MachO_1_1SegmentCommand.html" target="_top" xlink:title="Class which represent a MachO Segment. ">
<polygon fill="#ffffff" stroke="#000000" points="299,-266.5 299,-285.5 473,-285.5 473,-266.5 299,-266.5"/>
<text text-anchor="middle" x="386" y="-273.5" font-family="Helvetica,sans-Serif" font-size="10.00" fill="#000000">LIEF::MachO::SegmentCommand</text>
</a>
</g>
</g>
<!-- Node0&#45;&gt;Node14 -->
<g id="edge14" class="edge">
<title>Node0&#45;&gt;Node14</title>
<path fill="none" stroke="#191970" d="M204.9931,-354.8984C226.4477,-337.5396 263.0726,-310.3402 299,-295 307.9575,-291.1753 317.7752,-288.0824 327.4871,-285.5928"/>
<polygon fill="#191970" stroke="#191970" points="202.5246,-352.3972 197.0306,-361.4562 206.9748,-357.8005 202.5246,-352.3972"/>
</g>
<!-- Node15 -->
<g id="node16" class="node">
<title>Node15</title>
<g id="a_node16"><a xlink:href="classLIEF_1_1MachO_1_1SegmentSplitInfo.html" target="_top" xlink:title="LIEF::MachO::SegmentSplitInfo">
<polygon fill="#ffffff" stroke="#000000" points="304,-228.5 304,-247.5 468,-247.5 468,-228.5 304,-228.5"/>
<text text-anchor="middle" x="386" y="-235.5" font-family="Helvetica,sans-Serif" font-size="10.00" fill="#000000">LIEF::MachO::SegmentSplitInfo</text>
</a>
</g>
</g>
<!-- Node0&#45;&gt;Node15 -->
<g id="edge15" class="edge">
<title>Node0&#45;&gt;Node15</title>
<path fill="none" stroke="#191970" d="M198.649,-352.7897C217.4478,-327.1931 255.2782,-281.0223 299,-257 306.0458,-253.1288 313.8189,-250.0463 321.733,-247.5919"/>
<polygon fill="#191970" stroke="#191970" points="195.5936,-351.0444 192.6085,-361.21 201.2814,-355.1247 195.5936,-351.0444"/>
</g>
<!-- Node16 -->
<g id="node17" class="node">
<title>Node16</title>
<g id="a_node17"><a xlink:href="classLIEF_1_1MachO_1_1SourceVersion.html" target="_top" xlink:title="LIEF::MachO::SourceVersion">
<polygon fill="#ffffff" stroke="#000000" points="311.5,-190.5 311.5,-209.5 460.5,-209.5 460.5,-190.5 311.5,-190.5"/>
<text text-anchor="middle" x="386" y="-197.5" font-family="Helvetica,sans-Serif" font-size="10.00" fill="#000000">LIEF::MachO::SourceVersion</text>
</a>
</g>
</g>
<!-- Node0&#45;&gt;Node16 -->
<g id="edge16" class="edge">
<title>Node0&#45;&gt;Node16</title>
<path fill="none" stroke="#191970" d="M194.5419,-351.9288C210.2379,-319.2031 246.9012,-252.6343 299,-219 304.9748,-215.1428 311.6114,-212.0583 318.479,-209.5933"/>
<polygon fill="#191970" stroke="#191970" points="191.2361,-350.7372 190.1896,-361.2802 197.5824,-353.6909 191.2361,-350.7372"/>
</g>
<!-- Node17 -->
<g id="node18" class="node">
<title>Node17</title>
<g id="a_node18"><a xlink:href="classLIEF_1_1MachO_1_1SubFramework.html" target="_top" xlink:title="LIEF::MachO::SubFramework">
<polygon fill="#ffffff" stroke="#000000" points="310,-152.5 310,-171.5 462,-171.5 462,-152.5 310,-152.5"/>
<text text-anchor="middle" x="386" y="-159.5" font-family="Helvetica,sans-Serif" font-size="10.00" fill="#000000">LIEF::MachO::SubFramework</text>
</a>
</g>
</g>
<!-- Node0&#45;&gt;Node17 -->
<g id="edge17" class="edge">
<title>Node0&#45;&gt;Node17</title>
<path fill="none" stroke="#191970" d="M191.7315,-351.5979C204.2937,-312.6444 238.1025,-224.9028 299,-181 304.2672,-177.2027 310.1478,-174.14 316.2988,-171.6731"/>
<polygon fill="#191970" stroke="#191970" points="188.3685,-350.626 188.7469,-361.2141 195.0539,-352.7011 188.3685,-350.626"/>
</g>
<!-- Node18 -->
<g id="node19" class="node">
<title>Node18</title>
<g id="a_node19"><a xlink:href="classLIEF_1_1MachO_1_1SymbolCommand.html" target="_top" xlink:title="LIEF::MachO::SymbolCommand">
<polygon fill="#ffffff" stroke="#000000" points="302.5,-114.5 302.5,-133.5 469.5,-133.5 469.5,-114.5 302.5,-114.5"/>
<text text-anchor="middle" x="386" y="-121.5" font-family="Helvetica,sans-Serif" font-size="10.00" fill="#000000">LIEF::MachO::SymbolCommand</text>
</a>
</g>
</g>
<!-- Node0&#45;&gt;Node18 -->
<g id="edge18" class="edge">
<title>Node0&#45;&gt;Node18</title>
<path fill="none" stroke="#191970" d="M189.7183,-351.4959C199.2722,-307.0004 229.016,-197.6341 299,-143 303.8746,-139.1946 309.3499,-136.1145 315.1192,-133.626"/>
<polygon fill="#191970" stroke="#191970" points="186.2801,-350.8402 187.7122,-361.3378 193.1391,-352.2383 186.2801,-350.8402"/>
</g>
<!-- Node19 -->
<g id="node20" class="node">
<title>Node19</title>
<g id="a_node20"><a xlink:href="classLIEF_1_1MachO_1_1ThreadCommand.html" target="_top" xlink:title="LIEF::MachO::ThreadCommand">
<polygon fill="#ffffff" stroke="#000000" points="304,-76.5 304,-95.5 468,-95.5 468,-76.5 304,-76.5"/>
<text text-anchor="middle" x="386" y="-83.5" font-family="Helvetica,sans-Serif" font-size="10.00" fill="#000000">LIEF::MachO::ThreadCommand</text>
</a>
</g>
</g>
<!-- Node0&#45;&gt;Node19 -->
<g id="edge19" class="edge">
<title>Node0&#45;&gt;Node19</title>
<path fill="none" stroke="#191970" d="M188.2352,-351.3713C194.9774,-301.7618 219.794,-170.645 299,-105 303.6423,-101.1525 308.8893,-98.0363 314.4491,-95.5179"/>
<polygon fill="#191970" stroke="#191970" points="184.7478,-351.0523 186.9715,-361.4112 191.693,-351.9266 184.7478,-351.0523"/>
</g>
<!-- Node20 -->
<g id="node21" class="node">
<title>Node20</title>
<g id="a_node21"><a xlink:href="classLIEF_1_1MachO_1_1UUIDCommand.html" target="_top" xlink:title="LIEF::MachO::UUIDCommand">
<polygon fill="#ffffff" stroke="#000000" points="308,-38.5 308,-57.5 464,-57.5 464,-38.5 308,-38.5"/>
<text text-anchor="middle" x="386" y="-45.5" font-family="Helvetica,sans-Serif" font-size="10.00" fill="#000000">LIEF::MachO::UUIDCommand</text>
</a>
</g>
</g>
<!-- Node0&#45;&gt;Node20 -->
<g id="edge20" class="edge">
<title>Node0&#45;&gt;Node20</title>
<path fill="none" stroke="#191970" d="M187.0895,-351.1936C191.2031,-296.7612 210.482,-143.851 299,-67 303.3195,-63.2499 308.2077,-60.1868 313.4101,-57.6907"/>
<polygon fill="#191970" stroke="#191970" points="183.592,-351.0416 186.4225,-361.2514 190.5767,-351.5049 183.592,-351.0416"/>
</g>
<!-- Node21 -->
<g id="node22" class="node">
<title>Node21</title>
<g id="a_node22"><a xlink:href="classLIEF_1_1MachO_1_1VersionMin.html" target="_top" xlink:title="LIEF::MachO::VersionMin">
<polygon fill="#ffffff" stroke="#000000" points="319,-.5 319,-19.5 453,-19.5 453,-.5 319,-.5"/>
<text text-anchor="middle" x="386" y="-7.5" font-family="Helvetica,sans-Serif" font-size="10.00" fill="#000000">LIEF::MachO::VersionMin</text>
</a>
</g>
</g>
<!-- Node0&#45;&gt;Node21 -->
<g id="edge21" class="edge">
<title>Node0&#45;&gt;Node21</title>
<path fill="none" stroke="#191970" d="M189.8254,-351.4443C203.0738,-285.6801 248.9348,-74.1069 299,-29 304.743,-23.8258 311.5614,-19.948 318.8161,-17.0575"/>
<polygon fill="#191970" stroke="#191970" points="186.3765,-350.8429 187.859,-361.3335 193.2421,-352.2081 186.3765,-350.8429"/>
</g>
<!-- Node1 -->
<g id="node2" class="node">
<title>Node1</title>
<g id="a_node2"><a xlink:href="classLIEF_1_1Object.html" target="_top" xlink:title="LIEF::Object">
<polygon fill="#ffffff" stroke="#000000" points="0,-361.5 0,-380.5 73,-380.5 73,-361.5 0,-361.5"/>
<text text-anchor="middle" x="36.5" y="-368.5" font-family="Helvetica,sans-Serif" font-size="10.00" fill="#000000">LIEF::Object</text>
</a>
</g>
</g>
<!-- Node1&#45;&gt;Node0 -->
<g id="edge1" class="edge">
<title>Node1&#45;&gt;Node0</title>
<path fill="none" stroke="#191970" d="M83.127,-371C91.3166,-371 100.0334,-371 108.7953,-371"/>
<polygon fill="#191970" stroke="#191970" points="83.0718,-367.5001 73.0718,-371 83.0718,-374.5001 83.0718,-367.5001"/>
</g>
</g>
</svg>
