<?xml version="1.0" encoding="UTF-8" standalone="no"?>
<!DOCTYPE svg PUBLIC "-//W3C//DTD SVG 1.1//EN"
 "http://www.w3.org/Graphics/SVG/1.1/DTD/svg11.dtd">
<!-- Generated by graphviz version 2.40.1 (20161225.0304)
 -->
<!-- Title: LIEF::PE::RelocationEntry Pages: 1 -->
<svg width="144pt" height="140pt"
 viewBox="0.00 0.00 144.00 140.00" xmlns="http://www.w3.org/2000/svg" xmlns:xlink="http://www.w3.org/1999/xlink">
<g id="graph0" class="graph" transform="scale(1 1) rotate(0) translate(4 136)">
<title>LIEF::PE::RelocationEntry</title>
<polygon fill="#ffffff" stroke="transparent" points="-4,4 -4,-136 140,-136 140,4 -4,4"/>
<!-- Node3 -->
<g id="node1" class="node">
<title>Node3</title>
<polygon fill="#bfbfbf" stroke="#000000" points="0,-.5 0,-19.5 136,-19.5 136,-.5 0,-.5"/>
<text text-anchor="middle" x="68" y="-7.5" font-family="Helvetica,sans-Serif" font-size="10.00" fill="#000000">LIEF::PE::RelocationEntry</text>
</g>
<!-- Node4 -->
<g id="node2" class="node">
<title>Node4</title>
<g id="a_node2"><a xlink:href="classLIEF_1_1Relocation.html" target="_top" xlink:title="LIEF::Relocation">
<polygon fill="#ffffff" stroke="#000000" points="22,-56.5 22,-75.5 114,-75.5 114,-56.5 22,-56.5"/>
<text text-anchor="middle" x="68" y="-63.5" font-family="Helvetica,sans-Serif" font-size="10.00" fill="#000000">LIEF::Relocation</text>
</a>
</g>
</g>
<!-- Node4&#45;&gt;Node3 -->
<g id="edge1" class="edge">
<title>Node4&#45;&gt;Node3</title>
<path fill="none" stroke="#191970" d="M68,-46.1575C68,-37.155 68,-26.9199 68,-19.6427"/>
<polygon fill="#191970" stroke="#191970" points="64.5001,-46.2455 68,-56.2455 71.5001,-46.2456 64.5001,-46.2455"/>
</g>
<!-- Node5 -->
<g id="node3" class="node">
<title>Node5</title>
<g id="a_node3"><a xlink:href="classLIEF_1_1Object.html" target="_top" xlink:title="LIEF::Object">
<polygon fill="#ffffff" stroke="#000000" points="31.5,-112.5 31.5,-131.5 104.5,-131.5 104.5,-112.5 31.5,-112.5"/>
<text text-anchor="middle" x="68" y="-119.5" font-family="Helvetica,sans-Serif" font-size="10.00" fill="#000000">LIEF::Object</text>
</a>
</g>
</g>
<!-- Node5&#45;&gt;Node4 -->
<g id="edge2" class="edge">
<title>Node5&#45;&gt;Node4</title>
<path fill="none" stroke="#191970" d="M68,-102.1575C68,-93.155 68,-82.9199 68,-75.6427"/>
<polygon fill="#191970" stroke="#191970" points="64.5001,-102.2455 68,-112.2455 71.5001,-102.2456 64.5001,-102.2455"/>
</g>
</g>
</svg>
