<?xml version="1.0" encoding="UTF-8" standalone="no"?>
<!DOCTYPE svg PUBLIC "-//W3C//DTD SVG 1.1//EN"
 "http://www.w3.org/Graphics/SVG/1.1/DTD/svg11.dtd">
<!-- Generated by graphviz version 2.40.1 (20161225.0304)
 -->
<!-- Title: utf8::invalid_code_point Pages: 1 -->
<svg width="112pt" height="151pt"
 viewBox="0.00 0.00 112.00 151.00" xmlns="http://www.w3.org/2000/svg" xmlns:xlink="http://www.w3.org/1999/xlink">
<g id="graph0" class="graph" transform="scale(1 1) rotate(0) translate(4 147)">
<title>utf8::invalid_code_point</title>
<polygon fill="#ffffff" stroke="transparent" points="-4,4 -4,-147 108,-147 108,4 -4,4"/>
<!-- Node0 -->
<g id="node1" class="node">
<title>Node0</title>
<polygon fill="#bfbfbf" stroke="#000000" points="0,-.5 0,-30.5 104,-30.5 104,-.5 0,-.5"/>
<text text-anchor="start" x="8" y="-18.5" font-family="Helvetica,sans-Serif" font-size="10.00" fill="#000000">utf8::invalid_code</text>
<text text-anchor="middle" x="52" y="-7.5" font-family="Helvetica,sans-Serif" font-size="10.00" fill="#000000">_point</text>
</g>
<!-- Node1 -->
<g id="node2" class="node">
<title>Node1</title>
<g id="a_node2"><a xlink:href="classutf8_1_1exception.html" target="_top" xlink:title="utf8::exception">
<polygon fill="#ffffff" stroke="#000000" points="7,-67.5 7,-86.5 97,-86.5 97,-67.5 7,-67.5"/>
<text text-anchor="middle" x="52" y="-74.5" font-family="Helvetica,sans-Serif" font-size="10.00" fill="#000000">utf8::exception</text>
</a>
</g>
</g>
<!-- Node1&#45;&gt;Node0 -->
<g id="edge1" class="edge">
<title>Node1&#45;&gt;Node0</title>
<path fill="none" stroke="#191970" d="M52,-57.3693C52,-48.681 52,-38.6241 52,-30.5446"/>
<polygon fill="#191970" stroke="#191970" points="48.5001,-57.3906 52,-67.3906 55.5001,-57.3907 48.5001,-57.3906"/>
</g>
<!-- Node2 -->
<g id="node3" class="node">
<title>Node2</title>
<polygon fill="#ffffff" stroke="#bfbfbf" points="19.5,-123.5 19.5,-142.5 84.5,-142.5 84.5,-123.5 19.5,-123.5"/>
<text text-anchor="middle" x="52" y="-130.5" font-family="Helvetica,sans-Serif" font-size="10.00" fill="#000000">exception</text>
</g>
<!-- Node2&#45;&gt;Node1 -->
<g id="edge2" class="edge">
<title>Node2&#45;&gt;Node1</title>
<path fill="none" stroke="#191970" d="M52,-113.1575C52,-104.155 52,-93.9199 52,-86.6427"/>
<polygon fill="#191970" stroke="#191970" points="48.5001,-113.2455 52,-123.2455 55.5001,-113.2456 48.5001,-113.2455"/>
</g>
</g>
</svg>
