<?xml version="1.0" encoding="UTF-8" standalone="no"?>
<!DOCTYPE svg PUBLIC "-//W3C//DTD SVG 1.1//EN"
 "http://www.w3.org/Graphics/SVG/1.1/DTD/svg11.dtd">
<!-- Generated by graphviz version 2.40.1 (20161225.0304)
 -->
<!-- Title: LIEF::bad_format Pages: 1 -->
<svg width="106pt" height="196pt"
 viewBox="0.00 0.00 106.00 196.00" xmlns="http://www.w3.org/2000/svg" xmlns:xlink="http://www.w3.org/1999/xlink">
<g id="graph0" class="graph" transform="scale(1 1) rotate(0) translate(4 192)">
<title>LIEF::bad_format</title>
<polygon fill="#ffffff" stroke="transparent" points="-4,4 -4,-192 102,-192 102,4 -4,4"/>
<!-- Node4 -->
<g id="node1" class="node">
<title>Node4</title>
<polygon fill="#bfbfbf" stroke="#000000" points="0,-.5 0,-19.5 98,-19.5 98,-.5 0,-.5"/>
<text text-anchor="middle" x="49" y="-7.5" font-family="Helvetica,sans-Serif" font-size="10.00" fill="#000000">LIEF::bad_format</text>
</g>
<!-- Node5 -->
<g id="node2" class="node">
<title>Node5</title>
<g id="a_node2"><a xlink:href="classLIEF_1_1bad__file.html" target="_top" xlink:title="LIEF::bad_file">
<polygon fill="#ffffff" stroke="#000000" points="9,-56.5 9,-75.5 89,-75.5 89,-56.5 9,-56.5"/>
<text text-anchor="middle" x="49" y="-63.5" font-family="Helvetica,sans-Serif" font-size="10.00" fill="#000000">LIEF::bad_file</text>
</a>
</g>
</g>
<!-- Node5&#45;&gt;Node4 -->
<g id="edge1" class="edge">
<title>Node5&#45;&gt;Node4</title>
<path fill="none" stroke="#191970" d="M49,-46.1575C49,-37.155 49,-26.9199 49,-19.6427"/>
<polygon fill="#191970" stroke="#191970" points="45.5001,-46.2455 49,-56.2455 52.5001,-46.2456 45.5001,-46.2455"/>
</g>
<!-- Node6 -->
<g id="node3" class="node">
<title>Node6</title>
<g id="a_node3"><a xlink:href="classLIEF_1_1exception.html" target="_top" xlink:title="LIEF::exception">
<polygon fill="#ffffff" stroke="#000000" points="4.5,-112.5 4.5,-131.5 93.5,-131.5 93.5,-112.5 4.5,-112.5"/>
<text text-anchor="middle" x="49" y="-119.5" font-family="Helvetica,sans-Serif" font-size="10.00" fill="#000000">LIEF::exception</text>
</a>
</g>
</g>
<!-- Node6&#45;&gt;Node5 -->
<g id="edge2" class="edge">
<title>Node6&#45;&gt;Node5</title>
<path fill="none" stroke="#191970" d="M49,-102.1575C49,-93.155 49,-82.9199 49,-75.6427"/>
<polygon fill="#191970" stroke="#191970" points="45.5001,-102.2455 49,-112.2455 52.5001,-102.2456 45.5001,-102.2455"/>
</g>
<!-- Node7 -->
<g id="node4" class="node">
<title>Node7</title>
<polygon fill="#ffffff" stroke="#bfbfbf" points="6,-168.5 6,-187.5 92,-187.5 92,-168.5 6,-168.5"/>
<text text-anchor="middle" x="49" y="-175.5" font-family="Helvetica,sans-Serif" font-size="10.00" fill="#000000">std::exception</text>
</g>
<!-- Node7&#45;&gt;Node6 -->
<g id="edge3" class="edge">
<title>Node7&#45;&gt;Node6</title>
<path fill="none" stroke="#191970" d="M49,-158.1575C49,-149.155 49,-138.9199 49,-131.6427"/>
<polygon fill="#191970" stroke="#191970" points="45.5001,-158.2455 49,-168.2455 52.5001,-158.2456 45.5001,-158.2455"/>
</g>
</g>
</svg>
