<?xml version="1.0" encoding="UTF-8" standalone="no"?>
<!DOCTYPE svg PUBLIC "-//W3C//DTD SVG 1.1//EN"
 "http://www.w3.org/Graphics/SVG/1.1/DTD/svg11.dtd">
<!-- Generated by graphviz version 2.40.1 (20161225.0304)
 -->
<!-- Title: LIEF::ref_iterator&lt; T, ITERATOR_T &gt; Pages: 1 -->
<svg width="366pt" height="94pt"
 viewBox="0.00 0.00 366.00 94.00" xmlns="http://www.w3.org/2000/svg" xmlns:xlink="http://www.w3.org/1999/xlink">
<g id="graph0" class="graph" transform="scale(1 1) rotate(0) translate(4 90)">
<title>LIEF::ref_iterator&lt; T, ITERATOR_T &gt;</title>
<polygon fill="#ffffff" stroke="transparent" points="-4,4 -4,-90 362,-90 362,4 -4,4"/>
<!-- Node2 -->
<g id="node1" class="node">
<title>Node2</title>
<polygon fill="#bfbfbf" stroke="#000000" points="248,-28 248,-58 358,-58 358,-28 248,-28"/>
<text text-anchor="start" x="256" y="-46" font-family="Helvetica,sans-Serif" font-size="10.00" fill="#000000">LIEF::ref_iterator</text>
<text text-anchor="middle" x="303" y="-35" font-family="Helvetica,sans-Serif" font-size="10.00" fill="#000000">&lt; T, ITERATOR_T &gt;</text>
</g>
<!-- Node3 -->
<g id="node2" class="node">
<title>Node3</title>
<polygon fill="#ffffff" stroke="#bfbfbf" points="0,-.5 0,-85.5 212,-85.5 212,-.5 0,-.5"/>
<text text-anchor="start" x="8" y="-73.5" font-family="Helvetica,sans-Serif" font-size="10.00" fill="#000000">std::iterator&lt; std</text>
<text text-anchor="start" x="8" y="-62.5" font-family="Helvetica,sans-Serif" font-size="10.00" fill="#000000">::bidirectional_iterator</text>
<text text-anchor="start" x="8" y="-51.5" font-family="Helvetica,sans-Serif" font-size="10.00" fill="#000000">_tag, decay_t&lt; T &gt;::value</text>
<text text-anchor="start" x="8" y="-40.5" font-family="Helvetica,sans-Serif" font-size="10.00" fill="#000000">_type, ptrdiff_t, std::remove</text>
<text text-anchor="start" x="8" y="-29.5" font-family="Helvetica,sans-Serif" font-size="10.00" fill="#000000">_pointer&lt; decay_t&lt; T &gt;::value</text>
<text text-anchor="start" x="8" y="-18.5" font-family="Helvetica,sans-Serif" font-size="10.00" fill="#000000">_type &gt;::type *, std::remove_pointer</text>
<text text-anchor="middle" x="106" y="-7.5" font-family="Helvetica,sans-Serif" font-size="10.00" fill="#000000">&lt; decay_t&lt; T &gt;::value_type &gt;::type &amp;&gt;</text>
</g>
<!-- Node3&#45;&gt;Node2 -->
<g id="edge1" class="edge">
<title>Node3&#45;&gt;Node2</title>
<path fill="none" stroke="#191970" d="M222.5032,-43C231.1474,-43 239.6002,-43 247.5828,-43"/>
<polygon fill="#191970" stroke="#191970" points="222.2843,-39.5001 212.2843,-43 222.2842,-46.5001 222.2843,-39.5001"/>
</g>
</g>
</svg>
