<?xml version="1.0" encoding="UTF-8" standalone="no"?>
<!DOCTYPE svg PUBLIC "-//W3C//DTD SVG 1.1//EN"
 "http://www.w3.org/Graphics/SVG/1.1/DTD/svg11.dtd">
<!-- Generated by graphviz version 2.40.1 (20161225.0304)
 -->
<!-- Title: LIEF::ELF::Binary Pages: 1 -->
<svg width="106pt" height="196pt"
 viewBox="0.00 0.00 106.00 196.00" xmlns="http://www.w3.org/2000/svg" xmlns:xlink="http://www.w3.org/1999/xlink">
<g id="graph0" class="graph" transform="scale(1 1) rotate(0) translate(4 192)">
<title>LIEF::ELF::Binary</title>
<polygon fill="#ffffff" stroke="transparent" points="-4,4 -4,-192 102,-192 102,4 -4,4"/>
<!-- Node0 -->
<g id="node1" class="node">
<title>Node0</title>
<polygon fill="#bfbfbf" stroke="#000000" points="1.5,-56.5 1.5,-75.5 96.5,-75.5 96.5,-56.5 1.5,-56.5"/>
<text text-anchor="middle" x="49" y="-63.5" font-family="Helvetica,sans-Serif" font-size="10.00" fill="#000000">LIEF::ELF::Binary</text>
</g>
<!-- Node3 -->
<g id="node4" class="node">
<title>Node3</title>
<g id="a_node4"><a xlink:href="classLIEF_1_1OAT_1_1Binary.html" target="_top" xlink:title="LIEF::OAT::Binary">
<polygon fill="#ffffff" stroke="#000000" points="0,-.5 0,-19.5 98,-19.5 98,-.5 0,-.5"/>
<text text-anchor="middle" x="49" y="-7.5" font-family="Helvetica,sans-Serif" font-size="10.00" fill="#000000">LIEF::OAT::Binary</text>
</a>
</g>
</g>
<!-- Node0&#45;&gt;Node3 -->
<g id="edge3" class="edge">
<title>Node0&#45;&gt;Node3</title>
<path fill="none" stroke="#191970" d="M49,-46.1575C49,-37.155 49,-26.9199 49,-19.6427"/>
<polygon fill="#191970" stroke="#191970" points="45.5001,-46.2455 49,-56.2455 52.5001,-46.2456 45.5001,-46.2455"/>
</g>
<!-- Node1 -->
<g id="node2" class="node">
<title>Node1</title>
<g id="a_node2"><a xlink:href="classLIEF_1_1Binary.html" target="_top" xlink:title="Abstract binary. ">
<polygon fill="#ffffff" stroke="#000000" points="12.5,-112.5 12.5,-131.5 85.5,-131.5 85.5,-112.5 12.5,-112.5"/>
<text text-anchor="middle" x="49" y="-119.5" font-family="Helvetica,sans-Serif" font-size="10.00" fill="#000000">LIEF::Binary</text>
</a>
</g>
</g>
<!-- Node1&#45;&gt;Node0 -->
<g id="edge1" class="edge">
<title>Node1&#45;&gt;Node0</title>
<path fill="none" stroke="#191970" d="M49,-102.1575C49,-93.155 49,-82.9199 49,-75.6427"/>
<polygon fill="#191970" stroke="#191970" points="45.5001,-102.2455 49,-112.2455 52.5001,-102.2456 45.5001,-102.2455"/>
</g>
<!-- Node2 -->
<g id="node3" class="node">
<title>Node2</title>
<g id="a_node3"><a xlink:href="classLIEF_1_1Object.html" target="_top" xlink:title="LIEF::Object">
<polygon fill="#ffffff" stroke="#000000" points="12.5,-168.5 12.5,-187.5 85.5,-187.5 85.5,-168.5 12.5,-168.5"/>
<text text-anchor="middle" x="49" y="-175.5" font-family="Helvetica,sans-Serif" font-size="10.00" fill="#000000">LIEF::Object</text>
</a>
</g>
</g>
<!-- Node2&#45;&gt;Node1 -->
<g id="edge2" class="edge">
<title>Node2&#45;&gt;Node1</title>
<path fill="none" stroke="#191970" d="M49,-158.1575C49,-149.155 49,-138.9199 49,-131.6427"/>
<polygon fill="#191970" stroke="#191970" points="45.5001,-158.2455 49,-168.2455 52.5001,-158.2456 45.5001,-158.2455"/>
</g>
</g>
</svg>
