<?xml version="1.0" encoding="UTF-8" standalone="no"?>
<!DOCTYPE svg PUBLIC "-//W3C//DTD SVG 1.1//EN"
 "http://www.w3.org/Graphics/SVG/1.1/DTD/svg11.dtd">
<!-- Generated by graphviz version 2.40.1 (20161225.0304)
 -->
<!-- Title: LIEF::JsonVisitor Pages: 1 -->
<svg width="380pt" height="294pt"
 viewBox="0.00 0.00 380.00 294.00" xmlns="http://www.w3.org/2000/svg" xmlns:xlink="http://www.w3.org/1999/xlink">
<g id="graph0" class="graph" transform="scale(1 1) rotate(0) translate(4 290)">
<title>LIEF::JsonVisitor</title>
<polygon fill="#ffffff" stroke="transparent" points="-4,4 -4,-290 376,-290 376,4 -4,4"/>
<!-- Node0 -->
<g id="node1" class="node">
<title>Node0</title>
<polygon fill="#bfbfbf" stroke="#000000" points="109,-133.5 109,-152.5 202,-152.5 202,-133.5 109,-133.5"/>
<text text-anchor="middle" x="155.5" y="-140.5" font-family="Helvetica,sans-Serif" font-size="10.00" fill="#000000">LIEF::JsonVisitor</text>
</g>
<!-- Node2 -->
<g id="node3" class="node">
<title>Node2</title>
<g id="a_node3"><a xlink:href="classLIEF_1_1AbstractJsonVisitor.html" target="_top" xlink:title="LIEF::AbstractJsonVisitor">
<polygon fill="#ffffff" stroke="#000000" points="238,-266.5 238,-285.5 372,-285.5 372,-266.5 238,-266.5"/>
<text text-anchor="middle" x="305" y="-273.5" font-family="Helvetica,sans-Serif" font-size="10.00" fill="#000000">LIEF::AbstractJsonVisitor</text>
</a>
</g>
</g>
<!-- Node0&#45;&gt;Node2 -->
<g id="edge2" class="edge">
<title>Node0&#45;&gt;Node2</title>
<path fill="none" stroke="#191970" d="M164.1698,-161.9344C176.7908,-187.3795 202.633,-232.2635 238,-257 243.5483,-260.8806 249.8753,-263.9727 256.3748,-266.4354"/>
<polygon fill="#191970" stroke="#191970" points="167.1898,-160.1369 159.7157,-152.6277 160.8756,-163.1588 167.1898,-160.1369"/>
</g>
<!-- Node3 -->
<g id="node4" class="node">
<title>Node3</title>
<g id="a_node4"><a xlink:href="classLIEF_1_1ART_1_1JsonVisitor.html" target="_top" xlink:title="LIEF::ART::JsonVisitor">
<polygon fill="#ffffff" stroke="#000000" points="246.5,-228.5 246.5,-247.5 363.5,-247.5 363.5,-228.5 246.5,-228.5"/>
<text text-anchor="middle" x="305" y="-235.5" font-family="Helvetica,sans-Serif" font-size="10.00" fill="#000000">LIEF::ART::JsonVisitor</text>
</a>
</g>
</g>
<!-- Node0&#45;&gt;Node3 -->
<g id="edge3" class="edge">
<title>Node0&#45;&gt;Node3</title>
<path fill="none" stroke="#191970" d="M169.9332,-160.3984C185.1591,-177.6691 210.6927,-203.7122 238,-219 244.8574,-222.8391 252.5519,-225.9535 260.2163,-228.4638"/>
<polygon fill="#191970" stroke="#191970" points="172.4971,-158.0118 163.3241,-152.7102 167.1889,-162.575 172.4971,-158.0118"/>
</g>
<!-- Node4 -->
<g id="node5" class="node">
<title>Node4</title>
<g id="a_node5"><a xlink:href="classLIEF_1_1DEX_1_1JsonVisitor.html" target="_top" xlink:title="LIEF::DEX::JsonVisitor">
<polygon fill="#ffffff" stroke="#000000" points="245.5,-190.5 245.5,-209.5 364.5,-209.5 364.5,-190.5 245.5,-190.5"/>
<text text-anchor="middle" x="305" y="-197.5" font-family="Helvetica,sans-Serif" font-size="10.00" fill="#000000">LIEF::DEX::JsonVisitor</text>
</a>
</g>
</g>
<!-- Node0&#45;&gt;Node4 -->
<g id="edge4" class="edge">
<title>Node0&#45;&gt;Node4</title>
<path fill="none" stroke="#191970" d="M183.3455,-157.1399C199.1262,-164.818 219.3811,-174.1194 238,-181 247.413,-184.4786 257.7652,-187.6987 267.458,-190.4624"/>
<polygon fill="#191970" stroke="#191970" points="184.6692,-153.8902 174.1526,-152.6051 181.5724,-160.168 184.6692,-153.8902"/>
</g>
<!-- Node5 -->
<g id="node6" class="node">
<title>Node5</title>
<g id="a_node6"><a xlink:href="classLIEF_1_1ELF_1_1JsonVisitor.html" target="_top" xlink:title="LIEF::ELF::JsonVisitor">
<polygon fill="#ffffff" stroke="#000000" points="247.5,-152.5 247.5,-171.5 362.5,-171.5 362.5,-152.5 247.5,-152.5"/>
<text text-anchor="middle" x="305" y="-159.5" font-family="Helvetica,sans-Serif" font-size="10.00" fill="#000000">LIEF::ELF::JsonVisitor</text>
</a>
</g>
</g>
<!-- Node0&#45;&gt;Node5 -->
<g id="edge5" class="edge">
<title>Node0&#45;&gt;Node5</title>
<path fill="none" stroke="#191970" d="M212.3271,-150.2222C223.8425,-151.6857 235.9609,-153.2258 247.4992,-154.6922"/>
<polygon fill="#191970" stroke="#191970" points="212.7541,-146.7484 202.3926,-148.9596 211.8715,-153.6925 212.7541,-146.7484"/>
</g>
<!-- Node6 -->
<g id="node7" class="node">
<title>Node6</title>
<g id="a_node7"><a xlink:href="classLIEF_1_1MachO_1_1JsonVisitor.html" target="_top" xlink:title="LIEF::MachO::JsonVisitor">
<polygon fill="#ffffff" stroke="#000000" points="239,-114.5 239,-133.5 371,-133.5 371,-114.5 239,-114.5"/>
<text text-anchor="middle" x="305" y="-121.5" font-family="Helvetica,sans-Serif" font-size="10.00" fill="#000000">LIEF::MachO::JsonVisitor</text>
</a>
</g>
</g>
<!-- Node0&#45;&gt;Node6 -->
<g id="edge6" class="edge">
<title>Node0&#45;&gt;Node6</title>
<path fill="none" stroke="#191970" d="M212.3627,-135.7733C221.0142,-134.6738 230.0054,-133.5311 238.8346,-132.409"/>
<polygon fill="#191970" stroke="#191970" points="211.8715,-132.3075 202.3926,-137.0404 212.7541,-139.2516 211.8715,-132.3075"/>
</g>
<!-- Node7 -->
<g id="node8" class="node">
<title>Node7</title>
<g id="a_node8"><a xlink:href="classLIEF_1_1OAT_1_1JsonVisitor.html" target="_top" xlink:title="LIEF::OAT::JsonVisitor">
<polygon fill="#ffffff" stroke="#000000" points="246,-76.5 246,-95.5 364,-95.5 364,-76.5 246,-76.5"/>
<text text-anchor="middle" x="305" y="-83.5" font-family="Helvetica,sans-Serif" font-size="10.00" fill="#000000">LIEF::OAT::JsonVisitor</text>
</a>
</g>
</g>
<!-- Node0&#45;&gt;Node7 -->
<g id="edge7" class="edge">
<title>Node0&#45;&gt;Node7</title>
<path fill="none" stroke="#191970" d="M183.3455,-128.8601C199.1262,-121.182 219.3811,-111.8806 238,-105 247.413,-101.5214 257.7652,-98.3013 267.458,-95.5376"/>
<polygon fill="#191970" stroke="#191970" points="181.5724,-125.832 174.1526,-133.3949 184.6692,-132.1098 181.5724,-125.832"/>
</g>
<!-- Node8 -->
<g id="node9" class="node">
<title>Node8</title>
<g id="a_node9"><a xlink:href="classLIEF_1_1PE_1_1JsonVisitor.html" target="_top" xlink:title="LIEF::PE::JsonVisitor">
<polygon fill="#ffffff" stroke="#000000" points="249.5,-38.5 249.5,-57.5 360.5,-57.5 360.5,-38.5 249.5,-38.5"/>
<text text-anchor="middle" x="305" y="-45.5" font-family="Helvetica,sans-Serif" font-size="10.00" fill="#000000">LIEF::PE::JsonVisitor</text>
</a>
</g>
</g>
<!-- Node0&#45;&gt;Node8 -->
<g id="edge8" class="edge">
<title>Node0&#45;&gt;Node8</title>
<path fill="none" stroke="#191970" d="M169.9332,-125.6016C185.1591,-108.3309 210.6927,-82.2878 238,-67 244.8574,-63.1609 252.5519,-60.0465 260.2163,-57.5362"/>
<polygon fill="#191970" stroke="#191970" points="167.1889,-123.425 163.3241,-133.2898 172.4971,-127.9882 167.1889,-123.425"/>
</g>
<!-- Node9 -->
<g id="node10" class="node">
<title>Node9</title>
<g id="a_node10"><a xlink:href="classLIEF_1_1VDEX_1_1JsonVisitor.html" target="_top" xlink:title="LIEF::VDEX::JsonVisitor">
<polygon fill="#ffffff" stroke="#000000" points="242,-.5 242,-19.5 368,-19.5 368,-.5 242,-.5"/>
<text text-anchor="middle" x="305" y="-7.5" font-family="Helvetica,sans-Serif" font-size="10.00" fill="#000000">LIEF::VDEX::JsonVisitor</text>
</a>
</g>
</g>
<!-- Node0&#45;&gt;Node9 -->
<g id="edge9" class="edge">
<title>Node0&#45;&gt;Node9</title>
<path fill="none" stroke="#191970" d="M164.1698,-124.0656C176.7908,-98.6205 202.633,-53.7365 238,-29 243.5483,-25.1194 249.8753,-22.0273 256.3748,-19.5646"/>
<polygon fill="#191970" stroke="#191970" points="160.8756,-122.8412 159.7157,-133.3723 167.1898,-125.8631 160.8756,-122.8412"/>
</g>
<!-- Node1 -->
<g id="node2" class="node">
<title>Node1</title>
<g id="a_node2"><a xlink:href="classLIEF_1_1Visitor.html" target="_top" xlink:title="LIEF::Visitor">
<polygon fill="#ffffff" stroke="#000000" points="0,-133.5 0,-152.5 73,-152.5 73,-133.5 0,-133.5"/>
<text text-anchor="middle" x="36.5" y="-140.5" font-family="Helvetica,sans-Serif" font-size="10.00" fill="#000000">LIEF::Visitor</text>
</a>
</g>
</g>
<!-- Node1&#45;&gt;Node0 -->
<g id="edge1" class="edge">
<title>Node1&#45;&gt;Node0</title>
<path fill="none" stroke="#191970" d="M83.4346,-143C91.7186,-143 100.3431,-143 108.6255,-143"/>
<polygon fill="#191970" stroke="#191970" points="83.175,-139.5001 73.1749,-143 83.1749,-146.5001 83.175,-139.5001"/>
</g>
</g>
</svg>
