<?xml version="1.0" encoding="UTF-8" standalone="no"?>
<!DOCTYPE svg PUBLIC "-//W3C//DTD SVG 1.1//EN"
 "http://www.w3.org/Graphics/SVG/1.1/DTD/svg11.dtd">
<!-- Generated by graphviz version 2.40.1 (20161225.0304)
 -->
<!-- Title: LIEF::MachO::Relocation Pages: 1 -->
<svg width="344pt" height="196pt"
 viewBox="0.00 0.00 343.50 196.00" xmlns="http://www.w3.org/2000/svg" xmlns:xlink="http://www.w3.org/1999/xlink">
<g id="graph0" class="graph" transform="scale(1 1) rotate(0) translate(4 192)">
<title>LIEF::MachO::Relocation</title>
<polygon fill="#ffffff" stroke="transparent" points="-4,4 -4,-192 339.5,-192 339.5,4 -4,4"/>
<!-- Node0 -->
<g id="node1" class="node">
<title>Node0</title>
<polygon fill="#bfbfbf" stroke="#000000" points="99.5,-56.5 99.5,-75.5 230.5,-75.5 230.5,-56.5 99.5,-56.5"/>
<text text-anchor="middle" x="165" y="-63.5" font-family="Helvetica,sans-Serif" font-size="10.00" fill="#000000">LIEF::MachO::Relocation</text>
</g>
<!-- Node3 -->
<g id="node4" class="node">
<title>Node3</title>
<g id="a_node4"><a xlink:href="classLIEF_1_1MachO_1_1RelocationDyld.html" target="_top" xlink:title="LIEF::MachO::RelocationDyld">
<polygon fill="#ffffff" stroke="#000000" points="0,-.5 0,-19.5 154,-19.5 154,-.5 0,-.5"/>
<text text-anchor="middle" x="77" y="-7.5" font-family="Helvetica,sans-Serif" font-size="10.00" fill="#000000">LIEF::MachO::RelocationDyld</text>
</a>
</g>
</g>
<!-- Node0&#45;&gt;Node3 -->
<g id="edge3" class="edge">
<title>Node0&#45;&gt;Node3</title>
<path fill="none" stroke="#191970" d="M141.0655,-50.769C125.4717,-40.8456 105.599,-28.1994 92.1528,-19.6427"/>
<polygon fill="#191970" stroke="#191970" points="139.3559,-53.8296 149.6716,-56.2455 143.114,-47.9239 139.3559,-53.8296"/>
</g>
<!-- Node4 -->
<g id="node5" class="node">
<title>Node4</title>
<g id="a_node5"><a xlink:href="classLIEF_1_1MachO_1_1RelocationObject.html" target="_top" xlink:title="LIEF::MachO::RelocationObject">
<polygon fill="#ffffff" stroke="#000000" points="172.5,-.5 172.5,-19.5 335.5,-19.5 335.5,-.5 172.5,-.5"/>
<text text-anchor="middle" x="254" y="-7.5" font-family="Helvetica,sans-Serif" font-size="10.00" fill="#000000">LIEF::MachO::RelocationObject</text>
</a>
</g>
</g>
<!-- Node0&#45;&gt;Node4 -->
<g id="edge4" class="edge">
<title>Node0&#45;&gt;Node4</title>
<path fill="none" stroke="#191970" d="M189.2064,-50.769C204.9775,-40.8456 225.076,-28.1994 238.675,-19.6427"/>
<polygon fill="#191970" stroke="#191970" points="187.1026,-47.9575 180.5026,-56.2455 190.8305,-53.8823 187.1026,-47.9575"/>
</g>
<!-- Node1 -->
<g id="node2" class="node">
<title>Node1</title>
<g id="a_node2"><a xlink:href="classLIEF_1_1Relocation.html" target="_top" xlink:title="LIEF::Relocation">
<polygon fill="#ffffff" stroke="#000000" points="119,-112.5 119,-131.5 211,-131.5 211,-112.5 119,-112.5"/>
<text text-anchor="middle" x="165" y="-119.5" font-family="Helvetica,sans-Serif" font-size="10.00" fill="#000000">LIEF::Relocation</text>
</a>
</g>
</g>
<!-- Node1&#45;&gt;Node0 -->
<g id="edge1" class="edge">
<title>Node1&#45;&gt;Node0</title>
<path fill="none" stroke="#191970" d="M165,-102.1575C165,-93.155 165,-82.9199 165,-75.6427"/>
<polygon fill="#191970" stroke="#191970" points="161.5001,-102.2455 165,-112.2455 168.5001,-102.2456 161.5001,-102.2455"/>
</g>
<!-- Node2 -->
<g id="node3" class="node">
<title>Node2</title>
<g id="a_node3"><a xlink:href="classLIEF_1_1Object.html" target="_top" xlink:title="LIEF::Object">
<polygon fill="#ffffff" stroke="#000000" points="128.5,-168.5 128.5,-187.5 201.5,-187.5 201.5,-168.5 128.5,-168.5"/>
<text text-anchor="middle" x="165" y="-175.5" font-family="Helvetica,sans-Serif" font-size="10.00" fill="#000000">LIEF::Object</text>
</a>
</g>
</g>
<!-- Node2&#45;&gt;Node1 -->
<g id="edge2" class="edge">
<title>Node2&#45;&gt;Node1</title>
<path fill="none" stroke="#191970" d="M165,-158.1575C165,-149.155 165,-138.9199 165,-131.6427"/>
<polygon fill="#191970" stroke="#191970" points="161.5001,-158.2455 165,-168.2455 168.5001,-158.2456 161.5001,-158.2455"/>
</g>
</g>
</svg>
