<?xml version="1.0" encoding="UTF-8" standalone="no"?>
<!DOCTYPE svg PUBLIC "-//W3C//DTD SVG 1.1//EN"
 "http://www.w3.org/Graphics/SVG/1.1/DTD/svg11.dtd">
<!-- Generated by graphviz version 2.40.1 (20161225.0304)
 -->
<!-- Title: LIEF::PE::LoadConfigurationV0 Pages: 1 -->
<svg width="169pt" height="140pt"
 viewBox="0.00 0.00 169.00 140.00" xmlns="http://www.w3.org/2000/svg" xmlns:xlink="http://www.w3.org/1999/xlink">
<g id="graph0" class="graph" transform="scale(1 1) rotate(0) translate(4 136)">
<title>LIEF::PE::LoadConfigurationV0</title>
<polygon fill="#ffffff" stroke="transparent" points="-4,4 -4,-136 165,-136 165,4 -4,4"/>
<!-- Node10 -->
<g id="node1" class="node">
<title>Node10</title>
<polygon fill="#bfbfbf" stroke="#000000" points="0,-.5 0,-19.5 161,-19.5 161,-.5 0,-.5"/>
<text text-anchor="middle" x="80.5" y="-7.5" font-family="Helvetica,sans-Serif" font-size="10.00" fill="#000000">LIEF::PE::LoadConfigurationV0</text>
</g>
<!-- Node11 -->
<g id="node2" class="node">
<title>Node11</title>
<g id="a_node2"><a xlink:href="classLIEF_1_1PE_1_1LoadConfiguration.html" target="_top" xlink:title="Class modeling the default PE&#39;s LoadConfiguration ">
<polygon fill="#ffffff" stroke="#000000" points="6.5,-56.5 6.5,-75.5 154.5,-75.5 154.5,-56.5 6.5,-56.5"/>
<text text-anchor="middle" x="80.5" y="-63.5" font-family="Helvetica,sans-Serif" font-size="10.00" fill="#000000">LIEF::PE::LoadConfiguration</text>
</a>
</g>
</g>
<!-- Node11&#45;&gt;Node10 -->
<g id="edge1" class="edge">
<title>Node11&#45;&gt;Node10</title>
<path fill="none" stroke="#191970" d="M80.5,-46.1575C80.5,-37.155 80.5,-26.9199 80.5,-19.6427"/>
<polygon fill="#191970" stroke="#191970" points="77.0001,-46.2455 80.5,-56.2455 84.0001,-46.2456 77.0001,-46.2455"/>
</g>
<!-- Node12 -->
<g id="node3" class="node">
<title>Node12</title>
<g id="a_node3"><a xlink:href="classLIEF_1_1Object.html" target="_top" xlink:title="LIEF::Object">
<polygon fill="#ffffff" stroke="#000000" points="44,-112.5 44,-131.5 117,-131.5 117,-112.5 44,-112.5"/>
<text text-anchor="middle" x="80.5" y="-119.5" font-family="Helvetica,sans-Serif" font-size="10.00" fill="#000000">LIEF::Object</text>
</a>
</g>
</g>
<!-- Node12&#45;&gt;Node11 -->
<g id="edge2" class="edge">
<title>Node12&#45;&gt;Node11</title>
<path fill="none" stroke="#191970" d="M80.5,-102.1575C80.5,-93.155 80.5,-82.9199 80.5,-75.6427"/>
<polygon fill="#191970" stroke="#191970" points="77.0001,-102.2455 80.5,-112.2455 84.0001,-102.2456 77.0001,-102.2455"/>
</g>
</g>
</svg>
