<?xml version="1.0" encoding="UTF-8" standalone="no"?>
<!DOCTYPE svg PUBLIC "-//W3C//DTD SVG 1.1//EN"
 "http://www.w3.org/Graphics/SVG/1.1/DTD/svg11.dtd">
<!-- Generated by graphviz version 2.40.1 (20161225.0304)
 -->
<!-- Title: utf8::iterator&lt; octet_iterator &gt; Pages: 1 -->
<svg width="133pt" height="117pt"
 viewBox="0.00 0.00 133.00 117.00" xmlns="http://www.w3.org/2000/svg" xmlns:xlink="http://www.w3.org/1999/xlink">
<g id="graph0" class="graph" transform="scale(1 1) rotate(0) translate(4 113)">
<title>utf8::iterator&lt; octet_iterator &gt;</title>
<polygon fill="#ffffff" stroke="transparent" points="-4,4 -4,-113 129,-113 129,4 -4,4"/>
<!-- Node0 -->
<g id="node1" class="node">
<title>Node0</title>
<polygon fill="#bfbfbf" stroke="#000000" points="5.5,-.5 5.5,-30.5 119.5,-30.5 119.5,-.5 5.5,-.5"/>
<text text-anchor="start" x="13.5" y="-18.5" font-family="Helvetica,sans-Serif" font-size="10.00" fill="#000000">utf8::iterator&lt; octet</text>
<text text-anchor="middle" x="62.5" y="-7.5" font-family="Helvetica,sans-Serif" font-size="10.00" fill="#000000">_iterator &gt;</text>
</g>
<!-- Node1 -->
<g id="node2" class="node">
<title>Node1</title>
<polygon fill="#ffffff" stroke="#bfbfbf" points="0,-67.5 0,-108.5 125,-108.5 125,-67.5 0,-67.5"/>
<text text-anchor="start" x="8" y="-96.5" font-family="Helvetica,sans-Serif" font-size="10.00" fill="#000000">std::iterator&lt; std</text>
<text text-anchor="start" x="8" y="-85.5" font-family="Helvetica,sans-Serif" font-size="10.00" fill="#000000">::bidirectional_iterator</text>
<text text-anchor="middle" x="62.5" y="-74.5" font-family="Helvetica,sans-Serif" font-size="10.00" fill="#000000">_tag, uint32_t &gt;</text>
</g>
<!-- Node1&#45;&gt;Node0 -->
<g id="edge1" class="edge">
<title>Node1&#45;&gt;Node0</title>
<path fill="none" stroke="#191970" d="M62.5,-57.3279C62.5,-48.0871 62.5,-38.3508 62.5,-30.5991"/>
<polygon fill="#191970" stroke="#191970" points="59.0001,-57.4183 62.5,-67.4183 66.0001,-57.4184 59.0001,-57.4183"/>
</g>
</g>
</svg>
