<?xml version="1.0" encoding="UTF-8" standalone="no"?>
<!DOCTYPE svg PUBLIC "-//W3C//DTD SVG 1.1//EN"
 "http://www.w3.org/Graphics/SVG/1.1/DTD/svg11.dtd">
<!-- Generated by graphviz version 2.40.1 (20161225.0304)
 -->
<!-- Title: LIEF::exception Pages: 1 -->
<svg width="575pt" height="446pt"
 viewBox="0.00 0.00 575.00 446.00" xmlns="http://www.w3.org/2000/svg" xmlns:xlink="http://www.w3.org/1999/xlink">
<g id="graph0" class="graph" transform="scale(1 1) rotate(0) translate(4 442)">
<title>LIEF::exception</title>
<polygon fill="#ffffff" stroke="transparent" points="-4,4 -4,-442 571,-442 571,4 -4,4"/>
<!-- Node0 -->
<g id="node1" class="node">
<title>Node0</title>
<polygon fill="#bfbfbf" stroke="#000000" points="122,-209.5 122,-228.5 211,-228.5 211,-209.5 122,-209.5"/>
<text text-anchor="middle" x="166.5" y="-216.5" font-family="Helvetica,sans-Serif" font-size="10.00" fill="#000000">LIEF::exception</text>
</g>
<!-- Node2 -->
<g id="node3" class="node">
<title>Node2</title>
<g id="a_node3"><a xlink:href="classLIEF_1_1bad__file.html" target="_top" xlink:title="LIEF::bad_file">
<polygon fill="#ffffff" stroke="#000000" points="274,-418.5 274,-437.5 354,-437.5 354,-418.5 274,-418.5"/>
<text text-anchor="middle" x="314" y="-425.5" font-family="Helvetica,sans-Serif" font-size="10.00" fill="#000000">LIEF::bad_file</text>
</a>
</g>
</g>
<!-- Node0&#45;&gt;Node2 -->
<g id="edge2" class="edge">
<title>Node0&#45;&gt;Node2</title>
<path fill="none" stroke="#191970" d="M169.1346,-238.4818C175.3787,-276.9273 194.6881,-362.8234 247,-409 254.5234,-415.6411 264.2113,-419.973 273.8692,-422.7951"/>
<polygon fill="#191970" stroke="#191970" points="172.5923,-237.938 167.6482,-228.5675 165.6696,-238.976 172.5923,-237.938"/>
</g>
<!-- Node4 -->
<g id="node5" class="node">
<title>Node4</title>
<g id="a_node5"><a xlink:href="classLIEF_1_1builder__error.html" target="_top" xlink:title="LIEF::builder_error">
<polygon fill="#ffffff" stroke="#000000" points="262,-380.5 262,-399.5 366,-399.5 366,-380.5 262,-380.5"/>
<text text-anchor="middle" x="314" y="-387.5" font-family="Helvetica,sans-Serif" font-size="10.00" fill="#000000">LIEF::builder_error</text>
</a>
</g>
</g>
<!-- Node0&#45;&gt;Node4 -->
<g id="edge4" class="edge">
<title>Node0&#45;&gt;Node4</title>
<path fill="none" stroke="#191970" d="M171.4354,-238.5442C180.6516,-270.9965 203.5912,-335.8944 247,-371 251.7945,-374.8774 257.3379,-377.964 263.1413,-380.421"/>
<polygon fill="#191970" stroke="#191970" points="174.7162,-237.2668 168.7368,-228.5206 167.9569,-239.0866 174.7162,-237.2668"/>
</g>
<!-- Node5 -->
<g id="node6" class="node">
<title>Node5</title>
<g id="a_node6"><a xlink:href="classLIEF_1_1conversion__error.html" target="_top" xlink:title="LIEF::conversion_error">
<polygon fill="#ffffff" stroke="#000000" points="252.5,-342.5 252.5,-361.5 375.5,-361.5 375.5,-342.5 252.5,-342.5"/>
<text text-anchor="middle" x="314" y="-349.5" font-family="Helvetica,sans-Serif" font-size="10.00" fill="#000000">LIEF::conversion_error</text>
</a>
</g>
</g>
<!-- Node0&#45;&gt;Node5 -->
<g id="edge5" class="edge">
<title>Node0&#45;&gt;Node5</title>
<path fill="none" stroke="#191970" d="M174.838,-237.9348C187.0131,-263.3803 212.0684,-308.2648 247,-333 252.5257,-336.9128 258.8399,-340.0229 265.3334,-342.4943"/>
<polygon fill="#191970" stroke="#191970" points="177.9125,-236.2437 170.547,-228.6279 171.5556,-239.1746 177.9125,-236.2437"/>
</g>
<!-- Node6 -->
<g id="node7" class="node">
<title>Node6</title>
<g id="a_node7"><a xlink:href="classLIEF_1_1corrupted.html" target="_top" xlink:title="LIEF::corrupted">
<polygon fill="#ffffff" stroke="#000000" points="270,-304.5 270,-323.5 358,-323.5 358,-304.5 270,-304.5"/>
<text text-anchor="middle" x="314" y="-311.5" font-family="Helvetica,sans-Serif" font-size="10.00" fill="#000000">LIEF::corrupted</text>
</a>
</g>
</g>
<!-- Node0&#45;&gt;Node6 -->
<g id="edge6" class="edge">
<title>Node0&#45;&gt;Node6</title>
<path fill="none" stroke="#191970" d="M180.4947,-236.4128C195.2815,-253.6949 220.1417,-279.7469 247,-295 254.044,-299.0004 261.9902,-302.2082 269.8839,-304.7644"/>
<polygon fill="#191970" stroke="#191970" points="183.1723,-234.1586 174.0804,-228.719 177.7957,-238.6411 183.1723,-234.1586"/>
</g>
<!-- Node7 -->
<g id="node8" class="node">
<title>Node7</title>
<g id="a_node8"><a xlink:href="classLIEF_1_1integrity__error.html" target="_top" xlink:title="LIEF::integrity_error">
<polygon fill="#ffffff" stroke="#000000" points="258.5,-266.5 258.5,-285.5 369.5,-285.5 369.5,-266.5 258.5,-266.5"/>
<text text-anchor="middle" x="314" y="-273.5" font-family="Helvetica,sans-Serif" font-size="10.00" fill="#000000">LIEF::integrity_error</text>
</a>
</g>
</g>
<!-- Node0&#45;&gt;Node7 -->
<g id="edge7" class="edge">
<title>Node0&#45;&gt;Node7</title>
<path fill="none" stroke="#191970" d="M193.6333,-233.1799C209.0199,-240.8705 228.7846,-250.171 247,-257 256.2834,-260.4803 266.4938,-263.6805 276.0849,-266.4228"/>
<polygon fill="#191970" stroke="#191970" points="195.1736,-230.0368 184.6718,-228.636 192.0079,-236.28 195.1736,-230.0368"/>
</g>
<!-- Node8 -->
<g id="node9" class="node">
<title>Node8</title>
<g id="a_node9"><a xlink:href="classLIEF_1_1not__found.html" target="_top" xlink:title="LIEF::not_found">
<polygon fill="#ffffff" stroke="#000000" points="269,-228.5 269,-247.5 359,-247.5 359,-228.5 269,-228.5"/>
<text text-anchor="middle" x="314" y="-235.5" font-family="Helvetica,sans-Serif" font-size="10.00" fill="#000000">LIEF::not_found</text>
</a>
</g>
</g>
<!-- Node0&#45;&gt;Node8 -->
<g id="edge8" class="edge">
<title>Node0&#45;&gt;Node8</title>
<path fill="none" stroke="#191970" d="M221.2713,-226.0553C236.9857,-228.0795 253.9335,-230.2626 268.9876,-232.2018"/>
<polygon fill="#191970" stroke="#191970" points="221.5204,-222.5585 211.1551,-224.7522 220.626,-229.5012 221.5204,-222.5585"/>
</g>
<!-- Node9 -->
<g id="node10" class="node">
<title>Node9</title>
<g id="a_node10"><a xlink:href="classLIEF_1_1not__implemented.html" target="_top" xlink:title="LIEF::not_implemented">
<polygon fill="#ffffff" stroke="#000000" points="250,-190.5 250,-209.5 378,-209.5 378,-190.5 250,-190.5"/>
<text text-anchor="middle" x="314" y="-197.5" font-family="Helvetica,sans-Serif" font-size="10.00" fill="#000000">LIEF::not_implemented</text>
</a>
</g>
</g>
<!-- Node0&#45;&gt;Node9 -->
<g id="edge9" class="edge">
<title>Node0&#45;&gt;Node9</title>
<path fill="none" stroke="#191970" d="M221.1217,-211.964C230.4957,-210.7565 240.3126,-209.4919 249.9077,-208.256"/>
<polygon fill="#191970" stroke="#191970" points="220.626,-208.4988 211.1551,-213.2478 221.5204,-215.4415 220.626,-208.4988"/>
</g>
<!-- Node10 -->
<g id="node11" class="node">
<title>Node10</title>
<g id="a_node11"><a xlink:href="classLIEF_1_1not__supported.html" target="_top" xlink:title="LIEF::not_supported">
<polygon fill="#ffffff" stroke="#000000" points="258.5,-152.5 258.5,-171.5 369.5,-171.5 369.5,-152.5 258.5,-152.5"/>
<text text-anchor="middle" x="314" y="-159.5" font-family="Helvetica,sans-Serif" font-size="10.00" fill="#000000">LIEF::not_supported</text>
</a>
</g>
</g>
<!-- Node0&#45;&gt;Node10 -->
<g id="edge10" class="edge">
<title>Node0&#45;&gt;Node10</title>
<path fill="none" stroke="#191970" d="M193.6333,-204.8201C209.0199,-197.1295 228.7846,-187.829 247,-181 256.2834,-177.5197 266.4938,-174.3195 276.0849,-171.5772"/>
<polygon fill="#191970" stroke="#191970" points="192.0079,-201.72 184.6718,-209.364 195.1736,-207.9632 192.0079,-201.72"/>
</g>
<!-- Node11 -->
<g id="node12" class="node">
<title>Node11</title>
<g id="a_node12"><a xlink:href="classLIEF_1_1parser__error.html" target="_top" xlink:title="LIEF::parser_error">
<polygon fill="#ffffff" stroke="#000000" points="263.5,-114.5 263.5,-133.5 364.5,-133.5 364.5,-114.5 263.5,-114.5"/>
<text text-anchor="middle" x="314" y="-121.5" font-family="Helvetica,sans-Serif" font-size="10.00" fill="#000000">LIEF::parser_error</text>
</a>
</g>
</g>
<!-- Node0&#45;&gt;Node11 -->
<g id="edge11" class="edge">
<title>Node0&#45;&gt;Node11</title>
<path fill="none" stroke="#191970" d="M180.4947,-201.5872C195.2815,-184.3051 220.1417,-158.2531 247,-143 253.7286,-139.1787 261.2805,-136.0806 268.8233,-133.5829"/>
<polygon fill="#191970" stroke="#191970" points="177.7957,-199.3589 174.0804,-209.281 183.1723,-203.8414 177.7957,-199.3589"/>
</g>
<!-- Node12 -->
<g id="node13" class="node">
<title>Node12</title>
<g id="a_node13"><a xlink:href="classLIEF_1_1pe__error.html" target="_top" xlink:title="LIEF::pe_error">
<polygon fill="#ffffff" stroke="#000000" points="273,-76.5 273,-95.5 355,-95.5 355,-76.5 273,-76.5"/>
<text text-anchor="middle" x="314" y="-83.5" font-family="Helvetica,sans-Serif" font-size="10.00" fill="#000000">LIEF::pe_error</text>
</a>
</g>
</g>
<!-- Node0&#45;&gt;Node12 -->
<g id="edge12" class="edge">
<title>Node0&#45;&gt;Node12</title>
<path fill="none" stroke="#191970" d="M174.838,-200.0652C187.0131,-174.6197 212.0684,-129.7352 247,-105 254.5978,-99.6199 263.6865,-95.7574 272.6819,-92.9863"/>
<polygon fill="#191970" stroke="#191970" points="171.5556,-198.8254 170.547,-209.3721 177.9125,-201.7563 171.5556,-198.8254"/>
</g>
<!-- Node14 -->
<g id="node15" class="node">
<title>Node14</title>
<g id="a_node15"><a xlink:href="classLIEF_1_1read__out__of__bound.html" target="_top" xlink:title="LIEF::read_out_of_bound">
<polygon fill="#ffffff" stroke="#000000" points="247,-38.5 247,-57.5 381,-57.5 381,-38.5 247,-38.5"/>
<text text-anchor="middle" x="314" y="-45.5" font-family="Helvetica,sans-Serif" font-size="10.00" fill="#000000">LIEF::read_out_of_bound</text>
</a>
</g>
</g>
<!-- Node0&#45;&gt;Node14 -->
<g id="edge14" class="edge">
<title>Node0&#45;&gt;Node14</title>
<path fill="none" stroke="#191970" d="M171.4354,-199.4558C180.6516,-167.0035 203.5912,-102.1056 247,-67 251.7945,-63.1226 257.3379,-60.036 263.1413,-57.579"/>
<polygon fill="#191970" stroke="#191970" points="167.9569,-198.9134 168.7368,-209.4794 174.7162,-200.7332 167.9569,-198.9134"/>
</g>
<!-- Node15 -->
<g id="node16" class="node">
<title>Node15</title>
<g id="a_node16"><a xlink:href="classLIEF_1_1type__error.html" target="_top" xlink:title="LIEF::type_error">
<polygon fill="#ffffff" stroke="#000000" points="268,-.5 268,-19.5 360,-19.5 360,-.5 268,-.5"/>
<text text-anchor="middle" x="314" y="-7.5" font-family="Helvetica,sans-Serif" font-size="10.00" fill="#000000">LIEF::type_error</text>
</a>
</g>
</g>
<!-- Node0&#45;&gt;Node15 -->
<g id="edge15" class="edge">
<title>Node0&#45;&gt;Node15</title>
<path fill="none" stroke="#191970" d="M169.1346,-199.5182C175.3787,-161.0727 194.6881,-75.1766 247,-29 252.9825,-23.7192 260.3336,-19.8984 267.9499,-17.1358"/>
<polygon fill="#191970" stroke="#191970" points="165.6696,-199.024 167.6482,-209.4325 172.5923,-200.062 165.6696,-199.024"/>
</g>
<!-- Node1 -->
<g id="node2" class="node">
<title>Node1</title>
<polygon fill="#ffffff" stroke="#bfbfbf" points="0,-209.5 0,-228.5 86,-228.5 86,-209.5 0,-209.5"/>
<text text-anchor="middle" x="43" y="-216.5" font-family="Helvetica,sans-Serif" font-size="10.00" fill="#000000">std::exception</text>
</g>
<!-- Node1&#45;&gt;Node0 -->
<g id="edge1" class="edge">
<title>Node1&#45;&gt;Node0</title>
<path fill="none" stroke="#191970" d="M96.4024,-219C104.8947,-219 113.6016,-219 121.8646,-219"/>
<polygon fill="#191970" stroke="#191970" points="96.1943,-215.5001 86.1943,-219 96.1943,-222.5001 96.1943,-215.5001"/>
</g>
<!-- Node3 -->
<g id="node4" class="node">
<title>Node3</title>
<g id="a_node4"><a xlink:href="classLIEF_1_1bad__format.html" target="_top" xlink:title="LIEF::bad_format">
<polygon fill="#ffffff" stroke="#000000" points="443,-418.5 443,-437.5 541,-437.5 541,-418.5 443,-418.5"/>
<text text-anchor="middle" x="492" y="-425.5" font-family="Helvetica,sans-Serif" font-size="10.00" fill="#000000">LIEF::bad_format</text>
</a>
</g>
</g>
<!-- Node2&#45;&gt;Node3 -->
<g id="edge3" class="edge">
<title>Node2&#45;&gt;Node3</title>
<path fill="none" stroke="#191970" d="M364.591,-428C389.1477,-428 418.5316,-428 442.8895,-428"/>
<polygon fill="#191970" stroke="#191970" points="364.391,-424.5001 354.391,-428 364.3909,-431.5001 364.391,-424.5001"/>
</g>
<!-- Node13 -->
<g id="node14" class="node">
<title>Node13</title>
<g id="a_node14"><a xlink:href="classLIEF_1_1pe__bad__section__name.html" target="_top" xlink:title="LIEF::pe_bad_section_name">
<polygon fill="#ffffff" stroke="#000000" points="417,-76.5 417,-95.5 567,-95.5 567,-76.5 417,-76.5"/>
<text text-anchor="middle" x="492" y="-83.5" font-family="Helvetica,sans-Serif" font-size="10.00" fill="#000000">LIEF::pe_bad_section_name</text>
</a>
</g>
</g>
<!-- Node12&#45;&gt;Node13 -->
<g id="edge13" class="edge">
<title>Node12&#45;&gt;Node13</title>
<path fill="none" stroke="#191970" d="M365.4798,-86C381.4712,-86 399.4408,-86 416.7055,-86"/>
<polygon fill="#191970" stroke="#191970" points="365.2842,-82.5001 355.2842,-86 365.2841,-89.5001 365.2842,-82.5001"/>
</g>
</g>
</svg>
