<?xml version="1.0" encoding="UTF-8" standalone="no"?>
<!DOCTYPE svg PUBLIC "-//W3C//DTD SVG 1.1//EN"
 "http://www.w3.org/Graphics/SVG/1.1/DTD/svg11.dtd">
<!-- Generated by graphviz version 2.40.1 (20161225.0304)
 -->
<!-- Title: LIEF::Parser Pages: 1 -->
<svg width="257pt" height="180pt"
 viewBox="0.00 0.00 257.00 180.00" xmlns="http://www.w3.org/2000/svg" xmlns:xlink="http://www.w3.org/1999/xlink">
<g id="graph0" class="graph" transform="scale(1 1) rotate(0) translate(4 176)">
<title>LIEF::Parser</title>
<polygon fill="#ffffff" stroke="transparent" points="-4,4 -4,-176 253,-176 253,4 -4,4"/>
<!-- Node0 -->
<g id="node1" class="node">
<title>Node0</title>
<polygon fill="#bfbfbf" stroke="#000000" points="0,-76.5 0,-95.5 71,-95.5 71,-76.5 0,-76.5"/>
<text text-anchor="middle" x="35.5" y="-83.5" font-family="Helvetica,sans-Serif" font-size="10.00" fill="#000000">LIEF::Parser</text>
</g>
<!-- Node1 -->
<g id="node2" class="node">
<title>Node1</title>
<g id="a_node2"><a xlink:href="classLIEF_1_1ELF_1_1Parser.html" target="_top" xlink:title="Class which parse an ELF file and transform into a ELF::Binary. ">
<polygon fill="#ffffff" stroke="#000000" points="131.5,-152.5 131.5,-171.5 224.5,-171.5 224.5,-152.5 131.5,-152.5"/>
<text text-anchor="middle" x="178" y="-159.5" font-family="Helvetica,sans-Serif" font-size="10.00" fill="#000000">LIEF::ELF::Parser</text>
</a>
</g>
</g>
<!-- Node0&#45;&gt;Node1 -->
<g id="edge1" class="edge">
<title>Node0&#45;&gt;Node1</title>
<path fill="none" stroke="#191970" d="M52.3672,-102.8107C66.0308,-115.5469 86.3424,-132.5779 107,-143 114.5189,-146.7934 122.8801,-149.8938 131.1495,-152.4062"/>
<polygon fill="#191970" stroke="#191970" points="54.4162,-99.9265 44.7751,-95.5331 49.5721,-104.9798 54.4162,-99.9265"/>
</g>
<!-- Node2 -->
<g id="node3" class="node">
<title>Node2</title>
<g id="a_node3"><a xlink:href="classLIEF_1_1MachO_1_1BinaryParser.html" target="_top" xlink:title="Class used to parse single binary (i.e. not FAT) ">
<polygon fill="#ffffff" stroke="#000000" points="107,-114.5 107,-133.5 249,-133.5 249,-114.5 107,-114.5"/>
<text text-anchor="middle" x="178" y="-121.5" font-family="Helvetica,sans-Serif" font-size="10.00" fill="#000000">LIEF::MachO::BinaryParser</text>
</a>
</g>
</g>
<!-- Node0&#45;&gt;Node2 -->
<g id="edge2" class="edge">
<title>Node0&#45;&gt;Node2</title>
<path fill="none" stroke="#191970" d="M80.8663,-98.0977C100.7493,-103.3998 123.7446,-109.5319 142.3687,-114.4983"/>
<polygon fill="#191970" stroke="#191970" points="81.6554,-94.6859 71.0912,-95.491 79.8517,-101.4495 81.6554,-94.6859"/>
</g>
<!-- Node3 -->
<g id="node4" class="node">
<title>Node3</title>
<g id="a_node4"><a xlink:href="classLIEF_1_1MachO_1_1Parser.html" target="_top" xlink:title="LIEF::MachO::Parser">
<polygon fill="#ffffff" stroke="#000000" points="123,-76.5 123,-95.5 233,-95.5 233,-76.5 123,-76.5"/>
<text text-anchor="middle" x="178" y="-83.5" font-family="Helvetica,sans-Serif" font-size="10.00" fill="#000000">LIEF::MachO::Parser</text>
</a>
</g>
</g>
<!-- Node0&#45;&gt;Node3 -->
<g id="edge3" class="edge">
<title>Node0&#45;&gt;Node3</title>
<path fill="none" stroke="#191970" d="M81.3745,-86C94.6083,-86 109.1855,-86 122.9169,-86"/>
<polygon fill="#191970" stroke="#191970" points="81.0912,-82.5001 71.0912,-86 81.0911,-89.5001 81.0912,-82.5001"/>
</g>
<!-- Node4 -->
<g id="node5" class="node">
<title>Node4</title>
<g id="a_node5"><a xlink:href="classLIEF_1_1OAT_1_1Parser.html" target="_top" xlink:title="Class which parse an OAT file and transform into a OAT::Binary. ">
<polygon fill="#ffffff" stroke="#000000" points="130,-38.5 130,-57.5 226,-57.5 226,-38.5 130,-38.5"/>
<text text-anchor="middle" x="178" y="-45.5" font-family="Helvetica,sans-Serif" font-size="10.00" fill="#000000">LIEF::OAT::Parser</text>
</a>
</g>
</g>
<!-- Node0&#45;&gt;Node4 -->
<g id="edge4" class="edge">
<title>Node0&#45;&gt;Node4</title>
<path fill="none" stroke="#191970" d="M80.8663,-73.9023C100.7493,-68.6002 123.7446,-62.4681 142.3687,-57.5017"/>
<polygon fill="#191970" stroke="#191970" points="79.8517,-70.5505 71.0912,-76.509 81.6554,-77.3141 79.8517,-70.5505"/>
</g>
<!-- Node5 -->
<g id="node6" class="node">
<title>Node5</title>
<g id="a_node6"><a xlink:href="classLIEF_1_1PE_1_1Parser.html" target="_top" xlink:title="LIEF::PE::Parser">
<polygon fill="#ffffff" stroke="#000000" points="133.5,-.5 133.5,-19.5 222.5,-19.5 222.5,-.5 133.5,-.5"/>
<text text-anchor="middle" x="178" y="-7.5" font-family="Helvetica,sans-Serif" font-size="10.00" fill="#000000">LIEF::PE::Parser</text>
</a>
</g>
</g>
<!-- Node0&#45;&gt;Node5 -->
<g id="edge5" class="edge">
<title>Node0&#45;&gt;Node5</title>
<path fill="none" stroke="#191970" d="M52.3672,-69.1893C66.0308,-56.4531 86.3424,-39.4221 107,-29 115.2025,-24.8617 124.4073,-21.5483 133.4018,-18.923"/>
<polygon fill="#191970" stroke="#191970" points="49.5721,-67.0202 44.7751,-76.4669 54.4162,-72.0735 49.5721,-67.0202"/>
</g>
</g>
</svg>
