<?xml version="1.0" encoding="UTF-8" standalone="no"?>
<!DOCTYPE svg PUBLIC "-//W3C//DTD SVG 1.1//EN"
 "http://www.w3.org/Graphics/SVG/1.1/DTD/svg11.dtd">
<!-- Generated by graphviz version 2.40.1 (20161225.0304)
 -->
<!-- Title: LIEF::Hash Pages: 1 -->
<svg width="326pt" height="294pt"
 viewBox="0.00 0.00 326.00 294.00" xmlns="http://www.w3.org/2000/svg" xmlns:xlink="http://www.w3.org/1999/xlink">
<g id="graph0" class="graph" transform="scale(1 1) rotate(0) translate(4 290)">
<title>LIEF::Hash</title>
<polygon fill="#ffffff" stroke="transparent" points="-4,4 -4,-290 322,-290 322,4 -4,4"/>
<!-- Node0 -->
<g id="node1" class="node">
<title>Node0</title>
<polygon fill="#bfbfbf" stroke="#000000" points="109,-133.5 109,-152.5 175,-152.5 175,-133.5 109,-133.5"/>
<text text-anchor="middle" x="142" y="-140.5" font-family="Helvetica,sans-Serif" font-size="10.00" fill="#000000">LIEF::Hash</text>
</g>
<!-- Node2 -->
<g id="node3" class="node">
<title>Node2</title>
<g id="a_node3"><a xlink:href="classLIEF_1_1AbstractHash.html" target="_top" xlink:title="LIEF::AbstractHash">
<polygon fill="#ffffff" stroke="#000000" points="211,-266.5 211,-285.5 318,-285.5 318,-266.5 211,-266.5"/>
<text text-anchor="middle" x="264.5" y="-273.5" font-family="Helvetica,sans-Serif" font-size="10.00" fill="#000000">LIEF::AbstractHash</text>
</a>
</g>
</g>
<!-- Node0&#45;&gt;Node2 -->
<g id="edge2" class="edge">
<title>Node0&#45;&gt;Node2</title>
<path fill="none" stroke="#191970" d="M148.927,-162.334C158.8977,-187.541 179.6186,-231.421 211,-257 215.7368,-260.861 221.3173,-263.9663 227.0549,-266.4554"/>
<polygon fill="#191970" stroke="#191970" points="152.1251,-160.896 145.3122,-152.7821 145.5782,-163.3736 152.1251,-160.896"/>
</g>
<!-- Node3 -->
<g id="node4" class="node">
<title>Node3</title>
<g id="a_node4"><a xlink:href="classLIEF_1_1ART_1_1Hash.html" target="_top" xlink:title="LIEF::ART::Hash">
<polygon fill="#ffffff" stroke="#000000" points="219.5,-228.5 219.5,-247.5 309.5,-247.5 309.5,-228.5 219.5,-228.5"/>
<text text-anchor="middle" x="264.5" y="-235.5" font-family="Helvetica,sans-Serif" font-size="10.00" fill="#000000">LIEF::ART::Hash</text>
</a>
</g>
</g>
<!-- Node0&#45;&gt;Node3 -->
<g id="edge3" class="edge">
<title>Node0&#45;&gt;Node3</title>
<path fill="none" stroke="#191970" d="M154.3413,-161.0954C166.83,-178.1719 187.5953,-203.4158 211,-219 216.6609,-222.7693 223.1568,-225.8871 229.6264,-228.4306"/>
<polygon fill="#191970" stroke="#191970" points="156.9297,-158.6948 148.2904,-152.5619 151.2195,-162.7438 156.9297,-158.6948"/>
</g>
<!-- Node4 -->
<g id="node5" class="node">
<title>Node4</title>
<g id="a_node5"><a xlink:href="classLIEF_1_1DEX_1_1Hash.html" target="_top" xlink:title="LIEF::DEX::Hash">
<polygon fill="#ffffff" stroke="#000000" points="218.5,-190.5 218.5,-209.5 310.5,-209.5 310.5,-190.5 218.5,-190.5"/>
<text text-anchor="middle" x="264.5" y="-197.5" font-family="Helvetica,sans-Serif" font-size="10.00" fill="#000000">LIEF::DEX::Hash</text>
</a>
</g>
</g>
<!-- Node0&#45;&gt;Node4 -->
<g id="edge4" class="edge">
<title>Node0&#45;&gt;Node4</title>
<path fill="none" stroke="#191970" d="M166.3154,-157.6563C179.3136,-165.1648 195.7426,-174.1439 211,-181 218.642,-184.434 227.1073,-187.6823 235.0067,-190.4895"/>
<polygon fill="#191970" stroke="#191970" points="167.9196,-154.5397 157.5228,-152.5004 164.3786,-160.5781 167.9196,-154.5397"/>
</g>
<!-- Node5 -->
<g id="node6" class="node">
<title>Node5</title>
<g id="a_node6"><a xlink:href="classLIEF_1_1ELF_1_1Hash.html" target="_top" xlink:title="LIEF::ELF::Hash">
<polygon fill="#ffffff" stroke="#000000" points="220.5,-152.5 220.5,-171.5 308.5,-171.5 308.5,-152.5 220.5,-152.5"/>
<text text-anchor="middle" x="264.5" y="-159.5" font-family="Helvetica,sans-Serif" font-size="10.00" fill="#000000">LIEF::ELF::Hash</text>
</a>
</g>
</g>
<!-- Node0&#45;&gt;Node5 -->
<g id="edge5" class="edge">
<title>Node0&#45;&gt;Node5</title>
<path fill="none" stroke="#191970" d="M185.2703,-149.7113C196.6217,-151.4719 208.877,-153.3728 220.2774,-155.141"/>
<polygon fill="#191970" stroke="#191970" points="185.5686,-146.2158 175.1503,-148.1417 184.4956,-153.1331 185.5686,-146.2158"/>
</g>
<!-- Node6 -->
<g id="node7" class="node">
<title>Node6</title>
<g id="a_node7"><a xlink:href="classLIEF_1_1MachO_1_1Hash.html" target="_top" xlink:title="LIEF::MachO::Hash">
<polygon fill="#ffffff" stroke="#000000" points="212,-114.5 212,-133.5 317,-133.5 317,-114.5 212,-114.5"/>
<text text-anchor="middle" x="264.5" y="-121.5" font-family="Helvetica,sans-Serif" font-size="10.00" fill="#000000">LIEF::MachO::Hash</text>
</a>
</g>
</g>
<!-- Node0&#45;&gt;Node6 -->
<g id="edge6" class="edge">
<title>Node0&#45;&gt;Node6</title>
<path fill="none" stroke="#191970" d="M185.0577,-136.3217C193.748,-134.9738 202.9758,-133.5425 211.9492,-132.1507"/>
<polygon fill="#191970" stroke="#191970" points="184.4956,-132.8669 175.1503,-137.8583 185.5686,-139.7842 184.4956,-132.8669"/>
</g>
<!-- Node7 -->
<g id="node8" class="node">
<title>Node7</title>
<g id="a_node8"><a xlink:href="classLIEF_1_1OAT_1_1Hash.html" target="_top" xlink:title="LIEF::OAT::Hash">
<polygon fill="#ffffff" stroke="#000000" points="219,-76.5 219,-95.5 310,-95.5 310,-76.5 219,-76.5"/>
<text text-anchor="middle" x="264.5" y="-83.5" font-family="Helvetica,sans-Serif" font-size="10.00" fill="#000000">LIEF::OAT::Hash</text>
</a>
</g>
</g>
<!-- Node0&#45;&gt;Node7 -->
<g id="edge7" class="edge">
<title>Node0&#45;&gt;Node7</title>
<path fill="none" stroke="#191970" d="M166.3154,-128.3437C179.3136,-120.8352 195.7426,-111.8561 211,-105 218.642,-101.566 227.1073,-98.3177 235.0067,-95.5105"/>
<polygon fill="#191970" stroke="#191970" points="164.3786,-125.4219 157.5228,-133.4996 167.9196,-131.4603 164.3786,-125.4219"/>
</g>
<!-- Node8 -->
<g id="node9" class="node">
<title>Node8</title>
<g id="a_node9"><a xlink:href="classLIEF_1_1PE_1_1Hash.html" target="_top" xlink:title="LIEF::PE::Hash">
<polygon fill="#ffffff" stroke="#000000" points="222.5,-38.5 222.5,-57.5 306.5,-57.5 306.5,-38.5 222.5,-38.5"/>
<text text-anchor="middle" x="264.5" y="-45.5" font-family="Helvetica,sans-Serif" font-size="10.00" fill="#000000">LIEF::PE::Hash</text>
</a>
</g>
</g>
<!-- Node0&#45;&gt;Node8 -->
<g id="edge8" class="edge">
<title>Node0&#45;&gt;Node8</title>
<path fill="none" stroke="#191970" d="M154.3413,-124.9046C166.83,-107.8281 187.5953,-82.5842 211,-67 216.6609,-63.2307 223.1568,-60.1129 229.6264,-57.5694"/>
<polygon fill="#191970" stroke="#191970" points="151.2195,-123.2562 148.2904,-133.4381 156.9297,-127.3052 151.2195,-123.2562"/>
</g>
<!-- Node9 -->
<g id="node10" class="node">
<title>Node9</title>
<g id="a_node10"><a xlink:href="classLIEF_1_1VDEX_1_1Hash.html" target="_top" xlink:title="LIEF::VDEX::Hash">
<polygon fill="#ffffff" stroke="#000000" points="215,-.5 215,-19.5 314,-19.5 314,-.5 215,-.5"/>
<text text-anchor="middle" x="264.5" y="-7.5" font-family="Helvetica,sans-Serif" font-size="10.00" fill="#000000">LIEF::VDEX::Hash</text>
</a>
</g>
</g>
<!-- Node0&#45;&gt;Node9 -->
<g id="edge9" class="edge">
<title>Node0&#45;&gt;Node9</title>
<path fill="none" stroke="#191970" d="M148.927,-123.666C158.8977,-98.459 179.6186,-54.579 211,-29 215.7368,-25.139 221.3173,-22.0337 227.0549,-19.5446"/>
<polygon fill="#191970" stroke="#191970" points="145.5782,-122.6264 145.3122,-133.2179 152.1251,-125.104 145.5782,-122.6264"/>
</g>
<!-- Node1 -->
<g id="node2" class="node">
<title>Node1</title>
<g id="a_node2"><a xlink:href="classLIEF_1_1Visitor.html" target="_top" xlink:title="LIEF::Visitor">
<polygon fill="#ffffff" stroke="#000000" points="0,-133.5 0,-152.5 73,-152.5 73,-133.5 0,-133.5"/>
<text text-anchor="middle" x="36.5" y="-140.5" font-family="Helvetica,sans-Serif" font-size="10.00" fill="#000000">LIEF::Visitor</text>
</a>
</g>
</g>
<!-- Node1&#45;&gt;Node0 -->
<g id="edge1" class="edge">
<title>Node1&#45;&gt;Node0</title>
<path fill="none" stroke="#191970" d="M83.1635,-143C91.8709,-143 100.8025,-143 108.9922,-143"/>
<polygon fill="#191970" stroke="#191970" points="83.1027,-139.5001 73.1027,-143 83.1027,-146.5001 83.1027,-139.5001"/>
</g>
</g>
</svg>
