<?xml version="1.0" encoding="UTF-8" standalone="no"?>
<!DOCTYPE svg PUBLIC "-//W3C//DTD SVG 1.1//EN"
 "http://www.w3.org/Graphics/SVG/1.1/DTD/svg11.dtd">
<!-- Generated by graphviz version 2.40.1 (20161225.0304)
 -->
<!-- Title: LIEF::ELF::DynamicEntry Pages: 1 -->
<svg width="456pt" height="230pt"
 viewBox="0.00 0.00 456.00 229.50" xmlns="http://www.w3.org/2000/svg" xmlns:xlink="http://www.w3.org/1999/xlink">
<g id="graph0" class="graph" transform="scale(1 1) rotate(0) translate(4 225.5)">
<title>LIEF::ELF::DynamicEntry</title>
<polygon fill="#ffffff" stroke="transparent" points="-4,4 -4,-225.5 452,-225.5 452,4 -4,4"/>
<!-- Node0 -->
<g id="node1" class="node">
<title>Node0</title>
<polygon fill="#bfbfbf" stroke="#000000" points="109,-107 109,-126 241,-126 241,-107 109,-107"/>
<text text-anchor="middle" x="175" y="-114" font-family="Helvetica,sans-Serif" font-size="10.00" fill="#000000">LIEF::ELF::DynamicEntry</text>
</g>
<!-- Node2 -->
<g id="node3" class="node">
<title>Node2</title>
<g id="a_node3"><a xlink:href="classLIEF_1_1ELF_1_1DynamicEntryArray.html" target="_top" xlink:title="LIEF::ELF::DynamicEntryArray">
<polygon fill="#ffffff" stroke="#000000" points="283.5,-202 283.5,-221 441.5,-221 441.5,-202 283.5,-202"/>
<text text-anchor="middle" x="362.5" y="-209" font-family="Helvetica,sans-Serif" font-size="10.00" fill="#000000">LIEF::ELF::DynamicEntryArray</text>
</a>
</g>
</g>
<!-- Node0&#45;&gt;Node2 -->
<g id="edge2" class="edge">
<title>Node0&#45;&gt;Node2</title>
<path fill="none" stroke="#191970" d="M192.1189,-132.8889C211.2739,-150.3052 243.9724,-177.3723 277,-192.5 285.4331,-196.3626 294.7017,-199.4632 303.929,-201.9457"/>
<polygon fill="#191970" stroke="#191970" points="194.4891,-130.3135 184.7774,-126.0787 189.7285,-135.4455 194.4891,-130.3135"/>
</g>
<!-- Node3 -->
<g id="node4" class="node">
<title>Node3</title>
<g id="a_node4"><a xlink:href="classLIEF_1_1ELF_1_1DynamicEntryFlags.html" target="_top" xlink:title="LIEF::ELF::DynamicEntryFlags">
<polygon fill="#ffffff" stroke="#000000" points="283.5,-164 283.5,-183 441.5,-183 441.5,-164 283.5,-164"/>
<text text-anchor="middle" x="362.5" y="-171" font-family="Helvetica,sans-Serif" font-size="10.00" fill="#000000">LIEF::ELF::DynamicEntryFlags</text>
</a>
</g>
</g>
<!-- Node0&#45;&gt;Node3 -->
<g id="edge3" class="edge">
<title>Node0&#45;&gt;Node3</title>
<path fill="none" stroke="#191970" d="M207.2799,-129.8294C227.1539,-137.708 253.2821,-147.4831 277,-154.5 288.8107,-157.9942 301.7071,-161.1794 313.8197,-163.9012"/>
<polygon fill="#191970" stroke="#191970" points="208.3684,-126.495 197.7842,-126.0209 205.7627,-132.9919 208.3684,-126.495"/>
</g>
<!-- Node4 -->
<g id="node5" class="node">
<title>Node4</title>
<g id="a_node5"><a xlink:href="classLIEF_1_1ELF_1_1DynamicEntryLibrary.html" target="_top" xlink:title="LIEF::ELF::DynamicEntryLibrary">
<polygon fill="#ffffff" stroke="#000000" points="279.5,-126 279.5,-145 445.5,-145 445.5,-126 279.5,-126"/>
<text text-anchor="middle" x="362.5" y="-133" font-family="Helvetica,sans-Serif" font-size="10.00" fill="#000000">LIEF::ELF::DynamicEntryLibrary</text>
</a>
</g>
</g>
<!-- Node0&#45;&gt;Node4 -->
<g id="edge4" class="edge">
<title>Node0&#45;&gt;Node4</title>
<path fill="none" stroke="#191970" d="M251.066,-124.208C260.3487,-125.1487 269.8714,-126.1136 279.2521,-127.0642"/>
<polygon fill="#191970" stroke="#191970" points="251.4074,-120.7248 241.1055,-123.1987 250.7016,-127.6891 251.4074,-120.7248"/>
</g>
<!-- Node5 -->
<g id="node6" class="node">
<title>Node5</title>
<g id="a_node6"><a xlink:href="classLIEF_1_1ELF_1_1DynamicEntryRpath.html" target="_top" xlink:title="LIEF::ELF::DynamicEntryRpath">
<polygon fill="#ffffff" stroke="#000000" points="282,-88 282,-107 443,-107 443,-88 282,-88"/>
<text text-anchor="middle" x="362.5" y="-95" font-family="Helvetica,sans-Serif" font-size="10.00" fill="#000000">LIEF::ELF::DynamicEntryRpath</text>
</a>
</g>
</g>
<!-- Node0&#45;&gt;Node5 -->
<g id="edge5" class="edge">
<title>Node0&#45;&gt;Node5</title>
<path fill="none" stroke="#191970" d="M251.1217,-108.7863C261.2512,-107.7599 271.6655,-106.7046 281.8684,-105.6707"/>
<polygon fill="#191970" stroke="#191970" points="250.7016,-105.3109 241.1055,-109.8013 251.4074,-112.2752 250.7016,-105.3109"/>
</g>
<!-- Node6 -->
<g id="node7" class="node">
<title>Node6</title>
<g id="a_node7"><a xlink:href="classLIEF_1_1ELF_1_1DynamicEntryRunPath.html" target="_top" xlink:title="LIEF::ELF::DynamicEntryRunPath">
<polygon fill="#ffffff" stroke="#000000" points="277,-50 277,-69 448,-69 448,-50 277,-50"/>
<text text-anchor="middle" x="362.5" y="-57" font-family="Helvetica,sans-Serif" font-size="10.00" fill="#000000">LIEF::ELF::DynamicEntryRunPath</text>
</a>
</g>
</g>
<!-- Node0&#45;&gt;Node6 -->
<g id="edge6" class="edge">
<title>Node0&#45;&gt;Node6</title>
<path fill="none" stroke="#191970" d="M207.2799,-103.1706C227.1539,-95.292 253.2821,-85.5169 277,-78.5 288.8107,-75.0058 301.7071,-71.8206 313.8197,-69.0988"/>
<polygon fill="#191970" stroke="#191970" points="205.7627,-100.0081 197.7842,-106.9791 208.3684,-106.505 205.7627,-100.0081"/>
</g>
<!-- Node7 -->
<g id="node8" class="node">
<title>Node7</title>
<g id="a_node8"><a xlink:href="classLIEF_1_1ELF_1_1DynamicSharedObject.html" target="_top" xlink:title="LIEF::ELF::DynamicShared\lObject">
<polygon fill="#ffffff" stroke="#000000" points="292.5,-.5 292.5,-30.5 432.5,-30.5 432.5,-.5 292.5,-.5"/>
<text text-anchor="start" x="300.5" y="-18.5" font-family="Helvetica,sans-Serif" font-size="10.00" fill="#000000">LIEF::ELF::DynamicShared</text>
<text text-anchor="middle" x="362.5" y="-7.5" font-family="Helvetica,sans-Serif" font-size="10.00" fill="#000000">Object</text>
</a>
</g>
</g>
<!-- Node0&#45;&gt;Node7 -->
<g id="edge7" class="edge">
<title>Node0&#45;&gt;Node7</title>
<path fill="none" stroke="#191970" d="M192.626,-100.2512C211.9918,-83.1812 244.6608,-56.6197 277,-40.5 284.6126,-36.7054 292.9007,-33.3874 301.2226,-30.5163"/>
<polygon fill="#191970" stroke="#191970" points="190.289,-97.6458 185.1806,-106.9277 194.9624,-102.8573 190.289,-97.6458"/>
</g>
<!-- Node1 -->
<g id="node2" class="node">
<title>Node1</title>
<g id="a_node2"><a xlink:href="classLIEF_1_1Object.html" target="_top" xlink:title="LIEF::Object">
<polygon fill="#ffffff" stroke="#000000" points="0,-107 0,-126 73,-126 73,-107 0,-107"/>
<text text-anchor="middle" x="36.5" y="-114" font-family="Helvetica,sans-Serif" font-size="10.00" fill="#000000">LIEF::Object</text>
</a>
</g>
</g>
<!-- Node1&#45;&gt;Node0 -->
<g id="edge1" class="edge">
<title>Node1&#45;&gt;Node0</title>
<path fill="none" stroke="#191970" d="M83.3624,-116.5C91.5751,-116.5 100.2584,-116.5 108.8771,-116.5"/>
<polygon fill="#191970" stroke="#191970" points="83.2519,-113.0001 73.2518,-116.5 83.2518,-120.0001 83.2519,-113.0001"/>
</g>
</g>
</svg>
