<?xml version="1.0" encoding="UTF-8" standalone="no"?>
<!DOCTYPE svg PUBLIC "-//W3C//DTD SVG 1.1//EN"
 "http://www.w3.org/Graphics/SVG/1.1/DTD/svg11.dtd">
<!-- Generated by graphviz version 2.40.1 (20161225.0304)
 -->
<!-- Title: LIEF::Binary Pages: 1 -->
<svg width="345pt" height="196pt"
 viewBox="0.00 0.00 344.50 196.00" xmlns="http://www.w3.org/2000/svg" xmlns:xlink="http://www.w3.org/1999/xlink">
<g id="graph0" class="graph" transform="scale(1 1) rotate(0) translate(4 192)">
<title>LIEF::Binary</title>
<polygon fill="#ffffff" stroke="transparent" points="-4,4 -4,-192 340.5,-192 340.5,4 -4,4"/>
<!-- Node0 -->
<g id="node1" class="node">
<title>Node0</title>
<polygon fill="#bfbfbf" stroke="#000000" points="134.5,-112.5 134.5,-131.5 207.5,-131.5 207.5,-112.5 134.5,-112.5"/>
<text text-anchor="middle" x="171" y="-119.5" font-family="Helvetica,sans-Serif" font-size="10.00" fill="#000000">LIEF::Binary</text>
</g>
<!-- Node2 -->
<g id="node3" class="node">
<title>Node2</title>
<g id="a_node3"><a xlink:href="classLIEF_1_1ELF_1_1Binary.html" target="_top" xlink:title="Class which represent an ELF binary. ">
<polygon fill="#ffffff" stroke="#000000" points="1.5,-56.5 1.5,-75.5 96.5,-75.5 96.5,-56.5 1.5,-56.5"/>
<text text-anchor="middle" x="49" y="-63.5" font-family="Helvetica,sans-Serif" font-size="10.00" fill="#000000">LIEF::ELF::Binary</text>
</a>
</g>
</g>
<!-- Node0&#45;&gt;Node2 -->
<g id="edge2" class="edge">
<title>Node0&#45;&gt;Node2</title>
<path fill="none" stroke="#191970" d="M140.7416,-108.1109C118.6181,-97.9559 89.1906,-84.4482 69.6989,-75.5011"/>
<polygon fill="#191970" stroke="#191970" points="139.479,-111.3824 150.0275,-112.3733 142.3993,-105.0206 139.479,-111.3824"/>
</g>
<!-- Node4 -->
<g id="node5" class="node">
<title>Node4</title>
<g id="a_node5"><a xlink:href="classLIEF_1_1MachO_1_1Binary.html" target="_top" xlink:title="Class which represent a MachO binary. ">
<polygon fill="#ffffff" stroke="#000000" points="115,-56.5 115,-75.5 227,-75.5 227,-56.5 115,-56.5"/>
<text text-anchor="middle" x="171" y="-63.5" font-family="Helvetica,sans-Serif" font-size="10.00" fill="#000000">LIEF::MachO::Binary</text>
</a>
</g>
</g>
<!-- Node0&#45;&gt;Node4 -->
<g id="edge4" class="edge">
<title>Node0&#45;&gt;Node4</title>
<path fill="none" stroke="#191970" d="M171,-102.1575C171,-93.155 171,-82.9199 171,-75.6427"/>
<polygon fill="#191970" stroke="#191970" points="167.5001,-102.2455 171,-112.2455 174.5001,-102.2456 167.5001,-102.2455"/>
</g>
<!-- Node5 -->
<g id="node6" class="node">
<title>Node5</title>
<g id="a_node6"><a xlink:href="classLIEF_1_1PE_1_1Binary.html" target="_top" xlink:title="Class which represent a PE binary object. ">
<polygon fill="#ffffff" stroke="#000000" points="245.5,-56.5 245.5,-75.5 336.5,-75.5 336.5,-56.5 245.5,-56.5"/>
<text text-anchor="middle" x="291" y="-63.5" font-family="Helvetica,sans-Serif" font-size="10.00" fill="#000000">LIEF::PE::Binary</text>
</a>
</g>
</g>
<!-- Node0&#45;&gt;Node5 -->
<g id="edge5" class="edge">
<title>Node0&#45;&gt;Node5</title>
<path fill="none" stroke="#191970" d="M200.7624,-108.1109C222.5232,-97.9559 251.4682,-84.4482 270.6405,-75.5011"/>
<polygon fill="#191970" stroke="#191970" points="199.2105,-104.9727 191.6287,-112.3733 202.1707,-111.316 199.2105,-104.9727"/>
</g>
<!-- Node1 -->
<g id="node2" class="node">
<title>Node1</title>
<g id="a_node2"><a xlink:href="classLIEF_1_1Object.html" target="_top" xlink:title="LIEF::Object">
<polygon fill="#ffffff" stroke="#000000" points="134.5,-168.5 134.5,-187.5 207.5,-187.5 207.5,-168.5 134.5,-168.5"/>
<text text-anchor="middle" x="171" y="-175.5" font-family="Helvetica,sans-Serif" font-size="10.00" fill="#000000">LIEF::Object</text>
</a>
</g>
</g>
<!-- Node1&#45;&gt;Node0 -->
<g id="edge1" class="edge">
<title>Node1&#45;&gt;Node0</title>
<path fill="none" stroke="#191970" d="M171,-158.1575C171,-149.155 171,-138.9199 171,-131.6427"/>
<polygon fill="#191970" stroke="#191970" points="167.5001,-158.2455 171,-168.2455 174.5001,-158.2456 167.5001,-158.2455"/>
</g>
<!-- Node3 -->
<g id="node4" class="node">
<title>Node3</title>
<g id="a_node4"><a xlink:href="classLIEF_1_1OAT_1_1Binary.html" target="_top" xlink:title="LIEF::OAT::Binary">
<polygon fill="#ffffff" stroke="#000000" points="0,-.5 0,-19.5 98,-19.5 98,-.5 0,-.5"/>
<text text-anchor="middle" x="49" y="-7.5" font-family="Helvetica,sans-Serif" font-size="10.00" fill="#000000">LIEF::OAT::Binary</text>
</a>
</g>
</g>
<!-- Node2&#45;&gt;Node3 -->
<g id="edge3" class="edge">
<title>Node2&#45;&gt;Node3</title>
<path fill="none" stroke="#191970" d="M49,-46.1575C49,-37.155 49,-26.9199 49,-19.6427"/>
<polygon fill="#191970" stroke="#191970" points="45.5001,-46.2455 49,-56.2455 52.5001,-46.2456 45.5001,-46.2455"/>
</g>
</g>
</svg>
