<?xml version="1.0" encoding="UTF-8" standalone="no"?>
<!DOCTYPE svg PUBLIC "-//W3C//DTD SVG 1.1//EN"
 "http://www.w3.org/Graphics/SVG/1.1/DTD/svg11.dtd">
<!-- Generated by graphviz version 2.40.1 (20161225.0304)
 -->
<!-- Title: LIEF::Section Pages: 1 -->
<svg width="355pt" height="140pt"
 viewBox="0.00 0.00 355.00 140.00" xmlns="http://www.w3.org/2000/svg" xmlns:xlink="http://www.w3.org/1999/xlink">
<g id="graph0" class="graph" transform="scale(1 1) rotate(0) translate(4 136)">
<title>LIEF::Section</title>
<polygon fill="#ffffff" stroke="transparent" points="-4,4 -4,-136 351,-136 351,4 -4,4"/>
<!-- Node0 -->
<g id="node1" class="node">
<title>Node0</title>
<polygon fill="#bfbfbf" stroke="#000000" points="137,-56.5 137,-75.5 214,-75.5 214,-56.5 137,-56.5"/>
<text text-anchor="middle" x="175.5" y="-63.5" font-family="Helvetica,sans-Serif" font-size="10.00" fill="#000000">LIEF::Section</text>
</g>
<!-- Node2 -->
<g id="node3" class="node">
<title>Node2</title>
<g id="a_node3"><a xlink:href="classLIEF_1_1ELF_1_1Section.html" target="_top" xlink:title="Class wich represent sections. ">
<polygon fill="#ffffff" stroke="#000000" points="0,-.5 0,-19.5 99,-19.5 99,-.5 0,-.5"/>
<text text-anchor="middle" x="49.5" y="-7.5" font-family="Helvetica,sans-Serif" font-size="10.00" fill="#000000">LIEF::ELF::Section</text>
</a>
</g>
</g>
<!-- Node0&#45;&gt;Node2 -->
<g id="edge2" class="edge">
<title>Node0&#45;&gt;Node2</title>
<path fill="none" stroke="#191970" d="M144.5564,-52.2473C121.6735,-42.0771 91.0986,-28.4883 70.8775,-19.5011"/>
<polygon fill="#191970" stroke="#191970" points="143.2802,-55.5102 153.8398,-56.3733 146.1232,-49.1135 143.2802,-55.5102"/>
</g>
<!-- Node3 -->
<g id="node4" class="node">
<title>Node3</title>
<g id="a_node4"><a xlink:href="classLIEF_1_1MachO_1_1Section.html" target="_top" xlink:title="LIEF::MachO::Section">
<polygon fill="#ffffff" stroke="#000000" points="117.5,-.5 117.5,-19.5 233.5,-19.5 233.5,-.5 117.5,-.5"/>
<text text-anchor="middle" x="175.5" y="-7.5" font-family="Helvetica,sans-Serif" font-size="10.00" fill="#000000">LIEF::MachO::Section</text>
</a>
</g>
</g>
<!-- Node0&#45;&gt;Node3 -->
<g id="edge3" class="edge">
<title>Node0&#45;&gt;Node3</title>
<path fill="none" stroke="#191970" d="M175.5,-46.1575C175.5,-37.155 175.5,-26.9199 175.5,-19.6427"/>
<polygon fill="#191970" stroke="#191970" points="172.0001,-46.2455 175.5,-56.2455 179.0001,-46.2456 172.0001,-46.2455"/>
</g>
<!-- Node4 -->
<g id="node5" class="node">
<title>Node4</title>
<g id="a_node5"><a xlink:href="classLIEF_1_1PE_1_1Section.html" target="_top" xlink:title="LIEF::PE::Section">
<polygon fill="#ffffff" stroke="#000000" points="252,-.5 252,-19.5 347,-19.5 347,-.5 252,-.5"/>
<text text-anchor="middle" x="299.5" y="-7.5" font-family="Helvetica,sans-Serif" font-size="10.00" fill="#000000">LIEF::PE::Section</text>
</a>
</g>
</g>
<!-- Node0&#45;&gt;Node4 -->
<g id="edge4" class="edge">
<title>Node0&#45;&gt;Node4</title>
<path fill="none" stroke="#191970" d="M205.9524,-52.2473C228.4722,-42.0771 258.5617,-28.4883 278.4618,-19.5011"/>
<polygon fill="#191970" stroke="#191970" points="204.4895,-49.0675 196.8164,-56.3733 207.3706,-55.4471 204.4895,-49.0675"/>
</g>
<!-- Node1 -->
<g id="node2" class="node">
<title>Node1</title>
<g id="a_node2"><a xlink:href="classLIEF_1_1Object.html" target="_top" xlink:title="LIEF::Object">
<polygon fill="#ffffff" stroke="#000000" points="139,-112.5 139,-131.5 212,-131.5 212,-112.5 139,-112.5"/>
<text text-anchor="middle" x="175.5" y="-119.5" font-family="Helvetica,sans-Serif" font-size="10.00" fill="#000000">LIEF::Object</text>
</a>
</g>
</g>
<!-- Node1&#45;&gt;Node0 -->
<g id="edge1" class="edge">
<title>Node1&#45;&gt;Node0</title>
<path fill="none" stroke="#191970" d="M175.5,-102.1575C175.5,-93.155 175.5,-82.9199 175.5,-75.6427"/>
<polygon fill="#191970" stroke="#191970" points="172.0001,-102.2455 175.5,-112.2455 179.0001,-102.2456 172.0001,-102.2455"/>
</g>
</g>
</svg>
