<?xml version="1.0" encoding="UTF-8" standalone="no"?>
<!DOCTYPE svg PUBLIC "-//W3C//DTD SVG 1.1//EN"
 "http://www.w3.org/Graphics/SVG/1.1/DTD/svg11.dtd">
<!-- Generated by graphviz version 2.40.1 (20161225.0304)
 -->
<!-- Title: LIEF::MachO::RelocationObject Pages: 1 -->
<svg width="171pt" height="196pt"
 viewBox="0.00 0.00 171.00 196.00" xmlns="http://www.w3.org/2000/svg" xmlns:xlink="http://www.w3.org/1999/xlink">
<g id="graph0" class="graph" transform="scale(1 1) rotate(0) translate(4 192)">
<title>LIEF::MachO::RelocationObject</title>
<polygon fill="#ffffff" stroke="transparent" points="-4,4 -4,-192 167,-192 167,4 -4,4"/>
<!-- Node0 -->
<g id="node1" class="node">
<title>Node0</title>
<polygon fill="#bfbfbf" stroke="#000000" points="0,-.5 0,-19.5 163,-19.5 163,-.5 0,-.5"/>
<text text-anchor="middle" x="81.5" y="-7.5" font-family="Helvetica,sans-Serif" font-size="10.00" fill="#000000">LIEF::MachO::RelocationObject</text>
</g>
<!-- Node1 -->
<g id="node2" class="node">
<title>Node1</title>
<g id="a_node2"><a xlink:href="classLIEF_1_1MachO_1_1Relocation.html" target="_top" xlink:title="Object modeling relocation. ">
<polygon fill="#ffffff" stroke="#000000" points="16,-56.5 16,-75.5 147,-75.5 147,-56.5 16,-56.5"/>
<text text-anchor="middle" x="81.5" y="-63.5" font-family="Helvetica,sans-Serif" font-size="10.00" fill="#000000">LIEF::MachO::Relocation</text>
</a>
</g>
</g>
<!-- Node1&#45;&gt;Node0 -->
<g id="edge1" class="edge">
<title>Node1&#45;&gt;Node0</title>
<path fill="none" stroke="#191970" d="M81.5,-46.1575C81.5,-37.155 81.5,-26.9199 81.5,-19.6427"/>
<polygon fill="#191970" stroke="#191970" points="78.0001,-46.2455 81.5,-56.2455 85.0001,-46.2456 78.0001,-46.2455"/>
</g>
<!-- Node2 -->
<g id="node3" class="node">
<title>Node2</title>
<g id="a_node3"><a xlink:href="classLIEF_1_1Relocation.html" target="_top" xlink:title="LIEF::Relocation">
<polygon fill="#ffffff" stroke="#000000" points="35.5,-112.5 35.5,-131.5 127.5,-131.5 127.5,-112.5 35.5,-112.5"/>
<text text-anchor="middle" x="81.5" y="-119.5" font-family="Helvetica,sans-Serif" font-size="10.00" fill="#000000">LIEF::Relocation</text>
</a>
</g>
</g>
<!-- Node2&#45;&gt;Node1 -->
<g id="edge2" class="edge">
<title>Node2&#45;&gt;Node1</title>
<path fill="none" stroke="#191970" d="M81.5,-102.1575C81.5,-93.155 81.5,-82.9199 81.5,-75.6427"/>
<polygon fill="#191970" stroke="#191970" points="78.0001,-102.2455 81.5,-112.2455 85.0001,-102.2456 78.0001,-102.2455"/>
</g>
<!-- Node3 -->
<g id="node4" class="node">
<title>Node3</title>
<g id="a_node4"><a xlink:href="classLIEF_1_1Object.html" target="_top" xlink:title="LIEF::Object">
<polygon fill="#ffffff" stroke="#000000" points="45,-168.5 45,-187.5 118,-187.5 118,-168.5 45,-168.5"/>
<text text-anchor="middle" x="81.5" y="-175.5" font-family="Helvetica,sans-Serif" font-size="10.00" fill="#000000">LIEF::Object</text>
</a>
</g>
</g>
<!-- Node3&#45;&gt;Node2 -->
<g id="edge3" class="edge">
<title>Node3&#45;&gt;Node2</title>
<path fill="none" stroke="#191970" d="M81.5,-158.1575C81.5,-149.155 81.5,-138.9199 81.5,-131.6427"/>
<polygon fill="#191970" stroke="#191970" points="78.0001,-158.2455 81.5,-168.2455 85.0001,-158.2456 78.0001,-158.2455"/>
</g>
</g>
</svg>
