<?xml version="1.0" encoding="UTF-8" standalone="no"?>
<!DOCTYPE svg PUBLIC "-//W3C//DTD SVG 1.1//EN"
 "http://www.w3.org/Graphics/SVG/1.1/DTD/svg11.dtd">
<!-- Generated by graphviz version 2.40.1 (20161225.0304)
 -->
<!-- Title: ELF C API Pages: 1 -->
<svg width="195pt" height="218pt"
 viewBox="0.00 0.00 195.00 218.00" xmlns="http://www.w3.org/2000/svg" xmlns:xlink="http://www.w3.org/1999/xlink">
<g id="graph0" class="graph" transform="scale(1 1) rotate(0) translate(4 214)">
<title>ELF C API</title>
<polygon fill="#ffffff" stroke="transparent" points="-4,4 -4,-214 191,-214 191,4 -4,4"/>
<!-- Node5 -->
<g id="node1" class="node">
<title>Node5</title>
<g id="a_node1"><a xlink:href="group__elf__segment__c__api.html" target="_top" xlink:title="Segment C API. ">
<polygon fill="#ffffff" stroke="#000000" points="112.5,-190.5 112.5,-209.5 172.5,-209.5 172.5,-190.5 112.5,-190.5"/>
<text text-anchor="middle" x="142.5" y="-197.5" font-family="Helvetica,sans-Serif" font-size="10.00" fill="#000000">Segment</text>
</a>
</g>
</g>
<!-- Node4 -->
<g id="node2" class="node">
<title>Node4</title>
<g id="a_node2"><a xlink:href="group__elf__section__c__api.html" target="_top" xlink:title="Section C API. ">
<polygon fill="#ffffff" stroke="#000000" points="116,-152.5 116,-171.5 169,-171.5 169,-152.5 116,-152.5"/>
<text text-anchor="middle" x="142.5" y="-159.5" font-family="Helvetica,sans-Serif" font-size="10.00" fill="#000000">Section</text>
</a>
</g>
</g>
<!-- Node2 -->
<g id="node3" class="node">
<title>Node2</title>
<g id="a_node3"><a xlink:href="group__elf__dynamic__entry__c__api.html" target="_top" xlink:title="Dynamic Entry C API. ">
<polygon fill="#ffffff" stroke="#000000" points="98,-114.5 98,-133.5 187,-133.5 187,-114.5 98,-114.5"/>
<text text-anchor="middle" x="142.5" y="-121.5" font-family="Helvetica,sans-Serif" font-size="10.00" fill="#000000">Dynamic Entry</text>
</a>
</g>
</g>
<!-- Node0 -->
<g id="node4" class="node">
<title>Node0</title>
<polygon fill="#bfbfbf" stroke="#000000" points="0,-95.5 0,-114.5 62,-114.5 62,-95.5 0,-95.5"/>
<text text-anchor="middle" x="31" y="-102.5" font-family="Helvetica,sans-Serif" font-size="10.00" fill="#000000">ELF C API</text>
</g>
<!-- Node0&#45;&gt;Node5 -->
<g id="edge5" class="edge">
<title>Node0&#45;&gt;Node5</title>
<path fill="none" stroke="#000000" d="M43.2833,-123.0687C55.5062,-139.9226 75.628,-164.8285 98,-181 103.038,-184.6417 108.8816,-187.7656 114.6443,-190.3668"/>
<polygon fill="#000000" stroke="#000000" points="45.9641,-120.7969 37.3414,-114.6405 40.2429,-124.8303 45.9641,-120.7969"/>
</g>
<!-- Node0&#45;&gt;Node4 -->
<g id="edge4" class="edge">
<title>Node0&#45;&gt;Node4</title>
<path fill="none" stroke="#000000" d="M55.6076,-119.8364C68.1206,-127.1539 83.6752,-135.9076 98,-143 104.6248,-146.28 111.9534,-149.5502 118.7191,-152.4296"/>
<polygon fill="#000000" stroke="#000000" points="57.0919,-116.6481 46.7024,-114.572 53.5296,-122.6739 57.0919,-116.6481"/>
</g>
<!-- Node0&#45;&gt;Node2 -->
<g id="edge2" class="edge">
<title>Node0&#45;&gt;Node2</title>
<path fill="none" stroke="#000000" d="M72.0225,-111.9904C80.4331,-113.4236 89.3255,-114.9389 97.8563,-116.3926"/>
<polygon fill="#000000" stroke="#000000" points="72.5048,-108.5222 62.059,-110.2926 71.3289,-115.4227 72.5048,-108.5222"/>
</g>
<!-- Node3 -->
<g id="node5" class="node">
<title>Node3</title>
<g id="a_node5"><a xlink:href="group__elf__header__c__api.html" target="_top" xlink:title="Header C API. ">
<polygon fill="#ffffff" stroke="#000000" points="116.5,-76.5 116.5,-95.5 168.5,-95.5 168.5,-76.5 116.5,-76.5"/>
<text text-anchor="middle" x="142.5" y="-83.5" font-family="Helvetica,sans-Serif" font-size="10.00" fill="#000000">Header</text>
</a>
</g>
</g>
<!-- Node0&#45;&gt;Node3 -->
<g id="edge3" class="edge">
<title>Node0&#45;&gt;Node3</title>
<path fill="none" stroke="#000000" d="M71.9774,-98.0173C86.7279,-95.5038 102.9654,-92.7368 116.1379,-90.4922"/>
<polygon fill="#000000" stroke="#000000" points="71.3289,-94.5773 62.059,-99.7074 72.5048,-101.4778 71.3289,-94.5773"/>
</g>
<!-- Node1 -->
<g id="node6" class="node">
<title>Node1</title>
<g id="a_node6"><a xlink:href="group__elf__binary__c__api.html" target="_top" xlink:title="Binary C API. ">
<polygon fill="#ffffff" stroke="#000000" points="118.5,-38.5 118.5,-57.5 166.5,-57.5 166.5,-38.5 118.5,-38.5"/>
<text text-anchor="middle" x="142.5" y="-45.5" font-family="Helvetica,sans-Serif" font-size="10.00" fill="#000000">Binary</text>
</a>
</g>
</g>
<!-- Node0&#45;&gt;Node1 -->
<g id="edge1" class="edge">
<title>Node0&#45;&gt;Node1</title>
<path fill="none" stroke="#000000" d="M55.6076,-90.1636C68.1206,-82.8461 83.6752,-74.0924 98,-67 104.6248,-63.72 111.9534,-60.4498 118.7191,-57.5704"/>
<polygon fill="#000000" stroke="#000000" points="53.5296,-87.3261 46.7024,-95.428 57.0919,-93.3519 53.5296,-87.3261"/>
</g>
<!-- Node6 -->
<g id="node7" class="node">
<title>Node6</title>
<g id="a_node7"><a xlink:href="group__elf__utils__c__api.html" target="_top" xlink:title="Utils C API. ">
<polygon fill="#ffffff" stroke="#000000" points="123,-.5 123,-19.5 162,-19.5 162,-.5 123,-.5"/>
<text text-anchor="middle" x="142.5" y="-7.5" font-family="Helvetica,sans-Serif" font-size="10.00" fill="#000000">Utils</text>
</a>
</g>
</g>
<!-- Node0&#45;&gt;Node6 -->
<g id="edge6" class="edge">
<title>Node0&#45;&gt;Node6</title>
<path fill="none" stroke="#000000" d="M43.2833,-86.9313C55.5062,-70.0774 75.628,-45.1715 98,-29 105.4888,-23.5867 114.7581,-19.3175 122.895,-16.2086"/>
<polygon fill="#000000" stroke="#000000" points="40.2429,-85.1697 37.3414,-95.3595 45.9641,-89.2031 40.2429,-85.1697"/>
</g>
</g>
</svg>
