<?xml version="1.0" encoding="UTF-8" standalone="no"?>
<!DOCTYPE svg PUBLIC "-//W3C//DTD SVG 1.1//EN"
 "http://www.w3.org/Graphics/SVG/1.1/DTD/svg11.dtd">
<!-- Generated by graphviz version 2.40.1 (20161225.0304)
 -->
<!-- Title: MachO C API Pages: 1 -->
<svg width="174pt" height="218pt"
 viewBox="0.00 0.00 174.00 218.00" xmlns="http://www.w3.org/2000/svg" xmlns:xlink="http://www.w3.org/1999/xlink">
<g id="graph0" class="graph" transform="scale(1 1) rotate(0) translate(4 214)">
<title>MachO C API</title>
<polygon fill="#ffffff" stroke="transparent" points="-4,4 -4,-214 170,-214 170,4 -4,4"/>
<!-- Node2 -->
<g id="node1" class="node">
<title>Node2</title>
<g id="a_node1"><a xlink:href="group__macho__header__c__api.html" target="_top" xlink:title="Header C API. ">
<polygon fill="#ffffff" stroke="#000000" points="114,-190.5 114,-209.5 166,-209.5 166,-190.5 114,-190.5"/>
<text text-anchor="middle" x="140" y="-197.5" font-family="Helvetica,sans-Serif" font-size="10.00" fill="#000000">Header</text>
</a>
</g>
</g>
<!-- Node6 -->
<g id="node2" class="node">
<title>Node6</title>
<g id="a_node2"><a xlink:href="group__macho__symbol__c__api.html" target="_top" xlink:title="Symbol C API. ">
<polygon fill="#ffffff" stroke="#000000" points="114,-152.5 114,-171.5 166,-171.5 166,-152.5 114,-152.5"/>
<text text-anchor="middle" x="140" y="-159.5" font-family="Helvetica,sans-Serif" font-size="10.00" fill="#000000">Header</text>
</a>
</g>
</g>
<!-- Node0 -->
<g id="node3" class="node">
<title>Node0</title>
<polygon fill="#bfbfbf" stroke="#000000" points="0,-95.5 0,-114.5 78,-114.5 78,-95.5 0,-95.5"/>
<text text-anchor="middle" x="39" y="-102.5" font-family="Helvetica,sans-Serif" font-size="10.00" fill="#000000">MachO C API</text>
</g>
<!-- Node0&#45;&gt;Node2 -->
<g id="edge2" class="edge">
<title>Node0&#45;&gt;Node2</title>
<path fill="none" stroke="#000000" d="M54.6536,-122.3981C69.3394,-138.3387 92.2413,-162.239 114,-181 117.726,-184.2127 121.9627,-187.4618 125.9186,-190.3426"/>
<polygon fill="#000000" stroke="#000000" points="57.0983,-119.8847 47.7723,-114.8571 51.9275,-124.6032 57.0983,-119.8847"/>
</g>
<!-- Node0&#45;&gt;Node6 -->
<g id="edge6" class="edge">
<title>Node0&#45;&gt;Node6</title>
<path fill="none" stroke="#000000" d="M64.8595,-119.5939C83.1758,-129.9309 107.221,-143.5009 123.1198,-152.4735"/>
<polygon fill="#000000" stroke="#000000" points="66.5624,-116.5361 56.1333,-114.6693 63.1219,-122.6323 66.5624,-116.5361"/>
</g>
<!-- Node1 -->
<g id="node4" class="node">
<title>Node1</title>
<g id="a_node4"><a xlink:href="group__macho__binary__c__api.html" target="_top" xlink:title="Binary C API. ">
<polygon fill="#ffffff" stroke="#000000" points="116,-114.5 116,-133.5 164,-133.5 164,-114.5 116,-114.5"/>
<text text-anchor="middle" x="140" y="-121.5" font-family="Helvetica,sans-Serif" font-size="10.00" fill="#000000">Binary</text>
</a>
</g>
</g>
<!-- Node0&#45;&gt;Node1 -->
<g id="edge1" class="edge">
<title>Node0&#45;&gt;Node1</title>
<path fill="none" stroke="#000000" d="M88.0696,-114.2309C97.7671,-116.0552 107.535,-117.8927 115.9413,-119.4741"/>
<polygon fill="#000000" stroke="#000000" points="88.524,-110.7551 78.0492,-112.3459 87.2298,-117.6344 88.524,-110.7551"/>
</g>
<!-- Node3 -->
<g id="node5" class="node">
<title>Node3</title>
<g id="a_node5"><a xlink:href="group__macho__load__command__c__api.html" target="_top" xlink:title="Load Command C API. ">
<polygon fill="#ffffff" stroke="#000000" points="114,-76.5 114,-95.5 166,-95.5 166,-76.5 114,-76.5"/>
<text text-anchor="middle" x="140" y="-83.5" font-family="Helvetica,sans-Serif" font-size="10.00" fill="#000000">Header</text>
</a>
</g>
</g>
<!-- Node0&#45;&gt;Node3 -->
<g id="edge3" class="edge">
<title>Node0&#45;&gt;Node3</title>
<path fill="none" stroke="#000000" d="M88.0296,-95.7766C96.9449,-94.0995 105.9214,-92.4108 113.8463,-90.92"/>
<polygon fill="#000000" stroke="#000000" points="87.2298,-92.3656 78.0492,-97.6541 88.524,-99.2449 87.2298,-92.3656"/>
</g>
<!-- Node4 -->
<g id="node6" class="node">
<title>Node4</title>
<g id="a_node6"><a xlink:href="group__macho__section__c__api.html" target="_top" xlink:title="Section C API. ">
<polygon fill="#ffffff" stroke="#000000" points="114,-38.5 114,-57.5 166,-57.5 166,-38.5 114,-38.5"/>
<text text-anchor="middle" x="140" y="-45.5" font-family="Helvetica,sans-Serif" font-size="10.00" fill="#000000">Header</text>
</a>
</g>
</g>
<!-- Node0&#45;&gt;Node4 -->
<g id="edge4" class="edge">
<title>Node0&#45;&gt;Node4</title>
<path fill="none" stroke="#000000" d="M64.8595,-90.4061C83.1758,-80.0691 107.221,-66.4991 123.1198,-57.5265"/>
<polygon fill="#000000" stroke="#000000" points="63.1219,-87.3677 56.1333,-95.3307 66.5624,-93.4639 63.1219,-87.3677"/>
</g>
<!-- Node5 -->
<g id="node7" class="node">
<title>Node5</title>
<g id="a_node7"><a xlink:href="group__macho__segment__c__api.html" target="_top" xlink:title="Segment C API. ">
<polygon fill="#ffffff" stroke="#000000" points="114,-.5 114,-19.5 166,-19.5 166,-.5 114,-.5"/>
<text text-anchor="middle" x="140" y="-7.5" font-family="Helvetica,sans-Serif" font-size="10.00" fill="#000000">Header</text>
</a>
</g>
</g>
<!-- Node0&#45;&gt;Node5 -->
<g id="edge5" class="edge">
<title>Node0&#45;&gt;Node5</title>
<path fill="none" stroke="#000000" d="M54.6536,-87.6019C69.3394,-71.6613 92.2413,-47.761 114,-29 117.726,-25.7873 121.9627,-22.5382 125.9186,-19.6574"/>
<polygon fill="#000000" stroke="#000000" points="51.9275,-85.3968 47.7723,-95.1429 57.0983,-90.1153 51.9275,-85.3968"/>
</g>
</g>
</svg>
