<?xml version="1.0" encoding="UTF-8" standalone="no"?>
<!DOCTYPE svg PUBLIC "-//W3C//DTD SVG 1.1//EN"
 "http://www.w3.org/Graphics/SVG/1.1/DTD/svg11.dtd">
<!-- Generated by graphviz version 2.40.1 (20161225.0304)
 -->
<!-- Title: PE C API Pages: 1 -->
<svg width="194pt" height="294pt"
 viewBox="0.00 0.00 194.00 294.00" xmlns="http://www.w3.org/2000/svg" xmlns:xlink="http://www.w3.org/1999/xlink">
<g id="graph0" class="graph" transform="scale(1 1) rotate(0) translate(4 290)">
<title>PE C API</title>
<polygon fill="#ffffff" stroke="transparent" points="-4,4 -4,-290 190,-290 190,4 -4,4"/>
<!-- Node1 -->
<g id="node1" class="node">
<title>Node1</title>
<g id="a_node1"><a xlink:href="group__pe__binary__c__api.html" target="_top" xlink:title="Binary C API. ">
<polygon fill="#ffffff" stroke="#000000" points="115.5,-266.5 115.5,-285.5 163.5,-285.5 163.5,-266.5 115.5,-266.5"/>
<text text-anchor="middle" x="139.5" y="-273.5" font-family="Helvetica,sans-Serif" font-size="10.00" fill="#000000">Binary</text>
</a>
</g>
</g>
<!-- Node5 -->
<g id="node2" class="node">
<title>Node5</title>
<g id="a_node2"><a xlink:href="group__pe__import__c__api.html" target="_top" xlink:title="Import C API. ">
<polygon fill="#ffffff" stroke="#000000" points="115,-228.5 115,-247.5 164,-247.5 164,-228.5 115,-228.5"/>
<text text-anchor="middle" x="139.5" y="-235.5" font-family="Helvetica,sans-Serif" font-size="10.00" fill="#000000">Import</text>
</a>
</g>
</g>
<!-- Node0 -->
<g id="node3" class="node">
<title>Node0</title>
<polygon fill="#bfbfbf" stroke="#000000" points="0,-133.5 0,-152.5 57,-152.5 57,-133.5 0,-133.5"/>
<text text-anchor="middle" x="28.5" y="-140.5" font-family="Helvetica,sans-Serif" font-size="10.00" fill="#000000">PE C API</text>
</g>
<!-- Node0&#45;&gt;Node1 -->
<g id="edge1" class="edge">
<title>Node0&#45;&gt;Node1</title>
<path fill="none" stroke="#000000" d="M34.8151,-162.1184C43.9583,-187.0866 63.1321,-230.7029 93,-257 99.2836,-262.5323 107.3935,-266.5873 115.0765,-269.4949"/>
<polygon fill="#000000" stroke="#000000" points="38.1138,-160.9482 31.5088,-152.6643 31.5062,-163.2591 38.1138,-160.9482"/>
</g>
<!-- Node0&#45;&gt;Node5 -->
<g id="edge5" class="edge">
<title>Node0&#45;&gt;Node5</title>
<path fill="none" stroke="#000000" d="M40.1236,-161.1703C51.7448,-178.0976 71.0145,-203.0546 93,-219 99.4948,-223.7105 107.327,-227.4892 114.6964,-230.3974"/>
<polygon fill="#000000" stroke="#000000" points="42.9404,-159.0855 34.4856,-152.7006 37.1134,-162.9644 42.9404,-159.0855"/>
</g>
<!-- Node4 -->
<g id="node4" class="node">
<title>Node4</title>
<g id="a_node4"><a xlink:href="group__pe__header__c__api.html" target="_top" xlink:title="Header C API. ">
<polygon fill="#ffffff" stroke="#000000" points="113.5,-190.5 113.5,-209.5 165.5,-209.5 165.5,-190.5 113.5,-190.5"/>
<text text-anchor="middle" x="139.5" y="-197.5" font-family="Helvetica,sans-Serif" font-size="10.00" fill="#000000">Header</text>
</a>
</g>
</g>
<!-- Node0&#45;&gt;Node4 -->
<g id="edge4" class="edge">
<title>Node0&#45;&gt;Node4</title>
<path fill="none" stroke="#000000" d="M51.8393,-157.8544C63.898,-165.2435 78.9879,-174.0551 93,-181 99.7198,-184.3306 107.1725,-187.5677 114.1072,-190.3982"/>
<polygon fill="#000000" stroke="#000000" points="53.6183,-154.8391 43.2769,-152.5356 49.9246,-160.7853 53.6183,-154.8391"/>
</g>
<!-- Node3 -->
<g id="node5" class="node">
<title>Node3</title>
<g id="a_node5"><a xlink:href="group__pe__dos__header__c__api.html" target="_top" xlink:title="Dos Header C API. ">
<polygon fill="#ffffff" stroke="#000000" points="104,-152.5 104,-171.5 175,-171.5 175,-152.5 104,-152.5"/>
<text text-anchor="middle" x="139.5" y="-159.5" font-family="Helvetica,sans-Serif" font-size="10.00" fill="#000000">DosHeader</text>
</a>
</g>
</g>
<!-- Node0&#45;&gt;Node3 -->
<g id="edge3" class="edge">
<title>Node0&#45;&gt;Node3</title>
<path fill="none" stroke="#000000" d="M67.1967,-149.6238C79.1082,-151.6627 92.1599,-153.8967 103.8564,-155.8988"/>
<polygon fill="#000000" stroke="#000000" points="67.5324,-146.1304 57.0853,-147.893 66.3514,-153.0301 67.5324,-146.1304"/>
</g>
<!-- Node7 -->
<g id="node6" class="node">
<title>Node7</title>
<g id="a_node6"><a xlink:href="group__pe__optional__header__c__api.html" target="_top" xlink:title="OptionalHeader C API. ">
<polygon fill="#ffffff" stroke="#000000" points="93,-114.5 93,-133.5 186,-133.5 186,-114.5 93,-114.5"/>
<text text-anchor="middle" x="139.5" y="-121.5" font-family="Helvetica,sans-Serif" font-size="10.00" fill="#000000">OptionalHeader</text>
</a>
</g>
</g>
<!-- Node0&#45;&gt;Node7 -->
<g id="edge7" class="edge">
<title>Node0&#45;&gt;Node7</title>
<path fill="none" stroke="#000000" d="M66.9562,-136.4174C75.3297,-134.9841 84.2764,-133.4527 92.9261,-131.9721"/>
<polygon fill="#000000" stroke="#000000" points="66.3514,-132.9699 57.0853,-138.107 67.5324,-139.8696 66.3514,-132.9699"/>
</g>
<!-- Node2 -->
<g id="node7" class="node">
<title>Node2</title>
<g id="a_node7"><a xlink:href="group__pe__data__directory__c__api.html" target="_top" xlink:title="Data directory C API. ">
<polygon fill="#ffffff" stroke="#000000" points="113,-76.5 113,-95.5 166,-95.5 166,-76.5 113,-76.5"/>
<text text-anchor="middle" x="139.5" y="-83.5" font-family="Helvetica,sans-Serif" font-size="10.00" fill="#000000">Section</text>
</a>
</g>
</g>
<!-- Node0&#45;&gt;Node2 -->
<g id="edge2" class="edge">
<title>Node0&#45;&gt;Node2</title>
<path fill="none" stroke="#000000" d="M51.8393,-128.1456C63.898,-120.7565 78.9879,-111.9449 93,-105 99.7198,-101.6694 107.1725,-98.4323 114.1072,-95.6018"/>
<polygon fill="#000000" stroke="#000000" points="49.9246,-125.2147 43.2769,-133.4644 53.6183,-131.1609 49.9246,-125.2147"/>
</g>
<!-- Node6 -->
<g id="node8" class="node">
<title>Node6</title>
<g id="a_node8"><a xlink:href="group__pe__import__entry__c__api.html" target="_top" xlink:title="Import Entry C API. ">
<polygon fill="#ffffff" stroke="#000000" points="101,-38.5 101,-57.5 178,-57.5 178,-38.5 101,-38.5"/>
<text text-anchor="middle" x="139.5" y="-45.5" font-family="Helvetica,sans-Serif" font-size="10.00" fill="#000000">Import Entry</text>
</a>
</g>
</g>
<!-- Node0&#45;&gt;Node6 -->
<g id="edge6" class="edge">
<title>Node0&#45;&gt;Node6</title>
<path fill="none" stroke="#000000" d="M40.1236,-124.8297C51.7448,-107.9024 71.0145,-82.9454 93,-67 98.0829,-63.3135 103.9849,-60.1978 109.8432,-57.6233"/>
<polygon fill="#000000" stroke="#000000" points="37.1134,-123.0356 34.4856,-133.2994 42.9404,-126.9145 37.1134,-123.0356"/>
</g>
<!-- Node8 -->
<g id="node9" class="node">
<title>Node8</title>
<g id="a_node9"><a xlink:href="group__pe__section__c__api.html" target="_top" xlink:title="Section C API. ">
<polygon fill="#ffffff" stroke="#000000" points="113,-.5 113,-19.5 166,-19.5 166,-.5 113,-.5"/>
<text text-anchor="middle" x="139.5" y="-7.5" font-family="Helvetica,sans-Serif" font-size="10.00" fill="#000000">Section</text>
</a>
</g>
</g>
<!-- Node0&#45;&gt;Node8 -->
<g id="edge8" class="edge">
<title>Node0&#45;&gt;Node8</title>
<path fill="none" stroke="#000000" d="M34.8151,-123.8816C43.9583,-98.9134 63.1321,-55.2971 93,-29 98.629,-24.0439 105.7238,-20.2735 112.6642,-17.4514"/>
<polygon fill="#000000" stroke="#000000" points="31.5062,-122.7409 31.5088,-133.3357 38.1138,-125.0518 31.5062,-122.7409"/>
</g>
</g>
</svg>
