<?xml version="1.0" encoding="UTF-8" standalone="no"?>
<!DOCTYPE svg PUBLIC "-//W3C//DTD SVG 1.1//EN"
 "http://www.w3.org/Graphics/SVG/1.1/DTD/svg11.dtd">
<!-- Generated by graphviz version 2.40.1 (20161225.0304)
 -->
<!-- Title: Graphical Class Hierarchy Pages: 1 -->
<svg width="1666pt" height="39pt"
 viewBox="0.00 0.00 1666.00 39.00" xmlns="http://www.w3.org/2000/svg" xmlns:xlink="http://www.w3.org/1999/xlink">
<g id="graph0" class="graph" transform="scale(1 1) rotate(0) translate(4 35)">
<title>Graphical Class Hierarchy</title>
<polygon fill="#ffffff" stroke="transparent" points="-4,4 -4,-35 1662,-35 1662,4 -4,4"/>
<!-- Node0 -->
<g id="node1" class="node">
<title>Node0</title>
<g id="a_node1"><a xlink:href="structLIEF_1_1PE_1_1load__configuration.html" target="_top" xlink:title="LIEF::PE::load_configuration\&lt; T \&gt;">
<polygon fill="#ffffff" stroke="#000000" points="0,-6 0,-25 178,-25 178,-6 0,-6"/>
<text text-anchor="middle" x="89" y="-13" font-family="Helvetica,sans-Serif" font-size="10.00" fill="#000000">LIEF::PE::load_configuration&lt; T &gt;</text>
</a>
</g>
</g>
<!-- Node1 -->
<g id="node2" class="node">
<title>Node1</title>
<g id="a_node2"><a xlink:href="structLIEF_1_1PE_1_1load__configuration__v0.html" target="_top" xlink:title="LIEF::PE::load_configuration\l_v0\&lt; T \&gt;">
<polygon fill="#ffffff" stroke="#000000" points="214,-.5 214,-30.5 363,-30.5 363,-.5 214,-.5"/>
<text text-anchor="start" x="222" y="-18.5" font-family="Helvetica,sans-Serif" font-size="10.00" fill="#000000">LIEF::PE::load_configuration</text>
<text text-anchor="middle" x="288.5" y="-7.5" font-family="Helvetica,sans-Serif" font-size="10.00" fill="#000000">_v0&lt; T &gt;</text>
</a>
</g>
</g>
<!-- Node0&#45;&gt;Node1 -->
<g id="edge1" class="edge">
<title>Node0&#45;&gt;Node1</title>
<path fill="none" stroke="#191970" d="M188.3461,-15.5C196.9639,-15.5 205.5857,-15.5 213.9543,-15.5"/>
<polygon fill="#191970" stroke="#191970" points="188.2469,-12.0001 178.2468,-15.5 188.2468,-19.0001 188.2469,-12.0001"/>
</g>
<!-- Node2 -->
<g id="node3" class="node">
<title>Node2</title>
<g id="a_node3"><a xlink:href="structLIEF_1_1PE_1_1load__configuration__v1.html" target="_top" xlink:title="LIEF::PE::load_configuration\l_v1\&lt; T \&gt;">
<polygon fill="#ffffff" stroke="#000000" points="399,-.5 399,-30.5 548,-30.5 548,-.5 399,-.5"/>
<text text-anchor="start" x="407" y="-18.5" font-family="Helvetica,sans-Serif" font-size="10.00" fill="#000000">LIEF::PE::load_configuration</text>
<text text-anchor="middle" x="473.5" y="-7.5" font-family="Helvetica,sans-Serif" font-size="10.00" fill="#000000">_v1&lt; T &gt;</text>
</a>
</g>
</g>
<!-- Node1&#45;&gt;Node2 -->
<g id="edge2" class="edge">
<title>Node1&#45;&gt;Node2</title>
<path fill="none" stroke="#191970" d="M373.4683,-15.5C381.9256,-15.5 390.4675,-15.5 398.8085,-15.5"/>
<polygon fill="#191970" stroke="#191970" points="373.2134,-12.0001 363.2133,-15.5 373.2133,-19.0001 373.2134,-12.0001"/>
</g>
<!-- Node3 -->
<g id="node4" class="node">
<title>Node3</title>
<g id="a_node4"><a xlink:href="structLIEF_1_1PE_1_1load__configuration__v2.html" target="_top" xlink:title="LIEF::PE::load_configuration\l_v2\&lt; T \&gt;">
<polygon fill="#ffffff" stroke="#000000" points="584,-.5 584,-30.5 733,-30.5 733,-.5 584,-.5"/>
<text text-anchor="start" x="592" y="-18.5" font-family="Helvetica,sans-Serif" font-size="10.00" fill="#000000">LIEF::PE::load_configuration</text>
<text text-anchor="middle" x="658.5" y="-7.5" font-family="Helvetica,sans-Serif" font-size="10.00" fill="#000000">_v2&lt; T &gt;</text>
</a>
</g>
</g>
<!-- Node2&#45;&gt;Node3 -->
<g id="edge3" class="edge">
<title>Node2&#45;&gt;Node3</title>
<path fill="none" stroke="#191970" d="M558.4683,-15.5C566.9256,-15.5 575.4675,-15.5 583.8085,-15.5"/>
<polygon fill="#191970" stroke="#191970" points="558.2134,-12.0001 548.2133,-15.5 558.2133,-19.0001 558.2134,-12.0001"/>
</g>
<!-- Node4 -->
<g id="node5" class="node">
<title>Node4</title>
<g id="a_node5"><a xlink:href="structLIEF_1_1PE_1_1load__configuration__v3.html" target="_top" xlink:title="LIEF::PE::load_configuration\l_v3\&lt; T \&gt;">
<polygon fill="#ffffff" stroke="#000000" points="769,-.5 769,-30.5 918,-30.5 918,-.5 769,-.5"/>
<text text-anchor="start" x="777" y="-18.5" font-family="Helvetica,sans-Serif" font-size="10.00" fill="#000000">LIEF::PE::load_configuration</text>
<text text-anchor="middle" x="843.5" y="-7.5" font-family="Helvetica,sans-Serif" font-size="10.00" fill="#000000">_v3&lt; T &gt;</text>
</a>
</g>
</g>
<!-- Node3&#45;&gt;Node4 -->
<g id="edge4" class="edge">
<title>Node3&#45;&gt;Node4</title>
<path fill="none" stroke="#191970" d="M743.4683,-15.5C751.9256,-15.5 760.4675,-15.5 768.8085,-15.5"/>
<polygon fill="#191970" stroke="#191970" points="743.2134,-12.0001 733.2133,-15.5 743.2133,-19.0001 743.2134,-12.0001"/>
</g>
<!-- Node5 -->
<g id="node6" class="node">
<title>Node5</title>
<g id="a_node6"><a xlink:href="structLIEF_1_1PE_1_1load__configuration__v4.html" target="_top" xlink:title="LIEF::PE::load_configuration\l_v4\&lt; T \&gt;">
<polygon fill="#ffffff" stroke="#000000" points="954,-.5 954,-30.5 1103,-30.5 1103,-.5 954,-.5"/>
<text text-anchor="start" x="962" y="-18.5" font-family="Helvetica,sans-Serif" font-size="10.00" fill="#000000">LIEF::PE::load_configuration</text>
<text text-anchor="middle" x="1028.5" y="-7.5" font-family="Helvetica,sans-Serif" font-size="10.00" fill="#000000">_v4&lt; T &gt;</text>
</a>
</g>
</g>
<!-- Node4&#45;&gt;Node5 -->
<g id="edge5" class="edge">
<title>Node4&#45;&gt;Node5</title>
<path fill="none" stroke="#191970" d="M928.4683,-15.5C936.9256,-15.5 945.4675,-15.5 953.8085,-15.5"/>
<polygon fill="#191970" stroke="#191970" points="928.2134,-12.0001 918.2133,-15.5 928.2133,-19.0001 928.2134,-12.0001"/>
</g>
<!-- Node6 -->
<g id="node7" class="node">
<title>Node6</title>
<g id="a_node7"><a xlink:href="structLIEF_1_1PE_1_1load__configuration__v5.html" target="_top" xlink:title="LIEF::PE::load_configuration\l_v5\&lt; T \&gt;">
<polygon fill="#ffffff" stroke="#000000" points="1139,-.5 1139,-30.5 1288,-30.5 1288,-.5 1139,-.5"/>
<text text-anchor="start" x="1147" y="-18.5" font-family="Helvetica,sans-Serif" font-size="10.00" fill="#000000">LIEF::PE::load_configuration</text>
<text text-anchor="middle" x="1213.5" y="-7.5" font-family="Helvetica,sans-Serif" font-size="10.00" fill="#000000">_v5&lt; T &gt;</text>
</a>
</g>
</g>
<!-- Node5&#45;&gt;Node6 -->
<g id="edge6" class="edge">
<title>Node5&#45;&gt;Node6</title>
<path fill="none" stroke="#191970" d="M1113.4683,-15.5C1121.9256,-15.5 1130.4675,-15.5 1138.8085,-15.5"/>
<polygon fill="#191970" stroke="#191970" points="1113.2134,-12.0001 1103.2133,-15.5 1113.2133,-19.0001 1113.2134,-12.0001"/>
</g>
<!-- Node7 -->
<g id="node8" class="node">
<title>Node7</title>
<g id="a_node8"><a xlink:href="structLIEF_1_1PE_1_1load__configuration__v6.html" target="_top" xlink:title="LIEF::PE::load_configuration\l_v6\&lt; T \&gt;">
<polygon fill="#ffffff" stroke="#000000" points="1324,-.5 1324,-30.5 1473,-30.5 1473,-.5 1324,-.5"/>
<text text-anchor="start" x="1332" y="-18.5" font-family="Helvetica,sans-Serif" font-size="10.00" fill="#000000">LIEF::PE::load_configuration</text>
<text text-anchor="middle" x="1398.5" y="-7.5" font-family="Helvetica,sans-Serif" font-size="10.00" fill="#000000">_v6&lt; T &gt;</text>
</a>
</g>
</g>
<!-- Node6&#45;&gt;Node7 -->
<g id="edge7" class="edge">
<title>Node6&#45;&gt;Node7</title>
<path fill="none" stroke="#191970" d="M1298.4683,-15.5C1306.9256,-15.5 1315.4675,-15.5 1323.8085,-15.5"/>
<polygon fill="#191970" stroke="#191970" points="1298.2134,-12.0001 1288.2133,-15.5 1298.2133,-19.0001 1298.2134,-12.0001"/>
</g>
<!-- Node8 -->
<g id="node9" class="node">
<title>Node8</title>
<g id="a_node9"><a xlink:href="structLIEF_1_1PE_1_1load__configuration__v7.html" target="_top" xlink:title="LIEF::PE::load_configuration\l_v7\&lt; T \&gt;">
<polygon fill="#ffffff" stroke="#000000" points="1509,-.5 1509,-30.5 1658,-30.5 1658,-.5 1509,-.5"/>
<text text-anchor="start" x="1517" y="-18.5" font-family="Helvetica,sans-Serif" font-size="10.00" fill="#000000">LIEF::PE::load_configuration</text>
<text text-anchor="middle" x="1583.5" y="-7.5" font-family="Helvetica,sans-Serif" font-size="10.00" fill="#000000">_v7&lt; T &gt;</text>
</a>
</g>
</g>
<!-- Node7&#45;&gt;Node8 -->
<g id="edge8" class="edge">
<title>Node7&#45;&gt;Node8</title>
<path fill="none" stroke="#191970" d="M1483.4683,-15.5C1491.9256,-15.5 1500.4675,-15.5 1508.8085,-15.5"/>
<polygon fill="#191970" stroke="#191970" points="1483.2134,-12.0001 1473.2133,-15.5 1483.2133,-19.0001 1483.2134,-12.0001"/>
</g>
</g>
</svg>
