<?xml version="1.0" encoding="UTF-8" standalone="no"?>
<!DOCTYPE svg PUBLIC "-//W3C//DTD SVG 1.1//EN"
 "http://www.w3.org/Graphics/SVG/1.1/DTD/svg11.dtd">
<!-- Generated by graphviz version 2.40.1 (20161225.0304)
 -->
<!-- Title: Graphical Class Hierarchy Pages: 1 -->
<svg width="380pt" height="598pt"
 viewBox="0.00 0.00 380.00 598.00" xmlns="http://www.w3.org/2000/svg" xmlns:xlink="http://www.w3.org/1999/xlink">
<g id="graph0" class="graph" transform="scale(1 1) rotate(0) translate(4 594)">
<title>Graphical Class Hierarchy</title>
<polygon fill="#ffffff" stroke="transparent" points="-4,4 -4,-594 376,-594 376,4 -4,4"/>
<!-- Node0 -->
<g id="node1" class="node">
<title>Node0</title>
<g id="a_node1"><a xlink:href="classLIEF_1_1Visitor.html" target="_top" xlink:title="LIEF::Visitor">
<polygon fill="#ffffff" stroke="#000000" points="0,-285.5 0,-304.5 73,-304.5 73,-285.5 0,-285.5"/>
<text text-anchor="middle" x="36.5" y="-292.5" font-family="Helvetica,sans-Serif" font-size="10.00" fill="#000000">LIEF::Visitor</text>
</a>
</g>
</g>
<!-- Node1 -->
<g id="node2" class="node">
<title>Node1</title>
<g id="a_node2"><a xlink:href="classLIEF_1_1Hash.html" target="_top" xlink:title="LIEF::Hash">
<polygon fill="#ffffff" stroke="#000000" points="122.5,-418.5 122.5,-437.5 188.5,-437.5 188.5,-418.5 122.5,-418.5"/>
<text text-anchor="middle" x="155.5" y="-425.5" font-family="Helvetica,sans-Serif" font-size="10.00" fill="#000000">LIEF::Hash</text>
</a>
</g>
</g>
<!-- Node0&#45;&gt;Node1 -->
<g id="edge1" class="edge">
<title>Node0&#45;&gt;Node1</title>
<path fill="none" stroke="#191970" d="M51.7632,-312.0589C76.9847,-340.2477 126.5716,-395.6683 146.6983,-418.1628"/>
<polygon fill="#191970" stroke="#191970" points="54.3345,-309.6837 45.0582,-304.565 49.1178,-314.3513 54.3345,-309.6837"/>
</g>
<!-- Node10 -->
<g id="node11" class="node">
<title>Node10</title>
<g id="a_node11"><a xlink:href="classLIEF_1_1JsonVisitor.html" target="_top" xlink:title="LIEF::JsonVisitor">
<polygon fill="#ffffff" stroke="#000000" points="109,-152.5 109,-171.5 202,-171.5 202,-152.5 109,-152.5"/>
<text text-anchor="middle" x="155.5" y="-159.5" font-family="Helvetica,sans-Serif" font-size="10.00" fill="#000000">LIEF::JsonVisitor</text>
</a>
</g>
</g>
<!-- Node0&#45;&gt;Node10 -->
<g id="edge10" class="edge">
<title>Node0&#45;&gt;Node10</title>
<path fill="none" stroke="#191970" d="M51.7632,-277.9411C76.9847,-249.7523 126.5716,-194.3317 146.6983,-171.8372"/>
<polygon fill="#191970" stroke="#191970" points="49.1178,-275.6487 45.0582,-285.435 54.3345,-280.3163 49.1178,-275.6487"/>
</g>
<!-- Node2 -->
<g id="node3" class="node">
<title>Node2</title>
<g id="a_node3"><a xlink:href="classLIEF_1_1AbstractHash.html" target="_top" xlink:title="LIEF::AbstractHash">
<polygon fill="#ffffff" stroke="#000000" points="251.5,-570.5 251.5,-589.5 358.5,-589.5 358.5,-570.5 251.5,-570.5"/>
<text text-anchor="middle" x="305" y="-577.5" font-family="Helvetica,sans-Serif" font-size="10.00" fill="#000000">LIEF::AbstractHash</text>
</a>
</g>
</g>
<!-- Node1&#45;&gt;Node2 -->
<g id="edge2" class="edge">
<title>Node1&#45;&gt;Node2</title>
<path fill="none" stroke="#191970" d="M162.1902,-447.1757C173.3132,-476.22 198.3854,-531.1368 238,-561 243.117,-564.8574 248.9869,-567.9319 255.0788,-570.3825"/>
<polygon fill="#191970" stroke="#191970" points="165.4572,-445.9188 158.7223,-437.7401 158.8869,-448.3337 165.4572,-445.9188"/>
</g>
<!-- Node3 -->
<g id="node4" class="node">
<title>Node3</title>
<g id="a_node4"><a xlink:href="classLIEF_1_1ART_1_1Hash.html" target="_top" xlink:title="LIEF::ART::Hash">
<polygon fill="#ffffff" stroke="#000000" points="260,-532.5 260,-551.5 350,-551.5 350,-532.5 260,-532.5"/>
<text text-anchor="middle" x="305" y="-539.5" font-family="Helvetica,sans-Serif" font-size="10.00" fill="#000000">LIEF::ART::Hash</text>
</a>
</g>
</g>
<!-- Node1&#45;&gt;Node3 -->
<g id="edge3" class="edge">
<title>Node1&#45;&gt;Node3</title>
<path fill="none" stroke="#191970" d="M166.5979,-446.2697C180.6022,-467.7838 206.6816,-503.1015 238,-523 244.6333,-527.2145 252.2174,-530.5138 259.842,-533.0908"/>
<polygon fill="#191970" stroke="#191970" points="169.4965,-444.3047 161.1962,-437.7202 163.5787,-448.0437 169.4965,-444.3047"/>
</g>
<!-- Node4 -->
<g id="node5" class="node">
<title>Node4</title>
<g id="a_node5"><a xlink:href="classLIEF_1_1DEX_1_1Hash.html" target="_top" xlink:title="LIEF::DEX::Hash">
<polygon fill="#ffffff" stroke="#000000" points="259,-494.5 259,-513.5 351,-513.5 351,-494.5 259,-494.5"/>
<text text-anchor="middle" x="305" y="-501.5" font-family="Helvetica,sans-Serif" font-size="10.00" fill="#000000">LIEF::DEX::Hash</text>
</a>
</g>
</g>
<!-- Node1&#45;&gt;Node4 -->
<g id="edge4" class="edge">
<title>Node1&#45;&gt;Node4</title>
<path fill="none" stroke="#191970" d="M174.8287,-444.0976C190.8728,-456.7607 214.748,-474.0403 238,-485 245.8744,-488.7116 254.6192,-491.8383 263.122,-494.4156"/>
<polygon fill="#191970" stroke="#191970" points="176.7572,-441.1567 166.7746,-437.607 172.3647,-446.6071 176.7572,-441.1567"/>
</g>
<!-- Node5 -->
<g id="node6" class="node">
<title>Node5</title>
<g id="a_node6"><a xlink:href="classLIEF_1_1ELF_1_1Hash.html" target="_top" xlink:title="LIEF::ELF::Hash">
<polygon fill="#ffffff" stroke="#000000" points="261,-456.5 261,-475.5 349,-475.5 349,-456.5 261,-456.5"/>
<text text-anchor="middle" x="305" y="-463.5" font-family="Helvetica,sans-Serif" font-size="10.00" fill="#000000">LIEF::ELF::Hash</text>
</a>
</g>
</g>
<!-- Node1&#45;&gt;Node5 -->
<g id="edge5" class="edge">
<title>Node1&#45;&gt;Node5</title>
<path fill="none" stroke="#191970" d="M198.646,-438.9669C220.3977,-444.4957 246.5256,-451.1369 267.4407,-456.4532"/>
<polygon fill="#191970" stroke="#191970" points="199.233,-435.5048 188.6789,-436.4334 197.5085,-442.2891 199.233,-435.5048"/>
</g>
<!-- Node6 -->
<g id="node7" class="node">
<title>Node6</title>
<g id="a_node7"><a xlink:href="classLIEF_1_1MachO_1_1Hash.html" target="_top" xlink:title="LIEF::MachO::Hash">
<polygon fill="#ffffff" stroke="#000000" points="252.5,-418.5 252.5,-437.5 357.5,-437.5 357.5,-418.5 252.5,-418.5"/>
<text text-anchor="middle" x="305" y="-425.5" font-family="Helvetica,sans-Serif" font-size="10.00" fill="#000000">LIEF::MachO::Hash</text>
</a>
</g>
</g>
<!-- Node1&#45;&gt;Node6 -->
<g id="edge6" class="edge">
<title>Node1&#45;&gt;Node6</title>
<path fill="none" stroke="#191970" d="M198.7147,-428C215.4299,-428 234.7211,-428 252.2426,-428"/>
<polygon fill="#191970" stroke="#191970" points="198.6789,-424.5001 188.6789,-428 198.6789,-431.5001 198.6789,-424.5001"/>
</g>
<!-- Node7 -->
<g id="node8" class="node">
<title>Node7</title>
<g id="a_node8"><a xlink:href="classLIEF_1_1OAT_1_1Hash.html" target="_top" xlink:title="LIEF::OAT::Hash">
<polygon fill="#ffffff" stroke="#000000" points="259.5,-380.5 259.5,-399.5 350.5,-399.5 350.5,-380.5 259.5,-380.5"/>
<text text-anchor="middle" x="305" y="-387.5" font-family="Helvetica,sans-Serif" font-size="10.00" fill="#000000">LIEF::OAT::Hash</text>
</a>
</g>
</g>
<!-- Node1&#45;&gt;Node7 -->
<g id="edge7" class="edge">
<title>Node1&#45;&gt;Node7</title>
<path fill="none" stroke="#191970" d="M198.646,-417.0331C220.3977,-411.5043 246.5256,-404.8631 267.4407,-399.5468"/>
<polygon fill="#191970" stroke="#191970" points="197.5085,-413.7109 188.6789,-419.5666 199.233,-420.4952 197.5085,-413.7109"/>
</g>
<!-- Node8 -->
<g id="node9" class="node">
<title>Node8</title>
<g id="a_node9"><a xlink:href="classLIEF_1_1PE_1_1Hash.html" target="_top" xlink:title="LIEF::PE::Hash">
<polygon fill="#ffffff" stroke="#000000" points="263,-342.5 263,-361.5 347,-361.5 347,-342.5 263,-342.5"/>
<text text-anchor="middle" x="305" y="-349.5" font-family="Helvetica,sans-Serif" font-size="10.00" fill="#000000">LIEF::PE::Hash</text>
</a>
</g>
</g>
<!-- Node1&#45;&gt;Node8 -->
<g id="edge8" class="edge">
<title>Node1&#45;&gt;Node8</title>
<path fill="none" stroke="#191970" d="M174.8287,-411.9024C190.8728,-399.2393 214.748,-381.9597 238,-371 245.8744,-367.2884 254.6192,-364.1617 263.122,-361.5844"/>
<polygon fill="#191970" stroke="#191970" points="172.3647,-409.3929 166.7746,-418.393 176.7572,-414.8433 172.3647,-409.3929"/>
</g>
<!-- Node9 -->
<g id="node10" class="node">
<title>Node9</title>
<g id="a_node10"><a xlink:href="classLIEF_1_1VDEX_1_1Hash.html" target="_top" xlink:title="LIEF::VDEX::Hash">
<polygon fill="#ffffff" stroke="#000000" points="255.5,-304.5 255.5,-323.5 354.5,-323.5 354.5,-304.5 255.5,-304.5"/>
<text text-anchor="middle" x="305" y="-311.5" font-family="Helvetica,sans-Serif" font-size="10.00" fill="#000000">LIEF::VDEX::Hash</text>
</a>
</g>
</g>
<!-- Node1&#45;&gt;Node9 -->
<g id="edge9" class="edge">
<title>Node1&#45;&gt;Node9</title>
<path fill="none" stroke="#191970" d="M166.5979,-409.7303C180.6022,-388.2162 206.6816,-352.8985 238,-333 244.123,-329.1097 251.0563,-325.9992 258.0836,-323.5168"/>
<polygon fill="#191970" stroke="#191970" points="163.5787,-407.9563 161.1962,-418.2798 169.4965,-411.6953 163.5787,-407.9563"/>
</g>
<!-- Node11 -->
<g id="node12" class="node">
<title>Node11</title>
<g id="a_node12"><a xlink:href="classLIEF_1_1AbstractJsonVisitor.html" target="_top" xlink:title="LIEF::AbstractJsonVisitor">
<polygon fill="#ffffff" stroke="#000000" points="238,-266.5 238,-285.5 372,-285.5 372,-266.5 238,-266.5"/>
<text text-anchor="middle" x="305" y="-273.5" font-family="Helvetica,sans-Serif" font-size="10.00" fill="#000000">LIEF::AbstractJsonVisitor</text>
</a>
</g>
</g>
<!-- Node10&#45;&gt;Node11 -->
<g id="edge11" class="edge">
<title>Node10&#45;&gt;Node11</title>
<path fill="none" stroke="#191970" d="M166.5979,-180.2697C180.6022,-201.7838 206.6816,-237.1015 238,-257 244.123,-260.8903 251.0563,-264.0008 258.0836,-266.4832"/>
<polygon fill="#191970" stroke="#191970" points="169.4965,-178.3047 161.1962,-171.7202 163.5787,-182.0437 169.4965,-178.3047"/>
</g>
<!-- Node12 -->
<g id="node13" class="node">
<title>Node12</title>
<g id="a_node13"><a xlink:href="classLIEF_1_1ART_1_1JsonVisitor.html" target="_top" xlink:title="LIEF::ART::JsonVisitor">
<polygon fill="#ffffff" stroke="#000000" points="246.5,-228.5 246.5,-247.5 363.5,-247.5 363.5,-228.5 246.5,-228.5"/>
<text text-anchor="middle" x="305" y="-235.5" font-family="Helvetica,sans-Serif" font-size="10.00" fill="#000000">LIEF::ART::JsonVisitor</text>
</a>
</g>
</g>
<!-- Node10&#45;&gt;Node12 -->
<g id="edge12" class="edge">
<title>Node10&#45;&gt;Node12</title>
<path fill="none" stroke="#191970" d="M174.8287,-178.0976C190.8728,-190.7607 214.748,-208.0403 238,-219 245.8744,-222.7116 254.6192,-225.8383 263.122,-228.4156"/>
<polygon fill="#191970" stroke="#191970" points="176.7572,-175.1567 166.7746,-171.607 172.3647,-180.6071 176.7572,-175.1567"/>
</g>
<!-- Node13 -->
<g id="node14" class="node">
<title>Node13</title>
<g id="a_node14"><a xlink:href="classLIEF_1_1DEX_1_1JsonVisitor.html" target="_top" xlink:title="LIEF::DEX::JsonVisitor">
<polygon fill="#ffffff" stroke="#000000" points="245.5,-190.5 245.5,-209.5 364.5,-209.5 364.5,-190.5 245.5,-190.5"/>
<text text-anchor="middle" x="305" y="-197.5" font-family="Helvetica,sans-Serif" font-size="10.00" fill="#000000">LIEF::DEX::JsonVisitor</text>
</a>
</g>
</g>
<!-- Node10&#45;&gt;Node13 -->
<g id="edge13" class="edge">
<title>Node10&#45;&gt;Node13</title>
<path fill="none" stroke="#191970" d="M203.1516,-174.1121C223.9726,-179.4044 248.0377,-185.5213 267.5461,-190.4799"/>
<polygon fill="#191970" stroke="#191970" points="203.7792,-170.6604 193.2252,-171.589 202.0547,-177.4447 203.7792,-170.6604"/>
</g>
<!-- Node14 -->
<g id="node15" class="node">
<title>Node14</title>
<g id="a_node15"><a xlink:href="classLIEF_1_1ELF_1_1JsonVisitor.html" target="_top" xlink:title="LIEF::ELF::JsonVisitor">
<polygon fill="#ffffff" stroke="#000000" points="247.5,-152.5 247.5,-171.5 362.5,-171.5 362.5,-152.5 247.5,-152.5"/>
<text text-anchor="middle" x="305" y="-159.5" font-family="Helvetica,sans-Serif" font-size="10.00" fill="#000000">LIEF::ELF::JsonVisitor</text>
</a>
</g>
</g>
<!-- Node10&#45;&gt;Node14 -->
<g id="edge14" class="edge">
<title>Node10&#45;&gt;Node14</title>
<path fill="none" stroke="#191970" d="M212.6763,-162C224.0872,-162 236.0774,-162 247.4992,-162"/>
<polygon fill="#191970" stroke="#191970" points="212.3926,-158.5001 202.3926,-162 212.3925,-165.5001 212.3926,-158.5001"/>
</g>
<!-- Node15 -->
<g id="node16" class="node">
<title>Node15</title>
<g id="a_node16"><a xlink:href="classLIEF_1_1MachO_1_1JsonVisitor.html" target="_top" xlink:title="LIEF::MachO::JsonVisitor">
<polygon fill="#ffffff" stroke="#000000" points="239,-114.5 239,-133.5 371,-133.5 371,-114.5 239,-114.5"/>
<text text-anchor="middle" x="305" y="-121.5" font-family="Helvetica,sans-Serif" font-size="10.00" fill="#000000">LIEF::MachO::JsonVisitor</text>
</a>
</g>
</g>
<!-- Node10&#45;&gt;Node15 -->
<g id="edge15" class="edge">
<title>Node10&#45;&gt;Node15</title>
<path fill="none" stroke="#191970" d="M203.1516,-149.8879C223.9726,-144.5956 248.0377,-138.4787 267.5461,-133.5201"/>
<polygon fill="#191970" stroke="#191970" points="202.0547,-146.5553 193.2252,-152.411 203.7792,-153.3396 202.0547,-146.5553"/>
</g>
<!-- Node16 -->
<g id="node17" class="node">
<title>Node16</title>
<g id="a_node17"><a xlink:href="classLIEF_1_1OAT_1_1JsonVisitor.html" target="_top" xlink:title="LIEF::OAT::JsonVisitor">
<polygon fill="#ffffff" stroke="#000000" points="246,-76.5 246,-95.5 364,-95.5 364,-76.5 246,-76.5"/>
<text text-anchor="middle" x="305" y="-83.5" font-family="Helvetica,sans-Serif" font-size="10.00" fill="#000000">LIEF::OAT::JsonVisitor</text>
</a>
</g>
</g>
<!-- Node10&#45;&gt;Node16 -->
<g id="edge16" class="edge">
<title>Node10&#45;&gt;Node16</title>
<path fill="none" stroke="#191970" d="M174.8287,-145.9024C190.8728,-133.2393 214.748,-115.9597 238,-105 245.8744,-101.2884 254.6192,-98.1617 263.122,-95.5844"/>
<polygon fill="#191970" stroke="#191970" points="172.3647,-143.3929 166.7746,-152.393 176.7572,-148.8433 172.3647,-143.3929"/>
</g>
<!-- Node17 -->
<g id="node18" class="node">
<title>Node17</title>
<g id="a_node18"><a xlink:href="classLIEF_1_1PE_1_1JsonVisitor.html" target="_top" xlink:title="LIEF::PE::JsonVisitor">
<polygon fill="#ffffff" stroke="#000000" points="249.5,-38.5 249.5,-57.5 360.5,-57.5 360.5,-38.5 249.5,-38.5"/>
<text text-anchor="middle" x="305" y="-45.5" font-family="Helvetica,sans-Serif" font-size="10.00" fill="#000000">LIEF::PE::JsonVisitor</text>
</a>
</g>
</g>
<!-- Node10&#45;&gt;Node17 -->
<g id="edge17" class="edge">
<title>Node10&#45;&gt;Node17</title>
<path fill="none" stroke="#191970" d="M166.5979,-143.7303C180.6022,-122.2162 206.6816,-86.8985 238,-67 244.123,-63.1097 251.0563,-59.9992 258.0836,-57.5168"/>
<polygon fill="#191970" stroke="#191970" points="163.5787,-141.9563 161.1962,-152.2798 169.4965,-145.6953 163.5787,-141.9563"/>
</g>
<!-- Node18 -->
<g id="node19" class="node">
<title>Node18</title>
<g id="a_node19"><a xlink:href="classLIEF_1_1VDEX_1_1JsonVisitor.html" target="_top" xlink:title="LIEF::VDEX::JsonVisitor">
<polygon fill="#ffffff" stroke="#000000" points="242,-.5 242,-19.5 368,-19.5 368,-.5 242,-.5"/>
<text text-anchor="middle" x="305" y="-7.5" font-family="Helvetica,sans-Serif" font-size="10.00" fill="#000000">LIEF::VDEX::JsonVisitor</text>
</a>
</g>
</g>
<!-- Node10&#45;&gt;Node18 -->
<g id="edge18" class="edge">
<title>Node10&#45;&gt;Node18</title>
<path fill="none" stroke="#191970" d="M162.1902,-142.8243C173.3132,-113.78 198.3854,-58.8632 238,-29 243.117,-25.1426 248.9869,-22.0681 255.0788,-19.6175"/>
<polygon fill="#191970" stroke="#191970" points="158.8869,-141.6663 158.7223,-152.2599 165.4572,-144.0812 158.8869,-141.6663"/>
</g>
</g>
</svg>
