<?xml version="1.0" encoding="UTF-8" standalone="no"?>
<!DOCTYPE svg PUBLIC "-//W3C//DTD SVG 1.1//EN"
 "http://www.w3.org/Graphics/SVG/1.1/DTD/svg11.dtd">
<!-- Generated by graphviz version 2.40.1 (20161225.0304)
 -->
<!-- Title: Graphical Class Hierarchy Pages: 1 -->
<svg width="555pt" height="610pt"
 viewBox="0.00 0.00 555.00 610.00" xmlns="http://www.w3.org/2000/svg" xmlns:xlink="http://www.w3.org/1999/xlink">
<g id="graph0" class="graph" transform="scale(1 1) rotate(0) translate(4 606)">
<title>Graphical Class Hierarchy</title>
<polygon fill="#ffffff" stroke="transparent" points="-4,4 -4,-606 551,-606 551,4 -4,4"/>
<!-- Node410 -->
<g id="node1" class="node">
<title>Node410</title>
<polygon fill="#ffffff" stroke="#bfbfbf" points="0,-215.5 0,-234.5 65,-234.5 65,-215.5 0,-215.5"/>
<text text-anchor="middle" x="32.5" y="-222.5" font-family="Helvetica,sans-Serif" font-size="10.00" fill="#000000">exception</text>
</g>
<!-- Node0 -->
<g id="node2" class="node">
<title>Node0</title>
<g id="a_node2"><a xlink:href="classLIEF_1_1exception.html" target="_top" xlink:title="LIEF::exception">
<polygon fill="#ffffff" stroke="#000000" points="101.5,-354.5 101.5,-373.5 190.5,-373.5 190.5,-354.5 101.5,-354.5"/>
<text text-anchor="middle" x="146" y="-361.5" font-family="Helvetica,sans-Serif" font-size="10.00" fill="#000000">LIEF::exception</text>
</a>
</g>
</g>
<!-- Node410&#45;&gt;Node0 -->
<g id="edge1" class="edge">
<title>Node410&#45;&gt;Node0</title>
<path fill="none" stroke="#191970" d="M46.6999,-242.3902C70.8677,-271.9878 119.2156,-331.198 138.1441,-354.3791"/>
<polygon fill="#191970" stroke="#191970" points="49.3372,-240.0861 40.3013,-234.554 43.9151,-244.5135 49.3372,-240.0861"/>
</g>
<!-- Node426 -->
<g id="node17" class="node">
<title>Node426</title>
<g id="a_node17"><a xlink:href="classutf8_1_1exception.html" target="_top" xlink:title="utf8::exception">
<polygon fill="#ffffff" stroke="#000000" points="101,-76.5 101,-95.5 191,-95.5 191,-76.5 101,-76.5"/>
<text text-anchor="middle" x="146" y="-83.5" font-family="Helvetica,sans-Serif" font-size="10.00" fill="#000000">utf8::exception</text>
</a>
</g>
</g>
<!-- Node410&#45;&gt;Node426 -->
<g id="edge16" class="edge">
<title>Node410&#45;&gt;Node426</title>
<path fill="none" stroke="#191970" d="M46.6999,-207.6098C70.8677,-178.0122 119.2156,-118.802 138.1441,-95.6209"/>
<polygon fill="#191970" stroke="#191970" points="43.9151,-205.4865 40.3013,-215.446 49.3372,-209.9139 43.9151,-205.4865"/>
</g>
<!-- Node1 -->
<g id="node3" class="node">
<title>Node1</title>
<g id="a_node3"><a xlink:href="classLIEF_1_1bad__file.html" target="_top" xlink:title="LIEF::bad_file">
<polygon fill="#ffffff" stroke="#000000" points="254,-582.5 254,-601.5 334,-601.5 334,-582.5 254,-582.5"/>
<text text-anchor="middle" x="294" y="-589.5" font-family="Helvetica,sans-Serif" font-size="10.00" fill="#000000">LIEF::bad_file</text>
</a>
</g>
</g>
<!-- Node0&#45;&gt;Node1 -->
<g id="edge2" class="edge">
<title>Node0&#45;&gt;Node1</title>
<path fill="none" stroke="#191970" d="M147.859,-383.6859C152.8307,-425.0157 170.1946,-521.2675 227,-573 234.4195,-579.7569 244.0708,-584.1297 253.7268,-586.9539"/>
<polygon fill="#191970" stroke="#191970" points="151.3197,-383.1327 146.7629,-373.5678 144.3604,-383.8867 151.3197,-383.1327"/>
</g>
<!-- Node3 -->
<g id="node5" class="node">
<title>Node3</title>
<g id="a_node5"><a xlink:href="classLIEF_1_1builder__error.html" target="_top" xlink:title="LIEF::builder_error">
<polygon fill="#ffffff" stroke="#000000" points="242,-544.5 242,-563.5 346,-563.5 346,-544.5 242,-544.5"/>
<text text-anchor="middle" x="294" y="-551.5" font-family="Helvetica,sans-Serif" font-size="10.00" fill="#000000">LIEF::builder_error</text>
</a>
</g>
</g>
<!-- Node0&#45;&gt;Node3 -->
<g id="edge4" class="edge">
<title>Node0&#45;&gt;Node3</title>
<path fill="none" stroke="#191970" d="M149.8264,-383.9743C157.7273,-419.7049 179.2595,-494.5946 227,-535 231.6144,-538.9055 236.9822,-542.0101 242.633,-544.4779"/>
<polygon fill="#191970" stroke="#191970" points="153.1829,-382.9232 147.7242,-373.8428 146.3289,-384.3454 153.1829,-382.9232"/>
</g>
<!-- Node4 -->
<g id="node6" class="node">
<title>Node4</title>
<g id="a_node6"><a xlink:href="classLIEF_1_1conversion__error.html" target="_top" xlink:title="LIEF::conversion_error">
<polygon fill="#ffffff" stroke="#000000" points="232.5,-506.5 232.5,-525.5 355.5,-525.5 355.5,-506.5 232.5,-506.5"/>
<text text-anchor="middle" x="294" y="-513.5" font-family="Helvetica,sans-Serif" font-size="10.00" fill="#000000">LIEF::conversion_error</text>
</a>
</g>
</g>
<!-- Node0&#45;&gt;Node4 -->
<g id="edge5" class="edge">
<title>Node0&#45;&gt;Node4</title>
<path fill="none" stroke="#191970" d="M152.47,-383.173C163.2602,-412.2136 187.7061,-467.1256 227,-497 232.1011,-500.8783 237.9618,-503.9651 244.0489,-506.4219"/>
<polygon fill="#191970" stroke="#191970" points="155.7623,-381.9849 149.1103,-373.7386 149.1679,-384.3333 155.7623,-381.9849"/>
</g>
<!-- Node5 -->
<g id="node7" class="node">
<title>Node5</title>
<g id="a_node7"><a xlink:href="classLIEF_1_1corrupted.html" target="_top" xlink:title="LIEF::corrupted">
<polygon fill="#ffffff" stroke="#000000" points="250,-468.5 250,-487.5 338,-487.5 338,-468.5 250,-468.5"/>
<text text-anchor="middle" x="294" y="-475.5" font-family="Helvetica,sans-Serif" font-size="10.00" fill="#000000">LIEF::corrupted</text>
</a>
</g>
</g>
<!-- Node0&#45;&gt;Node5 -->
<g id="edge6" class="edge">
<title>Node0&#45;&gt;Node5</title>
<path fill="none" stroke="#191970" d="M156.816,-382.2745C170.487,-403.7932 196.015,-439.1154 227,-459 233.9193,-463.4405 241.8901,-466.8625 249.8654,-469.4939"/>
<polygon fill="#191970" stroke="#191970" points="159.7723,-380.4003 151.5465,-373.723 153.8129,-384.0726 159.7723,-380.4003"/>
</g>
<!-- Node6 -->
<g id="node8" class="node">
<title>Node6</title>
<g id="a_node8"><a xlink:href="classLIEF_1_1integrity__error.html" target="_top" xlink:title="LIEF::integrity_error">
<polygon fill="#ffffff" stroke="#000000" points="238.5,-430.5 238.5,-449.5 349.5,-449.5 349.5,-430.5 238.5,-430.5"/>
<text text-anchor="middle" x="294" y="-437.5" font-family="Helvetica,sans-Serif" font-size="10.00" fill="#000000">LIEF::integrity_error</text>
</a>
</g>
</g>
<!-- Node0&#45;&gt;Node6 -->
<g id="edge7" class="edge">
<title>Node0&#45;&gt;Node6</title>
<path fill="none" stroke="#191970" d="M164.9285,-380.1168C180.6529,-392.7909 204.0801,-410.076 227,-421 234.8583,-424.7454 243.5961,-427.887 252.0971,-430.468"/>
<polygon fill="#191970" stroke="#191970" points="166.9821,-377.2739 157.0374,-373.6197 162.5327,-382.678 166.9821,-377.2739"/>
</g>
<!-- Node7 -->
<g id="node9" class="node">
<title>Node7</title>
<g id="a_node9"><a xlink:href="classLIEF_1_1not__found.html" target="_top" xlink:title="LIEF::not_found">
<polygon fill="#ffffff" stroke="#000000" points="249,-392.5 249,-411.5 339,-411.5 339,-392.5 249,-392.5"/>
<text text-anchor="middle" x="294" y="-399.5" font-family="Helvetica,sans-Serif" font-size="10.00" fill="#000000">LIEF::not_found</text>
</a>
</g>
</g>
<!-- Node0&#45;&gt;Node7 -->
<g id="edge8" class="edge">
<title>Node0&#45;&gt;Node7</title>
<path fill="none" stroke="#191970" d="M193.1735,-376.1121C213.7856,-381.4044 237.6093,-387.5213 256.9219,-392.4799"/>
<polygon fill="#191970" stroke="#191970" points="193.9029,-372.6859 183.3466,-373.589 192.162,-379.466 193.9029,-372.6859"/>
</g>
<!-- Node8 -->
<g id="node10" class="node">
<title>Node8</title>
<g id="a_node10"><a xlink:href="classLIEF_1_1not__implemented.html" target="_top" xlink:title="LIEF::not_implemented">
<polygon fill="#ffffff" stroke="#000000" points="230,-354.5 230,-373.5 358,-373.5 358,-354.5 230,-354.5"/>
<text text-anchor="middle" x="294" y="-361.5" font-family="Helvetica,sans-Serif" font-size="10.00" fill="#000000">LIEF::not_implemented</text>
</a>
</g>
</g>
<!-- Node0&#45;&gt;Node8 -->
<g id="edge9" class="edge">
<title>Node0&#45;&gt;Node8</title>
<path fill="none" stroke="#191970" d="M200.8777,-364C210.3511,-364 220.2734,-364 229.9635,-364"/>
<polygon fill="#191970" stroke="#191970" points="200.8066,-360.5001 190.8065,-364 200.8065,-367.5001 200.8066,-360.5001"/>
</g>
<!-- Node9 -->
<g id="node11" class="node">
<title>Node9</title>
<g id="a_node11"><a xlink:href="classLIEF_1_1not__supported.html" target="_top" xlink:title="LIEF::not_supported">
<polygon fill="#ffffff" stroke="#000000" points="238.5,-316.5 238.5,-335.5 349.5,-335.5 349.5,-316.5 238.5,-316.5"/>
<text text-anchor="middle" x="294" y="-323.5" font-family="Helvetica,sans-Serif" font-size="10.00" fill="#000000">LIEF::not_supported</text>
</a>
</g>
</g>
<!-- Node0&#45;&gt;Node9 -->
<g id="edge10" class="edge">
<title>Node0&#45;&gt;Node9</title>
<path fill="none" stroke="#191970" d="M193.1735,-351.8879C213.7856,-346.5956 237.6093,-340.4787 256.9219,-335.5201"/>
<polygon fill="#191970" stroke="#191970" points="192.162,-348.534 183.3466,-354.411 193.9029,-355.3141 192.162,-348.534"/>
</g>
<!-- Node10 -->
<g id="node12" class="node">
<title>Node10</title>
<g id="a_node12"><a xlink:href="classLIEF_1_1parser__error.html" target="_top" xlink:title="LIEF::parser_error">
<polygon fill="#ffffff" stroke="#000000" points="243.5,-278.5 243.5,-297.5 344.5,-297.5 344.5,-278.5 243.5,-278.5"/>
<text text-anchor="middle" x="294" y="-285.5" font-family="Helvetica,sans-Serif" font-size="10.00" fill="#000000">LIEF::parser_error</text>
</a>
</g>
</g>
<!-- Node0&#45;&gt;Node10 -->
<g id="edge11" class="edge">
<title>Node0&#45;&gt;Node10</title>
<path fill="none" stroke="#191970" d="M164.9285,-347.8832C180.6529,-335.2091 204.0801,-317.924 227,-307 234.8583,-303.2546 243.5961,-300.113 252.0971,-297.532"/>
<polygon fill="#191970" stroke="#191970" points="162.5327,-345.322 157.0374,-354.3803 166.9821,-350.7261 162.5327,-345.322"/>
</g>
<!-- Node11 -->
<g id="node13" class="node">
<title>Node11</title>
<g id="a_node13"><a xlink:href="classLIEF_1_1pe__error.html" target="_top" xlink:title="LIEF::pe_error">
<polygon fill="#ffffff" stroke="#000000" points="253,-240.5 253,-259.5 335,-259.5 335,-240.5 253,-240.5"/>
<text text-anchor="middle" x="294" y="-247.5" font-family="Helvetica,sans-Serif" font-size="10.00" fill="#000000">LIEF::pe_error</text>
</a>
</g>
</g>
<!-- Node0&#45;&gt;Node11 -->
<g id="edge12" class="edge">
<title>Node0&#45;&gt;Node11</title>
<path fill="none" stroke="#191970" d="M156.816,-345.7255C170.487,-324.2068 196.015,-288.8846 227,-269 234.7334,-264.0371 243.7801,-260.3464 252.6788,-257.6099"/>
<polygon fill="#191970" stroke="#191970" points="153.8129,-343.9274 151.5465,-354.277 159.7723,-347.5997 153.8129,-343.9274"/>
</g>
<!-- Node13 -->
<g id="node15" class="node">
<title>Node13</title>
<g id="a_node15"><a xlink:href="classLIEF_1_1read__out__of__bound.html" target="_top" xlink:title="LIEF::read_out_of_bound">
<polygon fill="#ffffff" stroke="#000000" points="227,-202.5 227,-221.5 361,-221.5 361,-202.5 227,-202.5"/>
<text text-anchor="middle" x="294" y="-209.5" font-family="Helvetica,sans-Serif" font-size="10.00" fill="#000000">LIEF::read_out_of_bound</text>
</a>
</g>
</g>
<!-- Node0&#45;&gt;Node13 -->
<g id="edge14" class="edge">
<title>Node0&#45;&gt;Node13</title>
<path fill="none" stroke="#191970" d="M152.47,-344.827C163.2602,-315.7864 187.7061,-260.8744 227,-231 232.1011,-227.1217 237.9618,-224.0349 244.0489,-221.5781"/>
<polygon fill="#191970" stroke="#191970" points="149.1679,-343.6667 149.1103,-354.2614 155.7623,-346.0151 149.1679,-343.6667"/>
</g>
<!-- Node14 -->
<g id="node16" class="node">
<title>Node14</title>
<g id="a_node16"><a xlink:href="classLIEF_1_1type__error.html" target="_top" xlink:title="LIEF::type_error">
<polygon fill="#ffffff" stroke="#000000" points="248,-164.5 248,-183.5 340,-183.5 340,-164.5 248,-164.5"/>
<text text-anchor="middle" x="294" y="-171.5" font-family="Helvetica,sans-Serif" font-size="10.00" fill="#000000">LIEF::type_error</text>
</a>
</g>
</g>
<!-- Node0&#45;&gt;Node14 -->
<g id="edge15" class="edge">
<title>Node0&#45;&gt;Node14</title>
<path fill="none" stroke="#191970" d="M149.8264,-344.0257C157.7273,-308.2951 179.2595,-233.4054 227,-193 232.9988,-187.9229 240.2707,-184.1991 247.7825,-181.4687"/>
<polygon fill="#191970" stroke="#191970" points="146.3289,-343.6546 147.7242,-354.1572 153.1829,-345.0768 146.3289,-343.6546"/>
</g>
<!-- Node2 -->
<g id="node4" class="node">
<title>Node2</title>
<g id="a_node4"><a xlink:href="classLIEF_1_1bad__format.html" target="_top" xlink:title="LIEF::bad_format">
<polygon fill="#ffffff" stroke="#000000" points="423,-582.5 423,-601.5 521,-601.5 521,-582.5 423,-582.5"/>
<text text-anchor="middle" x="472" y="-589.5" font-family="Helvetica,sans-Serif" font-size="10.00" fill="#000000">LIEF::bad_format</text>
</a>
</g>
</g>
<!-- Node1&#45;&gt;Node2 -->
<g id="edge3" class="edge">
<title>Node1&#45;&gt;Node2</title>
<path fill="none" stroke="#191970" d="M344.591,-592C369.1477,-592 398.5316,-592 422.8895,-592"/>
<polygon fill="#191970" stroke="#191970" points="344.391,-588.5001 334.391,-592 344.3909,-595.5001 344.391,-588.5001"/>
</g>
<!-- Node12 -->
<g id="node14" class="node">
<title>Node12</title>
<g id="a_node14"><a xlink:href="classLIEF_1_1pe__bad__section__name.html" target="_top" xlink:title="LIEF::pe_bad_section_name">
<polygon fill="#ffffff" stroke="#000000" points="397,-240.5 397,-259.5 547,-259.5 547,-240.5 397,-240.5"/>
<text text-anchor="middle" x="472" y="-247.5" font-family="Helvetica,sans-Serif" font-size="10.00" fill="#000000">LIEF::pe_bad_section_name</text>
</a>
</g>
</g>
<!-- Node11&#45;&gt;Node12 -->
<g id="edge13" class="edge">
<title>Node11&#45;&gt;Node12</title>
<path fill="none" stroke="#191970" d="M345.4798,-250C361.4712,-250 379.4408,-250 396.7055,-250"/>
<polygon fill="#191970" stroke="#191970" points="345.2842,-246.5001 335.2842,-250 345.2841,-253.5001 345.2842,-246.5001"/>
</g>
<!-- Node427 -->
<g id="node18" class="node">
<title>Node427</title>
<g id="a_node18"><a xlink:href="classutf8_1_1invalid__code__point.html" target="_top" xlink:title="utf8::invalid_code\l_point">
<polygon fill="#ffffff" stroke="#000000" points="242,-115 242,-145 346,-145 346,-115 242,-115"/>
<text text-anchor="start" x="250" y="-133" font-family="Helvetica,sans-Serif" font-size="10.00" fill="#000000">utf8::invalid_code</text>
<text text-anchor="middle" x="294" y="-122" font-family="Helvetica,sans-Serif" font-size="10.00" fill="#000000">_point</text>
</a>
</g>
</g>
<!-- Node426&#45;&gt;Node427 -->
<g id="edge17" class="edge">
<title>Node426&#45;&gt;Node427</title>
<path fill="none" stroke="#191970" d="M187.8949,-98.4553C205.1371,-103.5813 225.2639,-109.5649 243.3256,-114.9346"/>
<polygon fill="#191970" stroke="#191970" points="188.6966,-95.0422 178.1138,-95.5473 186.7017,-101.752 188.6966,-95.0422"/>
</g>
<!-- Node428 -->
<g id="node19" class="node">
<title>Node428</title>
<g id="a_node19"><a xlink:href="classutf8_1_1invalid__utf16.html" target="_top" xlink:title="utf8::invalid_utf16">
<polygon fill="#ffffff" stroke="#000000" points="241,-76.5 241,-95.5 347,-95.5 347,-76.5 241,-76.5"/>
<text text-anchor="middle" x="294" y="-83.5" font-family="Helvetica,sans-Serif" font-size="10.00" fill="#000000">utf8::invalid_utf16</text>
</a>
</g>
</g>
<!-- Node426&#45;&gt;Node428 -->
<g id="edge18" class="edge">
<title>Node426&#45;&gt;Node428</title>
<path fill="none" stroke="#191970" d="M201.3459,-86C214.2426,-86 227.9479,-86 240.7516,-86"/>
<polygon fill="#191970" stroke="#191970" points="201.2091,-82.5001 191.2091,-86 201.209,-89.5001 201.2091,-82.5001"/>
</g>
<!-- Node429 -->
<g id="node20" class="node">
<title>Node429</title>
<g id="a_node20"><a xlink:href="classutf8_1_1invalid__utf8.html" target="_top" xlink:title="utf8::invalid_utf8">
<polygon fill="#ffffff" stroke="#000000" points="244,-38.5 244,-57.5 344,-57.5 344,-38.5 244,-38.5"/>
<text text-anchor="middle" x="294" y="-45.5" font-family="Helvetica,sans-Serif" font-size="10.00" fill="#000000">utf8::invalid_utf8</text>
</a>
</g>
</g>
<!-- Node426&#45;&gt;Node429 -->
<g id="edge19" class="edge">
<title>Node426&#45;&gt;Node429</title>
<path fill="none" stroke="#191970" d="M193.1735,-73.8879C213.7856,-68.5956 237.6093,-62.4787 256.9219,-57.5201"/>
<polygon fill="#191970" stroke="#191970" points="192.162,-70.534 183.3466,-76.411 193.9029,-77.3141 192.162,-70.534"/>
</g>
<!-- Node430 -->
<g id="node21" class="node">
<title>Node430</title>
<g id="a_node21"><a xlink:href="classutf8_1_1not__enough__room.html" target="_top" xlink:title="utf8::not_enough_room">
<polygon fill="#ffffff" stroke="#000000" points="229,-.5 229,-19.5 359,-19.5 359,-.5 229,-.5"/>
<text text-anchor="middle" x="294" y="-7.5" font-family="Helvetica,sans-Serif" font-size="10.00" fill="#000000">utf8::not_enough_room</text>
</a>
</g>
</g>
<!-- Node426&#45;&gt;Node430 -->
<g id="edge20" class="edge">
<title>Node426&#45;&gt;Node430</title>
<path fill="none" stroke="#191970" d="M164.9285,-69.8832C180.6529,-57.2091 204.0801,-39.924 227,-29 234.8583,-25.2546 243.5961,-22.113 252.0971,-19.532"/>
<polygon fill="#191970" stroke="#191970" points="162.5327,-67.322 157.0374,-76.3803 166.9821,-72.7261 162.5327,-67.322"/>
</g>
</g>
</svg>
