<?xml version="1.0" encoding="UTF-8" standalone="no"?>
<!DOCTYPE svg PUBLIC "-//W3C//DTD SVG 1.1//EN"
 "http://www.w3.org/Graphics/SVG/1.1/DTD/svg11.dtd">
<!-- Generated by graphviz version 2.40.1 (20161225.0304)
 -->
<!-- Title: Graphical Class Hierarchy Pages: 1 -->
<svg width="342pt" height="66pt"
 viewBox="0.00 0.00 342.00 66.00" xmlns="http://www.w3.org/2000/svg" xmlns:xlink="http://www.w3.org/1999/xlink">
<g id="graph0" class="graph" transform="scale(1 1) rotate(0) translate(4 62)">
<title>Graphical Class Hierarchy</title>
<polygon fill="#ffffff" stroke="transparent" points="-4,4 -4,-62 338,-62 338,4 -4,4"/>
<!-- Node192 -->
<g id="node1" class="node">
<title>Node192</title>
<polygon fill="#ffffff" stroke="#bfbfbf" points="117,-38.5 117,-57.5 174,-57.5 174,-38.5 117,-38.5"/>
<text text-anchor="middle" x="145.5" y="-45.5" font-family="Helvetica,sans-Serif" font-size="10.00" fill="#000000">ostream</text>
</g>
<!-- Node1 -->
<g id="node2" class="node">
<title>Node1</title>
<g id="a_node2"><a xlink:href="classLIEF_1_1oprefixstream.html" target="_top" xlink:title="LIEF::oprefixstream">
<polygon fill="#ffffff" stroke="#000000" points="224,-19.5 224,-38.5 334,-38.5 334,-19.5 224,-19.5"/>
<text text-anchor="middle" x="279" y="-26.5" font-family="Helvetica,sans-Serif" font-size="10.00" fill="#000000">LIEF::oprefixstream</text>
</a>
</g>
</g>
<!-- Node192&#45;&gt;Node1 -->
<g id="edge1" class="edge">
<title>Node192&#45;&gt;Node1</title>
<path fill="none" stroke="#191970" d="M184.1098,-42.505C196.4793,-40.7445 210.4269,-38.7595 223.7451,-36.864"/>
<polygon fill="#191970" stroke="#191970" points="183.5461,-39.0498 174.1391,-43.924 184.5325,-45.98 183.5461,-39.0498"/>
</g>
<!-- Node70 -->
<g id="node3" class="node">
<title>Node70</title>
<polygon fill="#ffffff" stroke="#bfbfbf" points="0,-.5 0,-19.5 67,-19.5 67,-.5 0,-.5"/>
<text text-anchor="middle" x="33.5" y="-7.5" font-family="Helvetica,sans-Serif" font-size="10.00" fill="#000000">streambuf</text>
</g>
<!-- Node0 -->
<g id="node4" class="node">
<title>Node0</title>
<g id="a_node4"><a xlink:href="classLIEF_1_1prefixbuf.html" target="_top" xlink:title="LIEF::prefixbuf">
<polygon fill="#ffffff" stroke="#000000" points="103,-.5 103,-19.5 188,-19.5 188,-.5 103,-.5"/>
<text text-anchor="middle" x="145.5" y="-7.5" font-family="Helvetica,sans-Serif" font-size="10.00" fill="#000000">LIEF::prefixbuf</text>
</a>
</g>
</g>
<!-- Node70&#45;&gt;Node0 -->
<g id="edge2" class="edge">
<title>Node70&#45;&gt;Node0</title>
<path fill="none" stroke="#191970" d="M77.1308,-10C85.5561,-10 94.3745,-10 102.7707,-10"/>
<polygon fill="#191970" stroke="#191970" points="77.1037,-6.5001 67.1037,-10 77.1037,-13.5001 77.1037,-6.5001"/>
</g>
<!-- Node0&#45;&gt;Node1 -->
<g id="edge3" class="edge">
<title>Node0&#45;&gt;Node1</title>
<path fill="none" stroke="#8b1a1a" d="M198.1304,-17.4905C206.5048,-18.6823 215.1898,-19.9184 223.6252,-21.1189"/>
<polygon fill="#8b1a1a" stroke="#8b1a1a" points="198.5007,-14.008 188.1073,-16.064 197.5143,-20.9381 198.5007,-14.008"/>
</g>
</g>
</svg>
