<?xml version="1.0" encoding="UTF-8" standalone="no"?>
<!DOCTYPE svg PUBLIC "-//W3C//DTD SVG 1.1//EN"
 "http://www.w3.org/Graphics/SVG/1.1/DTD/svg11.dtd">
<!-- Generated by graphviz version 2.40.1 (20161225.0304)
 -->
<!-- Title: Graphical Class Hierarchy Pages: 1 -->
<svg width="269pt" height="235pt"
 viewBox="0.00 0.00 269.00 235.00" xmlns="http://www.w3.org/2000/svg" xmlns:xlink="http://www.w3.org/1999/xlink">
<g id="graph0" class="graph" transform="scale(1 1) rotate(0) translate(4 231)">
<title>Graphical Class Hierarchy</title>
<polygon fill="#ffffff" stroke="transparent" points="-4,4 -4,-231 265,-231 265,4 -4,4"/>
<!-- Node382 -->
<g id="node1" class="node">
<title>Node382</title>
<polygon fill="#ffffff" stroke="#bfbfbf" points="0,-104 0,-123 53,-123 53,-104 0,-104"/>
<text text-anchor="middle" x="26.5" y="-111" font-family="Helvetica,sans-Serif" font-size="10.00" fill="#000000">iterator</text>
</g>
<!-- Node0 -->
<g id="node2" class="node">
<title>Node0</title>
<g id="a_node2"><a xlink:href="classLIEF_1_1dict__iterator.html" target="_top" xlink:title="LIEF::dict_iterator\l\&lt; CONTAINER_T, ITERATOR_T \&gt;">
<polygon fill="#ffffff" stroke="#000000" points="89,-196.5 89,-226.5 261,-226.5 261,-196.5 89,-196.5"/>
<text text-anchor="start" x="97" y="-214.5" font-family="Helvetica,sans-Serif" font-size="10.00" fill="#000000">LIEF::dict_iterator</text>
<text text-anchor="middle" x="175" y="-203.5" font-family="Helvetica,sans-Serif" font-size="10.00" fill="#000000">&lt; CONTAINER_T, ITERATOR_T &gt;</text>
</a>
</g>
</g>
<!-- Node382&#45;&gt;Node0 -->
<g id="edge1" class="edge">
<title>Node382&#45;&gt;Node0</title>
<path fill="none" stroke="#191970" d="M37.4871,-131.9608C48.4701,-148.8474 66.88,-173.2969 89,-187.5 94.3479,-190.9339 100.1887,-193.8834 106.2274,-196.4157"/>
<polygon fill="#191970" stroke="#191970" points="40.1729,-129.654 31.9067,-123.0268 34.2359,-133.3624 40.1729,-129.654"/>
</g>
<!-- Node384 -->
<g id="node3" class="node">
<title>Node384</title>
<g id="a_node3"><a xlink:href="classLIEF_1_1filter__iterator.html" target="_top" xlink:title="LIEF::filter_iterator\l\&lt; T, ITERATOR_T \&gt;">
<polygon fill="#ffffff" stroke="#000000" points="120,-147.5 120,-177.5 230,-177.5 230,-147.5 120,-147.5"/>
<text text-anchor="start" x="128" y="-165.5" font-family="Helvetica,sans-Serif" font-size="10.00" fill="#000000">LIEF::filter_iterator</text>
<text text-anchor="middle" x="175" y="-154.5" font-family="Helvetica,sans-Serif" font-size="10.00" fill="#000000">&lt; T, ITERATOR_T &gt;</text>
</a>
</g>
</g>
<!-- Node382&#45;&gt;Node384 -->
<g id="edge2" class="edge">
<title>Node382&#45;&gt;Node384</title>
<path fill="none" stroke="#191970" d="M57.967,-126.8586C67.8201,-130.8325 78.7881,-135.044 89,-138.5 98.8376,-141.8293 109.4166,-145.0598 119.675,-148.0153"/>
<polygon fill="#191970" stroke="#191970" points="59.1352,-123.5549 48.5548,-123.0008 56.4804,-130.0319 59.1352,-123.5549"/>
</g>
<!-- Node385 -->
<g id="node4" class="node">
<title>Node385</title>
<g id="a_node4"><a xlink:href="classLIEF_1_1ref__iterator.html" target="_top" xlink:title="LIEF::ref_iterator\l\&lt; T, ITERATOR_T \&gt;">
<polygon fill="#ffffff" stroke="#000000" points="120,-98.5 120,-128.5 230,-128.5 230,-98.5 120,-98.5"/>
<text text-anchor="start" x="128" y="-116.5" font-family="Helvetica,sans-Serif" font-size="10.00" fill="#000000">LIEF::ref_iterator</text>
<text text-anchor="middle" x="175" y="-105.5" font-family="Helvetica,sans-Serif" font-size="10.00" fill="#000000">&lt; T, ITERATOR_T &gt;</text>
</a>
</g>
</g>
<!-- Node382&#45;&gt;Node385 -->
<g id="edge3" class="edge">
<title>Node382&#45;&gt;Node385</title>
<path fill="none" stroke="#191970" d="M63.1591,-113.5C80.2202,-113.5 100.878,-113.5 119.7733,-113.5"/>
<polygon fill="#191970" stroke="#191970" points="63.0489,-110.0001 53.0488,-113.5 63.0488,-117.0001 63.0489,-110.0001"/>
</g>
<!-- Node386 -->
<g id="node5" class="node">
<title>Node386</title>
<g id="a_node5"><a xlink:href="classutf8_1_1iterator.html" target="_top" xlink:title="utf8::iterator\&lt; octet\l_iterator \&gt;">
<polygon fill="#ffffff" stroke="#000000" points="118,-49.5 118,-79.5 232,-79.5 232,-49.5 118,-49.5"/>
<text text-anchor="start" x="126" y="-67.5" font-family="Helvetica,sans-Serif" font-size="10.00" fill="#000000">utf8::iterator&lt; octet</text>
<text text-anchor="middle" x="175" y="-56.5" font-family="Helvetica,sans-Serif" font-size="10.00" fill="#000000">_iterator &gt;</text>
</a>
</g>
</g>
<!-- Node382&#45;&gt;Node386 -->
<g id="edge4" class="edge">
<title>Node382&#45;&gt;Node386</title>
<path fill="none" stroke="#191970" d="M59.534,-100.2223C68.9916,-96.5827 79.3528,-92.7481 89,-89.5 99.1677,-86.0766 110.102,-82.6825 120.6511,-79.5505"/>
<polygon fill="#191970" stroke="#191970" points="58.1181,-97.0177 50.0731,-103.9118 60.6614,-103.5393 58.1181,-97.0177"/>
</g>
<!-- Node387 -->
<g id="node6" class="node">
<title>Node387</title>
<g id="a_node6"><a xlink:href="classutf8_1_1unchecked_1_1iterator.html" target="_top" xlink:title="utf8::unchecked::iterator\l\&lt; octet_iterator \&gt;">
<polygon fill="#ffffff" stroke="#000000" points="106.5,-.5 106.5,-30.5 243.5,-30.5 243.5,-.5 106.5,-.5"/>
<text text-anchor="start" x="114.5" y="-18.5" font-family="Helvetica,sans-Serif" font-size="10.00" fill="#000000">utf8::unchecked::iterator</text>
<text text-anchor="middle" x="175" y="-7.5" font-family="Helvetica,sans-Serif" font-size="10.00" fill="#000000">&lt; octet_iterator &gt;</text>
</a>
</g>
</g>
<!-- Node382&#45;&gt;Node387 -->
<g id="edge5" class="edge">
<title>Node382&#45;&gt;Node387</title>
<path fill="none" stroke="#191970" d="M37.757,-95.0781C48.8252,-78.4699 67.1997,-54.5601 89,-40.5 95.0107,-36.6234 101.638,-33.3328 108.4663,-30.5427"/>
<polygon fill="#191970" stroke="#191970" points="34.563,-93.5755 32.1139,-103.8834 40.4565,-97.3526 34.563,-93.5755"/>
</g>
</g>
</svg>
