<?xml version="1.0" encoding="UTF-8" standalone="no"?>
<!DOCTYPE svg PUBLIC "-//W3C//DTD SVG 1.1//EN"
 "http://www.w3.org/Graphics/SVG/1.1/DTD/svg11.dtd">
<!-- Generated by graphviz version 2.40.1 (20161225.0304)
 -->
<!-- Title: LIEF::PE::load_configuration_v3&lt; T &gt; Pages: 1 -->
<svg width="336pt" height="310pt"
 viewBox="0.00 0.00 336.00 310.00" xmlns="http://www.w3.org/2000/svg" xmlns:xlink="http://www.w3.org/1999/xlink">
<g id="graph0" class="graph" transform="scale(1 1) rotate(0) translate(4 306)">
<title>LIEF::PE::load_configuration_v3&lt; T &gt;</title>
<polygon fill="#ffffff" stroke="transparent" points="-4,4 -4,-306 332,-306 332,4 -4,4"/>
<!-- Node9 -->
<g id="node1" class="node">
<title>Node9</title>
<polygon fill="#bfbfbf" stroke="#000000" points="97.5,-.5 97.5,-30.5 246.5,-30.5 246.5,-.5 97.5,-.5"/>
<text text-anchor="start" x="105.5" y="-18.5" font-family="Helvetica,sans-Serif" font-size="10.00" fill="#000000">LIEF::PE::load_configuration</text>
<text text-anchor="middle" x="172" y="-7.5" font-family="Helvetica,sans-Serif" font-size="10.00" fill="#000000">_v3&lt; T &gt;</text>
</g>
<!-- Node10 -->
<g id="node2" class="node">
<title>Node10</title>
<g id="a_node2"><a xlink:href="structLIEF_1_1PE_1_1load__configuration__v2.html" target="_top" xlink:title="LIEF::PE::load_configuration\l_v2\&lt; T \&gt;">
<polygon fill="#ffffff" stroke="#000000" points="97.5,-68.5 97.5,-98.5 246.5,-98.5 246.5,-68.5 97.5,-68.5"/>
<text text-anchor="start" x="105.5" y="-86.5" font-family="Helvetica,sans-Serif" font-size="10.00" fill="#000000">LIEF::PE::load_configuration</text>
<text text-anchor="middle" x="172" y="-75.5" font-family="Helvetica,sans-Serif" font-size="10.00" fill="#000000">_v2&lt; T &gt;</text>
</a>
</g>
</g>
<!-- Node10&#45;&gt;Node9 -->
<g id="edge1" class="edge">
<title>Node10&#45;&gt;Node9</title>
<path fill="none" stroke="#191970" d="M172,-58.1174C172,-48.8378 172,-38.6413 172,-30.5492"/>
<polygon fill="#191970" stroke="#191970" points="168.5001,-58.4086 172,-68.4086 175.5001,-58.4086 168.5001,-58.4086"/>
</g>
<!-- Node11 -->
<g id="node3" class="node">
<title>Node11</title>
<g id="a_node3"><a xlink:href="structLIEF_1_1PE_1_1load__configuration__v1.html" target="_top" xlink:title="LIEF::PE::load_configuration\l_v1\&lt; T \&gt;">
<polygon fill="#ffffff" stroke="#000000" points="14.5,-146.5 14.5,-176.5 163.5,-176.5 163.5,-146.5 14.5,-146.5"/>
<text text-anchor="start" x="22.5" y="-164.5" font-family="Helvetica,sans-Serif" font-size="10.00" fill="#000000">LIEF::PE::load_configuration</text>
<text text-anchor="middle" x="89" y="-153.5" font-family="Helvetica,sans-Serif" font-size="10.00" fill="#000000">_v1&lt; T &gt;</text>
</a>
</g>
</g>
<!-- Node11&#45;&gt;Node10 -->
<g id="edge2" class="edge">
<title>Node11&#45;&gt;Node10</title>
<path fill="none" stroke="#191970" d="M112.3,-139.6036C126.1529,-126.5853 143.3797,-110.3962 155.7627,-98.7592"/>
<polygon fill="#191970" stroke="#191970" points="109.8935,-137.0621 105.0032,-146.4608 114.6873,-142.1631 109.8935,-137.0621"/>
</g>
<!-- Node12 -->
<g id="node4" class="node">
<title>Node12</title>
<g id="a_node4"><a xlink:href="structLIEF_1_1PE_1_1load__configuration__v0.html" target="_top" xlink:title="LIEF::PE::load_configuration\l_v0\&lt; T \&gt;">
<polygon fill="#ffffff" stroke="#000000" points="14.5,-214.5 14.5,-244.5 163.5,-244.5 163.5,-214.5 14.5,-214.5"/>
<text text-anchor="start" x="22.5" y="-232.5" font-family="Helvetica,sans-Serif" font-size="10.00" fill="#000000">LIEF::PE::load_configuration</text>
<text text-anchor="middle" x="89" y="-221.5" font-family="Helvetica,sans-Serif" font-size="10.00" fill="#000000">_v0&lt; T &gt;</text>
</a>
</g>
</g>
<!-- Node12&#45;&gt;Node11 -->
<g id="edge3" class="edge">
<title>Node12&#45;&gt;Node11</title>
<path fill="none" stroke="#191970" d="M89,-204.1174C89,-194.8378 89,-184.6413 89,-176.5492"/>
<polygon fill="#191970" stroke="#191970" points="85.5001,-204.4086 89,-214.4086 92.5001,-204.4086 85.5001,-204.4086"/>
</g>
<!-- Node13 -->
<g id="node5" class="node">
<title>Node13</title>
<g id="a_node5"><a xlink:href="structLIEF_1_1PE_1_1load__configuration.html" target="_top" xlink:title="LIEF::PE::load_configuration\&lt; T \&gt;">
<polygon fill="#ffffff" stroke="#000000" points="0,-282.5 0,-301.5 178,-301.5 178,-282.5 0,-282.5"/>
<text text-anchor="middle" x="89" y="-289.5" font-family="Helvetica,sans-Serif" font-size="10.00" fill="#000000">LIEF::PE::load_configuration&lt; T &gt;</text>
</a>
</g>
</g>
<!-- Node13&#45;&gt;Node12 -->
<g id="edge4" class="edge">
<title>Node13&#45;&gt;Node12</title>
<path fill="none" stroke="#191970" d="M89,-272.0501C89,-263.2205 89,-253.0001 89,-244.7892"/>
<polygon fill="#191970" stroke="#191970" points="85.5001,-272.2343 89,-282.2344 92.5001,-272.2344 85.5001,-272.2343"/>
</g>
<!-- Node14 -->
<g id="node6" class="node">
<title>Node14</title>
<g id="a_node6"><a xlink:href="structLIEF_1_1PE_1_1pe__code__integrity.html" target="_top" xlink:title="LIEF::PE::pe_code_integrity">
<polygon fill="#ffffff" stroke="#000000" points="182,-152 182,-171 328,-171 328,-152 182,-152"/>
<text text-anchor="middle" x="255" y="-159" font-family="Helvetica,sans-Serif" font-size="10.00" fill="#000000">LIEF::PE::pe_code_integrity</text>
</a>
</g>
</g>
<!-- Node14&#45;&gt;Node10 -->
<g id="edge5" class="edge">
<title>Node14&#45;&gt;Node10</title>
<path fill="none" stroke="#9a32cd" stroke-dasharray="5,2" d="M237.4395,-144.9973C222.9074,-131.3407 202.4238,-112.0911 188.262,-98.7824"/>
<polygon fill="#9a32cd" stroke="#9a32cd" points="235.1385,-147.638 244.8226,-151.9357 239.9323,-142.537 235.1385,-147.638"/>
<text text-anchor="middle" x="254" y="-120" font-family="Helvetica,sans-Serif" font-size="10.00" fill="#000000"> CodeIntegrity</text>
</g>
</g>
</svg>
