<?xml version="1.0" encoding="UTF-8" standalone="no"?>
<!DOCTYPE svg PUBLIC "-//W3C//DTD SVG 1.1//EN"
 "http://www.w3.org/Graphics/SVG/1.1/DTD/svg11.dtd">
<!-- Generated by graphviz version 2.40.1 (20161225.0304)
 -->
<!-- Title: LIEF::ELF::Elf32_Prstatus Pages: 1 -->
<svg width="272pt" height="128pt"
 viewBox="0.00 0.00 271.50 128.00" xmlns="http://www.w3.org/2000/svg" xmlns:xlink="http://www.w3.org/1999/xlink">
<g id="graph0" class="graph" transform="scale(1 1) rotate(0) translate(4 124)">
<title>LIEF::ELF::Elf32_Prstatus</title>
<polygon fill="#ffffff" stroke="transparent" points="-4,4 -4,-124 267.5,-124 267.5,4 -4,4"/>
<!-- Node1 -->
<g id="node1" class="node">
<title>Node1</title>
<polygon fill="#bfbfbf" stroke="#000000" points="69,-.5 69,-19.5 202,-19.5 202,-.5 69,-.5"/>
<text text-anchor="middle" x="135.5" y="-7.5" font-family="Helvetica,sans-Serif" font-size="10.00" fill="#000000">LIEF::ELF::Elf32_Prstatus</text>
</g>
<!-- Node2 -->
<g id="node2" class="node">
<title>Node2</title>
<g id="a_node2"><a xlink:href="structLIEF_1_1ELF_1_1Elf32__timeval.html" target="_top" xlink:title="LIEF::ELF::Elf32_timeval">
<polygon fill="#ffffff" stroke="#000000" points="0,-100.5 0,-119.5 131,-119.5 131,-100.5 0,-100.5"/>
<text text-anchor="middle" x="65.5" y="-107.5" font-family="Helvetica,sans-Serif" font-size="10.00" fill="#000000">LIEF::ELF::Elf32_timeval</text>
</a>
</g>
</g>
<!-- Node2&#45;&gt;Node1 -->
<g id="edge1" class="edge">
<title>Node2&#45;&gt;Node1</title>
<path fill="none" stroke="#9a32cd" stroke-dasharray="5,2" d="M78.1199,-91.9716C92.9524,-70.7823 117.0217,-36.3976 128.7056,-19.7063"/>
<polygon fill="#9a32cd" stroke="#9a32cd" points="75.0792,-90.2121 72.2119,-100.4116 80.8139,-94.2264 75.0792,-90.2121"/>
<text text-anchor="middle" x="141.5" y="-74" font-family="Helvetica,sans-Serif" font-size="10.00" fill="#000000"> pr_cstime</text>
<text text-anchor="middle" x="141.5" y="-63" font-family="Helvetica,sans-Serif" font-size="10.00" fill="#000000">pr_stime</text>
<text text-anchor="middle" x="141.5" y="-52" font-family="Helvetica,sans-Serif" font-size="10.00" fill="#000000">pr_cutime</text>
<text text-anchor="middle" x="141.5" y="-41" font-family="Helvetica,sans-Serif" font-size="10.00" fill="#000000">pr_utime</text>
</g>
<!-- Node3 -->
<g id="node3" class="node">
<title>Node3</title>
<g id="a_node3"><a xlink:href="structLIEF_1_1ELF_1_1Elf__siginfo.html" target="_top" xlink:title="LIEF::ELF::Elf_siginfo">
<polygon fill="#ffffff" stroke="#000000" points="149.5,-100.5 149.5,-119.5 263.5,-119.5 263.5,-100.5 149.5,-100.5"/>
<text text-anchor="middle" x="206.5" y="-107.5" font-family="Helvetica,sans-Serif" font-size="10.00" fill="#000000">LIEF::ELF::Elf_siginfo</text>
</a>
</g>
</g>
<!-- Node3&#45;&gt;Node1 -->
<g id="edge2" class="edge">
<title>Node3&#45;&gt;Node1</title>
<path fill="none" stroke="#9a32cd" stroke-dasharray="5,2" d="M199.9689,-90.8623C194.11,-75.5114 184.4411,-53.9668 171.5,-38 165.7167,-30.8646 157.783,-24.4467 150.835,-19.561"/>
<polygon fill="#9a32cd" stroke="#9a32cd" points="196.7116,-92.1469 203.4098,-100.3558 203.2927,-89.7616 196.7116,-92.1469"/>
<text text-anchor="middle" x="214" y="-57.5" font-family="Helvetica,sans-Serif" font-size="10.00" fill="#000000"> pr_info</text>
</g>
</g>
</svg>
