<?xml version="1.0" encoding="UTF-8" standalone="no"?>
<!DOCTYPE svg PUBLIC "-//W3C//DTD SVG 1.1//EN"
 "http://www.w3.org/Graphics/SVG/1.1/DTD/svg11.dtd">
<!-- Generated by graphviz version 2.40.1 (20161225.0304)
 -->
<!-- Title: LIEF::PE::load_configuration_v1&lt; T &gt; Pages: 1 -->
<svg width="186pt" height="162pt"
 viewBox="0.00 0.00 186.00 162.00" xmlns="http://www.w3.org/2000/svg" xmlns:xlink="http://www.w3.org/1999/xlink">
<g id="graph0" class="graph" transform="scale(1 1) rotate(0) translate(4 158)">
<title>LIEF::PE::load_configuration_v1&lt; T &gt;</title>
<polygon fill="#ffffff" stroke="transparent" points="-4,4 -4,-158 182,-158 182,4 -4,4"/>
<!-- Node9 -->
<g id="node1" class="node">
<title>Node9</title>
<polygon fill="#bfbfbf" stroke="#000000" points="14.5,-.5 14.5,-30.5 163.5,-30.5 163.5,-.5 14.5,-.5"/>
<text text-anchor="start" x="22.5" y="-18.5" font-family="Helvetica,sans-Serif" font-size="10.00" fill="#000000">LIEF::PE::load_configuration</text>
<text text-anchor="middle" x="89" y="-7.5" font-family="Helvetica,sans-Serif" font-size="10.00" fill="#000000">_v1&lt; T &gt;</text>
</g>
<!-- Node10 -->
<g id="node2" class="node">
<title>Node10</title>
<g id="a_node2"><a xlink:href="structLIEF_1_1PE_1_1load__configuration__v0.html" target="_top" xlink:title="LIEF::PE::load_configuration\l_v0\&lt; T \&gt;">
<polygon fill="#ffffff" stroke="#000000" points="14.5,-67.5 14.5,-97.5 163.5,-97.5 163.5,-67.5 14.5,-67.5"/>
<text text-anchor="start" x="22.5" y="-85.5" font-family="Helvetica,sans-Serif" font-size="10.00" fill="#000000">LIEF::PE::load_configuration</text>
<text text-anchor="middle" x="89" y="-74.5" font-family="Helvetica,sans-Serif" font-size="10.00" fill="#000000">_v0&lt; T &gt;</text>
</a>
</g>
</g>
<!-- Node10&#45;&gt;Node9 -->
<g id="edge1" class="edge">
<title>Node10&#45;&gt;Node9</title>
<path fill="none" stroke="#191970" d="M89,-57.0249C89,-48.128 89,-38.4287 89,-30.6432"/>
<polygon fill="#191970" stroke="#191970" points="85.5001,-57.2966 89,-67.2967 92.5001,-57.2967 85.5001,-57.2966"/>
</g>
<!-- Node11 -->
<g id="node3" class="node">
<title>Node11</title>
<g id="a_node3"><a xlink:href="structLIEF_1_1PE_1_1load__configuration.html" target="_top" xlink:title="LIEF::PE::load_configuration\&lt; T \&gt;">
<polygon fill="#ffffff" stroke="#000000" points="0,-134.5 0,-153.5 178,-153.5 178,-134.5 0,-134.5"/>
<text text-anchor="middle" x="89" y="-141.5" font-family="Helvetica,sans-Serif" font-size="10.00" fill="#000000">LIEF::PE::load_configuration&lt; T &gt;</text>
</a>
</g>
</g>
<!-- Node11&#45;&gt;Node10 -->
<g id="edge2" class="edge">
<title>Node11&#45;&gt;Node10</title>
<path fill="none" stroke="#191970" d="M89,-124.3693C89,-115.681 89,-105.6241 89,-97.5446"/>
<polygon fill="#191970" stroke="#191970" points="85.5001,-124.3906 89,-134.3906 92.5001,-124.3907 85.5001,-124.3906"/>
</g>
</g>
</svg>
