<?xml version="1.0" encoding="UTF-8" standalone="no"?>
<!DOCTYPE svg PUBLIC "-//W3C//DTD SVG 1.1//EN"
 "http://www.w3.org/Graphics/SVG/1.1/DTD/svg11.dtd">
<!-- Generated by graphviz version 2.40.1 (20161225.0304)
 -->
<!-- Title: LIEF::PE::load_configuration_v2&lt; T &gt; Pages: 1 -->
<svg width="336pt" height="242pt"
 viewBox="0.00 0.00 336.00 242.00" xmlns="http://www.w3.org/2000/svg" xmlns:xlink="http://www.w3.org/1999/xlink">
<g id="graph0" class="graph" transform="scale(1 1) rotate(0) translate(4 238)">
<title>LIEF::PE::load_configuration_v2&lt; T &gt;</title>
<polygon fill="#ffffff" stroke="transparent" points="-4,4 -4,-238 332,-238 332,4 -4,4"/>
<!-- Node9 -->
<g id="node1" class="node">
<title>Node9</title>
<polygon fill="#bfbfbf" stroke="#000000" points="97.5,-.5 97.5,-30.5 246.5,-30.5 246.5,-.5 97.5,-.5"/>
<text text-anchor="start" x="105.5" y="-18.5" font-family="Helvetica,sans-Serif" font-size="10.00" fill="#000000">LIEF::PE::load_configuration</text>
<text text-anchor="middle" x="172" y="-7.5" font-family="Helvetica,sans-Serif" font-size="10.00" fill="#000000">_v2&lt; T &gt;</text>
</g>
<!-- Node10 -->
<g id="node2" class="node">
<title>Node10</title>
<g id="a_node2"><a xlink:href="structLIEF_1_1PE_1_1load__configuration__v1.html" target="_top" xlink:title="LIEF::PE::load_configuration\l_v1\&lt; T \&gt;">
<polygon fill="#ffffff" stroke="#000000" points="14.5,-78.5 14.5,-108.5 163.5,-108.5 163.5,-78.5 14.5,-78.5"/>
<text text-anchor="start" x="22.5" y="-96.5" font-family="Helvetica,sans-Serif" font-size="10.00" fill="#000000">LIEF::PE::load_configuration</text>
<text text-anchor="middle" x="89" y="-85.5" font-family="Helvetica,sans-Serif" font-size="10.00" fill="#000000">_v1&lt; T &gt;</text>
</a>
</g>
</g>
<!-- Node10&#45;&gt;Node9 -->
<g id="edge1" class="edge">
<title>Node10&#45;&gt;Node9</title>
<path fill="none" stroke="#191970" d="M112.3,-71.6036C126.1529,-58.5853 143.3797,-42.3962 155.7627,-30.7592"/>
<polygon fill="#191970" stroke="#191970" points="109.8935,-69.0621 105.0032,-78.4608 114.6873,-74.1631 109.8935,-69.0621"/>
</g>
<!-- Node11 -->
<g id="node3" class="node">
<title>Node11</title>
<g id="a_node3"><a xlink:href="structLIEF_1_1PE_1_1load__configuration__v0.html" target="_top" xlink:title="LIEF::PE::load_configuration\l_v0\&lt; T \&gt;">
<polygon fill="#ffffff" stroke="#000000" points="14.5,-146.5 14.5,-176.5 163.5,-176.5 163.5,-146.5 14.5,-146.5"/>
<text text-anchor="start" x="22.5" y="-164.5" font-family="Helvetica,sans-Serif" font-size="10.00" fill="#000000">LIEF::PE::load_configuration</text>
<text text-anchor="middle" x="89" y="-153.5" font-family="Helvetica,sans-Serif" font-size="10.00" fill="#000000">_v0&lt; T &gt;</text>
</a>
</g>
</g>
<!-- Node11&#45;&gt;Node10 -->
<g id="edge2" class="edge">
<title>Node11&#45;&gt;Node10</title>
<path fill="none" stroke="#191970" d="M89,-136.1174C89,-126.8378 89,-116.6413 89,-108.5492"/>
<polygon fill="#191970" stroke="#191970" points="85.5001,-136.4086 89,-146.4086 92.5001,-136.4086 85.5001,-136.4086"/>
</g>
<!-- Node12 -->
<g id="node4" class="node">
<title>Node12</title>
<g id="a_node4"><a xlink:href="structLIEF_1_1PE_1_1load__configuration.html" target="_top" xlink:title="LIEF::PE::load_configuration\&lt; T \&gt;">
<polygon fill="#ffffff" stroke="#000000" points="0,-214.5 0,-233.5 178,-233.5 178,-214.5 0,-214.5"/>
<text text-anchor="middle" x="89" y="-221.5" font-family="Helvetica,sans-Serif" font-size="10.00" fill="#000000">LIEF::PE::load_configuration&lt; T &gt;</text>
</a>
</g>
</g>
<!-- Node12&#45;&gt;Node11 -->
<g id="edge3" class="edge">
<title>Node12&#45;&gt;Node11</title>
<path fill="none" stroke="#191970" d="M89,-204.0501C89,-195.2205 89,-185.0001 89,-176.7892"/>
<polygon fill="#191970" stroke="#191970" points="85.5001,-204.2343 89,-214.2344 92.5001,-204.2344 85.5001,-204.2343"/>
</g>
<!-- Node13 -->
<g id="node5" class="node">
<title>Node13</title>
<g id="a_node5"><a xlink:href="structLIEF_1_1PE_1_1pe__code__integrity.html" target="_top" xlink:title="LIEF::PE::pe_code_integrity">
<polygon fill="#ffffff" stroke="#000000" points="182,-84 182,-103 328,-103 328,-84 182,-84"/>
<text text-anchor="middle" x="255" y="-91" font-family="Helvetica,sans-Serif" font-size="10.00" fill="#000000">LIEF::PE::pe_code_integrity</text>
</a>
</g>
</g>
<!-- Node13&#45;&gt;Node9 -->
<g id="edge4" class="edge">
<title>Node13&#45;&gt;Node9</title>
<path fill="none" stroke="#9a32cd" stroke-dasharray="5,2" d="M237.4395,-76.9973C222.9074,-63.3407 202.4238,-44.0911 188.262,-30.7824"/>
<polygon fill="#9a32cd" stroke="#9a32cd" points="235.1385,-79.638 244.8226,-83.9357 239.9323,-74.537 235.1385,-79.638"/>
<text text-anchor="middle" x="254" y="-52" font-family="Helvetica,sans-Serif" font-size="10.00" fill="#000000"> CodeIntegrity</text>
</g>
</g>
</svg>
