<?xml version="1.0" encoding="UTF-8" standalone="no"?>
<!DOCTYPE svg PUBLIC "-//W3C//DTD SVG 1.1//EN"
 "http://www.w3.org/Graphics/SVG/1.1/DTD/svg11.dtd">
<!-- Generated by graphviz version 2.40.1 (20161225.0304)
 -->
<!-- Title: Elf64_Prstatus Pages: 1 -->
<svg width="178pt" height="128pt"
 viewBox="0.00 0.00 178.00 128.00" xmlns="http://www.w3.org/2000/svg" xmlns:xlink="http://www.w3.org/1999/xlink">
<g id="graph0" class="graph" transform="scale(1 1) rotate(0) translate(4 124)">
<title>Elf64_Prstatus</title>
<polygon fill="#ffffff" stroke="transparent" points="-4,4 -4,-124 174,-124 174,4 -4,4"/>
<!-- Node1 -->
<g id="node1" class="node">
<title>Node1</title>
<polygon fill="#bfbfbf" stroke="#000000" points="46,-.5 46,-19.5 132,-19.5 132,-.5 46,-.5"/>
<text text-anchor="middle" x="89" y="-7.5" font-family="Helvetica,sans-Serif" font-size="10.00" fill="#000000">Elf64_Prstatus</text>
</g>
<!-- Node2 -->
<g id="node2" class="node">
<title>Node2</title>
<g id="a_node2"><a xlink:href="structElf64__timeval.html" target="_top" xlink:title="Elf64_timeval">
<polygon fill="#ffffff" stroke="#000000" points="0,-100.5 0,-119.5 84,-119.5 84,-100.5 0,-100.5"/>
<text text-anchor="middle" x="42" y="-107.5" font-family="Helvetica,sans-Serif" font-size="10.00" fill="#000000">Elf64_timeval</text>
</a>
</g>
</g>
<!-- Node2&#45;&gt;Node1 -->
<g id="edge1" class="edge">
<title>Node2&#45;&gt;Node1</title>
<path fill="none" stroke="#9a32cd" stroke-dasharray="5,2" d="M44.8455,-89.8524C47.6032,-74.8123 52.7686,-54.1573 62,-38 65.9531,-31.0811 71.9984,-24.5916 77.3673,-19.6056"/>
<polygon fill="#9a32cd" stroke="#9a32cd" points="41.3309,-89.6592 43.1785,-100.0917 48.24,-90.7841 41.3309,-89.6592"/>
<text text-anchor="middle" x="88" y="-74" font-family="Helvetica,sans-Serif" font-size="10.00" fill="#000000"> pr_cstime</text>
<text text-anchor="middle" x="88" y="-63" font-family="Helvetica,sans-Serif" font-size="10.00" fill="#000000">pr_stime</text>
<text text-anchor="middle" x="88" y="-52" font-family="Helvetica,sans-Serif" font-size="10.00" fill="#000000">pr_cutime</text>
<text text-anchor="middle" x="88" y="-41" font-family="Helvetica,sans-Serif" font-size="10.00" fill="#000000">pr_utime</text>
</g>
<!-- Node3 -->
<g id="node3" class="node">
<title>Node3</title>
<g id="a_node3"><a xlink:href="structElf__siginfo.html" target="_top" xlink:title="Elf_siginfo">
<polygon fill="#ffffff" stroke="#000000" points="102,-100.5 102,-119.5 170,-119.5 170,-100.5 102,-100.5"/>
<text text-anchor="middle" x="136" y="-107.5" font-family="Helvetica,sans-Serif" font-size="10.00" fill="#000000">Elf_siginfo</text>
</a>
</g>
</g>
<!-- Node3&#45;&gt;Node1 -->
<g id="edge2" class="edge">
<title>Node3&#45;&gt;Node1</title>
<path fill="none" stroke="#9a32cd" stroke-dasharray="5,2" d="M132.3143,-89.9569C128.994,-74.9707 123.1965,-54.3374 114,-38 110.164,-31.1854 104.4311,-24.6071 99.4225,-19.541"/>
<polygon fill="#9a32cd" stroke="#9a32cd" points="128.9646,-91.0487 134.3858,-100.1514 135.8244,-89.6547 128.9646,-91.0487"/>
<text text-anchor="middle" x="148.5" y="-57.5" font-family="Helvetica,sans-Serif" font-size="10.00" fill="#000000"> pr_info</text>
</g>
</g>
</svg>
