<?xml version="1.0" encoding="UTF-8" standalone="no"?>
<!DOCTYPE svg PUBLIC "-//W3C//DTD SVG 1.1//EN"
 "http://www.w3.org/Graphics/SVG/1.1/DTD/svg11.dtd">
<!-- Generated by graphviz version 2.40.1 (20161225.0304)
 -->
<!-- Title: LIEF::PE::load_configuration_v3&lt; T &gt; Pages: 1 -->
<svg width="186pt" height="564pt"
 viewBox="0.00 0.00 186.00 564.00" xmlns="http://www.w3.org/2000/svg" xmlns:xlink="http://www.w3.org/1999/xlink">
<g id="graph0" class="graph" transform="scale(1 1) rotate(0) translate(4 560)">
<title>LIEF::PE::load_configuration_v3&lt; T &gt;</title>
<polygon fill="#ffffff" stroke="transparent" points="-4,4 -4,-560 182,-560 182,4 -4,4"/>
<!-- Node0 -->
<g id="node1" class="node">
<title>Node0</title>
<polygon fill="#bfbfbf" stroke="#000000" points="14.5,-268.5 14.5,-298.5 163.5,-298.5 163.5,-268.5 14.5,-268.5"/>
<text text-anchor="start" x="22.5" y="-286.5" font-family="Helvetica,sans-Serif" font-size="10.00" fill="#000000">LIEF::PE::load_configuration</text>
<text text-anchor="middle" x="89" y="-275.5" font-family="Helvetica,sans-Serif" font-size="10.00" fill="#000000">_v3&lt; T &gt;</text>
</g>
<!-- Node5 -->
<g id="node6" class="node">
<title>Node5</title>
<g id="a_node6"><a xlink:href="structLIEF_1_1PE_1_1load__configuration__v4.html" target="_top" xlink:title="LIEF::PE::load_configuration\l_v4\&lt; T \&gt;">
<polygon fill="#ffffff" stroke="#000000" points="14.5,-201.5 14.5,-231.5 163.5,-231.5 163.5,-201.5 14.5,-201.5"/>
<text text-anchor="start" x="22.5" y="-219.5" font-family="Helvetica,sans-Serif" font-size="10.00" fill="#000000">LIEF::PE::load_configuration</text>
<text text-anchor="middle" x="89" y="-208.5" font-family="Helvetica,sans-Serif" font-size="10.00" fill="#000000">_v4&lt; T &gt;</text>
</a>
</g>
</g>
<!-- Node0&#45;&gt;Node5 -->
<g id="edge5" class="edge">
<title>Node0&#45;&gt;Node5</title>
<path fill="none" stroke="#191970" d="M89,-258.0249C89,-249.128 89,-239.4287 89,-231.6432"/>
<polygon fill="#191970" stroke="#191970" points="85.5001,-258.2966 89,-268.2967 92.5001,-258.2967 85.5001,-258.2966"/>
</g>
<!-- Node1 -->
<g id="node2" class="node">
<title>Node1</title>
<g id="a_node2"><a xlink:href="structLIEF_1_1PE_1_1load__configuration__v2.html" target="_top" xlink:title="LIEF::PE::load_configuration\l_v2\&lt; T \&gt;">
<polygon fill="#ffffff" stroke="#000000" points="14.5,-335.5 14.5,-365.5 163.5,-365.5 163.5,-335.5 14.5,-335.5"/>
<text text-anchor="start" x="22.5" y="-353.5" font-family="Helvetica,sans-Serif" font-size="10.00" fill="#000000">LIEF::PE::load_configuration</text>
<text text-anchor="middle" x="89" y="-342.5" font-family="Helvetica,sans-Serif" font-size="10.00" fill="#000000">_v2&lt; T &gt;</text>
</a>
</g>
</g>
<!-- Node1&#45;&gt;Node0 -->
<g id="edge1" class="edge">
<title>Node1&#45;&gt;Node0</title>
<path fill="none" stroke="#191970" d="M89,-325.0249C89,-316.128 89,-306.4287 89,-298.6432"/>
<polygon fill="#191970" stroke="#191970" points="85.5001,-325.2966 89,-335.2967 92.5001,-325.2967 85.5001,-325.2966"/>
</g>
<!-- Node2 -->
<g id="node3" class="node">
<title>Node2</title>
<g id="a_node3"><a xlink:href="structLIEF_1_1PE_1_1load__configuration__v1.html" target="_top" xlink:title="LIEF::PE::load_configuration\l_v1\&lt; T \&gt;">
<polygon fill="#ffffff" stroke="#000000" points="14.5,-402.5 14.5,-432.5 163.5,-432.5 163.5,-402.5 14.5,-402.5"/>
<text text-anchor="start" x="22.5" y="-420.5" font-family="Helvetica,sans-Serif" font-size="10.00" fill="#000000">LIEF::PE::load_configuration</text>
<text text-anchor="middle" x="89" y="-409.5" font-family="Helvetica,sans-Serif" font-size="10.00" fill="#000000">_v1&lt; T &gt;</text>
</a>
</g>
</g>
<!-- Node2&#45;&gt;Node1 -->
<g id="edge2" class="edge">
<title>Node2&#45;&gt;Node1</title>
<path fill="none" stroke="#191970" d="M89,-392.0249C89,-383.128 89,-373.4287 89,-365.6432"/>
<polygon fill="#191970" stroke="#191970" points="85.5001,-392.2966 89,-402.2967 92.5001,-392.2967 85.5001,-392.2966"/>
</g>
<!-- Node3 -->
<g id="node4" class="node">
<title>Node3</title>
<g id="a_node4"><a xlink:href="structLIEF_1_1PE_1_1load__configuration__v0.html" target="_top" xlink:title="LIEF::PE::load_configuration\l_v0\&lt; T \&gt;">
<polygon fill="#ffffff" stroke="#000000" points="14.5,-469.5 14.5,-499.5 163.5,-499.5 163.5,-469.5 14.5,-469.5"/>
<text text-anchor="start" x="22.5" y="-487.5" font-family="Helvetica,sans-Serif" font-size="10.00" fill="#000000">LIEF::PE::load_configuration</text>
<text text-anchor="middle" x="89" y="-476.5" font-family="Helvetica,sans-Serif" font-size="10.00" fill="#000000">_v0&lt; T &gt;</text>
</a>
</g>
</g>
<!-- Node3&#45;&gt;Node2 -->
<g id="edge3" class="edge">
<title>Node3&#45;&gt;Node2</title>
<path fill="none" stroke="#191970" d="M89,-459.0249C89,-450.128 89,-440.4287 89,-432.6432"/>
<polygon fill="#191970" stroke="#191970" points="85.5001,-459.2966 89,-469.2967 92.5001,-459.2967 85.5001,-459.2966"/>
</g>
<!-- Node4 -->
<g id="node5" class="node">
<title>Node4</title>
<g id="a_node5"><a xlink:href="structLIEF_1_1PE_1_1load__configuration.html" target="_top" xlink:title="LIEF::PE::load_configuration\&lt; T \&gt;">
<polygon fill="#ffffff" stroke="#000000" points="0,-536.5 0,-555.5 178,-555.5 178,-536.5 0,-536.5"/>
<text text-anchor="middle" x="89" y="-543.5" font-family="Helvetica,sans-Serif" font-size="10.00" fill="#000000">LIEF::PE::load_configuration&lt; T &gt;</text>
</a>
</g>
</g>
<!-- Node4&#45;&gt;Node3 -->
<g id="edge4" class="edge">
<title>Node4&#45;&gt;Node3</title>
<path fill="none" stroke="#191970" d="M89,-526.3693C89,-517.681 89,-507.6241 89,-499.5446"/>
<polygon fill="#191970" stroke="#191970" points="85.5001,-526.3906 89,-536.3906 92.5001,-526.3907 85.5001,-526.3906"/>
</g>
<!-- Node6 -->
<g id="node7" class="node">
<title>Node6</title>
<g id="a_node7"><a xlink:href="structLIEF_1_1PE_1_1load__configuration__v5.html" target="_top" xlink:title="LIEF::PE::load_configuration\l_v5\&lt; T \&gt;">
<polygon fill="#ffffff" stroke="#000000" points="14.5,-134.5 14.5,-164.5 163.5,-164.5 163.5,-134.5 14.5,-134.5"/>
<text text-anchor="start" x="22.5" y="-152.5" font-family="Helvetica,sans-Serif" font-size="10.00" fill="#000000">LIEF::PE::load_configuration</text>
<text text-anchor="middle" x="89" y="-141.5" font-family="Helvetica,sans-Serif" font-size="10.00" fill="#000000">_v5&lt; T &gt;</text>
</a>
</g>
</g>
<!-- Node5&#45;&gt;Node6 -->
<g id="edge6" class="edge">
<title>Node5&#45;&gt;Node6</title>
<path fill="none" stroke="#191970" d="M89,-191.0249C89,-182.128 89,-172.4287 89,-164.6432"/>
<polygon fill="#191970" stroke="#191970" points="85.5001,-191.2966 89,-201.2967 92.5001,-191.2967 85.5001,-191.2966"/>
</g>
<!-- Node7 -->
<g id="node8" class="node">
<title>Node7</title>
<g id="a_node8"><a xlink:href="structLIEF_1_1PE_1_1load__configuration__v6.html" target="_top" xlink:title="LIEF::PE::load_configuration\l_v6\&lt; T \&gt;">
<polygon fill="#ffffff" stroke="#000000" points="14.5,-67.5 14.5,-97.5 163.5,-97.5 163.5,-67.5 14.5,-67.5"/>
<text text-anchor="start" x="22.5" y="-85.5" font-family="Helvetica,sans-Serif" font-size="10.00" fill="#000000">LIEF::PE::load_configuration</text>
<text text-anchor="middle" x="89" y="-74.5" font-family="Helvetica,sans-Serif" font-size="10.00" fill="#000000">_v6&lt; T &gt;</text>
</a>
</g>
</g>
<!-- Node6&#45;&gt;Node7 -->
<g id="edge7" class="edge">
<title>Node6&#45;&gt;Node7</title>
<path fill="none" stroke="#191970" d="M89,-124.0249C89,-115.128 89,-105.4287 89,-97.6432"/>
<polygon fill="#191970" stroke="#191970" points="85.5001,-124.2966 89,-134.2967 92.5001,-124.2967 85.5001,-124.2966"/>
</g>
<!-- Node8 -->
<g id="node9" class="node">
<title>Node8</title>
<g id="a_node9"><a xlink:href="structLIEF_1_1PE_1_1load__configuration__v7.html" target="_top" xlink:title="LIEF::PE::load_configuration\l_v7\&lt; T \&gt;">
<polygon fill="#ffffff" stroke="#000000" points="14.5,-.5 14.5,-30.5 163.5,-30.5 163.5,-.5 14.5,-.5"/>
<text text-anchor="start" x="22.5" y="-18.5" font-family="Helvetica,sans-Serif" font-size="10.00" fill="#000000">LIEF::PE::load_configuration</text>
<text text-anchor="middle" x="89" y="-7.5" font-family="Helvetica,sans-Serif" font-size="10.00" fill="#000000">_v7&lt; T &gt;</text>
</a>
</g>
</g>
<!-- Node7&#45;&gt;Node8 -->
<g id="edge8" class="edge">
<title>Node7&#45;&gt;Node8</title>
<path fill="none" stroke="#191970" d="M89,-57.0249C89,-48.128 89,-38.4287 89,-30.6432"/>
<polygon fill="#191970" stroke="#191970" points="85.5001,-57.2966 89,-67.2967 92.5001,-57.2967 85.5001,-57.2966"/>
</g>
</g>
</svg>
