<?xml version="1.0" encoding="UTF-8" standalone="no"?>
<!DOCTYPE svg PUBLIC "-//W3C//DTD SVG 1.1//EN"
 "http://www.w3.org/Graphics/SVG/1.1/DTD/svg11.dtd">
<!-- Generated by graphviz version 2.40.1 (20161225.0304)
 -->
<!-- Title: Macho_Binary_t Pages: 1 -->
<svg width="575pt" height="162pt"
 viewBox="0.00 0.00 574.50 162.00" xmlns="http://www.w3.org/2000/svg" xmlns:xlink="http://www.w3.org/1999/xlink">
<g id="graph0" class="graph" transform="scale(1 1) rotate(0) translate(4 158)">
<title>Macho_Binary_t</title>
<polygon fill="#ffffff" stroke="transparent" points="-4,4 -4,-158 570.5,-158 570.5,4 -4,4"/>
<!-- Node1 -->
<g id="node1" class="node">
<title>Node1</title>
<polygon fill="#bfbfbf" stroke="#000000" points="229,-.5 229,-19.5 323,-19.5 323,-.5 229,-.5"/>
<text text-anchor="middle" x="276" y="-7.5" font-family="Helvetica,sans-Serif" font-size="10.00" fill="#000000">Macho_Binary_t</text>
</g>
<!-- Node2 -->
<g id="node2" class="node">
<title>Node2</title>
<g id="a_node2"><a xlink:href="structMacho__Segment__t.html" target="_top" xlink:title="Macho_Segment_t">
<polygon fill="#ffffff" stroke="#000000" points="95,-67.5 95,-86.5 201,-86.5 201,-67.5 95,-67.5"/>
<text text-anchor="middle" x="148" y="-74.5" font-family="Helvetica,sans-Serif" font-size="10.00" fill="#000000">Macho_Segment_t</text>
</a>
</g>
</g>
<!-- Node2&#45;&gt;Node1 -->
<g id="edge1" class="edge">
<title>Node2&#45;&gt;Node1</title>
<path fill="none" stroke="#9a32cd" stroke-dasharray="5,2" d="M174.2004,-62.5408C187.8058,-55.1004 204.7349,-45.9479 220,-38 232.0516,-31.7253 245.6855,-24.9025 256.4831,-19.5629"/>
<polygon fill="#9a32cd" stroke="#9a32cd" points="172.458,-59.5045 165.3735,-67.3824 175.8244,-65.6419 172.458,-59.5045"/>
<text text-anchor="middle" x="246" y="-41" font-family="Helvetica,sans-Serif" font-size="10.00" fill="#000000"> segments</text>
</g>
<!-- Node3 -->
<g id="node3" class="node">
<title>Node3</title>
<g id="a_node3"><a xlink:href="structMacho__Section__t.html" target="_top" xlink:title="Macho_Section_t">
<polygon fill="#ffffff" stroke="#000000" points="0,-134.5 0,-153.5 98,-153.5 98,-134.5 0,-134.5"/>
<text text-anchor="middle" x="49" y="-141.5" font-family="Helvetica,sans-Serif" font-size="10.00" fill="#000000">Macho_Section_t</text>
</a>
</g>
</g>
<!-- Node3&#45;&gt;Node1 -->
<g id="edge5" class="edge">
<title>Node3&#45;&gt;Node1</title>
<path fill="none" stroke="#9a32cd" stroke-dasharray="5,2" d="M40.4733,-124.8211C34.3585,-107.8278 29.2266,-83.2583 42,-67 64.7964,-37.9841 167.3896,-21.8837 228.9111,-14.6821"/>
<polygon fill="#9a32cd" stroke="#9a32cd" points="37.2933,-126.2953 44.2563,-134.2807 43.7928,-123.696 37.2933,-126.2953"/>
<text text-anchor="middle" x="64" y="-74.5" font-family="Helvetica,sans-Serif" font-size="10.00" fill="#000000"> sections</text>
</g>
<!-- Node3&#45;&gt;Node2 -->
<g id="edge2" class="edge">
<title>Node3&#45;&gt;Node2</title>
<path fill="none" stroke="#9a32cd" stroke-dasharray="5,2" d="M71.6276,-128.6864C90.7703,-115.7312 117.6066,-97.5693 133.842,-86.5817"/>
<polygon fill="#9a32cd" stroke="#9a32cd" points="69.5043,-125.8971 63.1843,-134.4005 73.4277,-131.6943 69.5043,-125.8971"/>
<text text-anchor="middle" x="127" y="-108" font-family="Helvetica,sans-Serif" font-size="10.00" fill="#000000"> sections</text>
</g>
<!-- Node4 -->
<g id="node4" class="node">
<title>Node4</title>
<g id="a_node4"><a xlink:href="structMacho__Command__t.html" target="_top" xlink:title="Macho_Command_t">
<polygon fill="#ffffff" stroke="#000000" points="219.5,-67.5 219.5,-86.5 332.5,-86.5 332.5,-67.5 219.5,-67.5"/>
<text text-anchor="middle" x="276" y="-74.5" font-family="Helvetica,sans-Serif" font-size="10.00" fill="#000000">Macho_Command_t</text>
</a>
</g>
</g>
<!-- Node4&#45;&gt;Node1 -->
<g id="edge3" class="edge">
<title>Node4&#45;&gt;Node1</title>
<path fill="none" stroke="#9a32cd" stroke-dasharray="5,2" d="M276,-57.1079C276,-44.714 276,-29.3263 276,-19.5817"/>
<polygon fill="#9a32cd" stroke="#9a32cd" points="272.5001,-57.4005 276,-67.4005 279.5001,-57.4006 272.5001,-57.4005"/>
<text text-anchor="middle" x="305" y="-41" font-family="Helvetica,sans-Serif" font-size="10.00" fill="#000000"> commands</text>
</g>
<!-- Node5 -->
<g id="node5" class="node">
<title>Node5</title>
<g id="a_node5"><a xlink:href="structMacho__Header__t.html" target="_top" xlink:title="Macho_Header_t">
<polygon fill="#ffffff" stroke="#000000" points="351,-67.5 351,-86.5 449,-86.5 449,-67.5 351,-67.5"/>
<text text-anchor="middle" x="400" y="-74.5" font-family="Helvetica,sans-Serif" font-size="10.00" fill="#000000">Macho_Header_t</text>
</a>
</g>
</g>
<!-- Node5&#45;&gt;Node1 -->
<g id="edge4" class="edge">
<title>Node5&#45;&gt;Node1</title>
<path fill="none" stroke="#9a32cd" stroke-dasharray="5,2" d="M377.4619,-61.7753C365.8918,-54.231 351.4366,-45.2161 338,-38 325.4098,-31.2385 310.8703,-24.6134 299.0368,-19.5063"/>
<polygon fill="#9a32cd" stroke="#9a32cd" points="375.7749,-64.8557 386.0477,-67.448 379.6337,-59.0153 375.7749,-64.8557"/>
<text text-anchor="middle" x="373.5" y="-41" font-family="Helvetica,sans-Serif" font-size="10.00" fill="#000000"> header</text>
</g>
<!-- Node6 -->
<g id="node6" class="node">
<title>Node6</title>
<g id="a_node6"><a xlink:href="structMacho__Symbol__t.html" target="_top" xlink:title="Macho_Symbol_t">
<polygon fill="#ffffff" stroke="#000000" points="467.5,-67.5 467.5,-86.5 566.5,-86.5 566.5,-67.5 467.5,-67.5"/>
<text text-anchor="middle" x="517" y="-74.5" font-family="Helvetica,sans-Serif" font-size="10.00" fill="#000000">Macho_Symbol_t</text>
</a>
</g>
</g>
<!-- Node6&#45;&gt;Node1 -->
<g id="edge6" class="edge">
<title>Node6&#45;&gt;Node1</title>
<path fill="none" stroke="#9a32cd" stroke-dasharray="5,2" d="M479.6334,-64.0746C455.8416,-56.0646 424.2871,-45.8444 396,-38 371.2621,-31.1398 343.3488,-24.5587 320.6726,-19.5024"/>
<polygon fill="#9a32cd" stroke="#9a32cd" points="478.7281,-67.4633 489.3224,-67.3589 480.9753,-60.8338 478.7281,-67.4633"/>
<text text-anchor="middle" x="454.5" y="-41" font-family="Helvetica,sans-Serif" font-size="10.00" fill="#000000"> symbols</text>
</g>
</g>
</svg>
