<?xml version="1.0" encoding="UTF-8" standalone="no"?>
<!DOCTYPE svg PUBLIC "-//W3C//DTD SVG 1.1//EN"
 "http://www.w3.org/Graphics/SVG/1.1/DTD/svg11.dtd">
<!-- Generated by graphviz version 2.40.1 (20161225.0304)
 -->
<!-- Title: Pe_Binary_t Pages: 1 -->
<svg width="493pt" height="218pt"
 viewBox="0.00 0.00 493.00 218.00" xmlns="http://www.w3.org/2000/svg" xmlns:xlink="http://www.w3.org/1999/xlink">
<g id="graph0" class="graph" transform="scale(1 1) rotate(0) translate(4 214)">
<title>Pe_Binary_t</title>
<polygon fill="#ffffff" stroke="transparent" points="-4,4 -4,-214 489,-214 489,4 -4,4"/>
<!-- Node1 -->
<g id="node1" class="node">
<title>Node1</title>
<polygon fill="#bfbfbf" stroke="#000000" points="411,-95.5 411,-114.5 485,-114.5 485,-95.5 411,-95.5"/>
<text text-anchor="middle" x="448" y="-102.5" font-family="Helvetica,sans-Serif" font-size="10.00" fill="#000000">Pe_Binary_t</text>
</g>
<!-- Node2 -->
<g id="node2" class="node">
<title>Node2</title>
<g id="a_node2"><a xlink:href="structPe__DosHeader__t.html" target="_top" xlink:title="Pe_DosHeader_t">
<polygon fill="#ffffff" stroke="#000000" points="185,-190.5 185,-209.5 282,-209.5 282,-190.5 185,-190.5"/>
<text text-anchor="middle" x="233.5" y="-197.5" font-family="Helvetica,sans-Serif" font-size="10.00" fill="#000000">Pe_DosHeader_t</text>
</a>
</g>
</g>
<!-- Node2&#45;&gt;Node1 -->
<g id="edge1" class="edge">
<title>Node2&#45;&gt;Node1</title>
<path fill="none" stroke="#9a32cd" stroke-dasharray="5,2" d="M292.2901,-195.7261C323.8375,-191.3749 362.4068,-182.6154 393,-165 414.7978,-152.4489 432.8733,-128.3441 441.8645,-114.8204"/>
<polygon fill="#9a32cd" stroke="#9a32cd" points="291.7942,-192.2609 282.3132,-196.9896 292.6737,-199.2054 291.7942,-192.2609"/>
<text text-anchor="middle" x="352" y="-195" font-family="Helvetica,sans-Serif" font-size="10.00" fill="#000000"> dos_header</text>
</g>
<!-- Node3 -->
<g id="node3" class="node">
<title>Node3</title>
<g id="a_node3"><a xlink:href="structPe__DataDirectory__t.html" target="_top" xlink:title="Pe_DataDirectory_t">
<polygon fill="#ffffff" stroke="#000000" points="178,-152.5 178,-171.5 289,-171.5 289,-152.5 178,-152.5"/>
<text text-anchor="middle" x="233.5" y="-159.5" font-family="Helvetica,sans-Serif" font-size="10.00" fill="#000000">Pe_DataDirectory_t</text>
</a>
</g>
</g>
<!-- Node3&#45;&gt;Node1 -->
<g id="edge2" class="edge">
<title>Node3&#45;&gt;Node1</title>
<path fill="none" stroke="#9a32cd" stroke-dasharray="5,2" d="M299.4224,-152.9858C328.5343,-148.0394 362.9071,-140.865 393,-131 406.0471,-126.7229 420.0263,-120.085 430.6264,-114.587"/>
<polygon fill="#9a32cd" stroke="#9a32cd" points="298.6583,-149.5644 289.3602,-154.6433 299.7961,-156.4713 298.6583,-149.5644"/>
<text text-anchor="middle" x="352" y="-153" font-family="Helvetica,sans-Serif" font-size="10.00" fill="#000000"> data_directories</text>
</g>
<!-- Node4 -->
<g id="node4" class="node">
<title>Node4</title>
<g id="a_node4"><a xlink:href="structPe__OptionalHeader__t.html" target="_top" xlink:title="Pe_OptionalHeader_t">
<polygon fill="#ffffff" stroke="#000000" points="174,-114.5 174,-133.5 293,-133.5 293,-114.5 174,-114.5"/>
<text text-anchor="middle" x="233.5" y="-121.5" font-family="Helvetica,sans-Serif" font-size="10.00" fill="#000000">Pe_OptionalHeader_t</text>
</a>
</g>
</g>
<!-- Node4&#45;&gt;Node1 -->
<g id="edge3" class="edge">
<title>Node4&#45;&gt;Node1</title>
<path fill="none" stroke="#9a32cd" stroke-dasharray="5,2" d="M303.6267,-117.7883C339.346,-114.6244 381.3322,-110.9053 410.7901,-108.296"/>
<polygon fill="#9a32cd" stroke="#9a32cd" points="302.9024,-114.3387 293.2502,-118.7074 303.5201,-121.3114 302.9024,-114.3387"/>
<text text-anchor="middle" x="352" y="-119" font-family="Helvetica,sans-Serif" font-size="10.00" fill="#000000"> optional_header</text>
</g>
<!-- Node5 -->
<g id="node5" class="node">
<title>Node5</title>
<g id="a_node5"><a xlink:href="structPe__Section__t.html" target="_top" xlink:title="Pe_Section_t">
<polygon fill="#ffffff" stroke="#000000" points="194,-76.5 194,-95.5 273,-95.5 273,-76.5 194,-76.5"/>
<text text-anchor="middle" x="233.5" y="-83.5" font-family="Helvetica,sans-Serif" font-size="10.00" fill="#000000">Pe_Section_t</text>
</a>
</g>
</g>
<!-- Node5&#45;&gt;Node1 -->
<g id="edge4" class="edge">
<title>Node5&#45;&gt;Node1</title>
<path fill="none" stroke="#9a32cd" stroke-dasharray="5,2" d="M283.5532,-87.2389C315.0499,-88.4103 356.5017,-90.669 393,-95 398.7825,-95.6862 404.8757,-96.6 410.8163,-97.5971"/>
<polygon fill="#9a32cd" stroke="#9a32cd" points="283.3904,-83.7312 273.2749,-86.8819 283.1473,-90.727 283.3904,-83.7312"/>
<text text-anchor="middle" x="352" y="-98" font-family="Helvetica,sans-Serif" font-size="10.00" fill="#000000"> sections</text>
</g>
<!-- Node6 -->
<g id="node6" class="node">
<title>Node6</title>
<g id="a_node6"><a xlink:href="structPe__Import__t.html" target="_top" xlink:title="Pe_Import_t">
<polygon fill="#ffffff" stroke="#000000" points="196,-38.5 196,-57.5 271,-57.5 271,-38.5 196,-38.5"/>
<text text-anchor="middle" x="233.5" y="-45.5" font-family="Helvetica,sans-Serif" font-size="10.00" fill="#000000">Pe_Import_t</text>
</a>
</g>
</g>
<!-- Node6&#45;&gt;Node1 -->
<g id="edge5" class="edge">
<title>Node6&#45;&gt;Node1</title>
<path fill="none" stroke="#9a32cd" stroke-dasharray="5,2" d="M281.2851,-50.8438C313.5803,-53.8798 356.7726,-60.1357 393,-73 408.1991,-78.3972 423.9508,-88.0464 434.6812,-95.3422"/>
<polygon fill="#9a32cd" stroke="#9a32cd" points="281.4709,-47.3468 271.2052,-49.9669 280.8642,-54.3205 281.4709,-47.3468"/>
<text text-anchor="middle" x="352" y="-76" font-family="Helvetica,sans-Serif" font-size="10.00" fill="#000000"> imports</text>
</g>
<!-- Node7 -->
<g id="node7" class="node">
<title>Node7</title>
<g id="a_node7"><a xlink:href="structPe__ImportEntry__t.html" target="_top" xlink:title="Pe_ImportEntry_t">
<polygon fill="#ffffff" stroke="#000000" points="0,-38.5 0,-57.5 101,-57.5 101,-38.5 0,-38.5"/>
<text text-anchor="middle" x="50.5" y="-45.5" font-family="Helvetica,sans-Serif" font-size="10.00" fill="#000000">Pe_ImportEntry_t</text>
</a>
</g>
</g>
<!-- Node7&#45;&gt;Node6 -->
<g id="edge6" class="edge">
<title>Node7&#45;&gt;Node6</title>
<path fill="none" stroke="#9a32cd" stroke-dasharray="5,2" d="M111.5341,-48C139.4196,-48 171.5668,-48 195.8544,-48"/>
<polygon fill="#9a32cd" stroke="#9a32cd" points="111.4757,-44.5001 101.4757,-48 111.4757,-51.5001 111.4757,-44.5001"/>
<text text-anchor="middle" x="137.5" y="-51" font-family="Helvetica,sans-Serif" font-size="10.00" fill="#000000"> entries</text>
</g>
<!-- Node8 -->
<g id="node8" class="node">
<title>Node8</title>
<g id="a_node8"><a xlink:href="structPe__Header__t.html" target="_top" xlink:title="Pe_Header_t">
<polygon fill="#ffffff" stroke="#000000" points="194.5,-.5 194.5,-19.5 272.5,-19.5 272.5,-.5 194.5,-.5"/>
<text text-anchor="middle" x="233.5" y="-7.5" font-family="Helvetica,sans-Serif" font-size="10.00" fill="#000000">Pe_Header_t</text>
</a>
</g>
</g>
<!-- Node8&#45;&gt;Node1 -->
<g id="edge7" class="edge">
<title>Node8&#45;&gt;Node1</title>
<path fill="none" stroke="#9a32cd" stroke-dasharray="5,2" d="M283.1477,-10.3737C316.2552,-12.62 359.6536,-19.5532 393,-39 416.4498,-52.6753 434.3557,-80.2646 442.7481,-95.0719"/>
<polygon fill="#9a32cd" stroke="#9a32cd" points="282.9644,-6.8583 272.786,-9.7992 282.5768,-13.8476 282.9644,-6.8583"/>
<text text-anchor="middle" x="352" y="-42" font-family="Helvetica,sans-Serif" font-size="10.00" fill="#000000"> header</text>
</g>
</g>
</svg>
