<?xml version="1.0" encoding="UTF-8" standalone="no"?>
<!DOCTYPE svg PUBLIC "-//W3C//DTD SVG 1.1//EN"
 "http://www.w3.org/Graphics/SVG/1.1/DTD/svg11.dtd">
<!-- Generated by graphviz version 2.40.1 (20161225.0304)
 -->
<!-- Title: Elf_Binary_t Pages: 1 -->
<svg width="527pt" height="106pt"
 viewBox="0.00 0.00 527.00 106.00" xmlns="http://www.w3.org/2000/svg" xmlns:xlink="http://www.w3.org/1999/xlink">
<g id="graph0" class="graph" transform="scale(1 1) rotate(0) translate(4 102)">
<title>Elf_Binary_t</title>
<polygon fill="#ffffff" stroke="transparent" points="-4,4 -4,-102 523,-102 523,4 -4,4"/>
<!-- Node1 -->
<g id="node1" class="node">
<title>Node1</title>
<polygon fill="#bfbfbf" stroke="#000000" points="199,-.5 199,-19.5 274,-19.5 274,-.5 199,-.5"/>
<text text-anchor="middle" x="236.5" y="-7.5" font-family="Helvetica,sans-Serif" font-size="10.00" fill="#000000">Elf_Binary_t</text>
</g>
<!-- Node2 -->
<g id="node2" class="node">
<title>Node2</title>
<g id="a_node2"><a xlink:href="structElf__Segment__t.html" target="_top" xlink:title="Elf_Segment_t">
<polygon fill="#ffffff" stroke="#000000" points="0,-78.5 0,-97.5 87,-97.5 87,-78.5 0,-78.5"/>
<text text-anchor="middle" x="43.5" y="-85.5" font-family="Helvetica,sans-Serif" font-size="10.00" fill="#000000">Elf_Segment_t</text>
</a>
</g>
</g>
<!-- Node2&#45;&gt;Node1 -->
<g id="edge1" class="edge">
<title>Node2&#45;&gt;Node1</title>
<path fill="none" stroke="#9a32cd" stroke-dasharray="5,2" d="M60.7665,-71.5728C73.3442,-60.4903 91.3007,-46.4054 109.5,-38 137.8891,-24.8884 172.733,-17.7684 198.7379,-13.9947"/>
<polygon fill="#9a32cd" stroke="#9a32cd" points="58.3756,-69.0162 53.3294,-78.3322 63.0837,-74.1964 58.3756,-69.0162"/>
<text text-anchor="middle" x="135.5" y="-46.5" font-family="Helvetica,sans-Serif" font-size="10.00" fill="#000000"> segments</text>
</g>
<!-- Node3 -->
<g id="node3" class="node">
<title>Node3</title>
<g id="a_node3"><a xlink:href="structElf__Section__t.html" target="_top" xlink:title="Elf_Section_t">
<polygon fill="#ffffff" stroke="#000000" points="105.5,-78.5 105.5,-97.5 185.5,-97.5 185.5,-78.5 105.5,-78.5"/>
<text text-anchor="middle" x="145.5" y="-85.5" font-family="Helvetica,sans-Serif" font-size="10.00" fill="#000000">Elf_Section_t</text>
</a>
</g>
</g>
<!-- Node3&#45;&gt;Node1 -->
<g id="edge2" class="edge">
<title>Node3&#45;&gt;Node1</title>
<path fill="none" stroke="#9a32cd" stroke-dasharray="5,2" d="M158.075,-70.0679C165.7967,-59.8761 176.3268,-47.3281 187.5,-38 196.0743,-30.8417 206.7289,-24.5062 215.9108,-19.6803"/>
<polygon fill="#9a32cd" stroke="#9a32cd" points="155.1482,-68.1409 152.0667,-78.2777 160.797,-72.275 155.1482,-68.1409"/>
<text text-anchor="middle" x="209.5" y="-46.5" font-family="Helvetica,sans-Serif" font-size="10.00" fill="#000000"> sections</text>
</g>
<!-- Node4 -->
<g id="node4" class="node">
<title>Node4</title>
<g id="a_node4"><a xlink:href="structElf__Symbol__t.html" target="_top" xlink:title="Elf_Symbol_t">
<polygon fill="#ffffff" stroke="#000000" points="203.5,-78.5 203.5,-97.5 283.5,-97.5 283.5,-78.5 203.5,-78.5"/>
<text text-anchor="middle" x="243.5" y="-85.5" font-family="Helvetica,sans-Serif" font-size="10.00" fill="#000000">Elf_Symbol_t</text>
</a>
</g>
</g>
<!-- Node4&#45;&gt;Node1 -->
<g id="edge3" class="edge">
<title>Node4&#45;&gt;Node1</title>
<path fill="none" stroke="#9a32cd" stroke-dasharray="5,2" d="M238.8548,-68.6632C238.3069,-65.774 237.8272,-62.8195 237.5,-60 235.8784,-46.0285 235.9087,-29.7171 236.1496,-19.6221"/>
<polygon fill="#9a32cd" stroke="#9a32cd" points="235.4454,-69.4564 240.9884,-78.4856 242.2859,-67.9705 235.4454,-69.4564"/>
<text text-anchor="middle" x="282" y="-52" font-family="Helvetica,sans-Serif" font-size="10.00" fill="#000000"> static_symbols</text>
<text text-anchor="middle" x="282" y="-41" font-family="Helvetica,sans-Serif" font-size="10.00" fill="#000000">dynamic_symbols</text>
</g>
<!-- Node5 -->
<g id="node5" class="node">
<title>Node5</title>
<g id="a_node5"><a xlink:href="structElf__Header__t.html" target="_top" xlink:title="Elf_Header_t">
<polygon fill="#ffffff" stroke="#000000" points="309,-78.5 309,-97.5 388,-97.5 388,-78.5 309,-78.5"/>
<text text-anchor="middle" x="348.5" y="-85.5" font-family="Helvetica,sans-Serif" font-size="10.00" fill="#000000">Elf_Header_t</text>
</a>
</g>
</g>
<!-- Node5&#45;&gt;Node1 -->
<g id="edge4" class="edge">
<title>Node5&#45;&gt;Node1</title>
<path fill="none" stroke="#9a32cd" stroke-dasharray="5,2" d="M344.1506,-68.6141C340.8964,-58.2296 335.4249,-45.9703 326.5,-38 312.0978,-25.1383 291.851,-18.1846 274.2074,-14.4249"/>
<polygon fill="#9a32cd" stroke="#9a32cd" points="340.8288,-69.7409 346.791,-78.4989 347.5917,-67.9343 340.8288,-69.7409"/>
<text text-anchor="middle" x="359" y="-46.5" font-family="Helvetica,sans-Serif" font-size="10.00" fill="#000000"> header</text>
</g>
<!-- Node6 -->
<g id="node6" class="node">
<title>Node6</title>
<g id="a_node6"><a xlink:href="structElf__DynamicEntry__t.html" target="_top" xlink:title="Elf_DynamicEntry_t">
<polygon fill="#ffffff" stroke="#000000" points="406,-78.5 406,-97.5 519,-97.5 519,-78.5 406,-78.5"/>
<text text-anchor="middle" x="462.5" y="-85.5" font-family="Helvetica,sans-Serif" font-size="10.00" fill="#000000">Elf_DynamicEntry_t</text>
</a>
</g>
</g>
<!-- Node6&#45;&gt;Node1 -->
<g id="edge5" class="edge">
<title>Node6&#45;&gt;Node1</title>
<path fill="none" stroke="#9a32cd" stroke-dasharray="5,2" d="M441.6607,-72.184C425.9281,-61.0009 403.3795,-46.5339 381.5,-38 346.507,-24.3512 304.0788,-17.1542 274.185,-13.4946"/>
<polygon fill="#9a32cd" stroke="#9a32cd" points="439.9366,-75.2584 450.0796,-78.3194 444.0593,-69.6012 439.9366,-75.2584"/>
<text text-anchor="middle" x="465" y="-46.5" font-family="Helvetica,sans-Serif" font-size="10.00" fill="#000000"> dynamic_entries</text>
</g>
</g>
</svg>
