<?xml version="1.0" encoding="UTF-8" standalone="no"?>
<!DOCTYPE svg PUBLIC "-//W3C//DTD SVG 1.1//EN"
 "http://www.w3.org/Graphics/SVG/1.1/DTD/svg11.dtd">
<!-- Generated by graphviz version 2.40.1 (20161225.0304)
 -->
<!-- Title: LIEF::PE::load_configuration_v4&lt; T &gt; Pages: 1 -->
<svg width="336pt" height="378pt"
 viewBox="0.00 0.00 336.00 378.00" xmlns="http://www.w3.org/2000/svg" xmlns:xlink="http://www.w3.org/1999/xlink">
<g id="graph0" class="graph" transform="scale(1 1) rotate(0) translate(4 374)">
<title>LIEF::PE::load_configuration_v4&lt; T &gt;</title>
<polygon fill="#ffffff" stroke="transparent" points="-4,4 -4,-374 332,-374 332,4 -4,4"/>
<!-- Node9 -->
<g id="node1" class="node">
<title>Node9</title>
<polygon fill="#bfbfbf" stroke="#000000" points="97.5,-.5 97.5,-30.5 246.5,-30.5 246.5,-.5 97.5,-.5"/>
<text text-anchor="start" x="105.5" y="-18.5" font-family="Helvetica,sans-Serif" font-size="10.00" fill="#000000">LIEF::PE::load_configuration</text>
<text text-anchor="middle" x="172" y="-7.5" font-family="Helvetica,sans-Serif" font-size="10.00" fill="#000000">_v4&lt; T &gt;</text>
</g>
<!-- Node10 -->
<g id="node2" class="node">
<title>Node10</title>
<g id="a_node2"><a xlink:href="structLIEF_1_1PE_1_1load__configuration__v3.html" target="_top" xlink:title="LIEF::PE::load_configuration\l_v3\&lt; T \&gt;">
<polygon fill="#ffffff" stroke="#000000" points="97.5,-68.5 97.5,-98.5 246.5,-98.5 246.5,-68.5 97.5,-68.5"/>
<text text-anchor="start" x="105.5" y="-86.5" font-family="Helvetica,sans-Serif" font-size="10.00" fill="#000000">LIEF::PE::load_configuration</text>
<text text-anchor="middle" x="172" y="-75.5" font-family="Helvetica,sans-Serif" font-size="10.00" fill="#000000">_v3&lt; T &gt;</text>
</a>
</g>
</g>
<!-- Node10&#45;&gt;Node9 -->
<g id="edge1" class="edge">
<title>Node10&#45;&gt;Node9</title>
<path fill="none" stroke="#191970" d="M172,-58.1174C172,-48.8378 172,-38.6413 172,-30.5492"/>
<polygon fill="#191970" stroke="#191970" points="168.5001,-58.4086 172,-68.4086 175.5001,-58.4086 168.5001,-58.4086"/>
</g>
<!-- Node11 -->
<g id="node3" class="node">
<title>Node11</title>
<g id="a_node3"><a xlink:href="structLIEF_1_1PE_1_1load__configuration__v2.html" target="_top" xlink:title="LIEF::PE::load_configuration\l_v2\&lt; T \&gt;">
<polygon fill="#ffffff" stroke="#000000" points="97.5,-136.5 97.5,-166.5 246.5,-166.5 246.5,-136.5 97.5,-136.5"/>
<text text-anchor="start" x="105.5" y="-154.5" font-family="Helvetica,sans-Serif" font-size="10.00" fill="#000000">LIEF::PE::load_configuration</text>
<text text-anchor="middle" x="172" y="-143.5" font-family="Helvetica,sans-Serif" font-size="10.00" fill="#000000">_v2&lt; T &gt;</text>
</a>
</g>
</g>
<!-- Node11&#45;&gt;Node10 -->
<g id="edge2" class="edge">
<title>Node11&#45;&gt;Node10</title>
<path fill="none" stroke="#191970" d="M172,-126.1174C172,-116.8378 172,-106.6413 172,-98.5492"/>
<polygon fill="#191970" stroke="#191970" points="168.5001,-126.4086 172,-136.4086 175.5001,-126.4086 168.5001,-126.4086"/>
</g>
<!-- Node12 -->
<g id="node4" class="node">
<title>Node12</title>
<g id="a_node4"><a xlink:href="structLIEF_1_1PE_1_1load__configuration__v1.html" target="_top" xlink:title="LIEF::PE::load_configuration\l_v1\&lt; T \&gt;">
<polygon fill="#ffffff" stroke="#000000" points="14.5,-214.5 14.5,-244.5 163.5,-244.5 163.5,-214.5 14.5,-214.5"/>
<text text-anchor="start" x="22.5" y="-232.5" font-family="Helvetica,sans-Serif" font-size="10.00" fill="#000000">LIEF::PE::load_configuration</text>
<text text-anchor="middle" x="89" y="-221.5" font-family="Helvetica,sans-Serif" font-size="10.00" fill="#000000">_v1&lt; T &gt;</text>
</a>
</g>
</g>
<!-- Node12&#45;&gt;Node11 -->
<g id="edge3" class="edge">
<title>Node12&#45;&gt;Node11</title>
<path fill="none" stroke="#191970" d="M112.3,-207.6036C126.1529,-194.5853 143.3797,-178.3962 155.7627,-166.7592"/>
<polygon fill="#191970" stroke="#191970" points="109.8935,-205.0621 105.0032,-214.4608 114.6873,-210.1631 109.8935,-205.0621"/>
</g>
<!-- Node13 -->
<g id="node5" class="node">
<title>Node13</title>
<g id="a_node5"><a xlink:href="structLIEF_1_1PE_1_1load__configuration__v0.html" target="_top" xlink:title="LIEF::PE::load_configuration\l_v0\&lt; T \&gt;">
<polygon fill="#ffffff" stroke="#000000" points="14.5,-282.5 14.5,-312.5 163.5,-312.5 163.5,-282.5 14.5,-282.5"/>
<text text-anchor="start" x="22.5" y="-300.5" font-family="Helvetica,sans-Serif" font-size="10.00" fill="#000000">LIEF::PE::load_configuration</text>
<text text-anchor="middle" x="89" y="-289.5" font-family="Helvetica,sans-Serif" font-size="10.00" fill="#000000">_v0&lt; T &gt;</text>
</a>
</g>
</g>
<!-- Node13&#45;&gt;Node12 -->
<g id="edge4" class="edge">
<title>Node13&#45;&gt;Node12</title>
<path fill="none" stroke="#191970" d="M89,-272.1174C89,-262.8378 89,-252.6413 89,-244.5492"/>
<polygon fill="#191970" stroke="#191970" points="85.5001,-272.4086 89,-282.4086 92.5001,-272.4086 85.5001,-272.4086"/>
</g>
<!-- Node14 -->
<g id="node6" class="node">
<title>Node14</title>
<g id="a_node6"><a xlink:href="structLIEF_1_1PE_1_1load__configuration.html" target="_top" xlink:title="LIEF::PE::load_configuration\&lt; T \&gt;">
<polygon fill="#ffffff" stroke="#000000" points="0,-350.5 0,-369.5 178,-369.5 178,-350.5 0,-350.5"/>
<text text-anchor="middle" x="89" y="-357.5" font-family="Helvetica,sans-Serif" font-size="10.00" fill="#000000">LIEF::PE::load_configuration&lt; T &gt;</text>
</a>
</g>
</g>
<!-- Node14&#45;&gt;Node13 -->
<g id="edge5" class="edge">
<title>Node14&#45;&gt;Node13</title>
<path fill="none" stroke="#191970" d="M89,-340.0501C89,-331.2205 89,-321.0001 89,-312.7892"/>
<polygon fill="#191970" stroke="#191970" points="85.5001,-340.2343 89,-350.2344 92.5001,-340.2344 85.5001,-340.2343"/>
</g>
<!-- Node15 -->
<g id="node7" class="node">
<title>Node15</title>
<g id="a_node7"><a xlink:href="structLIEF_1_1PE_1_1pe__code__integrity.html" target="_top" xlink:title="LIEF::PE::pe_code_integrity">
<polygon fill="#ffffff" stroke="#000000" points="182,-220 182,-239 328,-239 328,-220 182,-220"/>
<text text-anchor="middle" x="255" y="-227" font-family="Helvetica,sans-Serif" font-size="10.00" fill="#000000">LIEF::PE::pe_code_integrity</text>
</a>
</g>
</g>
<!-- Node15&#45;&gt;Node11 -->
<g id="edge6" class="edge">
<title>Node15&#45;&gt;Node11</title>
<path fill="none" stroke="#9a32cd" stroke-dasharray="5,2" d="M237.4395,-212.9973C222.9074,-199.3407 202.4238,-180.0911 188.262,-166.7824"/>
<polygon fill="#9a32cd" stroke="#9a32cd" points="235.1385,-215.638 244.8226,-219.9357 239.9323,-210.537 235.1385,-215.638"/>
<text text-anchor="middle" x="254" y="-188" font-family="Helvetica,sans-Serif" font-size="10.00" fill="#000000"> CodeIntegrity</text>
</g>
</g>
</svg>
