<?xml version="1.0" encoding="UTF-8" standalone="no"?>
<!DOCTYPE svg PUBLIC "-//W3C//DTD SVG 1.1//EN"
 "http://www.w3.org/Graphics/SVG/1.1/DTD/svg11.dtd">
<!-- Generated by graphviz version 2.40.1 (20161225.0304)
 -->
<!-- Title: Auxiliary Pages: 1 -->
<svg width="343pt" height="142pt"
 viewBox="0.00 0.00 343.00 142.00" xmlns="http://www.w3.org/2000/svg" xmlns:xlink="http://www.w3.org/1999/xlink">
<g id="graph0" class="graph" transform="scale(1 1) rotate(0) translate(4 138)">
<title>Auxiliary</title>
<polygon fill="#ffffff" stroke="transparent" points="-4,4 -4,-138 339,-138 339,4 -4,4"/>
<!-- Node1 -->
<g id="node1" class="node">
<title>Node1</title>
<polygon fill="#bfbfbf" stroke="#000000" points="275,-57.5 275,-76.5 335,-76.5 335,-57.5 275,-57.5"/>
<text text-anchor="middle" x="305" y="-64.5" font-family="Helvetica,sans-Serif" font-size="10.00" fill="#000000">Auxiliary</text>
</g>
<!-- Node2 -->
<g id="node2" class="node">
<title>Node2</title>
<g id="a_node2"><a xlink:href="structAuxiliarybfAndefSymbol.html" target="_top" xlink:title="AuxiliarybfAndefSymbol">
<polygon fill="#ffffff" stroke="#000000" points="6.5,-114.5 6.5,-133.5 141.5,-133.5 141.5,-114.5 6.5,-114.5"/>
<text text-anchor="middle" x="74" y="-121.5" font-family="Helvetica,sans-Serif" font-size="10.00" fill="#000000">AuxiliarybfAndefSymbol</text>
</a>
</g>
</g>
<!-- Node2&#45;&gt;Node1 -->
<g id="edge1" class="edge">
<title>Node2&#45;&gt;Node1</title>
<path fill="none" stroke="#9a32cd" stroke-dasharray="5,2" d="M151.8782,-116.5426C184.9148,-111.9202 223.4578,-104.5683 257,-93 268.8265,-88.9212 281.2186,-82.1361 290.4488,-76.5199"/>
<polygon fill="#9a32cd" stroke="#9a32cd" points="151.2604,-113.094 141.8138,-117.8912 152.1901,-120.032 151.2604,-113.094"/>
<text text-anchor="middle" x="211.5" y="-117" font-family="Helvetica,sans-Serif" font-size="10.00" fill="#000000"> bfAndefSymbol</text>
</g>
<!-- Node3 -->
<g id="node3" class="node">
<title>Node3</title>
<g id="a_node3"><a xlink:href="structAuxiliaryFunctionDefinition.html" target="_top" xlink:title="AuxiliaryFunctionDefinition">
<polygon fill="#ffffff" stroke="#000000" points="0,-76.5 0,-95.5 148,-95.5 148,-76.5 0,-76.5"/>
<text text-anchor="middle" x="74" y="-83.5" font-family="Helvetica,sans-Serif" font-size="10.00" fill="#000000">AuxiliaryFunctionDefinition</text>
</a>
</g>
</g>
<!-- Node3&#45;&gt;Node1 -->
<g id="edge2" class="edge">
<title>Node3&#45;&gt;Node1</title>
<path fill="none" stroke="#9a32cd" stroke-dasharray="5,2" d="M158.0153,-79.0897C198.8505,-75.7309 245.3706,-71.9046 274.9406,-69.4724"/>
<polygon fill="#9a32cd" stroke="#9a32cd" points="157.7224,-75.6018 148.043,-79.9099 158.2963,-82.5783 157.7224,-75.6018"/>
<text text-anchor="middle" x="211.5" y="-81" font-family="Helvetica,sans-Serif" font-size="10.00" fill="#000000"> FunctionDefinition</text>
</g>
<!-- Node4 -->
<g id="node4" class="node">
<title>Node4</title>
<g id="a_node4"><a xlink:href="structAuxiliarySectionDefinition.html" target="_top" xlink:title="AuxiliarySectionDefinition">
<polygon fill="#ffffff" stroke="#000000" points="2.5,-38.5 2.5,-57.5 145.5,-57.5 145.5,-38.5 2.5,-38.5"/>
<text text-anchor="middle" x="74" y="-45.5" font-family="Helvetica,sans-Serif" font-size="10.00" fill="#000000">AuxiliarySectionDefinition</text>
</a>
</g>
</g>
<!-- Node4&#45;&gt;Node1 -->
<g id="edge3" class="edge">
<title>Node4&#45;&gt;Node1</title>
<path fill="none" stroke="#9a32cd" stroke-dasharray="5,2" d="M155.6578,-48.4029C187.4082,-49.3862 224.0137,-51.537 257,-56 262.8458,-56.7909 269.0274,-57.9546 274.9391,-59.2327"/>
<polygon fill="#9a32cd" stroke="#9a32cd" points="155.6234,-44.9007 145.5306,-48.1232 155.4301,-51.898 155.6234,-44.9007"/>
<text text-anchor="middle" x="211.5" y="-59" font-family="Helvetica,sans-Serif" font-size="10.00" fill="#000000"> SectionDefinition</text>
</g>
<!-- Node5 -->
<g id="node5" class="node">
<title>Node5</title>
<g id="a_node5"><a xlink:href="structAuxiliaryWeakExternal.html" target="_top" xlink:title="AuxiliaryWeakExternal">
<polygon fill="#ffffff" stroke="#000000" points="10,-.5 10,-19.5 138,-19.5 138,-.5 10,-.5"/>
<text text-anchor="middle" x="74" y="-7.5" font-family="Helvetica,sans-Serif" font-size="10.00" fill="#000000">AuxiliaryWeakExternal</text>
</a>
</g>
</g>
<!-- Node5&#45;&gt;Node1 -->
<g id="edge4" class="edge">
<title>Node5&#45;&gt;Node1</title>
<path fill="none" stroke="#9a32cd" stroke-dasharray="5,2" d="M148.4747,-11.1306C182.5146,-13.7027 222.7842,-19.7029 257,-33 271.2779,-38.5487 285.3034,-49.268 294.4703,-57.1936"/>
<polygon fill="#9a32cd" stroke="#9a32cd" points="148.3356,-7.6136 138.1242,-10.4382 147.8682,-14.598 148.3356,-7.6136"/>
<text text-anchor="middle" x="211.5" y="-36" font-family="Helvetica,sans-Serif" font-size="10.00" fill="#000000"> WeakExternal</text>
</g>
</g>
</svg>
