<?xml version="1.0" encoding="UTF-8" standalone="no"?>
<!DOCTYPE svg PUBLIC "-//W3C//DTD SVG 1.1//EN"
 "http://www.w3.org/Graphics/SVG/1.1/DTD/svg11.dtd">
<!-- Generated by graphviz version 2.40.1 (20161225.0304)
 -->
<!-- Title: LIEF::PE::Auxiliary Pages: 1 -->
<svg width="408pt" height="176pt"
 viewBox="0.00 0.00 408.00 176.00" xmlns="http://www.w3.org/2000/svg" xmlns:xlink="http://www.w3.org/1999/xlink">
<g id="graph0" class="graph" transform="scale(1 1) rotate(0) translate(4 172)">
<title>LIEF::PE::Auxiliary</title>
<polygon fill="#ffffff" stroke="transparent" points="-4,4 -4,-172 404,-172 404,4 -4,4"/>
<!-- Node1 -->
<g id="node1" class="node">
<title>Node1</title>
<polygon fill="#bfbfbf" stroke="#000000" points="297,-72 297,-91 400,-91 400,-72 297,-72"/>
<text text-anchor="middle" x="348.5" y="-79" font-family="Helvetica,sans-Serif" font-size="10.00" fill="#000000">LIEF::PE::Auxiliary</text>
</g>
<!-- Node2 -->
<g id="node2" class="node">
<title>Node2</title>
<g id="a_node2"><a xlink:href="structLIEF_1_1PE_1_1AuxiliarySectionDefinition.html" target="_top" xlink:title="LIEF::PE::AuxiliarySection\lDefinition">
<polygon fill="#ffffff" stroke="#000000" points="15.5,-137.5 15.5,-167.5 154.5,-167.5 154.5,-137.5 15.5,-137.5"/>
<text text-anchor="start" x="23.5" y="-155.5" font-family="Helvetica,sans-Serif" font-size="10.00" fill="#000000">LIEF::PE::AuxiliarySection</text>
<text text-anchor="middle" x="85" y="-144.5" font-family="Helvetica,sans-Serif" font-size="10.00" fill="#000000">Definition</text>
</a>
</g>
</g>
<!-- Node2&#45;&gt;Node1 -->
<g id="edge1" class="edge">
<title>Node2&#45;&gt;Node1</title>
<path fill="none" stroke="#9a32cd" stroke-dasharray="5,2" d="M164.5762,-137.2201C199.9339,-129.7234 241.8689,-119.8554 279,-108.5 295.0922,-103.5787 312.7629,-96.693 326.2593,-91.1071"/>
<polygon fill="#9a32cd" stroke="#9a32cd" points="163.8572,-133.7947 154.7875,-139.271 165.2927,-140.646 163.8572,-133.7947"/>
<text text-anchor="middle" x="233.5" y="-134.5" font-family="Helvetica,sans-Serif" font-size="10.00" fill="#000000"> SectionDefinition</text>
</g>
<!-- Node3 -->
<g id="node3" class="node">
<title>Node3</title>
<g id="a_node3"><a xlink:href="structLIEF_1_1PE_1_1AuxiliarybfAndefSymbol.html" target="_top" xlink:title="LIEF::PE::AuxiliarybfAndef\lSymbol">
<polygon fill="#ffffff" stroke="#000000" points="14.5,-88.5 14.5,-118.5 155.5,-118.5 155.5,-88.5 14.5,-88.5"/>
<text text-anchor="start" x="22.5" y="-106.5" font-family="Helvetica,sans-Serif" font-size="10.00" fill="#000000">LIEF::PE::AuxiliarybfAndef</text>
<text text-anchor="middle" x="85" y="-95.5" font-family="Helvetica,sans-Serif" font-size="10.00" fill="#000000">Symbol</text>
</a>
</g>
</g>
<!-- Node3&#45;&gt;Node1 -->
<g id="edge2" class="edge">
<title>Node3&#45;&gt;Node1</title>
<path fill="none" stroke="#9a32cd" stroke-dasharray="5,2" d="M165.7107,-96.7613C208.4215,-93.1954 259.5973,-88.9226 296.922,-85.8063"/>
<polygon fill="#9a32cd" stroke="#9a32cd" points="165.2873,-93.2844 155.6132,-97.6044 165.8697,-100.2602 165.2873,-93.2844"/>
<text text-anchor="middle" x="233.5" y="-96.5" font-family="Helvetica,sans-Serif" font-size="10.00" fill="#000000"> bfAndefSymbol</text>
</g>
<!-- Node4 -->
<g id="node4" class="node">
<title>Node4</title>
<g id="a_node4"><a xlink:href="structLIEF_1_1PE_1_1AuxiliaryWeakExternal.html" target="_top" xlink:title="LIEF::PE::AuxiliaryWeakExternal">
<polygon fill="#ffffff" stroke="#000000" points="0,-50 0,-69 170,-69 170,-50 0,-50"/>
<text text-anchor="middle" x="85" y="-57" font-family="Helvetica,sans-Serif" font-size="10.00" fill="#000000">LIEF::PE::AuxiliaryWeakExternal</text>
</a>
</g>
</g>
<!-- Node4&#45;&gt;Node1 -->
<g id="edge3" class="edge">
<title>Node4&#45;&gt;Node1</title>
<path fill="none" stroke="#9a32cd" stroke-dasharray="5,2" d="M180.1999,-63.8451C211.6955,-65.694 246.8924,-68.2026 279,-71.5 284.8207,-72.0978 290.902,-72.823 296.9415,-73.6067"/>
<polygon fill="#9a32cd" stroke="#9a32cd" points="180.2964,-60.345 170.1127,-63.2678 179.8964,-67.3336 180.2964,-60.345"/>
<text text-anchor="middle" x="233.5" y="-74.5" font-family="Helvetica,sans-Serif" font-size="10.00" fill="#000000"> WeakExternal</text>
</g>
<!-- Node5 -->
<g id="node5" class="node">
<title>Node5</title>
<g id="a_node5"><a xlink:href="structLIEF_1_1PE_1_1AuxiliaryFunctionDefinition.html" target="_top" xlink:title="LIEF::PE::AuxiliaryFunction\lDefinition">
<polygon fill="#ffffff" stroke="#000000" points="13.5,-.5 13.5,-30.5 156.5,-30.5 156.5,-.5 13.5,-.5"/>
<text text-anchor="start" x="21.5" y="-18.5" font-family="Helvetica,sans-Serif" font-size="10.00" fill="#000000">LIEF::PE::AuxiliaryFunction</text>
<text text-anchor="middle" x="85" y="-7.5" font-family="Helvetica,sans-Serif" font-size="10.00" fill="#000000">Definition</text>
</a>
</g>
</g>
<!-- Node5&#45;&gt;Node1 -->
<g id="edge4" class="edge">
<title>Node5&#45;&gt;Node1</title>
<path fill="none" stroke="#9a32cd" stroke-dasharray="5,2" d="M166.8021,-24.3336C201.8719,-29.4168 242.9736,-37.1225 279,-48.5 297.7234,-54.413 317.8602,-64.4163 331.6135,-71.8627"/>
<polygon fill="#9a32cd" stroke="#9a32cd" points="166.9927,-20.8262 156.6036,-22.904 166.0209,-27.7584 166.9927,-20.8262"/>
<text text-anchor="middle" x="233.5" y="-51.5" font-family="Helvetica,sans-Serif" font-size="10.00" fill="#000000"> FunctionDefinition</text>
</g>
</g>
</svg>
