<?xml version="1.0" standalone="no"?>
<!DOCTYPE svg PUBLIC "-//W3C//DTD SVG 1.1//EN" "http://www.w3.org/Graphics/SVG/1.1/DTD/svg11.dtd" >
<svg xmlns="http://www.w3.org/2000/svg" xmlns:xlink="http://www.w3.org/1999/xlink" version="1.1">
<metadata>
Created by FontForge 20190801 at Mon Mar 23 19:50:01 2020
 By Jimmy Wärting
Copyright 2020 The Spartan Project Authors (https://github.com/MattBaileyDesign/Spartan-MB/tree/V-1.005)
</metadata>
<defs>
<font id="SpartanMB-Bold" horiz-adv-x="1368" >
  <font-face 
    font-family="Spartan MB"
    font-weight="700"
    font-stretch="normal"
    units-per-em="2200"
    panose-1="0 0 0 0 0 0 0 0 0 0"
    ascent="1760"
    descent="-440"
    x-height="1024"
    cap-height="1650"
    bbox="-213 -559 2877 2351"
    underline-thickness="100"
    underline-position="-200"
    unicode-range="U+000D-FB02"
  />
<missing-glyph horiz-adv-x="684" 
 />
    <glyph glyph-name="f_f" unicode="ff" horiz-adv-x="1523" 
d="M84 1024h135v265q0 106 25 191t72.5 145t115.5 92.5t154 32.5q43 0 81.5 -7t70.5 -18t58.5 -25.5t45.5 -28.5l-103 -205q-17 9 -44 17.5t-60 8.5q-36 0 -60 -11.5t-38.5 -37t-20.5 -65t-6 -95.5v-259h350v265q0 106 25 191t72 145t115 92.5t155 32.5q46 0 85.5 -7.5
t72.5 -19.5t59.5 -27t44.5 -29l-101 -204q-19 11 -47 20t-64 9t-60 -11.5t-38.5 -37t-20.5 -65t-6 -95.5v-259h243v-222h-243v-802h-292v802h-350v-802h-291v802h-135v222z" />
    <glyph glyph-name="f_f_i" unicode="ffi" horiz-adv-x="1948" 
d="M240 1024v265q0 106 25 191t72.5 145t115.5 92.5t154 32.5q44 0 82 -7t70.5 -18t59 -25.5t45.5 -28.5l-104 -205q-16 9 -43 17.5t-60 8.5q-36 0 -59.5 -11.5t-38 -37t-20.5 -65t-6 -95.5v-259h350v265q0 106 25 191t72.5 145t116 92.5t155.5 32.5q69 0 131.5 -13.5
t116.5 -35.5t97.5 -50t73.5 -58l-107 -200q-19 20 -45.5 38t-56.5 32t-62 22.5t-63 8.5q-44 0 -75 -12t-50.5 -37.5t-28 -65.5t-8.5 -96v-259h622v-1024h-293v802h-329v-802h-292v802h-350v-802h-293v802h-133v222h133z" />
    <glyph glyph-name="f_f_j" unicode="ffj" horiz-adv-x="1845" 
d="M36 1024h134v265q0 106 25 191t72.5 145t115.5 92.5t155 32.5q43 0 81.5 -7t70.5 -18t58 -25.5t45 -28.5l-103 -205q-17 9 -43.5 17.5t-59.5 8.5q-36 0 -60 -11.5t-38.5 -37t-20.5 -65t-6 -95.5v-259h350v265q0 106 25.5 191t73 145t116 92.5t154.5 32.5q69 0 132 -13.5
t117 -35.5t97 -50t73 -58l-106 -200q-19 20 -45.5 38t-56.5 32t-62.5 22.5t-63.5 8.5q-44 0 -75 -12t-50 -37.5t-27.5 -65.5t-8.5 -96v-259h621v-1202q0 -72 -18 -139t-58.5 -118.5t-105.5 -83t-159 -31.5q-47 0 -86.5 5.5t-71.5 14.5t-55.5 19.5t-39.5 20.5l90 234
q16 -12 42.5 -22t55.5 -10q54 0 84 39t30 121v930h-329v-802h-293v802h-350v-802h-292v802h-134v222z" />
    <glyph glyph-name="f_f_l" unicode="ffl" horiz-adv-x="1983" 
d="M81 1024h134v265q0 106 25 191t72.5 145t115.5 92.5t154 32.5q44 0 82 -7t70.5 -18t58.5 -25.5t45 -28.5l-103 -205q-17 9 -44 17.5t-59 8.5q-36 0 -60 -11.5t-38.5 -37t-20.5 -65t-6 -95.5v-259h349v265q0 106 25 191t72.5 145t115.5 92.5t154 32.5q71 0 122 -14.5
t80 -31.5l-67 -229q-42 17 -85 17q-36 0 -60 -11.5t-38.5 -37t-20.5 -65t-6 -95.5v-259h243v-222h-243v-802h-292v802h-349v-802h-292v802h-134v222zM1784 1720v-1720h-293v1720h293z" />
    <glyph glyph-name="f_f_t" unicode="fft" horiz-adv-x="2160" 
d="M110 802v222h134v265q0 106 25 191t72.5 145t115.5 92.5t155 32.5q43 0 81.5 -7t70.5 -18t58 -25.5t45 -28.5l-103 -205q-17 9 -43.5 17.5t-59.5 8.5q-36 0 -60 -11.5t-38.5 -37t-20.5 -65t-6 -95.5v-259h349v265q0 106 25 191t72.5 145t115.5 92.5t155 32.5q43 0 81 -7
t70 -18t58 -25t44 -28l-103 -204q-17 10 -42.5 17t-57.5 7q-36 0 -60 -11.5t-39 -37t-21 -65t-6 -95.5v-259h344v383h292v-383h228v-222h-228v-417q0 -79 22 -117.5t73 -38.5q28 0 52 11t39 22l73 -235q-37 -21 -98.5 -40t-135.5 -19q-65 0 -113.5 15t-84 41t-58.5 61.5
t-36.5 76t-19 84t-5.5 85.5v471h-344v-802h-292v802h-349v-802h-292v802h-134z" />
    <glyph glyph-name="f_j" unicode="fj" horiz-adv-x="1201" 
d="M169 1024v265q0 106 25 191t72.5 145t116 92.5t155.5 32.5q69 0 132 -13.5t116.5 -35.5t97 -50t73.5 -58l-107 -200q-19 20 -45 38t-56 32t-62.5 22.5t-63.5 8.5q-88 0 -124.5 -49.5t-36.5 -161.5v-259h621v-1202q0 -72 -18 -139t-58.5 -118.5t-105.5 -83t-159 -31.5
q-95 0 -158.5 20t-94.5 40l89 234q17 -12 43 -22t55 -10q55 0 85 39t30 121v930h-329v-802h-293v802h-133v222h133z" />
    <glyph glyph-name="f_t" unicode="ft" horiz-adv-x="1467" 
d="M84 1024h135v265q0 106 25 191t72.5 145t115.5 92.5t154 32.5q43 0 81 -7t70 -18t58 -25t44 -28l-102 -204q-18 10 -44 17t-58 7q-36 0 -60 -11.5t-38.5 -37t-20.5 -65t-6 -95.5v-259h344v383h292v-383h228v-222h-228v-450q0 -60 23.5 -91.5t69.5 -31.5q20 0 39 5t36 16
l108 -212q-25 -16 -55 -29t-63 -22t-67.5 -14t-67.5 -5q-75 0 -133.5 24.5t-99 71.5t-61.5 114.5t-21 152.5v471h-344v-802h-291v802h-135v222z" />
    <glyph glyph-name="fi" unicode="fi" horiz-adv-x="1254" 
d="M81 802v222h133v265q0 106 25 191t72.5 145t116 92.5t155.5 32.5q69 0 132 -13.5t116.5 -35.5t97 -50t73.5 -58l-107 -200q-19 20 -45.5 38t-56.5 32t-62 22.5t-63 8.5q-44 0 -75 -12t-50 -37.5t-27.5 -65.5t-8.5 -96v-259h622v-1024h-293v802h-329v-802h-293v802h-133z
" />
    <glyph glyph-name="fl" unicode="fl" horiz-adv-x="1261" 
d="M40 802v222h135v265q0 106 25 191t72 145t115 92.5t154 32.5q71 0 122 -14.5t80 -31.5l-67 -229q-42 17 -85 17q-36 0 -60 -11.5t-38.5 -37t-20.5 -65t-6 -95.5v-259h243v-222h-243v-802h-291v802h-135zM1101 1720v-1720h-291v1720h291z" />
    <glyph glyph-name=".notdef" horiz-adv-x="684" 
 />
    <glyph glyph-name=".null" horiz-adv-x="0" 
 />
    <glyph glyph-name=".null" horiz-adv-x="0" 
 />
    <glyph glyph-name="uni000D" unicode="&#xd;" horiz-adv-x="537" 
 />
    <glyph glyph-name="space" unicode=" " horiz-adv-x="576" 
 />
    <glyph glyph-name="A" unicode="A" horiz-adv-x="1520" 
d="M-45 0l663 1650h284l663 -1650h-332l-146 389h-654l-146 -389h-332zM981 660l-221 574l-221 -574h442z" />
    <glyph glyph-name="Aacute" unicode="&#xc1;" horiz-adv-x="1520" 
d="M-45 0l663 1650h284l663 -1650h-332l-146 389h-654l-146 -389h-332zM981 660l-221 574l-221 -574h442zM950 2238l123 -212l-440 -230l-91 133z" />
    <glyph glyph-name="Abreve" unicode="&#x102;" horiz-adv-x="1520" 
d="M-45 0l663 1650h284l663 -1650h-332l-146 389h-654l-146 -389h-332zM981 660l-221 574l-221 -574h442zM314 2255l209 51q6 -42 23 -81.5t46 -70t71 -48.5t97 -18t97 18t71 48.5t46 70t23 81.5l209 -51q-10 -78 -47 -142.5t-95 -111t-135 -72t-169 -25.5
q-91 0 -168.5 25.5t-135.5 72t-94.5 111t-47.5 142.5z" />
    <glyph glyph-name="Acircumflex" unicode="&#xc2;" horiz-adv-x="1520" 
d="M-45 0l663 1650h284l663 -1650h-332l-146 389h-654l-146 -389h-332zM981 660l-221 574l-221 -574h442zM454 1846l-113 153l419 307l419 -307l-113 -153l-306 224z" />
    <glyph glyph-name="Adieresis" unicode="&#xc4;" horiz-adv-x="1520" 
d="M-45 0l663 1650h284l663 -1650h-332l-146 389h-654l-146 -389h-332zM981 660l-221 574l-221 -574h442zM997 2181q32 0 60.5 -12.5t49.5 -33.5t33 -49.5t12 -60.5t-12 -60.5t-33 -49.5t-49.5 -33.5t-60.5 -12.5q-33 0 -61.5 12.5t-49.5 33.5t-33 49.5t-12 60.5t12 60.5
t33 49.5t49.5 33.5t61.5 12.5zM369 2025q0 32 12 60.5t33 49.5t49.5 33.5t61.5 12.5q32 0 60.5 -12.5t49.5 -33.5t33 -49.5t12 -60.5t-12 -60.5t-33 -49.5t-49.5 -33.5t-60.5 -12.5q-33 0 -61.5 12.5t-49.5 33.5t-33 49.5t-12 60.5z" />
    <glyph glyph-name="Agrave" unicode="&#xc0;" horiz-adv-x="1520" 
d="M-45 0l663 1650h284l663 -1650h-332l-146 389h-654l-146 -389h-332zM981 660l-221 574l-221 -574h442zM854 1796l-447 235l130 207l408 -309z" />
    <glyph glyph-name="Amacron" unicode="&#x100;" horiz-adv-x="1520" 
d="M-45 0l663 1650h284l663 -1650h-332l-146 389h-654l-146 -389h-332zM981 660l-221 574l-221 -574h442zM352 1915v199h816v-199h-816z" />
    <glyph glyph-name="Aogonek" unicode="&#x104;" horiz-adv-x="1520" 
d="M-45 0l663 1650h284l663 -1650h-332l-146 389h-654l-146 -389h-332zM981 660l-221 574l-221 -574h442zM1253 -333q0 69 44.5 154t129.5 179h138q-32 -38 -57.5 -77t-43.5 -77t-28 -73t-10 -64q0 -45 26 -75t78 -30q73 0 128 72l121 -90q-23 -33 -53.5 -60t-66.5 -45.5
t-75 -28.5t-80 -10q-54 0 -100 17.5t-79.5 48.5t-52.5 71.5t-19 87.5z" />
    <glyph glyph-name="Aring" unicode="&#xc5;" horiz-adv-x="1520" 
d="M-45 0l663 1650h284l663 -1650h-332l-146 389h-654l-146 -389h-332zM981 660l-221 574l-221 -574h442zM465 2091q0 57 23 105t62.5 82.5t93.5 53.5t116 19t116 -19t93.5 -53.5t62.5 -82.5t23 -105t-23 -105t-62.5 -82.5t-93.5 -53.5t-116 -19t-116 19t-93.5 53.5
t-62.5 82.5t-23 105zM633 2091q0 -26 10 -48.5t27.5 -39t40.5 -26t49 -9.5t49 9.5t40.5 26t27.5 39t10 48.5t-10 48.5t-27.5 39t-40.5 26t-49 9.5t-49 -9.5t-40.5 -26t-27.5 -39t-10 -48.5z" />
    <glyph glyph-name="Atilde" unicode="&#xc3;" horiz-adv-x="1520" 
d="M-45 0l663 1650h284l663 -1650h-332l-146 389h-654l-146 -389h-332zM981 660l-221 574l-221 -574h442zM228 1950q60 118 141 179t181 61q46 0 84 -12t71 -30t62.5 -39t59.5 -39t62 -30t70 -12q113 0 180 121l153 -101q-62 -122 -143.5 -181t-178.5 -59q-46 0 -84 12
t-70.5 30t-62.5 39t-60 39t-62.5 30t-69.5 12q-60 0 -104 -32t-75 -89z" />
    <glyph glyph-name="AE" unicode="&#xc6;" horiz-adv-x="1765" 
d="M-45 0l662 1651h1053v-271h-602v-417h578v-271h-578v-421h602v-271h-910v390h-327l-146 -390h-332zM538 661h222v574z" />
    <glyph glyph-name="B" unicode="B" horiz-adv-x="1320" 
d="M143 0v1650h463q119 0 213 -26t159.5 -78t100 -130t34.5 -181q0 -128 -54 -219.5t-161 -144.5q176 -27 269 -132t93 -278q0 -108 -37 -194t-106.5 -145t-168 -90.5t-221.5 -31.5h-584zM623 239q156 0 235 58t79 173t-81 177t-233 62h-172v-470h172zM535 976
q137 0 209 56.5t72 162.5q0 216 -281 216h-84v-435h84z" />
    <glyph glyph-name="C" unicode="C" horiz-adv-x="1536" 
d="M969 1680q76 0 149 -11.5t140.5 -32t127 -49.5t108.5 -64l-149 -252q-69 51 -162 78.5t-194 27.5q-130 0 -235 -42.5t-179 -116.5t-113.5 -175.5t-39.5 -218.5t39.5 -218.5t113.5 -175.5t179 -116.5t235 -42.5q101 0 194 27.5t162 78.5l149 -252q-49 -35 -108.5 -64
t-127 -49.5t-140.5 -32t-149 -11.5q-127 0 -242 30t-213 85.5t-176.5 133.5t-134 173t-85.5 205t-30 229q0 120 30 229.5t85.5 204.5t134 173t176.5 133.5t213 85.5t242 30z" />
    <glyph glyph-name="Cacute" unicode="&#x106;" horiz-adv-x="1536" 
d="M969 1680q76 0 149 -11.5t140.5 -32t127 -49.5t108.5 -64l-149 -252q-69 51 -162 78.5t-194 27.5q-130 0 -235 -42.5t-179 -116.5t-113.5 -175.5t-39.5 -218.5t39.5 -218.5t113.5 -175.5t179 -116.5t235 -42.5q101 0 194 27.5t162 78.5l149 -252q-49 -35 -108.5 -64
t-127 -49.5t-140.5 -32t-149 -11.5q-127 0 -242 30t-213 85.5t-176.5 133.5t-134 173t-85.5 205t-30 229q0 120 30 229.5t85.5 204.5t134 173t176.5 133.5t213 85.5t242 30zM1061 2238l123 -212l-440 -230l-91 133z" />
    <glyph glyph-name="Ccaron" unicode="&#x10c;" horiz-adv-x="1536" 
d="M969 1680q76 0 149 -11.5t140.5 -32t127 -49.5t108.5 -64l-149 -252q-69 51 -162 78.5t-194 27.5q-130 0 -235 -42.5t-179 -116.5t-113.5 -175.5t-39.5 -218.5t39.5 -218.5t113.5 -175.5t179 -116.5t235 -42.5q101 0 194 27.5t162 78.5l149 -252q-49 -35 -108.5 -64
t-127 -49.5t-140.5 -32t-149 -11.5q-127 0 -242 30t-213 85.5t-176.5 133.5t-134 173t-85.5 205t-30 229q0 120 30 229.5t85.5 204.5t134 173t176.5 133.5t213 85.5t242 30zM871 1798l-419 308l113 152l306 -224l306 224l113 -152z" />
    <glyph glyph-name="Ccedilla" unicode="&#xc7;" horiz-adv-x="1536" 
d="M969 1680q76 0 149 -11.5t140.5 -32t127 -49.5t108.5 -64l-149 -252q-69 51 -162 78.5t-194 27.5q-130 0 -235 -42.5t-179 -116.5t-113.5 -175.5t-39.5 -218.5t39.5 -218.5t113.5 -175.5t179 -116.5t235 -42.5q101 0 194 27.5t162 78.5l149 -252q-49 -35 -108.5 -64
t-127 -49.5t-140.5 -32t-149 -11.5q-127 0 -242 30t-213 85.5t-176.5 133.5t-134 173t-85.5 205t-30 229q0 120 30 229.5t85.5 204.5t134 173t176.5 133.5t213 85.5t242 30zM549 -407l115 85q32 -45 75.5 -69t91.5 -24q51 0 81 24.5t30 64.5q0 42 -35.5 67t-92.5 25
q-29 0 -59 -6t-45 -16l-16 13l78 243h127l-46 -139h16q43 0 85 -11.5t75 -35.5t53.5 -60t20.5 -85q0 -50 -20 -92t-55 -72t-84 -47t-107 -17q-169 0 -288 152z" />
    <glyph glyph-name="Cdotaccent" unicode="&#x10a;" horiz-adv-x="1536" 
d="M969 1680q76 0 149 -11.5t140.5 -32t127 -49.5t108.5 -64l-149 -252q-69 51 -162 78.5t-194 27.5q-130 0 -235 -42.5t-179 -116.5t-113.5 -175.5t-39.5 -218.5t39.5 -218.5t113.5 -175.5t179 -116.5t235 -42.5q101 0 194 27.5t162 78.5l149 -252q-49 -35 -108.5 -64
t-127 -49.5t-140.5 -32t-149 -11.5q-127 0 -242 30t-213 85.5t-176.5 133.5t-134 173t-85.5 205t-30 229q0 120 30 229.5t85.5 204.5t134 173t176.5 133.5t213 85.5t242 30zM697 2106q0 36 13.5 67.5t37.5 55.5t55.5 37.5t67.5 13.5t67.5 -13.5t55.5 -37.5t37.5 -55.5
t13.5 -67.5t-13.5 -67.5t-37.5 -55.5t-55.5 -37.5t-67.5 -13.5t-67.5 13.5t-55.5 37.5t-37.5 55.5t-13.5 67.5z" />
    <glyph glyph-name="D" unicode="D" horiz-adv-x="1487" 
d="M143 0v1650h446q117 0 224 -29t199.5 -81.5t168 -127.5t129 -166.5t82.5 -198t29 -222.5t-29 -222.5t-82.5 -198t-128.5 -166.5t-167.5 -127.5t-199.5 -81.5t-225 -29h-446zM555 276q115 0 213 41.5t169.5 115t112 174t40.5 218.5t-40.5 218.5t-112 174t-169.5 115
t-213 41.5h-104v-1098h104z" />
    <glyph glyph-name="Eth" unicode="&#xd0;" horiz-adv-x="1637" 
d="M143 949h150v701h446q117 0 224 -29t199.5 -81.5t168 -127.5t129 -166.5t82.5 -198t29 -222.5t-29 -222.5t-82.5 -198t-128.5 -166.5t-167.5 -127.5t-200 -81.5t-224.5 -29h-446v699h-150v250zM601 699v-423h104q115 0 213 41.5t169.5 115t112 174t40.5 218.5
t-40.5 218.5t-112 174t-169.5 115t-213 41.5h-104v-425h300v-250h-300z" />
    <glyph glyph-name="Dcaron" unicode="&#x10e;" horiz-adv-x="1487" 
d="M143 0v1650h446q117 0 224 -29t199.5 -81.5t168 -127.5t129 -166.5t82.5 -198t29 -222.5t-29 -222.5t-82.5 -198t-128.5 -166.5t-167.5 -127.5t-199.5 -81.5t-225 -29h-446zM555 276q115 0 213 41.5t169.5 115t112 174t40.5 218.5t-40.5 218.5t-112 174t-169.5 115
t-213 41.5h-104v-1098h104zM721 1798l-419 308l113 152l306 -224l306 224l113 -152z" />
    <glyph glyph-name="Dcroat" unicode="&#x110;" horiz-adv-x="1637" 
d="M143 949h150v701h446q117 0 224 -29t199.5 -81.5t168 -127.5t129 -166.5t82.5 -198t29 -222.5t-29 -222.5t-82.5 -198t-128.5 -166.5t-167.5 -127.5t-200 -81.5t-224.5 -29h-446v699h-150v250zM601 699v-423h104q115 0 213 41.5t169.5 115t112 174t40.5 218.5
t-40.5 218.5t-112 174t-169.5 115t-213 41.5h-104v-425h300v-250h-300z" />
    <glyph glyph-name="E" unicode="E" horiz-adv-x="1148" 
d="M1053 1650v-271h-602v-416h578v-271h-578v-421h602v-271h-910v1650h910z" />
    <glyph glyph-name="Eacute" unicode="&#xc9;" horiz-adv-x="1148" 
d="M1053 1650v-271h-602v-416h578v-271h-578v-421h602v-271h-910v1650h910zM786 2238l123 -212l-440 -230l-91 133z" />
    <glyph glyph-name="Ecaron" unicode="&#x11a;" horiz-adv-x="1148" 
d="M1053 1650v-271h-602v-416h578v-271h-578v-421h602v-271h-910v1650h910zM596 1798l-419 308l113 152l306 -224l306 224l113 -152z" />
    <glyph glyph-name="Ecircumflex" unicode="&#xca;" horiz-adv-x="1148" 
d="M1053 1650v-271h-602v-416h578v-271h-578v-421h602v-271h-910v1650h910zM290 1846l-113 153l419 307l419 -307l-113 -153l-306 224z" />
    <glyph glyph-name="Edieresis" unicode="&#xcb;" horiz-adv-x="1148" 
d="M1053 1650v-271h-602v-416h578v-271h-578v-421h602v-271h-910v1650h910zM833 2181q32 0 60.5 -12.5t49.5 -33.5t33 -49.5t12 -60.5t-12 -60.5t-33 -49.5t-49.5 -33.5t-60.5 -12.5q-33 0 -61.5 12.5t-49.5 33.5t-33 49.5t-12 60.5t12 60.5t33 49.5t49.5 33.5t61.5 12.5z
M205 2025q0 32 12 60.5t33 49.5t49.5 33.5t61.5 12.5q32 0 60.5 -12.5t49.5 -33.5t33 -49.5t12 -60.5t-12 -60.5t-33 -49.5t-49.5 -33.5t-60.5 -12.5q-33 0 -61.5 12.5t-49.5 33.5t-33 49.5t-12 60.5z" />
    <glyph glyph-name="Edotaccent" unicode="&#x116;" horiz-adv-x="1148" 
d="M1053 1650v-271h-602v-416h578v-271h-578v-421h602v-271h-910v1650h910zM422 2106q0 36 13.5 67.5t37.5 55.5t55.5 37.5t67.5 13.5t67.5 -13.5t55.5 -37.5t37.5 -55.5t13.5 -67.5t-13.5 -67.5t-37.5 -55.5t-55.5 -37.5t-67.5 -13.5t-67.5 13.5t-55.5 37.5t-37.5 55.5
t-13.5 67.5z" />
    <glyph glyph-name="Egrave" unicode="&#xc8;" horiz-adv-x="1148" 
d="M1053 1650v-271h-602v-416h578v-271h-578v-421h602v-271h-910v1650h910zM690 1796l-447 235l130 207l408 -309z" />
    <glyph glyph-name="Emacron" unicode="&#x112;" horiz-adv-x="1148" 
d="M1053 1650v-271h-602v-416h578v-271h-578v-421h602v-271h-910v1650h910zM188 1915v199h816v-199h-816z" />
    <glyph glyph-name="Eogonek" unicode="&#x118;" horiz-adv-x="1148" 
d="M1053 1650v-271h-602v-416h578v-271h-578v-421h602v-271h-910v1650h910zM741 -333q0 69 44.5 154t129.5 179h138q-32 -38 -57.5 -77t-43.5 -77t-28 -73t-10 -64q0 -45 26 -75t78 -30q73 0 128 72l121 -90q-23 -33 -53.5 -60t-66.5 -45.5t-75 -28.5t-80 -10
q-54 0 -100 17.5t-79.5 48.5t-52.5 71.5t-19 87.5z" />
    <glyph glyph-name="F" unicode="F" horiz-adv-x="1112" 
d="M143 1650h918v-271h-610v-417h565v-271h-565v-691h-308v1650z" />
    <glyph glyph-name="G" unicode="G" horiz-adv-x="1696" 
d="M68 823q0 115 26.5 223t77 203t123.5 174.5t165 136.5t202 88.5t235 31.5q96 0 180.5 -19t159.5 -54t141.5 -84.5t126.5 -110.5l-187 -182q-33 39 -76.5 70.5t-95 54t-109.5 34.5t-120 12q-125 0 -221.5 -48t-162 -128t-99.5 -184t-34 -217q0 -117 37 -221t103 -182
t157 -123.5t199 -45.5q83 0 159.5 27t135.5 76.5t94.5 118t35.5 150.5v27h-449v239h763v-196q0 -121 -29.5 -221.5t-81 -181.5t-122.5 -141.5t-154 -101t-174.5 -60.5t-185.5 -20q-118 0 -224.5 30.5t-197.5 86t-165 134t-125.5 173.5t-79.5 204t-28 227z" />
    <glyph glyph-name="Gbreve" unicode="&#x11e;" horiz-adv-x="1696" 
d="M68 823q0 115 26.5 223t77 203t123.5 174.5t165 136.5t202 88.5t235 31.5q96 0 180.5 -19t159.5 -54t141.5 -84.5t126.5 -110.5l-187 -182q-33 39 -76.5 70.5t-95 54t-109.5 34.5t-120 12q-125 0 -221.5 -48t-162 -128t-99.5 -184t-34 -217q0 -117 37 -221t103 -182
t157 -123.5t199 -45.5q83 0 159.5 27t135.5 76.5t94.5 118t35.5 150.5v27h-449v239h763v-196q0 -121 -29.5 -221.5t-81 -181.5t-122.5 -141.5t-154 -101t-174.5 -60.5t-185.5 -20q-118 0 -224.5 30.5t-197.5 86t-165 134t-125.5 173.5t-79.5 204t-28 227zM411 2255l209 51
q6 -42 23 -81.5t46 -70t71 -48.5t97 -18t97 18t71 48.5t46 70t23 81.5l209 -51q-10 -78 -47 -142.5t-95 -111t-135 -72t-169 -25.5q-91 0 -168.5 25.5t-135.5 72t-94.5 111t-47.5 142.5z" />
    <glyph glyph-name="uni0122" unicode="&#x122;" horiz-adv-x="1696" 
d="M68 823q0 115 26.5 223t77 203t123.5 174.5t165 136.5t202 88.5t235 31.5q96 0 180.5 -19t159.5 -54t141.5 -84.5t126.5 -110.5l-187 -182q-33 39 -76.5 70.5t-95 54t-109.5 34.5t-120 12q-125 0 -221.5 -48t-162 -128t-99.5 -184t-34 -217q0 -117 37 -221t103 -182
t157 -123.5t199 -45.5q83 0 159.5 27t135.5 76.5t94.5 118t35.5 150.5v27h-449v239h763v-196q0 -121 -29.5 -221.5t-81 -181.5t-122.5 -141.5t-154 -101t-174.5 -60.5t-185.5 -20q-118 0 -224.5 30.5t-197.5 86t-165 134t-125.5 173.5t-79.5 204t-28 227zM857 -113
q47 0 76 -30t29 -89q0 -35 -11 -72t-31.5 -73.5t-49.5 -71t-65 -63.5l-42 36q12 12 23.5 31t21.5 40.5t17 45t9 44.5q-38 8 -60.5 34.5t-22.5 65.5q0 45 29 73.5t77 28.5z" />
    <glyph glyph-name="Gdotaccent" unicode="&#x120;" horiz-adv-x="1696" 
d="M68 823q0 115 26.5 223t77 203t123.5 174.5t165 136.5t202 88.5t235 31.5q96 0 180.5 -19t159.5 -54t141.5 -84.5t126.5 -110.5l-187 -182q-33 39 -76.5 70.5t-95 54t-109.5 34.5t-120 12q-125 0 -221.5 -48t-162 -128t-99.5 -184t-34 -217q0 -117 37 -221t103 -182
t157 -123.5t199 -45.5q83 0 159.5 27t135.5 76.5t94.5 118t35.5 150.5v27h-449v239h763v-196q0 -121 -29.5 -221.5t-81 -181.5t-122.5 -141.5t-154 -101t-174.5 -60.5t-185.5 -20q-118 0 -224.5 30.5t-197.5 86t-165 134t-125.5 173.5t-79.5 204t-28 227zM683 2106
q0 36 13.5 67.5t37.5 55.5t55.5 37.5t67.5 13.5t67.5 -13.5t55.5 -37.5t37.5 -55.5t13.5 -67.5t-13.5 -67.5t-37.5 -55.5t-55.5 -37.5t-67.5 -13.5t-67.5 13.5t-55.5 37.5t-37.5 55.5t-13.5 67.5z" />
    <glyph glyph-name="H" unicode="H" horiz-adv-x="1544" 
d="M451 1651v-688h642v688h308v-1651h-308v692h-642v-692h-308v1651h308z" />
    <glyph glyph-name="Hbar" unicode="&#x126;" horiz-adv-x="1716" 
d="M229 1276v374h308v-374h642v374h308v-374h131v-210h-131v-1066h-308v646h-642v-646h-308v1066h-131v210h131zM537 1066v-210h642v210h-642z" />
    <glyph glyph-name="I" unicode="I" horiz-adv-x="594" 
d="M143 0v1650h308v-1650h-308z" />
    <glyph glyph-name="Iacute" unicode="&#xcd;" horiz-adv-x="594" 
d="M143 0v1650h308v-1650h-308zM487 2238l123 -212l-440 -230l-91 133z" />
    <glyph glyph-name="Icircumflex" unicode="&#xce;" horiz-adv-x="594" 
d="M143 0v1650h308v-1650h-308zM-9 1846l-113 153l419 307l419 -307l-113 -153l-306 224z" />
    <glyph glyph-name="Idieresis" unicode="&#xcf;" horiz-adv-x="594" 
d="M143 0v1650h308v-1650h-308zM534 2181q32 0 60.5 -12.5t49.5 -33.5t33 -49.5t12 -60.5t-12 -60.5t-33 -49.5t-49.5 -33.5t-60.5 -12.5q-33 0 -61.5 12.5t-49.5 33.5t-33 49.5t-12 60.5t12 60.5t33 49.5t49.5 33.5t61.5 12.5zM-94 2025q0 32 12 60.5t33 49.5t49.5 33.5
t61.5 12.5q32 0 60.5 -12.5t49.5 -33.5t33 -49.5t12 -60.5t-12 -60.5t-33 -49.5t-49.5 -33.5t-60.5 -12.5q-33 0 -61.5 12.5t-49.5 33.5t-33 49.5t-12 60.5z" />
    <glyph glyph-name="Idotaccent" unicode="&#x130;" horiz-adv-x="594" 
d="M143 0v1650h308v-1650h-308zM123 2106q0 36 13.5 67.5t37.5 55.5t55.5 37.5t67.5 13.5t67.5 -13.5t55.5 -37.5t37.5 -55.5t13.5 -67.5t-13.5 -67.5t-37.5 -55.5t-55.5 -37.5t-67.5 -13.5t-67.5 13.5t-55.5 37.5t-37.5 55.5t-13.5 67.5z" />
    <glyph glyph-name="Igrave" unicode="&#xcc;" horiz-adv-x="594" 
d="M143 0v1650h308v-1650h-308zM391 1796l-447 235l130 207l408 -309z" />
    <glyph glyph-name="Imacron" unicode="&#x12a;" horiz-adv-x="594" 
d="M143 0v1650h308v-1650h-308zM-111 1915v199h816v-199h-816z" />
    <glyph glyph-name="Iogonek" unicode="&#x12e;" horiz-adv-x="594" 
d="M143 0v1650h308v-1650h-308zM139 -333q0 69 44.5 154t129.5 179h138q-32 -38 -57.5 -77t-43.5 -77t-28 -73t-10 -64q0 -45 26 -75t78 -30q73 0 128 72l121 -90q-23 -33 -53.5 -60t-66.5 -45.5t-75 -28.5t-80 -10q-54 0 -100 17.5t-79.5 48.5t-52.5 71.5t-19 87.5z" />
    <glyph glyph-name="J" unicode="J" horiz-adv-x="970" 
d="M91 367q54 -55 112 -79.5t115 -24.5q111 0 172.5 74t61.5 207v1106h308v-1186q0 -118 -33.5 -210.5t-97.5 -156t-155 -96.5t-207 -33q-135 0 -241.5 50.5t-203.5 159.5z" />
    <glyph glyph-name="K" unicode="K" horiz-adv-x="1509" 
d="M475 1650v-694l618 694h377l-714 -796l812 -854h-426l-667 702v-702h-308v1650h308z" />
    <glyph glyph-name="uni0136" unicode="&#x136;" horiz-adv-x="1509" 
d="M475 1650v-694l618 694h377l-714 -796l812 -854h-426l-667 702v-702h-308v1650h308zM756 -113q47 0 76 -30t29 -89q0 -35 -11 -72t-31.5 -73.5t-49.5 -71t-65 -63.5l-42 36q12 12 23.5 31t21.5 40.5t17 45t9 44.5q-38 8 -60.5 34.5t-22.5 65.5q0 45 29 73.5t77 28.5z" />
    <glyph glyph-name="L" unicode="L" horiz-adv-x="1071" 
d="M143 0v1650h308v-1379h605v-271h-913z" />
    <glyph glyph-name="Lacute" unicode="&#x139;" horiz-adv-x="1071" 
d="M143 0v1650h308v-1379h605v-271h-913zM701 2238l123 -212l-440 -230l-91 133z" />
    <glyph glyph-name="Lcaron" unicode="&#x13d;" horiz-adv-x="1071" 
d="M143 0v1650h308v-1379h605v-271h-913zM511 1798l-419 308l113 152l306 -224l306 224l113 -152z" />
    <glyph glyph-name="uni013B" unicode="&#x13b;" horiz-adv-x="1071" 
d="M143 0v1650h308v-1379h605v-271h-913zM601 -113q47 0 76 -30t29 -89q0 -35 -11 -72t-31.5 -73.5t-49.5 -71t-65 -63.5l-42 36q12 12 23.5 31t21.5 40.5t17 45t9 44.5q-38 8 -60.5 34.5t-22.5 65.5q0 45 29 73.5t77 28.5z" />
    <glyph glyph-name="Lslash" unicode="&#x141;" horiz-adv-x="1220" 
d="M292 891v759h308v-517l217 171v-251l-217 -171v-611h605v-271h-913v640l-149 -117v251z" />
    <glyph glyph-name="M" unicode="M" horiz-adv-x="1893" 
d="M217 1650h328l401 -1055l403 1055h328l168 -1650h-308l-110 1096l-385 -1050h-191l-385 1050l-110 -1096h-308z" />
    <glyph glyph-name="N" unicode="N" horiz-adv-x="1628" 
d="M143 1650h308l726 -1136v1136h308v-1650h-308l-726 1135v-1135h-308v1650z" />
    <glyph glyph-name="Nacute" unicode="&#x143;" horiz-adv-x="1628" 
d="M143 1650h308l726 -1136v1136h308v-1650h-308l-726 1135v-1135h-308v1650zM1004 2238l123 -212l-440 -230l-91 133z" />
    <glyph glyph-name="Ncaron" unicode="&#x147;" horiz-adv-x="1628" 
d="M143 1650h308l726 -1136v1136h308v-1650h-308l-726 1135v-1135h-308v1650zM814 1798l-419 308l113 152l306 -224l306 224l113 -152z" />
    <glyph glyph-name="uni0145" unicode="&#x145;" horiz-adv-x="1628" 
d="M143 1650h308l726 -1136v1136h308v-1650h-308l-726 1135v-1135h-308v1650zM814 -113q47 0 76 -30t29 -89q0 -35 -11 -72t-31.5 -73.5t-49.5 -71t-65 -63.5l-42 36q12 12 23.5 31t21.5 40.5t17 45t9 44.5q-38 8 -60.5 34.5t-22.5 65.5q0 45 29 73.5t77 28.5z" />
    <glyph glyph-name="Eng" unicode="&#x14a;" horiz-adv-x="1596" 
d="M143 0v1650h308l727 -1136v1136h308v-1705q0 -118 -33.5 -210.5t-97.5 -156t-155 -96.5t-207 -33q-69 0 -129 12t-114.5 37.5t-104.5 65.5t-98 95l170 189q55 -57 113.5 -80.5t113.5 -23.5q56 0 99.5 19t73.5 52t45.5 78t15.5 96v11l-727 1135v-1135h-308z" />
    <glyph glyph-name="Ntilde" unicode="&#xd1;" horiz-adv-x="1628" 
d="M143 1650h308l726 -1136v1136h308v-1650h-308l-726 1135v-1135h-308v1650zM282 1950q60 118 141 179t181 61q46 0 84 -12t71 -30t62.5 -39t59.5 -39t62 -30t70 -12q113 0 180 121l153 -101q-62 -122 -143.5 -181t-178.5 -59q-46 0 -84 12t-70.5 30t-62.5 39t-60 39
t-62.5 30t-69.5 12q-60 0 -104 -32t-75 -89z" />
    <glyph glyph-name="O" unicode="O" horiz-adv-x="1796" 
d="M66 824q0 119 29.5 228.5t83.5 205t130 173t168 133t199 86t222 30.5q116 0 222.5 -30.5t198.5 -86t168 -133t130 -173t83.5 -205t29.5 -228.5t-29.5 -228.5t-83.5 -205t-130 -173t-168 -133t-199 -86t-222 -30.5t-222 30.5t-199 86t-168 133t-130 173t-83.5 205
t-29.5 228.5zM398 824q0 -121 37.5 -224t104 -177t158 -116t200.5 -42t200.5 42t158 116t104 177t37.5 224q0 122 -37.5 224.5t-104 176.5t-158 116t-200.5 42t-200.5 -42t-158 -116t-104 -176.5t-37.5 -224.5z" />
    <glyph glyph-name="Oacute" unicode="&#xd3;" horiz-adv-x="1796" 
d="M66 824q0 119 29.5 228.5t83.5 205t130 173t168 133t199 86t222 30.5q116 0 222.5 -30.5t198.5 -86t168 -133t130 -173t83.5 -205t29.5 -228.5t-29.5 -228.5t-83.5 -205t-130 -173t-168 -133t-199 -86t-222 -30.5t-222 30.5t-199 86t-168 133t-130 173t-83.5 205
t-29.5 228.5zM398 824q0 -121 37.5 -224t104 -177t158 -116t200.5 -42t200.5 42t158 116t104 177t37.5 224q0 122 -37.5 224.5t-104 176.5t-158 116t-200.5 42t-200.5 -42t-158 -116t-104 -176.5t-37.5 -224.5zM1088 2238l123 -212l-440 -230l-91 133z" />
    <glyph glyph-name="Ocircumflex" unicode="&#xd4;" horiz-adv-x="1796" 
d="M66 824q0 119 29.5 228.5t83.5 205t130 173t168 133t199 86t222 30.5q116 0 222.5 -30.5t198.5 -86t168 -133t130 -173t83.5 -205t29.5 -228.5t-29.5 -228.5t-83.5 -205t-130 -173t-168 -133t-199 -86t-222 -30.5t-222 30.5t-199 86t-168 133t-130 173t-83.5 205
t-29.5 228.5zM398 824q0 -121 37.5 -224t104 -177t158 -116t200.5 -42t200.5 42t158 116t104 177t37.5 224q0 122 -37.5 224.5t-104 176.5t-158 116t-200.5 42t-200.5 -42t-158 -116t-104 -176.5t-37.5 -224.5zM592 1846l-113 153l419 307l419 -307l-113 -153l-306 224z" />
    <glyph glyph-name="Odieresis" unicode="&#xd6;" horiz-adv-x="1796" 
d="M66 824q0 119 29.5 228.5t83.5 205t130 173t168 133t199 86t222 30.5q116 0 222.5 -30.5t198.5 -86t168 -133t130 -173t83.5 -205t29.5 -228.5t-29.5 -228.5t-83.5 -205t-130 -173t-168 -133t-199 -86t-222 -30.5t-222 30.5t-199 86t-168 133t-130 173t-83.5 205
t-29.5 228.5zM398 824q0 -121 37.5 -224t104 -177t158 -116t200.5 -42t200.5 42t158 116t104 177t37.5 224q0 122 -37.5 224.5t-104 176.5t-158 116t-200.5 42t-200.5 -42t-158 -116t-104 -176.5t-37.5 -224.5zM1135 2181q32 0 60.5 -12.5t49.5 -33.5t33 -49.5t12 -60.5
t-12 -60.5t-33 -49.5t-49.5 -33.5t-60.5 -12.5q-33 0 -61.5 12.5t-49.5 33.5t-33 49.5t-12 60.5t12 60.5t33 49.5t49.5 33.5t61.5 12.5zM507 2025q0 32 12 60.5t33 49.5t49.5 33.5t61.5 12.5q32 0 60.5 -12.5t49.5 -33.5t33 -49.5t12 -60.5t-12 -60.5t-33 -49.5t-49.5 -33.5
t-60.5 -12.5q-33 0 -61.5 12.5t-49.5 33.5t-33 49.5t-12 60.5z" />
    <glyph glyph-name="Ograve" unicode="&#xd2;" horiz-adv-x="1796" 
d="M66 824q0 119 29.5 228.5t83.5 205t130 173t168 133t199 86t222 30.5q116 0 222.5 -30.5t198.5 -86t168 -133t130 -173t83.5 -205t29.5 -228.5t-29.5 -228.5t-83.5 -205t-130 -173t-168 -133t-199 -86t-222 -30.5t-222 30.5t-199 86t-168 133t-130 173t-83.5 205
t-29.5 228.5zM398 824q0 -121 37.5 -224t104 -177t158 -116t200.5 -42t200.5 42t158 116t104 177t37.5 224q0 122 -37.5 224.5t-104 176.5t-158 116t-200.5 42t-200.5 -42t-158 -116t-104 -176.5t-37.5 -224.5zM992 1796l-447 235l130 207l408 -309z" />
    <glyph glyph-name="Ohungarumlaut" unicode="&#x150;" horiz-adv-x="1796" 
d="M66 824q0 119 29.5 228.5t83.5 205t130 173t168 133t199 86t222 30.5q116 0 222.5 -30.5t198.5 -86t168 -133t130 -173t83.5 -205t29.5 -228.5t-29.5 -228.5t-83.5 -205t-130 -173t-168 -133t-199 -86t-222 -30.5t-222 30.5t-199 86t-168 133t-130 173t-83.5 205
t-29.5 228.5zM398 824q0 -121 37.5 -224t104 -177t158 -116t200.5 -42t200.5 42t158 116t104 177t37.5 224q0 122 -37.5 224.5t-104 176.5t-158 116t-200.5 42t-200.5 -42t-158 -116t-104 -176.5t-37.5 -224.5zM1087 1863l-111 130l320 313l179 -195zM598 1863l-112 130
l320 313l179 -195z" />
    <glyph glyph-name="Omacron" unicode="&#x14c;" horiz-adv-x="1796" 
d="M66 824q0 119 29.5 228.5t83.5 205t130 173t168 133t199 86t222 30.5q116 0 222.5 -30.5t198.5 -86t168 -133t130 -173t83.5 -205t29.5 -228.5t-29.5 -228.5t-83.5 -205t-130 -173t-168 -133t-199 -86t-222 -30.5t-222 30.5t-199 86t-168 133t-130 173t-83.5 205
t-29.5 228.5zM398 824q0 -121 37.5 -224t104 -177t158 -116t200.5 -42t200.5 42t158 116t104 177t37.5 224q0 122 -37.5 224.5t-104 176.5t-158 116t-200.5 42t-200.5 -42t-158 -116t-104 -176.5t-37.5 -224.5zM490 1915v199h816v-199h-816z" />
    <glyph glyph-name="Oslash" unicode="&#xd8;" horiz-adv-x="1796" 
d="M491 76l-76 -96l-186 136l80 101q-113 117 -178 272t-65 335q0 119 29.5 228.5t83.5 205t130 173t168 133t199 86t222 30.5q128 0 244 -37t216 -104l122 154l187 -143l-135 -169q94 -113 146 -254.5t52 -302.5q0 -119 -29.5 -228.5t-83.5 -205t-130 -173t-168 -133
t-199 -86t-222 -30.5q-112 0 -214 28t-193 80zM1169 1302q-57 39 -125.5 60t-145.5 21q-109 0 -200.5 -42t-158 -116t-104 -176.5t-37.5 -224.5q0 -106 28 -196.5t80 -162.5zM898 265q109 0 200.5 42t158 116t104 177t37.5 224q0 85 -18 160.5t-53 139.5l-645 -810
q98 -49 216 -49z" />
    <glyph glyph-name="Otilde" unicode="&#xd5;" horiz-adv-x="1796" 
d="M66 824q0 119 29.5 228.5t83.5 205t130 173t168 133t199 86t222 30.5q116 0 222.5 -30.5t198.5 -86t168 -133t130 -173t83.5 -205t29.5 -228.5t-29.5 -228.5t-83.5 -205t-130 -173t-168 -133t-199 -86t-222 -30.5t-222 30.5t-199 86t-168 133t-130 173t-83.5 205
t-29.5 228.5zM398 824q0 -121 37.5 -224t104 -177t158 -116t200.5 -42t200.5 42t158 116t104 177t37.5 224q0 122 -37.5 224.5t-104 176.5t-158 116t-200.5 42t-200.5 -42t-158 -116t-104 -176.5t-37.5 -224.5zM366 1950q60 118 141 179t181 61q46 0 84 -12t71 -30t62.5 -39
t59.5 -39t62.5 -30t69.5 -12q113 0 180 121l153 -101q-62 -122 -143.5 -181t-178.5 -59q-46 0 -84 12t-70.5 30t-62.5 39t-60 39t-62 30t-70 12q-60 0 -104 -32t-75 -89z" />
    <glyph glyph-name="OE" unicode="&#x152;" horiz-adv-x="1982" 
d="M66 825q0 180 64 331.5t187.5 261t304 171t412.5 61.5h853v-270h-602v-417h578v-271h-578v-421h602v-271h-853q-232 0 -412.5 61.5t-304 171t-187.5 261t-64 331.5zM398 825q0 -124 41 -225t117 -173t182.5 -111.5t238.5 -39.5v1099q-129 0 -236 -39.5t-183 -111.5
t-118 -173.5t-42 -225.5z" />
    <glyph glyph-name="P" unicode="P" horiz-adv-x="1276" 
d="M692 1650q121 0 222 -33t174.5 -97.5t114.5 -159t41 -216.5t-41 -216.5t-114.5 -159t-174.5 -97.5t-222 -33h-241v-638h-308v1650h549zM451 884h147q66 0 125 15t103.5 46.5t70 80.5t25.5 118t-25.5 118.5t-70 81t-103.5 46t-125 14.5h-147v-520z" />
    <glyph glyph-name="Thorn" unicode="&#xde;" horiz-adv-x="1276" 
d="M451 1650v-322h241q121 0 222 -33t174.5 -97.5t114.5 -158.5t41 -216t-41 -216.5t-114.5 -159t-174.5 -97.5t-222 -33h-241v-317h-308v1650h308zM598 563q66 0 125 15t103.5 46.5t70 80.5t25.5 118t-25.5 118t-70 80.5t-103.5 46t-125 14.5h-147v-519h147z" />
    <glyph glyph-name="Q" unicode="Q" horiz-adv-x="1872" 
d="M66 823q0 119 29.5 228.5t83.5 205t130 173t168 133t199 86t222 30.5q116 0 222.5 -30.5t198.5 -86t168 -133t130 -173t83.5 -205t29.5 -228.5q0 -141 -40.5 -267t-113.5 -232q128 -59 277 -103l-136 -275q-85 33 -170 78t-168 99q-102 -74 -223.5 -115t-257.5 -41
q-115 0 -222 30.5t-199 86t-168 133t-130 173t-83.5 205t-29.5 228.5zM898 264q63 0 119 14t107 40q-130 115 -226 240l160 133q56 -58 116.5 -110.5t127.5 -99.5q46 70 71 156t25 186q0 122 -37.5 224.5t-104 176.5t-158 116t-200.5 42t-200.5 -42t-158 -116t-104 -176.5
t-37.5 -224.5q0 -121 37.5 -224t104 -177t158 -116t200.5 -42z" />
    <glyph glyph-name="R" unicode="R" horiz-adv-x="1361" 
d="M693 1650q122 0 223 -33t174.5 -97t114 -157t40.5 -213q0 -97 -27 -176.5t-76.5 -140.5t-120.5 -101.5t-158 -60.5l547 -671h-391l-481 628h-87v-628h-308v1650h550zM451 895h148q69 0 128 15t102.5 46t68 79t24.5 115t-24.5 115t-68 79t-102.5 45.5t-128 14.5h-148v-509
z" />
    <glyph glyph-name="Racute" unicode="&#x154;" horiz-adv-x="1361" 
d="M693 1650q122 0 223 -33t174.5 -97t114 -157t40.5 -213q0 -97 -27 -176.5t-76.5 -140.5t-120.5 -101.5t-158 -60.5l547 -671h-391l-481 628h-87v-628h-308v1650h550zM451 895h148q69 0 128 15t102.5 46t68 79t24.5 115t-24.5 115t-68 79t-102.5 45.5t-128 14.5h-148v-509
zM853 2238l123 -212l-440 -230l-91 133z" />
    <glyph glyph-name="Rcaron" unicode="&#x158;" horiz-adv-x="1361" 
d="M693 1650q122 0 223 -33t174.5 -97t114 -157t40.5 -213q0 -97 -27 -176.5t-76.5 -140.5t-120.5 -101.5t-158 -60.5l547 -671h-391l-481 628h-87v-628h-308v1650h550zM451 895h148q69 0 128 15t102.5 46t68 79t24.5 115t-24.5 115t-68 79t-102.5 45.5t-128 14.5h-148v-509
zM663 1798l-419 308l113 152l306 -224l306 224l113 -152z" />
    <glyph glyph-name="uni0156" unicode="&#x156;" horiz-adv-x="1361" 
d="M693 1650q122 0 223 -33t174.5 -97t114 -157t40.5 -213q0 -97 -27 -176.5t-76.5 -140.5t-120.5 -101.5t-158 -60.5l547 -671h-391l-481 628h-87v-628h-308v1650h550zM451 895h148q69 0 128 15t102.5 46t68 79t24.5 115t-24.5 115t-68 79t-102.5 45.5t-128 14.5h-148v-509
zM663 -113q47 0 76 -30t29 -89q0 -35 -11 -72t-31.5 -73.5t-49.5 -71t-65 -63.5l-42 36q12 12 23.5 31t21.5 40.5t17 45t9 44.5q-38 8 -60.5 34.5t-22.5 65.5q0 45 29 73.5t77 28.5z" />
    <glyph glyph-name="S" unicode="S" horiz-adv-x="1331" 
d="M50 229l169 213q95 -88 204.5 -138.5t218.5 -50.5q56 0 103.5 14.5t82 41.5t54 65.5t19.5 86.5q0 44 -16 79t-54.5 67.5t-101.5 64.5t-157 69q-113 44 -194 93.5t-133 106.5t-76.5 122.5t-24.5 141.5q0 94 38 180t108 151.5t169.5 104.5t221.5 39q71 0 139 -14t128.5 -38
t111 -56t85.5 -68l-149 -220q-64 50 -147.5 82.5t-171.5 32.5q-55 0 -98.5 -15t-73 -41t-45 -59.5t-15.5 -71.5q0 -34 15 -64t48.5 -58.5t88.5 -56.5t135 -58q118 -45 211.5 -93t158.5 -107.5t99.5 -134t34.5 -172.5q0 -118 -43.5 -211t-120.5 -157.5t-184 -98t-234 -33.5
q-95 0 -185 19.5t-169 54.5t-143 83t-107 104z" />
    <glyph glyph-name="Sacute" unicode="&#x15a;" horiz-adv-x="1331" 
d="M50 229l169 213q95 -88 204.5 -138.5t218.5 -50.5q56 0 103.5 14.5t82 41.5t54 65.5t19.5 86.5q0 44 -16 79t-54.5 67.5t-101.5 64.5t-157 69q-113 44 -194 93.5t-133 106.5t-76.5 122.5t-24.5 141.5q0 94 38 180t108 151.5t169.5 104.5t221.5 39q71 0 139 -14t128.5 -38
t111 -56t85.5 -68l-149 -220q-64 50 -147.5 82.5t-171.5 32.5q-55 0 -98.5 -15t-73 -41t-45 -59.5t-15.5 -71.5q0 -34 15 -64t48.5 -58.5t88.5 -56.5t135 -58q118 -45 211.5 -93t158.5 -107.5t99.5 -134t34.5 -172.5q0 -118 -43.5 -211t-120.5 -157.5t-184 -98t-234 -33.5
q-95 0 -185 19.5t-169 54.5t-143 83t-107 104zM891 2260l123 -212l-440 -230l-91 133z" />
    <glyph glyph-name="Scaron" unicode="&#x160;" horiz-adv-x="1331" 
d="M50 229l169 213q95 -88 204.5 -138.5t218.5 -50.5q56 0 103.5 14.5t82 41.5t54 65.5t19.5 86.5q0 44 -16 79t-54.5 67.5t-101.5 64.5t-157 69q-113 44 -194 93.5t-133 106.5t-76.5 122.5t-24.5 141.5q0 94 38 180t108 151.5t169.5 104.5t221.5 39q71 0 139 -14t128.5 -38
t111 -56t85.5 -68l-149 -220q-64 50 -147.5 82.5t-171.5 32.5q-55 0 -98.5 -15t-73 -41t-45 -59.5t-15.5 -71.5q0 -34 15 -64t48.5 -58.5t88.5 -56.5t135 -58q118 -45 211.5 -93t158.5 -107.5t99.5 -134t34.5 -172.5q0 -118 -43.5 -211t-120.5 -157.5t-184 -98t-234 -33.5
q-95 0 -185 19.5t-169 54.5t-143 83t-107 104zM701 1820l-419 308l113 152l306 -224l306 224l113 -152z" />
    <glyph glyph-name="Scedilla" unicode="&#x15e;" horiz-adv-x="1331" 
d="M50 229l169 213q95 -88 204.5 -138.5t218.5 -50.5q56 0 103.5 14.5t82 41.5t54 65.5t19.5 86.5q0 44 -16 79t-54.5 67.5t-101.5 64.5t-157 69q-113 44 -194 93.5t-133 106.5t-76.5 122.5t-24.5 141.5q0 94 38 180t108 151.5t169.5 104.5t221.5 39q71 0 139 -14t128.5 -38
t111 -56t85.5 -68l-149 -220q-64 50 -147.5 82.5t-171.5 32.5q-55 0 -98.5 -15t-73 -41t-45 -59.5t-15.5 -71.5q0 -34 15 -64t48.5 -58.5t88.5 -56.5t135 -58q118 -45 211.5 -93t158.5 -107.5t99.5 -134t34.5 -172.5q0 -118 -43.5 -211t-120.5 -157.5t-184 -98t-234 -33.5
q-95 0 -185 19.5t-169 54.5t-143 83t-107 104zM344 -407l115 85q32 -45 75.5 -69t91.5 -24q51 0 81 24.5t30 64.5q0 42 -35.5 67t-92.5 25q-29 0 -59 -6t-45 -16l-16 13l78 243h127l-46 -139h16q43 0 85 -11.5t75 -35.5t53.5 -60t20.5 -85q0 -50 -20 -92t-55 -72t-84 -47
t-107 -17q-169 0 -288 152z" />
    <glyph glyph-name="uni0218" unicode="&#x218;" horiz-adv-x="1331" 
d="M50 229l169 213q95 -88 204.5 -138.5t218.5 -50.5q56 0 103.5 14.5t82 41.5t54 65.5t19.5 86.5q0 44 -16 79t-54.5 67.5t-101.5 64.5t-157 69q-113 44 -194 93.5t-133 106.5t-76.5 122.5t-24.5 141.5q0 94 38 180t108 151.5t169.5 104.5t221.5 39q71 0 139 -14t128.5 -38
t111 -56t85.5 -68l-149 -220q-64 50 -147.5 82.5t-171.5 32.5q-55 0 -98.5 -15t-73 -41t-45 -59.5t-15.5 -71.5q0 -34 15 -64t48.5 -58.5t88.5 -56.5t135 -58q118 -45 211.5 -93t158.5 -107.5t99.5 -134t34.5 -172.5q0 -118 -43.5 -211t-120.5 -157.5t-184 -98t-234 -33.5
q-95 0 -185 19.5t-169 54.5t-143 83t-107 104zM662 -113q47 0 76 -30t29 -89q0 -35 -11 -72t-31.5 -73.5t-49.5 -71t-65 -63.5l-42 36q12 12 23.5 31t21.5 40.5t17 45t9 44.5q-38 8 -60.5 34.5t-22.5 65.5q0 45 29 73.5t77 28.5z" />
    <glyph glyph-name="Germandbls" unicode="&#x1e9e;" horiz-adv-x="1564" 
d="M143 968q0 169 41 301.5t119.5 224t192 139.5t257.5 48q113 0 209.5 -30t167 -88t111 -143.5t40.5 -197.5q0 -64 -12.5 -111t-31.5 -81.5t-40.5 -59t-40.5 -43t-31.5 -34t-12.5 -31.5q0 -24 26.5 -42t66 -38t86 -47t86 -69t66 -102t26.5 -148q0 -104 -39.5 -186
t-106.5 -139t-156 -87t-189 -30q-90 0 -193 27t-207 78l111 271q78 -40 142 -60t128 -20q47 0 85 12t65.5 34t42.5 54t15 72q0 54 -28.5 88t-71.5 57.5t-93 42.5t-93 43t-71.5 57.5t-28.5 86.5q0 37 14 63.5t35 48.5t45 43t45 47t35 60.5t14 83.5q0 56 -18.5 97t-50.5 68
t-75.5 40.5t-93.5 13.5q-139 0 -209 -98t-70 -287v-996h-309v967z" />
    <glyph glyph-name="T" unicode="T" horiz-adv-x="1190" 
d="M15 1650h1160v-273h-426v-1377h-308v1377h-426v273z" />
    <glyph glyph-name="Tbar" unicode="&#x166;" horiz-adv-x="1190" 
d="M15 1377v273h1160v-273h-426v-353h227v-210h-227v-814h-308v814h-227v210h227v353h-426z" />
    <glyph glyph-name="Tcaron" unicode="&#x164;" horiz-adv-x="1190" 
d="M15 1650h1160v-273h-426v-1377h-308v1377h-426v273zM595 1798l-419 308l113 152l306 -224l306 224l113 -152z" />
    <glyph glyph-name="uni0162" unicode="&#x162;" horiz-adv-x="1190" 
d="M15 1650h1160v-273h-426v-1377h-308v1377h-426v273zM595 -113q47 0 76 -30t29 -89q0 -35 -11 -72t-31.5 -73.5t-49.5 -71t-65 -63.5l-42 36q12 12 23.5 31t21.5 40.5t17 45t9 44.5q-38 8 -60.5 34.5t-22.5 65.5q0 45 29 73.5t77 28.5z" />
    <glyph glyph-name="uni021A" unicode="&#x21a;" horiz-adv-x="1190" 
d="M15 1650h1160v-273h-426v-1377h-308v1377h-426v273zM595 -113q47 0 76 -30t29 -89q0 -35 -11 -72t-31.5 -73.5t-49.5 -71t-65 -63.5l-42 36q12 12 23.5 31t21.5 40.5t17 45t9 44.5q-38 8 -60.5 34.5t-22.5 65.5q0 45 29 73.5t77 28.5z" />
    <glyph glyph-name="U" unicode="U" horiz-adv-x="1492" 
d="M123 1650h308v-977q0 -106 18 -182.5t56.5 -125t98 -71.5t142.5 -23t143 23t98 71.5t56 125t18 182.5v977h308v-1064q0 -307 -157 -462.5t-466 -155.5t-466 155.5t-157 462.5v1064z" />
    <glyph glyph-name="Uacute" unicode="&#xda;" horiz-adv-x="1492" 
d="M123 1650h308v-977q0 -106 18 -182.5t56.5 -125t98 -71.5t142.5 -23t143 23t98 71.5t56 125t18 182.5v977h308v-1064q0 -307 -157 -462.5t-466 -155.5t-466 155.5t-157 462.5v1064zM936 2238l123 -212l-440 -230l-91 133z" />
    <glyph glyph-name="Ucircumflex" unicode="&#xdb;" horiz-adv-x="1492" 
d="M123 1650h308v-977q0 -106 18 -182.5t56.5 -125t98 -71.5t142.5 -23t143 23t98 71.5t56 125t18 182.5v977h308v-1064q0 -307 -157 -462.5t-466 -155.5t-466 155.5t-157 462.5v1064zM440 1846l-113 153l419 307l419 -307l-113 -153l-306 224z" />
    <glyph glyph-name="Udieresis" unicode="&#xdc;" horiz-adv-x="1492" 
d="M123 1650h308v-977q0 -106 18 -182.5t56.5 -125t98 -71.5t142.5 -23t143 23t98 71.5t56 125t18 182.5v977h308v-1064q0 -307 -157 -462.5t-466 -155.5t-466 155.5t-157 462.5v1064zM983 2181q32 0 60.5 -12.5t49.5 -33.5t33 -49.5t12 -60.5t-12 -60.5t-33 -49.5
t-49.5 -33.5t-60.5 -12.5q-33 0 -61.5 12.5t-49.5 33.5t-33 49.5t-12 60.5t12 60.5t33 49.5t49.5 33.5t61.5 12.5zM355 2025q0 32 12 60.5t33 49.5t49.5 33.5t61.5 12.5q32 0 60.5 -12.5t49.5 -33.5t33 -49.5t12 -60.5t-12 -60.5t-33 -49.5t-49.5 -33.5t-60.5 -12.5
q-33 0 -61.5 12.5t-49.5 33.5t-33 49.5t-12 60.5z" />
    <glyph glyph-name="Ugrave" unicode="&#xd9;" horiz-adv-x="1492" 
d="M123 1650h308v-977q0 -106 18 -182.5t56.5 -125t98 -71.5t142.5 -23t143 23t98 71.5t56 125t18 182.5v977h308v-1064q0 -307 -157 -462.5t-466 -155.5t-466 155.5t-157 462.5v1064zM840 1796l-447 235l130 207l408 -309z" />
    <glyph glyph-name="Uhungarumlaut" unicode="&#x170;" horiz-adv-x="1492" 
d="M123 1650h308v-977q0 -106 18 -182.5t56.5 -125t98 -71.5t142.5 -23t143 23t98 71.5t56 125t18 182.5v977h308v-1064q0 -307 -157 -462.5t-466 -155.5t-466 155.5t-157 462.5v1064zM935 1863l-111 130l320 313l179 -195zM446 1863l-112 130l320 313l179 -195z" />
    <glyph glyph-name="Umacron" unicode="&#x16a;" horiz-adv-x="1492" 
d="M123 1650h308v-977q0 -106 18 -182.5t56.5 -125t98 -71.5t142.5 -23t143 23t98 71.5t56 125t18 182.5v977h308v-1064q0 -307 -157 -462.5t-466 -155.5t-466 155.5t-157 462.5v1064zM338 1915v199h816v-199h-816z" />
    <glyph glyph-name="Uogonek" unicode="&#x172;" horiz-adv-x="1492" 
d="M431 1650v-977q0 -106 18 -182.5t56 -125t97.5 -71.5t142.5 -23t143 23t98.5 71.5t56.5 125t18 182.5v977h308v-1064q0 -340 -195 -496q-51 -41 -94 -91.5t-73.5 -102t-47.5 -100.5t-17 -87q0 -46 26 -75.5t77 -29.5q74 0 129 72l120 -90q-23 -33 -53.5 -60t-66 -45.5
t-75 -28.5t-79.5 -10q-54 0 -100 17.5t-79.5 48.5t-52.5 71.5t-19 87.5q0 66 41 146.5t119 171.5q-42 -8 -87.5 -12.5t-96.5 -4.5q-308 0 -465 155.5t-157 462.5v1064h308z" />
    <glyph glyph-name="Uring" unicode="&#x16e;" horiz-adv-x="1492" 
d="M123 1650h308v-977q0 -106 18 -182.5t56.5 -125t98 -71.5t142.5 -23t143 23t98 71.5t56 125t18 182.5v977h308v-1064q0 -307 -157 -462.5t-466 -155.5t-466 155.5t-157 462.5v1064zM529 2090q0 57 23 105t62.5 82.5t93.5 53.5t116 19t116 -19t93.5 -53.5t62.5 -82.5
t23 -105t-23 -105t-62.5 -82.5t-93.5 -53.5t-116 -19t-116 19t-93.5 53.5t-62.5 82.5t-23 105zM697 2090q0 -26 10 -48.5t27.5 -39t40.5 -26t49 -9.5t49 9.5t40.5 26t27.5 39t10 48.5t-10 48.5t-27.5 39t-40.5 26t-49 9.5t-49 -9.5t-40.5 -26t-27.5 -39t-10 -48.5z" />
    <glyph glyph-name="V" unicode="V" horiz-adv-x="1544" 
d="M-41 1650h348l465 -1187l465 1187h348l-692 -1650h-242z" />
    <glyph glyph-name="W" unicode="W" horiz-adv-x="2206" 
d="M-41 1650h342l322 -1229l364 1229h232l364 -1229l322 1229h342l-477 -1650h-343l-324 1055l-324 -1055h-343z" />
    <glyph glyph-name="Wacute" unicode="&#x1e82;" horiz-adv-x="2206" 
d="M-41 1650h342l322 -1229l364 1229h232l364 -1229l322 1229h342l-477 -1650h-343l-324 1055l-324 -1055h-343zM1293 2238l123 -212l-440 -230l-91 133z" />
    <glyph glyph-name="Wcircumflex" unicode="&#x174;" horiz-adv-x="2206" 
d="M-41 1650h342l322 -1229l364 1229h232l364 -1229l322 1229h342l-477 -1650h-343l-324 1055l-324 -1055h-343zM797 1846l-113 153l419 307l419 -307l-113 -153l-306 224z" />
    <glyph glyph-name="Wdieresis" unicode="&#x1e84;" horiz-adv-x="2206" 
d="M-41 1650h342l322 -1229l364 1229h232l364 -1229l322 1229h342l-477 -1650h-343l-324 1055l-324 -1055h-343zM1340 2181q32 0 60.5 -12.5t49.5 -33.5t33 -49.5t12 -60.5t-12 -60.5t-33 -49.5t-49.5 -33.5t-60.5 -12.5q-33 0 -61.5 12.5t-49.5 33.5t-33 49.5t-12 60.5
t12 60.5t33 49.5t49.5 33.5t61.5 12.5zM712 2025q0 32 12 60.5t33 49.5t49.5 33.5t61.5 12.5q32 0 60.5 -12.5t49.5 -33.5t33 -49.5t12 -60.5t-12 -60.5t-33 -49.5t-49.5 -33.5t-60.5 -12.5q-33 0 -61.5 12.5t-49.5 33.5t-33 49.5t-12 60.5z" />
    <glyph glyph-name="Wgrave" unicode="&#x1e80;" horiz-adv-x="2206" 
d="M-41 1650h342l322 -1229l364 1229h232l364 -1229l322 1229h342l-477 -1650h-343l-324 1055l-324 -1055h-343zM1197 1796l-447 235l130 207l408 -309z" />
    <glyph glyph-name="X" unicode="X" horiz-adv-x="1550" 
d="M-41 0l626 889l-525 761h368l347 -505l347 505h368l-525 -761l626 -889h-382l-434 622l-434 -622h-382z" />
    <glyph glyph-name="Y" unicode="Y" horiz-adv-x="1418" 
d="M330 1650l379 -603l379 603h371l-596 -917v-733h-308v733l-596 917h371z" />
    <glyph glyph-name="Yacute" unicode="&#xdd;" horiz-adv-x="1418" 
d="M330 1650l379 -603l379 603h371l-596 -917v-733h-308v733l-596 917h371zM898 2238l123 -212l-440 -230l-91 133z" />
    <glyph glyph-name="Ycircumflex" unicode="&#x176;" horiz-adv-x="1418" 
d="M330 1650l379 -603l379 603h371l-596 -917v-733h-308v733l-596 917h371zM402 1846l-113 153l419 307l419 -307l-113 -153l-306 224z" />
    <glyph glyph-name="Ydieresis" unicode="&#x178;" horiz-adv-x="1418" 
d="M330 1650l379 -603l379 603h371l-596 -917v-733h-308v733l-596 917h371zM945 2181q32 0 60.5 -12.5t49.5 -33.5t33 -49.5t12 -60.5t-12 -60.5t-33 -49.5t-49.5 -33.5t-60.5 -12.5q-33 0 -61.5 12.5t-49.5 33.5t-33 49.5t-12 60.5t12 60.5t33 49.5t49.5 33.5t61.5 12.5z
M317 2025q0 32 12 60.5t33 49.5t49.5 33.5t61.5 12.5q32 0 60.5 -12.5t49.5 -33.5t33 -49.5t12 -60.5t-12 -60.5t-33 -49.5t-49.5 -33.5t-60.5 -12.5q-33 0 -61.5 12.5t-49.5 33.5t-33 49.5t-12 60.5z" />
    <glyph glyph-name="Ygrave" unicode="&#x1ef2;" horiz-adv-x="1418" 
d="M330 1650l379 -603l379 603h371l-596 -917v-733h-308v733l-596 917h371zM802 1796l-447 235l130 207l408 -309z" />
    <glyph glyph-name="Z" unicode="Z" horiz-adv-x="1529" 
d="M38 0l895 1379h-779v271h1321l-896 -1379h843v-271h-1384z" />
    <glyph glyph-name="Zacute" unicode="&#x179;" horiz-adv-x="1529" 
d="M38 0l895 1379h-779v271h1321l-896 -1379h843v-271h-1384zM954 2238l123 -212l-440 -230l-91 133z" />
    <glyph glyph-name="Zcaron" unicode="&#x17d;" horiz-adv-x="1529" 
d="M38 0l895 1379h-779v271h1321l-896 -1379h843v-271h-1384zM764 1798l-419 308l113 152l306 -224l306 224l113 -152z" />
    <glyph glyph-name="Zdotaccent" unicode="&#x17b;" horiz-adv-x="1529" 
d="M38 0l895 1379h-779v271h1321l-896 -1379h843v-271h-1384zM590 2106q0 36 13.5 67.5t37.5 55.5t55.5 37.5t67.5 13.5t67.5 -13.5t55.5 -37.5t37.5 -55.5t13.5 -67.5t-13.5 -67.5t-37.5 -55.5t-55.5 -37.5t-67.5 -13.5t-67.5 13.5t-55.5 37.5t-37.5 55.5t-13.5 67.5z" />
    <glyph glyph-name="M.alt" horiz-adv-x="1882" 
d="M494 1650l447 -1055l447 1055h351v-1650h-308v995l-395 -949h-190l-395 949v-995h-308v1650h351z" />
    <glyph glyph-name="Q.alt" horiz-adv-x="1786" 
d="M898 1680q116 0 222.5 -30.5t198.5 -86t168 -133t130 -173t83.5 -205t29.5 -228.5q0 -150 -46.5 -285t-129.5 -244t-197 -186.5t-249 -113.5q80 -10 148 -22.5t138 -12.5q39 0 70.5 5.5t60 17.5t55 31.5t55.5 48.5l132 -185q-57 -108 -150 -164.5t-226 -56.5
q-57 0 -105 10t-90.5 25t-83 33t-84 33t-92.5 25t-108 10q-186 0 -284 -102l-89 99q57 71 129 119t169 72q-147 26 -272.5 101.5t-218 187t-144.5 253.5t-52 301q0 119 29.5 228.5t83.5 205t130 173t168 133t199 86t222 30.5zM898 265q109 0 200.5 42t158 116t104 177
t37.5 224q0 122 -37.5 224.5t-104 176.5t-158 116t-200.5 42t-200.5 -42t-158 -116t-104 -176.5t-37.5 -224.5q0 -121 37.5 -224t104 -177t158 -116t200.5 -42z" />
    <glyph glyph-name="R.alt" horiz-adv-x="1416" 
d="M143 1650h551q121 0 222.5 -31.5t175 -94.5t114.5 -156t41 -216q0 -97 -26.5 -178.5t-76 -144t-119 -105.5t-156.5 -64l280 -344q30 -37 57.5 -53.5t60.5 -16.5q46 0 78 27l120 -204q-52 -55 -113 -78t-133 -23q-82 0 -151.5 34.5t-140.5 119.5l-428 513h-48v-635h-308
v1650zM451 882h148q67 0 126 15t103.5 47t70.5 81t26 118q0 70 -26 119t-70.5 80.5t-103.5 46t-126 14.5h-148v-521z" />
    <glyph glyph-name="a" unicode="a" 
d="M571 1056q111 0 203 -45t161 -130v143h292v-1024h-292v143q-69 -85 -161 -130t-203 -45t-204 42t-160.5 115t-105 173t-37.5 215q0 116 37.5 215t105 172t160.5 114.5t204 41.5zM371 512q0 -64 21.5 -118t59.5 -93.5t90.5 -61.5t114.5 -22t114.5 22t90.5 61.5t59 93.5
t21 118q0 65 -21 119t-59 93t-90.5 61t-114.5 22t-114.5 -22t-90.5 -61.5t-59.5 -93.5t-21.5 -118z" />
    <glyph glyph-name="aacute" unicode="&#xe1;" 
d="M571 1056q111 0 203 -45t161 -130v143h292v-1024h-292v143q-69 -85 -161 -130t-203 -45t-204 42t-160.5 115t-105 173t-37.5 215q0 116 37.5 215t105 172t160.5 114.5t204 41.5zM371 512q0 -64 21.5 -118t59.5 -93.5t90.5 -61.5t114.5 -22t114.5 22t90.5 61.5t59 93.5
t21 118q0 65 -21 119t-59 93t-90.5 61t-114.5 22t-114.5 -22t-90.5 -61.5t-59.5 -93.5t-21.5 -118zM848 1612l123 -212l-440 -230l-91 133z" />
    <glyph glyph-name="abreve" unicode="&#x103;" 
d="M571 1056q111 0 203 -45t161 -130v143h292v-1024h-292v143q-69 -85 -161 -130t-203 -45t-204 42t-160.5 115t-105 173t-37.5 215q0 116 37.5 215t105 172t160.5 114.5t204 41.5zM371 512q0 -64 21.5 -118t59.5 -93.5t90.5 -61.5t114.5 -22t114.5 22t90.5 61.5t59 93.5
t21 118q0 65 -21 119t-59 93t-90.5 61t-114.5 22t-114.5 -22t-90.5 -61.5t-59.5 -93.5t-21.5 -118zM212 1629l209 51q6 -42 23 -81.5t46 -70t71 -48.5t97 -18t97 18t71 48.5t46 70t23 81.5l209 -51q-10 -78 -47 -142.5t-95 -111t-135 -72t-169 -25.5q-91 0 -168.5 25.5
t-135.5 72t-94.5 111t-47.5 142.5z" />
    <glyph glyph-name="acircumflex" unicode="&#xe2;" 
d="M571 1056q111 0 203 -45t161 -130v143h292v-1024h-292v143q-69 -85 -161 -130t-203 -45t-204 42t-160.5 115t-105 173t-37.5 215q0 116 37.5 215t105 172t160.5 114.5t204 41.5zM371 512q0 -64 21.5 -118t59.5 -93.5t90.5 -61.5t114.5 -22t114.5 22t90.5 61.5t59 93.5
t21 118q0 65 -21 119t-59 93t-90.5 61t-114.5 22t-114.5 -22t-90.5 -61.5t-59.5 -93.5t-21.5 -118zM352 1220l-113 153l419 307l419 -307l-113 -153l-306 224z" />
    <glyph glyph-name="adieresis" unicode="&#xe4;" 
d="M571 1056q111 0 203 -45t161 -130v143h292v-1024h-292v143q-69 -85 -161 -130t-203 -45t-204 42t-160.5 115t-105 173t-37.5 215q0 116 37.5 215t105 172t160.5 114.5t204 41.5zM371 512q0 -64 21.5 -118t59.5 -93.5t90.5 -61.5t114.5 -22t114.5 22t90.5 61.5t59 93.5
t21 118q0 65 -21 119t-59 93t-90.5 61t-114.5 22t-114.5 -22t-90.5 -61.5t-59.5 -93.5t-21.5 -118zM895 1555q32 0 60.5 -12.5t49.5 -33.5t33 -49.5t12 -60.5t-12 -60.5t-33 -49.5t-49.5 -33.5t-60.5 -12.5q-33 0 -61.5 12.5t-49.5 33.5t-33 49.5t-12 60.5t12 60.5t33 49.5
t49.5 33.5t61.5 12.5zM267 1399q0 32 12 60.5t33 49.5t49.5 33.5t61.5 12.5q32 0 60.5 -12.5t49.5 -33.5t33 -49.5t12 -60.5t-12 -60.5t-33 -49.5t-49.5 -33.5t-60.5 -12.5q-33 0 -61.5 12.5t-49.5 33.5t-33 49.5t-12 60.5z" />
    <glyph glyph-name="agrave" unicode="&#xe0;" 
d="M571 1056q111 0 203 -45t161 -130v143h292v-1024h-292v143q-69 -85 -161 -130t-203 -45t-204 42t-160.5 115t-105 173t-37.5 215q0 116 37.5 215t105 172t160.5 114.5t204 41.5zM371 512q0 -64 21.5 -118t59.5 -93.5t90.5 -61.5t114.5 -22t114.5 22t90.5 61.5t59 93.5
t21 118q0 65 -21 119t-59 93t-90.5 61t-114.5 22t-114.5 -22t-90.5 -61.5t-59.5 -93.5t-21.5 -118zM752 1170l-447 235l130 207l408 -309z" />
    <glyph glyph-name="amacron" unicode="&#x101;" 
d="M571 1056q111 0 203 -45t161 -130v143h292v-1024h-292v143q-69 -85 -161 -130t-203 -45t-204 42t-160.5 115t-105 173t-37.5 215q0 116 37.5 215t105 172t160.5 114.5t204 41.5zM371 512q0 -64 21.5 -118t59.5 -93.5t90.5 -61.5t114.5 -22t114.5 22t90.5 61.5t59 93.5
t21 118q0 65 -21 119t-59 93t-90.5 61t-114.5 22t-114.5 -22t-90.5 -61.5t-59.5 -93.5t-21.5 -118zM250 1289v199h816v-199h-816z" />
    <glyph glyph-name="aogonek" unicode="&#x105;" 
d="M571 1056q111 0 203 -45t161 -130v143h292v-1024h-292v143q-69 -85 -161 -130t-203 -45t-204 42t-160.5 115t-105 173t-37.5 215q0 116 37.5 215t105 172t160.5 114.5t204 41.5zM371 512q0 -64 21.5 -118t59.5 -93.5t90.5 -61.5t114.5 -22t114.5 22t90.5 61.5t59 93.5
t21 118q0 65 -21 119t-59 93t-90.5 61t-114.5 22t-114.5 -22t-90.5 -61.5t-59.5 -93.5t-21.5 -118zM914 -333q0 69 44.5 154t129.5 179h138q-32 -38 -57.5 -77t-43.5 -77t-28 -73t-10 -64q0 -45 26 -75t78 -30q73 0 128 72l121 -90q-23 -33 -53.5 -60t-66.5 -45.5t-75 -28.5
t-80 -10q-54 0 -100 17.5t-79.5 48.5t-52.5 71.5t-19 87.5z" />
    <glyph glyph-name="aring" unicode="&#xe5;" 
d="M571 1056q111 0 203 -45t161 -130v143h292v-1024h-292v143q-69 -85 -161 -130t-203 -45t-204 42t-160.5 115t-105 173t-37.5 215q0 116 37.5 215t105 172t160.5 114.5t204 41.5zM371 512q0 -64 21.5 -118t59.5 -93.5t90.5 -61.5t114.5 -22t114.5 22t90.5 61.5t59 93.5
t21 118q0 65 -21 119t-59 93t-90.5 61t-114.5 22t-114.5 -22t-90.5 -61.5t-59.5 -93.5t-21.5 -118zM404 1464q0 57 23 105t62.5 82.5t93.5 53.5t116 19t116 -19t93.5 -53.5t62.5 -82.5t23 -105t-23 -105t-62.5 -82.5t-93.5 -53.5t-116 -19t-116 19t-93.5 53.5t-62.5 82.5
t-23 105zM572 1464q0 -26 10 -48.5t27.5 -39t40.5 -26t49 -9.5t49 9.5t40.5 26t27.5 39t10 48.5t-10 48.5t-27.5 39t-40.5 26t-49 9.5t-49 -9.5t-40.5 -26t-27.5 -39t-10 -48.5z" />
    <glyph glyph-name="atilde" unicode="&#xe3;" 
d="M571 1056q111 0 203 -45t161 -130v143h292v-1024h-292v143q-69 -85 -161 -130t-203 -45t-204 42t-160.5 115t-105 173t-37.5 215q0 116 37.5 215t105 172t160.5 114.5t204 41.5zM371 512q0 -64 21.5 -118t59.5 -93.5t90.5 -61.5t114.5 -22t114.5 22t90.5 61.5t59 93.5
t21 118q0 65 -21 119t-59 93t-90.5 61t-114.5 22t-114.5 -22t-90.5 -61.5t-59.5 -93.5t-21.5 -118zM166 1323q60 118 141 179t181 61q46 0 84 -12t71 -30t62.5 -39t59.5 -39t62.5 -30t69.5 -12q113 0 180 121l153 -101q-62 -122 -143.5 -181t-178.5 -59q-46 0 -84 12
t-70.5 30t-62.5 39t-60 39t-62.5 30t-69.5 12q-60 0 -104 -32t-75 -89z" />
    <glyph glyph-name="ae" unicode="&#xe6;" horiz-adv-x="1858" 
d="M0 285q0 72 29 131.5t80.5 102.5t122.5 66.5t156 23.5q86 0 168 -25t141 -69v89q0 50 -19.5 90.5t-54 69.5t-82.5 44.5t-105 15.5q-31 0 -66.5 -5t-70 -14t-66.5 -21.5t-58 -28.5l-108 187q75 55 173.5 84.5t215.5 29.5q136 0 240 -42.5t164 -124.5q74 78 174 122.5
t216 44.5q119 0 218 -39t171 -109.5t112 -168t40 -214.5q0 -11 -0.5 -20t-2.5 -31h-798q0 -61 21 -111.5t60 -86.5t93.5 -55.5t121.5 -19.5q83 0 147 32.5t123 103.5l210 -107q-37 -63 -89.5 -112t-116.5 -82t-139 -50.5t-158 -17.5q-130 0 -236.5 46t-189.5 136
q-65 -46 -123 -80.5t-113 -57t-108 -33.5t-108 -11q-87 0 -158 22t-121.5 63t-78 99.5t-27.5 132.5zM288 302q0 -34 16.5 -62.5t45 -49t67 -32t81.5 -11.5q44 0 82 11t66.5 31t45 48t16.5 61t-17 61t-46 48t-67.5 31t-82.5 11t-82 -10.5t-65.5 -30t-43.5 -46.5t-16 -60z
M998 633h507q-6 51 -26.5 92t-53.5 70.5t-76.5 45.5t-95.5 16q-53 0 -98 -16.5t-79 -46.5t-54 -71t-24 -90z" />
    <glyph glyph-name="b" unicode="b" 
d="M434 1720v-838q68 85 160 129.5t203 44.5t204.5 -41.5t161 -114.5t105 -172t37.5 -215q0 -115 -37.5 -215t-105 -173t-161 -115t-204.5 -42t-203 44.5t-160 129.5v-142h-292v1720h292zM712 217q62 0 114.5 22t90.5 61t59.5 93.5t21.5 118.5q0 65 -21.5 119t-59.5 93
t-90.5 61t-114.5 22t-114.5 -22t-90.5 -61t-59 -93t-21 -119q0 -64 21 -118.5t59 -93.5t90.5 -61t114.5 -22z" />
    <glyph glyph-name="c" unicode="c" horiz-adv-x="1023" 
d="M68 512q0 115 43.5 214t120 172.5t181 115.5t225.5 42q51 0 100 -7.5t92.5 -21t81 -32.5t66.5 -41l-109 -191q-37 26 -85 40t-102 14q-69 0 -125.5 -23.5t-97 -65t-62.5 -97t-22 -119.5t22 -119.5t62.5 -96.5t97 -65t125.5 -24q54 0 102 14t85 40l109 -191
q-29 -22 -66.5 -41t-81 -32.5t-92.5 -21t-100 -7.5q-121 0 -225.5 42t-181 115.5t-120 172.5t-43.5 214z" />
    <glyph glyph-name="cacute" unicode="&#x107;" horiz-adv-x="1023" 
d="M68 512q0 115 43.5 214t120 172.5t181 115.5t225.5 42q51 0 100 -7.5t92.5 -21t81 -32.5t66.5 -41l-109 -191q-37 26 -85 40t-102 14q-69 0 -125.5 -23.5t-97 -65t-62.5 -97t-22 -119.5t22 -119.5t62.5 -96.5t97 -65t125.5 -24q54 0 102 14t85 40l109 -191
q-29 -22 -66.5 -41t-81 -32.5t-92.5 -21t-100 -7.5q-121 0 -225.5 42t-181 115.5t-120 172.5t-43.5 214zM741 1612l123 -212l-440 -230l-91 133z" />
    <glyph glyph-name="ccaron" unicode="&#x10d;" horiz-adv-x="1023" 
d="M68 512q0 115 43.5 214t120 172.5t181 115.5t225.5 42q51 0 100 -7.5t92.5 -21t81 -32.5t66.5 -41l-109 -191q-37 26 -85 40t-102 14q-69 0 -125.5 -23.5t-97 -65t-62.5 -97t-22 -119.5t22 -119.5t62.5 -96.5t97 -65t125.5 -24q54 0 102 14t85 40l109 -191
q-29 -22 -66.5 -41t-81 -32.5t-92.5 -21t-100 -7.5q-121 0 -225.5 42t-181 115.5t-120 172.5t-43.5 214zM551 1172l-419 308l113 152l306 -224l306 224l113 -152z" />
    <glyph glyph-name="ccedilla" unicode="&#xe7;" horiz-adv-x="1023" 
d="M68 512q0 115 43.5 214t120 172.5t181 115.5t225.5 42q51 0 100 -7.5t92.5 -21t81 -32.5t66.5 -41l-109 -191q-37 26 -85 40t-102 14q-69 0 -125.5 -23.5t-97 -65t-62.5 -97t-22 -119.5t22 -119.5t62.5 -96.5t97 -65t125.5 -24q54 0 102 14t85 40l109 -191
q-29 -22 -66.5 -41t-81 -32.5t-92.5 -21t-100 -7.5q-121 0 -225.5 42t-181 115.5t-120 172.5t-43.5 214zM233 -407l115 85q32 -45 75.5 -69t91.5 -24q51 0 81 24.5t30 64.5q0 42 -35.5 67t-92.5 25q-29 0 -59 -6t-45 -16l-16 13l78 243h127l-46 -139h16q43 0 85 -11.5
t75 -35.5t53.5 -60t20.5 -85q0 -50 -20 -92t-55 -72t-84 -47t-107 -17q-169 0 -288 152z" />
    <glyph glyph-name="cdotaccent" unicode="&#x10b;" horiz-adv-x="1023" 
d="M68 512q0 115 43.5 214t120 172.5t181 115.5t225.5 42q51 0 100 -7.5t92.5 -21t81 -32.5t66.5 -41l-109 -191q-37 26 -85 40t-102 14q-69 0 -125.5 -23.5t-97 -65t-62.5 -97t-22 -119.5t22 -119.5t62.5 -96.5t97 -65t125.5 -24q54 0 102 14t85 40l109 -191
q-29 -22 -66.5 -41t-81 -32.5t-92.5 -21t-100 -7.5q-121 0 -225.5 42t-181 115.5t-120 172.5t-43.5 214zM377 1480q0 36 13.5 67.5t37.5 55.5t55.5 37.5t67.5 13.5t67.5 -13.5t55.5 -37.5t37.5 -55.5t13.5 -67.5t-13.5 -67.5t-37.5 -55.5t-55.5 -37.5t-67.5 -13.5
t-67.5 13.5t-55.5 37.5t-37.5 55.5t-13.5 67.5z" />
    <glyph glyph-name="d" unicode="d" 
d="M572 1056q111 0 203 -44.5t160 -129.5v838h292v-1720h-292v142q-68 -85 -160 -129.5t-203 -44.5t-204 42t-160.5 115t-105.5 173t-38 215q0 116 38 215t105.5 172t160.5 114.5t204 41.5zM371 512q0 -64 21.5 -118.5t59.5 -93.5t90.5 -61t114.5 -22t114.5 22t90.5 61
t59 93.5t21 118.5q0 65 -21 119t-59 93t-90.5 61t-114.5 22t-114.5 -22t-90.5 -61t-59.5 -93t-21.5 -119z" />
    <glyph glyph-name="eth" unicode="&#xf0;" horiz-adv-x="1375" 
d="M73 512q0 91 24.5 167.5t66.5 138t99 108.5t122 78t134.5 47t136.5 16q58 0 106.5 -24t77.5 -66q-48 108 -115.5 190.5t-151.5 143.5l-163 -162l-130 131l129 128q-62 34 -122.5 58.5t-109.5 38.5l70 246q82 -23 175 -59.5t183 -87.5l148 147l127 -133l-113 -112
q102 -74 194 -171.5t162 -220.5t111.5 -272.5t41.5 -329.5q0 -119 -45 -219t-125 -172t-190 -112.5t-239 -40.5q-134 0 -245 40.5t-191 112.5t-124 172t-44 219zM675 218q63 0 117 22t93 61t61 93t22 118q0 65 -22.5 119t-62.5 93t-93 61t-115 22t-115.5 -22t-93 -61
t-62 -93t-22.5 -119q0 -64 21.5 -118t60 -93t92.5 -61t119 -22z" />
    <glyph glyph-name="dcaron" unicode="&#x10f;" 
d="M572 1056q111 0 203 -44.5t160 -129.5v838h292v-1720h-292v142q-68 -85 -160 -129.5t-203 -44.5t-204 42t-160.5 115t-105.5 173t-38 215q0 116 38 215t105.5 172t160.5 114.5t204 41.5zM371 512q0 -64 21.5 -118.5t59.5 -93.5t90.5 -61t114.5 -22t114.5 22t90.5 61
t59 93.5t21 118.5q0 65 -21 119t-59 93t-90.5 61t-114.5 22t-114.5 -22t-90.5 -61t-59.5 -93t-21.5 -119zM599 1598l-419 308l113 152l306 -224l306 224l113 -152z" />
    <glyph glyph-name="dcroat" unicode="&#x111;" horiz-adv-x="1457" 
d="M572 1056q111 0 203 -44.5t160 -129.5v394h-255v189h255v255h292v-255h177v-189h-177v-1276h-292v142q-68 -85 -160 -129.5t-203 -44.5t-204 42t-160.5 115t-105.5 173t-38 215q0 116 38 215t105.5 172t160.5 114.5t204 41.5zM371 512q0 -64 21.5 -118.5t59.5 -93.5
t90.5 -61t114.5 -22t114.5 22t90.5 61t59 93.5t21 118.5q0 65 -21 119t-59 93t-90.5 61t-114.5 22t-114.5 -22t-90.5 -61t-59.5 -93t-21.5 -119z" />
    <glyph glyph-name="e" unicode="e" horiz-adv-x="1238" 
d="M68 510q0 117 44 216.5t121 173t180.5 115t223.5 41.5q114 0 212 -40t169.5 -110.5t112 -166t40.5 -207.5q0 -14 -0.5 -27.5t-2.5 -30.5h-800q0 -61 21.5 -111.5t60.5 -86.5t93.5 -55.5t121.5 -19.5q83 0 147.5 33t122.5 103l211 -107q-37 -61 -89 -110t-115.5 -82.5
t-137.5 -51.5t-155 -18q-125 0 -231.5 41.5t-184 114.5t-121.5 172t-44 214zM377 620h508q-6 53 -27.5 95.5t-55 72.5t-77.5 46.5t-96 16.5q-53 0 -98 -17t-78 -47.5t-53 -73t-23 -93.5z" />
    <glyph glyph-name="eacute" unicode="&#xe9;" horiz-adv-x="1238" 
d="M68 510q0 117 44 216.5t121 173t180.5 115t223.5 41.5q114 0 212 -40t169.5 -110.5t112 -166t40.5 -207.5q0 -14 -0.5 -27.5t-2.5 -30.5h-800q0 -61 21.5 -111.5t60.5 -86.5t93.5 -55.5t121.5 -19.5q83 0 147.5 33t122.5 103l211 -107q-37 -61 -89 -110t-115.5 -82.5
t-137.5 -51.5t-155 -18q-125 0 -231.5 41.5t-184 114.5t-121.5 172t-44 214zM377 620h508q-6 53 -27.5 95.5t-55 72.5t-77.5 46.5t-96 16.5q-53 0 -98 -17t-78 -47.5t-53 -73t-23 -93.5zM820 1626l123 -212l-440 -230l-91 133z" />
    <glyph glyph-name="ecaron" unicode="&#x11b;" horiz-adv-x="1238" 
d="M68 510q0 117 44 216.5t121 173t180.5 115t223.5 41.5q114 0 212 -40t169.5 -110.5t112 -166t40.5 -207.5q0 -14 -0.5 -27.5t-2.5 -30.5h-800q0 -61 21.5 -111.5t60.5 -86.5t93.5 -55.5t121.5 -19.5q83 0 147.5 33t122.5 103l211 -107q-37 -61 -89 -110t-115.5 -82.5
t-137.5 -51.5t-155 -18q-125 0 -231.5 41.5t-184 114.5t-121.5 172t-44 214zM377 620h508q-6 53 -27.5 95.5t-55 72.5t-77.5 46.5t-96 16.5q-53 0 -98 -17t-78 -47.5t-53 -73t-23 -93.5zM630 1186l-419 308l113 152l306 -224l306 224l113 -152z" />
    <glyph glyph-name="ecircumflex" unicode="&#xea;" horiz-adv-x="1238" 
d="M68 510q0 117 44 216.5t121 173t180.5 115t223.5 41.5q114 0 212 -40t169.5 -110.5t112 -166t40.5 -207.5q0 -14 -0.5 -27.5t-2.5 -30.5h-800q0 -61 21.5 -111.5t60.5 -86.5t93.5 -55.5t121.5 -19.5q83 0 147.5 33t122.5 103l211 -107q-37 -61 -89 -110t-115.5 -82.5
t-137.5 -51.5t-155 -18q-125 0 -231.5 41.5t-184 114.5t-121.5 172t-44 214zM377 620h508q-6 53 -27.5 95.5t-55 72.5t-77.5 46.5t-96 16.5q-53 0 -98 -17t-78 -47.5t-53 -73t-23 -93.5zM324 1234l-113 153l419 307l419 -307l-113 -153l-306 224z" />
    <glyph glyph-name="edieresis" unicode="&#xeb;" horiz-adv-x="1238" 
d="M68 510q0 117 44 216.5t121 173t180.5 115t223.5 41.5q114 0 212 -40t169.5 -110.5t112 -166t40.5 -207.5q0 -14 -0.5 -27.5t-2.5 -30.5h-800q0 -61 21.5 -111.5t60.5 -86.5t93.5 -55.5t121.5 -19.5q83 0 147.5 33t122.5 103l211 -107q-37 -61 -89 -110t-115.5 -82.5
t-137.5 -51.5t-155 -18q-125 0 -231.5 41.5t-184 114.5t-121.5 172t-44 214zM377 620h508q-6 53 -27.5 95.5t-55 72.5t-77.5 46.5t-96 16.5q-53 0 -98 -17t-78 -47.5t-53 -73t-23 -93.5zM867 1569q32 0 60.5 -12.5t49.5 -33.5t33 -49.5t12 -60.5t-12 -60.5t-33 -49.5
t-49.5 -33.5t-60.5 -12.5q-33 0 -61.5 12.5t-49.5 33.5t-33 49.5t-12 60.5t12 60.5t33 49.5t49.5 33.5t61.5 12.5zM239 1413q0 32 12 60.5t33 49.5t49.5 33.5t61.5 12.5q32 0 60.5 -12.5t49.5 -33.5t33 -49.5t12 -60.5t-12 -60.5t-33 -49.5t-49.5 -33.5t-60.5 -12.5
q-33 0 -61.5 12.5t-49.5 33.5t-33 49.5t-12 60.5z" />
    <glyph glyph-name="edotaccent" unicode="&#x117;" horiz-adv-x="1238" 
d="M68 510q0 117 44 216.5t121 173t180.5 115t223.5 41.5q114 0 212 -40t169.5 -110.5t112 -166t40.5 -207.5q0 -14 -0.5 -27.5t-2.5 -30.5h-800q0 -61 21.5 -111.5t60.5 -86.5t93.5 -55.5t121.5 -19.5q83 0 147.5 33t122.5 103l211 -107q-37 -61 -89 -110t-115.5 -82.5
t-137.5 -51.5t-155 -18q-125 0 -231.5 41.5t-184 114.5t-121.5 172t-44 214zM377 620h508q-6 53 -27.5 95.5t-55 72.5t-77.5 46.5t-96 16.5q-53 0 -98 -17t-78 -47.5t-53 -73t-23 -93.5zM456 1494q0 36 13.5 67.5t37.5 55.5t55.5 37.5t67.5 13.5t67.5 -13.5t55.5 -37.5
t37.5 -55.5t13.5 -67.5t-13.5 -67.5t-37.5 -55.5t-55.5 -37.5t-67.5 -13.5t-67.5 13.5t-55.5 37.5t-37.5 55.5t-13.5 67.5z" />
    <glyph glyph-name="egrave" unicode="&#xe8;" horiz-adv-x="1238" 
d="M68 510q0 117 44 216.5t121 173t180.5 115t223.5 41.5q114 0 212 -40t169.5 -110.5t112 -166t40.5 -207.5q0 -14 -0.5 -27.5t-2.5 -30.5h-800q0 -61 21.5 -111.5t60.5 -86.5t93.5 -55.5t121.5 -19.5q83 0 147.5 33t122.5 103l211 -107q-37 -61 -89 -110t-115.5 -82.5
t-137.5 -51.5t-155 -18q-125 0 -231.5 41.5t-184 114.5t-121.5 172t-44 214zM377 620h508q-6 53 -27.5 95.5t-55 72.5t-77.5 46.5t-96 16.5q-53 0 -98 -17t-78 -47.5t-53 -73t-23 -93.5zM724 1184l-447 235l130 207l408 -309z" />
    <glyph glyph-name="emacron" unicode="&#x113;" horiz-adv-x="1238" 
d="M68 510q0 117 44 216.5t121 173t180.5 115t223.5 41.5q114 0 212 -40t169.5 -110.5t112 -166t40.5 -207.5q0 -14 -0.5 -27.5t-2.5 -30.5h-800q0 -61 21.5 -111.5t60.5 -86.5t93.5 -55.5t121.5 -19.5q83 0 147.5 33t122.5 103l211 -107q-37 -61 -89 -110t-115.5 -82.5
t-137.5 -51.5t-155 -18q-125 0 -231.5 41.5t-184 114.5t-121.5 172t-44 214zM377 620h508q-6 53 -27.5 95.5t-55 72.5t-77.5 46.5t-96 16.5q-53 0 -98 -17t-78 -47.5t-53 -73t-23 -93.5zM222 1303v199h816v-199h-816z" />
    <glyph glyph-name="eogonek" unicode="&#x119;" horiz-adv-x="1238" 
d="M637 1056q114 0 212 -40t169.5 -110.5t112 -166t40.5 -207.5q0 -14 -0.5 -27.5t-2.5 -30.5h-800q0 -61 21.5 -111.5t60.5 -86.5t93.5 -55.5t121.5 -19.5q83 0 147.5 33t122.5 103l211 -107q-47 -79 -122 -139q-52 -42 -95 -92.5t-74 -102t-48 -100.5t-17 -87
q0 -45 26.5 -75t77.5 -30q75 0 130 72l121 -90q-23 -33 -53.5 -60t-66.5 -45.5t-75 -28.5t-80 -10q-55 0 -101 17.5t-80 48.5t-53 71.5t-19 87.5q0 65 40 144.5t117 167.5q-30 -5 -61.5 -8t-63.5 -3q-125 0 -231.5 41.5t-184 114.5t-121.5 172t-44 214q0 117 44 216.5
t121 173t180.5 115t223.5 41.5zM377 620h508q-6 53 -27.5 95.5t-55 72.5t-77.5 46.5t-96 16.5q-53 0 -98 -17t-78 -47.5t-53 -73t-23 -93.5z" />
    <glyph glyph-name="f" unicode="f" horiz-adv-x="711" 
d="M41 1024h134v265q0 114 26.5 200.5t74 144.5t113.5 87t146 29q84 0 160.5 -30.5t127.5 -84.5l-141 -189q-22 24 -46.5 33t-48.5 9q-120 0 -120 -192v-272h244v-222h-244v-802h-292v802h-134v222z" />
    <glyph glyph-name="g" unicode="g" 
d="M572 1056q111 0 203 -45t160 -130v143h292v-1052q0 -114 -37 -210t-111 -165.5t-185.5 -108t-261.5 -38.5q-207 0 -346 75.5t-204 222.5l239 116q21 -37 53.5 -67t73 -51t87.5 -32.5t97 -11.5q67 0 122.5 20.5t95.5 58t62.5 90.5t22.5 118v154q-68 -85 -160 -130
t-203 -45t-204 42t-160.5 115t-105 173t-37.5 215q0 116 37.5 215t105 172t160.5 114.5t204 41.5zM658 217q62 0 114.5 22t90.5 61.5t59 93.5t21 118q0 65 -21 119t-59 93t-90.5 61t-114.5 22t-114.5 -22t-91 -61.5t-60 -93.5t-21.5 -118t21.5 -118t60 -93.5t91 -61.5
t114.5 -22z" />
    <glyph glyph-name="gbreve" unicode="&#x11f;" 
d="M572 1056q111 0 203 -45t160 -130v143h292v-1052q0 -114 -37 -210t-111 -165.5t-185.5 -108t-261.5 -38.5q-207 0 -346 75.5t-204 222.5l239 116q21 -37 53.5 -67t73 -51t87.5 -32.5t97 -11.5q67 0 122.5 20.5t95.5 58t62.5 90.5t22.5 118v154q-68 -85 -160 -130
t-203 -45t-204 42t-160.5 115t-105 173t-37.5 215q0 116 37.5 215t105 172t160.5 114.5t204 41.5zM658 217q62 0 114.5 22t90.5 61.5t59 93.5t21 118q0 65 -21 119t-59 93t-90.5 61t-114.5 22t-114.5 -22t-91 -61.5t-60 -93.5t-21.5 -118t21.5 -118t60 -93.5t91 -61.5
t114.5 -22zM211 1629l209 51q6 -42 23 -81.5t46 -70t71 -48.5t97 -18t97 18t71 48.5t46 70t23 81.5l209 -51q-10 -78 -47 -142.5t-95 -111t-135 -72t-169 -25.5q-91 0 -168.5 25.5t-135.5 72t-94.5 111t-47.5 142.5z" />
    <glyph glyph-name="uni0123" unicode="&#x123;" 
d="M572 1056q111 0 203 -45t160 -130v143h292v-1052q0 -114 -37 -210t-111 -165.5t-185.5 -108t-261.5 -38.5q-207 0 -346 75.5t-204 222.5l239 116q21 -37 53.5 -67t73 -51t87.5 -32.5t97 -11.5q67 0 122.5 20.5t95.5 58t62.5 90.5t22.5 118v154q-68 -85 -160 -130
t-203 -45t-204 42t-160.5 115t-105 173t-37.5 215q0 116 37.5 215t105 172t160.5 114.5t204 41.5zM658 217q62 0 114.5 22t90.5 61.5t59 93.5t21 118q0 65 -21 119t-59 93t-90.5 61t-114.5 22t-114.5 -22t-91 -61.5t-60 -93.5t-21.5 -118t21.5 -118t60 -93.5t91 -61.5
t114.5 -22zM656 1287q-47 0 -76 30t-29 89q0 35 11 72t31.5 73.5t49.5 71t65 63.5l42 -36q-12 -12 -23.5 -31t-21.5 -40.5t-17 -45t-9 -44.5q38 -8 60.5 -34.5t22.5 -65.5q0 -45 -29 -73.5t-77 -28.5z" />
    <glyph glyph-name="gdotaccent" unicode="&#x121;" 
d="M572 1056q111 0 203 -45t160 -130v143h292v-1052q0 -114 -37 -210t-111 -165.5t-185.5 -108t-261.5 -38.5q-207 0 -346 75.5t-204 222.5l239 116q21 -37 53.5 -67t73 -51t87.5 -32.5t97 -11.5q67 0 122.5 20.5t95.5 58t62.5 90.5t22.5 118v154q-68 -85 -160 -130
t-203 -45t-204 42t-160.5 115t-105 173t-37.5 215q0 116 37.5 215t105 172t160.5 114.5t204 41.5zM658 217q62 0 114.5 22t90.5 61.5t59 93.5t21 118q0 65 -21 119t-59 93t-90.5 61t-114.5 22t-114.5 -22t-91 -61.5t-60 -93.5t-21.5 -118t21.5 -118t60 -93.5t91 -61.5
t114.5 -22zM483 1480q0 36 13.5 67.5t37.5 55.5t55.5 37.5t67.5 13.5t67.5 -13.5t55.5 -37.5t37.5 -55.5t13.5 -67.5t-13.5 -67.5t-37.5 -55.5t-55.5 -37.5t-67.5 -13.5t-67.5 13.5t-55.5 37.5t-37.5 55.5t-13.5 67.5z" />
    <glyph glyph-name="h" unicode="h" horiz-adv-x="1300" 
d="M144 1720h292v-812q57 66 146 107t197 41q88 0 161.5 -29.5t126 -83t81.5 -129t29 -167.5v-647h-292v585q0 115 -59 178.5t-162 63.5q-53 0 -95.5 -16.5t-72 -46t-45 -69t-15.5 -84.5v-611h-292v1720z" />
    <glyph glyph-name="hbar" unicode="&#x127;" horiz-adv-x="1300" 
d="M144 1439v281h292v-281h263v-179h-263v-352q57 66 146 107t197 41q88 0 161.5 -29.5t126 -83t81.5 -129t29 -167.5v-647h-292v585q0 115 -59 178.5t-162 63.5q-53 0 -95.5 -16.5t-72 -46t-45 -69t-15.5 -84.5v-611h-292v1260h-100v179h100z" />
    <glyph glyph-name="i" unicode="i" horiz-adv-x="576" 
d="M434 1024v-1024h-292v1024h292zM114 1411q0 36 13.5 67.5t37.5 55.5t55.5 37.5t67.5 13.5t67.5 -13.5t55.5 -37.5t37.5 -55.5t13.5 -67.5t-13.5 -67.5t-37.5 -55.5t-55.5 -37.5t-67.5 -13.5t-67.5 13.5t-55.5 37.5t-37.5 55.5t-13.5 67.5z" />
    <glyph glyph-name="dotlessi" unicode="&#x131;" horiz-adv-x="660" 
d="M184 0v1024h292v-1024h-292z" />
    <glyph glyph-name="iacute" unicode="&#xed;" horiz-adv-x="520" 
d="M114 0v1024h292v-1024h-292zM450 1612l123 -212l-440 -230l-91 133z" />
    <glyph glyph-name="icircumflex" unicode="&#xee;" horiz-adv-x="660" 
d="M184 0v1024h292v-1024h-292zM24 1220l-113 153l419 307l419 -307l-113 -153l-306 224z" />
    <glyph glyph-name="idieresis" unicode="&#xef;" horiz-adv-x="660" 
d="M184 0v1024h292v-1024h-292zM567 1555q32 0 60.5 -12.5t49.5 -33.5t33 -49.5t12 -60.5t-12 -60.5t-33 -49.5t-49.5 -33.5t-60.5 -12.5q-33 0 -61.5 12.5t-49.5 33.5t-33 49.5t-12 60.5t12 60.5t33 49.5t49.5 33.5t61.5 12.5zM-61 1399q0 32 12 60.5t33 49.5t49.5 33.5
t61.5 12.5q32 0 60.5 -12.5t49.5 -33.5t33 -49.5t12 -60.5t-12 -60.5t-33 -49.5t-49.5 -33.5t-60.5 -12.5q-33 0 -61.5 12.5t-49.5 33.5t-33 49.5t-12 60.5z" />
    <glyph glyph-name="idotaccent" horiz-adv-x="520" 
d="M114 0v1024h292v-1024h-292zM86 1480q0 36 13.5 67.5t37.5 55.5t55.5 37.5t67.5 13.5t67.5 -13.5t55.5 -37.5t37.5 -55.5t13.5 -67.5t-13.5 -67.5t-37.5 -55.5t-55.5 -37.5t-67.5 -13.5t-67.5 13.5t-55.5 37.5t-37.5 55.5t-13.5 67.5z" />
    <glyph glyph-name="igrave" unicode="&#xec;" horiz-adv-x="520" 
d="M114 0v1024h292v-1024h-292zM354 1170l-447 235l130 207l408 -309z" />
    <glyph glyph-name="imacron" unicode="&#x12b;" horiz-adv-x="660" 
d="M184 0v1024h292v-1024h-292zM-78 1289v199h816v-199h-816z" />
    <glyph glyph-name="iogonek" unicode="&#x12f;" horiz-adv-x="576" 
d="M434 1024v-1024h-292v1024h292zM114 1411q0 36 13.5 67.5t37.5 55.5t55.5 37.5t67.5 13.5t67.5 -13.5t55.5 -37.5t37.5 -55.5t13.5 -67.5t-13.5 -67.5t-37.5 -55.5t-55.5 -37.5t-67.5 -13.5t-67.5 13.5t-55.5 37.5t-37.5 55.5t-13.5 67.5zM121 -333q0 69 44.5 154
t129.5 179h138q-32 -38 -57.5 -77t-43.5 -77t-28 -73t-10 -64q0 -45 26 -75t78 -30q73 0 128 72l121 -90q-23 -33 -53.5 -60t-66.5 -45.5t-75 -28.5t-80 -10q-54 0 -100 17.5t-79.5 48.5t-52.5 71.5t-19 87.5z" />
    <glyph glyph-name="j" unicode="j" horiz-adv-x="576" 
d="M-72 -246q21 -24 46 -33t48 -9q60 0 90 44t30 116v1152h292v-1202q0 -87 -24 -156t-69.5 -117t-110.5 -73.5t-147 -25.5q-90 0 -167.5 30.5t-128.5 84.5zM114 1411q0 36 13.5 67.5t37.5 55.5t55.5 37.5t67.5 13.5t67.5 -13.5t55.5 -37.5t37.5 -55.5t13.5 -67.5
t-13.5 -67.5t-37.5 -55.5t-55.5 -37.5t-67.5 -13.5t-67.5 13.5t-55.5 37.5t-37.5 55.5t-13.5 67.5z" />
    <glyph glyph-name="k" unicode="k" horiz-adv-x="1203" 
d="M439 1720v-1074l382 378h378l-498 -500l521 -524h-375l-408 412v-412h-292v1720h292z" />
    <glyph glyph-name="uni0137" unicode="&#x137;" horiz-adv-x="1203" 
d="M439 1720v-1074l382 378h378l-498 -500l521 -524h-375l-408 412v-412h-292v1720h292zM601 -113q47 0 76 -30t29 -89q0 -35 -11 -72t-31.5 -73.5t-49.5 -71t-65 -63.5l-42 36q12 12 23.5 31t21.5 40.5t17 45t9 44.5q-38 8 -60.5 34.5t-22.5 65.5q0 45 29 73.5t77 28.5z
" />
    <glyph glyph-name="l" unicode="l" horiz-adv-x="576" 
d="M142 0v1720h292v-1720h-292z" />
    <glyph glyph-name="lacute" unicode="&#x13a;" horiz-adv-x="576" 
d="M142 0v1720h292v-1720h-292zM478 2308l123 -212l-440 -230l-91 133z" />
    <glyph glyph-name="lcaron" unicode="&#x13e;" horiz-adv-x="576" 
d="M142 0v1720h292v-1720h-292zM288 1868l-419 308l113 152l306 -224l306 224l113 -152z" />
    <glyph glyph-name="uni013C" unicode="&#x13c;" horiz-adv-x="576" 
d="M142 0v1720h292v-1720h-292zM288 -113q47 0 76 -30t29 -89q0 -35 -11 -72t-31.5 -73.5t-49.5 -71t-65 -63.5l-42 36q12 12 23.5 31t21.5 40.5t17 45t9 44.5q-38 8 -60.5 34.5t-22.5 65.5q0 45 29 73.5t77 28.5z" />
    <glyph glyph-name="lslash" unicode="&#x142;" horiz-adv-x="896" 
d="M302 930v790h292v-561l160 126v-255l-160 -125v-905h-292v675l-160 -125v254z" />
    <glyph glyph-name="m" unicode="m" horiz-adv-x="1965" 
d="M144 1024h292v-139q66 91 143.5 131t173.5 40q59 0 113.5 -14t100 -39.5t80.5 -62t55 -81.5q73 97 159.5 147t199.5 50q83 0 153 -26.5t120.5 -75.5t79 -118.5t28.5 -156.5v-679h-292v599q0 104 -53.5 163.5t-144.5 59.5q-47 0 -86.5 -15.5t-67.5 -45t-43.5 -71.5
t-15.5 -96v-594h-292v606q0 49 -13.5 89t-39 68t-61.5 43.5t-82 15.5q-47 0 -86.5 -16t-68 -46t-44.5 -73.5t-16 -98.5v-588h-292v1024z" />
    <glyph glyph-name="n" unicode="n" horiz-adv-x="1300" 
d="M144 1024h292v-140q57 85 145.5 128.5t197.5 43.5q88 0 161.5 -29.5t126 -83t81.5 -128.5t29 -167v-648h-292v586q0 115 -59 178t-162 63q-107 0 -167.5 -67t-60.5 -188v-572h-292v1024z" />
    <glyph glyph-name="nacute" unicode="&#x144;" horiz-adv-x="1300" 
d="M144 1024h292v-140q57 85 145.5 128.5t197.5 43.5q88 0 161.5 -29.5t126 -83t81.5 -128.5t29 -167v-648h-292v586q0 115 -59 178t-162 63q-107 0 -167.5 -67t-60.5 -188v-572h-292v1024zM853 1612l123 -212l-440 -230l-91 133z" />
    <glyph glyph-name="ncaron" unicode="&#x148;" horiz-adv-x="1300" 
d="M144 1024h292v-140q57 85 145.5 128.5t197.5 43.5q88 0 161.5 -29.5t126 -83t81.5 -128.5t29 -167v-648h-292v586q0 115 -59 178t-162 63q-107 0 -167.5 -67t-60.5 -188v-572h-292v1024zM663 1172l-419 308l113 152l306 -224l306 224l113 -152z" />
    <glyph glyph-name="uni0146" unicode="&#x146;" horiz-adv-x="1300" 
d="M144 1024h292v-140q57 85 145.5 128.5t197.5 43.5q88 0 161.5 -29.5t126 -83t81.5 -128.5t29 -167v-648h-292v586q0 115 -59 178t-162 63q-107 0 -167.5 -67t-60.5 -188v-572h-292v1024zM663 -113q47 0 76 -30t29 -89q0 -35 -11 -72t-31.5 -73.5t-49.5 -71t-65 -63.5
l-42 36q12 12 23.5 31t21.5 40.5t17 45t9 44.5q-38 8 -60.5 34.5t-22.5 65.5q0 45 29 73.5t77 28.5z" />
    <glyph glyph-name="eng" unicode="&#x14b;" horiz-adv-x="1291" 
d="M144 1024h292v-122q57 71 145.5 112.5t197.5 41.5q88 0 161.5 -29.5t126 -83t81.5 -129t29 -167.5v-825q0 -87 -24 -156t-69.5 -117t-110.5 -73.5t-147 -25.5q-91 0 -168.5 30.5t-127.5 84.5l141 189q21 -24 45.5 -33t47.5 -9q61 0 91 44t30 116v714q0 115 -59 178
t-162 63q-53 0 -95 -17.5t-71.5 -50t-45.5 -80t-16 -107.5v-572h-292v1024z" />
    <glyph glyph-name="ntilde" unicode="&#xf1;" horiz-adv-x="1300" 
d="M144 1024h292v-140q57 85 145.5 128.5t197.5 43.5q88 0 161.5 -29.5t126 -83t81.5 -128.5t29 -167v-648h-292v586q0 115 -59 178t-162 63q-107 0 -167.5 -67t-60.5 -188v-572h-292v1024zM131 1324q60 118 141 179t181 61q46 0 84 -12t71 -30t62.5 -39t59.5 -39t62.5 -30
t69.5 -12q113 0 180 121l153 -101q-62 -122 -143.5 -181t-178.5 -59q-46 0 -84 12t-70.5 30t-62.5 39t-60 39t-62 30t-70 12q-60 0 -104 -32t-75 -89z" />
    <glyph glyph-name="o" unicode="o" horiz-adv-x="1330" 
d="M67 512q0 120 46 220t126.5 172t189.5 112t236 40t236 -40t189.5 -112t126.5 -172t46 -220t-46 -220t-126.5 -172t-189.5 -112t-236 -40t-236 40t-189.5 112t-126.5 172t-46 220zM372 512q0 -64 22.5 -118t62 -93t93 -61t115.5 -22t115.5 22t93 61t62 93t22.5 118
q0 65 -22.5 119t-62 93t-93 60.5t-115.5 21.5t-115.5 -21.5t-93 -60.5t-62 -93t-22.5 -119z" />
    <glyph glyph-name="oacute" unicode="&#xf3;" horiz-adv-x="1330" 
d="M67 512q0 120 46 220t126.5 172t189.5 112t236 40t236 -40t189.5 -112t126.5 -172t46 -220t-46 -220t-126.5 -172t-189.5 -112t-236 -40t-236 40t-189.5 112t-126.5 172t-46 220zM372 512q0 -64 22.5 -118t62 -93t93 -61t115.5 -22t115.5 22t93 61t62 93t22.5 118
q0 65 -22.5 119t-62 93t-93 60.5t-115.5 21.5t-115.5 -21.5t-93 -60.5t-62 -93t-22.5 -119zM855 1612l123 -212l-440 -230l-91 133z" />
    <glyph glyph-name="ocircumflex" unicode="&#xf4;" horiz-adv-x="1330" 
d="M67 512q0 120 46 220t126.5 172t189.5 112t236 40t236 -40t189.5 -112t126.5 -172t46 -220t-46 -220t-126.5 -172t-189.5 -112t-236 -40t-236 40t-189.5 112t-126.5 172t-46 220zM372 512q0 -64 22.5 -118t62 -93t93 -61t115.5 -22t115.5 22t93 61t62 93t22.5 118
q0 65 -22.5 119t-62 93t-93 60.5t-115.5 21.5t-115.5 -21.5t-93 -60.5t-62 -93t-22.5 -119zM359 1220l-113 153l419 307l419 -307l-113 -153l-306 224z" />
    <glyph glyph-name="odieresis" unicode="&#xf6;" horiz-adv-x="1330" 
d="M67 512q0 120 46 220t126.5 172t189.5 112t236 40t236 -40t189.5 -112t126.5 -172t46 -220t-46 -220t-126.5 -172t-189.5 -112t-236 -40t-236 40t-189.5 112t-126.5 172t-46 220zM372 512q0 -64 22.5 -118t62 -93t93 -61t115.5 -22t115.5 22t93 61t62 93t22.5 118
q0 65 -22.5 119t-62 93t-93 60.5t-115.5 21.5t-115.5 -21.5t-93 -60.5t-62 -93t-22.5 -119zM902 1555q32 0 60.5 -12.5t49.5 -33.5t33 -49.5t12 -60.5t-12 -60.5t-33 -49.5t-49.5 -33.5t-60.5 -12.5q-33 0 -61.5 12.5t-49.5 33.5t-33 49.5t-12 60.5t12 60.5t33 49.5
t49.5 33.5t61.5 12.5zM274 1399q0 32 12 60.5t33 49.5t49.5 33.5t61.5 12.5q32 0 60.5 -12.5t49.5 -33.5t33 -49.5t12 -60.5t-12 -60.5t-33 -49.5t-49.5 -33.5t-60.5 -12.5q-33 0 -61.5 12.5t-49.5 33.5t-33 49.5t-12 60.5z" />
    <glyph glyph-name="ograve" unicode="&#xf2;" horiz-adv-x="1330" 
d="M67 512q0 120 46 220t126.5 172t189.5 112t236 40t236 -40t189.5 -112t126.5 -172t46 -220t-46 -220t-126.5 -172t-189.5 -112t-236 -40t-236 40t-189.5 112t-126.5 172t-46 220zM372 512q0 -64 22.5 -118t62 -93t93 -61t115.5 -22t115.5 22t93 61t62 93t22.5 118
q0 65 -22.5 119t-62 93t-93 60.5t-115.5 21.5t-115.5 -21.5t-93 -60.5t-62 -93t-22.5 -119zM759 1170l-447 235l130 207l408 -309z" />
    <glyph glyph-name="ohungarumlaut" unicode="&#x151;" horiz-adv-x="1330" 
d="M67 512q0 120 46 220t126.5 172t189.5 112t236 40t236 -40t189.5 -112t126.5 -172t46 -220t-46 -220t-126.5 -172t-189.5 -112t-236 -40t-236 40t-189.5 112t-126.5 172t-46 220zM372 512q0 -64 22.5 -118t62 -93t93 -61t115.5 -22t115.5 22t93 61t62 93t22.5 118
q0 65 -22.5 119t-62 93t-93 60.5t-115.5 21.5t-115.5 -21.5t-93 -60.5t-62 -93t-22.5 -119zM854 1237l-111 130l320 313l179 -195zM365 1237l-112 130l320 313l179 -195z" />
    <glyph glyph-name="omacron" unicode="&#x14d;" horiz-adv-x="1330" 
d="M67 512q0 120 46 220t126.5 172t189.5 112t236 40t236 -40t189.5 -112t126.5 -172t46 -220t-46 -220t-126.5 -172t-189.5 -112t-236 -40t-236 40t-189.5 112t-126.5 172t-46 220zM372 512q0 -64 22.5 -118t62 -93t93 -61t115.5 -22t115.5 22t93 61t62 93t22.5 118
q0 65 -22.5 119t-62 93t-93 60.5t-115.5 21.5t-115.5 -21.5t-93 -60.5t-62 -93t-22.5 -119zM257 1289v199h816v-199h-816z" />
    <glyph glyph-name="oslash" unicode="&#xf8;" horiz-adv-x="1330" 
d="M369 33l-54 -65h-137l99 121q-98 72 -154 180t-56 243q0 120 46 220t126.5 172t189.5 112t236 40q94 0 178.5 -22t156.5 -64l70 86h137l-121 -147q83 -73 130 -173.5t47 -223.5q0 -120 -46 -220t-126.5 -172t-189.5 -112t-236 -40q-82 0 -156.5 16.5t-139.5 48.5z
M828 760q-71 46 -163 46q-62 0 -115.5 -21.5t-93 -60.5t-62 -93t-22.5 -119q0 -63 21.5 -116.5t59.5 -91.5zM541 243q58 -25 124 -25q62 0 115.5 22t93 61t62 93t22.5 118q0 51 -14 95t-39 80z" />
    <glyph glyph-name="otilde" unicode="&#xf5;" horiz-adv-x="1330" 
d="M67 512q0 120 46 220t126.5 172t189.5 112t236 40t236 -40t189.5 -112t126.5 -172t46 -220t-46 -220t-126.5 -172t-189.5 -112t-236 -40t-236 40t-189.5 112t-126.5 172t-46 220zM372 512q0 -64 22.5 -118t62 -93t93 -61t115.5 -22t115.5 22t93 61t62 93t22.5 118
q0 65 -22.5 119t-62 93t-93 60.5t-115.5 21.5t-115.5 -21.5t-93 -60.5t-62 -93t-22.5 -119zM133 1324q60 118 141 179t181 61q46 0 84 -12t71 -30t62.5 -39t59.5 -39t62 -30t70 -12q113 0 180 121l153 -101q-62 -122 -143.5 -181t-178.5 -59q-46 0 -84 12t-70.5 30t-62.5 39
t-60 39t-62 30t-70 12q-60 0 -104 -32t-75 -89z" />
    <glyph glyph-name="oe" unicode="&#x153;" horiz-adv-x="2114" 
d="M67 512q0 120 43.5 220t121.5 172t185 112t234 40q143 0 254.5 -56t176.5 -159q75 102 183.5 158.5t242.5 56.5q117 0 216 -39.5t171 -110t112 -167.5t40 -213v-21t-2 -31h-799q0 -61 21 -111.5t60 -86.5t93.5 -55.5t121.5 -19.5q84 0 147.5 32.5t122.5 103.5l210 -107
q-37 -63 -89.5 -111.5t-117 -82t-139.5 -51t-158 -17.5q-141 0 -250.5 55t-186.5 159q-63 -102 -174 -158t-255 -56q-127 0 -234.5 40t-185.5 112t-121.5 172t-43.5 220zM665 217q63 0 117 22t93.5 61.5t61.5 93.5t22 118t-22 118t-61.5 93.5t-93.5 61.5t-117 22t-117 -22
t-93.5 -61.5t-61.5 -93.5t-22 -118t22 -118t61.5 -93.5t93.5 -61.5t117 -22zM1254 633h508q-6 51 -27 92t-54 70.5t-76.5 45.5t-94.5 16q-54 0 -99 -16.5t-79 -46.5t-54 -71t-24 -90z" />
    <glyph glyph-name="p" unicode="p" 
d="M142 -520v1544h292v-142q68 85 160 129.5t203 44.5t204.5 -41.5t161 -114.5t105 -172t37.5 -215q0 -115 -37.5 -215t-105 -173t-161 -115t-204.5 -42t-203 44.5t-160 129.5v-662h-292zM427 512q0 -64 21 -118.5t59 -93.5t90.5 -61t114.5 -22t114.5 22t90.5 61t59.5 93.5
t21.5 118.5q0 65 -21.5 119t-59.5 93t-90.5 61t-114.5 22t-114.5 -22t-90.5 -61t-59 -93t-21 -119z" />
    <glyph glyph-name="thorn" unicode="&#xfe;" 
d="M434 1720v-838q68 85 160 129.5t203 44.5t204.5 -41.5t161 -114.5t105 -172t37.5 -215q0 -115 -37.5 -215t-105 -173t-161 -115t-204.5 -42t-203 44.5t-160 129.5v-662h-292v2240h292zM712 217q62 0 114.5 22t90.5 61t59.5 93.5t21.5 118.5q0 65 -21.5 119t-59.5 93
t-90.5 61t-114.5 22t-114.5 -22t-90.5 -61t-59 -93t-21 -119q0 -64 21 -118.5t59 -93.5t90.5 -61t114.5 -22z" />
    <glyph glyph-name="q" unicode="q" 
d="M572 1056q111 0 203 -44.5t160 -129.5v142h292v-1544h-292v662q-68 -85 -160 -129.5t-203 -44.5t-204 42t-160.5 115t-105.5 173t-38 215q0 116 38 215t105.5 172t160.5 114.5t204 41.5zM371 512q0 -64 21.5 -118.5t59.5 -93.5t90.5 -61t114.5 -22t114.5 22t90.5 61
t59 93.5t21 118.5q0 65 -21 119t-59 93t-90.5 61t-114.5 22t-114.5 -22t-90.5 -61t-59.5 -93t-21.5 -119z" />
    <glyph glyph-name="r" unicode="r" horiz-adv-x="936" 
d="M144 1024h292v-168q52 102 136.5 151t181.5 49q57 0 111 -15.5t93 -39.5l-121 -247q-35 23 -78 36t-85 13q-48 0 -91 -19t-76 -55t-52 -89.5t-19 -122.5v-517h-292v1024z" />
    <glyph glyph-name="racute" unicode="&#x155;" horiz-adv-x="936" 
d="M144 1024h292v-168q52 102 136.5 151t181.5 49q57 0 111 -15.5t93 -39.5l-121 -247q-35 23 -78 36t-85 13q-48 0 -91 -19t-76 -55t-52 -89.5t-19 -122.5v-517h-292v1024zM717 1612l123 -212l-440 -230l-91 133z" />
    <glyph glyph-name="rcaron" unicode="&#x159;" horiz-adv-x="936" 
d="M144 1024h292v-168q52 102 136.5 151t181.5 49q57 0 111 -15.5t93 -39.5l-121 -247q-35 23 -78 36t-85 13q-48 0 -91 -19t-76 -55t-52 -89.5t-19 -122.5v-517h-292v1024zM527 1172l-419 308l113 152l306 -224l306 224l113 -152z" />
    <glyph glyph-name="uni0157" unicode="&#x157;" horiz-adv-x="936" 
d="M144 1024h292v-168q52 102 136.5 151t181.5 49q57 0 111 -15.5t93 -39.5l-121 -247q-35 23 -78 36t-85 13q-48 0 -91 -19t-76 -55t-52 -89.5t-19 -122.5v-517h-292v1024zM290 -113q47 0 76 -30t29 -89q0 -35 -11 -72t-31.5 -73.5t-49.5 -71t-65 -63.5l-42 36
q12 12 23.5 31t21.5 40.5t17 45t9 44.5q-38 8 -60.5 34.5t-22.5 65.5q0 45 29 73.5t77 28.5z" />
    <glyph glyph-name="s" unicode="s" horiz-adv-x="977" 
d="M59 133l127 161q57 -56 124 -83t131 -27q31 0 57.5 7t46.5 20.5t31.5 34t11.5 47.5q0 26 -12.5 46t-36.5 37t-58 32t-77 31q-49 18 -104 42.5t-100.5 60t-75.5 85t-30 119.5q0 66 28.5 122.5t80.5 98t125.5 65t163.5 23.5q96 0 183 -29t159 -86l-105 -156q-48 37 -104 55
t-113 18q-69 0 -105 -26.5t-36 -68.5q0 -24 12.5 -42.5t38 -35t63 -32.5t86.5 -34q75 -27 134.5 -59t101 -71.5t64 -89t22.5 -112.5q0 -76 -29.5 -135.5t-84.5 -100t-133.5 -61.5t-176.5 -21q-125 0 -226.5 38.5t-183.5 126.5z" />
    <glyph glyph-name="sacute" unicode="&#x15b;" horiz-adv-x="977" 
d="M59 133l127 161q57 -56 124 -83t131 -27q31 0 57.5 7t46.5 20.5t31.5 34t11.5 47.5q0 26 -12.5 46t-36.5 37t-58 32t-77 31q-49 18 -104 42.5t-100.5 60t-75.5 85t-30 119.5q0 66 28.5 122.5t80.5 98t125.5 65t163.5 23.5q96 0 183 -29t159 -86l-105 -156q-48 37 -104 55
t-113 18q-69 0 -105 -26.5t-36 -68.5q0 -24 12.5 -42.5t38 -35t63 -32.5t86.5 -34q75 -27 134.5 -59t101 -71.5t64 -89t22.5 -112.5q0 -76 -29.5 -135.5t-84.5 -100t-133.5 -61.5t-176.5 -21q-125 0 -226.5 38.5t-183.5 126.5zM671 1612l123 -212l-440 -230l-91 133z" />
    <glyph glyph-name="scaron" unicode="&#x161;" horiz-adv-x="977" 
d="M59 133l127 161q57 -56 124 -83t131 -27q31 0 57.5 7t46.5 20.5t31.5 34t11.5 47.5q0 26 -12.5 46t-36.5 37t-58 32t-77 31q-49 18 -104 42.5t-100.5 60t-75.5 85t-30 119.5q0 66 28.5 122.5t80.5 98t125.5 65t163.5 23.5q96 0 183 -29t159 -86l-105 -156q-48 37 -104 55
t-113 18q-69 0 -105 -26.5t-36 -68.5q0 -24 12.5 -42.5t38 -35t63 -32.5t86.5 -34q75 -27 134.5 -59t101 -71.5t64 -89t22.5 -112.5q0 -76 -29.5 -135.5t-84.5 -100t-133.5 -61.5t-176.5 -21q-125 0 -226.5 38.5t-183.5 126.5zM481 1172l-419 308l113 152l306 -224l306 224
l113 -152z" />
    <glyph glyph-name="scedilla" unicode="&#x15f;" horiz-adv-x="977" 
d="M59 133l127 161q57 -56 124 -83t131 -27q31 0 57.5 7t46.5 20.5t31.5 34t11.5 47.5q0 26 -12.5 46t-36.5 37t-58 32t-77 31q-49 18 -104 42.5t-100.5 60t-75.5 85t-30 119.5q0 66 28.5 122.5t80.5 98t125.5 65t163.5 23.5q96 0 183 -29t159 -86l-105 -156q-48 37 -104 55
t-113 18q-69 0 -105 -26.5t-36 -68.5q0 -24 12.5 -42.5t38 -35t63 -32.5t86.5 -34q75 -27 134.5 -59t101 -71.5t64 -89t22.5 -112.5q0 -76 -29.5 -135.5t-84.5 -100t-133.5 -61.5t-176.5 -21q-125 0 -226.5 38.5t-183.5 126.5zM212 -392l115 85q32 -45 75.5 -69t91.5 -24
q51 0 81 24.5t30 64.5q0 42 -35.5 67t-92.5 25q-29 0 -59 -6t-45 -16l-16 13l78 243h127l-46 -139h16q43 0 85 -11.5t75 -35.5t53.5 -60t20.5 -85q0 -50 -20 -92t-55 -72t-84 -47t-107 -17q-169 0 -288 152z" />
    <glyph glyph-name="uni0219" unicode="&#x219;" horiz-adv-x="977" 
d="M59 133l127 161q57 -56 124 -83t131 -27q31 0 57.5 7t46.5 20.5t31.5 34t11.5 47.5q0 26 -12.5 46t-36.5 37t-58 32t-77 31q-49 18 -104 42.5t-100.5 60t-75.5 85t-30 119.5q0 66 28.5 122.5t80.5 98t125.5 65t163.5 23.5q96 0 183 -29t159 -86l-105 -156q-48 37 -104 55
t-113 18q-69 0 -105 -26.5t-36 -68.5q0 -24 12.5 -42.5t38 -35t63 -32.5t86.5 -34q75 -27 134.5 -59t101 -71.5t64 -89t22.5 -112.5q0 -76 -29.5 -135.5t-84.5 -100t-133.5 -61.5t-176.5 -21q-125 0 -226.5 38.5t-183.5 126.5zM494 -113q47 0 76 -30t29 -89q0 -35 -11 -72
t-31.5 -73.5t-49.5 -71t-65 -63.5l-42 36q12 12 23.5 31t21.5 40.5t17 45t9 44.5q-38 8 -60.5 34.5t-22.5 65.5q0 45 29 73.5t77 28.5z" />
    <glyph glyph-name="germandbls" unicode="&#xdf;" horiz-adv-x="1305" 
d="M61 898h132v362q0 104 38 193.5t104.5 155.5t157 103.5t196.5 37.5q105 0 194.5 -36.5t155.5 -100t103.5 -150t37.5 -187.5q0 -119 -55 -210t-160 -146q134 -59 206.5 -167.5t72.5 -254.5q0 -113 -42 -209t-116 -167t-176.5 -111.5t-224.5 -42.5h-76v268h76
q54 0 99.5 21.5t79.5 59.5t53 89.5t19 112.5t-19 113t-52.5 89.5t-79.5 59t-100 21.5h-76v224h76q47 0 87 18.5t69.5 51t46.5 77t17 96.5q0 50 -17 92.5t-46.5 74t-69.5 49.5t-87 18q-44 0 -81 -17t-63.5 -47.5t-41.5 -73.5t-15 -95v-1270h-291v672h-132v226z" />
    <glyph glyph-name="t" unicode="t" horiz-adv-x="750" 
d="M29 802v222h134v383h292v-383h228v-222h-228v-450q0 -60 23.5 -91.5t69.5 -31.5q20 0 39 5t36 16l108 -212q-25 -16 -55 -29t-63 -22t-67.5 -14t-67.5 -5q-75 0 -133.5 24.5t-99 71.5t-61.5 114.5t-21 152.5v471h-134z" />
    <glyph glyph-name="tbar" unicode="&#x167;" horiz-adv-x="750" 
d="M29 668v156h134v110h-134v156h134v317h292v-317h228v-156h-228v-110h228v-156h-228v-316q0 -60 23.5 -91.5t69.5 -31.5q20 0 39 5t36 16l108 -212q-25 -16 -55 -29t-63 -22t-67.5 -14t-67.5 -5q-75 0 -133.5 24.5t-99 71.5t-61.5 114.5t-21 152.5v337h-134z" />
    <glyph glyph-name="tcaron" unicode="&#x165;" horiz-adv-x="750" 
d="M29 802v222h134v383h292v-383h228v-222h-228v-450q0 -60 23.5 -91.5t69.5 -31.5q20 0 39 5t36 16l108 -212q-25 -16 -55 -29t-63 -22t-67.5 -14t-67.5 -5q-75 0 -133.5 24.5t-99 71.5t-61.5 114.5t-21 152.5v471h-134zM401 1555l-419 308l113 152l306 -224l306 224
l113 -152z" />
    <glyph glyph-name="uni0163" unicode="&#x163;" horiz-adv-x="750" 
d="M29 802v222h134v383h292v-383h228v-222h-228v-450q0 -60 23.5 -91.5t69.5 -31.5q20 0 39 5t36 16l108 -212q-25 -16 -55 -29t-63 -22t-67.5 -14t-67.5 -5q-75 0 -133.5 24.5t-99 71.5t-61.5 114.5t-21 152.5v471h-134zM127 -407l115 85q32 -45 75.5 -69t91.5 -24
q51 0 81 24.5t30 64.5q0 42 -35.5 67t-92.5 25q-29 0 -59 -6t-45 -16l-16 13l78 243h127l-46 -139h16q43 0 85 -11.5t75 -35.5t53.5 -60t20.5 -85q0 -50 -20 -92t-55 -72t-84 -47t-107 -17q-169 0 -288 152z" />
    <glyph glyph-name="uni021B" unicode="&#x21b;" horiz-adv-x="750" 
d="M29 802v222h134v383h292v-383h228v-222h-228v-450q0 -60 23.5 -91.5t69.5 -31.5q20 0 39 5t36 16l108 -212q-25 -16 -55 -29t-63 -22t-67.5 -14t-67.5 -5q-75 0 -133.5 24.5t-99 71.5t-61.5 114.5t-21 152.5v471h-134zM487 -113q47 0 76 -30t29 -89q0 -35 -11 -72
t-31.5 -73.5t-49.5 -71t-65 -63.5l-42 36q12 12 23.5 31t21.5 40.5t17 45t9 44.5q-38 8 -60.5 34.5t-22.5 65.5q0 45 29 73.5t77 28.5z" />
    <glyph glyph-name="u" unicode="u" horiz-adv-x="1286" 
d="M124 1024h292v-479q0 -89 12.5 -153t40 -105.5t70.5 -61t104 -19.5t104 19.5t70.5 61t40 105.5t12.5 153v479h292v-547q0 -256 -126.5 -382.5t-392.5 -126.5t-392.5 126.5t-126.5 382.5v547z" />
    <glyph glyph-name="uacute" unicode="&#xfa;" horiz-adv-x="1286" 
d="M124 1024h292v-479q0 -89 12.5 -153t40 -105.5t70.5 -61t104 -19.5t104 19.5t70.5 61t40 105.5t12.5 153v479h292v-547q0 -256 -126.5 -382.5t-392.5 -126.5t-392.5 126.5t-126.5 382.5v547zM832 1612l123 -212l-440 -230l-91 133z" />
    <glyph glyph-name="ucircumflex" unicode="&#xfb;" horiz-adv-x="1286" 
d="M124 1024h292v-479q0 -89 12.5 -153t40 -105.5t70.5 -61t104 -19.5t104 19.5t70.5 61t40 105.5t12.5 153v479h292v-547q0 -256 -126.5 -382.5t-392.5 -126.5t-392.5 126.5t-126.5 382.5v547zM336 1220l-113 153l419 307l419 -307l-113 -153l-306 224z" />
    <glyph glyph-name="udieresis" unicode="&#xfc;" horiz-adv-x="1286" 
d="M124 1024h292v-479q0 -89 12.5 -153t40 -105.5t70.5 -61t104 -19.5t104 19.5t70.5 61t40 105.5t12.5 153v479h292v-547q0 -256 -126.5 -382.5t-392.5 -126.5t-392.5 126.5t-126.5 382.5v547zM879 1555q32 0 60.5 -12.5t49.5 -33.5t33 -49.5t12 -60.5t-12 -60.5t-33 -49.5
t-49.5 -33.5t-60.5 -12.5q-33 0 -61.5 12.5t-49.5 33.5t-33 49.5t-12 60.5t12 60.5t33 49.5t49.5 33.5t61.5 12.5zM251 1399q0 32 12 60.5t33 49.5t49.5 33.5t61.5 12.5q32 0 60.5 -12.5t49.5 -33.5t33 -49.5t12 -60.5t-12 -60.5t-33 -49.5t-49.5 -33.5t-60.5 -12.5
q-33 0 -61.5 12.5t-49.5 33.5t-33 49.5t-12 60.5z" />
    <glyph glyph-name="ugrave" unicode="&#xf9;" horiz-adv-x="1286" 
d="M124 1024h292v-479q0 -89 12.5 -153t40 -105.5t70.5 -61t104 -19.5t104 19.5t70.5 61t40 105.5t12.5 153v479h292v-547q0 -256 -126.5 -382.5t-392.5 -126.5t-392.5 126.5t-126.5 382.5v547zM736 1170l-447 235l130 207l408 -309z" />
    <glyph glyph-name="uhungarumlaut" unicode="&#x171;" horiz-adv-x="1286" 
d="M124 1024h292v-479q0 -89 12.5 -153t40 -105.5t70.5 -61t104 -19.5t104 19.5t70.5 61t40 105.5t12.5 153v479h292v-547q0 -256 -126.5 -382.5t-392.5 -126.5t-392.5 126.5t-126.5 382.5v547zM831 1237l-111 130l320 313l179 -195zM342 1237l-112 130l320 313l179 -195z
" />
    <glyph glyph-name="umacron" unicode="&#x16b;" horiz-adv-x="1286" 
d="M124 1024h292v-479q0 -89 12.5 -153t40 -105.5t70.5 -61t104 -19.5t104 19.5t70.5 61t40 105.5t12.5 153v479h292v-547q0 -256 -126.5 -382.5t-392.5 -126.5t-392.5 126.5t-126.5 382.5v547zM234 1289v199h816v-199h-816z" />
    <glyph glyph-name="uogonek" unicode="&#x173;" horiz-adv-x="1286" 
d="M416 1024v-479q0 -89 12.5 -153t40 -105.5t70.5 -61t104 -19.5t104 19.5t70.5 61t40 105.5t12.5 153v479h292v-547q0 -276 -148 -402q-47 -40 -86.5 -87.5t-68 -96t-44 -95t-15.5 -84.5q0 -48 26 -78t78 -30q74 0 129 72l121 -90q-23 -33 -53.5 -60t-66.5 -45.5
t-75 -28.5t-80 -10q-54 0 -100.5 17.5t-80 48.5t-52.5 72.5t-19 88.5q0 68 40 144.5t115 164.5q-32 -5 -67 -7.5t-73 -2.5q-265 0 -391.5 126.5t-126.5 382.5v547h292z" />
    <glyph glyph-name="uring" unicode="&#x16f;" horiz-adv-x="1286" 
d="M124 1024h292v-479q0 -89 12.5 -153t40 -105.5t70.5 -61t104 -19.5t104 19.5t70.5 61t40 105.5t12.5 153v479h292v-547q0 -256 -126.5 -382.5t-392.5 -126.5t-392.5 126.5t-126.5 382.5v547zM347 1465q0 57 23 105t62.5 82.5t93.5 53.5t116 19t116 -19t93.5 -53.5
t62.5 -82.5t23 -105t-23 -105t-62.5 -82.5t-93.5 -53.5t-116 -19t-116 19t-93.5 53.5t-62.5 82.5t-23 105zM515 1465q0 -26 10 -48.5t27.5 -39t40.5 -26t49 -9.5t49 9.5t40.5 26t27.5 39t10 48.5t-10 48.5t-27.5 39t-40.5 26t-49 9.5t-49 -9.5t-40.5 -26t-27.5 -39
t-10 -48.5z" />
    <glyph glyph-name="v" unicode="v" horiz-adv-x="1208" 
d="M-28 1024h345l287 -636l287 636h345l-534 -1024h-196z" />
    <glyph glyph-name="w" unicode="w" horiz-adv-x="1928" 
d="M-28 1024h334l288 -634l270 634h198l270 -634l290 634h334l-535 -1024h-196l-261 610l-261 -610h-196z" />
    <glyph glyph-name="wacute" unicode="&#x1e83;" horiz-adv-x="1928" 
d="M-28 1024h334l288 -634l270 634h198l270 -634l290 634h334l-535 -1024h-196l-261 610l-261 -610h-196zM1154 1612l123 -212l-440 -230l-91 133z" />
    <glyph glyph-name="wcircumflex" unicode="&#x175;" horiz-adv-x="1928" 
d="M-28 1024h334l288 -634l270 634h198l270 -634l290 634h334l-535 -1024h-196l-261 610l-261 -610h-196zM658 1220l-113 153l419 307l419 -307l-113 -153l-306 224z" />
    <glyph glyph-name="wdieresis" unicode="&#x1e85;" horiz-adv-x="1928" 
d="M-28 1024h334l288 -634l270 634h198l270 -634l290 634h334l-535 -1024h-196l-261 610l-261 -610h-196zM1201 1555q32 0 60.5 -12.5t49.5 -33.5t33 -49.5t12 -60.5t-12 -60.5t-33 -49.5t-49.5 -33.5t-60.5 -12.5q-33 0 -61.5 12.5t-49.5 33.5t-33 49.5t-12 60.5t12 60.5
t33 49.5t49.5 33.5t61.5 12.5zM573 1399q0 32 12 60.5t33 49.5t49.5 33.5t61.5 12.5q32 0 60.5 -12.5t49.5 -33.5t33 -49.5t12 -60.5t-12 -60.5t-33 -49.5t-49.5 -33.5t-60.5 -12.5q-33 0 -61.5 12.5t-49.5 33.5t-33 49.5t-12 60.5z" />
    <glyph glyph-name="wgrave" unicode="&#x1e81;" horiz-adv-x="1928" 
d="M-28 1024h334l288 -634l270 634h198l270 -634l290 634h334l-535 -1024h-196l-261 610l-261 -610h-196zM1058 1170l-447 235l130 207l408 -309z" />
    <glyph glyph-name="x" unicode="x" horiz-adv-x="1174" 
d="M-28 0l437 536l-375 488h338l215 -286l215 286h338l-375 -488l437 -536h-350l-265 334l-265 -334h-350z" />
    <glyph glyph-name="y" unicode="y" horiz-adv-x="1216" 
d="M307 1024l321 -623l280 623h336l-776 -1544h-334l324 639l-486 905h335z" />
    <glyph glyph-name="yacute" unicode="&#xfd;" horiz-adv-x="1216" 
d="M307 1024l321 -623l280 623h336l-776 -1544h-334l324 639l-486 905h335zM800 1612l123 -212l-440 -230l-91 133z" />
    <glyph glyph-name="ycircumflex" unicode="&#x177;" horiz-adv-x="1216" 
d="M307 1024l321 -623l280 623h336l-776 -1544h-334l324 639l-486 905h335zM304 1220l-113 153l419 307l419 -307l-113 -153l-306 224z" />
    <glyph glyph-name="ydieresis" unicode="&#xff;" horiz-adv-x="1216" 
d="M307 1024l321 -623l280 623h336l-776 -1544h-334l324 639l-486 905h335zM847 1555q32 0 60.5 -12.5t49.5 -33.5t33 -49.5t12 -60.5t-12 -60.5t-33 -49.5t-49.5 -33.5t-60.5 -12.5q-33 0 -61.5 12.5t-49.5 33.5t-33 49.5t-12 60.5t12 60.5t33 49.5t49.5 33.5t61.5 12.5z
M219 1399q0 32 12 60.5t33 49.5t49.5 33.5t61.5 12.5q32 0 60.5 -12.5t49.5 -33.5t33 -49.5t12 -60.5t-12 -60.5t-33 -49.5t-49.5 -33.5t-60.5 -12.5q-33 0 -61.5 12.5t-49.5 33.5t-33 49.5t-12 60.5z" />
    <glyph glyph-name="ygrave" unicode="&#x1ef3;" horiz-adv-x="1216" 
d="M307 1024l321 -623l280 623h336l-776 -1544h-334l324 639l-486 905h335zM704 1170l-447 235l130 207l408 -309z" />
    <glyph glyph-name="z" unicode="z" horiz-adv-x="1124" 
d="M14 0l582 800h-501v224h997l-585 -800h550v-224h-1043z" />
    <glyph glyph-name="zacute" unicode="&#x17a;" horiz-adv-x="1124" 
d="M14 0l582 800h-501v224h997l-585 -800h550v-224h-1043zM751 1611l123 -212l-440 -230l-91 133z" />
    <glyph glyph-name="zcaron" unicode="&#x17e;" horiz-adv-x="1124" 
d="M14 0l582 800h-501v224h997l-585 -800h550v-224h-1043zM561 1171l-419 308l113 152l306 -224l306 224l113 -152z" />
    <glyph glyph-name="zdotaccent" unicode="&#x17c;" horiz-adv-x="1124" 
d="M14 0l582 800h-501v224h997l-585 -800h550v-224h-1043zM387 1479q0 36 13.5 67.5t37.5 55.5t55.5 37.5t67.5 13.5t67.5 -13.5t55.5 -37.5t37.5 -55.5t13.5 -67.5t-13.5 -67.5t-37.5 -55.5t-55.5 -37.5t-67.5 -13.5t-67.5 13.5t-55.5 37.5t-37.5 55.5t-13.5 67.5z" />
    <glyph glyph-name="a.alt" horiz-adv-x="1236" 
d="M92 284q0 71 27.5 130.5t77.5 103t120.5 67.5t157.5 24t170 -25t143 -69v89q0 48 -19 88.5t-53 70t-82 45.5t-107 16q-31 0 -66 -4.5t-69.5 -13.5t-66.5 -21.5t-58 -28.5l-108 186q72 54 172 84t216 30q120 0 219 -32.5t169 -92.5t108.5 -144.5t38.5 -187.5v-599h-294v59
q-66 -45 -143.5 -68t-162.5 -23q-88 0 -160 23t-123 64.5t-79 99.5t-28 129zM380 302q0 -33 16 -61.5t44 -49.5t66 -32.5t83 -11.5t83 11.5t66.5 32t44.5 48t16 59.5t-16 60t-44.5 48t-67.5 31.5t-85 11.5q-45 0 -83 -11t-65.5 -30.5t-42.5 -46.5t-15 -59z" />
    <glyph glyph-name="j.alt" horiz-adv-x="576" 
d="M435 1024v-1544h-292v1544h292zM114 1411q0 36 14 67.5t37.5 55.5t55.5 37.5t68 13.5t67.5 -13.5t55 -37.5t37 -55.5t13.5 -67.5t-13.5 -67.5t-37 -55.5t-55 -37.5t-67.5 -13.5t-68 13.5t-55.5 37.5t-37.5 55.5t-14 67.5z" />
    <glyph glyph-name="t.alt" horiz-adv-x="792" 
d="M226 1024v383h292v-383h219v-223h-219v-801h-292v801h-143v223h143z" />
    <glyph glyph-name="u.alt" horiz-adv-x="1381" 
d="M456 1024v-589q0 -53 14 -97t41 -75.5t67 -48.5t93 -17q52 0 95 19t74 50t48 70.5t17 81.5v606h292v-1024h-292v116q-24 -34 -59 -61.5t-75.5 -46.5t-84.5 -29.5t-86 -10.5q-78 0 -156 22t-140 68.5t-101 120t-39 176.5v669h292z" />
    <glyph glyph-name="ordfeminine" unicode="&#xaa;" horiz-adv-x="997" 
d="M110 1344q0 71 23 132t65 106.5t100.5 71.5t129.5 26q66 0 123 -26.5t96 -75.5v82h181v-632h-181v89q-36 -48 -94.5 -78.5t-131.5 -30.5q-66 0 -122.5 25.5t-98.5 70.5t-66 106.5t-24 133.5zM475 1161q39 0 71 14t55.5 38.5t36.5 58t13 72.5q0 40 -13.5 73.5t-37 58
t-55.5 38t-69 13.5t-69.5 -13.5t-56.5 -38t-37.5 -58t-13.5 -73.5q0 -39 13 -72.5t36 -58t55.5 -38.5t71.5 -14z" />
    <glyph glyph-name="ordmasculine" unicode="&#xba;" horiz-adv-x="1016" 
d="M143 1343q0 74 28 136t77 106.5t115.5 69.5t144.5 25q77 0 143.5 -25t115.5 -69.5t77 -106.5t28 -136t-28 -136t-77 -107t-115.5 -70t-143.5 -25q-78 0 -144.5 25t-115.5 70t-77 107t-28 136zM333 1343q0 -41 13 -75t36.5 -58.5t55.5 -38t69 -13.5q38 0 70 13.5t55 38.5
t36.5 59t13.5 74t-13.5 74t-36.5 58.5t-55 38t-69 13.5q-38 0 -70 -13.5t-55.5 -38t-36.5 -58.5t-13 -74z" />
    <glyph glyph-name="uni0394" unicode="&#x394;" horiz-adv-x="1281" 
d="M601 1650h79l646 -1650h-1371zM1022 196l-381 1085l-382 -1085h763z" />
    <glyph glyph-name="uni03A9" unicode="&#x3a9;" horiz-adv-x="1696" 
d="M848 1680q113 0 214.5 -27t188.5 -76.5t157 -120t119.5 -157t76 -188t26.5 -213.5q0 -139 -40 -256t-106.5 -209t-153.5 -157t-181 -100l411 29v-205h-667v127l21 14q57 35 111 81.5t102 102.5t88.5 119.5t70 132t46 141t16.5 145.5q0 66 -13.5 133.5t-41 130.5
t-69 117.5t-97 95.5t-125.5 64.5t-154 23.5q-126 0 -220 -51t-156 -132.5t-93 -182t-31 -199.5q0 -110 36 -217t96 -201.5t138.5 -172.5t163.5 -131l21 -14v-127h-668v205l412 -29q-93 35 -180 100t-154 157t-107 209t-40 256q0 112 26.5 213.5t76 188t119.5 157t157 120
t188.5 76.5t214.5 27z" />
    <glyph glyph-name="uni03BC" unicode="&#x3bc;" horiz-adv-x="1401" 
d="M130 -320q0 95 8.5 177.5t18.5 167.5t18.5 181t8.5 218v600h292v-589q0 -54 14 -97.5t41 -75t67 -48.5t93 -17q52 0 95 19t74 50t48 70.5t17 81.5v606h292v-1024h-292v116q-24 -34 -58.5 -61.5t-75 -46.5t-84.5 -29.5t-86 -10.5q-53 0 -89 15.5t-57 42.5v-346h-345z" />
    <glyph glyph-name="pi" unicode="&#x3c0;" horiz-adv-x="1268" 
d="M1145 1024v-208h-164v-492q0 -28 5 -47.5t18 -30.5t34 -16t52 -5v-225q-91 0 -154.5 15t-103.5 48t-58 85.5t-18 127.5v540h-222v-816h-225v816h-165v208h1001z" />
    <glyph glyph-name="zero" unicode="0" horiz-adv-x="1521" 
d="M83 824q0 191 49 348.5t138 270.5t214 175t277 62t276.5 -62t214 -175t138.5 -270.5t49 -348.5t-49 -348.5t-138.5 -270.5t-214 -175t-276.5 -62t-277 62t-214 175t-138 270.5t-49 348.5zM408 824q0 -135 24.5 -243.5t70.5 -184t111.5 -116t146.5 -40.5t146 40.5t111 116
t70.5 184t24.5 243.5t-24.5 243.5t-70.5 184t-111 116t-146 40.5t-146.5 -40.5t-111.5 -116t-70.5 -184t-24.5 -243.5z" />
    <glyph glyph-name="one" unicode="1" horiz-adv-x="799" 
d="M348 0v1347h-205v303h513v-1650h-308z" />
    <glyph glyph-name="two" unicode="2" horiz-adv-x="1497" 
d="M123 157q165 127 295 233.5t229 196t168 164.5t113 139.5t64 120.5t20 108q0 59 -21.5 111t-60 91t-90.5 61.5t-112 22.5q-55 0 -105 -20t-90.5 -57t-70.5 -90t-45 -118l-260 78q29 113 83 202.5t129.5 151.5t171 95.5t206.5 33.5q129 0 238.5 -41.5t189 -115.5
t124.5 -175t45 -221q0 -100 -34.5 -196t-112.5 -197.5t-203.5 -214t-306.5 -245.5h687v-275h-1251v157z" />
    <glyph glyph-name="three" unicode="3" horiz-adv-x="1313" 
d="M63 387l269 63q11 -48 36.5 -87.5t63 -67.5t86.5 -43.5t107 -15.5q62 0 112 18t85.5 50.5t54.5 78.5t19 102q0 60 -21 111t-57.5 88.5t-85.5 59t-105 21.5q-20 0 -38.5 -3.5t-33.5 -8.5v207h73q50 0 94 20t77 53.5t52 77.5t19 92t-18.5 89.5t-51.5 72t-77 48t-95 17.5
q-48 0 -91 -15.5t-77.5 -43t-59 -66t-35.5 -84.5l-230 78q21 88 66 158.5t110 120t147 76t176 26.5q112 0 207 -35.5t164 -98.5t108 -149.5t39 -187.5q0 -106 -47 -192t-132 -140q107 -56 169.5 -155t62.5 -236q0 -112 -42.5 -207t-119 -164t-183.5 -108t-236 -39
q-110 0 -205 29.5t-168.5 84.5t-122 132t-65.5 173z" />
    <glyph glyph-name="four" unicode="4" horiz-adv-x="1283" 
d="M-50 304v98l807 1248h306v-1076h192v-270h-192v-304h-290v304h-823zM368 574h405v662z" />
    <glyph glyph-name="five" unicode="5" horiz-adv-x="1309" 
d="M37 327l244 119q16 -50 47 -90.5t74.5 -69.5t97 -44.5t113.5 -15.5q71 0 128 21.5t96.5 60.5t61 93.5t21.5 119.5q0 80 -31.5 143.5t-89.5 107.5t-139.5 67.5t-181.5 23.5q-95 0 -180.5 -27.5t-157.5 -79.5l139 894h842v-270h-579l-51 -332q86 39 186 39q121 0 222 -39
t174 -110.5t113.5 -172.5t40.5 -225q0 -134 -47 -240.5t-129 -180t-193 -112.5t-239 -39q-99 0 -190 24t-167.5 69.5t-134.5 112.5t-90 153z" />
    <glyph glyph-name="six" unicode="6" horiz-adv-x="1379" 
d="M72 550q0 141 62.5 289t180.5 291l430 520h373l-486 -578q32 16 71 24.5t85 8.5q112 0 207.5 -42t166 -117t110.5 -179t40 -228q0 -127 -44 -232.5t-123.5 -180.5t-190.5 -116.5t-245 -41.5q-143 0 -260.5 45.5t-201 124.5t-129.5 185t-46 227zM694 224q67 0 124 23
t98 63.5t64.5 97t23.5 122.5q0 67 -23.5 124t-64.5 98.5t-96.5 65t-119.5 23.5q-65 0 -121.5 -24t-98 -66.5t-65.5 -100t-24 -123.5q0 -63 22 -118t61.5 -96.5t95.5 -65t124 -23.5z" />
    <glyph glyph-name="seven" unicode="7" horiz-adv-x="1309" 
d="M55 0l781 1380h-741v270h1196v-92l-872 -1558h-364z" />
    <glyph glyph-name="eight" unicode="8" horiz-adv-x="1349" 
d="M86 454q0 72 21.5 138.5t60 122.5t92.5 100t120 71q-53 28 -95 67.5t-71.5 87t-45 101t-15.5 110.5q0 92 41 170.5t111.5 135.5t165.5 89.5t203 32.5q95 0 188 -28.5t167 -83.5t120 -134.5t46 -180.5q0 -58 -16 -113t-45.5 -102t-71.5 -86t-94 -66q67 -28 121.5 -72
t93 -100t59.5 -122.5t21 -138.5q0 -105 -45.5 -194t-125 -153.5t-187 -101t-231.5 -36.5t-231 36t-186.5 100.5t-125 154t-45.5 195.5zM421 487q0 -54 18.5 -100t52 -80t80 -53t102.5 -19q57 0 103.5 19.5t80 53t51.5 79.5t18 100q0 55 -19 101.5t-52.5 80.5t-80 53
t-101.5 19q-54 0 -100.5 -18.5t-80 -52.5t-53 -80.5t-19.5 -102.5zM450 1222q0 -48 17 -89t47 -70.5t71 -46.5t89 -17t89 17t71 46.5t47 70.5t17 89t-17 88.5t-47 70.5t-71 47t-89 17t-89 -17t-71 -47t-47 -70.5t-17 -88.5z" />
    <glyph glyph-name="nine" unicode="9" horiz-adv-x="1379" 
d="M668 1680q144 0 261 -45.5t200.5 -125t129 -186.5t45.5 -230q0 -139 -60.5 -283t-181.5 -290l-430 -520h-374l493 583q-30 -19 -70 -29t-83 -10q-103 0 -199.5 42t-170.5 117t-118.5 180t-44.5 231q0 119 41.5 222t119 179.5t189.5 120.5t253 44zM682 810q63 0 118.5 24
t96 66t64 98.5t23.5 120.5q0 66 -22.5 121.5t-62.5 96t-95.5 63t-121.5 22.5t-122 -22.5t-97.5 -63t-64.5 -96t-23 -121.5t23.5 -122.5t65 -98t97.5 -65t121 -23.5z" />
    <glyph glyph-name="zero.dnom" horiz-adv-x="989" 
d="M54 536q0 124 32 226t89.5 175.5t139 114t180.5 40.5q98 0 179 -40.5t139 -114t90 -175.5t32 -226t-32 -226.5t-90 -176t-139 -114t-179 -40.5q-99 0 -180.5 40.5t-139 114t-89.5 176t-32 226.5zM265 536q0 -88 16 -158.5t46 -119.5t72.5 -75.5t95.5 -26.5t95 26.5
t71.5 75.5t45.5 119.5t16 158.5t-16 158t-45.5 119t-71.5 75.5t-95 26.5t-95.5 -26.5t-72.5 -75.5t-46 -119t-16 -158z" />
    <glyph glyph-name="one.dnom" horiz-adv-x="519" 
d="M226 0v876h-133v196h333v-1072h-200z" />
    <glyph glyph-name="two.dnom" horiz-adv-x="973" 
d="M80 102q161 124 271.5 218t178.5 168t98 131.5t30 107.5q0 38 -14 72t-39 59.5t-59 40t-73 14.5q-36 0 -68 -13t-58.5 -37t-46 -58.5t-29.5 -76.5l-169 51q19 73 54 131.5t84.5 99t111.5 62t134 21.5q84 0 155 -27t123 -75t81 -114t29 -144q0 -65 -22.5 -127.5
t-73 -128.5t-132 -139t-199.5 -159h446v-179h-813v102z" />
    <glyph glyph-name="three.dnom" horiz-adv-x="853" 
d="M41 252l175 40q14 -63 64.5 -101t125.5 -38q81 0 128.5 44.5t47.5 117.5q0 39 -13.5 72.5t-37.5 57.5t-55.5 38t-67.5 14q-26 0 -47 -8v135h47q33 0 61.5 13t50 35t34 50.5t12.5 59.5q0 32 -12 58.5t-33.5 46.5t-50.5 31t-62 11q-31 0 -59 -10t-50.5 -27.5t-38.5 -42.5
t-23 -55l-149 50q14 57 43 103t71 78t95.5 49.5t114.5 17.5q73 0 134.5 -23t106.5 -64t70.5 -97t25.5 -122q0 -69 -31 -125t-86 -91q70 -36 110.5 -100.5t40.5 -153.5q0 -73 -27.5 -134.5t-77 -106.5t-119 -70.5t-153.5 -25.5q-72 0 -133.5 19.5t-109.5 55t-79.5 86
t-42.5 112.5z" />
    <glyph glyph-name="four.dnom" horiz-adv-x="834" 
d="M-33 198v63l525 811h198v-699h125v-175h-125v-198h-188v198h-535zM239 373h263v430z" />
    <glyph glyph-name="five.dnom" horiz-adv-x="851" 
d="M24 213l159 77q10 -33 30.5 -59t48.5 -45t62.5 -29t73.5 -10q46 0 83 14t63 39.5t40 61t14 77.5q0 52 -20.5 93t-58 69.5t-90.5 44t-118 15.5q-62 0 -117.5 -18t-102.5 -52l90 581h548v-175h-377l-33 -216q57 26 121 26q79 0 144.5 -25.5t113 -72t73.5 -112.5t26 -146
q0 -87 -30.5 -156t-83.5 -117t-125.5 -73.5t-155.5 -25.5q-64 0 -123.5 15.5t-109 45.5t-87 73.5t-58.5 99.5z" />
    <glyph glyph-name="six.dnom" horiz-adv-x="896" 
d="M47 357q0 92 40.5 188.5t117.5 188.5l279 338h243l-316 -375q21 10 46.5 15.5t54.5 5.5q73 0 135.5 -27.5t108 -76t71.5 -116t26 -148.5q0 -83 -28.5 -151.5t-80 -117t-124 -75.5t-159.5 -27q-93 0 -169.5 29.5t-130.5 81t-84 120.5t-30 147zM451 146q44 0 81 15t64 41
t42 62.5t15 79.5q0 44 -15.5 81t-42 64t-62.5 42.5t-78 15.5t-78.5 -15.5t-64 -43t-43 -65t-15.5 -80.5q0 -41 14.5 -77t40.5 -62.5t62 -42t80 -15.5z" />
    <glyph glyph-name="seven.dnom" horiz-adv-x="873" 
d="M58 0l507 897h-481v175h777v-59l-567 -1013h-236z" />
    <glyph glyph-name="eight.dnom" horiz-adv-x="877" 
d="M56 295q0 47 14 90t39 79.5t60 65t78 46.5q-34 18 -61.5 43.5t-46.5 56.5t-29 66t-10 72q0 60 26.5 111t72.5 88t107.5 58t131.5 21q62 0 122.5 -18.5t108.5 -54.5t78 -87.5t30 -117.5q0 -76 -40 -139.5t-108 -98.5q44 -18 79 -46.5t60.5 -65.5t39 -80t13.5 -90
q0 -68 -29.5 -126t-81.5 -100t-121.5 -65.5t-150.5 -23.5q-80 0 -150 23.5t-121.5 65.5t-81 100t-29.5 127zM274 317q0 -35 12 -65t33.5 -52t52 -34.5t66.5 -12.5q37 0 67.5 12.5t52 34.5t33.5 52t12 65q0 36 -12.5 66t-34 52t-52 34.5t-66.5 12.5q-35 0 -65 -12.5t-52 -34
t-34.5 -52t-12.5 -66.5zM293 794q0 -31 11 -57.5t30 -46t46 -30.5t58 -11q32 0 58.5 11t46 30.5t30.5 46t11 57.5t-11 57.5t-30.5 46t-46.5 30.5t-58 11t-57.5 -11t-46 -30.5t-30.5 -46t-11 -57.5z" />
    <glyph glyph-name="nine.dnom" horiz-adv-x="896" 
d="M434 1092q93 0 169.5 -29.5t130.5 -81t83.5 -121.5t29.5 -150q0 -90 -39.5 -184t-117.5 -188l-279 -338h-244l321 379q-20 -12 -46 -18.5t-54 -6.5q-67 0 -129.5 27t-110.5 76t-77 117t-29 150q0 77 27 144t77.5 117t123.5 78.5t164 28.5zM443 526q41 0 77 16t62.5 43
t41.5 63.5t15 78.5q0 43 -14.5 79t-40.5 62.5t-62 41t-79 14.5t-79.5 -14.5t-63.5 -41t-42 -62.5t-15 -79t15.5 -79.5t42.5 -63.5t63.5 -42.5t78.5 -15.5z" />
    <glyph glyph-name="zero.numr" horiz-adv-x="989" 
d="M54 1114q0 124 32 226t89.5 175.5t139 114t180.5 40.5q98 0 179 -40.5t139 -114t90 -175.5t32 -226t-32 -226.5t-90 -176t-139 -114t-179 -40.5q-99 0 -180.5 40.5t-139 114t-89.5 176t-32 226.5zM265 1114q0 -88 16 -158.5t46 -119.5t72.5 -75.5t95.5 -26.5t95 26.5
t71.5 75.5t45.5 119.5t16 158.5t-16 158t-45.5 119t-71.5 75.5t-95 26.5t-95.5 -26.5t-72.5 -75.5t-46 -119t-16 -158z" />
    <glyph glyph-name="one.numr" horiz-adv-x="519" 
d="M226 577v876h-133v196h333v-1072h-200z" />
    <glyph glyph-name="two.numr" horiz-adv-x="973" 
d="M80 679q161 124 271.5 218t178.5 168t98 131.5t30 107.5q0 38 -14 72t-39 59.5t-59 40t-73 14.5q-36 0 -68 -13t-58.5 -37t-46 -58.5t-29.5 -76.5l-169 51q19 73 54 131.5t84.5 99t111.5 62t134 21.5q84 0 155 -27t123 -75t81 -114t29 -144q0 -65 -22.5 -127.5
t-73 -128.5t-132 -139t-199.5 -159h446v-179h-813v102z" />
    <glyph glyph-name="three.numr" horiz-adv-x="853" 
d="M41 829l175 40q14 -63 64.5 -101t125.5 -38q81 0 128.5 44.5t47.5 117.5q0 39 -13.5 72.5t-37.5 57.5t-55.5 38t-67.5 14q-26 0 -47 -8v135h47q33 0 61.5 13t50 35t34 50.5t12.5 59.5q0 32 -12 58.5t-33.5 46.5t-50.5 31t-62 11q-31 0 -59 -10t-50.5 -27.5t-38.5 -42.5
t-23 -55l-149 50q14 57 43 103t71 78t95.5 49.5t114.5 17.5q73 0 134.5 -23t106.5 -64t70.5 -97t25.5 -122q0 -69 -31 -125t-86 -91q70 -36 110.5 -100.5t40.5 -153.5q0 -73 -27.5 -134.5t-77 -106.5t-119 -70.5t-153.5 -25.5q-72 0 -133.5 19.5t-109.5 55t-79.5 86
t-42.5 112.5z" />
    <glyph glyph-name="four.numr" horiz-adv-x="834" 
d="M-33 775v63l525 811h198v-699h125v-175h-125v-198h-188v198h-535zM239 950h263v430z" />
    <glyph glyph-name="five.numr" horiz-adv-x="851" 
d="M24 790l159 77q10 -33 30.5 -59t48.5 -45t62.5 -29t73.5 -10q46 0 83 14t63 39.5t40 61t14 77.5q0 52 -20.5 93t-58 69.5t-90.5 44t-118 15.5q-62 0 -117.5 -18t-102.5 -52l90 581h548v-175h-377l-33 -216q57 26 121 26q79 0 144.5 -25.5t113 -72t73.5 -112.5t26 -146
q0 -87 -30.5 -156t-83.5 -117t-125.5 -73.5t-155.5 -25.5q-64 0 -123.5 15.5t-109 45.5t-87 73.5t-58.5 99.5z" />
    <glyph glyph-name="six.numr" horiz-adv-x="896" 
d="M47 934q0 92 40.5 188.5t117.5 188.5l279 338h243l-316 -375q21 10 46.5 15.5t54.5 5.5q73 0 135.5 -27.5t108 -76t71.5 -116t26 -148.5q0 -83 -28.5 -151.5t-80 -117t-124 -75.5t-159.5 -27q-93 0 -169.5 29.5t-130.5 81t-84 120.5t-30 147zM451 723q44 0 81 15t64 41
t42 62.5t15 79.5q0 44 -15.5 81t-42 64t-62.5 42.5t-78 15.5t-78.5 -15.5t-64 -43t-43 -65t-15.5 -80.5q0 -41 14.5 -77t40.5 -62.5t62 -42t80 -15.5z" />
    <glyph glyph-name="seven.numr" horiz-adv-x="873" 
d="M58 577l507 897h-481v175h777v-59l-567 -1013h-236z" />
    <glyph glyph-name="eight.numr" horiz-adv-x="877" 
d="M56 872q0 47 14 90t39 79.5t60 65t78 46.5q-34 18 -61.5 43.5t-46.5 56.5t-29 66t-10 72q0 60 26.5 111t72.5 88t107.5 58t131.5 21q62 0 122.5 -18.5t108.5 -54.5t78 -87.5t30 -117.5q0 -76 -40 -139.5t-108 -98.5q44 -18 79 -46.5t60.5 -65.5t39 -80t13.5 -90
q0 -68 -29.5 -126t-81.5 -100t-121.5 -65.5t-150.5 -23.5q-80 0 -150 23.5t-121.5 65.5t-81 100t-29.5 127zM274 894q0 -35 12 -65t33.5 -52t52 -34.5t66.5 -12.5q37 0 67.5 12.5t52 34.5t33.5 52t12 65q0 36 -12.5 66t-34 52t-52 34.5t-66.5 12.5q-35 0 -65 -12.5t-52 -34
t-34.5 -52t-12.5 -66.5zM293 1371q0 -31 11 -57.5t30 -46t46 -30.5t58 -11q32 0 58.5 11t46 30.5t30.5 46t11 57.5t-11 57.5t-30.5 46t-46.5 30.5t-58 11t-57.5 -11t-46 -30.5t-30.5 -46t-11 -57.5z" />
    <glyph glyph-name="nine.numr" horiz-adv-x="1410" 
d="M434 1669q93 0 169.5 -29.5t131 -81t84 -121.5t29.5 -150q0 -90 -40 -184t-118 -188l-279 -338h-243l320 379q-41 -25 -99 -25q-67 0 -130 27t-111 76t-77 117t-29 150q0 77 27 144t77.5 117t123.5 78.5t164 28.5zM443 1103q41 0 77 16t62.5 43t42 63.5t15.5 78.5
q0 43 -14.5 79t-41 62.5t-62.5 41t-79 14.5t-79.5 -14.5t-63 -41t-41.5 -62.5t-15 -79t15 -79.5t42 -63.5t63.5 -42.5t78.5 -15.5z" />
    <glyph glyph-name="onesuperior" unicode="&#xb9;" horiz-adv-x="268" 
d="M85 1026v490h-100v134h234v-624h-134z" />
    <glyph glyph-name="twosuperior" unicode="&#xb2;" horiz-adv-x="539" 
d="M4 1101q175 126 255.5 215t80.5 155q0 42 -26 67.5t-65 25.5q-85 0 -126 -128l-117 57q29 91 91.5 139.5t152.5 48.5q53 0 96.5 -16t75.5 -45t49.5 -69t17.5 -88q0 -38 -13 -75t-41.5 -75.5t-73.5 -79t-110 -85.5h250v-122h-497v75z" />
    <glyph glyph-name="threesuperior" unicode="&#xb3;" horiz-adv-x="502" 
d="M-4 1181l127 61q3 -44 32.5 -71t77.5 -27q44 0 68.5 22.5t24.5 59.5q0 45 -31.5 73t-77.5 28q-16 0 -27 -5v90h30q18 0 35 7t30 18.5t21 27t8 32.5q0 31 -23.5 52.5t-58.5 21.5q-36 0 -64 -23.5t-33 -59.5l-108 51q22 66 74.5 103.5t141.5 37.5q46 0 84.5 -10.5t66 -30.5
t42.5 -49.5t15 -67.5q0 -42 -19 -79t-54 -66q47 -23 71.5 -65t24.5 -96q0 -46 -18 -81.5t-49.5 -59.5t-74 -36.5t-92.5 -12.5q-96 0 -157.5 41.5t-86.5 113.5z" />
    <glyph glyph-name="uni2074" unicode="&#x2074;" horiz-adv-x="598" 
d="M25 1148v43l332 459h137v-379h79v-123h-79v-108h-131v108h-338zM216 1271h147v211z" />
    <glyph glyph-name="fraction" unicode="&#x2044;" horiz-adv-x="1141" 
d="M-41 0l1028 1650h195l-1029 -1650h-194z" />
    <glyph glyph-name="uni215F" unicode="&#x215f;" horiz-adv-x="1483" 
d="M226 577v876h-133v196h333v-1072h-200zM167 0l1028 1650h195l-1029 -1650h-194z" />
    <glyph glyph-name="onehalf" unicode="&#xbd;" horiz-adv-x="1832" 
d="M939 102q161 124 271.5 218t178.5 168t98 131.5t30 107.5q0 38 -14 72t-39 59.5t-59 40t-73 14.5q-36 0 -68 -13t-58.5 -37t-46 -58.5t-29.5 -76.5l-169 51q19 73 54 131.5t84.5 99t111.5 62t134 21.5q84 0 155 -27t123 -75t81 -114t29 -144q0 -65 -22.5 -127.5
t-73 -128.5t-132 -139t-199.5 -159h446v-179h-813v102zM226 577v876h-133v196h333v-1072h-200zM140 0l1028 1650h195l-1029 -1650h-194z" />
    <glyph glyph-name="uni2189" unicode="&#x2189;" horiz-adv-x="2180" 
d="M1368 252l175 40q14 -63 64.5 -101t125.5 -38q81 0 128.5 44.5t47.5 117.5q0 39 -13.5 72.5t-37.5 57.5t-55.5 38t-67.5 14q-26 0 -47 -8v135h47q33 0 61.5 13t50 35t34 50.5t12.5 59.5q0 32 -12 58.5t-33.5 46.5t-50.5 31t-62 11q-31 0 -59 -10t-50.5 -27.5t-38.5 -42.5
t-23 -55l-149 50q14 57 43 103t71 78t95.5 49.5t114.5 17.5q73 0 134.5 -23t106.5 -64t70.5 -97t25.5 -122q0 -69 -31 -125t-86 -91q70 -36 110.5 -100.5t40.5 -153.5q0 -73 -27.5 -134.5t-77 -106.5t-119 -70.5t-153.5 -25.5q-72 0 -133.5 19.5t-109.5 55t-79.5 86
t-42.5 112.5zM54 1114q0 124 32 226t89.5 175.5t139 114t180.5 40.5q98 0 179 -40.5t139 -114t90 -175.5t32 -226t-32 -226.5t-90 -176t-139 -114t-179 -40.5q-99 0 -180.5 40.5t-139 114t-89.5 176t-32 226.5zM265 1114q0 -88 16 -158.5t46 -119.5t72.5 -75.5t95.5 -26.5
t95 26.5t71.5 75.5t45.5 119.5t16 158.5t-16 158t-45.5 119t-71.5 75.5t-95 26.5t-95.5 -26.5t-72.5 -75.5t-46 -119t-16 -158zM500 0l1028 1650h195l-1029 -1650h-194z" />
    <glyph glyph-name="onethird" unicode="&#x2153;" horiz-adv-x="1768" 
d="M956 252l175 40q14 -63 64.5 -101t125.5 -38q81 0 128.5 44.5t47.5 117.5q0 39 -13.5 72.5t-37.5 57.5t-55.5 38t-67.5 14q-26 0 -47 -8v135h47q33 0 61.5 13t50 35t34 50.5t12.5 59.5q0 32 -12 58.5t-33.5 46.5t-50.5 31t-62 11q-31 0 -59 -10t-50.5 -27.5t-38.5 -42.5
t-23 -55l-149 50q14 57 43 103t71 78t95.5 49.5t114.5 17.5q73 0 134.5 -23t106.5 -64t70.5 -97t25.5 -122q0 -69 -31 -125t-86 -91q70 -36 110.5 -100.5t40.5 -153.5q0 -73 -27.5 -134.5t-77 -106.5t-119 -70.5t-153.5 -25.5q-72 0 -133.5 19.5t-109.5 55t-79.5 86
t-42.5 112.5zM226 577v876h-133v196h333v-1072h-200zM140 0l1028 1650h195l-1029 -1650h-194z" />
    <glyph glyph-name="twothirds" unicode="&#x2154;" horiz-adv-x="2242" 
d="M1430 252l175 40q14 -63 64.5 -101t125.5 -38q81 0 128.5 44.5t47.5 117.5q0 39 -13.5 72.5t-37.5 57.5t-55.5 38t-67.5 14q-26 0 -47 -8v135h47q33 0 61.5 13t50 35t34 50.5t12.5 59.5q0 32 -12 58.5t-33.5 46.5t-50.5 31t-62 11q-31 0 -59 -10t-50.5 -27.5t-38.5 -42.5
t-23 -55l-149 50q14 57 43 103t71 78t95.5 49.5t114.5 17.5q73 0 134.5 -23t106.5 -64t70.5 -97t25.5 -122q0 -69 -31 -125t-86 -91q70 -36 110.5 -100.5t40.5 -153.5q0 -73 -27.5 -134.5t-77 -106.5t-119 -70.5t-153.5 -25.5q-72 0 -133.5 19.5t-109.5 55t-79.5 86
t-42.5 112.5zM80 679q161 124 271.5 218t178.5 168t98 131.5t30 107.5q0 38 -14 72t-39 59.5t-59 40t-73 14.5q-36 0 -68 -13t-58.5 -37t-46 -58.5t-29.5 -76.5l-169 51q19 73 54 131.5t84.5 99t111.5 62t134 21.5q84 0 155 -27t123 -75t81 -114t29 -144q0 -65 -22.5 -127.5
t-73 -128.5t-132 -139t-199.5 -159h446v-179h-813v102zM606 0l1028 1650h195l-1029 -1650h-194z" />
    <glyph glyph-name="onequarter" unicode="&#xbc;" horiz-adv-x="1527" 
d="M661 198v63l525 811h198v-699h125v-175h-125v-198h-188v198h-535zM933 373h263v430zM226 577v876h-133v196h333v-1072h-200zM140 0l1028 1650h195l-1029 -1650h-194z" />
    <glyph glyph-name="threequarters" unicode="&#xbe;" horiz-adv-x="1794" 
d="M928 198v63l525 811h198v-699h125v-175h-125v-198h-188v198h-535zM1200 373h263v430zM41 829l175 40q14 -63 64.5 -101t125.5 -38q81 0 128.5 44.5t47.5 117.5q0 39 -13.5 72.5t-37.5 57.5t-55.5 38t-67.5 14q-26 0 -47 -8v135h47q33 0 61.5 13t50 35t34 50.5t12.5 59.5
q0 32 -12 58.5t-33.5 46.5t-50.5 31t-62 11q-31 0 -59 -10t-50.5 -27.5t-38.5 -42.5t-23 -55l-149 50q14 57 43 103t71 78t95.5 49.5t114.5 17.5q73 0 134.5 -23t106.5 -64t70.5 -97t25.5 -122q0 -69 -31 -125t-86 -91q70 -36 110.5 -100.5t40.5 -153.5q0 -73 -27.5 -134.5
t-77 -106.5t-119 -70.5t-153.5 -25.5q-72 0 -133.5 19.5t-109.5 55t-79.5 86t-42.5 112.5zM396 0l1028 1650h195l-1029 -1650h-194z" />
    <glyph glyph-name="uni2155" unicode="&#x2155;" horiz-adv-x="1767" 
d="M940 213l159 77q10 -33 30.5 -59t48.5 -45t62.5 -29t73.5 -10q46 0 83 14t63 39.5t40 61t14 77.5q0 52 -20.5 93t-58 69.5t-90.5 44t-118 15.5q-62 0 -117.5 -18t-102.5 -52l90 581h548v-175h-377l-33 -216q57 26 121 26q79 0 144.5 -25.5t113 -72t73.5 -112.5t26 -146
q0 -87 -30.5 -156t-83.5 -117t-125.5 -73.5t-155.5 -25.5q-64 0 -123.5 15.5t-109 45.5t-87 73.5t-58.5 99.5zM226 577v876h-133v196h333v-1072h-200zM140 0l1028 1650h195l-1029 -1650h-194z" />
    <glyph glyph-name="uni2156" unicode="&#x2156;" horiz-adv-x="2190" 
d="M1363 213l159 77q10 -33 30.5 -59t48.5 -45t62.5 -29t73.5 -10q46 0 83 14t63 39.5t40 61t14 77.5q0 52 -20.5 93t-58 69.5t-90.5 44t-118 15.5q-62 0 -117.5 -18t-102.5 -52l90 581h548v-175h-377l-33 -216q57 26 121 26q79 0 144.5 -25.5t113 -72t73.5 -112.5t26 -146
q0 -87 -30.5 -156t-83.5 -117t-125.5 -73.5t-155.5 -25.5q-64 0 -123.5 15.5t-109 45.5t-87 73.5t-58.5 99.5zM80 679q161 124 271.5 218t178.5 168t98 131.5t30 107.5q0 38 -14 72t-39 59.5t-59 40t-73 14.5q-36 0 -68 -13t-58.5 -37t-46 -58.5t-29.5 -76.5l-169 51
q19 73 54 131.5t84.5 99t111.5 62t134 21.5q84 0 155 -27t123 -75t81 -114t29 -144q0 -65 -22.5 -127.5t-73 -128.5t-132 -139t-199.5 -159h446v-179h-813v102zM606 0l1028 1650h195l-1029 -1650h-194z" />
    <glyph glyph-name="uni2157" unicode="&#x2157;" horiz-adv-x="2023" 
d="M1196 213l159 77q10 -33 30.5 -59t48.5 -45t62.5 -29t73.5 -10q46 0 83 14t63 39.5t40 61t14 77.5q0 52 -20.5 93t-58 69.5t-90.5 44t-118 15.5q-62 0 -117.5 -18t-102.5 -52l90 581h548v-175h-377l-33 -216q57 26 121 26q79 0 144.5 -25.5t113 -72t73.5 -112.5t26 -146
q0 -87 -30.5 -156t-83.5 -117t-125.5 -73.5t-155.5 -25.5q-64 0 -123.5 15.5t-109 45.5t-87 73.5t-58.5 99.5zM41 829l175 40q14 -63 64.5 -101t125.5 -38q81 0 128.5 44.5t47.5 117.5q0 39 -13.5 72.5t-37.5 57.5t-55.5 38t-67.5 14q-26 0 -47 -8v135h47q33 0 61.5 13
t50 35t34 50.5t12.5 59.5q0 32 -12 58.5t-33.5 46.5t-50.5 31t-62 11q-31 0 -59 -10t-50.5 -27.5t-38.5 -42.5t-23 -55l-149 50q14 57 43 103t71 78t95.5 49.5t114.5 17.5q73 0 134.5 -23t106.5 -64t70.5 -97t25.5 -122q0 -69 -31 -125t-86 -91q70 -36 110.5 -100.5
t40.5 -153.5q0 -73 -27.5 -134.5t-77 -106.5t-119 -70.5t-153.5 -25.5q-72 0 -133.5 19.5t-109.5 55t-79.5 86t-42.5 112.5zM413 0l1028 1650h195l-1029 -1650h-194z" />
    <glyph glyph-name="uni2158" unicode="&#x2158;" horiz-adv-x="2126" 
d="M1299 213l159 77q10 -33 30.5 -59t48.5 -45t62.5 -29t73.5 -10q46 0 83 14t63 39.5t40 61t14 77.5q0 52 -20.5 93t-58 69.5t-90.5 44t-118 15.5q-62 0 -117.5 -18t-102.5 -52l90 581h548v-175h-377l-33 -216q57 26 121 26q79 0 144.5 -25.5t113 -72t73.5 -112.5t26 -146
q0 -87 -30.5 -156t-83.5 -117t-125.5 -73.5t-155.5 -25.5q-64 0 -123.5 15.5t-109 45.5t-87 73.5t-58.5 99.5zM-33 775v63l525 811h198v-699h125v-175h-125v-198h-188v198h-535zM239 950h263v430zM486 0l1028 1650h195l-1029 -1650h-194z" />
    <glyph glyph-name="uni2159" unicode="&#x2159;" horiz-adv-x="1664" 
d="M815 357q0 92 40.5 188.5t117.5 188.5l279 338h243l-316 -375q21 10 46.5 15.5t54.5 5.5q73 0 135.5 -27.5t108 -76t71.5 -116t26 -148.5q0 -83 -28.5 -151.5t-80 -117t-124 -75.5t-159.5 -27q-93 0 -169.5 29.5t-130.5 81t-84 120.5t-30 147zM1219 146q44 0 81 15t64 41
t42 62.5t15 79.5q0 44 -15.5 81t-42 64t-62.5 42.5t-78 15.5t-78.5 -15.5t-64 -43t-43 -65t-15.5 -80.5q0 -41 14.5 -77t40.5 -62.5t62 -42t80 -15.5zM226 577v876h-133v196h333v-1072h-200zM140 0l1028 1650h195l-1029 -1650h-194z" />
    <glyph glyph-name="uni215A" unicode="&#x215a;" horiz-adv-x="1962" 
d="M1112 357q0 92 40.5 188.5t117.5 188.5l279 338h243l-316 -375q21 10 46.5 15.5t54.5 5.5q73 0 135.5 -27.5t108 -76t71.5 -116t26 -148.5q0 -83 -28.5 -151.5t-80 -117t-124 -75.5t-159.5 -27q-93 0 -169.5 29.5t-130.5 81t-84 120.5t-30 147zM1516 146q44 0 81 15
t64 41t42 62.5t15 79.5q0 44 -15.5 81t-42 64t-62.5 42.5t-78 15.5t-78.5 -15.5t-64 -43t-43 -65t-15.5 -80.5q0 -41 14.5 -77t40.5 -62.5t62 -42t80 -15.5zM24 792l159 77q10 -33 30.5 -59t48.5 -45t62.5 -29t73.5 -10q46 0 83 14t63 39.5t40 61t14 77.5q0 52 -20.5 93
t-58 69.5t-90.5 44t-118 15.5q-62 0 -117.5 -18t-102.5 -52l90 581h548v-175h-377l-33 -216q57 26 121 26q79 0 144.5 -25.5t113 -72t73.5 -112.5t26 -146q0 -87 -30.5 -156t-83.5 -117t-125.5 -73.5t-155.5 -25.5q-64 0 -123.5 15.5t-109 45.5t-87 73.5t-58.5 99.5zM404 0
l1028 1650h195l-1029 -1650h-194z" />
    <glyph glyph-name="uni2150" unicode="&#x2150;" horiz-adv-x="1889" 
d="M993 0l507 897h-481v175h777v-59l-567 -1013h-236zM226 577v876h-133v196h333v-1072h-200zM140 0l1028 1650h195l-1029 -1650h-194z" />
    <glyph glyph-name="oneeighth" unicode="&#x215b;" horiz-adv-x="1795" 
d="M974 295q0 47 14 90t39 79.5t60 65t78 46.5q-34 18 -61.5 43.5t-46.5 56.5t-29 66t-10 72q0 60 26.5 111t72.5 88t107.5 58t131.5 21q62 0 122.5 -18.5t108.5 -54.5t78 -87.5t30 -117.5q0 -76 -40 -139.5t-108 -98.5q44 -18 79 -46.5t60.5 -65.5t39 -80t13.5 -90
q0 -68 -29.5 -126t-81.5 -100t-121.5 -65.5t-150.5 -23.5q-80 0 -150 23.5t-121.5 65.5t-81 100t-29.5 127zM1192 317q0 -35 12 -65t33.5 -52t52 -34.5t66.5 -12.5q37 0 67.5 12.5t52 34.5t33.5 52t12 65q0 36 -12.5 66t-34 52t-52 34.5t-66.5 12.5q-35 0 -65 -12.5t-52 -34
t-34.5 -52t-12.5 -66.5zM1211 794q0 -31 11 -57.5t30 -46t46 -30.5t58 -11q32 0 58.5 11t46 30.5t30.5 46t11 57.5t-11 57.5t-30.5 46t-46.5 30.5t-58 11t-57.5 -11t-46 -30.5t-30.5 -46t-11 -57.5zM226 577v876h-133v196h333v-1072h-200zM140 0l1028 1650h195l-1029 -1650
h-194z" />
    <glyph glyph-name="threeeighths" unicode="&#x215c;" horiz-adv-x="2058" 
d="M1237 295q0 47 14 90t39 79.5t60 65t78 46.5q-34 18 -61.5 43.5t-46.5 56.5t-29 66t-10 72q0 60 26.5 111t72.5 88t107.5 58t131.5 21q62 0 122.5 -18.5t108.5 -54.5t78 -87.5t30 -117.5q0 -76 -40 -139.5t-108 -98.5q44 -18 79 -46.5t60.5 -65.5t39 -80t13.5 -90
q0 -68 -29.5 -126t-81.5 -100t-121.5 -65.5t-150.5 -23.5q-80 0 -150 23.5t-121.5 65.5t-81 100t-29.5 127zM1455 317q0 -35 12 -65t33.5 -52t52 -34.5t66.5 -12.5q37 0 67.5 12.5t52 34.5t33.5 52t12 65q0 36 -12.5 66t-34 52t-52 34.5t-66.5 12.5q-35 0 -65 -12.5t-52 -34
t-34.5 -52t-12.5 -66.5zM1474 794q0 -31 11 -57.5t30 -46t46 -30.5t58 -11q32 0 58.5 11t46 30.5t30.5 46t11 57.5t-11 57.5t-30.5 46t-46.5 30.5t-58 11t-57.5 -11t-46 -30.5t-30.5 -46t-11 -57.5zM41 829l175 40q14 -63 64.5 -101t125.5 -38q81 0 128.5 44.5t47.5 117.5
q0 39 -13.5 72.5t-37.5 57.5t-55.5 38t-67.5 14q-26 0 -47 -8v135h47q33 0 61.5 13t50 35t34 50.5t12.5 59.5q0 32 -12 58.5t-33.5 46.5t-50.5 31t-62 11q-31 0 -59 -10t-50.5 -27.5t-38.5 -42.5t-23 -55l-149 50q14 57 43 103t71 78t95.5 49.5t114.5 17.5q73 0 134.5 -23
t106.5 -64t70.5 -97t25.5 -122q0 -69 -31 -125t-86 -91q70 -36 110.5 -100.5t40.5 -153.5q0 -73 -27.5 -134.5t-77 -106.5t-119 -70.5t-153.5 -25.5q-72 0 -133.5 19.5t-109.5 55t-79.5 86t-42.5 112.5zM413 0l1028 1650h195l-1029 -1650h-194z" />
    <glyph glyph-name="fiveeighths" unicode="&#x215d;" horiz-adv-x="2055" 
d="M1234 295q0 47 14 90t39 79.5t60 65t78 46.5q-34 18 -61.5 43.5t-46.5 56.5t-29 66t-10 72q0 60 26.5 111t72.5 88t107.5 58t131.5 21q62 0 122.5 -18.5t108.5 -54.5t78 -87.5t30 -117.5q0 -76 -40 -139.5t-108 -98.5q44 -18 79 -46.5t60.5 -65.5t39 -80t13.5 -90
q0 -68 -29.5 -126t-81.5 -100t-121.5 -65.5t-150.5 -23.5q-80 0 -150 23.5t-121.5 65.5t-81 100t-29.5 127zM1452 317q0 -35 12 -65t33.5 -52t52 -34.5t66.5 -12.5q37 0 67.5 12.5t52 34.5t33.5 52t12 65q0 36 -12.5 66t-34 52t-52 34.5t-66.5 12.5q-35 0 -65 -12.5t-52 -34
t-34.5 -52t-12.5 -66.5zM1471 794q0 -31 11 -57.5t30 -46t46 -30.5t58 -11q32 0 58.5 11t46 30.5t30.5 46t11 57.5t-11 57.5t-30.5 46t-46.5 30.5t-58 11t-57.5 -11t-46 -30.5t-30.5 -46t-11 -57.5zM24 792l159 77q10 -33 30.5 -59t48.5 -45t62.5 -29t73.5 -10q46 0 83 14
t63 39.5t40 61t14 77.5q0 52 -20.5 93t-58 69.5t-90.5 44t-118 15.5q-62 0 -117.5 -18t-102.5 -52l90 581h548v-175h-377l-33 -216q57 26 121 26q79 0 144.5 -25.5t113 -72t73.5 -112.5t26 -146q0 -87 -30.5 -156t-83.5 -117t-125.5 -73.5t-155.5 -25.5q-64 0 -123.5 15.5
t-109 45.5t-87 73.5t-58.5 99.5zM408 0l1028 1650h195l-1029 -1650h-194z" />
    <glyph glyph-name="seveneighths" unicode="&#x215e;" horiz-adv-x="1856" 
d="M1035 295q0 47 14 90t39 79.5t60 65t78 46.5q-34 18 -61.5 43.5t-46.5 56.5t-29 66t-10 72q0 60 26.5 111t72.5 88t107.5 58t131.5 21q62 0 122.5 -18.5t108.5 -54.5t78 -87.5t30 -117.5q0 -76 -40 -139.5t-108 -98.5q44 -18 79 -46.5t60.5 -65.5t39 -80t13.5 -90
q0 -68 -29.5 -126t-81.5 -100t-121.5 -65.5t-150.5 -23.5q-80 0 -150 23.5t-121.5 65.5t-81 100t-29.5 127zM1253 317q0 -35 12 -65t33.5 -52t52 -34.5t66.5 -12.5q37 0 67.5 12.5t52 34.5t33.5 52t12 65q0 36 -12.5 66t-34 52t-52 34.5t-66.5 12.5q-35 0 -65 -12.5t-52 -34
t-34.5 -52t-12.5 -66.5zM1272 794q0 -31 11 -57.5t30 -46t46 -30.5t58 -11q32 0 58.5 11t46 30.5t30.5 46t11 57.5t-11 57.5t-30.5 46t-46.5 30.5t-58 11t-57.5 -11t-46 -30.5t-30.5 -46t-11 -57.5zM36 577l507 897h-481v175h777v-59l-567 -1013h-236zM189 0l1028 1650h195
l-1029 -1650h-194z" />
    <glyph glyph-name="uni2151" unicode="&#x2151;" horiz-adv-x="1853" 
d="M1391 1092q93 0 169.5 -29.5t130.5 -81t83.5 -121.5t29.5 -150q0 -90 -39.5 -184t-117.5 -188l-279 -338h-244l321 379q-20 -12 -46 -18.5t-54 -6.5q-67 0 -129.5 27t-110.5 76t-77 117t-29 150q0 77 27 144t77.5 117t123.5 78.5t164 28.5zM1400 526q41 0 77 16t62.5 43
t41.5 63.5t15 78.5q0 43 -14.5 79t-40.5 62.5t-62 41t-79 14.5t-79.5 -14.5t-63.5 -41t-42 -62.5t-15 -79t15.5 -79.5t42.5 -63.5t63.5 -42.5t78.5 -15.5zM226 577v876h-133v196h333v-1072h-200zM140 0l1028 1650h195l-1029 -1650h-194z" />
    <glyph glyph-name="uni2152" unicode="&#x2152;" horiz-adv-x="2489" 
d="M1554 536q0 124 32 226t89.5 175.5t139 114t180.5 40.5q98 0 179 -40.5t139 -114t90 -175.5t32 -226t-32 -226.5t-90 -176t-139 -114t-179 -40.5q-99 0 -180.5 40.5t-139 114t-89.5 176t-32 226.5zM1765 536q0 -88 16 -158.5t46 -119.5t72.5 -75.5t95.5 -26.5t95 26.5
t71.5 75.5t45.5 119.5t16 158.5t-16 158t-45.5 119t-71.5 75.5t-95 26.5t-95.5 -26.5t-72.5 -75.5t-46 -119t-16 -158zM1254 0v876h-133v196h333v-1072h-200zM226 577v876h-133v196h333v-1072h-200zM140 0l1028 1650h195l-1029 -1650h-194z" />
    <glyph glyph-name="period" unicode="." horiz-adv-x="606" 
d="M112 159q0 40 15 74.5t41 60.5t60.5 41t74.5 15t74.5 -15t60.5 -41t41 -60.5t15 -74.5t-15 -74.5t-41 -60.5t-60.5 -41t-74.5 -15t-74.5 15t-60.5 41t-41 60.5t-15 74.5z" />
    <glyph glyph-name="comma" unicode="," horiz-adv-x="609" 
d="M305 350q41 0 76 -14.5t61 -42t40.5 -66.5t14.5 -88q0 -56 -20 -117t-56.5 -122.5t-89 -121t-118.5 -113.5l-82 67q19 18 39 47.5t38 65t31 72t18 67.5q-68 17 -106.5 64t-38.5 113q0 40 14.5 74.5t40.5 60t61.5 40t76.5 14.5z" />
    <glyph glyph-name="colon" unicode=":" horiz-adv-x="606" 
d="M112 159q0 40 15 74.5t41 60.5t60.5 41t74.5 15t74.5 -15t60.5 -41t41 -60.5t15 -74.5t-15 -74.5t-41 -60.5t-60.5 -41t-74.5 -15t-74.5 15t-60.5 41t-41 60.5t-15 74.5zM112 958q0 40 15 74.5t41 60.5t60.5 41t74.5 15t74.5 -15t60.5 -41t41 -60.5t15 -74.5t-15 -74.5
t-41 -60.5t-60.5 -41t-74.5 -15t-74.5 15t-60.5 41t-41 60.5t-15 74.5z" />
    <glyph glyph-name="semicolon" unicode=";" horiz-adv-x="637" 
d="M112 958q0 40 15 74.5t41 60.5t60.5 41t74.5 15t74.5 -15t60.5 -41t41 -60.5t15 -74.5t-15 -74.5t-41 -60.5t-60.5 -41t-74.5 -15t-74.5 15t-60.5 41t-41 60.5t-15 74.5zM333 350q41 0 76 -14.5t61 -42t40.5 -66.5t14.5 -88q0 -56 -20 -117t-56.5 -122.5t-89 -121
t-118.5 -113.5l-82 67q19 18 39 47.5t38 65t31 72t18 67.5q-68 17 -106.5 64t-38.5 113q0 40 14.5 74.5t40.5 60t61.5 40t76.5 14.5z" />
    <glyph glyph-name="ellipsis" unicode="&#x2026;" horiz-adv-x="1793" 
d="M112 159q0 40 15 74.5t41 60.5t60.5 41t74.5 15t74.5 -15t60.5 -41t41 -60.5t15 -74.5t-15 -74.5t-41 -60.5t-60.5 -41t-74.5 -15t-74.5 15t-60.5 41t-41 60.5t-15 74.5zM706 159q0 40 15 74.5t41 60.5t60.5 41t74.5 15t74.5 -15t60.5 -41t41 -60.5t15 -74.5t-15 -74.5
t-41 -60.5t-60.5 -41t-74.5 -15t-74.5 15t-60.5 41t-41 60.5t-15 74.5zM1299 159q0 40 15 74.5t41 60.5t60.5 41t74.5 15t74.5 -15t60.5 -41t41 -60.5t15 -74.5t-15 -74.5t-41 -60.5t-60.5 -41t-74.5 -15t-74.5 15t-60.5 41t-41 60.5t-15 74.5z" />
    <glyph glyph-name="exclam" unicode="!" horiz-adv-x="668" 
d="M480 1720l-39 -1224h-214l-39 1224h292zM143 159q0 40 15 74.5t41 60.5t60.5 41t74.5 15t74.5 -15t60.5 -41t41 -60.5t15 -74.5t-15 -74.5t-41 -60.5t-60.5 -41t-74.5 -15t-74.5 15t-60.5 41t-41 60.5t-15 74.5z" />
    <glyph glyph-name="exclamdown" unicode="&#xa1;" horiz-adv-x="668" 
d="M188 -522l39 1224h214l39 -1224h-292zM525 1039q0 -40 -15 -74.5t-41 -60.5t-60.5 -41t-74.5 -15t-74.5 15t-60.5 41t-41 60.5t-15 74.5t15 74.5t41 60.5t60.5 41t74.5 15t74.5 -15t60.5 -41t41 -60.5t15 -74.5z" />
    <glyph glyph-name="question" unicode="?" horiz-adv-x="1184" 
d="M574 1680q119 0 217.5 -39.5t169 -107t109.5 -157t39 -190.5q0 -93 -32.5 -176t-89 -147.5t-133 -107.5t-164.5 -56v-194h-270v451q22 -6 51.5 -10t63.5 -4q69 0 124.5 16.5t94 47t59.5 75.5t21 102q0 55 -19.5 99t-55 75t-85 47.5t-109.5 16.5q-103 0 -177 -47.5
t-111 -135.5l-218 79q25 86 74.5 153.5t117 114t150 71t173.5 24.5zM555 350q40 0 74.5 -15t60.5 -41t41 -60.5t15 -74.5t-15 -74.5t-41 -60.5t-60.5 -41t-74.5 -15t-74.5 15t-60.5 41t-41 60.5t-15 74.5t15 74.5t41 60.5t60.5 41t74.5 15z" />
    <glyph glyph-name="questiondown" unicode="&#xbf;" horiz-adv-x="1184" 
d="M610 -550q-119 0 -217.5 39.5t-169 107t-109.5 157t-39 190.5q0 93 32.5 176t89 147.5t133 107.5t164.5 56v194h270v-451q-22 6 -51.5 10t-63.5 4q-69 0 -124.5 -16.5t-94 -47t-59.5 -75.5t-21 -102q0 -55 19.5 -99t55 -75t85 -47.5t109.5 -16.5q103 0 177 47.5
t111 135.5l218 -79q-25 -86 -74.5 -153.5t-117 -114t-150 -71t-173.5 -24.5zM629 780q-40 0 -74.5 15t-60.5 41t-41 60.5t-15 74.5t15 74.5t41 60.5t60.5 41t74.5 15t74.5 -15t60.5 -41t41 -60.5t15 -74.5t-15 -74.5t-41 -60.5t-60.5 -41t-74.5 -15z" />
    <glyph glyph-name="periodcentered" unicode="&#xb7;" horiz-adv-x="606" 
d="M112 539q0 40 15 74.5t41 60.5t60.5 41t74.5 15t74.5 -15t60.5 -41t41 -60.5t15 -74.5t-15 -74.5t-41 -60.5t-60.5 -41t-74.5 -15t-74.5 15t-60.5 41t-41 60.5t-15 74.5z" />
    <glyph glyph-name="bullet" unicode="&#x2022;" horiz-adv-x="865" 
d="M112 714q0 67 25 125.5t68.5 101.5t102 68t125.5 25t125 -25t101.5 -68t68.5 -101.5t25 -125.5t-25 -125.5t-68.5 -101.5t-101.5 -68t-125 -25t-125.5 25t-102 68t-68.5 101.5t-25 125.5z" />
    <glyph glyph-name="asterisk" unicode="*" horiz-adv-x="861" 
d="M300 1104l-109 75l124 183l-211 75l43 131l211 -66v218h145v-218l211 66l43 -131l-211 -75l124 -183l-109 -75l-131 171z" />
    <glyph glyph-name="numbersign" unicode="#" horiz-adv-x="1573" 
d="M386 631l42 327h-262v199h286l54 432h200l-56 -432h360l55 432h199l-55 -432h199v-199h-223l-41 -327h264v-199h-289l-53 -432h-198l53 432h-361l-53 -432h-198l52 432h-195v199h220zM585 631h360l42 327h-360z" />
    <glyph glyph-name="slash" unicode="/" horiz-adv-x="1151" 
d="M39 -240l824 1960h249l-824 -1960h-249z" />
    <glyph glyph-name="backslash" unicode="\" horiz-adv-x="1151" 
d="M863 0l-824 1720h249l824 -1720h-249z" />
    <glyph glyph-name="parenleft" unicode="(" horiz-adv-x="766" 
d="M134 614q0 194 34 367.5t86 319t115.5 259.5t121.5 190l180 -93q-44 -67 -91.5 -169.5t-86.5 -235t-64 -293.5t-25 -345q0 -181 25 -341t64 -292.5t86 -235.5t92 -172l-180 -93q-58 76 -121.5 190t-115.5 259.5t-86 318.5t-34 366z" />
    <glyph glyph-name="parenright" unicode=")" horiz-adv-x="766" 
d="M615 615q0 194 -34 367.5t-86 319t-115 259.5t-122 190l-180 -93q44 -67 91.5 -169.5t86.5 -235t64 -293.5t25 -345q0 -181 -25 -341t-64 -292.5t-86 -235.5t-92 -172l180 -93q59 76 122 190t115 259.5t86 318.5t34 366z" />
    <glyph glyph-name="braceleft" unicode="{" horiz-adv-x="818" 
d="M114 521v158q59 0 92 28t33 92v559q0 62 13.5 126.5t49.5 117t97.5 85.5t157.5 33h159v-213h-70q-71 0 -112.5 -47t-41.5 -125v-550q0 -74 -29.5 -118t-73.5 -67q44 -23 73.5 -67.5t29.5 -117.5v-550q0 -78 41.5 -125t112.5 -47h70v-213h-159q-96 0 -157.5 33t-97.5 85.5
t-49.5 117t-13.5 126.5v559q0 64 -33 92t-92 28z" />
    <glyph glyph-name="braceright" unicode="}" horiz-adv-x="818" 
d="M689 679v-158q-59 0 -92 -28t-33 -92v-559q0 -62 -13.5 -126.5t-49.5 -117t-97.5 -85.5t-157.5 -33h-159v213h70q71 0 112.5 47t41.5 125v550q0 74 30 118.5t73 66.5q-44 23 -73.5 67.5t-29.5 117.5v550q0 78 -41.5 125t-112.5 47h-70v213h159q96 0 157.5 -33t97.5 -85.5
t49.5 -117t13.5 -126.5v-559q0 -64 33 -92t92 -28z" />
    <glyph glyph-name="bracketleft" unicode="[" horiz-adv-x="812" 
d="M781 1720v-196h-324v-1848h324v-196h-576v2240h576z" />
    <glyph glyph-name="bracketright" unicode="]" horiz-adv-x="812" 
d="M47 -520v196h324v1848h-324v196h576v-2240h-576z" />
    <glyph glyph-name="hyphen" unicode="-" horiz-adv-x="892" 
d="M124 453v251h644v-251h-644z" />
    <glyph glyph-name="uni00AD" unicode="&#xad;" horiz-adv-x="892" 
d="M124 453v251h644v-251h-644z" />
    <glyph glyph-name="endash" unicode="&#x2013;" horiz-adv-x="1262" 
d="M124 453v250h1014v-250h-1014z" />
    <glyph glyph-name="emdash" unicode="&#x2014;" horiz-adv-x="2268" 
d="M124 453v250h2020v-250h-2020z" />
    <glyph glyph-name="underscore" unicode="_" horiz-adv-x="1026" 
d="M0 -201v143h1026v-143h-1026z" />
    <glyph glyph-name="quotesinglbase" unicode="&#x201a;" horiz-adv-x="576" 
d="M289 337q38 0 70 -13.5t55 -38.5t36.5 -60.5t13.5 -80.5q0 -52 -18 -108t-51.5 -112t-82 -111t-108.5 -104l-75 62q17 16 35.5 43.5t35 60t29 65.5t16.5 62q-63 14 -98 58t-35 104q0 37 13.5 68.5t37.5 55t56.5 36.5t69.5 13z" />
    <glyph glyph-name="quotedblbase" unicode="&#x201e;" horiz-adv-x="1009" 
d="M289 337q38 0 70 -13.5t55 -38.5t36.5 -60.5t13.5 -80.5q0 -52 -18 -108t-51.5 -112t-82 -111t-108.5 -104l-75 62q17 16 35.5 43.5t35 60t29 65.5t16.5 62q-63 14 -98 58t-35 104q0 37 13.5 68.5t37.5 55t56.5 36.5t69.5 13zM722 337q38 0 70 -13.5t55 -38.5t36.5 -60.5
t13.5 -80.5q0 -52 -18 -108t-51.5 -112t-82 -111t-108.5 -104l-75 62q17 16 35.5 43.5t35 60t29 65.5t16.5 62q-63 14 -98 58t-35 104q0 37 13.5 68.5t37.5 55t56.5 36.5t69.5 13z" />
    <glyph glyph-name="quotedblleft" unicode="&#x201c;" horiz-adv-x="1009" 
d="M720 1050q-37 0 -69.5 13.5t-55.5 38.5t-36.5 60.5t-13.5 80.5q0 52 18 108t51.5 112t82 111t108.5 104l75 -62q-17 -16 -35.5 -43.5t-35 -60t-28.5 -65.5t-17 -62q63 -14 98 -58t35 -104q0 -37 -13.5 -68.5t-37.5 -54.5t-56 -36.5t-70 -13.5zM287 1050q-37 0 -69.5 13.5
t-55.5 38.5t-36.5 60.5t-13.5 80.5q0 52 18 108t51.5 112t82 111t108.5 104l75 -62q-17 -16 -35.5 -43.5t-35 -60t-28.5 -65.5t-17 -62q63 -14 98 -58t35 -104q0 -37 -13.5 -68.5t-37.5 -54.5t-56 -36.5t-70 -13.5z" />
    <glyph glyph-name="quotedblright" unicode="&#x201d;" horiz-adv-x="1009" 
d="M289 1681q38 0 70 -13.5t55 -38.5t36.5 -60.5t13.5 -80.5q0 -52 -18 -107.5t-51.5 -112t-82 -111t-108.5 -104.5l-75 62q17 17 35.5 44t35 59.5t29 66t16.5 61.5q-63 14 -98 58t-35 104q0 37 13.5 68.5t37.5 55t56.5 36.5t69.5 13zM722 1681q38 0 70 -13.5t55 -38.5
t36.5 -60.5t13.5 -80.5q0 -52 -18 -107.5t-51.5 -112t-82 -111t-108.5 -104.5l-75 62q17 17 35.5 44t35 59.5t29 66t16.5 61.5q-63 14 -98 58t-35 104q0 37 13.5 68.5t37.5 55t56.5 36.5t69.5 13z" />
    <glyph glyph-name="quoteleft" unicode="&#x2018;" horiz-adv-x="576" 
d="M287 1050q-37 0 -69.5 13.5t-55.5 38.5t-36.5 60.5t-13.5 80.5q0 52 18 108t51.5 112t82 111t108.5 104l75 -62q-17 -16 -35.5 -43.5t-35 -60t-28.5 -65.5t-17 -62q63 -14 98 -58t35 -104q0 -37 -13.5 -68.5t-37.5 -54.5t-56 -36.5t-70 -13.5z" />
    <glyph glyph-name="quoteright" unicode="&#x2019;" horiz-adv-x="576" 
d="M289 1681q38 0 70 -13.5t55 -38.5t36.5 -60.5t13.5 -80.5q0 -52 -18 -107.5t-51.5 -112t-82 -111t-108.5 -104.5l-75 62q17 17 35.5 44t35 59.5t29 66t16.5 61.5q-63 14 -98 58t-35 104q0 37 13.5 68.5t37.5 55t56.5 36.5t69.5 13z" />
    <glyph glyph-name="guillemotleft" unicode="&#xab;" horiz-adv-x="1178" 
d="M932 57l-390 500l390 500l157 -123l-296 -377l296 -378zM455 57l-390 500l390 500l156 -123l-295 -377l295 -378z" />
    <glyph glyph-name="guillemotright" unicode="&#xbb;" horiz-adv-x="1177" 
d="M243 57l-157 122l296 378l-296 377l157 123l390 -500zM720 57l-156 122l295 378l-295 377l156 123l390 -500z" />
    <glyph glyph-name="guilsinglleft" unicode="&#x2039;" horiz-adv-x="700" 
d="M455 57l-390 500l390 500l156 -123l-294 -377l294 -377z" />
    <glyph glyph-name="guilsinglright" unicode="&#x203a;" horiz-adv-x="700" 
d="M243 57l-157 123l296 377l-296 377l157 123l390 -500z" />
    <glyph glyph-name="quotedbl" unicode="&#x22;" horiz-adv-x="886" 
d="M165 1085l-53 635h282l-52 -635h-177zM545 1085l-53 635h282l-52 -635h-177z" />
    <glyph glyph-name="quotesingle" unicode="'" horiz-adv-x="506" 
d="M165 1085l-53 635h282l-52 -635h-177z" />
    <glyph glyph-name="uni00A0" unicode="&#xa0;" horiz-adv-x="576" 
 />
    <glyph glyph-name="cent" unicode="&#xa2;" horiz-adv-x="1023" 
d="M25 512q0 98 32 185t89 156t136.5 118t174.5 70v231h180v-217q91 -6 168.5 -33.5t129.5 -67.5l-109 -191q-37 26 -85 40t-102 14q-69 0 -125.5 -23.5t-97 -65t-62.5 -97t-22 -119.5t22 -119.5t62.5 -96.5t97 -65t125.5 -24q54 0 102 14t85 40l109 -191
q-44 -33 -106 -58.5t-135 -36.5v-233h-180v231q-106 13 -195.5 60t-154.5 118t-102 163.5t-37 197.5z" />
    <glyph glyph-name="currency" unicode="&#xa4;" horiz-adv-x="1233" 
d="M238 345q-42 58 -65 127.5t-23 149.5t23 149.5t65 127.5l-139 139l102 102l138 -139q58 43 128 66.5t150 23.5q79 0 149.5 -23.5t128.5 -66.5l138 139l102 -102l-139 -139q42 -58 65 -127.5t23 -149.5t-23 -149.5t-65 -127.5l139 -139l-102 -102l-138 139
q-58 -43 -128.5 -66.5t-149.5 -23.5q-80 0 -150 23.5t-128 66.5l-138 -139l-102 102zM617 397q49 0 90.5 16.5t72 46.5t48 71.5t17.5 90.5t-17.5 90.5t-48 71.5t-72 46.5t-90.5 16.5t-90.5 -16.5t-72 -46.5t-48 -71.5t-17.5 -90.5t17.5 -90.5t48 -71.5t72 -46.5t90.5 -16.5z
" />
    <glyph glyph-name="dollar" unicode="$" horiz-adv-x="1331" 
d="M40 229l169 213q95 -88 204.5 -138.5t218.5 -50.5q56 0 103.5 14.5t82 41.5t54 65.5t19.5 86.5q0 44 -16 79t-54.5 67.5t-101.5 64.5t-157 69q-113 44 -194 93.5t-133 106.5t-76.5 122.5t-24.5 141.5q0 88 33.5 169t95 145t149 106t195.5 52v249h180v-256
q54 -9 104.5 -25.5t95.5 -38.5t82.5 -48t65.5 -54l-149 -220q-64 50 -147.5 82.5t-171.5 32.5q-55 0 -98.5 -15t-73 -41t-45 -59.5t-15.5 -71.5q0 -34 15 -64t48.5 -58.5t88.5 -56.5t135 -58q118 -45 211.5 -93t158.5 -107.5t99.5 -134t34.5 -172.5q0 -101 -31.5 -183.5
t-89.5 -144.5t-139 -102.5t-179 -57.5v-256h-180v245q-90 4 -174.5 25t-158 55.5t-133.5 80t-101 99.5z" />
    <glyph glyph-name="Euro" unicode="&#x20ac;" horiz-adv-x="1867" 
d="M312 744q-3 39 -3 80q0 39 3 78h-156v180h191q40 131 118.5 240.5t188 189t245.5 124t291 44.5q76 0 149 -11.5t140.5 -32t127 -49.5t108.5 -64l-149 -252q-69 51 -162 78.5t-194 27.5q-91 0 -170.5 -21t-144 -59.5t-114 -93t-81.5 -121.5h702v-180h-755q-2 -19 -3 -38.5
t-1 -39.5t1 -40t4 -40h754v-180h-701q32 -66 81.5 -120.5t114 -92.5t143.5 -59t170 -21q101 0 194 27.5t162 78.5l149 -252q-49 -35 -108.5 -64t-127 -49.5t-140.5 -32t-149 -11.5q-154 0 -290 44t-245.5 123.5t-188 189t-119.5 239.5h-191v180h156z" />
    <glyph glyph-name="florin" unicode="&#x192;" horiz-adv-x="841" 
d="M-91 -265q20 -14 47.5 -21t55.5 -7q67 0 102 48t45 161l84 887h-134l20 222h134l26 264q10 107 44 192t87 145t124.5 92t156.5 32q72 0 138.5 -22t113.5 -61l-123 -203q-20 14 -47.5 21t-54.5 7q-67 0 -101.5 -48t-45.5 -161l-26 -258h243l-19 -222h-244l-85 -892
q-10 -107 -43.5 -192.5t-86.5 -145.5t-124 -92t-157 -32q-72 0 -139 22t-113 61z" />
    <glyph glyph-name="sterling" unicode="&#xa3;" horiz-adv-x="1503" 
d="M133 755h226q-50 82 -83.5 177.5t-33.5 210.5q0 124 40 223.5t113 169.5t174.5 108t225.5 38q108 0 199 -28.5t161 -80.5t117.5 -123.5t69.5 -158.5l-250 -122q-14 54 -38 101t-60.5 81.5t-87 54.5t-116.5 20q-123 0 -191 -70.5t-68 -200.5q0 -94 33 -192.5t84 -207.5
h398v-164h-354q13 -29 20.5 -60.5t7.5 -67.5q0 -40 -9.5 -81t-30.5 -83q41 -6 85 -20.5t89 -30.5t89 -28t86 -12q43 0 74.5 12.5t54 35t35.5 54.5t19 71l228 -112q-12 -67 -43.5 -122t-79.5 -94.5t-110.5 -61t-137.5 -21.5q-77 0 -148 20.5t-137 45t-127 45t-118 20.5
q-59 0 -97 -25.5t-42 -75.5h-254q0 66 22 124.5t61 102t92.5 69.5t116.5 27q14 26 22.5 63.5t8.5 77.5q0 38 -10 69.5t-25 57.5h-301v164z" />
    <glyph glyph-name="yen" unicode="&#xa5;" horiz-adv-x="1418" 
d="M-41 1650h371l379 -603l379 603h371l-523 -805h343v-220h-416v-155h416v-220h-416v-250h-308v250h-416v220h416v155h-416v220h343z" />
    <glyph glyph-name="plus" unicode="+" horiz-adv-x="1265" 
d="M506 955v387h252v-387h387v-252h-387v-387h-252v387h-387v252h387z" />
    <glyph glyph-name="minus" unicode="&#x2212;" horiz-adv-x="1275" 
d="M124 703v252h1027v-252h-1027z" />
    <glyph glyph-name="multiply" unicode="&#xd7;" horiz-adv-x="1228" 
d="M290 328l-177 176l324 325l-324 326l177 175l324 -323l325 323l176 -175l-324 -326l324 -325l-178 -176l-323 324z" />
    <glyph glyph-name="divide" unicode="&#xf7;" horiz-adv-x="1280" 
d="M118 703v252h1026v-252h-1026zM495 370q0 30 10.5 55.5t29 44t43.5 29.5t53 11t53 -11t43.5 -29.5t29 -44t10.5 -55.5t-10.5 -55.5t-29 -44t-43.5 -29.5t-53 -11t-53 11t-43.5 29.5t-29 44t-10.5 55.5zM631 1430q28 0 53 -11t43.5 -29.5t29 -44t10.5 -55.5t-10.5 -55.5
t-29 -44t-43.5 -29.5t-53 -11t-53 11t-43.5 29.5t-29 44t-10.5 55.5t10.5 55.5t29 44t43.5 29.5t53 11z" />
    <glyph glyph-name="equal" unicode="=" horiz-adv-x="1272" 
d="M124 933v252h1024v-252h-1024zM1148 727v-252h-1024v252h1024z" />
    <glyph glyph-name="notequal" unicode="&#x2260;" horiz-adv-x="1272" 
d="M124 727h357l119 206h-476v252h623l168 290h197l-168 -290h204v-252h-351l-119 -206h470v-252h-617l-174 -300h-197l174 300h-210v252z" />
    <glyph glyph-name="greater" unicode="&#x3e;" horiz-adv-x="1300" 
d="M1231 928v-192l-1093 -466v235l782 327l-782 327v235z" />
    <glyph glyph-name="less" unicode="&#x3c;" horiz-adv-x="1300" 
d="M69 928l1093 466v-235l-782 -327l782 -327v-235l-1093 466v192z" />
    <glyph glyph-name="greaterequal" unicode="&#x2265;" horiz-adv-x="1309" 
d="M135 1392v234l1095 -466v-193l-1095 -465v232l786 327zM135 67v252h1095v-252h-1095z" />
    <glyph glyph-name="lessequal" unicode="&#x2264;" horiz-adv-x="1309" 
d="M1176 1626v-234l-787 -331l787 -327v-232l-1096 465v193zM1176 319v-252h-1096v252h1096z" />
    <glyph glyph-name="plusminus" unicode="&#xb1;" horiz-adv-x="1280" 
d="M514 994v348h253v-348h387v-251h-387v-349h-253v349h-387v251h387zM127 252h1027v-252h-1027v252z" />
    <glyph glyph-name="approxequal" unicode="&#x2248;" horiz-adv-x="1312" 
d="M126 1034q60 118 141 179t181 61q46 0 84 -12t71 -30t62.5 -39t59.5 -39t62.5 -30t69.5 -12q113 0 180 121l153 -101q-62 -122 -143.5 -181t-178.5 -59q-46 0 -84 12t-70.5 30t-62.5 39t-60 39t-62.5 30t-69.5 12q-60 0 -104 -32t-75 -89zM124 515q60 118 141 179t181 61
q46 0 84 -12t71 -30t62.5 -39t59.5 -39t62.5 -30t69.5 -12q113 0 180 121l153 -101q-62 -122 -143.5 -181t-178.5 -59q-46 0 -84 12t-70.5 30t-62.5 39t-60 39t-62 30t-70 12q-60 0 -104 -32t-75 -89z" />
    <glyph glyph-name="asciitilde" unicode="~" horiz-adv-x="1364" 
d="M150 780q60 118 141 179.5t182 61.5q46 0 84 -12t71 -30t63 -39t60 -39t62 -30t69 -12q114 0 181 121l152 -100q-61 -123 -143 -182t-179 -59q-46 0 -84 12t-71 30t-63 39t-60 39t-62.5 30t-69.5 12q-60 0 -104 -32t-75 -89z" />
    <glyph glyph-name="logicalnot" unicode="&#xac;" horiz-adv-x="1349" 
d="M936 316v387h-775v253h1027v-640h-252z" />
    <glyph glyph-name="asciicircum" unicode="^" horiz-adv-x="964" 
d="M406 1681h151l414 -471h-263l-227 264l-226 -264h-263z" />
    <glyph glyph-name="infinity" unicode="&#x221e;" horiz-adv-x="2057" 
d="M67 545q0 105 40.5 193t106.5 151.5t150.5 99t173.5 35.5q70 0 133.5 -22.5t123.5 -62.5t118 -95t115 -120q57 65 115 120t118 95t123.5 62.5t133.5 22.5q89 0 174 -35.5t151 -99t106.5 -151.5t40.5 -193t-40 -193t-106 -152t-151 -99.5t-175 -35.5q-70 0 -133.5 22.5
t-123.5 62.5t-118 95t-115 121q-57 -66 -115 -121t-118 -95t-123.5 -62.5t-133.5 -22.5q-89 0 -174 35.5t-151 99.5t-106 152t-40 193zM1177 545q40 -47 76.5 -88t73 -71.5t74 -48t80.5 -17.5q41 0 80.5 16.5t70.5 46t50 71t19 91.5t-19 91t-50 70.5t-70.5 46t-80.5 16.5
q-43 0 -81 -17.5t-74 -48t-72.5 -71t-76.5 -87.5zM355 545q0 -50 19 -91.5t50 -71t70.5 -46t80.5 -16.5q43 0 80.5 17.5t74 48t73 71.5t76.5 88q-40 47 -76.5 87.5t-72.5 71t-74 48t-81 17.5q-40 0 -79.5 -16.5t-71 -46t-50.5 -70.5t-19 -91z" />
    <glyph glyph-name="emptyset" unicode="&#x2205;" horiz-adv-x="1200" 
d="M237 343q-42 59 -64.5 129t-22.5 149q0 99 36 184.5t99 149t148.5 100t184.5 36.5q79 0 149.5 -23.5t128.5 -65.5l138 138l100 -102l-137 -138q42 -58 64.5 -128t22.5 -150q0 -100 -36.5 -186t-99.5 -149t-148 -99t-183 -36q-79 0 -149.5 23.5t-128.5 65.5l-138 -138
l-102 102zM475 378q63 -34 142 -34q61 0 112.5 20.5t89 57t59 88t21.5 112.5q0 81 -37 144zM759 865q-63 34 -142 34q-61 0 -112.5 -20.5t-89 -57t-58.5 -87.5t-21 -112q0 -41 9.5 -77t26.5 -67z" />
    <glyph glyph-name="integral" unicode="&#x222b;" horiz-adv-x="841" 
d="M-93 -264q20 -14 47.5 -21.5t57.5 -7.5q67 0 102 48t45 161l130 1373q10 108 43 193.5t86 145t124 91t157 31.5q73 0 140 -22t114 -61l-121 -204q-20 14 -47.5 21.5t-56.5 7.5q-67 0 -102 -48t-45 -161l-131 -1373q-10 -108 -43 -193.5t-85.5 -145t-124 -91t-157.5 -31.5
q-72 0 -139.5 22t-113.5 61z" />
    <glyph glyph-name="product" unicode="&#x220f;" horiz-adv-x="1624" 
d="M143 1512v208h1338v-208h-165v-1512h-225v1512h-558v-1512h-225v1512h-165z" />
    <glyph glyph-name="summation" unicode="&#x2211;" horiz-adv-x="1432" 
d="M1289 1720v-208h-766l447 -652l-447 -652h766v-208h-1146l592 860l-592 860h1146z" />
    <glyph glyph-name="radical" unicode="&#x221a;" horiz-adv-x="1615" 
d="M413 -32l-270 641h226l167 -397l356 1508h580v-208h-401l-388 -1544h-270z" />
    <glyph glyph-name="partialdiff" unicode="&#x2202;" horiz-adv-x="1360" 
d="M72 530q0 113 43.5 213t119 174.5t178.5 117.5t221 43q50 0 98.5 -10t90 -28.5t74 -44.5t51.5 -58q-24 106 -72 202.5t-116.5 181t-156 157t-190.5 131.5l129 216q170 -94 309 -217t237 -270t151.5 -317.5t53.5 -361.5q0 -168 -41.5 -298t-118.5 -218t-186 -133.5
t-244 -45.5q-133 0 -248.5 43t-200.5 119t-133.5 179.5t-48.5 224.5zM676 221q66 0 119.5 24.5t92 66t59 95.5t20.5 114q0 65 -24 118.5t-65 91.5t-95 59t-113 21q-66 0 -120 -25t-92.5 -66.5t-59 -96t-20.5 -113.5q0 -66 24.5 -119.5t65.5 -91t95 -58t113 -20.5z" />
    <glyph glyph-name="uni00B5" unicode="&#xb5;" horiz-adv-x="1563" 
d="M236 -320q0 63 4 120.5t10 113t12.5 112t12.5 118t10 130.5t4 150v600h292v-589q0 -112 56.5 -175t158.5 -63q48 0 90.5 17.5t74.5 48t50.5 70.5t18.5 85v606h292v-1024h-292v116q-25 -33 -59.5 -60.5t-74 -47t-83 -30t-87.5 -10.5q-97 0 -146 58v-346h-344z" />
    <glyph glyph-name="percent" unicode="%" horiz-adv-x="1973" 
d="M60 1286q0 87 33.5 159.5t92 124.5t138 81t171.5 29t171.5 -29t138 -81t92 -124.5t33.5 -159.5t-33.5 -159.5t-92 -124.5t-138 -81t-171.5 -29t-171.5 29t-138 81t-92 124.5t-33.5 159.5zM1043 362q0 87 33.5 159.5t92 124.5t138 81t171.5 29t171.5 -29t138 -81
t92 -124.5t33.5 -159.5t-33.5 -159.5t-92 -124.5t-138 -81t-171.5 -29t-171.5 29t-138 81t-92 124.5t-33.5 159.5zM1368 1650h199l-960 -1650h-199zM1478 146q45 0 85 16t69 44.5t46 68t17 87.5t-17 87.5t-46 68t-69 44.5t-85 16t-85 -16t-69 -44.5t-46 -68t-17 -87.5
t17 -87.5t46 -68t69 -44.5t85 -16zM495 1070q45 0 85 16t69 44.5t46 68t17 87.5t-17 87.5t-46 68t-69 44.5t-85 16t-85 -16t-69 -44.5t-46 -68t-17 -87.5t17 -87.5t46 -68t69 -44.5t85 -16z" />
    <glyph glyph-name="perthousand" unicode="&#x2030;" horiz-adv-x="2937" 
d="M60 1286q0 87 33.5 159.5t92 124.5t138 81t171.5 29t171.5 -29t138 -81t92 -124.5t33.5 -159.5t-33.5 -159.5t-92 -124.5t-138 -81t-171.5 -29t-171.5 29t-138 81t-92 124.5t-33.5 159.5zM1043 362q0 87 33.5 159.5t92 124.5t138 81t171.5 29t171.5 -29t138 -81
t92 -124.5t33.5 -159.5t-33.5 -159.5t-92 -124.5t-138 -81t-171.5 -29t-171.5 29t-138 81t-92 124.5t-33.5 159.5zM2442 756q92 0 171.5 -29t138 -81t92 -124.5t33.5 -159.5t-33.5 -159.5t-92 -124.5t-138 -81t-171.5 -29t-171.5 29t-138 81t-92 124.5t-33.5 159.5
t33.5 159.5t92 124.5t138 81t171.5 29zM1368 1650h199l-960 -1650h-199zM2225 362q0 -48 17 -87.5t46 -68t69 -44.5t85 -16t85 16t69 44.5t46 68t17 87.5t-17 87.5t-46 68t-69 44.5t-85 16t-85 -16t-69 -44.5t-46 -68t-17 -87.5zM1478 146q45 0 85 16t69 44.5t46 68t17 87.5
t-17 87.5t-46 68t-69 44.5t-85 16t-85 -16t-69 -44.5t-46 -68t-17 -87.5t17 -87.5t46 -68t69 -44.5t85 -16zM495 1070q45 0 85 16t69 44.5t46 68t17 87.5t-17 87.5t-46 68t-69 44.5t-85 16t-85 -16t-69 -44.5t-46 -68t-17 -87.5t17 -87.5t46 -68t69 -44.5t85 -16z" />
    <glyph glyph-name="lozenge" unicode="&#x25ca;" horiz-adv-x="1200" 
d="M506 -80l-420 875l420 875h188l420 -875l-420 -875h-188zM600 246l264 549l-264 549l-264 -549z" />
    <glyph glyph-name="at" unicode="@" horiz-adv-x="1866" 
d="M74 382q0 125 31.5 237t89.5 207t139 171.5t179.5 130t211.5 82t235 28.5q115 0 223 -25.5t202 -73.5t172 -118t133.5 -158t86.5 -194t31 -226q0 -111 -29.5 -191t-79 -132t-114 -77t-135.5 -25q-81 0 -144.5 27t-108.5 73q-22 -36 -52.5 -65.5t-68 -51.5t-82 -34
t-95.5 -12q-83 0 -154.5 31.5t-124 87t-82 131.5t-29.5 166q0 88 29 164t81.5 132t125 88t159.5 32q88 0 162 -36.5t119 -99.5v112h186v-438q0 -24 5 -47t17.5 -42t35 -30.5t57.5 -11.5q28 0 52 13t41.5 41t27.5 72t10 107q0 103 -27 187.5t-73.5 151t-109.5 115.5
t-135.5 81t-150.5 48t-155 16q-148 0 -268.5 -53t-205 -142t-130.5 -205t-46 -242q0 -87 22.5 -167t63.5 -149.5t99.5 -126t130 -96.5t155 -62t175.5 -22q74 0 137.5 14t116 37.5t93 53t68.5 61.5l193 -127q-38 -52 -95.5 -101.5t-134 -87.5t-172 -61.5t-208.5 -23.5
q-123 0 -236 29t-211.5 82.5t-179.5 130t-138.5 171.5t-89 207t-31.5 236zM952 135q51 0 94 17.5t74 49t48.5 75t17.5 95.5q0 54 -18 98t-49.5 76t-73.5 49.5t-91 17.5t-91 -17.5t-73.5 -49.5t-49.5 -76.5t-18 -98.5q0 -52 17 -95.5t48 -75t73 -48.5t92 -17z" />
    <glyph glyph-name="ampersand" unicode="&#x26;" horiz-adv-x="1626" 
d="M13 416q0 160 99.5 277.5t300.5 202.5q-51 60 -85.5 110t-56.5 95t-31.5 87.5t-9.5 87.5q0 96 37 171.5t101.5 127.5t151 79.5t185.5 27.5q118 0 206 -35.5t147 -93t88.5 -129.5t29.5 -146q0 -128 -84.5 -229.5t-247.5 -186.5l291 -308q26 20 57.5 50t63 62t59.5 62.5
t46 51.5l190 -181q-27 -33 -56.5 -66.5t-59 -65t-57 -60t-51.5 -50.5l338 -357h-387l-180 190q-118 -106 -255.5 -164t-295.5 -58q-118 0 -216.5 32t-169 90.5t-109.5 141t-39 184.5zM359 462q0 -49 18 -86.5t49 -63t73 -39t90 -13.5q80 0 158.5 36t150.5 103l-326 332
q-100 -39 -156.5 -110.5t-56.5 -158.5zM688 1031q54 29 94.5 57t68 58t41.5 62.5t14 71.5q0 40 -14 73.5t-39 57.5t-59 37.5t-74 13.5t-72.5 -13t-56 -36.5t-36.5 -56.5t-13 -72q0 -30 8 -59.5t26 -60t45.5 -63t66.5 -70.5z" />
    <glyph glyph-name="paragraph" unicode="&#xb6;" horiz-adv-x="1382" 
d="M32 1154q0 105 36 195.5t103 157.5t163 105t217 38h648v-1650h-174v1476h-107v-1476h-174v639h-193q-121 0 -217 41.5t-163 112.5t-103 164.5t-36 196.5z" />
    <glyph glyph-name="section" unicode="&#xa7;" horiz-adv-x="1280" 
d="M75 -174l264 60q14 -40 39.5 -74.5t60.5 -60.5t80 -41t99 -15q50 0 89 13.5t65.5 36.5t40 54t13.5 67q0 45 -26.5 79.5t-72 64.5t-107 58t-131.5 59q-70 33 -141.5 75t-128 96.5t-90.5 123.5t-30 156q5 110 73 197t193 138q-98 62 -148 145.5t-50 195.5q0 89 31.5 166.5
t93.5 135t153 91t209 33.5q114 0 196.5 -29.5t139 -77t90 -107.5t49.5 -121l-265 -58q-6 29 -22 55.5t-41 47t-59.5 33t-76.5 12.5q-40 0 -73 -12.5t-56 -34t-36 -50t-13 -61.5q0 -47 31.5 -85t78.5 -68.5t103 -55.5t105 -47q75 -34 149.5 -77t134 -98.5t95.5 -125
t33 -155.5q-4 -110 -71 -196.5t-190 -138.5q93 -64 143 -148.5t50 -199.5q0 -105 -41.5 -185.5t-113 -135.5t-167.5 -83t-206 -28q-128 0 -223.5 34.5t-162 89t-105.5 121t-55 131.5zM574 432q33 -17 59.5 -30t49 -23.5t42 -19t38.5 -17.5q29 9 58.5 25t53.5 38t39 50t15 61
q0 31 -14 59t-46.5 56t-84.5 57t-128 62q-23 9 -44.5 19t-54.5 26q-31 -8 -61.5 -23t-54.5 -36t-39 -49t-15 -63q0 -61 46 -104t141 -88z" />
    <glyph glyph-name="copyright" unicode="&#xa9;" horiz-adv-x="1835" 
d="M67 825q0 118 30.5 227t85.5 204t132.5 173t171.5 134t203 86.5t226 30.5q118 0 227 -30.5t203.5 -86.5t172 -134t133 -173t86 -205t30.5 -228t-30.5 -227.5t-85.5 -204.5t-132.5 -172.5t-172.5 -133t-203.5 -86t-226.5 -30.5q-117 0 -225.5 30.5t-203 86t-172 133
t-133 173t-86 205t-30.5 228.5zM917 161q91 0 175.5 23.5t157.5 66.5t133 103.5t103 134t66.5 158t23.5 176.5t-23.5 177t-66.5 159.5t-103.5 135t-133.5 104t-157.5 67.5t-175.5 24q-90 0 -174 -24t-157 -67.5t-133 -104t-102.5 -134.5t-66 -159t-23.5 -177t23.5 -177
t66 -159t102.5 -134t133 -103t157 -66.5t175 -23.5zM473 828q0 93 35.5 173.5t97.5 139.5t146.5 93t182.5 34q84 0 156 -23t120 -59l-89 -155q-30 21 -69 32.5t-82 11.5q-56 0 -102 -19.5t-78.5 -53t-50.5 -78.5t-18 -96q0 -52 18 -97t50.5 -78.5t78.5 -53t102 -19.5
q43 0 82 11.5t69 32.5l89 -155q-48 -36 -120 -59t-156 -23q-98 0 -182.5 34t-146.5 93.5t-97.5 140t-35.5 173.5z" />
    <glyph glyph-name="registered" unicode="&#xae;" horiz-adv-x="999" 
d="M47 1231q0 93 35.5 175.5t96.5 144.5t143.5 98t176.5 36t176.5 -36t143.5 -98t96.5 -144.5t35.5 -175.5t-35.5 -175.5t-96.5 -145t-143.5 -98.5t-176.5 -36t-176.5 36t-143.5 98.5t-96.5 145t-35.5 175.5zM146 1231q0 -72 27.5 -137t75 -113.5t112 -77t138.5 -28.5
t138.5 28.5t112 77t75 113.5t27.5 137t-27.5 136.5t-75 113t-112 77t-138.5 28.5t-138.5 -28.5t-112 -77t-75 -113t-27.5 -136.5zM511 1463q68 0 111 -36t43 -104q0 -54 -28.5 -88.5t-78.5 -45.5l153 -187h-109l-134 175h-25v-175h-86v461h154zM443 1394v-142h42
q38 0 64 16.5t26 54.5t-26 54.5t-64 16.5h-42z" />
    <glyph glyph-name="trademark" unicode="&#x2122;" horiz-adv-x="1204" 
d="M143 1650h360v-85h-132v-427h-96v427h-132v85zM556 1650h102l124 -327l125 327h102l52 -511h-96l-34 339l-119 -325h-59l-120 325l-34 -339h-95z" />
    <glyph glyph-name="degree" unicode="&#xb0;" horiz-adv-x="700" 
d="M124 1543q0 46 17.5 84t48 65.5t71.5 42.5t89 15t89 -15t71.5 -42t48 -65t17.5 -84q0 -45 -17 -83t-47.5 -65.5t-72 -42.5t-89.5 -15q-49 0 -90.5 15.5t-71.5 42.5t-47 64.5t-17 82.5zM249 1543q0 -45 28 -74t73 -29q44 0 72 29t28 74q0 48 -29 76.5t-71 28.5
q-43 0 -72 -29t-29 -76z" />
    <glyph glyph-name="bar" unicode="|" horiz-adv-x="539" 
d="M143 0v1720h253v-1720h-253z" />
    <glyph glyph-name="brokenbar" unicode="&#xa6;" horiz-adv-x="539" 
d="M143 1056v664h253v-664h-253zM396 664v-664h-253v664h253z" />
    <glyph glyph-name="dagger" unicode="&#x2020;" horiz-adv-x="1008" 
d="M378 1278v442h253v-442h275v-228h-275v-1050h-253v1050h-276v228h276z" />
    <glyph glyph-name="daggerdbl" unicode="&#x2021;" horiz-adv-x="1008" 
d="M102 1246h275v474h254v-474h275v-227h-275v-309h275v-228h-275v-482h-254v482h-275v228h275v309h-275v227z" />
    <glyph glyph-name="uni0308" unicode="&#x308;" horiz-adv-x="783" 
d="M628 1554q32 0 60.5 -12.5t49.5 -33.5t33 -49.5t12 -60.5t-12 -60.5t-33 -49.5t-49.5 -33.5t-60.5 -12.5q-33 0 -61.5 12.5t-49.5 33.5t-33 49.5t-12 60.5t12 60.5t33 49.5t49.5 33.5t61.5 12.5zM0 1398q0 32 12 60.5t33 49.5t49.5 33.5t61.5 12.5q32 0 60.5 -12.5
t49.5 -33.5t33 -49.5t12 -60.5t-12 -60.5t-33 -49.5t-49.5 -33.5t-60.5 -12.5q-33 0 -61.5 12.5t-49.5 33.5t-33 49.5t-12 60.5z" />
    <glyph glyph-name="uni0307" unicode="&#x307;" horiz-adv-x="348" 
d="M0 1480q0 36 13.5 67.5t37.5 55.5t55.5 37.5t67.5 13.5t67.5 -13.5t55.5 -37.5t37.5 -55.5t13.5 -67.5t-13.5 -67.5t-37.5 -55.5t-55.5 -37.5t-67.5 -13.5t-67.5 13.5t-55.5 37.5t-37.5 55.5t-13.5 67.5z" />
    <glyph glyph-name="gravecomb" unicode="&#x300;" horiz-adv-x="498" 
d="M427 1170l-447 235l130 207l408 -309z" />
    <glyph glyph-name="acutecomb" unicode="&#x301;" horiz-adv-x="466" 
d="M355 1612l123 -212l-440 -230l-91 133z" />
    <glyph glyph-name="uni030B" unicode="&#x30b;" horiz-adv-x="989" 
d="M601 1237l-111 130l320 313l179 -195zM112 1237l-112 130l320 313l179 -195z" />
    <glyph glyph-name="uni0302" unicode="&#x302;" horiz-adv-x="838" 
d="M113 1220l-113 153l419 307l419 -307l-113 -153l-306 224z" />
    <glyph glyph-name="uni030C" unicode="&#x30c;" horiz-adv-x="838" 
d="M419 1172l-419 308l113 152l306 -224l306 224l113 -152z" />
    <glyph glyph-name="uni0306" unicode="&#x306;" horiz-adv-x="892" 
d="M0 1629l209 51q6 -42 23 -81.5t46 -70t71 -48.5t97 -18t97 18t71 48.5t46 70t23 81.5l209 -51q-10 -78 -47 -142.5t-95 -111t-135 -72t-169 -25.5q-91 0 -168.5 25.5t-135.5 72t-94.5 111t-47.5 142.5z" />
    <glyph glyph-name="uni030A" unicode="&#x30a;" horiz-adv-x="590" 
d="M0 1465q0 57 23 105t62.5 82.5t93.5 53.5t116 19t116 -19t93.5 -53.5t62.5 -82.5t23 -105t-23 -105t-62.5 -82.5t-93.5 -53.5t-116 -19t-116 19t-93.5 53.5t-62.5 82.5t-23 105zM168 1465q0 -26 10 -48.5t27.5 -39t40.5 -26t49 -9.5t49 9.5t40.5 26t27.5 39t10 48.5
t-10 48.5t-27.5 39t-40.5 26t-49 9.5t-49 -9.5t-40.5 -26t-27.5 -39t-10 -48.5z" />
    <glyph glyph-name="tildecomb" unicode="&#x303;" horiz-adv-x="1064" 
d="M0 1324q60 118 141 179t181 61q46 0 84 -12t71 -30t62.5 -39t59.5 -39t62.5 -30t69.5 -12q113 0 180 121l153 -101q-62 -122 -143.5 -181t-178.5 -59q-46 0 -84 12t-70.5 30t-62.5 39t-60 39t-62.5 30t-69.5 12q-60 0 -104 -32t-75 -89z" />
    <glyph glyph-name="uni0304" unicode="&#x304;" horiz-adv-x="816" 
d="M0 1289v199h816v-199h-816z" />
    <glyph glyph-name="uni0312" unicode="&#x312;" horiz-adv-x="753" 
d="M373 1287q-47 0 -76 30t-29 89q0 35 11 72t31.5 73.5t49.5 71t65 63.5l42 -36q-12 -12 -23.5 -31t-21.5 -40.5t-17 -45t-9 -44.5q38 -8 60.5 -34.5t22.5 -65.5q0 -45 -29 -73.5t-77 -28.5z" />
    <glyph glyph-name="uni0326" unicode="&#x326;" horiz-adv-x="753" 
d="M382 -113q47 0 76 -30t29 -89q0 -35 -11 -72t-31.5 -73.5t-49.5 -71t-65 -63.5l-42 36q12 12 23.5 31t21.5 40.5t17 45t9 44.5q-38 8 -60.5 34.5t-22.5 65.5q0 45 29 73.5t77 28.5z" />
    <glyph glyph-name="uni0327" unicode="&#x327;" horiz-adv-x="554" 
d="M0 -392l115 85q32 -45 75.5 -69t91.5 -24q51 0 81 24.5t30 64.5q0 42 -35.5 67t-92.5 25q-29 0 -59 -6t-45 -16l-16 13l78 243h127l-46 -139h16q43 0 85 -11.5t75 -35.5t53.5 -60t20.5 -85q0 -50 -20 -92t-55 -72t-84 -47t-107 -17q-169 0 -288 152z" />
    <glyph glyph-name="uni0328" unicode="&#x328;" horiz-adv-x="526" 
d="M0 -318q0 69 44.5 154t129.5 179h138q-32 -38 -57.5 -77t-43.5 -77t-28 -73t-10 -64q0 -45 26 -75t78 -30q73 0 128 72l121 -90q-23 -33 -53.5 -60t-66.5 -45.5t-75 -28.5t-80 -10q-54 0 -100 17.5t-79.5 48.5t-52.5 71.5t-19 87.5z" />
    <glyph glyph-name="dieresis" unicode="&#xa8;" horiz-adv-x="783" 
d="M628 1554q32 0 60.5 -12.5t49.5 -33.5t33 -49.5t12 -60.5t-12 -60.5t-33 -49.5t-49.5 -33.5t-60.5 -12.5q-33 0 -61.5 12.5t-49.5 33.5t-33 49.5t-12 60.5t12 60.5t33 49.5t49.5 33.5t61.5 12.5zM0 1398q0 32 12 60.5t33 49.5t49.5 33.5t61.5 12.5q32 0 60.5 -12.5
t49.5 -33.5t33 -49.5t12 -60.5t-12 -60.5t-33 -49.5t-49.5 -33.5t-60.5 -12.5q-33 0 -61.5 12.5t-49.5 33.5t-33 49.5t-12 60.5z" />
    <glyph glyph-name="dotaccent" unicode="&#x2d9;" horiz-adv-x="348" 
d="M0 1480q0 36 13.5 67.5t37.5 55.5t55.5 37.5t67.5 13.5t67.5 -13.5t55.5 -37.5t37.5 -55.5t13.5 -67.5t-13.5 -67.5t-37.5 -55.5t-55.5 -37.5t-67.5 -13.5t-67.5 13.5t-55.5 37.5t-37.5 55.5t-13.5 67.5z" />
    <glyph glyph-name="grave" unicode="`" horiz-adv-x="498" 
d="M427 1170l-447 235l130 207l408 -309z" />
    <glyph glyph-name="acute" unicode="&#xb4;" horiz-adv-x="466" 
d="M355 1612l123 -212l-440 -230l-91 133z" />
    <glyph glyph-name="hungarumlaut" unicode="&#x2dd;" horiz-adv-x="989" 
d="M601 1237l-111 130l320 313l179 -195zM112 1237l-112 130l320 313l179 -195z" />
    <glyph glyph-name="circumflex" unicode="&#x2c6;" horiz-adv-x="838" 
d="M113 1220l-113 153l419 307l419 -307l-113 -153l-306 224z" />
    <glyph glyph-name="caron" unicode="&#x2c7;" horiz-adv-x="838" 
d="M419 1172l-419 308l113 152l306 -224l306 224l113 -152z" />
    <glyph glyph-name="breve" unicode="&#x2d8;" horiz-adv-x="892" 
d="M0 1629l209 51q6 -42 23 -81.5t46 -70t71 -48.5t97 -18t97 18t71 48.5t46 70t23 81.5l209 -51q-10 -78 -47 -142.5t-95 -111t-135 -72t-169 -25.5q-91 0 -168.5 25.5t-135.5 72t-94.5 111t-47.5 142.5z" />
    <glyph glyph-name="ring" unicode="&#x2da;" horiz-adv-x="590" 
d="M0 1465q0 57 23 105t62.5 82.5t93.5 53.5t116 19t116 -19t93.5 -53.5t62.5 -82.5t23 -105t-23 -105t-62.5 -82.5t-93.5 -53.5t-116 -19t-116 19t-93.5 53.5t-62.5 82.5t-23 105zM168 1465q0 -26 10 -48.5t27.5 -39t40.5 -26t49 -9.5t49 9.5t40.5 26t27.5 39t10 48.5
t-10 48.5t-27.5 39t-40.5 26t-49 9.5t-49 -9.5t-40.5 -26t-27.5 -39t-10 -48.5z" />
    <glyph glyph-name="tilde" unicode="&#x2dc;" horiz-adv-x="1064" 
d="M0 1324q60 118 141 179t181 61q46 0 84 -12t71 -30t62.5 -39t59.5 -39t62.5 -30t69.5 -12q113 0 180 121l153 -101q-62 -122 -143.5 -181t-178.5 -59q-46 0 -84 12t-70.5 30t-62.5 39t-60 39t-62.5 30t-69.5 12q-60 0 -104 -32t-75 -89z" />
    <glyph glyph-name="macron" unicode="&#xaf;" horiz-adv-x="816" 
d="M0 1289v199h816v-199h-816z" />
    <glyph glyph-name="cedilla" unicode="&#xb8;" horiz-adv-x="554" 
d="M0 -392l115 85q32 -45 75.5 -69t91.5 -24q51 0 81 24.5t30 64.5q0 42 -35.5 67t-92.5 25q-29 0 -59 -6t-45 -16l-16 13l78 243h127l-46 -139h16q43 0 85 -11.5t75 -35.5t53.5 -60t20.5 -85q0 -50 -20 -92t-55 -72t-84 -47t-107 -17q-169 0 -288 152z" />
    <glyph glyph-name="ogonek" unicode="&#x2db;" horiz-adv-x="526" 
d="M0 -318q0 69 44.5 154t129.5 179h138q-32 -38 -57.5 -77t-43.5 -77t-28 -73t-10 -64q0 -45 26 -75t78 -30q73 0 128 72l121 -90q-23 -33 -53.5 -60t-66.5 -45.5t-75 -28.5t-80 -10q-54 0 -100 17.5t-79.5 48.5t-52.5 71.5t-19 87.5z" />
    <glyph glyph-name="uni2215" unicode="&#x2215;" horiz-adv-x="1017" 
d="M-28 -240l824 1960h249l-824 -1960h-249z" />
    </font>
</defs>
</svg>
