<?xml version="1.0" encoding="UTF-8" standalone="no"?><svg xmlns="http://www.w3.org/2000/svg" xmlns:xlink="http://www.w3.org/1999/xlink" style="isolation:isolate" viewBox="0 0 468.5 376.125" width="468.5pt" height="376.125pt"><g><circle vector-effect="non-scaling-stroke" cx="240.49410689739466" cy="221.37185657779258" r="79.63938860813772" fill="rgb(130,186,254)"/><path d=" M 240.5 141.738 C 284.489 141.738 320.133 177.393 320.133 221.372 C 320.133 265.361 284.489 301.017 240.5 301.017" fill="rgb(113,176,254)"/><path d=" M 240.5 314.67 C 189.056 314.67 147.202 272.816 147.202 221.373 C 147.202 169.934 189.056 128.085 240.5 128.085 C 291.943 128.085 333.787 169.934 333.787 221.373 C 333.787 272.816 291.944 314.67 240.5 314.67 Z  M 240.5 155.391 C 204.118 155.391 174.507 184.99 174.507 221.372 C 174.507 257.759 204.118 287.364 240.5 287.364 C 276.882 287.364 306.481 257.759 306.481 221.372 C 306.481 184.99 276.882 155.391 240.5 155.391 Z " fill="rgb(32,131,254)"/><path d=" M 198.455 82.693 C 198.455 59.477 217.291 40.653 240.5 40.653 C 263.721 40.653 282.534 59.477 282.534 82.693" fill="rgb(254,203,161)"/><path d=" M 282.534 96.345 C 274.992 96.345 268.882 90.234 268.882 82.693 C 268.882 67.041 256.157 54.306 240.5 54.306 C 224.843 54.306 212.108 67.041 212.108 82.693 C 212.108 90.234 206.008 96.345 198.455 96.345 C 190.914 96.345 184.803 90.234 184.803 82.693 C 184.802 51.985 209.792 27 240.5 27 C 271.208 27 296.187 51.979 296.187 82.693 C 296.187 90.229 290.076 96.345 282.534 96.345 Z " fill="rgb(253,126,20)"/><path d=" M 381.047 287.588 C 397.463 304.004 397.463 330.622 381.047 347.032 C 364.631 363.459 338.008 363.448 321.603 347.032" fill="rgb(166,233,213)"/><path d=" M 351.323 373 L 351.323 373 C 336.441 373 322.46 367.2 311.953 356.682 C 306.617 351.347 306.617 342.702 311.964 337.377 C 317.289 332.047 325.939 332.042 331.269 337.388 C 336.621 342.746 343.748 345.695 351.323 345.695 L 351.323 345.695 C 358.919 345.695 366.03 342.746 371.387 337.383 C 376.75 332.026 379.704 324.898 379.704 317.313 C 379.704 309.733 376.75 302.606 371.398 297.243 C 366.062 291.907 366.062 283.268 371.398 277.938 C 376.734 272.608 385.373 272.602 390.703 277.938 C 401.221 288.456 407.01 302.437 407.01 317.313 C 407.01 332.195 401.216 346.175 390.703 356.688 C 380.184 367.206 366.204 373 351.323 373 Z " fill="rgb(32,201,151)"/><path d=" M 99.963 287.588 C 83.547 304.004 83.547 330.622 99.963 347.032 C 116.379 363.459 142.991 363.448 159.397 347.032" fill="rgb(194,199,246)"/><path d=" M 129.666 373 C 114.796 373 100.815 367.206 90.297 356.688 C 79.79 346.175 73.99 332.195 73.99 317.313 C 73.99 302.437 79.79 288.456 90.308 277.938 C 95.644 272.602 104.283 272.602 109.613 277.938 C 114.943 283.274 114.949 291.913 109.613 297.243 C 104.25 302.6 101.296 309.733 101.296 317.313 C 101.296 324.898 104.25 332.02 109.613 337.383 C 114.965 342.746 122.092 345.695 129.666 345.695 L 129.677 345.695 C 137.252 345.695 144.373 342.741 149.742 337.383 C 155.077 332.047 163.717 332.047 169.047 337.383 C 174.394 342.718 174.394 351.358 169.047 356.688 C 158.529 367.212 144.548 373 129.677 373 L 129.666 373 Z " fill="rgb(102,114,232)"/><g><circle vector-effect="non-scaling-stroke" cx="218.3110820786361" cy="240.4779965454917" r="5.799506269812326" fill="rgb(16,66,127)"/><circle vector-effect="non-scaling-stroke" cx="240.49410689739454" cy="240.4779965454917" r="5.799506269812326" fill="rgb(16,66,127)"/><circle vector-effect="non-scaling-stroke" cx="262.6771317161532" cy="240.4779965454917" r="5.799506269812355" fill="rgb(16,66,127)"/><path d=" M 199.924 224.518 L 199.924 224.518 Q 200.044 224.778 200.044 225.038 L 200.044 225.038 L 200.044 225.038 Q 200.044 225.498 199.674 225.818 L 199.674 225.818 L 199.674 225.818 Q 199.304 226.138 198.824 226.138 L 198.824 226.138 L 198.824 226.138 Q 198.504 226.138 198.224 225.968 L 198.224 225.968 L 198.224 225.968 Q 197.944 225.798 197.784 225.438 L 197.784 225.438 L 196.584 222.758 L 189.544 222.758 L 188.344 225.438 L 188.344 225.438 Q 188.184 225.798 187.904 225.968 L 187.904 225.968 L 187.904 225.968 Q 187.624 226.138 187.284 226.138 L 187.284 226.138 L 187.284 226.138 Q 186.824 226.138 186.444 225.818 L 186.444 225.818 L 186.444 225.818 Q 186.064 225.498 186.064 225.038 L 186.064 225.038 L 186.064 225.038 Q 186.064 224.778 186.184 224.518 L 186.184 224.518 L 191.704 212.658 L 191.704 212.658 Q 191.884 212.258 192.254 212.048 L 192.254 212.048 L 192.254 212.048 Q 192.624 211.838 193.044 211.838 L 193.044 211.838 L 193.044 211.838 Q 193.464 211.838 193.834 212.048 L 193.834 212.048 L 193.834 212.048 Q 194.204 212.258 194.384 212.658 L 194.384 212.658 L 199.924 224.518 L 199.924 224.518 Z  M 193.064 214.818 L 190.424 220.758 L 195.704 220.758 L 193.064 214.818 L 193.064 214.818 Z  M 207.384 216.038 L 207.384 216.038 Q 208.664 216.038 209.644 216.658 L 209.644 216.658 L 209.644 216.658 Q 210.624 217.278 211.174 218.418 L 211.174 218.418 L 211.174 218.418 Q 211.724 219.558 211.724 221.078 L 211.724 221.078 L 211.724 221.078 Q 211.724 222.598 211.174 223.768 L 211.174 223.768 L 211.174 223.768 Q 210.624 224.938 209.634 225.578 L 209.634 225.578 L 209.634 225.578 Q 208.644 226.218 207.384 226.218 L 207.384 226.218 L 207.384 226.218 Q 206.324 226.218 205.494 225.758 L 205.494 225.758 L 205.494 225.758 Q 204.664 225.298 204.224 224.478 L 204.224 224.478 L 204.224 224.978 L 204.224 224.978 Q 204.224 225.518 203.884 225.838 L 203.884 225.838 L 203.884 225.838 Q 203.544 226.158 202.984 226.158 L 202.984 226.158 L 202.984 226.158 Q 202.424 226.158 202.094 225.838 L 202.094 225.838 L 202.094 225.838 Q 201.764 225.518 201.764 224.978 L 201.764 224.978 L 201.764 213.018 L 201.764 213.018 Q 201.764 212.498 202.114 212.178 L 202.114 212.178 L 202.114 212.178 Q 202.464 211.858 203.024 211.858 L 203.024 211.858 L 203.024 211.858 Q 203.584 211.858 203.924 212.158 L 203.924 212.158 L 203.924 212.158 Q 204.264 212.458 204.264 212.978 L 204.264 212.978 L 204.264 217.698 L 204.264 217.698 Q 204.704 216.898 205.524 216.468 L 205.524 216.468 L 205.524 216.468 Q 206.344 216.038 207.384 216.038 L 207.384 216.038 L 207.384 216.038 Z  M 206.724 224.278 L 206.724 224.278 Q 207.904 224.278 208.564 223.438 L 208.564 223.438 L 208.564 223.438 Q 209.224 222.598 209.224 221.078 L 209.224 221.078 L 209.224 221.078 Q 209.224 219.578 208.574 218.778 L 208.574 218.778 L 208.574 218.778 Q 207.924 217.978 206.724 217.978 L 206.724 217.978 L 206.724 217.978 Q 205.524 217.978 204.874 218.788 L 204.874 218.788 L 204.874 218.788 Q 204.224 219.598 204.224 221.118 L 204.224 221.118 L 204.224 221.118 Q 204.224 222.638 204.874 223.458 L 204.874 223.458 L 204.874 223.458 Q 205.524 224.278 206.724 224.278 L 206.724 224.278 L 206.724 224.278 Z  M 217.324 226.218 L 217.324 226.218 Q 215.144 226.218 213.804 225.358 L 213.804 225.358 L 213.804 225.358 Q 213.164 224.978 213.164 224.278 L 213.164 224.278 L 213.164 224.278 Q 213.164 223.878 213.384 223.628 L 213.384 223.628 L 213.384 223.628 Q 213.604 223.378 213.924 223.378 L 213.924 223.378 L 213.924 223.378 Q 214.264 223.378 214.864 223.698 L 214.864 223.698 L 214.864 223.698 Q 215.504 223.998 216.034 224.158 L 216.034 224.158 L 216.034 224.158 Q 216.564 224.318 217.384 224.318 L 217.384 224.318 L 217.384 224.318 Q 218.224 224.318 218.694 224.038 L 218.694 224.038 L 218.694 224.038 Q 219.164 223.758 219.164 223.258 L 219.164 223.258 L 219.164 223.258 Q 219.164 222.918 218.974 222.718 L 218.974 222.718 L 218.974 222.718 Q 218.784 222.518 218.294 222.348 L 218.294 222.348 L 218.294 222.348 Q 217.804 222.178 216.804 221.958 L 216.804 221.958 L 216.804 221.958 Q 215.024 221.598 214.254 220.938 L 214.254 220.938 L 214.254 220.938 Q 213.484 220.278 213.484 219.118 L 213.484 219.118 L 213.484 219.118 Q 213.484 218.238 214.004 217.528 L 214.004 217.528 L 214.004 217.528 Q 214.524 216.818 215.434 216.428 L 215.434 216.428 L 215.434 216.428 Q 216.344 216.038 217.504 216.038 L 217.504 216.038 L 217.504 216.038 Q 218.344 216.038 219.124 216.248 L 219.124 216.248 L 219.124 216.248 Q 219.904 216.458 220.524 216.858 L 220.524 216.858 L 220.524 216.858 Q 221.164 217.258 221.164 217.918 L 221.164 217.918 L 221.164 217.918 Q 221.164 218.318 220.944 218.588 L 220.944 218.588 L 220.944 218.588 Q 220.724 218.858 220.404 218.858 L 220.404 218.858 L 220.404 218.858 Q 220.184 218.858 219.974 218.768 L 219.974 218.768 L 219.974 218.768 Q 219.764 218.678 219.444 218.498 L 219.444 218.498 L 219.444 218.498 Q 218.864 218.198 218.444 218.048 L 218.444 218.048 L 218.444 218.048 Q 218.024 217.898 217.404 217.898 L 217.404 217.898 L 217.404 217.898 Q 216.664 217.898 216.234 218.198 L 216.234 218.198 L 216.234 218.198 Q 215.804 218.498 215.804 219.018 L 215.804 219.018 L 215.804 219.018 Q 215.804 219.518 216.244 219.778 L 216.244 219.778 L 216.244 219.778 Q 216.684 220.038 217.944 220.298 L 217.944 220.298 L 217.944 220.298 Q 219.284 220.578 220.044 220.938 L 220.044 220.938 L 220.044 220.938 Q 220.804 221.298 221.134 221.838 L 221.134 221.838 L 221.134 221.838 Q 221.464 222.378 221.464 223.218 L 221.464 223.218 L 221.464 223.218 Q 221.464 224.578 220.334 225.398 L 220.334 225.398 L 220.334 225.398 Q 219.204 226.218 217.324 226.218 L 217.324 226.218 L 217.324 226.218 Z  M 228.464 224.318 L 228.464 224.318 Q 229.464 224.378 229.464 225.218 L 229.464 225.218 L 229.464 225.218 Q 229.464 225.698 229.074 225.948 L 229.074 225.948 L 229.074 225.948 Q 228.684 226.198 227.964 226.158 L 227.964 226.158 L 227.424 226.118 L 227.424 226.118 Q 224.064 225.878 224.064 222.518 L 224.064 222.518 L 224.064 218.158 L 223.064 218.158 L 223.064 218.158 Q 222.524 218.158 222.234 217.918 L 222.234 217.918 L 222.234 217.918 Q 221.944 217.678 221.944 217.218 L 221.944 217.218 L 221.944 217.218 Q 221.944 216.758 222.234 216.518 L 222.234 216.518 L 222.234 216.518 Q 222.524 216.278 223.064 216.278 L 223.064 216.278 L 224.064 216.278 L 224.064 214.438 L 224.064 214.438 Q 224.064 213.898 224.404 213.578 L 224.404 213.578 L 224.404 213.578 Q 224.744 213.258 225.324 213.258 L 225.324 213.258 L 225.324 213.258 Q 225.884 213.258 226.224 213.578 L 226.224 213.578 L 226.224 213.578 Q 226.564 213.898 226.564 214.438 L 226.564 214.438 L 226.564 216.278 L 228.264 216.278 L 228.264 216.278 Q 228.804 216.278 229.094 216.518 L 229.094 216.518 L 229.094 216.518 Q 229.384 216.758 229.384 217.218 L 229.384 217.218 L 229.384 217.218 Q 229.384 217.678 229.094 217.918 L 229.094 217.918 L 229.094 217.918 Q 228.804 218.158 228.264 218.158 L 228.264 218.158 L 226.564 218.158 L 226.564 222.698 L 226.564 222.698 Q 226.564 224.178 227.924 224.278 L 227.924 224.278 L 228.464 224.318 L 228.464 224.318 Z  M 236.224 216.078 L 236.224 216.078 Q 236.744 216.038 237.044 216.298 L 237.044 216.298 L 237.044 216.298 Q 237.344 216.558 237.344 217.078 L 237.344 217.078 L 237.344 217.078 Q 237.344 217.618 237.084 217.878 L 237.084 217.878 L 237.084 217.878 Q 236.824 218.138 236.144 218.218 L 236.144 218.218 L 235.544 218.278 L 235.544 218.278 Q 234.364 218.398 233.814 219.078 L 233.814 219.078 L 233.814 219.078 Q 233.264 219.758 233.264 220.778 L 233.264 220.778 L 233.264 224.978 L 233.264 224.978 Q 233.264 225.558 232.904 225.868 L 232.904 225.868 L 232.904 225.868 Q 232.544 226.178 232.004 226.178 L 232.004 226.178 L 232.004 226.178 Q 231.464 226.178 231.114 225.868 L 231.114 225.868 L 231.114 225.868 Q 230.764 225.558 230.764 224.978 L 230.764 224.978 L 230.764 217.238 L 230.764 217.238 Q 230.764 216.678 231.114 216.378 L 231.114 216.378 L 231.114 216.378 Q 231.464 216.078 231.984 216.078 L 231.984 216.078 L 231.984 216.078 Q 232.504 216.078 232.824 216.368 L 232.824 216.368 L 232.824 216.368 Q 233.144 216.658 233.144 217.198 L 233.144 217.198 L 233.144 217.998 L 233.144 217.998 Q 233.524 217.118 234.274 216.638 L 234.274 216.638 L 234.274 216.638 Q 235.024 216.158 235.944 216.098 L 235.944 216.098 L 236.224 216.078 L 236.224 216.078 Z  M 242.624 216.038 L 242.624 216.038 Q 244.664 216.038 245.654 217.048 L 245.654 217.048 L 245.654 217.048 Q 246.644 218.058 246.644 220.118 L 246.644 220.118 L 246.644 224.998 L 246.644 224.998 Q 246.644 225.538 246.324 225.848 L 246.324 225.848 L 246.324 225.848 Q 246.004 226.158 245.444 226.158 L 245.444 226.158 L 245.444 226.158 Q 244.924 226.158 244.594 225.838 L 244.594 225.838 L 244.594 225.838 Q 244.264 225.518 244.264 224.998 L 244.264 224.998 L 244.264 224.558 L 244.264 224.558 Q 243.924 225.338 243.194 225.778 L 243.194 225.778 L 243.194 225.778 Q 242.464 226.218 241.504 226.218 L 241.504 226.218 L 241.504 226.218 Q 240.524 226.218 239.724 225.818 L 239.724 225.818 L 239.724 225.818 Q 238.924 225.418 238.464 224.718 L 238.464 224.718 L 238.464 224.718 Q 238.004 224.018 238.004 223.158 L 238.004 223.158 L 238.004 223.158 Q 238.004 222.078 238.554 221.458 L 238.554 221.458 L 238.554 221.458 Q 239.104 220.838 240.344 220.558 L 240.344 220.558 L 240.344 220.558 Q 241.584 220.278 243.764 220.278 L 243.764 220.278 L 244.264 220.278 L 244.264 219.818 L 244.264 219.818 Q 244.264 218.838 243.844 218.388 L 243.844 218.388 L 243.844 218.388 Q 243.424 217.938 242.484 217.938 L 242.484 217.938 L 242.484 217.938 Q 241.904 217.938 241.304 218.108 L 241.304 218.108 L 241.304 218.108 Q 240.704 218.278 239.884 218.598 L 239.884 218.598 L 239.884 218.598 Q 239.364 218.858 239.124 218.858 L 239.124 218.858 L 239.124 218.858 Q 238.764 218.858 238.534 218.598 L 238.534 218.598 L 238.534 218.598 Q 238.304 218.338 238.304 217.918 L 238.304 217.918 L 238.304 217.918 Q 238.304 217.578 238.474 217.328 L 238.474 217.328 L 238.474 217.328 Q 238.644 217.078 239.044 216.858 L 239.044 216.858 L 239.044 216.858 Q 239.744 216.478 240.714 216.258 L 240.714 216.258 L 240.714 216.258 Q 241.684 216.038 242.624 216.038 L 242.624 216.038 L 242.624 216.038 Z  M 242.004 224.418 L 242.004 224.418 Q 243.004 224.418 243.634 223.748 L 243.634 223.748 L 243.634 223.748 Q 244.264 223.078 244.264 222.018 L 244.264 222.018 L 244.264 221.598 L 243.904 221.598 L 243.904 221.598 Q 242.564 221.598 241.824 221.718 L 241.824 221.718 L 241.824 221.718 Q 241.084 221.838 240.764 222.138 L 240.764 222.138 L 240.764 222.138 Q 240.444 222.438 240.444 222.958 L 240.444 222.958 L 240.444 222.958 Q 240.444 223.598 240.894 224.008 L 240.894 224.008 L 240.894 224.008 Q 241.344 224.418 242.004 224.418 L 242.004 224.418 L 242.004 224.418 Z  M 253.524 226.218 L 253.524 226.218 Q 252.064 226.218 250.954 225.598 L 250.954 225.598 L 250.954 225.598 Q 249.844 224.978 249.244 223.838 L 249.244 223.838 L 249.244 223.838 Q 248.644 222.698 248.644 221.178 L 248.644 221.178 L 248.644 221.178 Q 248.644 219.658 249.274 218.488 L 249.274 218.488 L 249.274 218.488 Q 249.904 217.318 251.044 216.678 L 251.044 216.678 L 251.044 216.678 Q 252.184 216.038 253.664 216.038 L 253.664 216.038 L 253.664 216.038 Q 254.444 216.038 255.234 216.258 L 255.234 216.258 L 255.234 216.258 Q 256.024 216.478 256.624 216.858 L 256.624 216.858 L 256.624 216.858 Q 257.264 217.278 257.264 217.918 L 257.264 217.918 L 257.264 217.918 Q 257.264 218.358 257.054 218.628 L 257.054 218.628 L 257.054 218.628 Q 256.844 218.898 256.504 218.898 L 256.504 218.898 L 256.504 218.898 Q 256.284 218.898 256.044 218.798 L 256.044 218.798 L 256.044 218.798 Q 255.804 218.698 255.564 218.558 L 255.564 218.558 L 255.564 218.558 Q 255.124 218.298 254.724 218.148 L 254.724 218.148 L 254.724 218.148 Q 254.324 217.998 253.804 217.998 L 253.804 217.998 L 253.804 217.998 Q 252.564 217.998 251.894 218.808 L 251.894 218.808 L 251.894 218.808 Q 251.224 219.618 251.224 221.138 L 251.224 221.138 L 251.224 221.138 Q 251.224 222.638 251.894 223.448 L 251.894 223.448 L 251.894 223.448 Q 252.564 224.258 253.804 224.258 L 253.804 224.258 L 253.804 224.258 Q 254.304 224.258 254.694 224.108 L 254.694 224.108 L 254.694 224.108 Q 255.084 223.958 255.564 223.698 L 255.564 223.698 L 255.564 223.698 Q 255.864 223.518 256.084 223.428 L 256.084 223.428 L 256.084 223.428 Q 256.304 223.338 256.524 223.338 L 256.524 223.338 L 256.524 223.338 Q 256.844 223.338 257.064 223.618 L 257.064 223.618 L 257.064 223.618 Q 257.284 223.898 257.284 224.318 L 257.284 224.318 L 257.284 224.318 Q 257.284 224.658 257.134 224.908 L 257.134 224.908 L 257.134 224.908 Q 256.984 225.158 256.644 225.358 L 256.644 225.358 L 256.644 225.358 Q 256.024 225.758 255.204 225.988 L 255.204 225.988 L 255.204 225.988 Q 254.384 226.218 253.524 226.218 L 253.524 226.218 L 253.524 226.218 Z  M 264.084 224.318 L 264.084 224.318 Q 265.084 224.378 265.084 225.218 L 265.084 225.218 L 265.084 225.218 Q 265.084 225.698 264.694 225.948 L 264.694 225.948 L 264.694 225.948 Q 264.304 226.198 263.584 226.158 L 263.584 226.158 L 263.044 226.118 L 263.044 226.118 Q 259.684 225.878 259.684 222.518 L 259.684 222.518 L 259.684 218.158 L 258.684 218.158 L 258.684 218.158 Q 258.144 218.158 257.854 217.918 L 257.854 217.918 L 257.854 217.918 Q 257.564 217.678 257.564 217.218 L 257.564 217.218 L 257.564 217.218 Q 257.564 216.758 257.854 216.518 L 257.854 216.518 L 257.854 216.518 Q 258.144 216.278 258.684 216.278 L 258.684 216.278 L 259.684 216.278 L 259.684 214.438 L 259.684 214.438 Q 259.684 213.898 260.024 213.578 L 260.024 213.578 L 260.024 213.578 Q 260.364 213.258 260.944 213.258 L 260.944 213.258 L 260.944 213.258 Q 261.504 213.258 261.844 213.578 L 261.844 213.578 L 261.844 213.578 Q 262.184 213.898 262.184 214.438 L 262.184 214.438 L 262.184 216.278 L 263.884 216.278 L 263.884 216.278 Q 264.424 216.278 264.714 216.518 L 264.714 216.518 L 264.714 216.518 Q 265.004 216.758 265.004 217.218 L 265.004 217.218 L 265.004 217.218 Q 265.004 217.678 264.714 217.918 L 264.714 217.918 L 264.714 217.918 Q 264.424 218.158 263.884 218.158 L 263.884 218.158 L 262.184 218.158 L 262.184 222.698 L 262.184 222.698 Q 262.184 224.178 263.544 224.278 L 263.544 224.278 L 264.084 224.318 L 264.084 224.318 Z  M 267.624 226.178 L 267.624 226.178 Q 267.084 226.178 266.734 225.868 L 266.734 225.868 L 266.734 225.868 Q 266.384 225.558 266.384 224.978 L 266.384 224.978 L 266.384 217.258 L 266.384 217.258 Q 266.384 216.678 266.734 216.378 L 266.734 216.378 L 266.734 216.378 Q 267.084 216.078 267.624 216.078 L 267.624 216.078 L 267.624 216.078 Q 268.164 216.078 268.524 216.378 L 268.524 216.378 L 268.524 216.378 Q 268.884 216.678 268.884 217.258 L 268.884 217.258 L 268.884 224.978 L 268.884 224.978 Q 268.884 225.558 268.524 225.868 L 268.524 225.868 L 268.524 225.868 Q 268.164 226.178 267.624 226.178 L 267.624 226.178 L 267.624 226.178 Z  M 267.624 214.298 L 267.624 214.298 Q 266.944 214.298 266.544 213.928 L 266.544 213.928 L 266.544 213.928 Q 266.144 213.558 266.144 212.958 L 266.144 212.958 L 266.144 212.958 Q 266.144 212.358 266.544 211.998 L 266.544 211.998 L 266.544 211.998 Q 266.944 211.638 267.624 211.638 L 267.624 211.638 L 267.624 211.638 Q 268.284 211.638 268.694 211.998 L 268.694 211.998 L 268.694 211.998 Q 269.104 212.358 269.104 212.958 L 269.104 212.958 L 269.104 212.958 Q 269.104 213.558 268.704 213.928 L 268.704 213.928 L 268.704 213.928 Q 268.304 214.298 267.624 214.298 L 267.624 214.298 L 267.624 214.298 Z  M 275.924 226.218 L 275.924 226.218 Q 274.424 226.218 273.294 225.598 L 273.294 225.598 L 273.294 225.598 Q 272.164 224.978 271.544 223.818 L 271.544 223.818 L 271.544 223.818 Q 270.924 222.658 270.924 221.118 L 270.924 221.118 L 270.924 221.118 Q 270.924 219.578 271.544 218.428 L 271.544 218.428 L 271.544 218.428 Q 272.164 217.278 273.294 216.658 L 273.294 216.658 L 273.294 216.658 Q 274.424 216.038 275.924 216.038 L 275.924 216.038 L 275.924 216.038 Q 277.424 216.038 278.554 216.658 L 278.554 216.658 L 278.554 216.658 Q 279.684 217.278 280.294 218.428 L 280.294 218.428 L 280.294 218.428 Q 280.904 219.578 280.904 221.118 L 280.904 221.118 L 280.904 221.118 Q 280.904 222.658 280.294 223.818 L 280.294 223.818 L 280.294 223.818 Q 279.684 224.978 278.554 225.598 L 278.554 225.598 L 278.554 225.598 Q 277.424 226.218 275.924 226.218 L 275.924 226.218 L 275.924 226.218 Z  M 275.904 224.278 L 275.904 224.278 Q 277.124 224.278 277.764 223.478 L 277.764 223.478 L 277.764 223.478 Q 278.404 222.678 278.404 221.118 L 278.404 221.118 L 278.404 221.118 Q 278.404 219.578 277.764 218.768 L 277.764 218.768 L 277.764 218.768 Q 277.124 217.958 275.924 217.958 L 275.924 217.958 L 275.924 217.958 Q 274.724 217.958 274.074 218.768 L 274.074 218.768 L 274.074 218.768 Q 273.424 219.578 273.424 221.118 L 273.424 221.118 L 273.424 221.118 Q 273.424 222.678 274.064 223.478 L 274.064 223.478 L 274.064 223.478 Q 274.704 224.278 275.904 224.278 L 275.904 224.278 L 275.904 224.278 Z  M 288.644 216.038 L 288.644 216.038 Q 290.404 216.038 291.264 217.038 L 291.264 217.038 L 291.264 217.038 Q 292.124 218.038 292.124 220.058 L 292.124 220.058 L 292.124 224.978 L 292.124 224.978 Q 292.124 225.538 291.794 225.858 L 291.794 225.858 L 291.794 225.858 Q 291.464 226.178 290.884 226.178 L 290.884 226.178 L 290.884 226.178 Q 290.304 226.178 289.964 225.858 L 289.964 225.858 L 289.964 225.858 Q 289.624 225.538 289.624 224.978 L 289.624 224.978 L 289.624 220.198 L 289.624 220.198 Q 289.624 219.058 289.194 218.538 L 289.194 218.538 L 289.194 218.538 Q 288.764 218.018 287.844 218.018 L 287.844 218.018 L 287.844 218.018 Q 286.764 218.018 286.114 218.698 L 286.114 218.698 L 286.114 218.698 Q 285.464 219.378 285.464 220.518 L 285.464 220.518 L 285.464 224.978 L 285.464 224.978 Q 285.464 225.538 285.124 225.858 L 285.124 225.858 L 285.124 225.858 Q 284.784 226.178 284.204 226.178 L 284.204 226.178 L 284.204 226.178 Q 283.624 226.178 283.294 225.858 L 283.294 225.858 L 283.294 225.858 Q 282.964 225.538 282.964 224.978 L 282.964 224.978 L 282.964 217.238 L 282.964 217.238 Q 282.964 216.718 283.304 216.398 L 283.304 216.398 L 283.304 216.398 Q 283.644 216.078 284.224 216.078 L 284.224 216.078 L 284.224 216.078 Q 284.744 216.078 285.074 216.388 L 285.074 216.388 L 285.074 216.388 Q 285.404 216.698 285.404 217.198 L 285.404 217.198 L 285.404 217.738 L 285.404 217.738 Q 285.904 216.918 286.744 216.478 L 286.744 216.478 L 286.744 216.478 Q 287.584 216.038 288.644 216.038 L 288.644 216.038 L 288.644 216.038 Z " fill="rgb(16,66,127)"/></g></g><path d=" M 406.66 366.455 L 406.66 366.455 Q 406.08 366.455 405.75 366.135 L 405.75 366.135 L 405.75 366.135 Q 405.42 365.815 405.42 365.235 L 405.42 365.235 L 405.42 353.575 L 405.42 353.575 Q 405.42 352.995 405.75 352.675 L 405.75 352.675 L 405.75 352.675 Q 406.08 352.355 406.66 352.355 L 406.66 352.355 L 413.88 352.355 L 413.88 352.355 Q 414.46 352.355 414.78 352.615 L 414.78 352.615 L 414.78 352.615 Q 415.1 352.875 415.1 353.355 L 415.1 353.355 L 415.1 353.355 Q 415.1 353.855 414.78 354.125 L 414.78 354.125 L 414.78 354.125 Q 414.46 354.395 413.88 354.395 L 413.88 354.395 L 407.94 354.395 L 407.94 358.275 L 413.48 358.275 L 413.48 358.275 Q 414.06 358.275 414.38 358.535 L 414.38 358.535 L 414.38 358.535 Q 414.7 358.795 414.7 359.295 L 414.7 359.295 L 414.7 359.295 Q 414.7 359.775 414.38 360.035 L 414.38 360.035 L 414.38 360.035 Q 414.06 360.295 413.48 360.295 L 413.48 360.295 L 407.94 360.295 L 407.94 364.415 L 413.88 364.415 L 413.88 364.415 Q 414.46 364.415 414.78 364.685 L 414.78 364.685 L 414.78 364.685 Q 415.1 364.955 415.1 365.455 L 415.1 365.455 L 415.1 365.455 Q 415.1 365.935 414.78 366.195 L 414.78 366.195 L 414.78 366.195 Q 414.46 366.455 413.88 366.455 L 413.88 366.455 L 406.66 366.455 L 406.66 366.455 Z  M 418.42 366.455 L 418.42 366.455 Q 417.84 366.455 417.52 366.135 L 417.52 366.135 L 417.52 366.135 Q 417.2 365.815 417.2 365.255 L 417.2 365.255 L 417.2 353.535 L 417.2 353.535 Q 417.2 352.955 417.55 352.605 L 417.55 352.605 L 417.55 352.605 Q 417.9 352.255 418.48 352.255 L 418.48 352.255 L 418.48 352.255 Q 419.08 352.255 419.43 352.605 L 419.43 352.605 L 419.43 352.605 Q 419.78 352.955 419.78 353.535 L 419.78 353.535 L 419.78 364.335 L 425.4 364.335 L 425.4 364.335 Q 426.6 364.335 426.6 365.395 L 426.6 365.395 L 426.6 365.395 Q 426.6 366.455 425.4 366.455 L 425.4 366.455 L 418.42 366.455 L 418.42 366.455 Z  M 429.58 366.575 L 429.58 366.575 Q 429 366.575 428.65 366.215 L 428.65 366.215 L 428.65 366.215 Q 428.3 365.855 428.3 365.275 L 428.3 365.275 L 428.3 353.575 L 428.3 353.575 Q 428.3 352.995 428.63 352.675 L 428.63 352.675 L 428.63 352.675 Q 428.96 352.355 429.54 352.355 L 429.54 352.355 L 436.56 352.355 L 436.56 352.355 Q 437.78 352.355 437.78 353.395 L 437.78 353.395 L 437.78 353.395 Q 437.78 354.415 436.56 354.415 L 436.56 354.415 L 430.84 354.415 L 430.84 358.255 L 436.16 358.255 L 436.16 358.255 Q 437.38 358.255 437.38 359.295 L 437.38 359.295 L 437.38 359.295 Q 437.38 360.315 436.16 360.315 L 436.16 360.315 L 430.84 360.315 L 430.84 365.275 L 430.84 365.275 Q 430.84 365.855 430.5 366.215 L 430.5 366.215 L 430.5 366.215 Q 430.16 366.575 429.58 366.575 L 429.58 366.575 L 429.58 366.575 Z " fill="rgb(32,201,151)"/><path d=" M 229.805 20.2 L 229.805 20.2 Q 229.225 20.2 228.875 19.85 L 228.875 19.85 L 228.875 19.85 Q 228.525 19.5 228.525 18.9 L 228.525 18.9 L 228.525 7.2 L 228.525 7.2 Q 228.525 6.62 228.855 6.3 L 228.855 6.3 L 228.855 6.3 Q 229.185 5.98 229.765 5.98 L 229.765 5.98 L 234.685 5.98 L 234.685 5.98 Q 236.945 5.98 238.205 7.11 L 238.205 7.11 L 238.205 7.11 Q 239.465 8.24 239.465 10.28 L 239.465 10.28 L 239.465 10.28 Q 239.465 12.32 238.205 13.46 L 238.205 13.46 L 238.205 13.46 Q 236.945 14.6 234.685 14.6 L 234.685 14.6 L 231.105 14.6 L 231.105 18.9 L 231.105 18.9 Q 231.105 19.5 230.755 19.85 L 230.755 19.85 L 230.755 19.85 Q 230.405 20.2 229.805 20.2 L 229.805 20.2 L 229.805 20.2 Z  M 231.105 12.62 L 234.365 12.62 L 234.365 12.62 Q 237.025 12.62 237.025 10.3 L 237.025 10.3 L 237.025 10.3 Q 237.025 7.98 234.365 7.98 L 234.365 7.98 L 231.105 7.98 L 231.105 12.62 L 231.105 12.62 Z  M 242.965 20.08 L 242.965 20.08 Q 242.385 20.08 242.055 19.76 L 242.055 19.76 L 242.055 19.76 Q 241.725 19.44 241.725 18.86 L 241.725 18.86 L 241.725 7.2 L 241.725 7.2 Q 241.725 6.62 242.055 6.3 L 242.055 6.3 L 242.055 6.3 Q 242.385 5.98 242.965 5.98 L 242.965 5.98 L 250.185 5.98 L 250.185 5.98 Q 250.765 5.98 251.085 6.24 L 251.085 6.24 L 251.085 6.24 Q 251.405 6.5 251.405 6.98 L 251.405 6.98 L 251.405 6.98 Q 251.405 7.48 251.085 7.75 L 251.085 7.75 L 251.085 7.75 Q 250.765 8.02 250.185 8.02 L 250.185 8.02 L 244.245 8.02 L 244.245 11.9 L 249.785 11.9 L 249.785 11.9 Q 250.365 11.9 250.685 12.16 L 250.685 12.16 L 250.685 12.16 Q 251.005 12.42 251.005 12.92 L 251.005 12.92 L 251.005 12.92 Q 251.005 13.4 250.685 13.66 L 250.685 13.66 L 250.685 13.66 Q 250.365 13.92 249.785 13.92 L 249.785 13.92 L 244.245 13.92 L 244.245 18.04 L 250.185 18.04 L 250.185 18.04 Q 250.765 18.04 251.085 18.31 L 251.085 18.31 L 251.085 18.31 Q 251.405 18.58 251.405 19.08 L 251.405 19.08 L 251.405 19.08 Q 251.405 19.56 251.085 19.82 L 251.085 19.82 L 251.085 19.82 Q 250.765 20.08 250.185 20.08 L 250.185 20.08 L 242.965 20.08 L 242.965 20.08 Z " fill="rgb(253,126,20)"/><path d=" M 22.87 352.255 L 22.87 352.255 Q 23.43 352.255 23.77 352.605 L 23.77 352.605 L 23.77 352.605 Q 24.11 352.955 24.11 353.535 L 24.11 353.535 L 24.11 365.375 L 24.11 365.375 Q 24.11 365.935 23.79 366.255 L 23.79 366.255 L 23.79 366.255 Q 23.47 366.575 22.95 366.575 L 22.95 366.575 L 22.95 366.575 Q 22.43 366.575 22.13 366.255 L 22.13 366.255 L 22.13 366.255 Q 21.83 365.935 21.83 365.375 L 21.83 365.375 L 21.83 357.135 L 18.43 363.575 L 18.43 363.575 Q 18.19 364.015 17.91 364.225 L 17.91 364.225 L 17.91 364.225 Q 17.63 364.435 17.25 364.435 L 17.25 364.435 L 17.25 364.435 Q 16.87 364.435 16.59 364.235 L 16.59 364.235 L 16.59 364.235 Q 16.31 364.035 16.07 363.575 L 16.07 363.575 L 12.65 357.235 L 12.65 365.375 L 12.65 365.375 Q 12.65 365.915 12.34 366.245 L 12.34 366.245 L 12.34 366.245 Q 12.03 366.575 11.51 366.575 L 11.51 366.575 L 11.51 366.575 Q 10.99 366.575 10.69 366.255 L 10.69 366.255 L 10.69 366.255 Q 10.39 365.935 10.39 365.375 L 10.39 365.375 L 10.39 353.535 L 10.39 353.535 Q 10.39 352.955 10.72 352.605 L 10.72 352.605 L 10.72 352.605 Q 11.05 352.255 11.61 352.255 L 11.61 352.255 L 11.61 352.255 Q 12.39 352.255 12.83 353.115 L 12.83 353.115 L 17.27 361.575 L 21.69 353.115 L 21.69 353.115 Q 22.13 352.255 22.87 352.255 L 22.87 352.255 L 22.87 352.255 Z  M 31.19 356.435 L 31.19 356.435 Q 33.23 356.435 34.22 357.445 L 34.22 357.445 L 34.22 357.445 Q 35.21 358.455 35.21 360.515 L 35.21 360.515 L 35.21 365.395 L 35.21 365.395 Q 35.21 365.935 34.89 366.245 L 34.89 366.245 L 34.89 366.245 Q 34.57 366.555 34.01 366.555 L 34.01 366.555 L 34.01 366.555 Q 33.49 366.555 33.16 366.235 L 33.16 366.235 L 33.16 366.235 Q 32.83 365.915 32.83 365.395 L 32.83 365.395 L 32.83 364.955 L 32.83 364.955 Q 32.49 365.735 31.76 366.175 L 31.76 366.175 L 31.76 366.175 Q 31.03 366.615 30.07 366.615 L 30.07 366.615 L 30.07 366.615 Q 29.09 366.615 28.29 366.215 L 28.29 366.215 L 28.29 366.215 Q 27.49 365.815 27.03 365.115 L 27.03 365.115 L 27.03 365.115 Q 26.57 364.415 26.57 363.555 L 26.57 363.555 L 26.57 363.555 Q 26.57 362.475 27.12 361.855 L 27.12 361.855 L 27.12 361.855 Q 27.67 361.235 28.91 360.955 L 28.91 360.955 L 28.91 360.955 Q 30.15 360.675 32.33 360.675 L 32.33 360.675 L 32.83 360.675 L 32.83 360.215 L 32.83 360.215 Q 32.83 359.235 32.41 358.785 L 32.41 358.785 L 32.41 358.785 Q 31.99 358.335 31.05 358.335 L 31.05 358.335 L 31.05 358.335 Q 30.47 358.335 29.87 358.505 L 29.87 358.505 L 29.87 358.505 Q 29.27 358.675 28.45 358.995 L 28.45 358.995 L 28.45 358.995 Q 27.93 359.255 27.69 359.255 L 27.69 359.255 L 27.69 359.255 Q 27.33 359.255 27.1 358.995 L 27.1 358.995 L 27.1 358.995 Q 26.87 358.735 26.87 358.315 L 26.87 358.315 L 26.87 358.315 Q 26.87 357.975 27.04 357.725 L 27.04 357.725 L 27.04 357.725 Q 27.21 357.475 27.61 357.255 L 27.61 357.255 L 27.61 357.255 Q 28.31 356.875 29.28 356.655 L 29.28 356.655 L 29.28 356.655 Q 30.25 356.435 31.19 356.435 L 31.19 356.435 L 31.19 356.435 Z  M 30.57 364.815 L 30.57 364.815 Q 31.57 364.815 32.2 364.145 L 32.2 364.145 L 32.2 364.145 Q 32.83 363.475 32.83 362.415 L 32.83 362.415 L 32.83 361.995 L 32.47 361.995 L 32.47 361.995 Q 31.13 361.995 30.39 362.115 L 30.39 362.115 L 30.39 362.115 Q 29.65 362.235 29.33 362.535 L 29.33 362.535 L 29.33 362.535 Q 29.01 362.835 29.01 363.355 L 29.01 363.355 L 29.01 363.355 Q 29.01 363.995 29.46 364.405 L 29.46 364.405 L 29.46 364.405 Q 29.91 364.815 30.57 364.815 L 30.57 364.815 L 30.57 364.815 Z  M 42.09 366.615 L 42.09 366.615 Q 40.63 366.615 39.52 365.995 L 39.52 365.995 L 39.52 365.995 Q 38.41 365.375 37.81 364.235 L 37.81 364.235 L 37.81 364.235 Q 37.21 363.095 37.21 361.575 L 37.21 361.575 L 37.21 361.575 Q 37.21 360.055 37.84 358.885 L 37.84 358.885 L 37.84 358.885 Q 38.47 357.715 39.61 357.075 L 39.61 357.075 L 39.61 357.075 Q 40.75 356.435 42.23 356.435 L 42.23 356.435 L 42.23 356.435 Q 43.01 356.435 43.8 356.655 L 43.8 356.655 L 43.8 356.655 Q 44.59 356.875 45.19 357.255 L 45.19 357.255 L 45.19 357.255 Q 45.83 357.675 45.83 358.315 L 45.83 358.315 L 45.83 358.315 Q 45.83 358.755 45.62 359.025 L 45.62 359.025 L 45.62 359.025 Q 45.41 359.295 45.07 359.295 L 45.07 359.295 L 45.07 359.295 Q 44.85 359.295 44.61 359.195 L 44.61 359.195 L 44.61 359.195 Q 44.37 359.095 44.13 358.955 L 44.13 358.955 L 44.13 358.955 Q 43.69 358.695 43.29 358.545 L 43.29 358.545 L 43.29 358.545 Q 42.89 358.395 42.37 358.395 L 42.37 358.395 L 42.37 358.395 Q 41.13 358.395 40.46 359.205 L 40.46 359.205 L 40.46 359.205 Q 39.79 360.015 39.79 361.535 L 39.79 361.535 L 39.79 361.535 Q 39.79 363.035 40.46 363.845 L 40.46 363.845 L 40.46 363.845 Q 41.13 364.655 42.37 364.655 L 42.37 364.655 L 42.37 364.655 Q 42.87 364.655 43.26 364.505 L 43.26 364.505 L 43.26 364.505 Q 43.65 364.355 44.13 364.095 L 44.13 364.095 L 44.13 364.095 Q 44.43 363.915 44.65 363.825 L 44.65 363.825 L 44.65 363.825 Q 44.87 363.735 45.09 363.735 L 45.09 363.735 L 45.09 363.735 Q 45.41 363.735 45.63 364.015 L 45.63 364.015 L 45.63 364.015 Q 45.85 364.295 45.85 364.715 L 45.85 364.715 L 45.85 364.715 Q 45.85 365.055 45.7 365.305 L 45.7 365.305 L 45.7 365.305 Q 45.55 365.555 45.21 365.755 L 45.21 365.755 L 45.21 365.755 Q 44.59 366.155 43.77 366.385 L 43.77 366.385 L 43.77 366.385 Q 42.95 366.615 42.09 366.615 L 42.09 366.615 L 42.09 366.615 Z  M 53.23 356.435 L 53.23 356.435 Q 56.67 356.435 56.67 360.455 L 56.67 360.455 L 56.67 365.375 L 56.67 365.375 Q 56.67 365.935 56.34 366.255 L 56.34 366.255 L 56.34 366.255 Q 56.01 366.575 55.43 366.575 L 55.43 366.575 L 55.43 366.575 Q 54.85 366.575 54.51 366.255 L 54.51 366.255 L 54.51 366.255 Q 54.17 365.935 54.17 365.375 L 54.17 365.375 L 54.17 360.455 L 54.17 360.455 Q 54.17 359.395 53.74 358.905 L 53.74 358.905 L 53.74 358.905 Q 53.31 358.415 52.39 358.415 L 52.39 358.415 L 52.39 358.415 Q 51.31 358.415 50.66 359.095 L 50.66 359.095 L 50.66 359.095 Q 50.01 359.775 50.01 360.915 L 50.01 360.915 L 50.01 365.375 L 50.01 365.375 Q 50.01 365.935 49.67 366.255 L 49.67 366.255 L 49.67 366.255 Q 49.33 366.575 48.75 366.575 L 48.75 366.575 L 48.75 366.575 Q 48.17 366.575 47.84 366.255 L 47.84 366.255 L 47.84 366.255 Q 47.51 365.935 47.51 365.375 L 47.51 365.375 L 47.51 353.415 L 47.51 353.415 Q 47.51 352.895 47.86 352.575 L 47.86 352.575 L 47.86 352.575 Q 48.21 352.255 48.77 352.255 L 48.77 352.255 L 48.77 352.255 Q 49.33 352.255 49.67 352.555 L 49.67 352.555 L 49.67 352.555 Q 50.01 352.855 50.01 353.375 L 50.01 353.375 L 50.01 358.035 L 50.01 358.035 Q 50.51 357.255 51.34 356.845 L 51.34 356.845 L 51.34 356.845 Q 52.17 356.435 53.23 356.435 L 53.23 356.435 L 53.23 356.435 Z  M 60.19 362.095 L 60.19 362.095 Q 59.61 362.095 59.32 361.835 L 59.32 361.835 L 59.32 361.835 Q 59.03 361.575 59.03 361.115 L 59.03 361.115 L 59.03 361.115 Q 59.03 360.655 59.32 360.385 L 59.32 360.385 L 59.32 360.385 Q 59.61 360.115 60.19 360.115 L 60.19 360.115 L 64.31 360.115 L 64.31 360.115 Q 64.89 360.115 65.18 360.385 L 65.18 360.385 L 65.18 360.385 Q 65.47 360.655 65.47 361.115 L 65.47 361.115 L 65.47 361.115 Q 65.47 361.575 65.18 361.835 L 65.18 361.835 L 65.18 361.835 Q 64.89 362.095 64.31 362.095 L 64.31 362.095 L 60.19 362.095 L 60.19 362.095 Z  M 74.39 366.635 L 74.39 366.635 Q 72.33 366.635 70.82 365.755 L 70.82 365.755 L 70.82 365.755 Q 69.31 364.875 68.49 363.235 L 68.49 363.235 L 68.49 363.235 Q 67.67 361.595 67.67 359.395 L 67.67 359.395 L 67.67 359.395 Q 67.67 357.195 68.48 355.565 L 68.48 355.565 L 68.48 355.565 Q 69.29 353.935 70.81 353.055 L 70.81 353.055 L 70.81 353.055 Q 72.33 352.175 74.39 352.175 L 74.39 352.175 L 74.39 352.175 Q 76.45 352.175 77.96 353.055 L 77.96 353.055 L 77.96 353.055 Q 79.47 353.935 80.28 355.565 L 80.28 355.565 L 80.28 355.565 Q 81.09 357.195 81.09 359.395 L 81.09 359.395 L 81.09 359.395 Q 81.09 361.595 80.27 363.235 L 80.27 363.235 L 80.27 363.235 Q 79.45 364.875 77.94 365.755 L 77.94 365.755 L 77.94 365.755 Q 76.43 366.635 74.39 366.635 L 74.39 366.635 L 74.39 366.635 Z  M 74.39 364.575 L 74.39 364.575 Q 76.33 364.575 77.42 363.235 L 77.42 363.235 L 77.42 363.235 Q 78.51 361.895 78.51 359.395 L 78.51 359.395 L 78.51 359.395 Q 78.51 356.895 77.42 355.565 L 77.42 355.565 L 77.42 355.565 Q 76.33 354.235 74.39 354.235 L 74.39 354.235 L 74.39 354.235 Q 72.43 354.235 71.34 355.565 L 71.34 355.565 L 71.34 355.565 Q 70.25 356.895 70.25 359.395 L 70.25 359.395 L 70.25 359.395 Q 70.25 361.895 71.34 363.235 L 71.34 363.235 L 71.34 363.235 Q 72.43 364.575 74.39 364.575 L 74.39 364.575 L 74.39 364.575 Z " fill="rgb(102,114,232)"/></svg>
