<?xml version="1.0" encoding="UTF-8" standalone="no"?><svg xmlns="http://www.w3.org/2000/svg" xmlns:xlink="http://www.w3.org/1999/xlink" style="isolation:isolate" viewBox="0 0 462 375" width="462pt" height="375pt"><g><g><circle vector-effect="non-scaling-stroke" cx="99.86666666666667" cy="69.36666666666667" r="34.599999999999994" fill="rgb(253,126,20)"/><path d=" M 117.851 39.849 C 121.054 45.094 122.933 51.237 122.933 57.833 C 122.933 76.942 107.442 92.433 88.333 92.433 C 81.737 92.433 75.594 90.554 70.349 87.351 C 76.426 97.302 87.354 103.967 99.867 103.967 C 118.976 103.967 134.467 88.476 134.467 69.367 C 134.467 56.854 127.802 45.926 117.851 39.849 Z " fill="rgb(202,101,16)"/></g><g><circle vector-effect="non-scaling-stroke" cx="261.33333333333337" cy="69.36666666666667" r="34.60000000000001" fill="rgb(32,201,151)"/><path d=" M 279.318 39.849 C 282.521 45.094 284.4 51.237 284.4 57.833 C 284.4 76.942 268.909 92.433 249.8 92.433 C 243.204 92.433 237.061 90.554 231.816 87.351 C 237.892 97.302 248.82 103.967 261.333 103.967 C 280.442 103.967 295.933 88.476 295.933 69.367 C 295.933 56.854 289.268 45.926 279.318 39.849 Z " fill="rgb(26,161,121)"/></g><g><circle vector-effect="non-scaling-stroke" cx="203.66666666666666" cy="334.6333333333333" r="34.599999999999994" fill="rgb(32,131,254)"/><path d=" M 221.651 305.116 C 224.854 310.361 226.733 316.504 226.733 323.1 C 226.733 342.209 211.242 357.7 192.133 357.7 C 185.537 357.7 179.394 355.821 174.149 352.618 C 180.226 362.568 191.154 369.233 203.667 369.233 C 222.776 369.233 238.267 353.742 238.267 334.633 C 238.267 322.12 231.602 311.192 221.651 305.116 Z " fill="rgb(26,105,203)"/><path d=" M 194.717 281.22 L 194.717 281.22 Q 194.137 281.22 193.807 280.9 L 193.807 280.9 L 193.807 280.9 Q 193.477 280.58 193.477 280 L 193.477 280 L 193.477 268.34 L 193.477 268.34 Q 193.477 267.76 193.807 267.44 L 193.807 267.44 L 193.807 267.44 Q 194.137 267.12 194.717 267.12 L 194.717 267.12 L 201.937 267.12 L 201.937 267.12 Q 202.517 267.12 202.837 267.38 L 202.837 267.38 L 202.837 267.38 Q 203.157 267.64 203.157 268.12 L 203.157 268.12 L 203.157 268.12 Q 203.157 268.62 202.837 268.89 L 202.837 268.89 L 202.837 268.89 Q 202.517 269.16 201.937 269.16 L 201.937 269.16 L 195.997 269.16 L 195.997 273.04 L 201.537 273.04 L 201.537 273.04 Q 202.117 273.04 202.437 273.3 L 202.437 273.3 L 202.437 273.3 Q 202.757 273.56 202.757 274.06 L 202.757 274.06 L 202.757 274.06 Q 202.757 274.54 202.437 274.8 L 202.437 274.8 L 202.437 274.8 Q 202.117 275.06 201.537 275.06 L 201.537 275.06 L 195.997 275.06 L 195.997 279.18 L 201.937 279.18 L 201.937 279.18 Q 202.517 279.18 202.837 279.45 L 202.837 279.45 L 202.837 279.45 Q 203.157 279.72 203.157 280.22 L 203.157 280.22 L 203.157 280.22 Q 203.157 280.7 202.837 280.96 L 202.837 280.96 L 202.837 280.96 Q 202.517 281.22 201.937 281.22 L 201.937 281.22 L 194.717 281.22 L 194.717 281.22 Z  M 210.717 271.2 L 210.717 271.2 Q 212.477 271.2 213.337 272.2 L 213.337 272.2 L 213.337 272.2 Q 214.197 273.2 214.197 275.22 L 214.197 275.22 L 214.197 280.14 L 214.197 280.14 Q 214.197 280.7 213.867 281.02 L 213.867 281.02 L 213.867 281.02 Q 213.537 281.34 212.957 281.34 L 212.957 281.34 L 212.957 281.34 Q 212.377 281.34 212.037 281.02 L 212.037 281.02 L 212.037 281.02 Q 211.697 280.7 211.697 280.14 L 211.697 280.14 L 211.697 275.36 L 211.697 275.36 Q 211.697 274.22 211.267 273.7 L 211.267 273.7 L 211.267 273.7 Q 210.837 273.18 209.917 273.18 L 209.917 273.18 L 209.917 273.18 Q 208.837 273.18 208.187 273.86 L 208.187 273.86 L 208.187 273.86 Q 207.537 274.54 207.537 275.68 L 207.537 275.68 L 207.537 280.14 L 207.537 280.14 Q 207.537 280.7 207.197 281.02 L 207.197 281.02 L 207.197 281.02 Q 206.857 281.34 206.277 281.34 L 206.277 281.34 L 206.277 281.34 Q 205.697 281.34 205.367 281.02 L 205.367 281.02 L 205.367 281.02 Q 205.037 280.7 205.037 280.14 L 205.037 280.14 L 205.037 272.4 L 205.037 272.4 Q 205.037 271.88 205.377 271.56 L 205.377 271.56 L 205.377 271.56 Q 205.717 271.24 206.297 271.24 L 206.297 271.24 L 206.297 271.24 Q 206.817 271.24 207.147 271.55 L 207.147 271.55 L 207.147 271.55 Q 207.477 271.86 207.477 272.36 L 207.477 272.36 L 207.477 272.9 L 207.477 272.9 Q 207.977 272.08 208.817 271.64 L 208.817 271.64 L 208.817 271.64 Q 209.657 271.2 210.717 271.2 L 210.717 271.2 L 210.717 271.2 Z  M 221.817 279.48 L 221.817 279.48 Q 222.817 279.54 222.817 280.38 L 222.817 280.38 L 222.817 280.38 Q 222.817 280.86 222.427 281.11 L 222.427 281.11 L 222.427 281.11 Q 222.037 281.36 221.317 281.32 L 221.317 281.32 L 220.777 281.28 L 220.777 281.28 Q 217.417 281.04 217.417 277.68 L 217.417 277.68 L 217.417 273.32 L 216.417 273.32 L 216.417 273.32 Q 215.877 273.32 215.587 273.08 L 215.587 273.08 L 215.587 273.08 Q 215.297 272.84 215.297 272.38 L 215.297 272.38 L 215.297 272.38 Q 215.297 271.92 215.587 271.68 L 215.587 271.68 L 215.587 271.68 Q 215.877 271.44 216.417 271.44 L 216.417 271.44 L 217.417 271.44 L 217.417 269.6 L 217.417 269.6 Q 217.417 269.06 217.757 268.74 L 217.757 268.74 L 217.757 268.74 Q 218.097 268.42 218.677 268.42 L 218.677 268.42 L 218.677 268.42 Q 219.237 268.42 219.577 268.74 L 219.577 268.74 L 219.577 268.74 Q 219.917 269.06 219.917 269.6 L 219.917 269.6 L 219.917 271.44 L 221.617 271.44 L 221.617 271.44 Q 222.157 271.44 222.447 271.68 L 222.447 271.68 L 222.447 271.68 Q 222.737 271.92 222.737 272.38 L 222.737 272.38 L 222.737 272.38 Q 222.737 272.84 222.447 273.08 L 222.447 273.08 L 222.447 273.08 Q 222.157 273.32 221.617 273.32 L 221.617 273.32 L 219.917 273.32 L 219.917 277.86 L 219.917 277.86 Q 219.917 279.34 221.277 279.44 L 221.277 279.44 L 221.817 279.48 L 221.817 279.48 Z  M 229.577 271.24 L 229.577 271.24 Q 230.097 271.2 230.397 271.46 L 230.397 271.46 L 230.397 271.46 Q 230.697 271.72 230.697 272.24 L 230.697 272.24 L 230.697 272.24 Q 230.697 272.78 230.437 273.04 L 230.437 273.04 L 230.437 273.04 Q 230.177 273.3 229.497 273.38 L 229.497 273.38 L 228.897 273.44 L 228.897 273.44 Q 227.717 273.56 227.167 274.24 L 227.167 274.24 L 227.167 274.24 Q 226.617 274.92 226.617 275.94 L 226.617 275.94 L 226.617 280.14 L 226.617 280.14 Q 226.617 280.72 226.257 281.03 L 226.257 281.03 L 226.257 281.03 Q 225.897 281.34 225.357 281.34 L 225.357 281.34 L 225.357 281.34 Q 224.817 281.34 224.467 281.03 L 224.467 281.03 L 224.467 281.03 Q 224.117 280.72 224.117 280.14 L 224.117 280.14 L 224.117 272.4 L 224.117 272.4 Q 224.117 271.84 224.467 271.54 L 224.467 271.54 L 224.467 271.54 Q 224.817 271.24 225.337 271.24 L 225.337 271.24 L 225.337 271.24 Q 225.857 271.24 226.177 271.53 L 226.177 271.53 L 226.177 271.53 Q 226.497 271.82 226.497 272.36 L 226.497 272.36 L 226.497 273.16 L 226.497 273.16 Q 226.877 272.28 227.627 271.8 L 227.627 271.8 L 227.627 271.8 Q 228.377 271.32 229.297 271.26 L 229.297 271.26 L 229.577 271.24 L 229.577 271.24 Z  M 239.197 271.96 L 239.197 271.96 Q 239.357 271.6 239.627 271.43 L 239.627 271.43 L 239.627 271.43 Q 239.897 271.26 240.217 271.26 L 240.217 271.26 L 240.217 271.26 Q 240.677 271.26 241.047 271.57 L 241.047 271.57 L 241.047 271.57 Q 241.417 271.88 241.417 272.34 L 241.417 272.34 L 241.417 272.34 Q 241.417 272.56 241.297 272.8 L 241.297 272.8 L 235.837 284.24 L 235.837 284.24 Q 235.497 284.92 234.777 284.92 L 234.777 284.92 L 234.777 284.92 Q 234.317 284.92 233.967 284.63 L 233.967 284.63 L 233.967 284.63 Q 233.617 284.34 233.617 283.9 L 233.617 283.9 L 233.617 283.9 Q 233.617 283.68 233.737 283.4 L 233.737 283.4 L 235.097 280.54 L 231.377 272.8 L 231.377 272.8 Q 231.277 272.6 231.277 272.34 L 231.277 272.34 L 231.277 272.34 Q 231.277 271.88 231.667 271.56 L 231.667 271.56 L 231.667 271.56 Q 232.057 271.24 232.557 271.24 L 232.557 271.24 L 232.557 271.24 Q 232.897 271.24 233.177 271.41 L 233.177 271.41 L 233.177 271.41 Q 233.457 271.58 233.617 271.94 L 233.617 271.94 L 236.417 278.12 L 239.197 271.96 L 239.197 271.96 Z  M 248.517 271.2 L 248.517 271.2 Q 249.777 271.2 250.767 271.84 L 250.767 271.84 L 250.767 271.84 Q 251.757 272.48 252.307 273.65 L 252.307 273.65 L 252.307 273.65 Q 252.857 274.82 252.857 276.34 L 252.857 276.34 L 252.857 276.34 Q 252.857 277.86 252.307 279 L 252.307 279 L 252.307 279 Q 251.757 280.14 250.777 280.76 L 250.777 280.76 L 250.777 280.76 Q 249.797 281.38 248.517 281.38 L 248.517 281.38 L 248.517 281.38 Q 247.477 281.38 246.657 280.94 L 246.657 280.94 L 246.657 280.94 Q 245.837 280.5 245.397 279.72 L 245.397 279.72 L 245.397 283.8 L 245.397 283.8 Q 245.397 284.32 245.057 284.62 L 245.057 284.62 L 245.057 284.62 Q 244.717 284.92 244.157 284.92 L 244.157 284.92 L 244.157 284.92 Q 243.597 284.92 243.247 284.6 L 243.247 284.6 L 243.247 284.6 Q 242.897 284.28 242.897 283.76 L 242.897 283.76 L 242.897 272.42 L 242.897 272.42 Q 242.897 271.88 243.227 271.56 L 243.227 271.56 L 243.227 271.56 Q 243.557 271.24 244.117 271.24 L 244.117 271.24 L 244.117 271.24 Q 244.677 271.24 245.017 271.56 L 245.017 271.56 L 245.017 271.56 Q 245.357 271.88 245.357 272.42 L 245.357 272.42 L 245.357 272.92 L 245.357 272.92 Q 245.797 272.1 246.627 271.65 L 246.627 271.65 L 246.627 271.65 Q 247.457 271.2 248.517 271.2 L 248.517 271.2 L 248.517 271.2 Z  M 247.857 279.44 L 247.857 279.44 Q 249.037 279.44 249.697 278.63 L 249.697 278.63 L 249.697 278.63 Q 250.357 277.82 250.357 276.34 L 250.357 276.34 L 250.357 276.34 Q 250.357 274.82 249.697 273.98 L 249.697 273.98 L 249.697 273.98 Q 249.037 273.14 247.857 273.14 L 247.857 273.14 L 247.857 273.14 Q 246.657 273.14 246.007 273.96 L 246.007 273.96 L 246.007 273.96 Q 245.357 274.78 245.357 276.3 L 245.357 276.3 L 245.357 276.3 Q 245.357 277.8 246.007 278.62 L 246.007 278.62 L 246.007 278.62 Q 246.657 279.44 247.857 279.44 L 247.857 279.44 L 247.857 279.44 Z  M 259.377 281.38 L 259.377 281.38 Q 257.877 281.38 256.747 280.76 L 256.747 280.76 L 256.747 280.76 Q 255.617 280.14 254.997 278.98 L 254.997 278.98 L 254.997 278.98 Q 254.377 277.82 254.377 276.28 L 254.377 276.28 L 254.377 276.28 Q 254.377 274.74 254.997 273.59 L 254.997 273.59 L 254.997 273.59 Q 255.617 272.44 256.747 271.82 L 256.747 271.82 L 256.747 271.82 Q 257.877 271.2 259.377 271.2 L 259.377 271.2 L 259.377 271.2 Q 260.877 271.2 262.007 271.82 L 262.007 271.82 L 262.007 271.82 Q 263.137 272.44 263.747 273.59 L 263.747 273.59 L 263.747 273.59 Q 264.357 274.74 264.357 276.28 L 264.357 276.28 L 264.357 276.28 Q 264.357 277.82 263.747 278.98 L 263.747 278.98 L 263.747 278.98 Q 263.137 280.14 262.007 280.76 L 262.007 280.76 L 262.007 280.76 Q 260.877 281.38 259.377 281.38 L 259.377 281.38 L 259.377 281.38 Z  M 259.357 279.44 L 259.357 279.44 Q 260.577 279.44 261.217 278.64 L 261.217 278.64 L 261.217 278.64 Q 261.857 277.84 261.857 276.28 L 261.857 276.28 L 261.857 276.28 Q 261.857 274.74 261.217 273.93 L 261.217 273.93 L 261.217 273.93 Q 260.577 273.12 259.377 273.12 L 259.377 273.12 L 259.377 273.12 Q 258.177 273.12 257.527 273.93 L 257.527 273.93 L 257.527 273.93 Q 256.877 274.74 256.877 276.28 L 256.877 276.28 L 256.877 276.28 Q 256.877 277.84 257.517 278.64 L 257.517 278.64 L 257.517 278.64 Q 258.157 279.44 259.357 279.44 L 259.357 279.44 L 259.357 279.44 Z  M 267.657 281.34 L 267.657 281.34 Q 267.117 281.34 266.767 281.03 L 266.767 281.03 L 266.767 281.03 Q 266.417 280.72 266.417 280.14 L 266.417 280.14 L 266.417 272.42 L 266.417 272.42 Q 266.417 271.84 266.767 271.54 L 266.767 271.54 L 266.767 271.54 Q 267.117 271.24 267.657 271.24 L 267.657 271.24 L 267.657 271.24 Q 268.197 271.24 268.557 271.54 L 268.557 271.54 L 268.557 271.54 Q 268.917 271.84 268.917 272.42 L 268.917 272.42 L 268.917 280.14 L 268.917 280.14 Q 268.917 280.72 268.557 281.03 L 268.557 281.03 L 268.557 281.03 Q 268.197 281.34 267.657 281.34 L 267.657 281.34 L 267.657 281.34 Z  M 267.657 269.46 L 267.657 269.46 Q 266.977 269.46 266.577 269.09 L 266.577 269.09 L 266.577 269.09 Q 266.177 268.72 266.177 268.12 L 266.177 268.12 L 266.177 268.12 Q 266.177 267.52 266.577 267.16 L 266.577 267.16 L 266.577 267.16 Q 266.977 266.8 267.657 266.8 L 267.657 266.8 L 267.657 266.8 Q 268.317 266.8 268.727 267.16 L 268.727 267.16 L 268.727 267.16 Q 269.137 267.52 269.137 268.12 L 269.137 268.12 L 269.137 268.12 Q 269.137 268.72 268.737 269.09 L 268.737 269.09 L 268.737 269.09 Q 268.337 269.46 267.657 269.46 L 267.657 269.46 L 267.657 269.46 Z  M 277.177 271.2 L 277.177 271.2 Q 278.937 271.2 279.797 272.2 L 279.797 272.2 L 279.797 272.2 Q 280.657 273.2 280.657 275.22 L 280.657 275.22 L 280.657 280.14 L 280.657 280.14 Q 280.657 280.7 280.327 281.02 L 280.327 281.02 L 280.327 281.02 Q 279.997 281.34 279.417 281.34 L 279.417 281.34 L 279.417 281.34 Q 278.837 281.34 278.497 281.02 L 278.497 281.02 L 278.497 281.02 Q 278.157 280.7 278.157 280.14 L 278.157 280.14 L 278.157 275.36 L 278.157 275.36 Q 278.157 274.22 277.727 273.7 L 277.727 273.7 L 277.727 273.7 Q 277.297 273.18 276.377 273.18 L 276.377 273.18 L 276.377 273.18 Q 275.297 273.18 274.647 273.86 L 274.647 273.86 L 274.647 273.86 Q 273.997 274.54 273.997 275.68 L 273.997 275.68 L 273.997 280.14 L 273.997 280.14 Q 273.997 280.7 273.657 281.02 L 273.657 281.02 L 273.657 281.02 Q 273.317 281.34 272.737 281.34 L 272.737 281.34 L 272.737 281.34 Q 272.157 281.34 271.827 281.02 L 271.827 281.02 L 271.827 281.02 Q 271.497 280.7 271.497 280.14 L 271.497 280.14 L 271.497 272.4 L 271.497 272.4 Q 271.497 271.88 271.837 271.56 L 271.837 271.56 L 271.837 271.56 Q 272.177 271.24 272.757 271.24 L 272.757 271.24 L 272.757 271.24 Q 273.277 271.24 273.607 271.55 L 273.607 271.55 L 273.607 271.55 Q 273.937 271.86 273.937 272.36 L 273.937 272.36 L 273.937 272.9 L 273.937 272.9 Q 274.437 272.08 275.277 271.64 L 275.277 271.64 L 275.277 271.64 Q 276.117 271.2 277.177 271.2 L 277.177 271.2 L 277.177 271.2 Z  M 288.277 279.48 L 288.277 279.48 Q 289.277 279.54 289.277 280.38 L 289.277 280.38 L 289.277 280.38 Q 289.277 280.86 288.887 281.11 L 288.887 281.11 L 288.887 281.11 Q 288.497 281.36 287.777 281.32 L 287.777 281.32 L 287.237 281.28 L 287.237 281.28 Q 283.877 281.04 283.877 277.68 L 283.877 277.68 L 283.877 273.32 L 282.877 273.32 L 282.877 273.32 Q 282.337 273.32 282.047 273.08 L 282.047 273.08 L 282.047 273.08 Q 281.757 272.84 281.757 272.38 L 281.757 272.38 L 281.757 272.38 Q 281.757 271.92 282.047 271.68 L 282.047 271.68 L 282.047 271.68 Q 282.337 271.44 282.877 271.44 L 282.877 271.44 L 283.877 271.44 L 283.877 269.6 L 283.877 269.6 Q 283.877 269.06 284.217 268.74 L 284.217 268.74 L 284.217 268.74 Q 284.557 268.42 285.137 268.42 L 285.137 268.42 L 285.137 268.42 Q 285.697 268.42 286.037 268.74 L 286.037 268.74 L 286.037 268.74 Q 286.377 269.06 286.377 269.6 L 286.377 269.6 L 286.377 271.44 L 288.077 271.44 L 288.077 271.44 Q 288.617 271.44 288.907 271.68 L 288.907 271.68 L 288.907 271.68 Q 289.197 271.92 289.197 272.38 L 289.197 272.38 L 289.197 272.38 Q 289.197 272.84 288.907 273.08 L 288.907 273.08 L 288.907 273.08 Q 288.617 273.32 288.077 273.32 L 288.077 273.32 L 286.377 273.32 L 286.377 277.86 L 286.377 277.86 Q 286.377 279.34 287.737 279.44 L 287.737 279.44 L 288.277 279.48 L 288.277 279.48 Z  M 123.877 281.4 L 123.877 281.4 Q 121.837 281.4 120.307 280.52 L 120.307 280.52 L 120.307 280.52 Q 118.777 279.64 117.957 278 L 117.957 278 L 117.957 278 Q 117.137 276.36 117.137 274.16 L 117.137 274.16 L 117.137 274.16 Q 117.137 271.96 117.957 270.33 L 117.957 270.33 L 117.957 270.33 Q 118.777 268.7 120.307 267.82 L 120.307 267.82 L 120.307 267.82 Q 121.837 266.94 123.877 266.94 L 123.877 266.94 L 123.877 266.94 Q 125.197 266.94 126.357 267.33 L 126.357 267.33 L 126.357 267.33 Q 127.517 267.72 128.417 268.46 L 128.417 268.46 L 128.417 268.46 Q 128.677 268.66 128.777 268.88 L 128.777 268.88 L 128.777 268.88 Q 128.877 269.1 128.877 269.42 L 128.877 269.42 L 128.877 269.42 Q 128.877 269.86 128.637 270.16 L 128.637 270.16 L 128.637 270.16 Q 128.397 270.46 128.057 270.46 L 128.057 270.46 L 128.057 270.46 Q 127.657 270.46 127.237 270.18 L 127.237 270.18 L 127.237 270.18 Q 126.377 269.54 125.637 269.29 L 125.637 269.29 L 125.637 269.29 Q 124.897 269.04 123.997 269.04 L 123.997 269.04 L 123.997 269.04 Q 121.917 269.04 120.847 270.34 L 120.847 270.34 L 120.847 270.34 Q 119.777 271.64 119.777 274.16 L 119.777 274.16 L 119.777 274.16 Q 119.777 276.7 120.847 278 L 120.847 278 L 120.847 278 Q 121.917 279.3 123.997 279.3 L 123.997 279.3 L 123.997 279.3 Q 124.857 279.3 125.587 279.04 L 125.587 279.04 L 125.587 279.04 Q 126.317 278.78 127.237 278.16 L 127.237 278.16 L 127.237 278.16 Q 127.437 278.04 127.637 277.96 L 127.637 277.96 L 127.637 277.96 Q 127.837 277.88 128.057 277.88 L 128.057 277.88 L 128.057 277.88 Q 128.397 277.88 128.637 278.18 L 128.637 278.18 L 128.637 278.18 Q 128.877 278.48 128.877 278.92 L 128.877 278.92 L 128.877 278.92 Q 128.877 279.22 128.777 279.45 L 128.777 279.45 L 128.777 279.45 Q 128.677 279.68 128.417 279.88 L 128.417 279.88 L 128.417 279.88 Q 127.517 280.62 126.357 281.01 L 126.357 281.01 L 126.357 281.01 Q 125.197 281.4 123.877 281.4 L 123.877 281.4 L 123.877 281.4 Z  M 136.637 271.2 L 136.637 271.2 Q 140.077 271.2 140.077 275.22 L 140.077 275.22 L 140.077 280.14 L 140.077 280.14 Q 140.077 280.7 139.747 281.02 L 139.747 281.02 L 139.747 281.02 Q 139.417 281.34 138.837 281.34 L 138.837 281.34 L 138.837 281.34 Q 138.257 281.34 137.917 281.02 L 137.917 281.02 L 137.917 281.02 Q 137.577 280.7 137.577 280.14 L 137.577 280.14 L 137.577 275.22 L 137.577 275.22 Q 137.577 274.16 137.147 273.67 L 137.147 273.67 L 137.147 273.67 Q 136.717 273.18 135.797 273.18 L 135.797 273.18 L 135.797 273.18 Q 134.717 273.18 134.067 273.86 L 134.067 273.86 L 134.067 273.86 Q 133.417 274.54 133.417 275.68 L 133.417 275.68 L 133.417 280.14 L 133.417 280.14 Q 133.417 280.7 133.077 281.02 L 133.077 281.02 L 133.077 281.02 Q 132.737 281.34 132.157 281.34 L 132.157 281.34 L 132.157 281.34 Q 131.577 281.34 131.247 281.02 L 131.247 281.02 L 131.247 281.02 Q 130.917 280.7 130.917 280.14 L 130.917 280.14 L 130.917 268.18 L 130.917 268.18 Q 130.917 267.66 131.267 267.34 L 131.267 267.34 L 131.267 267.34 Q 131.617 267.02 132.177 267.02 L 132.177 267.02 L 132.177 267.02 Q 132.737 267.02 133.077 267.32 L 133.077 267.32 L 133.077 267.32 Q 133.417 267.62 133.417 268.14 L 133.417 268.14 L 133.417 272.8 L 133.417 272.8 Q 133.917 272.02 134.747 271.61 L 134.747 271.61 L 134.747 271.61 Q 135.577 271.2 136.637 271.2 L 136.637 271.2 L 136.637 271.2 Z  M 146.857 271.2 L 146.857 271.2 Q 148.897 271.2 149.887 272.21 L 149.887 272.21 L 149.887 272.21 Q 150.877 273.22 150.877 275.28 L 150.877 275.28 L 150.877 280.16 L 150.877 280.16 Q 150.877 280.7 150.557 281.01 L 150.557 281.01 L 150.557 281.01 Q 150.237 281.32 149.677 281.32 L 149.677 281.32 L 149.677 281.32 Q 149.157 281.32 148.827 281 L 148.827 281 L 148.827 281 Q 148.497 280.68 148.497 280.16 L 148.497 280.16 L 148.497 279.72 L 148.497 279.72 Q 148.157 280.5 147.427 280.94 L 147.427 280.94 L 147.427 280.94 Q 146.697 281.38 145.737 281.38 L 145.737 281.38 L 145.737 281.38 Q 144.757 281.38 143.957 280.98 L 143.957 280.98 L 143.957 280.98 Q 143.157 280.58 142.697 279.88 L 142.697 279.88 L 142.697 279.88 Q 142.237 279.18 142.237 278.32 L 142.237 278.32 L 142.237 278.32 Q 142.237 277.24 142.787 276.62 L 142.787 276.62 L 142.787 276.62 Q 143.337 276 144.577 275.72 L 144.577 275.72 L 144.577 275.72 Q 145.817 275.44 147.997 275.44 L 147.997 275.44 L 148.497 275.44 L 148.497 274.98 L 148.497 274.98 Q 148.497 274 148.077 273.55 L 148.077 273.55 L 148.077 273.55 Q 147.657 273.1 146.717 273.1 L 146.717 273.1 L 146.717 273.1 Q 146.137 273.1 145.537 273.27 L 145.537 273.27 L 145.537 273.27 Q 144.937 273.44 144.117 273.76 L 144.117 273.76 L 144.117 273.76 Q 143.597 274.02 143.357 274.02 L 143.357 274.02 L 143.357 274.02 Q 142.997 274.02 142.767 273.76 L 142.767 273.76 L 142.767 273.76 Q 142.537 273.5 142.537 273.08 L 142.537 273.08 L 142.537 273.08 Q 142.537 272.74 142.707 272.49 L 142.707 272.49 L 142.707 272.49 Q 142.877 272.24 143.277 272.02 L 143.277 272.02 L 143.277 272.02 Q 143.977 271.64 144.947 271.42 L 144.947 271.42 L 144.947 271.42 Q 145.917 271.2 146.857 271.2 L 146.857 271.2 L 146.857 271.2 Z  M 146.237 279.58 L 146.237 279.58 Q 147.237 279.58 147.867 278.91 L 147.867 278.91 L 147.867 278.91 Q 148.497 278.24 148.497 277.18 L 148.497 277.18 L 148.497 276.76 L 148.137 276.76 L 148.137 276.76 Q 146.797 276.76 146.057 276.88 L 146.057 276.88 L 146.057 276.88 Q 145.317 277 144.997 277.3 L 144.997 277.3 L 144.997 277.3 Q 144.677 277.6 144.677 278.12 L 144.677 278.12 L 144.677 278.12 Q 144.677 278.76 145.127 279.17 L 145.127 279.17 L 145.127 279.17 Q 145.577 279.58 146.237 279.58 L 146.237 279.58 L 146.237 279.58 Z  M 159.097 271.2 L 159.097 271.2 Q 160.857 271.2 161.717 272.2 L 161.717 272.2 L 161.717 272.2 Q 162.577 273.2 162.577 275.22 L 162.577 275.22 L 162.577 280.14 L 162.577 280.14 Q 162.577 280.7 162.247 281.02 L 162.247 281.02 L 162.247 281.02 Q 161.917 281.34 161.337 281.34 L 161.337 281.34 L 161.337 281.34 Q 160.757 281.34 160.417 281.02 L 160.417 281.02 L 160.417 281.02 Q 160.077 280.7 160.077 280.14 L 160.077 280.14 L 160.077 275.36 L 160.077 275.36 Q 160.077 274.22 159.647 273.7 L 159.647 273.7 L 159.647 273.7 Q 159.217 273.18 158.297 273.18 L 158.297 273.18 L 158.297 273.18 Q 157.217 273.18 156.567 273.86 L 156.567 273.86 L 156.567 273.86 Q 155.917 274.54 155.917 275.68 L 155.917 275.68 L 155.917 280.14 L 155.917 280.14 Q 155.917 280.7 155.577 281.02 L 155.577 281.02 L 155.577 281.02 Q 155.237 281.34 154.657 281.34 L 154.657 281.34 L 154.657 281.34 Q 154.077 281.34 153.747 281.02 L 153.747 281.02 L 153.747 281.02 Q 153.417 280.7 153.417 280.14 L 153.417 280.14 L 153.417 272.4 L 153.417 272.4 Q 153.417 271.88 153.757 271.56 L 153.757 271.56 L 153.757 271.56 Q 154.097 271.24 154.677 271.24 L 154.677 271.24 L 154.677 271.24 Q 155.197 271.24 155.527 271.55 L 155.527 271.55 L 155.527 271.55 Q 155.857 271.86 155.857 272.36 L 155.857 272.36 L 155.857 272.9 L 155.857 272.9 Q 156.357 272.08 157.197 271.64 L 157.197 271.64 L 157.197 271.64 Q 158.037 271.2 159.097 271.2 L 159.097 271.2 L 159.097 271.2 Z  M 173.397 271.24 L 173.397 271.24 Q 173.957 271.24 174.297 271.56 L 174.297 271.56 L 174.297 271.56 Q 174.637 271.88 174.637 272.42 L 174.637 272.42 L 174.637 280.32 L 174.637 280.32 Q 174.637 282.62 173.357 283.8 L 173.357 283.8 L 173.357 283.8 Q 172.077 284.98 169.577 284.98 L 169.577 284.98 L 169.577 284.98 Q 167.397 284.98 165.937 284.16 L 165.937 284.16 L 165.937 284.16 Q 165.197 283.72 165.197 283.1 L 165.197 283.1 L 165.197 283.1 Q 165.197 282.66 165.407 282.4 L 165.407 282.4 L 165.407 282.4 Q 165.617 282.14 165.957 282.14 L 165.957 282.14 L 165.957 282.14 Q 166.137 282.14 166.397 282.23 L 166.397 282.23 L 166.397 282.23 Q 166.657 282.32 166.937 282.44 L 166.937 282.44 L 166.937 282.44 Q 167.657 282.74 168.227 282.9 L 168.227 282.9 L 168.227 282.9 Q 168.797 283.06 169.537 283.06 L 169.537 283.06 L 169.537 283.06 Q 172.157 283.06 172.157 280.5 L 172.157 280.5 L 172.157 279.22 L 172.157 279.22 Q 171.717 280.04 170.877 280.49 L 170.877 280.49 L 170.877 280.49 Q 170.037 280.94 168.957 280.94 L 168.957 280.94 L 168.957 280.94 Q 167.677 280.94 166.687 280.33 L 166.687 280.33 L 166.687 280.33 Q 165.697 279.72 165.137 278.62 L 165.137 278.62 L 165.137 278.62 Q 164.577 277.52 164.577 276.08 L 164.577 276.08 L 164.577 276.08 Q 164.577 274.64 165.127 273.53 L 165.127 273.53 L 165.127 273.53 Q 165.677 272.42 166.677 271.81 L 166.677 271.81 L 166.677 271.81 Q 167.677 271.2 168.957 271.2 L 168.957 271.2 L 168.957 271.2 Q 170.037 271.2 170.877 271.65 L 170.877 271.65 L 170.877 271.65 Q 171.717 272.1 172.157 272.92 L 172.157 272.92 L 172.157 272.4 L 172.157 272.4 Q 172.157 271.88 172.497 271.56 L 172.497 271.56 L 172.497 271.56 Q 172.837 271.24 173.397 271.24 L 173.397 271.24 L 173.397 271.24 Z  M 169.617 279 L 169.617 279 Q 170.817 279 171.487 278.22 L 171.487 278.22 L 171.487 278.22 Q 172.157 277.44 172.157 276.08 L 172.157 276.08 L 172.157 276.08 Q 172.157 274.7 171.487 273.92 L 171.487 273.92 L 171.487 273.92 Q 170.817 273.14 169.617 273.14 L 169.617 273.14 L 169.617 273.14 Q 168.437 273.14 167.757 273.92 L 167.757 273.92 L 167.757 273.92 Q 167.077 274.7 167.077 276.08 L 167.077 276.08 L 167.077 276.08 Q 167.077 277.44 167.757 278.22 L 167.757 278.22 L 167.757 278.22 Q 168.437 279 169.617 279 L 169.617 279 L 169.617 279 Z  M 184.957 278.54 L 184.957 278.54 Q 185.297 278.54 185.507 278.8 L 185.507 278.8 L 185.507 278.8 Q 185.717 279.06 185.717 279.5 L 185.717 279.5 L 185.717 279.5 Q 185.717 280.12 184.977 280.54 L 184.977 280.54 L 184.977 280.54 Q 184.297 280.92 183.437 281.15 L 183.437 281.15 L 183.437 281.15 Q 182.577 281.38 181.797 281.38 L 181.797 281.38 L 181.797 281.38 Q 179.437 281.38 178.057 280.02 L 178.057 280.02 L 178.057 280.02 Q 176.677 278.66 176.677 276.3 L 176.677 276.3 L 176.677 276.3 Q 176.677 274.8 177.277 273.64 L 177.277 273.64 L 177.277 273.64 Q 177.877 272.48 178.967 271.84 L 178.967 271.84 L 178.967 271.84 Q 180.057 271.2 181.437 271.2 L 181.437 271.2 L 181.437 271.2 Q 182.757 271.2 183.737 271.78 L 183.737 271.78 L 183.737 271.78 Q 184.717 272.36 185.257 273.42 L 185.257 273.42 L 185.257 273.42 Q 185.797 274.48 185.797 275.92 L 185.797 275.92 L 185.797 275.92 Q 185.797 276.78 185.037 276.78 L 185.037 276.78 L 179.137 276.78 L 179.137 276.78 Q 179.257 278.16 179.917 278.81 L 179.917 278.81 L 179.917 278.81 Q 180.577 279.46 181.837 279.46 L 181.837 279.46 L 181.837 279.46 Q 182.477 279.46 182.967 279.3 L 182.967 279.3 L 182.967 279.3 Q 183.457 279.14 184.077 278.86 L 184.077 278.86 L 184.077 278.86 Q 184.677 278.54 184.957 278.54 L 184.957 278.54 L 184.957 278.54 Z  M 181.497 272.96 L 181.497 272.96 Q 180.477 272.96 179.867 273.6 L 179.867 273.6 L 179.867 273.6 Q 179.257 274.24 179.137 275.44 L 179.137 275.44 L 183.657 275.44 L 183.657 275.44 Q 183.617 274.22 183.057 273.59 L 183.057 273.59 L 183.057 273.59 Q 182.497 272.96 181.497 272.96 L 181.497 272.96 L 181.497 272.96 Z " fill="rgb(26,105,203)"/></g><g><circle vector-effect="non-scaling-stroke" cx="365.1333333333333" cy="334.6333333333333" r="34.60000000000002" fill="rgb(227,78,75)"/><path d=" M 383.118 305.116 C 386.321 310.361 388.2 316.504 388.2 323.1 C 388.2 342.209 372.709 357.7 353.6 357.7 C 347.004 357.7 340.861 355.821 335.616 352.618 C 341.692 362.568 352.62 369.233 365.133 369.233 C 384.242 369.233 399.733 353.742 399.733 334.633 C 399.733 322.12 393.068 311.192 383.118 305.116 Z " fill="rgb(222,69,66)"/></g><g><circle vector-effect="non-scaling-stroke" cx="180.6" cy="201.99999999999997" r="34.599999999999994" fill="rgb(102,114,232)"/><path d=" M 198.584 172.482 C 201.787 177.728 203.667 183.87 203.667 190.467 C 203.667 209.576 188.176 225.067 169.067 225.067 C 162.47 225.067 156.328 223.187 151.082 219.984 C 157.159 229.935 168.087 236.6 180.6 236.6 C 199.709 236.6 215.2 221.109 215.2 202 C 215.2 189.487 208.535 178.559 198.584 172.482 Z " fill="rgb(82,91,186)"/><path d=" M 187.87 151.9 L 187.87 151.9 Q 186.33 151.9 184.96 151.49 L 184.96 151.49 L 184.96 151.49 Q 183.59 151.08 182.73 150.38 L 182.73 150.38 L 182.73 150.38 Q 182.27 150.04 182.27 149.42 L 182.27 149.42 L 182.27 149.42 Q 182.27 149 182.52 148.69 L 182.52 148.69 L 182.52 148.69 Q 182.77 148.38 183.11 148.38 L 183.11 148.38 L 183.11 148.38 Q 183.47 148.38 183.93 148.66 L 183.93 148.66 L 183.93 148.66 Q 184.79 149.28 185.73 149.56 L 185.73 149.56 L 185.73 149.56 Q 186.67 149.84 187.81 149.84 L 187.81 149.84 L 187.81 149.84 Q 189.27 149.84 190.05 149.33 L 190.05 149.33 L 190.05 149.33 Q 190.83 148.82 190.83 147.84 L 190.83 147.84 L 190.83 147.84 Q 190.83 147.08 190.1 146.67 L 190.1 146.67 L 190.1 146.67 Q 189.37 146.26 187.67 145.88 L 187.67 145.88 L 187.67 145.88 Q 185.91 145.5 184.81 145 L 184.81 145 L 184.81 145 Q 183.71 144.5 183.15 143.72 L 183.15 143.72 L 183.15 143.72 Q 182.59 142.94 182.59 141.74 L 182.59 141.74 L 182.59 141.74 Q 182.59 140.5 183.29 139.52 L 183.29 139.52 L 183.29 139.52 Q 183.99 138.54 185.24 137.99 L 185.24 137.99 L 185.24 137.99 Q 186.49 137.44 188.05 137.44 L 188.05 137.44 L 188.05 137.44 Q 190.91 137.44 192.71 138.96 L 192.71 138.96 L 192.71 138.96 Q 192.97 139.18 193.08 139.39 L 193.08 139.39 L 193.08 139.39 Q 193.19 139.6 193.19 139.92 L 193.19 139.92 L 193.19 139.92 Q 193.19 140.34 192.94 140.65 L 192.94 140.65 L 192.94 140.65 Q 192.69 140.96 192.35 140.96 L 192.35 140.96 L 192.35 140.96 Q 192.15 140.96 191.98 140.9 L 191.98 140.9 L 191.98 140.9 Q 191.81 140.84 191.53 140.68 L 191.53 140.68 L 191.53 140.68 Q 190.71 140.08 189.94 139.79 L 189.94 139.79 L 189.94 139.79 Q 189.17 139.5 188.05 139.5 L 188.05 139.5 L 188.05 139.5 Q 186.69 139.5 185.9 140.05 L 185.9 140.05 L 185.9 140.05 Q 185.11 140.6 185.11 141.58 L 185.11 141.58 L 185.11 141.58 Q 185.11 142.4 185.81 142.84 L 185.81 142.84 L 185.81 142.84 Q 186.51 143.28 188.19 143.66 L 188.19 143.66 L 188.19 143.66 Q 189.97 144.06 191.08 144.55 L 191.08 144.55 L 191.08 144.55 Q 192.19 145.04 192.78 145.8 L 192.78 145.8 L 192.78 145.8 Q 193.37 146.56 193.37 147.7 L 193.37 147.7 L 193.37 147.7 Q 193.37 148.94 192.68 149.89 L 192.68 149.89 L 192.68 149.89 Q 191.99 150.84 190.74 151.37 L 190.74 151.37 L 190.74 151.37 Q 189.49 151.9 187.87 151.9 L 187.87 151.9 L 187.87 151.9 Z  M 202.19 142.46 L 202.19 142.46 Q 202.35 142.1 202.62 141.93 L 202.62 141.93 L 202.62 141.93 Q 202.89 141.76 203.21 141.76 L 203.21 141.76 L 203.21 141.76 Q 203.67 141.76 204.04 142.07 L 204.04 142.07 L 204.04 142.07 Q 204.41 142.38 204.41 142.84 L 204.41 142.84 L 204.41 142.84 Q 204.41 143.06 204.29 143.3 L 204.29 143.3 L 198.83 154.74 L 198.83 154.74 Q 198.49 155.42 197.77 155.42 L 197.77 155.42 L 197.77 155.42 Q 197.31 155.42 196.96 155.13 L 196.96 155.13 L 196.96 155.13 Q 196.61 154.84 196.61 154.4 L 196.61 154.4 L 196.61 154.4 Q 196.61 154.18 196.73 153.9 L 196.73 153.9 L 198.09 151.04 L 194.37 143.3 L 194.37 143.3 Q 194.27 143.1 194.27 142.84 L 194.27 142.84 L 194.27 142.84 Q 194.27 142.38 194.66 142.06 L 194.66 142.06 L 194.66 142.06 Q 195.05 141.74 195.55 141.74 L 195.55 141.74 L 195.55 141.74 Q 195.89 141.74 196.17 141.91 L 196.17 141.91 L 196.17 141.91 Q 196.45 142.08 196.61 142.44 L 196.61 142.44 L 199.41 148.62 L 202.19 142.46 L 202.19 142.46 Z  M 217.51 141.7 L 217.51 141.7 Q 219.11 141.7 219.96 142.65 L 219.96 142.65 L 219.96 142.65 Q 220.81 143.6 220.81 145.72 L 220.81 145.72 L 220.81 150.64 L 220.81 150.64 Q 220.81 151.22 220.46 151.53 L 220.46 151.53 L 220.46 151.53 Q 220.11 151.84 219.55 151.84 L 219.55 151.84 L 219.55 151.84 Q 219.01 151.84 218.66 151.53 L 218.66 151.53 L 218.66 151.53 Q 218.31 151.22 218.31 150.64 L 218.31 150.64 L 218.31 145.72 L 218.31 145.72 Q 218.31 144.62 217.92 144.15 L 217.92 144.15 L 217.92 144.15 Q 217.53 143.68 216.73 143.68 L 216.73 143.68 L 216.73 143.68 Q 215.75 143.68 215.17 144.35 L 215.17 144.35 L 215.17 144.35 Q 214.59 145.02 214.59 146.18 L 214.59 146.18 L 214.59 150.64 L 214.59 150.64 Q 214.59 151.22 214.24 151.53 L 214.24 151.53 L 214.24 151.53 Q 213.89 151.84 213.35 151.84 L 213.35 151.84 L 213.35 151.84 Q 212.81 151.84 212.45 151.53 L 212.45 151.53 L 212.45 151.53 Q 212.09 151.22 212.09 150.64 L 212.09 150.64 L 212.09 145.72 L 212.09 145.72 Q 212.09 144.62 211.7 144.15 L 211.7 144.15 L 211.7 144.15 Q 211.31 143.68 210.51 143.68 L 210.51 143.68 L 210.51 143.68 Q 209.53 143.68 208.96 144.35 L 208.96 144.35 L 208.96 144.35 Q 208.39 145.02 208.39 146.18 L 208.39 146.18 L 208.39 150.64 L 208.39 150.64 Q 208.39 151.22 208.03 151.53 L 208.03 151.53 L 208.03 151.53 Q 207.67 151.84 207.13 151.84 L 207.13 151.84 L 207.13 151.84 Q 206.59 151.84 206.24 151.53 L 206.24 151.53 L 206.24 151.53 Q 205.89 151.22 205.89 150.64 L 205.89 150.64 L 205.89 142.9 L 205.89 142.9 Q 205.89 142.34 206.25 142.04 L 206.25 142.04 L 206.25 142.04 Q 206.61 141.74 207.15 141.74 L 207.15 141.74 L 207.15 141.74 Q 207.67 141.74 208 142.03 L 208 142.03 L 208 142.03 Q 208.33 142.32 208.33 142.86 L 208.33 142.86 L 208.33 143.34 L 208.33 143.34 Q 208.79 142.54 209.56 142.12 L 209.56 142.12 L 209.56 142.12 Q 210.33 141.7 211.33 141.7 L 211.33 141.7 L 211.33 141.7 Q 213.53 141.7 214.27 143.54 L 214.27 143.54 L 214.27 143.54 Q 214.71 142.7 215.57 142.2 L 215.57 142.2 L 215.57 142.2 Q 216.43 141.7 217.51 141.7 L 217.51 141.7 L 217.51 141.7 Z  M 228.97 141.7 L 228.97 141.7 Q 230.25 141.7 231.23 142.32 L 231.23 142.32 L 231.23 142.32 Q 232.21 142.94 232.76 144.08 L 232.76 144.08 L 232.76 144.08 Q 233.31 145.22 233.31 146.74 L 233.31 146.74 L 233.31 146.74 Q 233.31 148.26 232.76 149.43 L 232.76 149.43 L 232.76 149.43 Q 232.21 150.6 231.22 151.24 L 231.22 151.24 L 231.22 151.24 Q 230.23 151.88 228.97 151.88 L 228.97 151.88 L 228.97 151.88 Q 227.91 151.88 227.08 151.42 L 227.08 151.42 L 227.08 151.42 Q 226.25 150.96 225.81 150.14 L 225.81 150.14 L 225.81 150.64 L 225.81 150.64 Q 225.81 151.18 225.47 151.5 L 225.47 151.5 L 225.47 151.5 Q 225.13 151.82 224.57 151.82 L 224.57 151.82 L 224.57 151.82 Q 224.01 151.82 223.68 151.5 L 223.68 151.5 L 223.68 151.5 Q 223.35 151.18 223.35 150.64 L 223.35 150.64 L 223.35 138.68 L 223.35 138.68 Q 223.35 138.16 223.7 137.84 L 223.7 137.84 L 223.7 137.84 Q 224.05 137.52 224.61 137.52 L 224.61 137.52 L 224.61 137.52 Q 225.17 137.52 225.51 137.82 L 225.51 137.82 L 225.51 137.82 Q 225.85 138.12 225.85 138.64 L 225.85 138.64 L 225.85 143.36 L 225.85 143.36 Q 226.29 142.56 227.11 142.13 L 227.11 142.13 L 227.11 142.13 Q 227.93 141.7 228.97 141.7 L 228.97 141.7 L 228.97 141.7 Z  M 228.31 149.94 L 228.31 149.94 Q 229.49 149.94 230.15 149.1 L 230.15 149.1 L 230.15 149.1 Q 230.81 148.26 230.81 146.74 L 230.81 146.74 L 230.81 146.74 Q 230.81 145.24 230.16 144.44 L 230.16 144.44 L 230.16 144.44 Q 229.51 143.64 228.31 143.64 L 228.31 143.64 L 228.31 143.64 Q 227.11 143.64 226.46 144.45 L 226.46 144.45 L 226.46 144.45 Q 225.81 145.26 225.81 146.78 L 225.81 146.78 L 225.81 146.78 Q 225.81 148.3 226.46 149.12 L 226.46 149.12 L 226.46 149.12 Q 227.11 149.94 228.31 149.94 L 228.31 149.94 L 228.31 149.94 Z  M 239.83 151.88 L 239.83 151.88 Q 238.33 151.88 237.2 151.26 L 237.2 151.26 L 237.2 151.26 Q 236.07 150.64 235.45 149.48 L 235.45 149.48 L 235.45 149.48 Q 234.83 148.32 234.83 146.78 L 234.83 146.78 L 234.83 146.78 Q 234.83 145.24 235.45 144.09 L 235.45 144.09 L 235.45 144.09 Q 236.07 142.94 237.2 142.32 L 237.2 142.32 L 237.2 142.32 Q 238.33 141.7 239.83 141.7 L 239.83 141.7 L 239.83 141.7 Q 241.33 141.7 242.46 142.32 L 242.46 142.32 L 242.46 142.32 Q 243.59 142.94 244.2 144.09 L 244.2 144.09 L 244.2 144.09 Q 244.81 145.24 244.81 146.78 L 244.81 146.78 L 244.81 146.78 Q 244.81 148.32 244.2 149.48 L 244.2 149.48 L 244.2 149.48 Q 243.59 150.64 242.46 151.26 L 242.46 151.26 L 242.46 151.26 Q 241.33 151.88 239.83 151.88 L 239.83 151.88 L 239.83 151.88 Z  M 239.81 149.94 L 239.81 149.94 Q 241.03 149.94 241.67 149.14 L 241.67 149.14 L 241.67 149.14 Q 242.31 148.34 242.31 146.78 L 242.31 146.78 L 242.31 146.78 Q 242.31 145.24 241.67 144.43 L 241.67 144.43 L 241.67 144.43 Q 241.03 143.62 239.83 143.62 L 239.83 143.62 L 239.83 143.62 Q 238.63 143.62 237.98 144.43 L 237.98 144.43 L 237.98 144.43 Q 237.33 145.24 237.33 146.78 L 237.33 146.78 L 237.33 146.78 Q 237.33 148.34 237.97 149.14 L 237.97 149.14 L 237.97 149.14 Q 238.61 149.94 239.81 149.94 L 239.81 149.94 L 239.81 149.94 Z  M 248.11 151.84 L 248.11 151.84 Q 247.57 151.84 247.22 151.53 L 247.22 151.53 L 247.22 151.53 Q 246.87 151.22 246.87 150.64 L 246.87 150.64 L 246.87 138.7 L 246.87 138.7 Q 246.87 138.12 247.22 137.82 L 247.22 137.82 L 247.22 137.82 Q 247.57 137.52 248.11 137.52 L 248.11 137.52 L 248.11 137.52 Q 248.65 137.52 249.01 137.82 L 249.01 137.82 L 249.01 137.82 Q 249.37 138.12 249.37 138.7 L 249.37 138.7 L 249.37 150.64 L 249.37 150.64 Q 249.37 151.22 249.01 151.53 L 249.01 151.53 L 249.01 151.53 Q 248.65 151.84 248.11 151.84 L 248.11 151.84 L 248.11 151.84 Z  M 115.89 151.9 L 115.89 151.9 Q 112.99 151.9 111.49 150.4 L 111.49 150.4 L 111.49 150.4 Q 109.99 148.9 109.99 146.02 L 109.99 146.02 L 109.99 138.8 L 109.99 138.8 Q 109.99 138.22 110.33 137.87 L 110.33 137.87 L 110.33 137.87 Q 110.67 137.52 111.25 137.52 L 111.25 137.52 L 111.25 137.52 Q 111.83 137.52 112.17 137.87 L 112.17 137.87 L 112.17 137.87 Q 112.51 138.22 112.51 138.8 L 112.51 138.8 L 112.51 146.16 L 112.51 146.16 Q 112.51 147.98 113.37 148.91 L 113.37 148.91 L 113.37 148.91 Q 114.23 149.84 115.89 149.84 L 115.89 149.84 L 115.89 149.84 Q 117.53 149.84 118.39 148.9 L 118.39 148.9 L 118.39 148.9 Q 119.25 147.96 119.25 146.16 L 119.25 146.16 L 119.25 138.8 L 119.25 138.8 Q 119.25 138.22 119.59 137.87 L 119.59 137.87 L 119.59 137.87 Q 119.93 137.52 120.51 137.52 L 120.51 137.52 L 120.51 137.52 Q 121.09 137.52 121.43 137.87 L 121.43 137.87 L 121.43 137.87 Q 121.77 138.22 121.77 138.8 L 121.77 138.8 L 121.77 146.02 L 121.77 146.02 Q 121.77 148.88 120.27 150.39 L 120.27 150.39 L 120.27 150.39 Q 118.77 151.9 115.89 151.9 L 115.89 151.9 L 115.89 151.9 Z  M 130.13 141.7 L 130.13 141.7 Q 131.39 141.7 132.38 142.34 L 132.38 142.34 L 132.38 142.34 Q 133.37 142.98 133.92 144.15 L 133.92 144.15 L 133.92 144.15 Q 134.47 145.32 134.47 146.84 L 134.47 146.84 L 134.47 146.84 Q 134.47 148.36 133.92 149.5 L 133.92 149.5 L 133.92 149.5 Q 133.37 150.64 132.39 151.26 L 132.39 151.26 L 132.39 151.26 Q 131.41 151.88 130.13 151.88 L 130.13 151.88 L 130.13 151.88 Q 129.09 151.88 128.27 151.44 L 128.27 151.44 L 128.27 151.44 Q 127.45 151 127.01 150.22 L 127.01 150.22 L 127.01 154.3 L 127.01 154.3 Q 127.01 154.82 126.67 155.12 L 126.67 155.12 L 126.67 155.12 Q 126.33 155.42 125.77 155.42 L 125.77 155.42 L 125.77 155.42 Q 125.21 155.42 124.86 155.1 L 124.86 155.1 L 124.86 155.1 Q 124.51 154.78 124.51 154.26 L 124.51 154.26 L 124.51 142.92 L 124.51 142.92 Q 124.51 142.38 124.84 142.06 L 124.84 142.06 L 124.84 142.06 Q 125.17 141.74 125.73 141.74 L 125.73 141.74 L 125.73 141.74 Q 126.29 141.74 126.63 142.06 L 126.63 142.06 L 126.63 142.06 Q 126.97 142.38 126.97 142.92 L 126.97 142.92 L 126.97 143.42 L 126.97 143.42 Q 127.41 142.6 128.24 142.15 L 128.24 142.15 L 128.24 142.15 Q 129.07 141.7 130.13 141.7 L 130.13 141.7 L 130.13 141.7 Z  M 129.47 149.94 L 129.47 149.94 Q 130.65 149.94 131.31 149.13 L 131.31 149.13 L 131.31 149.13 Q 131.97 148.32 131.97 146.84 L 131.97 146.84 L 131.97 146.84 Q 131.97 145.32 131.31 144.48 L 131.31 144.48 L 131.31 144.48 Q 130.65 143.64 129.47 143.64 L 129.47 143.64 L 129.47 143.64 Q 128.27 143.64 127.62 144.46 L 127.62 144.46 L 127.62 144.46 Q 126.97 145.28 126.97 146.8 L 126.97 146.8 L 126.97 146.8 Q 126.97 148.3 127.62 149.12 L 127.62 149.12 L 127.62 149.12 Q 128.27 149.94 129.47 149.94 L 129.47 149.94 L 129.47 149.94 Z  M 144.69 137.52 L 144.69 137.52 Q 145.25 137.52 145.61 137.84 L 145.61 137.84 L 145.61 137.84 Q 145.97 138.16 145.97 138.68 L 145.97 138.68 L 145.97 150.64 L 145.97 150.64 Q 145.97 151.18 145.63 151.5 L 145.63 151.5 L 145.63 151.5 Q 145.29 151.82 144.73 151.82 L 144.73 151.82 L 144.73 151.82 Q 144.17 151.82 143.83 151.5 L 143.83 151.5 L 143.83 151.5 Q 143.49 151.18 143.49 150.64 L 143.49 150.64 L 143.49 150.14 L 143.49 150.14 Q 143.05 150.96 142.22 151.42 L 142.22 151.42 L 142.22 151.42 Q 141.39 151.88 140.33 151.88 L 140.33 151.88 L 140.33 151.88 Q 139.07 151.88 138.08 151.24 L 138.08 151.24 L 138.08 151.24 Q 137.09 150.6 136.54 149.43 L 136.54 149.43 L 136.54 149.43 Q 135.99 148.26 135.99 146.74 L 135.99 146.74 L 135.99 146.74 Q 135.99 145.22 136.54 144.08 L 136.54 144.08 L 136.54 144.08 Q 137.09 142.94 138.07 142.32 L 138.07 142.32 L 138.07 142.32 Q 139.05 141.7 140.33 141.7 L 140.33 141.7 L 140.33 141.7 Q 141.39 141.7 142.21 142.14 L 142.21 142.14 L 142.21 142.14 Q 143.03 142.58 143.47 143.38 L 143.47 143.38 L 143.47 138.64 L 143.47 138.64 Q 143.47 138.14 143.8 137.83 L 143.8 137.83 L 143.8 137.83 Q 144.13 137.52 144.69 137.52 L 144.69 137.52 L 144.69 137.52 Z  M 140.99 149.94 L 140.99 149.94 Q 142.19 149.94 142.84 149.12 L 142.84 149.12 L 142.84 149.12 Q 143.49 148.3 143.49 146.78 L 143.49 146.78 L 143.49 146.78 Q 143.49 145.26 142.84 144.45 L 142.84 144.45 L 142.84 144.45 Q 142.19 143.64 141.01 143.64 L 141.01 143.64 L 141.01 143.64 Q 139.81 143.64 139.15 144.44 L 139.15 144.44 L 139.15 144.44 Q 138.49 145.24 138.49 146.74 L 138.49 146.74 L 138.49 146.74 Q 138.49 148.26 139.15 149.1 L 139.15 149.1 L 139.15 149.1 Q 139.81 149.94 140.99 149.94 L 140.99 149.94 L 140.99 149.94 Z  M 152.79 141.7 L 152.79 141.7 Q 154.83 141.7 155.82 142.71 L 155.82 142.71 L 155.82 142.71 Q 156.81 143.72 156.81 145.78 L 156.81 145.78 L 156.81 150.66 L 156.81 150.66 Q 156.81 151.2 156.49 151.51 L 156.49 151.51 L 156.49 151.51 Q 156.17 151.82 155.61 151.82 L 155.61 151.82 L 155.61 151.82 Q 155.09 151.82 154.76 151.5 L 154.76 151.5 L 154.76 151.5 Q 154.43 151.18 154.43 150.66 L 154.43 150.66 L 154.43 150.22 L 154.43 150.22 Q 154.09 151 153.36 151.44 L 153.36 151.44 L 153.36 151.44 Q 152.63 151.88 151.67 151.88 L 151.67 151.88 L 151.67 151.88 Q 150.69 151.88 149.89 151.48 L 149.89 151.48 L 149.89 151.48 Q 149.09 151.08 148.63 150.38 L 148.63 150.38 L 148.63 150.38 Q 148.17 149.68 148.17 148.82 L 148.17 148.82 L 148.17 148.82 Q 148.17 147.74 148.72 147.12 L 148.72 147.12 L 148.72 147.12 Q 149.27 146.5 150.51 146.22 L 150.51 146.22 L 150.51 146.22 Q 151.75 145.94 153.93 145.94 L 153.93 145.94 L 154.43 145.94 L 154.43 145.48 L 154.43 145.48 Q 154.43 144.5 154.01 144.05 L 154.01 144.05 L 154.01 144.05 Q 153.59 143.6 152.65 143.6 L 152.65 143.6 L 152.65 143.6 Q 152.07 143.6 151.47 143.77 L 151.47 143.77 L 151.47 143.77 Q 150.87 143.94 150.05 144.26 L 150.05 144.26 L 150.05 144.26 Q 149.53 144.52 149.29 144.52 L 149.29 144.52 L 149.29 144.52 Q 148.93 144.52 148.7 144.26 L 148.7 144.26 L 148.7 144.26 Q 148.47 144 148.47 143.58 L 148.47 143.58 L 148.47 143.58 Q 148.47 143.24 148.64 142.99 L 148.64 142.99 L 148.64 142.99 Q 148.81 142.74 149.21 142.52 L 149.21 142.52 L 149.21 142.52 Q 149.91 142.14 150.88 141.92 L 150.88 141.92 L 150.88 141.92 Q 151.85 141.7 152.79 141.7 L 152.79 141.7 L 152.79 141.7 Z  M 152.17 150.08 L 152.17 150.08 Q 153.17 150.08 153.8 149.41 L 153.8 149.41 L 153.8 149.41 Q 154.43 148.74 154.43 147.68 L 154.43 147.68 L 154.43 147.26 L 154.07 147.26 L 154.07 147.26 Q 152.73 147.26 151.99 147.38 L 151.99 147.38 L 151.99 147.38 Q 151.25 147.5 150.93 147.8 L 150.93 147.8 L 150.93 147.8 Q 150.61 148.1 150.61 148.62 L 150.61 148.62 L 150.61 148.62 Q 150.61 149.26 151.06 149.67 L 151.06 149.67 L 151.06 149.67 Q 151.51 150.08 152.17 150.08 L 152.17 150.08 L 152.17 150.08 Z  M 164.43 149.98 L 164.43 149.98 Q 165.43 150.04 165.43 150.88 L 165.43 150.88 L 165.43 150.88 Q 165.43 151.36 165.04 151.61 L 165.04 151.61 L 165.04 151.61 Q 164.65 151.86 163.93 151.82 L 163.93 151.82 L 163.39 151.78 L 163.39 151.78 Q 160.03 151.54 160.03 148.18 L 160.03 148.18 L 160.03 143.82 L 159.03 143.82 L 159.03 143.82 Q 158.49 143.82 158.2 143.58 L 158.2 143.58 L 158.2 143.58 Q 157.91 143.34 157.91 142.88 L 157.91 142.88 L 157.91 142.88 Q 157.91 142.42 158.2 142.18 L 158.2 142.18 L 158.2 142.18 Q 158.49 141.94 159.03 141.94 L 159.03 141.94 L 160.03 141.94 L 160.03 140.1 L 160.03 140.1 Q 160.03 139.56 160.37 139.24 L 160.37 139.24 L 160.37 139.24 Q 160.71 138.92 161.29 138.92 L 161.29 138.92 L 161.29 138.92 Q 161.85 138.92 162.19 139.24 L 162.19 139.24 L 162.19 139.24 Q 162.53 139.56 162.53 140.1 L 162.53 140.1 L 162.53 141.94 L 164.23 141.94 L 164.23 141.94 Q 164.77 141.94 165.06 142.18 L 165.06 142.18 L 165.06 142.18 Q 165.35 142.42 165.35 142.88 L 165.35 142.88 L 165.35 142.88 Q 165.35 143.34 165.06 143.58 L 165.06 143.58 L 165.06 143.58 Q 164.77 143.82 164.23 143.82 L 164.23 143.82 L 162.53 143.82 L 162.53 148.36 L 162.53 148.36 Q 162.53 149.84 163.89 149.94 L 163.89 149.94 L 164.43 149.98 L 164.43 149.98 Z  M 174.47 149.04 L 174.47 149.04 Q 174.81 149.04 175.02 149.3 L 175.02 149.3 L 175.02 149.3 Q 175.23 149.56 175.23 150 L 175.23 150 L 175.23 150 Q 175.23 150.62 174.49 151.04 L 174.49 151.04 L 174.49 151.04 Q 173.81 151.42 172.95 151.65 L 172.95 151.65 L 172.95 151.65 Q 172.09 151.88 171.31 151.88 L 171.31 151.88 L 171.31 151.88 Q 168.95 151.88 167.57 150.52 L 167.57 150.52 L 167.57 150.52 Q 166.19 149.16 166.19 146.8 L 166.19 146.8 L 166.19 146.8 Q 166.19 145.3 166.79 144.14 L 166.79 144.14 L 166.79 144.14 Q 167.39 142.98 168.48 142.34 L 168.48 142.34 L 168.48 142.34 Q 169.57 141.7 170.95 141.7 L 170.95 141.7 L 170.95 141.7 Q 172.27 141.7 173.25 142.28 L 173.25 142.28 L 173.25 142.28 Q 174.23 142.86 174.77 143.92 L 174.77 143.92 L 174.77 143.92 Q 175.31 144.98 175.31 146.42 L 175.31 146.42 L 175.31 146.42 Q 175.31 147.28 174.55 147.28 L 174.55 147.28 L 168.65 147.28 L 168.65 147.28 Q 168.77 148.66 169.43 149.31 L 169.43 149.31 L 169.43 149.31 Q 170.09 149.96 171.35 149.96 L 171.35 149.96 L 171.35 149.96 Q 171.99 149.96 172.48 149.8 L 172.48 149.8 L 172.48 149.8 Q 172.97 149.64 173.59 149.36 L 173.59 149.36 L 173.59 149.36 Q 174.19 149.04 174.47 149.04 L 174.47 149.04 L 174.47 149.04 Z  M 171.01 143.46 L 171.01 143.46 Q 169.99 143.46 169.38 144.1 L 169.38 144.1 L 169.38 144.1 Q 168.77 144.74 168.65 145.94 L 168.65 145.94 L 173.17 145.94 L 173.17 145.94 Q 173.13 144.72 172.57 144.09 L 172.57 144.09 L 172.57 144.09 Q 172.01 143.46 171.01 143.46 L 171.01 143.46 L 171.01 143.46 Z " fill="rgb(82,91,186)"/></g><g><path d=" M 203.667 375 C 223.96 375 240.76 359.929 243.573 340.4 L 305.079 340.4 L 297.623 347.856 L 305.777 356.011 L 323.077 338.711 C 324.203 337.584 324.767 336.109 324.767 334.633 C 324.767 333.158 324.203 331.682 323.077 330.556 L 305.777 313.256 L 297.623 321.411 L 305.079 328.867 L 243.573 328.867 C 240.76 309.337 223.96 294.267 203.667 294.267 C 181.411 294.267 163.3 312.375 163.3 334.633 C 163.3 356.892 181.411 375 203.667 375 L 203.667 375 Z  M 203.667 305.8 C 219.564 305.8 232.5 318.736 232.5 334.633 C 232.5 350.531 219.564 363.467 203.667 363.467 C 187.769 363.467 174.833 350.531 174.833 334.633 C 174.833 318.736 187.769 305.8 203.667 305.8 Z " fill="rgb(13,15,35)"/><path d=" M 365.133 375 C 387.389 375 405.5 356.892 405.5 334.633 C 405.5 312.375 387.389 294.267 365.133 294.267 C 342.878 294.267 324.767 312.375 324.767 334.633 C 324.767 356.892 342.878 375 365.133 375 Z  M 365.133 305.8 C 381.031 305.8 393.967 318.736 393.967 334.633 C 393.967 350.531 381.031 363.467 365.133 363.467 C 349.236 363.467 336.3 350.531 336.3 334.633 C 336.3 318.736 349.236 305.8 365.133 305.8 Z " fill="rgb(13,15,35)"/><path d=" M 180.6 161.633 C 160.307 161.633 143.507 176.704 140.694 196.233 L 131.583 196.233 C 91.836 196.233 59.5 228.569 59.5 268.317 C 59.5 308.064 91.836 340.4 131.583 340.4 L 143.612 340.4 L 136.156 347.856 L 144.311 356.011 L 161.611 338.711 C 162.737 337.584 163.3 336.109 163.3 334.633 C 163.3 333.158 162.737 331.682 161.611 330.556 L 144.311 313.256 L 136.156 321.411 L 143.612 328.867 L 131.583 328.867 C 98.194 328.867 71.033 301.703 71.033 268.317 C 71.033 234.93 98.194 207.767 131.583 207.767 L 140.694 207.767 C 143.507 227.296 160.307 242.367 180.6 242.367 C 202.856 242.367 220.967 224.259 220.967 202 C 220.967 179.741 202.856 161.633 180.6 161.633 L 180.6 161.633 Z  M 180.6 230.833 C 164.702 230.833 151.767 217.898 151.767 202 C 151.767 186.102 164.702 173.167 180.6 173.167 C 196.498 173.167 209.433 186.102 209.433 202 C 209.433 217.898 196.498 230.833 180.6 230.833 Z " fill="rgb(13,15,35)"/><path d=" M 201.977 47.989 L 193.823 56.144 L 201.279 63.6 L 139.773 63.6 C 136.96 44.071 120.16 29 99.867 29 C 77.611 29 59.5 47.108 59.5 69.367 C 59.5 91.625 77.611 109.733 99.867 109.733 C 120.16 109.733 136.96 94.663 139.773 75.133 L 201.279 75.133 L 193.823 82.589 L 201.977 90.744 L 219.277 73.444 C 220.403 72.318 220.967 70.842 220.967 69.367 C 220.967 67.891 220.403 66.416 219.277 65.289 L 201.977 47.989 Z  M 99.867 98.2 C 83.969 98.2 71.033 85.264 71.033 69.367 C 71.033 53.469 83.969 40.533 99.867 40.533 C 115.764 40.533 128.7 53.469 128.7 69.367 C 128.7 85.264 115.764 98.2 99.867 98.2 Z " fill="rgb(13,15,35)"/><path d=" M 405.5 135.683 C 405.5 95.936 373.164 63.6 333.417 63.6 L 301.24 63.6 C 298.426 44.071 281.626 29 261.333 29 C 239.078 29 220.967 47.108 220.967 69.367 C 220.967 91.625 239.078 109.733 261.333 109.733 C 281.626 109.733 298.426 94.663 301.24 75.133 L 333.417 75.133 C 366.806 75.133 393.967 102.297 393.967 135.683 C 393.967 169.07 366.806 196.233 333.417 196.233 L 240.654 196.233 L 248.111 188.777 L 239.956 180.623 L 222.656 197.923 C 221.53 199.049 220.967 200.525 220.967 202 C 220.967 203.475 221.53 204.951 222.656 206.077 L 239.956 223.377 L 248.111 215.223 L 240.654 207.767 L 333.417 207.767 C 373.164 207.767 405.5 175.431 405.5 135.683 Z  M 261.333 98.2 C 245.436 98.2 232.5 85.264 232.5 69.367 C 232.5 53.469 245.436 40.533 261.333 40.533 C 277.231 40.533 290.167 53.469 290.167 69.367 C 290.167 85.264 277.231 98.2 261.333 98.2 Z " fill="rgb(13,15,35)"/></g></g><path d=" M 256.273 20.4 L 256.273 20.4 Q 254.733 20.4 253.363 19.99 L 253.363 19.99 L 253.363 19.99 Q 251.993 19.58 251.133 18.88 L 251.133 18.88 L 251.133 18.88 Q 250.673 18.54 250.673 17.92 L 250.673 17.92 L 250.673 17.92 Q 250.673 17.5 250.923 17.19 L 250.923 17.19 L 250.923 17.19 Q 251.173 16.88 251.513 16.88 L 251.513 16.88 L 251.513 16.88 Q 251.873 16.88 252.333 17.16 L 252.333 17.16 L 252.333 17.16 Q 253.193 17.78 254.133 18.06 L 254.133 18.06 L 254.133 18.06 Q 255.073 18.34 256.213 18.34 L 256.213 18.34 L 256.213 18.34 Q 257.673 18.34 258.453 17.83 L 258.453 17.83 L 258.453 17.83 Q 259.233 17.32 259.233 16.34 L 259.233 16.34 L 259.233 16.34 Q 259.233 15.58 258.503 15.17 L 258.503 15.17 L 258.503 15.17 Q 257.773 14.76 256.073 14.38 L 256.073 14.38 L 256.073 14.38 Q 254.313 14 253.213 13.5 L 253.213 13.5 L 253.213 13.5 Q 252.113 13 251.553 12.22 L 251.553 12.22 L 251.553 12.22 Q 250.993 11.44 250.993 10.24 L 250.993 10.24 L 250.993 10.24 Q 250.993 9 251.693 8.02 L 251.693 8.02 L 251.693 8.02 Q 252.393 7.04 253.643 6.49 L 253.643 6.49 L 253.643 6.49 Q 254.893 5.94 256.453 5.94 L 256.453 5.94 L 256.453 5.94 Q 259.313 5.94 261.113 7.46 L 261.113 7.46 L 261.113 7.46 Q 261.373 7.68 261.483 7.89 L 261.483 7.89 L 261.483 7.89 Q 261.593 8.1 261.593 8.42 L 261.593 8.42 L 261.593 8.42 Q 261.593 8.84 261.343 9.15 L 261.343 9.15 L 261.343 9.15 Q 261.093 9.46 260.753 9.46 L 260.753 9.46 L 260.753 9.46 Q 260.553 9.46 260.383 9.4 L 260.383 9.4 L 260.383 9.4 Q 260.213 9.34 259.933 9.18 L 259.933 9.18 L 259.933 9.18 Q 259.113 8.58 258.343 8.29 L 258.343 8.29 L 258.343 8.29 Q 257.573 8 256.453 8 L 256.453 8 L 256.453 8 Q 255.093 8 254.303 8.55 L 254.303 8.55 L 254.303 8.55 Q 253.513 9.1 253.513 10.08 L 253.513 10.08 L 253.513 10.08 Q 253.513 10.9 254.213 11.34 L 254.213 11.34 L 254.213 11.34 Q 254.913 11.78 256.593 12.16 L 256.593 12.16 L 256.593 12.16 Q 258.373 12.56 259.483 13.05 L 259.483 13.05 L 259.483 13.05 Q 260.593 13.54 261.183 14.3 L 261.183 14.3 L 261.183 14.3 Q 261.773 15.06 261.773 16.2 L 261.773 16.2 L 261.773 16.2 Q 261.773 17.44 261.083 18.39 L 261.083 18.39 L 261.083 18.39 Q 260.393 19.34 259.143 19.87 L 259.143 19.87 L 259.143 19.87 Q 257.893 20.4 256.273 20.4 L 256.273 20.4 L 256.273 20.4 Z  M 271.673 17.54 L 271.673 17.54 Q 272.013 17.54 272.223 17.8 L 272.223 17.8 L 272.223 17.8 Q 272.433 18.06 272.433 18.5 L 272.433 18.5 L 272.433 18.5 Q 272.433 19.12 271.693 19.54 L 271.693 19.54 L 271.693 19.54 Q 271.013 19.92 270.153 20.15 L 270.153 20.15 L 270.153 20.15 Q 269.293 20.38 268.513 20.38 L 268.513 20.38 L 268.513 20.38 Q 266.153 20.38 264.773 19.02 L 264.773 19.02 L 264.773 19.02 Q 263.393 17.66 263.393 15.3 L 263.393 15.3 L 263.393 15.3 Q 263.393 13.8 263.993 12.64 L 263.993 12.64 L 263.993 12.64 Q 264.593 11.48 265.683 10.84 L 265.683 10.84 L 265.683 10.84 Q 266.773 10.2 268.153 10.2 L 268.153 10.2 L 268.153 10.2 Q 269.473 10.2 270.453 10.78 L 270.453 10.78 L 270.453 10.78 Q 271.433 11.36 271.973 12.42 L 271.973 12.42 L 271.973 12.42 Q 272.513 13.48 272.513 14.92 L 272.513 14.92 L 272.513 14.92 Q 272.513 15.78 271.753 15.78 L 271.753 15.78 L 265.853 15.78 L 265.853 15.78 Q 265.973 17.16 266.633 17.81 L 266.633 17.81 L 266.633 17.81 Q 267.293 18.46 268.553 18.46 L 268.553 18.46 L 268.553 18.46 Q 269.193 18.46 269.683 18.3 L 269.683 18.3 L 269.683 18.3 Q 270.173 18.14 270.793 17.86 L 270.793 17.86 L 270.793 17.86 Q 271.393 17.54 271.673 17.54 L 271.673 17.54 L 271.673 17.54 Z  M 268.213 11.96 L 268.213 11.96 Q 267.193 11.96 266.583 12.6 L 266.583 12.6 L 266.583 12.6 Q 265.973 13.24 265.853 14.44 L 265.853 14.44 L 270.373 14.44 L 270.373 14.44 Q 270.333 13.22 269.773 12.59 L 269.773 12.59 L 269.773 12.59 Q 269.213 11.96 268.213 11.96 L 268.213 11.96 L 268.213 11.96 Z  M 278.893 20.38 L 278.893 20.38 Q 277.433 20.38 276.323 19.76 L 276.323 19.76 L 276.323 19.76 Q 275.213 19.14 274.613 18 L 274.613 18 L 274.613 18 Q 274.013 16.86 274.013 15.34 L 274.013 15.34 L 274.013 15.34 Q 274.013 13.82 274.643 12.65 L 274.643 12.65 L 274.643 12.65 Q 275.273 11.48 276.413 10.84 L 276.413 10.84 L 276.413 10.84 Q 277.553 10.2 279.033 10.2 L 279.033 10.2 L 279.033 10.2 Q 279.813 10.2 280.603 10.42 L 280.603 10.42 L 280.603 10.42 Q 281.393 10.64 281.993 11.02 L 281.993 11.02 L 281.993 11.02 Q 282.633 11.44 282.633 12.08 L 282.633 12.08 L 282.633 12.08 Q 282.633 12.52 282.423 12.79 L 282.423 12.79 L 282.423 12.79 Q 282.213 13.06 281.873 13.06 L 281.873 13.06 L 281.873 13.06 Q 281.653 13.06 281.413 12.96 L 281.413 12.96 L 281.413 12.96 Q 281.173 12.86 280.933 12.72 L 280.933 12.72 L 280.933 12.72 Q 280.493 12.46 280.093 12.31 L 280.093 12.31 L 280.093 12.31 Q 279.693 12.16 279.173 12.16 L 279.173 12.16 L 279.173 12.16 Q 277.933 12.16 277.263 12.97 L 277.263 12.97 L 277.263 12.97 Q 276.593 13.78 276.593 15.3 L 276.593 15.3 L 276.593 15.3 Q 276.593 16.8 277.263 17.61 L 277.263 17.61 L 277.263 17.61 Q 277.933 18.42 279.173 18.42 L 279.173 18.42 L 279.173 18.42 Q 279.673 18.42 280.063 18.27 L 280.063 18.27 L 280.063 18.27 Q 280.453 18.12 280.933 17.86 L 280.933 17.86 L 280.933 17.86 Q 281.233 17.68 281.453 17.59 L 281.453 17.59 L 281.453 17.59 Q 281.673 17.5 281.893 17.5 L 281.893 17.5 L 281.893 17.5 Q 282.213 17.5 282.433 17.78 L 282.433 17.78 L 282.433 17.78 Q 282.653 18.06 282.653 18.48 L 282.653 18.48 L 282.653 18.48 Q 282.653 18.82 282.503 19.07 L 282.503 19.07 L 282.503 19.07 Q 282.353 19.32 282.013 19.52 L 282.013 19.52 L 282.013 19.52 Q 281.393 19.92 280.573 20.15 L 280.573 20.15 L 280.573 20.15 Q 279.753 20.38 278.893 20.38 L 278.893 20.38 L 278.893 20.38 Z  M 289.453 18.48 L 289.453 18.48 Q 290.453 18.54 290.453 19.38 L 290.453 19.38 L 290.453 19.38 Q 290.453 19.86 290.063 20.11 L 290.063 20.11 L 290.063 20.11 Q 289.673 20.36 288.953 20.32 L 288.953 20.32 L 288.413 20.28 L 288.413 20.28 Q 285.053 20.04 285.053 16.68 L 285.053 16.68 L 285.053 12.32 L 284.053 12.32 L 284.053 12.32 Q 283.513 12.32 283.223 12.08 L 283.223 12.08 L 283.223 12.08 Q 282.933 11.84 282.933 11.38 L 282.933 11.38 L 282.933 11.38 Q 282.933 10.92 283.223 10.68 L 283.223 10.68 L 283.223 10.68 Q 283.513 10.44 284.053 10.44 L 284.053 10.44 L 285.053 10.44 L 285.053 8.6 L 285.053 8.6 Q 285.053 8.06 285.393 7.74 L 285.393 7.74 L 285.393 7.74 Q 285.733 7.42 286.313 7.42 L 286.313 7.42 L 286.313 7.42 Q 286.873 7.42 287.213 7.74 L 287.213 7.74 L 287.213 7.74 Q 287.553 8.06 287.553 8.6 L 287.553 8.6 L 287.553 10.44 L 289.253 10.44 L 289.253 10.44 Q 289.793 10.44 290.083 10.68 L 290.083 10.68 L 290.083 10.68 Q 290.373 10.92 290.373 11.38 L 290.373 11.38 L 290.373 11.38 Q 290.373 11.84 290.083 12.08 L 290.083 12.08 L 290.083 12.08 Q 289.793 12.32 289.253 12.32 L 289.253 12.32 L 287.553 12.32 L 287.553 16.86 L 287.553 16.86 Q 287.553 18.34 288.913 18.44 L 288.913 18.44 L 289.453 18.48 L 289.453 18.48 Z  M 292.993 20.34 L 292.993 20.34 Q 292.453 20.34 292.103 20.03 L 292.103 20.03 L 292.103 20.03 Q 291.753 19.72 291.753 19.14 L 291.753 19.14 L 291.753 11.42 L 291.753 11.42 Q 291.753 10.84 292.103 10.54 L 292.103 10.54 L 292.103 10.54 Q 292.453 10.24 292.993 10.24 L 292.993 10.24 L 292.993 10.24 Q 293.533 10.24 293.893 10.54 L 293.893 10.54 L 293.893 10.54 Q 294.253 10.84 294.253 11.42 L 294.253 11.42 L 294.253 19.14 L 294.253 19.14 Q 294.253 19.72 293.893 20.03 L 293.893 20.03 L 293.893 20.03 Q 293.533 20.34 292.993 20.34 L 292.993 20.34 L 292.993 20.34 Z  M 292.993 8.46 L 292.993 8.46 Q 292.313 8.46 291.913 8.09 L 291.913 8.09 L 291.913 8.09 Q 291.513 7.72 291.513 7.12 L 291.513 7.12 L 291.513 7.12 Q 291.513 6.52 291.913 6.16 L 291.913 6.16 L 291.913 6.16 Q 292.313 5.8 292.993 5.8 L 292.993 5.8 L 292.993 5.8 Q 293.653 5.8 294.063 6.16 L 294.063 6.16 L 294.063 6.16 Q 294.473 6.52 294.473 7.12 L 294.473 7.12 L 294.473 7.12 Q 294.473 7.72 294.073 8.09 L 294.073 8.09 L 294.073 8.09 Q 293.673 8.46 292.993 8.46 L 292.993 8.46 L 292.993 8.46 Z  M 301.293 20.38 L 301.293 20.38 Q 299.793 20.38 298.663 19.76 L 298.663 19.76 L 298.663 19.76 Q 297.533 19.14 296.913 17.98 L 296.913 17.98 L 296.913 17.98 Q 296.293 16.82 296.293 15.28 L 296.293 15.28 L 296.293 15.28 Q 296.293 13.74 296.913 12.59 L 296.913 12.59 L 296.913 12.59 Q 297.533 11.44 298.663 10.82 L 298.663 10.82 L 298.663 10.82 Q 299.793 10.2 301.293 10.2 L 301.293 10.2 L 301.293 10.2 Q 302.793 10.2 303.923 10.82 L 303.923 10.82 L 303.923 10.82 Q 305.053 11.44 305.663 12.59 L 305.663 12.59 L 305.663 12.59 Q 306.273 13.74 306.273 15.28 L 306.273 15.28 L 306.273 15.28 Q 306.273 16.82 305.663 17.98 L 305.663 17.98 L 305.663 17.98 Q 305.053 19.14 303.923 19.76 L 303.923 19.76 L 303.923 19.76 Q 302.793 20.38 301.293 20.38 L 301.293 20.38 L 301.293 20.38 Z  M 301.273 18.44 L 301.273 18.44 Q 302.493 18.44 303.133 17.64 L 303.133 17.64 L 303.133 17.64 Q 303.773 16.84 303.773 15.28 L 303.773 15.28 L 303.773 15.28 Q 303.773 13.74 303.133 12.93 L 303.133 12.93 L 303.133 12.93 Q 302.493 12.12 301.293 12.12 L 301.293 12.12 L 301.293 12.12 Q 300.093 12.12 299.443 12.93 L 299.443 12.93 L 299.443 12.93 Q 298.793 13.74 298.793 15.28 L 298.793 15.28 L 298.793 15.28 Q 298.793 16.84 299.433 17.64 L 299.433 17.64 L 299.433 17.64 Q 300.073 18.44 301.273 18.44 L 301.273 18.44 L 301.273 18.44 Z  M 314.013 10.2 L 314.013 10.2 Q 315.773 10.2 316.633 11.2 L 316.633 11.2 L 316.633 11.2 Q 317.493 12.2 317.493 14.22 L 317.493 14.22 L 317.493 19.14 L 317.493 19.14 Q 317.493 19.7 317.163 20.02 L 317.163 20.02 L 317.163 20.02 Q 316.833 20.34 316.253 20.34 L 316.253 20.34 L 316.253 20.34 Q 315.673 20.34 315.333 20.02 L 315.333 20.02 L 315.333 20.02 Q 314.993 19.7 314.993 19.14 L 314.993 19.14 L 314.993 14.36 L 314.993 14.36 Q 314.993 13.22 314.563 12.7 L 314.563 12.7 L 314.563 12.7 Q 314.133 12.18 313.213 12.18 L 313.213 12.18 L 313.213 12.18 Q 312.133 12.18 311.483 12.86 L 311.483 12.86 L 311.483 12.86 Q 310.833 13.54 310.833 14.68 L 310.833 14.68 L 310.833 19.14 L 310.833 19.14 Q 310.833 19.7 310.493 20.02 L 310.493 20.02 L 310.493 20.02 Q 310.153 20.34 309.573 20.34 L 309.573 20.34 L 309.573 20.34 Q 308.993 20.34 308.663 20.02 L 308.663 20.02 L 308.663 20.02 Q 308.333 19.7 308.333 19.14 L 308.333 19.14 L 308.333 11.4 L 308.333 11.4 Q 308.333 10.88 308.673 10.56 L 308.673 10.56 L 308.673 10.56 Q 309.013 10.24 309.593 10.24 L 309.593 10.24 L 309.593 10.24 Q 310.113 10.24 310.443 10.55 L 310.443 10.55 L 310.443 10.55 Q 310.773 10.86 310.773 11.36 L 310.773 11.36 L 310.773 11.9 L 310.773 11.9 Q 311.273 11.08 312.113 10.64 L 312.113 10.64 L 312.113 10.64 Q 312.953 10.2 314.013 10.2 L 314.013 10.2 L 314.013 10.2 Z  M 214.133 6.02 L 214.133 6.02 Q 214.693 6.02 215.023 6.37 L 215.023 6.37 L 215.023 6.37 Q 215.353 6.72 215.353 7.3 L 215.353 7.3 L 215.353 19.04 L 215.353 19.04 Q 215.353 19.62 215.013 19.98 L 215.013 19.98 L 215.013 19.98 Q 214.673 20.34 214.133 20.34 L 214.133 20.34 L 214.133 20.34 Q 213.493 20.34 213.153 19.88 L 213.153 19.88 L 205.853 10.38 L 205.853 19.04 L 205.853 19.04 Q 205.853 19.62 205.533 19.98 L 205.533 19.98 L 205.533 19.98 Q 205.213 20.34 204.653 20.34 L 204.653 20.34 L 204.653 20.34 Q 204.093 20.34 203.773 19.98 L 203.773 19.98 L 203.773 19.98 Q 203.453 19.62 203.453 19.04 L 203.453 19.04 L 203.453 7.3 L 203.453 7.3 Q 203.453 6.72 203.793 6.37 L 203.793 6.37 L 203.793 6.37 Q 204.133 6.02 204.693 6.02 L 204.693 6.02 L 204.693 6.02 Q 205.313 6.02 205.653 6.48 L 205.653 6.48 L 212.933 15.94 L 212.933 7.3 L 212.933 7.3 Q 212.933 6.72 213.263 6.37 L 213.263 6.37 L 213.263 6.37 Q 213.593 6.02 214.133 6.02 L 214.133 6.02 L 214.133 6.02 Z  M 225.913 17.54 L 225.913 17.54 Q 226.253 17.54 226.463 17.8 L 226.463 17.8 L 226.463 17.8 Q 226.673 18.06 226.673 18.5 L 226.673 18.5 L 226.673 18.5 Q 226.673 19.12 225.933 19.54 L 225.933 19.54 L 225.933 19.54 Q 225.253 19.92 224.393 20.15 L 224.393 20.15 L 224.393 20.15 Q 223.533 20.38 222.753 20.38 L 222.753 20.38 L 222.753 20.38 Q 220.393 20.38 219.013 19.02 L 219.013 19.02 L 219.013 19.02 Q 217.633 17.66 217.633 15.3 L 217.633 15.3 L 217.633 15.3 Q 217.633 13.8 218.233 12.64 L 218.233 12.64 L 218.233 12.64 Q 218.833 11.48 219.923 10.84 L 219.923 10.84 L 219.923 10.84 Q 221.013 10.2 222.393 10.2 L 222.393 10.2 L 222.393 10.2 Q 223.713 10.2 224.693 10.78 L 224.693 10.78 L 224.693 10.78 Q 225.673 11.36 226.213 12.42 L 226.213 12.42 L 226.213 12.42 Q 226.753 13.48 226.753 14.92 L 226.753 14.92 L 226.753 14.92 Q 226.753 15.78 225.993 15.78 L 225.993 15.78 L 220.093 15.78 L 220.093 15.78 Q 220.213 17.16 220.873 17.81 L 220.873 17.81 L 220.873 17.81 Q 221.533 18.46 222.793 18.46 L 222.793 18.46 L 222.793 18.46 Q 223.433 18.46 223.923 18.3 L 223.923 18.3 L 223.923 18.3 Q 224.413 18.14 225.033 17.86 L 225.033 17.86 L 225.033 17.86 Q 225.633 17.54 225.913 17.54 L 225.913 17.54 L 225.913 17.54 Z  M 222.453 11.96 L 222.453 11.96 Q 221.433 11.96 220.823 12.6 L 220.823 12.6 L 220.823 12.6 Q 220.213 13.24 220.093 14.44 L 220.093 14.44 L 224.613 14.44 L 224.613 14.44 Q 224.573 13.22 224.013 12.59 L 224.013 12.59 L 224.013 12.59 Q 223.453 11.96 222.453 11.96 L 222.453 11.96 L 222.453 11.96 Z  M 241.853 10.98 L 241.853 10.98 Q 241.993 10.62 242.263 10.44 L 242.263 10.44 L 242.263 10.44 Q 242.533 10.26 242.853 10.26 L 242.853 10.26 L 242.853 10.26 Q 243.313 10.26 243.683 10.57 L 243.683 10.57 L 243.683 10.57 Q 244.053 10.88 244.053 11.34 L 244.053 11.34 L 244.053 11.34 Q 244.053 11.6 243.953 11.8 L 243.953 11.8 L 240.653 19.54 L 240.653 19.54 Q 240.493 19.92 240.163 20.12 L 240.163 20.12 L 240.163 20.12 Q 239.833 20.32 239.433 20.32 L 239.433 20.32 L 239.433 20.32 Q 239.053 20.32 238.723 20.12 L 238.723 20.12 L 238.723 20.12 Q 238.393 19.92 238.233 19.54 L 238.233 19.54 L 235.853 13.82 L 233.553 19.54 L 233.553 19.54 Q 233.393 19.92 233.063 20.12 L 233.063 20.12 L 233.063 20.12 Q 232.733 20.32 232.333 20.32 L 232.333 20.32 L 232.333 20.32 Q 231.953 20.32 231.613 20.12 L 231.613 20.12 L 231.613 20.12 Q 231.273 19.92 231.113 19.54 L 231.113 19.54 L 227.833 11.8 L 227.833 11.8 Q 227.733 11.54 227.733 11.36 L 227.733 11.36 L 227.733 11.36 Q 227.733 10.9 228.133 10.57 L 228.133 10.57 L 228.133 10.57 Q 228.533 10.24 229.013 10.24 L 229.013 10.24 L 229.013 10.24 Q 229.353 10.24 229.633 10.42 L 229.633 10.42 L 229.633 10.42 Q 229.913 10.6 230.053 10.96 L 230.053 10.96 L 232.413 17.06 L 234.833 11.02 L 234.833 11.02 Q 234.993 10.64 235.293 10.45 L 235.293 10.45 L 235.293 10.45 Q 235.593 10.26 235.953 10.26 L 235.953 10.26 L 235.953 10.26 Q 236.313 10.26 236.613 10.45 L 236.613 10.45 L 236.613 10.45 Q 236.913 10.64 237.073 11.02 L 237.073 11.02 L 239.513 17.08 L 241.853 10.98 L 241.853 10.98 Z " fill="rgb(26,161,121)"/><path d=" M 2.99 76.067 L 2.99 76.067 Q 2.41 76.067 2.06 75.717 L 2.06 75.717 L 2.06 75.717 Q 1.71 75.367 1.71 74.767 L 1.71 74.767 L 1.71 63.067 L 1.71 63.067 Q 1.71 62.487 2.04 62.167 L 2.04 62.167 L 2.04 62.167 Q 2.37 61.847 2.95 61.847 L 2.95 61.847 L 7.87 61.847 L 7.87 61.847 Q 10.13 61.847 11.39 62.977 L 11.39 62.977 L 11.39 62.977 Q 12.65 64.107 12.65 66.147 L 12.65 66.147 L 12.65 66.147 Q 12.65 68.187 11.39 69.327 L 11.39 69.327 L 11.39 69.327 Q 10.13 70.467 7.87 70.467 L 7.87 70.467 L 4.29 70.467 L 4.29 74.767 L 4.29 74.767 Q 4.29 75.367 3.94 75.717 L 3.94 75.717 L 3.94 75.717 Q 3.59 76.067 2.99 76.067 L 2.99 76.067 L 2.99 76.067 Z  M 4.29 68.487 L 7.55 68.487 L 7.55 68.487 Q 10.21 68.487 10.21 66.167 L 10.21 66.167 L 10.21 66.167 Q 10.21 63.847 7.55 63.847 L 7.55 63.847 L 4.29 63.847 L 4.29 68.487 L 4.29 68.487 Z  M 18.67 65.927 L 18.67 65.927 Q 20.71 65.927 21.7 66.937 L 21.7 66.937 L 21.7 66.937 Q 22.69 67.947 22.69 70.007 L 22.69 70.007 L 22.69 74.887 L 22.69 74.887 Q 22.69 75.427 22.37 75.737 L 22.37 75.737 L 22.37 75.737 Q 22.05 76.047 21.49 76.047 L 21.49 76.047 L 21.49 76.047 Q 20.97 76.047 20.64 75.727 L 20.64 75.727 L 20.64 75.727 Q 20.31 75.407 20.31 74.887 L 20.31 74.887 L 20.31 74.447 L 20.31 74.447 Q 19.97 75.227 19.24 75.667 L 19.24 75.667 L 19.24 75.667 Q 18.51 76.107 17.55 76.107 L 17.55 76.107 L 17.55 76.107 Q 16.57 76.107 15.77 75.707 L 15.77 75.707 L 15.77 75.707 Q 14.97 75.307 14.51 74.607 L 14.51 74.607 L 14.51 74.607 Q 14.05 73.907 14.05 73.047 L 14.05 73.047 L 14.05 73.047 Q 14.05 71.967 14.6 71.347 L 14.6 71.347 L 14.6 71.347 Q 15.15 70.727 16.39 70.447 L 16.39 70.447 L 16.39 70.447 Q 17.63 70.167 19.81 70.167 L 19.81 70.167 L 20.31 70.167 L 20.31 69.707 L 20.31 69.707 Q 20.31 68.727 19.89 68.277 L 19.89 68.277 L 19.89 68.277 Q 19.47 67.827 18.53 67.827 L 18.53 67.827 L 18.53 67.827 Q 17.95 67.827 17.35 67.997 L 17.35 67.997 L 17.35 67.997 Q 16.75 68.167 15.93 68.487 L 15.93 68.487 L 15.93 68.487 Q 15.41 68.747 15.17 68.747 L 15.17 68.747 L 15.17 68.747 Q 14.81 68.747 14.58 68.487 L 14.58 68.487 L 14.58 68.487 Q 14.35 68.227 14.35 67.807 L 14.35 67.807 L 14.35 67.807 Q 14.35 67.467 14.52 67.217 L 14.52 67.217 L 14.52 67.217 Q 14.69 66.967 15.09 66.747 L 15.09 66.747 L 15.09 66.747 Q 15.79 66.367 16.76 66.147 L 16.76 66.147 L 16.76 66.147 Q 17.73 65.927 18.67 65.927 L 18.67 65.927 L 18.67 65.927 Z  M 18.05 74.307 L 18.05 74.307 Q 19.05 74.307 19.68 73.637 L 19.68 73.637 L 19.68 73.637 Q 20.31 72.967 20.31 71.907 L 20.31 71.907 L 20.31 71.487 L 19.95 71.487 L 19.95 71.487 Q 18.61 71.487 17.87 71.607 L 17.87 71.607 L 17.87 71.607 Q 17.13 71.727 16.81 72.027 L 16.81 72.027 L 16.81 72.027 Q 16.49 72.327 16.49 72.847 L 16.49 72.847 L 16.49 72.847 Q 16.49 73.487 16.94 73.897 L 16.94 73.897 L 16.94 73.897 Q 17.39 74.307 18.05 74.307 L 18.05 74.307 L 18.05 74.307 Z  M 30.69 65.967 L 30.69 65.967 Q 31.21 65.927 31.51 66.187 L 31.51 66.187 L 31.51 66.187 Q 31.81 66.447 31.81 66.967 L 31.81 66.967 L 31.81 66.967 Q 31.81 67.507 31.55 67.767 L 31.55 67.767 L 31.55 67.767 Q 31.29 68.027 30.61 68.107 L 30.61 68.107 L 30.01 68.167 L 30.01 68.167 Q 28.83 68.287 28.28 68.967 L 28.28 68.967 L 28.28 68.967 Q 27.73 69.647 27.73 70.667 L 27.73 70.667 L 27.73 74.867 L 27.73 74.867 Q 27.73 75.447 27.37 75.757 L 27.37 75.757 L 27.37 75.757 Q 27.01 76.067 26.47 76.067 L 26.47 76.067 L 26.47 76.067 Q 25.93 76.067 25.58 75.757 L 25.58 75.757 L 25.58 75.757 Q 25.23 75.447 25.23 74.867 L 25.23 74.867 L 25.23 67.127 L 25.23 67.127 Q 25.23 66.567 25.58 66.267 L 25.58 66.267 L 25.58 66.267 Q 25.93 65.967 26.45 65.967 L 26.45 65.967 L 26.45 65.967 Q 26.97 65.967 27.29 66.257 L 27.29 66.257 L 27.29 66.257 Q 27.61 66.547 27.61 67.087 L 27.61 67.087 L 27.61 67.887 L 27.61 67.887 Q 27.99 67.007 28.74 66.527 L 28.74 66.527 L 28.74 66.527 Q 29.49 66.047 30.41 65.987 L 30.41 65.987 L 30.69 65.967 L 30.69 65.967 Z  M 36.33 76.107 L 36.33 76.107 Q 34.15 76.107 32.81 75.247 L 32.81 75.247 L 32.81 75.247 Q 32.17 74.867 32.17 74.167 L 32.17 74.167 L 32.17 74.167 Q 32.17 73.767 32.39 73.517 L 32.39 73.517 L 32.39 73.517 Q 32.61 73.267 32.93 73.267 L 32.93 73.267 L 32.93 73.267 Q 33.27 73.267 33.87 73.587 L 33.87 73.587 L 33.87 73.587 Q 34.51 73.887 35.04 74.047 L 35.04 74.047 L 35.04 74.047 Q 35.57 74.207 36.39 74.207 L 36.39 74.207 L 36.39 74.207 Q 37.23 74.207 37.7 73.927 L 37.7 73.927 L 37.7 73.927 Q 38.17 73.647 38.17 73.147 L 38.17 73.147 L 38.17 73.147 Q 38.17 72.807 37.98 72.607 L 37.98 72.607 L 37.98 72.607 Q 37.79 72.407 37.3 72.237 L 37.3 72.237 L 37.3 72.237 Q 36.81 72.067 35.81 71.847 L 35.81 71.847 L 35.81 71.847 Q 34.03 71.487 33.26 70.827 L 33.26 70.827 L 33.26 70.827 Q 32.49 70.167 32.49 69.007 L 32.49 69.007 L 32.49 69.007 Q 32.49 68.127 33.01 67.417 L 33.01 67.417 L 33.01 67.417 Q 33.53 66.707 34.44 66.317 L 34.44 66.317 L 34.44 66.317 Q 35.35 65.927 36.51 65.927 L 36.51 65.927 L 36.51 65.927 Q 37.35 65.927 38.13 66.137 L 38.13 66.137 L 38.13 66.137 Q 38.91 66.347 39.53 66.747 L 39.53 66.747 L 39.53 66.747 Q 40.17 67.147 40.17 67.807 L 40.17 67.807 L 40.17 67.807 Q 40.17 68.207 39.95 68.477 L 39.95 68.477 L 39.95 68.477 Q 39.73 68.747 39.41 68.747 L 39.41 68.747 L 39.41 68.747 Q 39.19 68.747 38.98 68.657 L 38.98 68.657 L 38.98 68.657 Q 38.77 68.567 38.45 68.387 L 38.45 68.387 L 38.45 68.387 Q 37.87 68.087 37.45 67.937 L 37.45 67.937 L 37.45 67.937 Q 37.03 67.787 36.41 67.787 L 36.41 67.787 L 36.41 67.787 Q 35.67 67.787 35.24 68.087 L 35.24 68.087 L 35.24 68.087 Q 34.81 68.387 34.81 68.907 L 34.81 68.907 L 34.81 68.907 Q 34.81 69.407 35.25 69.667 L 35.25 69.667 L 35.25 69.667 Q 35.69 69.927 36.95 70.187 L 36.95 70.187 L 36.95 70.187 Q 38.29 70.467 39.05 70.827 L 39.05 70.827 L 39.05 70.827 Q 39.81 71.187 40.14 71.727 L 40.14 71.727 L 40.14 71.727 Q 40.47 72.267 40.47 73.107 L 40.47 73.107 L 40.47 73.107 Q 40.47 74.467 39.34 75.287 L 39.34 75.287 L 39.34 75.287 Q 38.21 76.107 36.33 76.107 L 36.33 76.107 L 36.33 76.107 Z  M 50.23 73.267 L 50.23 73.267 Q 50.57 73.267 50.78 73.527 L 50.78 73.527 L 50.78 73.527 Q 50.99 73.787 50.99 74.227 L 50.99 74.227 L 50.99 74.227 Q 50.99 74.847 50.25 75.267 L 50.25 75.267 L 50.25 75.267 Q 49.57 75.647 48.71 75.877 L 48.71 75.877 L 48.71 75.877 Q 47.85 76.107 47.07 76.107 L 47.07 76.107 L 47.07 76.107 Q 44.71 76.107 43.33 74.747 L 43.33 74.747 L 43.33 74.747 Q 41.95 73.387 41.95 71.027 L 41.95 71.027 L 41.95 71.027 Q 41.95 69.527 42.55 68.367 L 42.55 68.367 L 42.55 68.367 Q 43.15 67.207 44.24 66.567 L 44.24 66.567 L 44.24 66.567 Q 45.33 65.927 46.71 65.927 L 46.71 65.927 L 46.71 65.927 Q 48.03 65.927 49.01 66.507 L 49.01 66.507 L 49.01 66.507 Q 49.99 67.087 50.53 68.147 L 50.53 68.147 L 50.53 68.147 Q 51.07 69.207 51.07 70.647 L 51.07 70.647 L 51.07 70.647 Q 51.07 71.507 50.31 71.507 L 50.31 71.507 L 44.41 71.507 L 44.41 71.507 Q 44.53 72.887 45.19 73.537 L 45.19 73.537 L 45.19 73.537 Q 45.85 74.187 47.11 74.187 L 47.11 74.187 L 47.11 74.187 Q 47.75 74.187 48.24 74.027 L 48.24 74.027 L 48.24 74.027 Q 48.73 73.867 49.35 73.587 L 49.35 73.587 L 49.35 73.587 Q 49.95 73.267 50.23 73.267 L 50.23 73.267 L 50.23 73.267 Z  M 46.77 67.687 L 46.77 67.687 Q 45.75 67.687 45.14 68.327 L 45.14 68.327 L 45.14 68.327 Q 44.53 68.967 44.41 70.167 L 44.41 70.167 L 48.93 70.167 L 48.93 70.167 Q 48.89 68.947 48.33 68.317 L 48.33 68.317 L 48.33 68.317 Q 47.77 67.687 46.77 67.687 L 46.77 67.687 L 46.77 67.687 Z " fill="rgb(253,126,20)"/><path d=" M 427.31 327.793 L 427.31 327.793 Q 427.45 327.393 427.76 327.193 L 427.76 327.193 L 427.76 327.193 Q 428.07 326.993 428.45 326.993 L 428.45 326.993 L 428.45 326.993 Q 428.93 326.993 429.28 327.293 L 429.28 327.293 L 429.28 327.293 Q 429.63 327.593 429.63 328.093 L 429.63 328.093 L 429.63 328.093 Q 429.63 328.273 429.53 328.613 L 429.53 328.613 L 425.23 340.513 L 425.23 340.513 Q 425.07 340.913 424.7 341.133 L 424.7 341.133 L 424.7 341.133 Q 424.33 341.353 423.89 341.353 L 423.89 341.353 L 423.89 341.353 Q 423.45 341.353 423.07 341.133 L 423.07 341.133 L 423.07 341.133 Q 422.69 340.913 422.55 340.513 L 422.55 340.513 L 419.23 331.093 L 415.85 340.513 L 415.85 340.513 Q 415.69 340.913 415.32 341.133 L 415.32 341.133 L 415.32 341.133 Q 414.95 341.353 414.51 341.353 L 414.51 341.353 L 414.51 341.353 Q 414.07 341.353 413.7 341.133 L 413.7 341.133 L 413.7 341.133 Q 413.33 340.913 413.19 340.513 L 413.19 340.513 L 408.89 328.613 L 408.89 328.613 Q 408.79 328.313 408.79 328.093 L 408.79 328.093 L 408.79 328.093 Q 408.79 327.593 409.16 327.293 L 409.16 327.293 L 409.16 327.293 Q 409.53 326.993 410.03 326.993 L 410.03 326.993 L 410.03 326.993 Q 410.43 326.993 410.75 327.193 L 410.75 327.193 L 410.75 327.193 Q 411.07 327.393 411.21 327.793 L 411.21 327.793 L 414.61 337.573 L 418.11 327.853 L 418.11 327.853 Q 418.25 327.453 418.57 327.223 L 418.57 327.223 L 418.57 327.223 Q 418.89 326.993 419.27 326.993 L 419.27 326.993 L 419.27 326.993 Q 419.65 326.993 419.98 327.223 L 419.98 327.223 L 419.98 327.223 Q 420.31 327.453 420.45 327.873 L 420.45 327.873 L 423.85 337.693 L 427.31 327.793 L 427.31 327.793 Z  M 435.91 331.233 L 435.91 331.233 Q 436.43 331.193 436.73 331.453 L 436.73 331.453 L 436.73 331.453 Q 437.03 331.713 437.03 332.233 L 437.03 332.233 L 437.03 332.233 Q 437.03 332.773 436.77 333.033 L 436.77 333.033 L 436.77 333.033 Q 436.51 333.293 435.83 333.373 L 435.83 333.373 L 435.23 333.433 L 435.23 333.433 Q 434.05 333.553 433.5 334.233 L 433.5 334.233 L 433.5 334.233 Q 432.95 334.913 432.95 335.933 L 432.95 335.933 L 432.95 340.133 L 432.95 340.133 Q 432.95 340.713 432.59 341.023 L 432.59 341.023 L 432.59 341.023 Q 432.23 341.333 431.69 341.333 L 431.69 341.333 L 431.69 341.333 Q 431.15 341.333 430.8 341.023 L 430.8 341.023 L 430.8 341.023 Q 430.45 340.713 430.45 340.133 L 430.45 340.133 L 430.45 332.393 L 430.45 332.393 Q 430.45 331.833 430.8 331.533 L 430.8 331.533 L 430.8 331.533 Q 431.15 331.233 431.67 331.233 L 431.67 331.233 L 431.67 331.233 Q 432.19 331.233 432.51 331.523 L 432.51 331.523 L 432.51 331.523 Q 432.83 331.813 432.83 332.353 L 432.83 332.353 L 432.83 333.153 L 432.83 333.153 Q 433.21 332.273 433.96 331.793 L 433.96 331.793 L 433.96 331.793 Q 434.71 331.313 435.63 331.253 L 435.63 331.253 L 435.91 331.233 L 435.91 331.233 Z  M 439.35 341.333 L 439.35 341.333 Q 438.81 341.333 438.46 341.023 L 438.46 341.023 L 438.46 341.023 Q 438.11 340.713 438.11 340.133 L 438.11 340.133 L 438.11 332.413 L 438.11 332.413 Q 438.11 331.833 438.46 331.533 L 438.46 331.533 L 438.46 331.533 Q 438.81 331.233 439.35 331.233 L 439.35 331.233 L 439.35 331.233 Q 439.89 331.233 440.25 331.533 L 440.25 331.533 L 440.25 331.533 Q 440.61 331.833 440.61 332.413 L 440.61 332.413 L 440.61 340.133 L 440.61 340.133 Q 440.61 340.713 440.25 341.023 L 440.25 341.023 L 440.25 341.023 Q 439.89 341.333 439.35 341.333 L 439.35 341.333 L 439.35 341.333 Z  M 439.35 329.453 L 439.35 329.453 Q 438.67 329.453 438.27 329.083 L 438.27 329.083 L 438.27 329.083 Q 437.87 328.713 437.87 328.113 L 437.87 328.113 L 437.87 328.113 Q 437.87 327.513 438.27 327.153 L 438.27 327.153 L 438.27 327.153 Q 438.67 326.793 439.35 326.793 L 439.35 326.793 L 439.35 326.793 Q 440.01 326.793 440.42 327.153 L 440.42 327.153 L 440.42 327.153 Q 440.83 327.513 440.83 328.113 L 440.83 328.113 L 440.83 328.113 Q 440.83 328.713 440.43 329.083 L 440.43 329.083 L 440.43 329.083 Q 440.03 329.453 439.35 329.453 L 439.35 329.453 L 439.35 329.453 Z  M 448.27 339.473 L 448.27 339.473 Q 449.27 339.533 449.27 340.373 L 449.27 340.373 L 449.27 340.373 Q 449.27 340.853 448.88 341.103 L 448.88 341.103 L 448.88 341.103 Q 448.49 341.353 447.77 341.313 L 447.77 341.313 L 447.23 341.273 L 447.23 341.273 Q 443.87 341.033 443.87 337.673 L 443.87 337.673 L 443.87 333.313 L 442.87 333.313 L 442.87 333.313 Q 442.33 333.313 442.04 333.073 L 442.04 333.073 L 442.04 333.073 Q 441.75 332.833 441.75 332.373 L 441.75 332.373 L 441.75 332.373 Q 441.75 331.913 442.04 331.673 L 442.04 331.673 L 442.04 331.673 Q 442.33 331.433 442.87 331.433 L 442.87 331.433 L 443.87 331.433 L 443.87 329.593 L 443.87 329.593 Q 443.87 329.053 444.21 328.733 L 444.21 328.733 L 444.21 328.733 Q 444.55 328.413 445.13 328.413 L 445.13 328.413 L 445.13 328.413 Q 445.69 328.413 446.03 328.733 L 446.03 328.733 L 446.03 328.733 Q 446.37 329.053 446.37 329.593 L 446.37 329.593 L 446.37 331.433 L 448.07 331.433 L 448.07 331.433 Q 448.61 331.433 448.9 331.673 L 448.9 331.673 L 448.9 331.673 Q 449.19 331.913 449.19 332.373 L 449.19 332.373 L 449.19 332.373 Q 449.19 332.833 448.9 333.073 L 448.9 333.073 L 448.9 333.073 Q 448.61 333.313 448.07 333.313 L 448.07 333.313 L 446.37 333.313 L 446.37 337.853 L 446.37 337.853 Q 446.37 339.333 447.73 339.433 L 447.73 339.433 L 448.27 339.473 L 448.27 339.473 Z  M 458.31 338.533 L 458.31 338.533 Q 458.65 338.533 458.86 338.793 L 458.86 338.793 L 458.86 338.793 Q 459.07 339.053 459.07 339.493 L 459.07 339.493 L 459.07 339.493 Q 459.07 340.113 458.33 340.533 L 458.33 340.533 L 458.33 340.533 Q 457.65 340.913 456.79 341.143 L 456.79 341.143 L 456.79 341.143 Q 455.93 341.373 455.15 341.373 L 455.15 341.373 L 455.15 341.373 Q 452.79 341.373 451.41 340.013 L 451.41 340.013 L 451.41 340.013 Q 450.03 338.653 450.03 336.293 L 450.03 336.293 L 450.03 336.293 Q 450.03 334.793 450.63 333.633 L 450.63 333.633 L 450.63 333.633 Q 451.23 332.473 452.32 331.833 L 452.32 331.833 L 452.32 331.833 Q 453.41 331.193 454.79 331.193 L 454.79 331.193 L 454.79 331.193 Q 456.11 331.193 457.09 331.773 L 457.09 331.773 L 457.09 331.773 Q 458.07 332.353 458.61 333.413 L 458.61 333.413 L 458.61 333.413 Q 459.15 334.473 459.15 335.913 L 459.15 335.913 L 459.15 335.913 Q 459.15 336.773 458.39 336.773 L 458.39 336.773 L 452.49 336.773 L 452.49 336.773 Q 452.61 338.153 453.27 338.803 L 453.27 338.803 L 453.27 338.803 Q 453.93 339.453 455.19 339.453 L 455.19 339.453 L 455.19 339.453 Q 455.83 339.453 456.32 339.293 L 456.32 339.293 L 456.32 339.293 Q 456.81 339.133 457.43 338.853 L 457.43 338.853 L 457.43 338.853 Q 458.03 338.533 458.31 338.533 L 458.31 338.533 L 458.31 338.533 Z  M 454.85 332.953 L 454.85 332.953 Q 453.83 332.953 453.22 333.593 L 453.22 333.593 L 453.22 333.593 Q 452.61 334.233 452.49 335.433 L 452.49 335.433 L 457.01 335.433 L 457.01 335.433 Q 456.97 334.213 456.41 333.583 L 456.41 333.583 L 456.41 333.583 Q 455.85 332.953 454.85 332.953 L 454.85 332.953 L 454.85 332.953 Z " fill="rgb(222,69,66)"/></svg>
