<?xml version="1.0" encoding="UTF-8" standalone="no"?>
<svg
   xmlns:dc="http://purl.org/dc/elements/1.1/"
   xmlns:cc="http://creativecommons.org/ns#"
   xmlns:rdf="http://www.w3.org/1999/02/22-rdf-syntax-ns#"
   xmlns:svg="http://www.w3.org/2000/svg"
   xmlns="http://www.w3.org/2000/svg"
   xmlns:sodipodi="http://sodipodi.sourceforge.net/DTD/sodipodi-0.dtd"
   xmlns:inkscape="http://www.inkscape.org/namespaces/inkscape"
   version="1.1"
   id="Capa_1"
   x="0px"
   y="0px"
   viewBox="0 0 512 512"
   style="enable-background:new 0 0 512 512;"
   xml:space="preserve"
   sodipodi:docname="ios.svg"
   inkscape:version="1.0.1 (3bc2e813f5, 2020-09-07, custom)"><metadata
   id="metadata49"><rdf:RDF><cc:Work
       rdf:about=""><dc:format>image/svg+xml</dc:format><dc:type
         rdf:resource="http://purl.org/dc/dcmitype/StillImage" /></cc:Work></rdf:RDF></metadata><defs
   id="defs47" /><sodipodi:namedview
   pagecolor="#ffffff"
   bordercolor="#666666"
   borderopacity="1"
   objecttolerance="10"
   gridtolerance="10"
   guidetolerance="10"
   inkscape:pageopacity="0"
   inkscape:pageshadow="2"
   inkscape:window-width="854"
   inkscape:window-height="703"
   id="namedview45"
   showgrid="false"
   inkscape:zoom="0.81933594"
   inkscape:cx="156.27744"
   inkscape:cy="257.47684"
   inkscape:window-x="2580"
   inkscape:window-y="22"
   inkscape:window-maximized="0"
   inkscape:current-layer="Capa_1" />
<circle
   style="fill:#d25032;fill-opacity:1"
   cx="256"
   cy="256"
   r="256"
   id="circle2" />
<path
   style="fill:#7e301e;fill-opacity:1"
   d="M248.989,139.771L316,206.541L161.382,402.958l114.306,108.296C407.874,501.201,512,390.76,512,256  c0-3.303-0.083-6.587-0.207-9.86L321.541,55.888L248.989,139.771z"
   id="path4" />
<path
   style="fill:#FFFFFF;"
   d="M191.187,419.533c-10.268-0.401-25.607-11.596-32.251-19.129  c-17.002-19.278-30.852-40.639-40.647-64.442c-11.15-27.094-17.801-55.193-17.464-84.691c0.242-21.218,4.384-41.569,15.006-60.09  c13.133-22.899,32.522-37.959,58.435-44.047c10.311-2.422,20.822-3.394,31.127-0.345c10.303,3.048,20.455,6.646,30.564,10.303  c8.759,3.169,17.355,5.462,26.551,1.477c6.042-2.619,12.326-4.681,18.514-6.958c10.135-3.73,20.379-7.188,31.29-7.513  c21.103-0.63,40.57,4.546,57.743,17.179c7.082,5.21,13.035,11.54,17.974,18.956c-0.679,0.512-1.199,0.936-1.75,1.315  c-7.396,5.085-13.946,11.087-19.612,18.053c-15.04,18.489-20.26,39.594-16.71,62.998c2.477,16.33,9.514,30.427,20.994,42.309  c7.016,7.262,18.796,14.858,27.862,19.26c-1.58,3.746-4.678,9.791-6.183,13.572c-6.422,16.138-15.065,31.035-25.235,45.085  c-7.232,9.991-14.51,19.898-24.391,27.57c-9.041,7.02-19.048,10.529-30.579,9.728c-8.784-0.61-16.915-3.354-24.785-6.997  c-17.197-7.962-34.848-9.551-52.987-3.873c-4.524,1.416-8.792,3.638-13.303,5.104C214.188,416.684,198.713,419.827,191.187,419.533z  "
   id="path6" />
<g
   id="g12">
	<path
   style="fill:#CCCCCC;"
   d="M370.95,304.908c-11.48-11.883-18.517-25.979-20.993-42.309c-3.55-23.404,1.67-44.509,16.71-62.998   c5.666-6.966,12.216-12.968,19.612-18.053c0.551-0.379,1.07-0.803,1.749-1.315c-4.939-7.416-10.892-13.746-17.974-18.956   c-17.173-12.632-36.641-17.808-57.743-17.179c-10.91,0.326-21.155,3.783-31.29,7.513c-6.188,2.277-12.473,4.34-18.514,6.958   c-4.488,1.945-8.832,2.388-13.124,1.97V406.23c13-1.295,25.749,1.106,38.256,6.896c7.87,3.644,16.002,6.387,24.785,6.997   c11.532,0.801,21.539-2.709,30.579-9.728c9.881-7.672,17.159-17.579,24.391-27.57c10.17-14.05,18.813-28.947,25.235-45.085   c1.504-3.78,4.603-9.825,6.183-13.572C389.746,319.766,377.966,312.17,370.95,304.908z"
   id="path8" />
	<path
   style="fill:#CCCCCC;"
   d="M321.541,55.888c-0.044,5.787,0.616,11.683-0.259,17.341c-3.245,20.972-13.09,38.464-29.665,51.791   c-12.286,9.878-26.191,15.773-42.628,14.751c-0.934-6.334-0.726-12.619,0.639-18.772c4.882-22.005,16.587-39.523,35.383-52.026   c9.701-6.453,20.346-10.858,31.986-12.558C317.554,56.333,320.57,55.888,321.541,55.888z"
   id="path10" />
</g>
<g
   id="g14">
</g>
<g
   id="g16">
</g>
<g
   id="g18">
</g>
<g
   id="g20">
</g>
<g
   id="g22">
</g>
<g
   id="g24">
</g>
<g
   id="g26">
</g>
<g
   id="g28">
</g>
<g
   id="g30">
</g>
<g
   id="g32">
</g>
<g
   id="g34">
</g>
<g
   id="g36">
</g>
<g
   id="g38">
</g>
<g
   id="g40">
</g>
<g
   id="g42">
</g>
</svg>
