<?xml version="1.0" standalone="no"?>
<!DOCTYPE svg PUBLIC "-//W3C//DTD SVG 1.1//EN" "http://www.w3.org/Graphics/SVG/1.1/DTD/svg11.dtd" >
<svg xmlns="http://www.w3.org/2000/svg" xmlns:xlink="http://www.w3.org/1999/xlink" version="1.1">
<metadata>
Created by FontForge 20190801 at Mon Mar 23 19:50:01 2020
 By Jimmy Wärting
Copyright 2020 The Spartan Project Authors (https://github.com/MattBaileyDesign/Spartan-MB/tree/V-1.005)
</metadata>
<defs>
<font id="SpartanMB-SemiBold" horiz-adv-x="1378" >
  <font-face 
    font-family="Spartan MB SemBd"
    font-weight="600"
    font-stretch="normal"
    units-per-em="2200"
    panose-1="0 0 0 0 0 0 0 0 0 0"
    ascent="1760"
    descent="-440"
    x-height="1024"
    cap-height="1650"
    bbox="-150 -559 2847 2330"
    underline-thickness="100"
    underline-position="-200"
    unicode-range="U+000D-FB02"
  />
<missing-glyph horiz-adv-x="684" 
 />
    <glyph glyph-name="f_f" unicode="ff" horiz-adv-x="1454" 
d="M113 1024h123v303q0 101 23.5 179.5t67 132.5t105.5 82.5t140 28.5q77 0 134.5 -21.5t91.5 -46.5l-85 -167q-17 10 -43.5 18t-58.5 8q-37 0 -63.5 -12t-43 -38t-24 -67t-7.5 -99v-301h346v303q0 101 23 179.5t66.5 132.5t106 82.5t140.5 28.5q42 0 78 -7t65.5 -17.5
t53 -24t39.5 -26.5l-82 -166q-20 13 -48.5 22.5t-66.5 9.5q-37 0 -63 -12t-42.5 -38t-24 -67t-7.5 -99v-301h249v-181h-249v-843h-238v843h-346v-843h-237v843h-123v181z" />
    <glyph glyph-name="f_f_i" unicode="ffi" horiz-adv-x="1807" 
d="M250 1024v303q0 101 23.5 179.5t67 132.5t105.5 82.5t140 28.5q77 0 134.5 -21.5t92.5 -46.5l-86 -167q-17 10 -43.5 18t-58.5 8q-37 0 -63 -12t-42.5 -38t-24 -67t-7.5 -99v-301h346v303q0 101 23.5 179.5t67 132.5t106 82.5t141.5 28.5q60 0 115 -12t102 -32.5
t85.5 -47.5t64.5 -57l-93 -158q-16 20 -39.5 38t-51.5 31.5t-58 21.5t-59 8q-88 0 -127 -50.5t-39 -166.5v-301h564v-1024h-238v843h-326v-843h-238v843h-346v-843h-238v843h-122v181h122z" />
    <glyph glyph-name="f_f_j" unicode="ffj" horiz-adv-x="1704" 
d="M59 1024h123v303q0 101 23 179.5t66.5 132.5t106 82.5t140.5 28.5q77 0 134 -21.5t91 -46.5l-84 -167q-17 10 -43.5 18t-58.5 8q-37 0 -63.5 -12t-43 -38t-24 -67t-7.5 -99v-301h346v303q0 101 23.5 179.5t67 132.5t106 82.5t140.5 28.5q60 0 115.5 -12t103 -32.5
t85.5 -47.5t64 -57l-92 -158q-16 20 -40 38t-52 31.5t-58 21.5t-59 8q-88 0 -126.5 -50.5t-38.5 -166.5v-301h563v-1219q0 -74 -17.5 -139t-56 -113t-98.5 -75.5t-144 -27.5q-86 0 -143 18.5t-86 38.5l73 190q17 -14 45 -24t60 -10q62 0 96 43t34 135v1002h-326v-843h-239
v843h-346v-843h-237v843h-123v181z" />
    <glyph glyph-name="f_f_l" unicode="ffl" horiz-adv-x="1858" 
d="M108 1024h123v303q0 101 23 179.5t66.5 132.5t105.5 82.5t140 28.5t135.5 -21.5t91.5 -46.5l-85 -167q-17 10 -43.5 18t-58.5 8q-37 0 -63.5 -12t-42.5 -38t-23.5 -67t-7.5 -99v-301h345v303q0 101 23 179.5t66.5 132.5t105.5 82.5t140 28.5q65 0 111.5 -13.5t73.5 -28.5
l-57 -186q-20 9 -42 14t-46 5q-37 0 -63.5 -12t-43 -38t-24 -67t-7.5 -99v-301h250v-181h-250v-843h-237v843h-345v-843h-238v843h-123v181zM1640 1720v-1720h-238v1720h238z" />
    <glyph glyph-name="f_f_t" unicode="fft" horiz-adv-x="2033" 
d="M133 1024h123v303q0 101 23 179.5t66.5 132.5t106 82.5t140.5 28.5q77 0 134 -21.5t91 -46.5l-84 -167q-17 10 -43.5 18t-58.5 8q-37 0 -63.5 -12t-43 -38t-24 -67t-7.5 -99v-301h345v303q0 101 23.5 179.5t67 132.5t106 82.5t140.5 28.5q77 0 133.5 -21.5t90.5 -45.5
l-85 -166q-18 10 -43 17t-57 7q-37 0 -63.5 -12t-43 -38t-24 -67t-7.5 -99v-301h351v383h238v-383h238v-181h-238v-495q0 -85 24.5 -126.5t82.5 -41.5q30 0 55 11t40 22l60 -191q-32 -19 -87 -36.5t-124 -17.5q-89 0 -145.5 30.5t-88.5 78.5t-43.5 108.5t-11.5 120.5v537
h-351v-843h-238v843h-345v-843h-237v843h-123v181z" />
    <glyph glyph-name="f_j" unicode="fj" horiz-adv-x="1119" 
d="M181 1024v303q0 101 23.5 179.5t67 132.5t106 82.5t140.5 28.5q60 0 115 -12t102.5 -32.5t86 -47.5t64.5 -57l-93 -158q-16 20 -39.5 38t-51.5 31.5t-58 21.5t-59 8q-88 0 -127 -50.5t-39 -166.5v-301h564v-1219q0 -74 -18 -139t-56 -113t-98 -75.5t-144 -27.5
q-87 0 -143.5 18.5t-85.5 38.5l72 190q17 -14 45 -24t60 -10q63 0 96.5 43t33.5 135v1002h-326v-843h-238v843h-122v181h122z" />
    <glyph glyph-name="f_t" unicode="ft" horiz-adv-x="1411" 
d="M113 1024h123v303q0 101 23.5 179.5t67 132.5t105.5 82.5t140 28.5q77 0 134 -21.5t90 -45.5l-84 -166q-19 10 -44 17t-57 7q-37 0 -63.5 -12t-43 -38t-24 -67t-7.5 -99v-301h351v383h238v-383h238v-181h-238v-521q0 -69 27 -105.5t79 -36.5q44 0 81 23l94 -168
q-43 -31 -106 -49t-125 -18q-68 0 -121.5 23t-90.5 66.5t-56.5 106t-19.5 142.5v537h-351v-843h-237v843h-123v181z" />
    <glyph glyph-name="fi" unicode="fi" horiz-adv-x="1165" 
d="M73 843v181h122v303q0 101 23.5 179.5t67 132.5t106 82.5t140.5 28.5q60 0 115 -12t102.5 -32.5t86 -47.5t64.5 -57l-93 -158q-16 20 -40 38t-52 31.5t-57.5 21.5t-58.5 8q-88 0 -127 -50.5t-39 -166.5v-301h565v-1024h-238v843h-327v-843h-238v843h-122z" />
    <glyph glyph-name="fl" unicode="fl" horiz-adv-x="1182" 
d="M73 843v181h124v303q0 101 23 179.5t66 132.5t105 82.5t140 28.5q65 0 111.5 -13.5t73.5 -28.5l-57 -186q-20 9 -42 14t-46 5q-37 0 -63.5 -12t-43 -38t-24 -67t-7.5 -99v-301h250v-181h-250v-843h-236v843h-124zM1021 1720v-1720h-236v1720h236z" />
    <glyph glyph-name=".notdef" horiz-adv-x="684" 
 />
    <glyph glyph-name=".null" horiz-adv-x="0" 
 />
    <glyph glyph-name=".null" horiz-adv-x="0" 
 />
    <glyph glyph-name="uni000D" unicode="&#xd;" horiz-adv-x="1057" 
 />
    <glyph glyph-name="space" unicode=" " horiz-adv-x="532" 
 />
    <glyph glyph-name="A" unicode="A" horiz-adv-x="1476" 
d="M-35 0l658 1650h230l658 -1650h-270l-166 440h-674l-166 -440h-270zM989 660l-251 654l-251 -654h502z" />
    <glyph glyph-name="Aacute" unicode="&#xc1;" horiz-adv-x="1476" 
d="M-35 0l658 1650h230l658 -1650h-270l-166 440h-674l-166 -440h-270zM989 660l-251 654l-251 -654h502zM935 2208l102 -178l-416 -212l-76 113z" />
    <glyph glyph-name="Abreve" unicode="&#x102;" horiz-adv-x="1476" 
d="M-35 0l658 1650h230l658 -1650h-270l-166 440h-674l-166 -440h-270zM989 660l-251 654l-251 -654h502zM305 2264l172 42q8 -46 28 -87.5t52.5 -73t78 -50t102.5 -18.5t102.5 18.5t78 50t53 73t27.5 87.5l172 -42q-12 -76 -48.5 -138.5t-93 -107.5t-130.5 -69.5
t-161 -24.5t-161 24.5t-130.5 69.5t-93 107.5t-48.5 138.5z" />
    <glyph glyph-name="Acircumflex" unicode="&#xc2;" horiz-adv-x="1476" 
d="M-35 0l658 1650h230l658 -1650h-270l-166 440h-674l-166 -440h-270zM989 660l-251 654l-251 -654h502zM433 1885l-94 127l400 293l400 -293l-94 -127l-306 224z" />
    <glyph glyph-name="Adieresis" unicode="&#xc4;" horiz-adv-x="1476" 
d="M-35 0l658 1650h230l658 -1650h-270l-166 440h-674l-166 -440h-270zM989 660l-251 654l-251 -654h502zM974 2155q27 0 51 -10.5t42 -28t28 -41.5t10 -51t-10 -51t-28 -41.5t-42 -28t-51 -10.5t-51 10.5t-42 28t-28 41.5t-10 51t10 51t28 41.5t42 28t51 10.5zM373 2024
q0 27 10 51t28 41.5t42 28t51 10.5t51 -10.5t42 -28t28 -41.5t10 -51t-10 -51t-28 -41.5t-42 -28t-51 -10.5t-51 10.5t-42 28t-28 41.5t-10 51z" />
    <glyph glyph-name="Agrave" unicode="&#xc0;" horiz-adv-x="1476" 
d="M-35 0l658 1650h230l658 -1650h-270l-166 440h-674l-166 -440h-270zM989 660l-251 654l-251 -654h502zM829 1818l-426 218l112 172l390 -277z" />
    <glyph glyph-name="Amacron" unicode="&#x100;" horiz-adv-x="1476" 
d="M-35 0l658 1650h230l658 -1650h-270l-166 440h-674l-166 -440h-270zM989 660l-251 654l-251 -654h502zM330 1933v164h816v-164h-816z" />
    <glyph glyph-name="Aogonek" unicode="&#x104;" horiz-adv-x="1476" 
d="M-35 0l658 1650h230l658 -1650h-270l-166 440h-674l-166 -440h-270zM989 660l-251 654l-251 -654h502zM1216 -333q0 69 45.5 154t131.5 179h118q-70 -80 -110 -160.5t-40 -140.5q0 -51 32 -85.5t95 -34.5q86 0 153 82l101 -75q-23 -33 -53.5 -60t-66.5 -45.5t-75 -28.5
t-80 -10q-54 0 -100 17.5t-79.5 48.5t-52.5 71.5t-19 87.5z" />
    <glyph glyph-name="Aring" unicode="&#xc5;" horiz-adv-x="1476" 
d="M-35 0l658 1650h230l658 -1650h-270l-166 440h-674l-166 -440h-270zM989 660l-251 654l-251 -654h502zM466 2091q0 53 21 97t58 75.5t86.5 49t106.5 17.5t106.5 -17.5t86.5 -49t58 -75.5t21 -97t-21 -97t-58 -75.5t-86.5 -49t-106.5 -17.5t-106.5 17.5t-86.5 49t-58 75.5
t-21 97zM608 2091q0 -26 10 -48t28 -38.5t41.5 -26t50.5 -9.5t50.5 9.5t41.5 26t28 38.5t10 48t-10 48t-28 38.5t-41.5 26t-50.5 9.5t-50.5 -9.5t-41.5 -26t-28 -38.5t-10 -48z" />
    <glyph glyph-name="Atilde" unicode="&#xc3;" horiz-adv-x="1476" 
d="M-35 0l658 1650h230l658 -1650h-270l-166 440h-674l-166 -440h-270zM989 660l-251 654l-251 -654h502zM218 1958q56 107 134 165.5t178 58.5q46 0 83.5 -12t70 -30t62 -38.5t59.5 -38.5t62.5 -30t70.5 -12q66 0 113 35t79 92l128 -84q-56 -107 -134 -165.5t-178 -58.5
q-46 0 -83.5 12t-70 30t-62 38.5t-59.5 38.5t-62 30t-71 12q-66 0 -113 -35t-79 -92z" />
    <glyph glyph-name="AE" unicode="&#xc6;" horiz-adv-x="1725" 
d="M-35 0l658 1651h996v-220h-631v-494h607v-220h-607v-497h631v-220h-881v441h-337l-166 -441h-270zM487 661h251v654z" />
    <glyph glyph-name="B" unicode="B" horiz-adv-x="1311" 
d="M163 0v1650h421q120 0 214 -26.5t159 -79t99.5 -130.5t34.5 -180q0 -131 -56 -223t-167 -144q179 -26 274.5 -132.5t95.5 -280.5q0 -107 -36.5 -191t-104.5 -142.5t-166 -89.5t-220 -31h-548zM631 196q171 0 259 67.5t88 197.5q0 131 -90 201.5t-257 70.5h-218v-537h218z
M529 951q157 0 239.5 65t82.5 188q0 124 -81.5 187.5t-240.5 63.5h-116v-504h116z" />
    <glyph glyph-name="C" unicode="C" horiz-adv-x="1547" 
d="M961 1680q154 0 290 -43.5t237 -118.5l-123 -204q-76 58 -176.5 89t-211.5 31q-141 0 -255.5 -47t-195.5 -129t-125 -193.5t-44 -240.5t44 -240.5t125 -193.5t195.5 -129t255.5 -47q111 0 211.5 31t176.5 89l123 -204q-101 -75 -237 -118.5t-290 -43.5q-126 0 -240.5 30
t-211.5 85t-175.5 133t-133.5 173t-84.5 205t-29.5 230t29.5 230t84.5 205t133.5 173t175.5 133t211.5 85t240.5 30z" />
    <glyph glyph-name="Cacute" unicode="&#x106;" horiz-adv-x="1547" 
d="M961 1680q154 0 290 -43.5t237 -118.5l-123 -204q-76 58 -176.5 89t-211.5 31q-141 0 -255.5 -47t-195.5 -129t-125 -193.5t-44 -240.5t44 -240.5t125 -193.5t195.5 -129t255.5 -47q111 0 211.5 31t176.5 89l123 -204q-101 -75 -237 -118.5t-290 -43.5q-126 0 -240.5 30
t-211.5 85t-175.5 133t-133.5 173t-84.5 205t-29.5 230t29.5 230t84.5 205t133.5 173t175.5 133t211.5 85t240.5 30zM1069 2208l102 -178l-416 -212l-76 113z" />
    <glyph glyph-name="Ccaron" unicode="&#x10c;" horiz-adv-x="1547" 
d="M961 1680q154 0 290 -43.5t237 -118.5l-123 -204q-76 58 -176.5 89t-211.5 31q-141 0 -255.5 -47t-195.5 -129t-125 -193.5t-44 -240.5t44 -240.5t125 -193.5t195.5 -129t255.5 -47q111 0 211.5 31t176.5 89l123 -204q-101 -75 -237 -118.5t-290 -43.5q-126 0 -240.5 30
t-211.5 85t-175.5 133t-133.5 173t-84.5 205t-29.5 230t29.5 230t84.5 205t133.5 173t175.5 133t211.5 85t240.5 30zM872 1816l-400 294l94 127l306 -224l306 224l94 -127z" />
    <glyph glyph-name="Ccedilla" unicode="&#xc7;" horiz-adv-x="1547" 
d="M961 1680q154 0 290 -43.5t237 -118.5l-123 -204q-76 58 -176.5 89t-211.5 31q-141 0 -255.5 -47t-195.5 -129t-125 -193.5t-44 -240.5t44 -240.5t125 -193.5t195.5 -129t255.5 -47q111 0 211.5 31t176.5 89l123 -204q-101 -75 -237 -118.5t-290 -43.5q-126 0 -240.5 30
t-211.5 85t-175.5 133t-133.5 173t-84.5 205t-29.5 230t29.5 230t84.5 205t133.5 173t175.5 133t211.5 85t240.5 30zM567 -411l98 71q32 -47 77 -72t98 -25q57 0 92 28.5t35 74.5t-36.5 73.5t-95.5 27.5q-31 0 -64 -7.5t-52 -18.5l-13 10l80 249h110l-50 -151q6 1 11.5 1
h11.5q42 0 84 -11t75 -34t53.5 -58.5t20.5 -84.5q0 -48 -19 -89t-53.5 -70t-82 -45.5t-103.5 -16.5q-85 0 -154.5 38t-122.5 110z" />
    <glyph glyph-name="Cdotaccent" unicode="&#x10a;" horiz-adv-x="1547" 
d="M961 1680q154 0 290 -43.5t237 -118.5l-123 -204q-76 58 -176.5 89t-211.5 31q-141 0 -255.5 -47t-195.5 -129t-125 -193.5t-44 -240.5t44 -240.5t125 -193.5t195.5 -129t255.5 -47q111 0 211.5 31t176.5 89l123 -204q-101 -75 -237 -118.5t-290 -43.5q-126 0 -240.5 30
t-211.5 85t-175.5 133t-133.5 173t-84.5 205t-29.5 230t29.5 230t84.5 205t133.5 173t175.5 133t211.5 85t240.5 30zM727 2103q0 30 11.5 56.5t31 46t46 31t56.5 11.5t56.5 -11.5t46 -31t31 -46t11.5 -56.5t-11.5 -56.5t-31 -46t-46 -31t-56.5 -11.5t-56.5 11.5t-46 31
t-31 46t-11.5 56.5z" />
    <glyph glyph-name="D" unicode="D" horiz-adv-x="1499" 
d="M163 0v1650h418q117 0 224.5 -29t200 -81.5t167.5 -127.5t128.5 -166.5t82.5 -198t29 -222.5t-29 -222.5t-82.5 -198t-128.5 -166.5t-167.5 -127.5t-200 -81.5t-224.5 -29h-418zM555 224q126 0 234 45.5t187.5 126t124.5 190.5t45 239t-45 239t-124.5 190.5t-187.5 126
t-234 45.5h-142v-1202h142z" />
    <glyph glyph-name="Eth" unicode="&#xd0;" horiz-adv-x="1652" 
d="M163 926h153v724h418q117 0 224.5 -29t200 -81.5t167.5 -127.5t128.5 -166.5t82.5 -198t29 -222.5t-29 -222.5t-82.5 -198t-128.5 -166.5t-167.5 -127.5t-200 -81.5t-224.5 -29h-418v723h-153v203zM566 723v-499h142q126 0 234 45.5t187.5 126t124.5 190.5t45 239
t-45 239t-124.5 190.5t-187.5 126t-234 45.5h-142v-500h355v-203h-355z" />
    <glyph glyph-name="Dcaron" unicode="&#x10e;" horiz-adv-x="1499" 
d="M163 0v1650h418q117 0 224.5 -29t200 -81.5t167.5 -127.5t128.5 -166.5t82.5 -198t29 -222.5t-29 -222.5t-82.5 -198t-128.5 -166.5t-167.5 -127.5t-200 -81.5t-224.5 -29h-418zM555 224q126 0 234 45.5t187.5 126t124.5 190.5t45 239t-45 239t-124.5 190.5t-187.5 126
t-234 45.5h-142v-1202h142zM730 1816l-400 294l94 127l306 -224l306 224l94 -127z" />
    <glyph glyph-name="Dcroat" unicode="&#x110;" horiz-adv-x="1652" 
d="M163 926h153v724h418q117 0 224.5 -29t200 -81.5t167.5 -127.5t128.5 -166.5t82.5 -198t29 -222.5t-29 -222.5t-82.5 -198t-128.5 -166.5t-167.5 -127.5t-200 -81.5t-224.5 -29h-418v723h-153v203zM566 723v-499h142q126 0 234 45.5t187.5 126t124.5 190.5t45 239
t-45 239t-124.5 190.5t-187.5 126t-234 45.5h-142v-500h355v-203h-355z" />
    <glyph glyph-name="E" unicode="E" horiz-adv-x="1150" 
d="M1044 1650v-220h-631v-493h607v-220h-607v-497h631v-220h-881v1650h881z" />
    <glyph glyph-name="Eacute" unicode="&#xc9;" horiz-adv-x="1150" 
d="M1044 1650v-220h-631v-493h607v-220h-607v-497h631v-220h-881v1650h881zM804 2208l102 -178l-416 -212l-76 113z" />
    <glyph glyph-name="Ecaron" unicode="&#x11a;" horiz-adv-x="1150" 
d="M1044 1650v-220h-631v-493h607v-220h-607v-497h631v-220h-881v1650h881zM607 1816l-400 294l94 127l306 -224l306 224l94 -127z" />
    <glyph glyph-name="Ecircumflex" unicode="&#xca;" horiz-adv-x="1150" 
d="M1044 1650v-220h-631v-493h607v-220h-607v-497h631v-220h-881v1650h881zM302 1885l-94 127l400 293l400 -293l-94 -127l-306 224z" />
    <glyph glyph-name="Edieresis" unicode="&#xcb;" horiz-adv-x="1150" 
d="M1044 1650v-220h-631v-493h607v-220h-607v-497h631v-220h-881v1650h881zM843 2155q27 0 51 -10.5t42 -28t28 -41.5t10 -51t-10 -51t-28 -41.5t-42 -28t-51 -10.5t-51 10.5t-42 28t-28 41.5t-10 51t10 51t28 41.5t42 28t51 10.5zM242 2024q0 27 10 51t28 41.5t42 28
t51 10.5t51 -10.5t42 -28t28 -41.5t10 -51t-10 -51t-28 -41.5t-42 -28t-51 -10.5t-51 10.5t-42 28t-28 41.5t-10 51z" />
    <glyph glyph-name="Edotaccent" unicode="&#x116;" horiz-adv-x="1150" 
d="M1044 1650v-220h-631v-493h607v-220h-607v-497h631v-220h-881v1650h881zM462 2103q0 30 11.5 56.5t31 46t46 31t56.5 11.5t56.5 -11.5t46 -31t31 -46t11.5 -56.5t-11.5 -56.5t-31 -46t-46 -31t-56.5 -11.5t-56.5 11.5t-46 31t-31 46t-11.5 56.5z" />
    <glyph glyph-name="Egrave" unicode="&#xc8;" horiz-adv-x="1150" 
d="M1044 1650v-220h-631v-493h607v-220h-607v-497h631v-220h-881v1650h881zM698 1818l-426 218l112 172l390 -277z" />
    <glyph glyph-name="Emacron" unicode="&#x112;" horiz-adv-x="1150" 
d="M1044 1650v-220h-631v-493h607v-220h-607v-497h631v-220h-881v1650h881zM199 1933v164h816v-164h-816z" />
    <glyph glyph-name="Eogonek" unicode="&#x118;" horiz-adv-x="1150" 
d="M1044 1650v-220h-631v-493h607v-220h-607v-497h631v-220h-881v1650h881zM749 -333q0 69 45.5 154t131.5 179h118q-70 -80 -110 -160.5t-40 -140.5q0 -51 32 -85.5t95 -34.5q86 0 153 82l101 -75q-23 -33 -53.5 -60t-66.5 -45.5t-75 -28.5t-80 -10q-54 0 -100 17.5
t-79.5 48.5t-52.5 71.5t-19 87.5z" />
    <glyph glyph-name="F" unicode="F" horiz-adv-x="1149" 
d="M163 1650h887v-220h-637v-494h592v-220h-592v-716h-250v1650z" />
    <glyph glyph-name="G" unicode="G" horiz-adv-x="1734" 
d="M86 823q0 113 26 220t75.5 202.5t121.5 175t164 137.5t202.5 90t237.5 32q98 0 184 -19.5t162 -55t142 -85.5t123 -111l-155 -147q-37 44 -85 79t-104.5 60.5t-120 39t-132.5 13.5q-137 0 -243.5 -52.5t-179.5 -140t-111 -201.5t-38 -236q0 -129 41.5 -243t116 -199
t176 -134.5t221.5 -49.5q93 0 181 31t156.5 87.5t109.5 136t41 176.5v38h-508v196h763v-172q0 -122 -30 -223t-82.5 -181t-123.5 -140t-154.5 -100t-174.5 -59.5t-183 -19.5q-117 0 -223.5 30.5t-197.5 86t-164.5 133.5t-125.5 173t-80 204.5t-28 227.5z" />
    <glyph glyph-name="Gbreve" unicode="&#x11e;" horiz-adv-x="1734" 
d="M86 823q0 113 26 220t75.5 202.5t121.5 175t164 137.5t202.5 90t237.5 32q98 0 184 -19.5t162 -55t142 -85.5t123 -111l-155 -147q-37 44 -85 79t-104.5 60.5t-120 39t-132.5 13.5q-137 0 -243.5 -52.5t-179.5 -140t-111 -201.5t-38 -236q0 -129 41.5 -243t116 -199
t176 -134.5t221.5 -49.5q93 0 181 31t156.5 87.5t109.5 136t41 176.5v38h-508v196h763v-172q0 -122 -30 -223t-82.5 -181t-123.5 -140t-154.5 -100t-174.5 -59.5t-183 -19.5q-117 0 -223.5 30.5t-197.5 86t-164.5 133.5t-125.5 173t-80 204.5t-28 227.5zM448 2264l172 42
q8 -46 28 -87.5t52.5 -73t78 -50t102.5 -18.5t102.5 18.5t78 50t53 73t27.5 87.5l172 -42q-12 -76 -48.5 -138.5t-93 -107.5t-130.5 -69.5t-161 -24.5t-161 24.5t-130.5 69.5t-93 107.5t-48.5 138.5z" />
    <glyph glyph-name="uni0122" unicode="&#x122;" horiz-adv-x="1734" 
d="M86 823q0 113 26 220t75.5 202.5t121.5 175t164 137.5t202.5 90t237.5 32q98 0 184 -19.5t162 -55t142 -85.5t123 -111l-155 -147q-37 44 -85 79t-104.5 60.5t-120 39t-132.5 13.5q-137 0 -243.5 -52.5t-179.5 -140t-111 -201.5t-38 -236q0 -129 41.5 -243t116 -199
t176 -134.5t221.5 -49.5q93 0 181 31t156.5 87.5t109.5 136t41 176.5v38h-508v196h763v-172q0 -122 -30 -223t-82.5 -181t-123.5 -140t-154.5 -100t-174.5 -59.5t-183 -19.5q-117 0 -223.5 30.5t-197.5 86t-164.5 133.5t-125.5 173t-80 204.5t-28 227.5zM881 -118
q43 0 69 -28.5t26 -83.5q0 -33 -10.5 -69.5t-29 -71.5t-44.5 -67.5t-58 -57.5l-35 30q12 13 22.5 32t19.5 40.5t15 45.5t8 47q-35 6 -56.5 30.5t-21.5 60.5q0 40 26.5 66t68.5 26z" />
    <glyph glyph-name="Gdotaccent" unicode="&#x120;" horiz-adv-x="1734" 
d="M86 823q0 113 26 220t75.5 202.5t121.5 175t164 137.5t202.5 90t237.5 32q98 0 184 -19.5t162 -55t142 -85.5t123 -111l-155 -147q-37 44 -85 79t-104.5 60.5t-120 39t-132.5 13.5q-137 0 -243.5 -52.5t-179.5 -140t-111 -201.5t-38 -236q0 -129 41.5 -243t116 -199
t176 -134.5t221.5 -49.5q93 0 181 31t156.5 87.5t109.5 136t41 176.5v38h-508v196h763v-172q0 -122 -30 -223t-82.5 -181t-123.5 -140t-154.5 -100t-174.5 -59.5t-183 -19.5q-117 0 -223.5 30.5t-197.5 86t-164.5 133.5t-125.5 173t-80 204.5t-28 227.5zM736 2103
q0 30 11.5 56.5t31 46t46 31t56.5 11.5t56.5 -11.5t46 -31t31 -46t11.5 -56.5t-11.5 -56.5t-31 -46t-46 -31t-56.5 -11.5t-56.5 11.5t-46 31t-31 46t-11.5 56.5z" />
    <glyph glyph-name="H" unicode="H" horiz-adv-x="1564" 
d="M413 1650v-713h738v713h250v-1650h-250v717h-738v-717h-250v1650h250z" />
    <glyph glyph-name="Hbar" unicode="&#x126;" horiz-adv-x="1726" 
d="M244 1240v410h250v-410h738v410h250v-410h132v-173h-132v-1067h-250v675h-738v-675h-250v1067h-132v173h132zM494 1067v-219h738v219h-738z" />
    <glyph glyph-name="I" unicode="I" horiz-adv-x="576" 
d="M163 0v1650h250v-1650h-250z" />
    <glyph glyph-name="Iacute" unicode="&#xcd;" horiz-adv-x="576" 
d="M163 0v1650h250v-1650h-250zM485 2208l102 -178l-416 -212l-76 113z" />
    <glyph glyph-name="Icircumflex" unicode="&#xce;" horiz-adv-x="576" 
d="M163 0v1650h250v-1650h-250zM-17 1885l-94 127l400 293l400 -293l-94 -127l-306 224z" />
    <glyph glyph-name="Idieresis" unicode="&#xcf;" horiz-adv-x="576" 
d="M163 0v1650h250v-1650h-250zM524 2155q27 0 51 -10.5t42 -28t28 -41.5t10 -51t-10 -51t-28 -41.5t-42 -28t-51 -10.5t-51 10.5t-42 28t-28 41.5t-10 51t10 51t28 41.5t42 28t51 10.5zM-77 2024q0 27 10 51t28 41.5t42 28t51 10.5t51 -10.5t42 -28t28 -41.5t10 -51
t-10 -51t-28 -41.5t-42 -28t-51 -10.5t-51 10.5t-42 28t-28 41.5t-10 51z" />
    <glyph glyph-name="Idotaccent" unicode="&#x130;" horiz-adv-x="576" 
d="M163 0v1650h250v-1650h-250zM143 2103q0 30 11.5 56.5t31 46t46 31t56.5 11.5t56.5 -11.5t46 -31t31 -46t11.5 -56.5t-11.5 -56.5t-31 -46t-46 -31t-56.5 -11.5t-56.5 11.5t-46 31t-31 46t-11.5 56.5z" />
    <glyph glyph-name="Igrave" unicode="&#xcc;" horiz-adv-x="576" 
d="M163 0v1650h250v-1650h-250zM379 1818l-426 218l112 172l390 -277z" />
    <glyph glyph-name="Imacron" unicode="&#x12a;" horiz-adv-x="576" 
d="M163 0v1650h250v-1650h-250zM-120 1933v164h816v-164h-816z" />
    <glyph glyph-name="Iogonek" unicode="&#x12e;" horiz-adv-x="576" 
d="M163 0v1650h250v-1650h-250zM118 -333q0 69 45.5 154t131.5 179h118q-70 -80 -110 -160.5t-40 -140.5q0 -51 32 -85.5t95 -34.5q86 0 153 82l101 -75q-23 -33 -53.5 -60t-66.5 -45.5t-75 -28.5t-80 -10q-54 0 -100 17.5t-79.5 48.5t-52.5 71.5t-19 87.5z" />
    <glyph glyph-name="J" unicode="J" horiz-adv-x="1013" 
d="M85 321q58 -60 121.5 -87t132.5 -27q133 0 206 85t73 239v1119h250v-1186q0 -118 -33.5 -210t-97 -155.5t-155 -97t-207.5 -33.5q-129 0 -232 47t-196 149z" />
    <glyph glyph-name="K" unicode="K" horiz-adv-x="1448" 
d="M413 1650v-717l663 717h309l-747 -804l839 -846h-347l-717 719v-719h-250v1650h250z" />
    <glyph glyph-name="uni0136" unicode="&#x136;" horiz-adv-x="1448" 
d="M413 1650v-717l663 717h309l-747 -804l839 -846h-347l-717 719v-719h-250v1650h250zM716 -118q43 0 69 -28.5t26 -83.5q0 -33 -10.5 -69.5t-29 -71.5t-44.5 -67.5t-58 -57.5l-35 30q12 13 22.5 32t19.5 40.5t15 45.5t8 47q-35 6 -56.5 30.5t-21.5 60.5q0 40 26.5 66
t68.5 26z" />
    <glyph glyph-name="L" unicode="L" horiz-adv-x="1075" 
d="M163 0v1650h250v-1430h637v-220h-887z" />
    <glyph glyph-name="Lacute" unicode="&#x139;" horiz-adv-x="1075" 
d="M163 0v1650h250v-1430h637v-220h-887zM716 2208l102 -178l-416 -212l-76 113z" />
    <glyph glyph-name="Lcaron" unicode="&#x13d;" horiz-adv-x="1075" 
d="M163 0v1650h250v-1430h637v-220h-887zM519 1816l-400 294l94 127l306 -224l306 224l94 -127z" />
    <glyph glyph-name="uni013B" unicode="&#x13b;" horiz-adv-x="1075" 
d="M163 0v1650h250v-1430h637v-220h-887zM592 -118q43 0 69 -28.5t26 -83.5q0 -33 -10.5 -69.5t-29 -71.5t-44.5 -67.5t-58 -57.5l-35 30q12 13 22.5 32t19.5 40.5t15 45.5t8 47q-35 6 -56.5 30.5t-21.5 60.5q0 40 26.5 66t68.5 26z" />
    <glyph glyph-name="Lslash" unicode="&#x141;" horiz-adv-x="1215" 
d="M303 857v793h250v-597l230 181v-203l-230 -181v-630h637v-220h-887v653l-140 -110v204z" />
    <glyph glyph-name="M" unicode="M" horiz-adv-x="1897" 
d="M249 1650h267l432 -1143l433 1143h267l185 -1650h-250l-137 1197l-417 -1131h-161l-417 1131l-137 -1197h-250z" />
    <glyph glyph-name="N" unicode="N" horiz-adv-x="1612" 
d="M413 1650l786 -1231v1231h250v-1650h-250l-786 1230v-1230h-250v1650h250z" />
    <glyph glyph-name="Nacute" unicode="&#x143;" horiz-adv-x="1612" 
d="M413 1650l786 -1231v1231h250v-1650h-250l-786 1230v-1230h-250v1650h250zM1003 2208l102 -178l-416 -212l-76 113z" />
    <glyph glyph-name="Ncaron" unicode="&#x147;" horiz-adv-x="1612" 
d="M413 1650l786 -1231v1231h250v-1650h-250l-786 1230v-1230h-250v1650h250zM806 1816l-400 294l94 127l306 -224l306 224l94 -127z" />
    <glyph glyph-name="uni0145" unicode="&#x145;" horiz-adv-x="1612" 
d="M413 1650l786 -1231v1231h250v-1650h-250l-786 1230v-1230h-250v1650h250zM806 -118q43 0 69 -28.5t26 -83.5q0 -33 -10.5 -69.5t-29 -71.5t-44.5 -67.5t-58 -57.5l-35 30q12 13 22.5 32t19.5 40.5t15 45.5t8 47q-35 6 -56.5 30.5t-21.5 60.5q0 40 26.5 66t68.5 26z" />
    <glyph glyph-name="Eng" unicode="&#x14a;" horiz-adv-x="1594" 
d="M163 0v1650h250l786 -1231v1231h250v-1705q0 -118 -33.5 -210t-97.5 -155.5t-155 -97t-207 -33.5q-66 0 -124 11.5t-110.5 35.5t-100 61t-93.5 89l138 156q60 -62 124.5 -88t129.5 -26q67 0 119 22t87.5 61.5t54 94t18.5 119.5v15l-786 1230v-1230h-250z" />
    <glyph glyph-name="Ntilde" unicode="&#xd1;" horiz-adv-x="1612" 
d="M413 1650l786 -1231v1231h250v-1650h-250l-786 1230v-1230h-250v1650h250zM286 1958q56 107 134 165.5t178 58.5q46 0 83.5 -12t70 -30t62 -38.5t59.5 -38.5t62.5 -30t70.5 -12q66 0 113 35t79 92l128 -84q-56 -107 -134 -165.5t-178 -58.5q-46 0 -83.5 12t-70 30
t-62 38.5t-59.5 38.5t-62 30t-71 12q-66 0 -113 -35t-79 -92z" />
    <glyph glyph-name="O" unicode="O" horiz-adv-x="1836" 
d="M86 824q0 119 29.5 228.5t83.5 205t130 173t168 133t199 86t222 30.5q116 0 222.5 -30.5t198.5 -86t168 -133t130 -173t83.5 -205t29.5 -228.5t-29.5 -228.5t-83.5 -205t-130 -173t-168 -133t-199 -86t-222 -30.5t-222 30.5t-199 86t-168 133t-130 173t-83.5 205
t-29.5 228.5zM356 824q0 -132 42.5 -244.5t117.5 -195t178 -129t224 -46.5t224 46.5t178.5 129t118 195t42.5 244.5t-42.5 244.5t-118 195t-178.5 129t-224 46.5t-224 -46.5t-178 -129t-117.5 -195t-42.5 -244.5z" />
    <glyph glyph-name="Oacute" unicode="&#xd3;" horiz-adv-x="1836" 
d="M86 824q0 119 29.5 228.5t83.5 205t130 173t168 133t199 86t222 30.5q116 0 222.5 -30.5t198.5 -86t168 -133t130 -173t83.5 -205t29.5 -228.5t-29.5 -228.5t-83.5 -205t-130 -173t-168 -133t-199 -86t-222 -30.5t-222 30.5t-199 86t-168 133t-130 173t-83.5 205
t-29.5 228.5zM356 824q0 -132 42.5 -244.5t117.5 -195t178 -129t224 -46.5t224 46.5t178.5 129t118 195t42.5 244.5t-42.5 244.5t-118 195t-178.5 129t-224 46.5t-224 -46.5t-178 -129t-117.5 -195t-42.5 -244.5zM1115 2208l102 -178l-416 -212l-76 113z" />
    <glyph glyph-name="Ocircumflex" unicode="&#xd4;" horiz-adv-x="1836" 
d="M86 824q0 119 29.5 228.5t83.5 205t130 173t168 133t199 86t222 30.5q116 0 222.5 -30.5t198.5 -86t168 -133t130 -173t83.5 -205t29.5 -228.5t-29.5 -228.5t-83.5 -205t-130 -173t-168 -133t-199 -86t-222 -30.5t-222 30.5t-199 86t-168 133t-130 173t-83.5 205
t-29.5 228.5zM356 824q0 -132 42.5 -244.5t117.5 -195t178 -129t224 -46.5t224 46.5t178.5 129t118 195t42.5 244.5t-42.5 244.5t-118 195t-178.5 129t-224 46.5t-224 -46.5t-178 -129t-117.5 -195t-42.5 -244.5zM613 1885l-94 127l400 293l400 -293l-94 -127l-306 224z" />
    <glyph glyph-name="Odieresis" unicode="&#xd6;" horiz-adv-x="1836" 
d="M86 824q0 119 29.5 228.5t83.5 205t130 173t168 133t199 86t222 30.5q116 0 222.5 -30.5t198.5 -86t168 -133t130 -173t83.5 -205t29.5 -228.5t-29.5 -228.5t-83.5 -205t-130 -173t-168 -133t-199 -86t-222 -30.5t-222 30.5t-199 86t-168 133t-130 173t-83.5 205
t-29.5 228.5zM356 824q0 -132 42.5 -244.5t117.5 -195t178 -129t224 -46.5t224 46.5t178.5 129t118 195t42.5 244.5t-42.5 244.5t-118 195t-178.5 129t-224 46.5t-224 -46.5t-178 -129t-117.5 -195t-42.5 -244.5zM1154 2155q27 0 51 -10.5t42 -28t28 -41.5t10 -51t-10 -51
t-28 -41.5t-42 -28t-51 -10.5t-51 10.5t-42 28t-28 41.5t-10 51t10 51t28 41.5t42 28t51 10.5zM553 2024q0 27 10 51t28 41.5t42 28t51 10.5t51 -10.5t42 -28t28 -41.5t10 -51t-10 -51t-28 -41.5t-42 -28t-51 -10.5t-51 10.5t-42 28t-28 41.5t-10 51z" />
    <glyph glyph-name="Ograve" unicode="&#xd2;" horiz-adv-x="1836" 
d="M86 824q0 119 29.5 228.5t83.5 205t130 173t168 133t199 86t222 30.5q116 0 222.5 -30.5t198.5 -86t168 -133t130 -173t83.5 -205t29.5 -228.5t-29.5 -228.5t-83.5 -205t-130 -173t-168 -133t-199 -86t-222 -30.5t-222 30.5t-199 86t-168 133t-130 173t-83.5 205
t-29.5 228.5zM356 824q0 -132 42.5 -244.5t117.5 -195t178 -129t224 -46.5t224 46.5t178.5 129t118 195t42.5 244.5t-42.5 244.5t-118 195t-178.5 129t-224 46.5t-224 -46.5t-178 -129t-117.5 -195t-42.5 -244.5zM1009 1818l-426 218l112 172l390 -277z" />
    <glyph glyph-name="Ohungarumlaut" unicode="&#x150;" horiz-adv-x="1836" 
d="M86 824q0 119 29.5 228.5t83.5 205t130 173t168 133t199 86t222 30.5q116 0 222.5 -30.5t198.5 -86t168 -133t130 -173t83.5 -205t29.5 -228.5t-29.5 -228.5t-83.5 -205t-130 -173t-168 -133t-199 -86t-222 -30.5t-222 30.5t-199 86t-168 133t-130 173t-83.5 205
t-29.5 228.5zM356 824q0 -132 42.5 -244.5t117.5 -195t178 -129t224 -46.5t224 46.5t178.5 129t118 195t42.5 244.5t-42.5 244.5t-118 195t-178.5 129t-224 46.5t-224 -46.5t-178 -129t-117.5 -195t-42.5 -244.5zM1090 1916l-95 110l284 280l153 -164zM651 1916l-96 110
l285 280l152 -164z" />
    <glyph glyph-name="Omacron" unicode="&#x14c;" horiz-adv-x="1836" 
d="M86 824q0 119 29.5 228.5t83.5 205t130 173t168 133t199 86t222 30.5q116 0 222.5 -30.5t198.5 -86t168 -133t130 -173t83.5 -205t29.5 -228.5t-29.5 -228.5t-83.5 -205t-130 -173t-168 -133t-199 -86t-222 -30.5t-222 30.5t-199 86t-168 133t-130 173t-83.5 205
t-29.5 228.5zM356 824q0 -132 42.5 -244.5t117.5 -195t178 -129t224 -46.5t224 46.5t178.5 129t118 195t42.5 244.5t-42.5 244.5t-118 195t-178.5 129t-224 46.5t-224 -46.5t-178 -129t-117.5 -195t-42.5 -244.5zM510 1933v164h816v-164h-816z" />
    <glyph glyph-name="Oslash" unicode="&#xd8;" horiz-adv-x="1836" 
d="M498 84l-78 -98l-153 113l80 101q-60 58 -108.5 128t-82.5 149.5t-52 166.5t-18 180q0 119 29.5 228.5t83.5 205t130 173t168 133t199 86t222 30.5q134 0 254.5 -40t222.5 -113l122 155l154 -118l-133 -167q100 -115 156 -260.5t56 -312.5q0 -119 -29.5 -228.5
t-83.5 -205t-130 -173t-168 -133t-199 -86t-222 -30.5q-116 0 -221.5 30t-198.5 86zM1242 1334q-68 51 -149.5 78t-174.5 27q-121 0 -224 -46.5t-178 -129t-117.5 -195t-42.5 -244.5q0 -127 39 -235t109 -190zM918 209q121 0 224 46.5t178.5 129t118 195t42.5 244.5
q0 106 -27 199t-78 169l-725 -915q59 -33 126 -50.5t141 -17.5z" />
    <glyph glyph-name="Otilde" unicode="&#xd5;" horiz-adv-x="1836" 
d="M86 824q0 119 29.5 228.5t83.5 205t130 173t168 133t199 86t222 30.5q116 0 222.5 -30.5t198.5 -86t168 -133t130 -173t83.5 -205t29.5 -228.5t-29.5 -228.5t-83.5 -205t-130 -173t-168 -133t-199 -86t-222 -30.5t-222 30.5t-199 86t-168 133t-130 173t-83.5 205
t-29.5 228.5zM356 824q0 -132 42.5 -244.5t117.5 -195t178 -129t224 -46.5t224 46.5t178.5 129t118 195t42.5 244.5t-42.5 244.5t-118 195t-178.5 129t-224 46.5t-224 -46.5t-178 -129t-117.5 -195t-42.5 -244.5zM398 1958q56 107 134 165.5t178 58.5q46 0 83.5 -12t70 -30
t62 -38.5t59.5 -38.5t62.5 -30t70.5 -12q66 0 113 35t79 92l128 -84q-56 -107 -134 -165.5t-178 -58.5q-46 0 -83.5 12t-70 30t-62 38.5t-59.5 38.5t-62 30t-71 12q-66 0 -113 -35t-79 -92z" />
    <glyph glyph-name="OE" unicode="&#x152;" horiz-adv-x="1965" 
d="M86 825q0 179 64 330t185 261t294.5 172t392.5 62h837v-219h-631v-494h607v-220h-607v-497h631v-220h-837q-219 0 -392.5 62t-294.5 172t-185 261t-64 330zM356 825q0 -133 45 -243.5t126.5 -190t196.5 -123.5t254 -44v1203q-136 0 -250.5 -44t-197 -123.5t-128.5 -190.5
t-46 -244z" />
    <glyph glyph-name="P" unicode="P" horiz-adv-x="1295" 
d="M667 1650q121 0 220.5 -33.5t171 -97t111 -155.5t39.5 -209t-39.5 -209t-111 -155.5t-171 -97t-220.5 -33.5h-254v-660h-250v1650h504zM413 860h181q77 0 142 18.5t112 55t74 92t27 129.5t-27 129.5t-74 92t-112 55t-142 18.5h-181v-590z" />
    <glyph glyph-name="Thorn" unicode="&#xde;" horiz-adv-x="1295" 
d="M413 1650v-335h254q121 0 220.5 -33.5t171 -96.5t111 -155t39.5 -209t-39.5 -209t-111 -155.5t-171 -97t-220.5 -33.5h-254v-326h-250v1650h250zM594 526q77 0 142 18.5t112 55t74 92t27 129.5t-27 129t-74 92t-112 55t-142 18h-181v-589h181z" />
    <glyph glyph-name="Q" unicode="Q" horiz-adv-x="1887" 
d="M86 823q0 119 29.5 228.5t83.5 205t130 173t168 133t199 86t222 30.5q116 0 222.5 -30.5t198.5 -86t168 -133t130 -173t83.5 -205t29.5 -228.5q0 -153 -47.5 -289t-133.5 -246q70 -35 143 -64.5t151 -53.5l-111 -224q-87 35 -173 81t-171 102q-103 -77 -227 -119.5
t-263 -42.5q-115 0 -222 30.5t-199 86t-168 133t-130 173t-83.5 205t-29.5 228.5zM356 823q0 -132 42.5 -244.5t117.5 -195t178 -129t224 -46.5q78 0 149 20t133 57q-69 59 -130.5 121.5t-114.5 126.5l131 107q119 -122 263 -222q63 81 97.5 183.5t34.5 221.5
q0 132 -42.5 244.5t-118 195t-178.5 129t-224 46.5t-224 -46.5t-178 -129t-117.5 -195t-42.5 -244.5z" />
    <glyph glyph-name="R" unicode="R" horiz-adv-x="1355" 
d="M667 1650q123 0 223 -33.5t171 -96.5t110 -154t39 -207q0 -98 -28 -178.5t-80.5 -141t-127 -100.5t-167.5 -57l546 -682h-318l-498 653h-124v-653h-250v1650h504zM413 868h182q80 0 145.5 19t112 55.5t71.5 91t25 125.5t-25 125.5t-71.5 91.5t-112 55.5t-145.5 18.5h-182
v-582z" />
    <glyph glyph-name="Racute" unicode="&#x154;" horiz-adv-x="1355" 
d="M667 1650q123 0 223 -33.5t171 -96.5t110 -154t39 -207q0 -98 -28 -178.5t-80.5 -141t-127 -100.5t-167.5 -57l546 -682h-318l-498 653h-124v-653h-250v1650h504zM413 868h182q80 0 145.5 19t112 55.5t71.5 91t25 125.5t-25 125.5t-71.5 91.5t-112 55.5t-145.5 18.5h-182
v-582zM846 2208l102 -178l-416 -212l-76 113z" />
    <glyph glyph-name="Rcaron" unicode="&#x158;" horiz-adv-x="1355" 
d="M667 1650q123 0 223 -33.5t171 -96.5t110 -154t39 -207q0 -98 -28 -178.5t-80.5 -141t-127 -100.5t-167.5 -57l546 -682h-318l-498 653h-124v-653h-250v1650h504zM413 868h182q80 0 145.5 19t112 55.5t71.5 91t25 125.5t-25 125.5t-71.5 91.5t-112 55.5t-145.5 18.5h-182
v-582zM649 1816l-400 294l94 127l306 -224l306 224l94 -127z" />
    <glyph glyph-name="uni0156" unicode="&#x156;" horiz-adv-x="1355" 
d="M667 1650q123 0 223 -33.5t171 -96.5t110 -154t39 -207q0 -98 -28 -178.5t-80.5 -141t-127 -100.5t-167.5 -57l546 -682h-318l-498 653h-124v-653h-250v1650h504zM413 868h182q80 0 145.5 19t112 55.5t71.5 91t25 125.5t-25 125.5t-71.5 91.5t-112 55.5t-145.5 18.5h-182
v-582zM649 -118q43 0 69 -28.5t26 -83.5q0 -33 -10.5 -69.5t-29 -71.5t-44.5 -67.5t-58 -57.5l-35 30q12 13 22.5 32t19.5 40.5t15 45.5t8 47q-35 6 -56.5 30.5t-21.5 60.5q0 40 26.5 66t68.5 26z" />
    <glyph glyph-name="S" unicode="S" horiz-adv-x="1311" 
d="M77 251l153 151q43 -46 93 -83.5t104.5 -64t112.5 -41t116 -14.5q62 0 116 17t94 49t63.5 78.5t23.5 105.5q0 51 -18 92.5t-60 78.5t-111 72t-171 74q-109 42 -188.5 90t-131 104.5t-76.5 121.5t-25 140q0 93 36.5 176t103.5 145.5t160.5 99.5t208.5 37q73 0 140.5 -16
t126 -42.5t105 -61t77.5 -71.5l-137 -160q-29 26 -64.5 48t-75.5 39t-84 26.5t-91 9.5q-63 0 -112 -18.5t-82.5 -49.5t-51 -71.5t-17.5 -85.5q0 -41 17 -76.5t53.5 -68.5t95 -63.5t141.5 -61.5q122 -45 215 -93.5t157 -107.5t96.5 -132.5t32.5 -168.5q0 -116 -42.5 -206.5
t-117 -153t-176.5 -95t-221 -32.5q-96 0 -185 21.5t-166 60t-138 90t-100 111.5z" />
    <glyph glyph-name="Sacute" unicode="&#x15a;" horiz-adv-x="1311" 
d="M77 251l153 151q43 -46 93 -83.5t104.5 -64t112.5 -41t116 -14.5q62 0 116 17t94 49t63.5 78.5t23.5 105.5q0 51 -18 92.5t-60 78.5t-111 72t-171 74q-109 42 -188.5 90t-131 104.5t-76.5 121.5t-25 140q0 93 36.5 176t103.5 145.5t160.5 99.5t208.5 37q73 0 140.5 -16
t126 -42.5t105 -61t77.5 -71.5l-137 -160q-29 26 -64.5 48t-75.5 39t-84 26.5t-91 9.5q-63 0 -112 -18.5t-82.5 -49.5t-51 -71.5t-17.5 -85.5q0 -41 17 -76.5t53.5 -68.5t95 -63.5t141.5 -61.5q122 -45 215 -93.5t157 -107.5t96.5 -132.5t32.5 -168.5q0 -116 -42.5 -206.5
t-117 -153t-176.5 -95t-221 -32.5q-96 0 -185 21.5t-166 60t-138 90t-100 111.5zM896 2228l102 -178l-416 -212l-76 113z" />
    <glyph glyph-name="Scaron" unicode="&#x160;" horiz-adv-x="1311" 
d="M77 251l153 151q43 -46 93 -83.5t104.5 -64t112.5 -41t116 -14.5q62 0 116 17t94 49t63.5 78.5t23.5 105.5q0 51 -18 92.5t-60 78.5t-111 72t-171 74q-109 42 -188.5 90t-131 104.5t-76.5 121.5t-25 140q0 93 36.5 176t103.5 145.5t160.5 99.5t208.5 37q73 0 140.5 -16
t126 -42.5t105 -61t77.5 -71.5l-137 -160q-29 26 -64.5 48t-75.5 39t-84 26.5t-91 9.5q-63 0 -112 -18.5t-82.5 -49.5t-51 -71.5t-17.5 -85.5q0 -41 17 -76.5t53.5 -68.5t95 -63.5t141.5 -61.5q122 -45 215 -93.5t157 -107.5t96.5 -132.5t32.5 -168.5q0 -116 -42.5 -206.5
t-117 -153t-176.5 -95t-221 -32.5q-96 0 -185 21.5t-166 60t-138 90t-100 111.5zM699 1836l-400 294l94 127l306 -224l306 224l94 -127z" />
    <glyph glyph-name="Scedilla" unicode="&#x15e;" horiz-adv-x="1311" 
d="M77 251l153 151q43 -46 93 -83.5t104.5 -64t112.5 -41t116 -14.5q62 0 116 17t94 49t63.5 78.5t23.5 105.5q0 51 -18 92.5t-60 78.5t-111 72t-171 74q-109 42 -188.5 90t-131 104.5t-76.5 121.5t-25 140q0 93 36.5 176t103.5 145.5t160.5 99.5t208.5 37q73 0 140.5 -16
t126 -42.5t105 -61t77.5 -71.5l-137 -160q-29 26 -64.5 48t-75.5 39t-84 26.5t-91 9.5q-63 0 -112 -18.5t-82.5 -49.5t-51 -71.5t-17.5 -85.5q0 -41 17 -76.5t53.5 -68.5t95 -63.5t141.5 -61.5q122 -45 215 -93.5t157 -107.5t96.5 -132.5t32.5 -168.5q0 -116 -42.5 -206.5
t-117 -153t-176.5 -95t-221 -32.5q-96 0 -185 21.5t-166 60t-138 90t-100 111.5zM379 -411l98 71q32 -47 77 -72t98 -25q57 0 92 28.5t35 74.5t-36.5 73.5t-95.5 27.5q-31 0 -64 -7.5t-52 -18.5l-13 10l80 249h110l-50 -151q6 1 11.5 1h11.5q42 0 84 -11t75 -34t53.5 -58.5
t20.5 -84.5q0 -48 -19 -89t-53.5 -70t-82 -45.5t-103.5 -16.5q-85 0 -154.5 38t-122.5 110z" />
    <glyph glyph-name="uni0218" unicode="&#x218;" horiz-adv-x="1311" 
d="M77 251l153 151q43 -46 93 -83.5t104.5 -64t112.5 -41t116 -14.5q62 0 116 17t94 49t63.5 78.5t23.5 105.5q0 51 -18 92.5t-60 78.5t-111 72t-171 74q-109 42 -188.5 90t-131 104.5t-76.5 121.5t-25 140q0 93 36.5 176t103.5 145.5t160.5 99.5t208.5 37q73 0 140.5 -16
t126 -42.5t105 -61t77.5 -71.5l-137 -160q-29 26 -64.5 48t-75.5 39t-84 26.5t-91 9.5q-63 0 -112 -18.5t-82.5 -49.5t-51 -71.5t-17.5 -85.5q0 -41 17 -76.5t53.5 -68.5t95 -63.5t141.5 -61.5q122 -45 215 -93.5t157 -107.5t96.5 -132.5t32.5 -168.5q0 -116 -42.5 -206.5
t-117 -153t-176.5 -95t-221 -32.5q-96 0 -185 21.5t-166 60t-138 90t-100 111.5zM676 -118q43 0 69 -28.5t26 -83.5q0 -33 -10.5 -69.5t-29 -71.5t-44.5 -67.5t-58 -57.5l-35 30q12 13 22.5 32t19.5 40.5t15 45.5t8 47q-35 6 -56.5 30.5t-21.5 60.5q0 40 26.5 66t68.5 26z
" />
    <glyph glyph-name="Germandbls" unicode="&#x1e9e;" horiz-adv-x="1503" 
d="M163 1003q0 159 38 285t111 213t179 133.5t241 46.5q105 0 194.5 -28.5t155.5 -84t103.5 -136.5t37.5 -187q0 -65 -13.5 -113t-33.5 -83.5t-44 -61t-44 -45.5t-33.5 -36.5t-13.5 -33.5q0 -25 27.5 -44t69.5 -41t90 -50.5t90 -71.5t69.5 -105t27.5 -152
q0 -101 -37.5 -181.5t-102 -137t-151 -87t-185.5 -30.5q-185 0 -392 115l106 211q75 -42 139.5 -64t132.5 -22q53 0 98 15t77.5 43t50.5 68t18 90q0 46 -17 79.5t-45 58.5t-63.5 44t-72.5 36t-72.5 34.5t-63.5 39.5t-45 51t-17 69q0 38 14.5 65t36.5 49.5t47 44t47 48.5
t36.5 63.5t14.5 88.5q0 59 -19.5 103.5t-54 74.5t-81 45t-100.5 15q-148 0 -224.5 -107.5t-76.5 -305.5v-1024h-250v1003z" />
    <glyph glyph-name="T" unicode="T" horiz-adv-x="1184" 
d="M12 1650h1160v-223h-455v-1427h-250v1427h-455v223z" />
    <glyph glyph-name="Tbar" unicode="&#x166;" horiz-adv-x="1184" 
d="M12 1427v223h1160v-223h-455v-403h252v-173h-252v-851h-250v851h-252v173h252v403h-455z" />
    <glyph glyph-name="Tcaron" unicode="&#x164;" horiz-adv-x="1184" 
d="M12 1650h1160v-223h-455v-1427h-250v1427h-455v223zM592 1816l-400 294l94 127l306 -224l306 224l94 -127z" />
    <glyph glyph-name="uni0162" unicode="&#x162;" horiz-adv-x="1184" 
d="M12 1650h1160v-223h-455v-1427h-250v1427h-455v223zM592 -118q43 0 69 -28.5t26 -83.5q0 -33 -10.5 -69.5t-29 -71.5t-44.5 -67.5t-58 -57.5l-35 30q12 13 22.5 32t19.5 40.5t15 45.5t8 47q-35 6 -56.5 30.5t-21.5 60.5q0 40 26.5 66t68.5 26z" />
    <glyph glyph-name="uni021A" unicode="&#x21a;" horiz-adv-x="1184" 
d="M12 1650h1160v-223h-455v-1427h-250v1427h-455v223zM592 -118q43 0 69 -28.5t26 -83.5q0 -33 -10.5 -69.5t-29 -71.5t-44.5 -67.5t-58 -57.5l-35 30q12 13 22.5 32t19.5 40.5t15 45.5t8 47q-35 6 -56.5 30.5t-21.5 60.5q0 40 26.5 66t68.5 26z" />
    <glyph glyph-name="U" unicode="U" horiz-adv-x="1498" 
d="M145 1650h250v-996q0 -228 86 -334t268 -106q183 0 268.5 106t85.5 334v996h250v-1062q0 -308 -151.5 -464t-452.5 -156t-452.5 155t-151.5 465v1062z" />
    <glyph glyph-name="Uacute" unicode="&#xda;" horiz-adv-x="1498" 
d="M145 1650h250v-996q0 -228 86 -334t268 -106q183 0 268.5 106t85.5 334v996h250v-1062q0 -308 -151.5 -464t-452.5 -156t-452.5 155t-151.5 465v1062zM946 2208l102 -178l-416 -212l-76 113z" />
    <glyph glyph-name="Ucircumflex" unicode="&#xdb;" horiz-adv-x="1498" 
d="M145 1650h250v-996q0 -228 86 -334t268 -106q183 0 268.5 106t85.5 334v996h250v-1062q0 -308 -151.5 -464t-452.5 -156t-452.5 155t-151.5 465v1062zM444 1885l-94 127l400 293l400 -293l-94 -127l-306 224z" />
    <glyph glyph-name="Udieresis" unicode="&#xdc;" horiz-adv-x="1498" 
d="M145 1650h250v-996q0 -228 86 -334t268 -106q183 0 268.5 106t85.5 334v996h250v-1062q0 -308 -151.5 -464t-452.5 -156t-452.5 155t-151.5 465v1062zM985 2155q27 0 51 -10.5t42 -28t28 -41.5t10 -51t-10 -51t-28 -41.5t-42 -28t-51 -10.5t-51 10.5t-42 28t-28 41.5
t-10 51t10 51t28 41.5t42 28t51 10.5zM384 2024q0 27 10 51t28 41.5t42 28t51 10.5t51 -10.5t42 -28t28 -41.5t10 -51t-10 -51t-28 -41.5t-42 -28t-51 -10.5t-51 10.5t-42 28t-28 41.5t-10 51z" />
    <glyph glyph-name="Ugrave" unicode="&#xd9;" horiz-adv-x="1498" 
d="M145 1650h250v-996q0 -228 86 -334t268 -106q183 0 268.5 106t85.5 334v996h250v-1062q0 -308 -151.5 -464t-452.5 -156t-452.5 155t-151.5 465v1062zM840 1818l-426 218l112 172l390 -277z" />
    <glyph glyph-name="Uhungarumlaut" unicode="&#x170;" horiz-adv-x="1498" 
d="M145 1650h250v-996q0 -228 86 -334t268 -106q183 0 268.5 106t85.5 334v996h250v-1062q0 -308 -151.5 -464t-452.5 -156t-452.5 155t-151.5 465v1062zM921 1916l-95 110l284 280l153 -164zM482 1916l-96 110l285 280l152 -164z" />
    <glyph glyph-name="Umacron" unicode="&#x16a;" horiz-adv-x="1498" 
d="M145 1650h250v-996q0 -228 86 -334t268 -106q183 0 268.5 106t85.5 334v996h250v-1062q0 -308 -151.5 -464t-452.5 -156t-452.5 155t-151.5 465v1062zM341 1933v164h816v-164h-816z" />
    <glyph glyph-name="Uogonek" unicode="&#x172;" horiz-adv-x="1498" 
d="M395 1650v-996q0 -228 85.5 -334t267.5 -106q183 0 269 106t86 334v996h250v-1062q0 -340 -186 -496q-55 -46 -100 -99t-77.5 -105.5t-50 -101.5t-17.5 -87q0 -51 32 -86t95 -35q87 0 154 82l100 -75q-23 -33 -53.5 -60t-66.5 -45.5t-75 -28.5t-80 -10q-55 0 -101 17.5
t-79.5 48.5t-52 71.5t-18.5 87.5q0 67 42.5 149t123.5 173q-91 -20 -195 -20q-301 0 -452 155t-151 465v1062h250z" />
    <glyph glyph-name="Uring" unicode="&#x16e;" horiz-adv-x="1498" 
d="M145 1650h250v-996q0 -228 86 -334t268 -106q183 0 268.5 106t85.5 334v996h250v-1062q0 -308 -151.5 -464t-452.5 -156t-452.5 155t-151.5 465v1062zM549 2090q0 53 21 97t58 75.5t86.5 49t106.5 17.5t106.5 -17.5t86.5 -49t58 -75.5t21 -97t-21 -97t-58 -75.5
t-86.5 -49t-106.5 -17.5t-106.5 17.5t-86.5 49t-58 75.5t-21 97zM691 2090q0 -26 10 -48t28 -38.5t41.5 -26t50.5 -9.5t50.5 9.5t41.5 26t28 38.5t10 48t-10 48t-28 38.5t-41.5 26t-50.5 9.5t-50.5 -9.5t-41.5 -26t-28 -38.5t-10 -48z" />
    <glyph glyph-name="V" unicode="V" horiz-adv-x="1510" 
d="M-35 1650h283l507 -1274l507 1274h283l-692 -1650h-196z" />
    <glyph glyph-name="W" unicode="W" horiz-adv-x="2203" 
d="M-35 1650h278l356 -1312l407 1312h190l408 -1312l356 1312h278l-482 -1650h-279l-376 1165l-375 -1165h-279z" />
    <glyph glyph-name="Wacute" unicode="&#x1e82;" horiz-adv-x="2203" 
d="M-35 1650h278l356 -1312l407 1312h190l408 -1312l356 1312h278l-482 -1650h-279l-376 1165l-375 -1165h-279zM1298 2208l102 -178l-416 -212l-76 113z" />
    <glyph glyph-name="Wcircumflex" unicode="&#x174;" horiz-adv-x="2203" 
d="M-35 1650h278l356 -1312l407 1312h190l408 -1312l356 1312h278l-482 -1650h-279l-376 1165l-375 -1165h-279zM796 1885l-94 127l400 293l400 -293l-94 -127l-306 224z" />
    <glyph glyph-name="Wdieresis" unicode="&#x1e84;" horiz-adv-x="2203" 
d="M-35 1650h278l356 -1312l407 1312h190l408 -1312l356 1312h278l-482 -1650h-279l-376 1165l-375 -1165h-279zM1337 2155q27 0 51 -10.5t42 -28t28 -41.5t10 -51t-10 -51t-28 -41.5t-42 -28t-51 -10.5t-51 10.5t-42 28t-28 41.5t-10 51t10 51t28 41.5t42 28t51 10.5z
M736 2024q0 27 10 51t28 41.5t42 28t51 10.5t51 -10.5t42 -28t28 -41.5t10 -51t-10 -51t-28 -41.5t-42 -28t-51 -10.5t-51 10.5t-42 28t-28 41.5t-10 51z" />
    <glyph glyph-name="Wgrave" unicode="&#x1e80;" horiz-adv-x="2203" 
d="M-35 1650h278l356 -1312l407 1312h190l408 -1312l356 1312h278l-482 -1650h-279l-376 1165l-375 -1165h-279zM1192 1818l-426 218l112 172l390 -277z" />
    <glyph glyph-name="X" unicode="X" horiz-adv-x="1494" 
d="M-35 0l627 890l-528 760h300l383 -552l383 552h300l-528 -760l627 -890h-310l-472 673l-472 -673h-310z" />
    <glyph glyph-name="Y" unicode="Y" horiz-adv-x="1350" 
d="M266 1650l409 -666l409 666h301l-585 -924v-726h-250v726l-585 924h301z" />
    <glyph glyph-name="Yacute" unicode="&#xdd;" horiz-adv-x="1350" 
d="M266 1650l409 -666l409 666h301l-585 -924v-726h-250v726l-585 924h301zM872 2208l102 -178l-416 -212l-76 113z" />
    <glyph glyph-name="Ycircumflex" unicode="&#x176;" horiz-adv-x="1350" 
d="M266 1650l409 -666l409 666h301l-585 -924v-726h-250v726l-585 924h301zM370 1885l-94 127l400 293l400 -293l-94 -127l-306 224z" />
    <glyph glyph-name="Ydieresis" unicode="&#x178;" horiz-adv-x="1350" 
d="M266 1650l409 -666l409 666h301l-585 -924v-726h-250v726l-585 924h301zM911 2155q27 0 51 -10.5t42 -28t28 -41.5t10 -51t-10 -51t-28 -41.5t-42 -28t-51 -10.5t-51 10.5t-42 28t-28 41.5t-10 51t10 51t28 41.5t42 28t51 10.5zM310 2024q0 27 10 51t28 41.5t42 28
t51 10.5t51 -10.5t42 -28t28 -41.5t10 -51t-10 -51t-28 -41.5t-42 -28t-51 -10.5t-51 10.5t-42 28t-28 41.5t-10 51z" />
    <glyph glyph-name="Ygrave" unicode="&#x1ef2;" horiz-adv-x="1350" 
d="M266 1650l409 -666l409 666h301l-585 -924v-726h-250v726l-585 924h301zM766 1818l-426 218l112 172l390 -277z" />
    <glyph glyph-name="Z" unicode="Z" horiz-adv-x="1524" 
d="M59 0l963 1429h-848v221h1291l-964 -1429h910v-221h-1352z" />
    <glyph glyph-name="Zacute" unicode="&#x179;" horiz-adv-x="1524" 
d="M59 0l963 1429h-848v221h1291l-964 -1429h910v-221h-1352zM966 2208l102 -178l-416 -212l-76 113z" />
    <glyph glyph-name="Zcaron" unicode="&#x17d;" horiz-adv-x="1524" 
d="M59 0l963 1429h-848v221h1291l-964 -1429h910v-221h-1352zM769 1816l-400 294l94 127l306 -224l306 224l94 -127z" />
    <glyph glyph-name="Zdotaccent" unicode="&#x17b;" horiz-adv-x="1524" 
d="M59 0l963 1429h-848v221h1291l-964 -1429h910v-221h-1352zM624 2103q0 30 11.5 56.5t31 46t46 31t56.5 11.5t56.5 -11.5t46 -31t31 -46t11.5 -56.5t-11.5 -56.5t-31 -46t-46 -31t-56.5 -11.5t-56.5 11.5t-46 31t-31 46t-11.5 56.5z" />
    <glyph glyph-name="M.alt" horiz-adv-x="1856" 
d="M447 1650l481 -1143l481 1143h284v-1650h-250v1111l-435 -1045h-160l-435 1045v-1111h-250v1650h284z" />
    <glyph glyph-name="Q.alt" horiz-adv-x="1788" 
d="M918 1679q116 0 222.5 -30.5t198.5 -86t168 -133t130 -173t83.5 -205t29.5 -228.5q0 -150 -46.5 -285t-129.5 -244t-196.5 -186.5t-248.5 -113.5q79 -10 146.5 -22.5t137.5 -12.5q38 0 69 5t58.5 17t54 31t55.5 47l114 -143q-54 -98 -140.5 -150t-215.5 -52q-54 0 -99 9
t-85.5 22t-78.5 28.5t-80 28.5t-89.5 22t-105.5 9q-217 0 -324 -122l-73 78q54 72 125 120t166 72q-145 28 -269.5 103.5t-215 187t-142 252.5t-51.5 299q0 119 29.5 228.5t83.5 205t130 173t168 133t199 86t222 30.5zM918 208q121 0 224 46.5t178.5 129t118 195t42.5 244.5
t-42.5 244.5t-118 195t-178.5 129t-224 46.5t-224 -46.5t-178 -129t-117.5 -195t-42.5 -244.5t42.5 -244.5t117.5 -195t178 -129t224 -46.5z" />
    <glyph glyph-name="R.alt" horiz-adv-x="1423" 
d="M163 1650h506q122 0 222 -32t172 -93.5t111.5 -152.5t39.5 -210q0 -97 -28 -179t-80.5 -144.5t-127.5 -104.5t-168 -59l332 -416q26 -33 52 -48.5t58 -15.5q44 0 79 26l90 -173q-44 -43 -95 -61.5t-111 -18.5q-73 0 -134 30t-121 104l-452 554h-95v-656h-250v1650z
M413 859h183q77 0 142.5 18.5t113.5 56t75 93t27 129.5q0 75 -27 130t-75 91t-113.5 54t-142.5 18h-183v-590z" />
    <glyph glyph-name="a" unicode="a" 
d="M596 1056q120 0 219 -52.5t167 -149.5v170h238v-1024h-238v170q-68 -97 -167 -149.5t-219 -52.5q-110 0 -203.5 41.5t-161 114.5t-105.5 172.5t-38 215.5t38 215.5t105.5 172.5t161 114.5t203.5 41.5zM336 512q0 -74 24.5 -136.5t68 -107.5t103.5 -70.5t131 -25.5
t131 25.5t103.5 70.5t67.5 107.5t24 136.5q0 75 -24 137.5t-67.5 107.5t-103.5 70t-131 25t-131 -25.5t-103.5 -70.5t-68 -107.5t-24.5 -136.5z" />
    <glyph glyph-name="aacute" unicode="&#xe1;" 
d="M596 1056q120 0 219 -52.5t167 -149.5v170h238v-1024h-238v170q-68 -97 -167 -149.5t-219 -52.5q-110 0 -203.5 41.5t-161 114.5t-105.5 172.5t-38 215.5t38 215.5t105.5 172.5t161 114.5t203.5 41.5zM336 512q0 -74 24.5 -136.5t68 -107.5t103.5 -70.5t131 -25.5
t131 25.5t103.5 70.5t67.5 107.5t24 136.5q0 75 -24 137.5t-67.5 107.5t-103.5 70t-131 25t-131 -25.5t-103.5 -70.5t-68 -107.5t-24.5 -136.5zM865 1582l102 -178l-416 -212l-76 113z" />
    <glyph glyph-name="abreve" unicode="&#x103;" 
d="M596 1056q120 0 219 -52.5t167 -149.5v170h238v-1024h-238v170q-68 -97 -167 -149.5t-219 -52.5q-110 0 -203.5 41.5t-161 114.5t-105.5 172.5t-38 215.5t38 215.5t105.5 172.5t161 114.5t203.5 41.5zM336 512q0 -74 24.5 -136.5t68 -107.5t103.5 -70.5t131 -25.5
t131 25.5t103.5 70.5t67.5 107.5t24 136.5q0 75 -24 137.5t-67.5 107.5t-103.5 70t-131 25t-131 -25.5t-103.5 -70.5t-68 -107.5t-24.5 -136.5zM235 1638l172 42q8 -46 28 -87.5t52.5 -73t78 -50t102.5 -18.5t102.5 18.5t78 50t53 73t27.5 87.5l172 -42
q-12 -76 -48.5 -138.5t-93 -107.5t-130.5 -69.5t-161 -24.5t-161 24.5t-130.5 69.5t-93 107.5t-48.5 138.5z" />
    <glyph glyph-name="acircumflex" unicode="&#xe2;" 
d="M596 1056q120 0 219 -52.5t167 -149.5v170h238v-1024h-238v170q-68 -97 -167 -149.5t-219 -52.5q-110 0 -203.5 41.5t-161 114.5t-105.5 172.5t-38 215.5t38 215.5t105.5 172.5t161 114.5t203.5 41.5zM336 512q0 -74 24.5 -136.5t68 -107.5t103.5 -70.5t131 -25.5
t131 25.5t103.5 70.5t67.5 107.5t24 136.5q0 75 -24 137.5t-67.5 107.5t-103.5 70t-131 25t-131 -25.5t-103.5 -70.5t-68 -107.5t-24.5 -136.5zM363 1259l-94 127l400 293l400 -293l-94 -127l-306 224z" />
    <glyph glyph-name="adieresis" unicode="&#xe4;" 
d="M596 1056q120 0 219 -52.5t167 -149.5v170h238v-1024h-238v170q-68 -97 -167 -149.5t-219 -52.5q-110 0 -203.5 41.5t-161 114.5t-105.5 172.5t-38 215.5t38 215.5t105.5 172.5t161 114.5t203.5 41.5zM336 512q0 -74 24.5 -136.5t68 -107.5t103.5 -70.5t131 -25.5
t131 25.5t103.5 70.5t67.5 107.5t24 136.5q0 75 -24 137.5t-67.5 107.5t-103.5 70t-131 25t-131 -25.5t-103.5 -70.5t-68 -107.5t-24.5 -136.5zM904 1529q27 0 51 -10.5t42 -28t28 -41.5t10 -51t-10 -51t-28 -41.5t-42 -28t-51 -10.5t-51 10.5t-42 28t-28 41.5t-10 51t10 51
t28 41.5t42 28t51 10.5zM303 1398q0 27 10 51t28 41.5t42 28t51 10.5t51 -10.5t42 -28t28 -41.5t10 -51t-10 -51t-28 -41.5t-42 -28t-51 -10.5t-51 10.5t-42 28t-28 41.5t-10 51z" />
    <glyph glyph-name="agrave" unicode="&#xe0;" 
d="M596 1056q120 0 219 -52.5t167 -149.5v170h238v-1024h-238v170q-68 -97 -167 -149.5t-219 -52.5q-110 0 -203.5 41.5t-161 114.5t-105.5 172.5t-38 215.5t38 215.5t105.5 172.5t161 114.5t203.5 41.5zM336 512q0 -74 24.5 -136.5t68 -107.5t103.5 -70.5t131 -25.5
t131 25.5t103.5 70.5t67.5 107.5t24 136.5q0 75 -24 137.5t-67.5 107.5t-103.5 70t-131 25t-131 -25.5t-103.5 -70.5t-68 -107.5t-24.5 -136.5zM759 1192l-426 218l112 172l390 -277z" />
    <glyph glyph-name="amacron" unicode="&#x101;" 
d="M596 1056q120 0 219 -52.5t167 -149.5v170h238v-1024h-238v170q-68 -97 -167 -149.5t-219 -52.5q-110 0 -203.5 41.5t-161 114.5t-105.5 172.5t-38 215.5t38 215.5t105.5 172.5t161 114.5t203.5 41.5zM336 512q0 -74 24.5 -136.5t68 -107.5t103.5 -70.5t131 -25.5
t131 25.5t103.5 70.5t67.5 107.5t24 136.5q0 75 -24 137.5t-67.5 107.5t-103.5 70t-131 25t-131 -25.5t-103.5 -70.5t-68 -107.5t-24.5 -136.5zM260 1307v164h816v-164h-816z" />
    <glyph glyph-name="aogonek" unicode="&#x105;" 
d="M596 1056q120 0 219 -52.5t167 -149.5v170h238v-1024h-238v170q-68 -97 -167 -149.5t-219 -52.5q-110 0 -203.5 41.5t-161 114.5t-105.5 172.5t-38 215.5t38 215.5t105.5 172.5t161 114.5t203.5 41.5zM336 512q0 -74 24.5 -136.5t68 -107.5t103.5 -70.5t131 -25.5
t131 25.5t103.5 70.5t67.5 107.5t24 136.5q0 75 -24 137.5t-67.5 107.5t-103.5 70t-131 25t-131 -25.5t-103.5 -70.5t-68 -107.5t-24.5 -136.5zM924 -333q0 69 45.5 154t131.5 179h118q-70 -80 -110 -160.5t-40 -140.5q0 -51 32 -85.5t95 -34.5q86 0 153 82l101 -75
q-23 -33 -53.5 -60t-66.5 -45.5t-75 -28.5t-80 -10q-54 0 -100 17.5t-79.5 48.5t-52.5 71.5t-19 87.5z" />
    <glyph glyph-name="aring" unicode="&#xe5;" 
d="M596 1056q120 0 219 -52.5t167 -149.5v170h238v-1024h-238v170q-68 -97 -167 -149.5t-219 -52.5q-110 0 -203.5 41.5t-161 114.5t-105.5 172.5t-38 215.5t38 215.5t105.5 172.5t161 114.5t203.5 41.5zM336 512q0 -74 24.5 -136.5t68 -107.5t103.5 -70.5t131 -25.5
t131 25.5t103.5 70.5t67.5 107.5t24 136.5q0 75 -24 137.5t-67.5 107.5t-103.5 70t-131 25t-131 -25.5t-103.5 -70.5t-68 -107.5t-24.5 -136.5zM427 1464q0 53 21 97t58 75.5t86.5 49t106.5 17.5t106.5 -17.5t86.5 -49t58 -75.5t21 -97t-21 -97t-58 -75.5t-86.5 -49
t-106.5 -17.5t-106.5 17.5t-86.5 49t-58 75.5t-21 97zM569 1464q0 -26 10 -48t28 -38.5t41.5 -26t50.5 -9.5t50.5 9.5t41.5 26t28 38.5t10 48t-10 48t-28 38.5t-41.5 26t-50.5 9.5t-50.5 -9.5t-41.5 -26t-28 -38.5t-10 -48z" />
    <glyph glyph-name="atilde" unicode="&#xe3;" 
d="M596 1056q120 0 219 -52.5t167 -149.5v170h238v-1024h-238v170q-68 -97 -167 -149.5t-219 -52.5q-110 0 -203.5 41.5t-161 114.5t-105.5 172.5t-38 215.5t38 215.5t105.5 172.5t161 114.5t203.5 41.5zM336 512q0 -74 24.5 -136.5t68 -107.5t103.5 -70.5t131 -25.5
t131 25.5t103.5 70.5t67.5 107.5t24 136.5q0 75 -24 137.5t-67.5 107.5t-103.5 70t-131 25t-131 -25.5t-103.5 -70.5t-68 -107.5t-24.5 -136.5zM179 1331q56 107 134 165.5t178 58.5q46 0 83.5 -12t70 -30t62 -38.5t59.5 -38.5t62.5 -30t70.5 -12q66 0 113 35t79 92l128 -84
q-56 -107 -134 -165.5t-178 -58.5q-46 0 -83.5 12t-70 30t-62 38.5t-59.5 38.5t-62 30t-71 12q-66 0 -113 -35t-79 -92z" />
    <glyph glyph-name="ae" unicode="&#xe6;" horiz-adv-x="1876" 
d="M0 288q0 73 29.5 133t82 103t124.5 67t157 24q46 0 90.5 -7.5t85.5 -21.5t77.5 -34t64.5 -45v101q0 60 -20.5 107.5t-57 81t-88 51.5t-114.5 18q-68 0 -138.5 -21t-125.5 -59l-101 144q73 60 169 93t213 33q143 0 244 -51t155 -150q72 92 178 146.5t233 54.5
q116 0 214.5 -40t170 -111t112 -168.5t40.5 -213.5v-16t-2 -24h-845q0 -72 25 -131.5t70 -102.5t108 -66.5t139 -23.5q187 0 304 156l172 -89q-75 -125 -203 -191.5t-291 -66.5q-137 0 -249 53.5t-191 153.5q-54 -51 -107 -89.5t-107 -65t-110.5 -39.5t-117.5 -13
q-86 0 -158 22t-123.5 63.5t-80 101t-28.5 133.5zM234 302q0 -41 19 -75t52 -58t77.5 -37.5t94.5 -13.5q51 0 95.5 13t77.5 37t52 57.5t19 73.5q0 41 -19.5 74t-53 57t-78 37t-95.5 13t-95 -13t-76.5 -36t-51 -56t-18.5 -73zM955 617h607q-7 60 -32 110.5t-64.5 87t-92 56.5
t-113.5 20q-62 0 -115.5 -20.5t-94 -57t-65.5 -87t-30 -109.5z" />
    <glyph glyph-name="b" unicode="b" horiz-adv-x="1376" 
d="M396 1720v-866q67 97 166 149.5t220 52.5q111 0 204 -41.5t160.5 -114.5t105.5 -172.5t38 -215.5t-38 -215.5t-105.5 -172.5t-160.5 -114.5t-204 -41.5q-121 0 -220 52.5t-166 149.5v-170h-238v1720h238zM715 172q71 0 131 25.5t103.5 70.5t68 107.5t24.5 136.5
t-24.5 136.5t-68 107.5t-103.5 70.5t-131 25.5t-131 -25t-103.5 -70t-67.5 -107.5t-24 -137.5q0 -74 24 -136.5t67.5 -107.5t103.5 -70.5t131 -25.5z" />
    <glyph glyph-name="c" unicode="c" horiz-adv-x="1065" 
d="M81 512q0 114 43 213.5t119 173t179 115.5t223 42q102 0 192 -29t151 -77l-96 -152q-44 30 -98.5 46t-114.5 16q-79 0 -143.5 -27.5t-110.5 -74.5t-71 -110.5t-25 -135.5t25 -135.5t71 -110.5t110.5 -74.5t143.5 -27.5q60 0 114.5 16t98.5 46l96 -152q-61 -48 -151 -77
t-192 -29q-120 0 -223 42.5t-179 116t-119 172.5t-43 213z" />
    <glyph glyph-name="cacute" unicode="&#x107;" horiz-adv-x="1065" 
d="M81 512q0 114 43 213.5t119 173t179 115.5t223 42q102 0 192 -29t151 -77l-96 -152q-44 30 -98.5 46t-114.5 16q-79 0 -143.5 -27.5t-110.5 -74.5t-71 -110.5t-25 -135.5t25 -135.5t71 -110.5t110.5 -74.5t143.5 -27.5q60 0 114.5 16t98.5 46l96 -152q-61 -48 -151 -77
t-192 -29q-120 0 -223 42.5t-179 116t-119 172.5t-43 213zM807 1582l102 -178l-416 -212l-76 113z" />
    <glyph glyph-name="ccaron" unicode="&#x10d;" horiz-adv-x="1065" 
d="M81 512q0 114 43 213.5t119 173t179 115.5t223 42q102 0 192 -29t151 -77l-96 -152q-44 30 -98.5 46t-114.5 16q-79 0 -143.5 -27.5t-110.5 -74.5t-71 -110.5t-25 -135.5t25 -135.5t71 -110.5t110.5 -74.5t143.5 -27.5q60 0 114.5 16t98.5 46l96 -152q-61 -48 -151 -77
t-192 -29q-120 0 -223 42.5t-179 116t-119 172.5t-43 213zM610 1190l-400 294l94 127l306 -224l306 224l94 -127z" />
    <glyph glyph-name="ccedilla" unicode="&#xe7;" horiz-adv-x="1065" 
d="M81 512q0 114 43 213.5t119 173t179 115.5t223 42q102 0 192 -29t151 -77l-96 -152q-44 30 -98.5 46t-114.5 16q-79 0 -143.5 -27.5t-110.5 -74.5t-71 -110.5t-25 -135.5t25 -135.5t71 -110.5t110.5 -74.5t143.5 -27.5q60 0 114.5 16t98.5 46l96 -152q-61 -48 -151 -77
t-192 -29q-120 0 -223 42.5t-179 116t-119 172.5t-43 213zM313 -411l98 71q32 -47 77 -72t98 -25q57 0 92 28.5t35 74.5t-36.5 73.5t-95.5 27.5q-31 0 -64 -7.5t-52 -18.5l-13 10l80 249h110l-50 -151q6 1 11.5 1h11.5q42 0 84 -11t75 -34t53.5 -58.5t20.5 -84.5
q0 -48 -19 -89t-53.5 -70t-82 -45.5t-103.5 -16.5q-85 0 -154.5 38t-122.5 110z" />
    <glyph glyph-name="cdotaccent" unicode="&#x10b;" horiz-adv-x="1065" 
d="M81 512q0 114 43 213.5t119 173t179 115.5t223 42q102 0 192 -29t151 -77l-96 -152q-44 30 -98.5 46t-114.5 16q-79 0 -143.5 -27.5t-110.5 -74.5t-71 -110.5t-25 -135.5t25 -135.5t71 -110.5t110.5 -74.5t143.5 -27.5q60 0 114.5 16t98.5 46l96 -152q-61 -48 -151 -77
t-192 -29q-120 0 -223 42.5t-179 116t-119 172.5t-43 213zM465 1477q0 30 11.5 56.5t31 46t46 31t56.5 11.5t56.5 -11.5t46 -31t31 -46t11.5 -56.5t-11.5 -56.5t-31 -46t-46 -31t-56.5 -11.5t-56.5 11.5t-46 31t-31 46t-11.5 56.5z" />
    <glyph glyph-name="d" unicode="d" 
d="M596 1056q121 0 220 -52.5t166 -149.5v866h238v-1720h-238v170q-67 -97 -166 -149.5t-220 -52.5q-111 0 -204 41.5t-160.5 114.5t-105.5 172.5t-38 215.5t38 215.5t105.5 172.5t160.5 114.5t204 41.5zM336 512q0 -74 24.5 -136.5t68 -107.5t103.5 -70.5t131 -25.5
t131 25.5t103.5 70.5t67.5 107.5t24 136.5q0 75 -24 137.5t-67.5 107.5t-103.5 70t-131 25t-131 -25.5t-103.5 -70.5t-68 -107.5t-24.5 -136.5z" />
    <glyph glyph-name="eth" unicode="&#xf0;" horiz-adv-x="1381" 
d="M103 512q0 133 50.5 235.5t132.5 173t184.5 107t207.5 36.5q81 0 147 -34.5t104 -94.5q-46 140 -121 244.5t-174 179.5l-160 -160l-110 110l134 133q-62 36 -124 63t-117 44l59 201q81 -24 169 -60.5t173 -87.5l149 148l107 -111l-121 -120q102 -77 191.5 -177.5
t155.5 -226t104 -276t38 -327.5q0 -119 -44.5 -219t-123 -172t-186 -112.5t-234.5 -40.5q-130 0 -238.5 40.5t-187 112.5t-122 172t-43.5 219zM353 512q0 -74 25 -136.5t70 -107.5t107.5 -70.5t137.5 -25.5q74 0 136 25.5t107.5 70.5t71 107.5t25.5 136.5q0 75 -26 137.5
t-72 107.5t-108 70t-134 25q-73 0 -135 -25t-107.5 -70t-71.5 -107.5t-26 -137.5z" />
    <glyph glyph-name="dcaron" unicode="&#x10f;" 
d="M596 1056q121 0 220 -52.5t166 -149.5v866h238v-1720h-238v170q-67 -97 -166 -149.5t-220 -52.5q-111 0 -204 41.5t-160.5 114.5t-105.5 172.5t-38 215.5t38 215.5t105.5 172.5t160.5 114.5t204 41.5zM336 512q0 -74 24.5 -136.5t68 -107.5t103.5 -70.5t131 -25.5
t131 25.5t103.5 70.5t67.5 107.5t24 136.5q0 75 -24 137.5t-67.5 107.5t-103.5 70t-131 25t-131 -25.5t-103.5 -70.5t-68 -107.5t-24.5 -136.5zM613 1574l-400 294l94 127l306 -224l306 224l94 -127z" />
    <glyph glyph-name="dcroat" unicode="&#x111;" horiz-adv-x="1410" 
d="M596 1056q121 0 220 -52.5t166 -149.5v439h-305v156h305v271h238v-271h181v-156h-181v-1293h-238v170q-67 -97 -166 -149.5t-220 -52.5q-111 0 -204 41.5t-160.5 114.5t-105.5 172.5t-38 215.5t38 215.5t105.5 172.5t160.5 114.5t204 41.5zM336 512q0 -74 24.5 -136.5
t68 -107.5t103.5 -70.5t131 -25.5t131 25.5t103.5 70.5t67.5 107.5t24 136.5q0 75 -24 137.5t-67.5 107.5t-103.5 70t-131 25t-131 -25.5t-103.5 -70.5t-68 -107.5t-24.5 -136.5z" />
    <glyph glyph-name="e" unicode="e" horiz-adv-x="1253" 
d="M81 509q0 117 43.5 217t119.5 173.5t177.5 115t218.5 41.5q112 0 209 -41t169 -111.5t113 -165.5t41 -204q0 -14 -0.5 -25.5t-1.5 -25.5h-846q0 -72 25 -131.5t70 -102.5t108 -66.5t139 -23.5q95 0 170 39t135 117l172 -89q-37 -61 -88.5 -109t-114 -81t-135 -50.5
t-151.5 -17.5q-124 0 -229 41.5t-181.5 114.5t-119.5 171.5t-43 213.5zM331 607h608q-7 62 -33 113.5t-66 88t-92.5 57t-113.5 20.5q-62 0 -115.5 -20.5t-93.5 -57.5t-64.5 -88.5t-29.5 -112.5z" />
    <glyph glyph-name="eacute" unicode="&#xe9;" horiz-adv-x="1253" 
d="M81 509q0 117 43.5 217t119.5 173.5t177.5 115t218.5 41.5q112 0 209 -41t169 -111.5t113 -165.5t41 -204q0 -14 -0.5 -25.5t-1.5 -25.5h-846q0 -72 25 -131.5t70 -102.5t108 -66.5t139 -23.5q95 0 170 39t135 117l172 -89q-37 -61 -88.5 -109t-114 -81t-135 -50.5
t-151.5 -17.5q-124 0 -229 41.5t-181.5 114.5t-119.5 171.5t-43 213.5zM331 607h608q-7 62 -33 113.5t-66 88t-92.5 57t-113.5 20.5q-62 0 -115.5 -20.5t-93.5 -57.5t-64.5 -88.5t-29.5 -112.5zM831 1588l102 -178l-416 -212l-76 113z" />
    <glyph glyph-name="ecaron" unicode="&#x11b;" horiz-adv-x="1253" 
d="M81 509q0 117 43.5 217t119.5 173.5t177.5 115t218.5 41.5q112 0 209 -41t169 -111.5t113 -165.5t41 -204q0 -14 -0.5 -25.5t-1.5 -25.5h-846q0 -72 25 -131.5t70 -102.5t108 -66.5t139 -23.5q95 0 170 39t135 117l172 -89q-37 -61 -88.5 -109t-114 -81t-135 -50.5
t-151.5 -17.5q-124 0 -229 41.5t-181.5 114.5t-119.5 171.5t-43 213.5zM331 607h608q-7 62 -33 113.5t-66 88t-92.5 57t-113.5 20.5q-62 0 -115.5 -20.5t-93.5 -57.5t-64.5 -88.5t-29.5 -112.5zM634 1196l-400 294l94 127l306 -224l306 224l94 -127z" />
    <glyph glyph-name="ecircumflex" unicode="&#xea;" horiz-adv-x="1253" 
d="M81 509q0 117 43.5 217t119.5 173.5t177.5 115t218.5 41.5q112 0 209 -41t169 -111.5t113 -165.5t41 -204q0 -14 -0.5 -25.5t-1.5 -25.5h-846q0 -72 25 -131.5t70 -102.5t108 -66.5t139 -23.5q95 0 170 39t135 117l172 -89q-37 -61 -88.5 -109t-114 -81t-135 -50.5
t-151.5 -17.5q-124 0 -229 41.5t-181.5 114.5t-119.5 171.5t-43 213.5zM331 607h608q-7 62 -33 113.5t-66 88t-92.5 57t-113.5 20.5q-62 0 -115.5 -20.5t-93.5 -57.5t-64.5 -88.5t-29.5 -112.5zM329 1265l-94 127l400 293l400 -293l-94 -127l-306 224z" />
    <glyph glyph-name="edieresis" unicode="&#xeb;" horiz-adv-x="1253" 
d="M81 509q0 117 43.5 217t119.5 173.5t177.5 115t218.5 41.5q112 0 209 -41t169 -111.5t113 -165.5t41 -204q0 -14 -0.5 -25.5t-1.5 -25.5h-846q0 -72 25 -131.5t70 -102.5t108 -66.5t139 -23.5q95 0 170 39t135 117l172 -89q-37 -61 -88.5 -109t-114 -81t-135 -50.5
t-151.5 -17.5q-124 0 -229 41.5t-181.5 114.5t-119.5 171.5t-43 213.5zM331 607h608q-7 62 -33 113.5t-66 88t-92.5 57t-113.5 20.5q-62 0 -115.5 -20.5t-93.5 -57.5t-64.5 -88.5t-29.5 -112.5zM870 1535q27 0 51 -10.5t42 -28t28 -41.5t10 -51t-10 -51t-28 -41.5t-42 -28
t-51 -10.5t-51 10.5t-42 28t-28 41.5t-10 51t10 51t28 41.5t42 28t51 10.5zM269 1404q0 27 10 51t28 41.5t42 28t51 10.5t51 -10.5t42 -28t28 -41.5t10 -51t-10 -51t-28 -41.5t-42 -28t-51 -10.5t-51 10.5t-42 28t-28 41.5t-10 51z" />
    <glyph glyph-name="edotaccent" unicode="&#x117;" horiz-adv-x="1253" 
d="M81 509q0 117 43.5 217t119.5 173.5t177.5 115t218.5 41.5q112 0 209 -41t169 -111.5t113 -165.5t41 -204q0 -14 -0.5 -25.5t-1.5 -25.5h-846q0 -72 25 -131.5t70 -102.5t108 -66.5t139 -23.5q95 0 170 39t135 117l172 -89q-37 -61 -88.5 -109t-114 -81t-135 -50.5
t-151.5 -17.5q-124 0 -229 41.5t-181.5 114.5t-119.5 171.5t-43 213.5zM331 607h608q-7 62 -33 113.5t-66 88t-92.5 57t-113.5 20.5q-62 0 -115.5 -20.5t-93.5 -57.5t-64.5 -88.5t-29.5 -112.5zM489 1483q0 30 11.5 56.5t31 46t46 31t56.5 11.5t56.5 -11.5t46 -31t31 -46
t11.5 -56.5t-11.5 -56.5t-31 -46t-46 -31t-56.5 -11.5t-56.5 11.5t-46 31t-31 46t-11.5 56.5z" />
    <glyph glyph-name="egrave" unicode="&#xe8;" horiz-adv-x="1253" 
d="M81 509q0 117 43.5 217t119.5 173.5t177.5 115t218.5 41.5q112 0 209 -41t169 -111.5t113 -165.5t41 -204q0 -14 -0.5 -25.5t-1.5 -25.5h-846q0 -72 25 -131.5t70 -102.5t108 -66.5t139 -23.5q95 0 170 39t135 117l172 -89q-37 -61 -88.5 -109t-114 -81t-135 -50.5
t-151.5 -17.5q-124 0 -229 41.5t-181.5 114.5t-119.5 171.5t-43 213.5zM331 607h608q-7 62 -33 113.5t-66 88t-92.5 57t-113.5 20.5q-62 0 -115.5 -20.5t-93.5 -57.5t-64.5 -88.5t-29.5 -112.5zM725 1198l-426 218l112 172l390 -277z" />
    <glyph glyph-name="emacron" unicode="&#x113;" horiz-adv-x="1253" 
d="M81 509q0 117 43.5 217t119.5 173.5t177.5 115t218.5 41.5q112 0 209 -41t169 -111.5t113 -165.5t41 -204q0 -14 -0.5 -25.5t-1.5 -25.5h-846q0 -72 25 -131.5t70 -102.5t108 -66.5t139 -23.5q95 0 170 39t135 117l172 -89q-37 -61 -88.5 -109t-114 -81t-135 -50.5
t-151.5 -17.5q-124 0 -229 41.5t-181.5 114.5t-119.5 171.5t-43 213.5zM331 607h608q-7 62 -33 113.5t-66 88t-92.5 57t-113.5 20.5q-62 0 -115.5 -20.5t-93.5 -57.5t-64.5 -88.5t-29.5 -112.5zM226 1313v164h816v-164h-816z" />
    <glyph glyph-name="eogonek" unicode="&#x119;" horiz-adv-x="1253" 
d="M640 1056q112 0 209 -41t169 -111.5t113 -165.5t41 -204q0 -14 -0.5 -25.5t-1.5 -25.5h-846q0 -72 25 -131.5t70 -102.5t108 -66.5t139 -23.5q95 0 170 39t135 117l172 -89q-23 -38 -51.5 -71t-62.5 -61q-56 -46 -101.5 -99t-78 -106t-50 -102t-17.5 -88q0 -25 8 -47
t24 -38.5t40 -26t55 -9.5q86 0 154 82l101 -75q-23 -33 -53.5 -60t-66.5 -45.5t-75 -28.5t-80 -10q-55 0 -101 17.5t-79.5 48.5t-52.5 71.5t-19 87.5q0 66 42 147t121 171q-35 -8 -71.5 -12t-74.5 -4q-124 0 -229 41.5t-181.5 114.5t-119.5 171.5t-43 213.5q0 117 43.5 217
t119.5 173.5t177.5 115t218.5 41.5zM331 607h608q-7 62 -33 113.5t-66 88t-92.5 57t-113.5 20.5q-62 0 -115.5 -20.5t-93.5 -57.5t-64.5 -88.5t-29.5 -112.5z" />
    <glyph glyph-name="f" unicode="f" horiz-adv-x="691" 
d="M73 1024h122v303q0 105 24 184t67.5 132.5t104 80t133.5 26.5q76 0 146 -28t118 -82l-117 -151q-23 27 -51 37.5t-54 10.5q-65 0 -99 -50.5t-34 -152.5v-310h251v-181h-251v-843h-238v843h-122v181z" />
    <glyph glyph-name="g" unicode="g" horiz-adv-x="1377" 
d="M596 1056q120 0 219 -52.5t166 -149.5v170h238v-1052q0 -119 -37.5 -215.5t-111 -164.5t-181.5 -105t-250 -37q-203 0 -339.5 75.5t-202.5 222.5l196 94q22 -43 57.5 -77.5t80.5 -59t98 -37.5t110 -13q75 0 137.5 22.5t108 65t71 103t25.5 135.5v189q-67 -97 -166 -149.5
t-219 -52.5q-111 0 -204 41.5t-160.5 114.5t-105.5 172.5t-38 215.5t38 215.5t105.5 172.5t160.5 114.5t204 41.5zM663 172q71 0 131 25.5t103.5 70.5t67.5 107.5t24 136.5q0 75 -24 137.5t-67.5 107.5t-103.5 70t-131 25t-131 -25.5t-103.5 -70.5t-68 -107.5t-24.5 -136.5
t24.5 -136.5t68 -107.5t103.5 -70.5t131 -25.5z" />
    <glyph glyph-name="gbreve" unicode="&#x11f;" horiz-adv-x="1377" 
d="M596 1056q120 0 219 -52.5t166 -149.5v170h238v-1052q0 -119 -37.5 -215.5t-111 -164.5t-181.5 -105t-250 -37q-203 0 -339.5 75.5t-202.5 222.5l196 94q22 -43 57.5 -77.5t80.5 -59t98 -37.5t110 -13q75 0 137.5 22.5t108 65t71 103t25.5 135.5v189q-67 -97 -166 -149.5
t-219 -52.5q-111 0 -204 41.5t-160.5 114.5t-105.5 172.5t-38 215.5t38 215.5t105.5 172.5t160.5 114.5t204 41.5zM663 172q71 0 131 25.5t103.5 70.5t67.5 107.5t24 136.5q0 75 -24 137.5t-67.5 107.5t-103.5 70t-131 25t-131 -25.5t-103.5 -70.5t-68 -107.5t-24.5 -136.5
t24.5 -136.5t68 -107.5t103.5 -70.5t131 -25.5zM230 1638l172 42q8 -46 28 -87.5t52.5 -73t78 -50t102.5 -18.5t102.5 18.5t78 50t53 73t27.5 87.5l172 -42q-12 -76 -48.5 -138.5t-93 -107.5t-130.5 -69.5t-161 -24.5t-161 24.5t-130.5 69.5t-93 107.5t-48.5 138.5z" />
    <glyph glyph-name="uni0123" unicode="&#x123;" horiz-adv-x="1377" 
d="M596 1056q120 0 219 -52.5t166 -149.5v170h238v-1052q0 -119 -37.5 -215.5t-111 -164.5t-181.5 -105t-250 -37q-203 0 -339.5 75.5t-202.5 222.5l196 94q22 -43 57.5 -77.5t80.5 -59t98 -37.5t110 -13q75 0 137.5 22.5t108 65t71 103t25.5 135.5v189q-67 -97 -166 -149.5
t-219 -52.5q-111 0 -204 41.5t-160.5 114.5t-105.5 172.5t-38 215.5t38 215.5t105.5 172.5t160.5 114.5t204 41.5zM663 172q71 0 131 25.5t103.5 70.5t67.5 107.5t24 136.5q0 75 -24 137.5t-67.5 107.5t-103.5 70t-131 25t-131 -25.5t-103.5 -70.5t-68 -107.5t-24.5 -136.5
t24.5 -136.5t68 -107.5t103.5 -70.5t131 -25.5zM663 1287q-43 0 -69 28.5t-26 83.5q0 33 10.5 69.5t29 71.5t45 67.5t57.5 57.5l35 -30q-12 -13 -22.5 -32t-19.5 -40.5t-15 -45.5t-8 -47q35 -6 56.5 -30.5t21.5 -60.5q0 -40 -26.5 -66t-68.5 -26z" />
    <glyph glyph-name="gdotaccent" unicode="&#x121;" horiz-adv-x="1377" 
d="M596 1056q120 0 219 -52.5t166 -149.5v170h238v-1052q0 -119 -37.5 -215.5t-111 -164.5t-181.5 -105t-250 -37q-203 0 -339.5 75.5t-202.5 222.5l196 94q22 -43 57.5 -77.5t80.5 -59t98 -37.5t110 -13q75 0 137.5 22.5t108 65t71 103t25.5 135.5v189q-67 -97 -166 -149.5
t-219 -52.5q-111 0 -204 41.5t-160.5 114.5t-105.5 172.5t-38 215.5t38 215.5t105.5 172.5t160.5 114.5t204 41.5zM663 172q71 0 131 25.5t103.5 70.5t67.5 107.5t24 136.5q0 75 -24 137.5t-67.5 107.5t-103.5 70t-131 25t-131 -25.5t-103.5 -70.5t-68 -107.5t-24.5 -136.5
t24.5 -136.5t68 -107.5t103.5 -70.5t131 -25.5zM518 1477q0 30 11.5 56.5t31 46t46 31t56.5 11.5t56.5 -11.5t46 -31t31 -46t11.5 -56.5t-11.5 -56.5t-31 -46t-46 -31t-56.5 -11.5t-56.5 11.5t-46 31t-31 46t-11.5 56.5z" />
    <glyph glyph-name="h" unicode="h" horiz-adv-x="1273" 
d="M396 1720v-821q26 34 61 63t78.5 50t95 32.5t109.5 11.5q89 0 161 -29t123.5 -82.5t79.5 -129.5t28 -171v-644h-238v595q0 131 -64 202t-179 71q-60 0 -107.5 -18.5t-80 -51t-50 -75.5t-17.5 -91v-632h-238v1720h238z" />
    <glyph glyph-name="hbar" unicode="&#x127;" horiz-adv-x="1273" 
d="M158 1428v292h238v-292h258v-150h-258v-379q26 34 61 63t78.5 50t95 32.5t109.5 11.5q89 0 161 -29t123.5 -82.5t79.5 -129.5t28 -171v-644h-238v595q0 131 -64 202t-179 71q-60 0 -107.5 -18.5t-80 -51t-50 -75.5t-17.5 -91v-632h-238v1278h-103v150h103z" />
    <glyph glyph-name="i" unicode="i" horiz-adv-x="532" 
d="M385 1024v-1024h-238v1024h238zM121 1379q0 30 11.5 56.5t31 46t46 31t56.5 11.5t56.5 -11.5t46 -31t31 -46t11.5 -56.5t-11.5 -56.5t-31 -46t-46 -31t-56.5 -11.5t-56.5 11.5t-46 31t-31 46t-11.5 56.5z" />
    <glyph glyph-name="dotlessi" unicode="&#x131;" horiz-adv-x="630" 
d="M196 0v1024h238v-1024h-238z" />
    <glyph glyph-name="iacute" unicode="&#xed;" horiz-adv-x="480" 
d="M121 0v1024h238v-1024h-238zM437 1583l102 -178l-416 -212l-76 113z" />
    <glyph glyph-name="icircumflex" unicode="&#xee;" horiz-adv-x="630" 
d="M196 0v1024h238v-1024h-238zM10 1260l-94 127l400 293l400 -293l-94 -127l-306 224z" />
    <glyph glyph-name="idieresis" unicode="&#xef;" horiz-adv-x="630" 
d="M196 0v1024h238v-1024h-238zM551 1530q27 0 51 -10.5t42 -28t28 -41.5t10 -51t-10 -51t-28 -41.5t-42 -28t-51 -10.5t-51 10.5t-42 28t-28 41.5t-10 51t10 51t28 41.5t42 28t51 10.5zM-50 1399q0 27 10 51t28 41.5t42 28t51 10.5t51 -10.5t42 -28t28 -41.5t10 -51
t-10 -51t-28 -41.5t-42 -28t-51 -10.5t-51 10.5t-42 28t-28 41.5t-10 51z" />
    <glyph glyph-name="idotaccent" horiz-adv-x="480" 
d="M121 0v1024h238v-1024h-238zM95 1478q0 30 11.5 56.5t31 46t46 31t56.5 11.5t56.5 -11.5t46 -31t31 -46t11.5 -56.5t-11.5 -56.5t-31 -46t-46 -31t-56.5 -11.5t-56.5 11.5t-46 31t-31 46t-11.5 56.5z" />
    <glyph glyph-name="igrave" unicode="&#xec;" horiz-adv-x="480" 
d="M121 0v1024h238v-1024h-238zM331 1193l-426 218l112 172l390 -277z" />
    <glyph glyph-name="imacron" unicode="&#x12b;" horiz-adv-x="630" 
d="M196 0v1024h238v-1024h-238zM-93 1308v164h816v-164h-816z" />
    <glyph glyph-name="iogonek" unicode="&#x12f;" horiz-adv-x="532" 
d="M385 1024v-1024h-238v1024h238zM121 1379q0 30 11.5 56.5t31 46t46 31t56.5 11.5t56.5 -11.5t46 -31t31 -46t11.5 -56.5t-11.5 -56.5t-31 -46t-46 -31t-56.5 -11.5t-56.5 11.5t-46 31t-31 46t-11.5 56.5zM89 -333q0 69 45.5 154t131.5 179h118q-70 -80 -110 -160.5
t-40 -140.5q0 -51 32 -85.5t95 -34.5q86 0 153 82l101 -75q-23 -33 -53.5 -60t-66.5 -45.5t-75 -28.5t-80 -10q-54 0 -100 17.5t-79.5 48.5t-52.5 71.5t-19 87.5z" />
    <glyph glyph-name="j" unicode="j" horiz-adv-x="589" 
d="M-33 -289q23 -27 51 -37.5t54 -10.5q64 0 98 47.5t34 130.5v1183h238v-1219q0 -84 -22.5 -150t-64 -111.5t-101 -69.5t-134.5 -24q-81 0 -151.5 28t-118.5 82zM178 1379q0 30 11.5 56.5t31 46t46 31t56.5 11.5t56.5 -11.5t46 -31t31 -46t11.5 -56.5t-11.5 -56.5t-31 -46
t-46 -31t-56.5 -11.5t-56.5 11.5t-46 31t-31 46t-11.5 56.5z" />
    <glyph glyph-name="k" unicode="k" horiz-adv-x="1072" 
d="M396 1720v-1089l392 393h308l-486 -493l510 -531h-305l-419 439v-439h-238v1720h238z" />
    <glyph glyph-name="uni0137" unicode="&#x137;" horiz-adv-x="1072" 
d="M396 1720v-1089l392 393h308l-486 -493l510 -531h-305l-419 439v-439h-238v1720h238zM568 -118q43 0 69 -28.5t26 -83.5q0 -33 -10.5 -69.5t-29 -71.5t-44.5 -67.5t-58 -57.5l-35 30q12 13 22.5 32t19.5 40.5t15 45.5t8 47q-35 6 -56.5 30.5t-21.5 60.5q0 40 26.5 66
t68.5 26z" />
    <glyph glyph-name="l" unicode="l" horiz-adv-x="558" 
d="M160 0v1720h238v-1720h-238z" />
    <glyph glyph-name="lacute" unicode="&#x13a;" horiz-adv-x="558" 
d="M160 0v1720h238v-1720h-238zM476 2278l102 -178l-416 -212l-76 113z" />
    <glyph glyph-name="lcaron" unicode="&#x13e;" horiz-adv-x="558" 
d="M160 0v1720h238v-1720h-238zM279 1886l-400 294l94 127l306 -224l306 224l94 -127z" />
    <glyph glyph-name="uni013C" unicode="&#x13c;" horiz-adv-x="558" 
d="M160 0v1720h238v-1720h-238zM279 -118q43 0 69 -28.5t26 -83.5q0 -33 -10.5 -69.5t-29 -71.5t-44.5 -67.5t-58 -57.5l-35 30q12 13 22.5 32t19.5 40.5t15 45.5t8 47q-35 6 -56.5 30.5t-21.5 60.5q0 40 26.5 66t68.5 26z" />
    <glyph glyph-name="lslash" unicode="&#x142;" horiz-adv-x="894" 
d="M328 932v788h238v-602l168 132v-209l-168 -132v-909h-238v723l-168 -132v209z" />
    <glyph glyph-name="m" unicode="m" horiz-adv-x="1951" 
d="M158 1024h238v-147q66 96 145.5 137.5t178.5 41.5q60 0 115 -14.5t100.5 -41t80 -64t53.5 -84.5q68 98 156 151t206 53q82 0 151.5 -26t120 -75t79 -119.5t28.5 -159.5v-676h-238v611q0 59 -16 105.5t-45 79.5t-70.5 50.5t-92.5 17.5q-53 0 -98 -18t-77.5 -52.5t-51 -84
t-18.5 -112.5v-597h-238v621q0 56 -15.5 100.5t-44 76.5t-69.5 49t-92 17q-53 0 -98.5 -18.5t-78.5 -53t-52 -85t-19 -113.5v-594h-238v1024z" />
    <glyph glyph-name="n" unicode="n" horiz-adv-x="1273" 
d="M396 1024v-141q51 81 139.5 127t204.5 46q89 0 161 -29t123.5 -82t79.5 -129t28 -171v-645h-238v596q0 131 -64 201.5t-179 70.5q-121 0 -188 -76t-67 -216v-576h-238v1024h238z" />
    <glyph glyph-name="nacute" unicode="&#x144;" horiz-adv-x="1273" 
d="M396 1024v-141q51 81 139.5 127t204.5 46q89 0 161 -29t123.5 -82t79.5 -129t28 -171v-645h-238v596q0 131 -64 201.5t-179 70.5q-121 0 -188 -76t-67 -216v-576h-238v1024h238zM848 1582l102 -178l-416 -212l-76 113z" />
    <glyph glyph-name="ncaron" unicode="&#x148;" horiz-adv-x="1273" 
d="M396 1024v-141q51 81 139.5 127t204.5 46q89 0 161 -29t123.5 -82t79.5 -129t28 -171v-645h-238v596q0 131 -64 201.5t-179 70.5q-121 0 -188 -76t-67 -216v-576h-238v1024h238zM651 1190l-400 294l94 127l306 -224l306 224l94 -127z" />
    <glyph glyph-name="uni0146" unicode="&#x146;" horiz-adv-x="1273" 
d="M396 1024v-141q51 81 139.5 127t204.5 46q89 0 161 -29t123.5 -82t79.5 -129t28 -171v-645h-238v596q0 131 -64 201.5t-179 70.5q-121 0 -188 -76t-67 -216v-576h-238v1024h238zM651 -118q43 0 69 -28.5t26 -83.5q0 -33 -10.5 -69.5t-29 -71.5t-44.5 -67.5t-58 -57.5
l-35 30q12 13 22.5 32t19.5 40.5t15 45.5t8 47q-35 6 -56.5 30.5t-21.5 60.5q0 40 26.5 66t68.5 26z" />
    <glyph glyph-name="eng" unicode="&#x14b;" horiz-adv-x="1252" 
d="M158 1024h238v-133q51 75 139.5 120t203.5 45q89 0 161 -29t123.5 -82.5t79.5 -129.5t28 -171v-839q0 -84 -22 -150t-63.5 -111.5t-101 -69.5t-134.5 -24q-81 0 -152 28t-118 82l117 151q23 -27 50.5 -37.5t53.5 -10.5q65 0 99 47.5t34 130.5v754q0 131 -64.5 202
t-179.5 71q-120 0 -187 -76t-67 -216v-576h-238v1024z" />
    <glyph glyph-name="ntilde" unicode="&#xf1;" horiz-adv-x="1273" 
d="M396 1024v-141q51 81 139.5 127t204.5 46q89 0 161 -29t123.5 -82t79.5 -129t28 -171v-645h-238v596q0 131 -64 201.5t-179 70.5q-121 0 -188 -76t-67 -216v-576h-238v1024h238zM131 1332q56 107 134 165.5t178 58.5q46 0 83.5 -12t70 -30t62 -38.5t59.5 -38.5t62.5 -30
t70.5 -12q66 0 113 35t79 92l128 -84q-56 -107 -134 -165.5t-178 -58.5q-46 0 -83.5 12t-70 30t-62 38.5t-59.5 38.5t-62 30t-71 12q-66 0 -113 -35t-79 -92z" />
    <glyph glyph-name="o" unicode="o" horiz-adv-x="1334" 
d="M81 512q0 120 45 220t124 172t186 112t231 40t231 -40t186 -112t124 -172t45 -220t-45 -220t-124 -172t-186 -112t-231 -40t-231 40t-186 112t-124 172t-45 220zM329 512q0 -74 25.5 -136.5t71 -107.5t107.5 -70t134 -25t134 25t107.5 70t71 107.5t25.5 136.5
t-25.5 136.5t-71 107.5t-107.5 70t-134 25t-134 -25t-107.5 -70t-71 -107.5t-25.5 -136.5z" />
    <glyph glyph-name="oacute" unicode="&#xf3;" horiz-adv-x="1334" 
d="M81 512q0 120 45 220t124 172t186 112t231 40t231 -40t186 -112t124 -172t45 -220t-45 -220t-124 -172t-186 -112t-231 -40t-231 40t-186 112t-124 172t-45 220zM329 512q0 -74 25.5 -136.5t71 -107.5t107.5 -70t134 -25t134 25t107.5 70t71 107.5t25.5 136.5
t-25.5 136.5t-71 107.5t-107.5 70t-134 25t-134 -25t-107.5 -70t-71 -107.5t-25.5 -136.5zM864 1582l102 -178l-416 -212l-76 113z" />
    <glyph glyph-name="ocircumflex" unicode="&#xf4;" horiz-adv-x="1334" 
d="M81 512q0 120 45 220t124 172t186 112t231 40t231 -40t186 -112t124 -172t45 -220t-45 -220t-124 -172t-186 -112t-231 -40t-231 40t-186 112t-124 172t-45 220zM329 512q0 -74 25.5 -136.5t71 -107.5t107.5 -70t134 -25t134 25t107.5 70t71 107.5t25.5 136.5
t-25.5 136.5t-71 107.5t-107.5 70t-134 25t-134 -25t-107.5 -70t-71 -107.5t-25.5 -136.5zM362 1259l-94 127l400 293l400 -293l-94 -127l-306 224z" />
    <glyph glyph-name="odieresis" unicode="&#xf6;" horiz-adv-x="1334" 
d="M81 512q0 120 45 220t124 172t186 112t231 40t231 -40t186 -112t124 -172t45 -220t-45 -220t-124 -172t-186 -112t-231 -40t-231 40t-186 112t-124 172t-45 220zM329 512q0 -74 25.5 -136.5t71 -107.5t107.5 -70t134 -25t134 25t107.5 70t71 107.5t25.5 136.5
t-25.5 136.5t-71 107.5t-107.5 70t-134 25t-134 -25t-107.5 -70t-71 -107.5t-25.5 -136.5zM903 1529q27 0 51 -10.5t42 -28t28 -41.5t10 -51t-10 -51t-28 -41.5t-42 -28t-51 -10.5t-51 10.5t-42 28t-28 41.5t-10 51t10 51t28 41.5t42 28t51 10.5zM302 1398q0 27 10 51
t28 41.5t42 28t51 10.5t51 -10.5t42 -28t28 -41.5t10 -51t-10 -51t-28 -41.5t-42 -28t-51 -10.5t-51 10.5t-42 28t-28 41.5t-10 51z" />
    <glyph glyph-name="ograve" unicode="&#xf2;" horiz-adv-x="1334" 
d="M81 512q0 120 45 220t124 172t186 112t231 40t231 -40t186 -112t124 -172t45 -220t-45 -220t-124 -172t-186 -112t-231 -40t-231 40t-186 112t-124 172t-45 220zM329 512q0 -74 25.5 -136.5t71 -107.5t107.5 -70t134 -25t134 25t107.5 70t71 107.5t25.5 136.5
t-25.5 136.5t-71 107.5t-107.5 70t-134 25t-134 -25t-107.5 -70t-71 -107.5t-25.5 -136.5zM758 1192l-426 218l112 172l390 -277z" />
    <glyph glyph-name="ohungarumlaut" unicode="&#x151;" horiz-adv-x="1334" 
d="M81 512q0 120 45 220t124 172t186 112t231 40t231 -40t186 -112t124 -172t45 -220t-45 -220t-124 -172t-186 -112t-231 -40t-231 40t-186 112t-124 172t-45 220zM329 512q0 -74 25.5 -136.5t71 -107.5t107.5 -70t134 -25t134 25t107.5 70t71 107.5t25.5 136.5
t-25.5 136.5t-71 107.5t-107.5 70t-134 25t-134 -25t-107.5 -70t-71 -107.5t-25.5 -136.5zM839 1290l-95 110l284 280l153 -164zM400 1290l-96 110l285 280l152 -164z" />
    <glyph glyph-name="omacron" unicode="&#x14d;" horiz-adv-x="1334" 
d="M81 512q0 120 45 220t124 172t186 112t231 40t231 -40t186 -112t124 -172t45 -220t-45 -220t-124 -172t-186 -112t-231 -40t-231 40t-186 112t-124 172t-45 220zM329 512q0 -74 25.5 -136.5t71 -107.5t107.5 -70t134 -25t134 25t107.5 70t71 107.5t25.5 136.5
t-25.5 136.5t-71 107.5t-107.5 70t-134 25t-134 -25t-107.5 -70t-71 -107.5t-25.5 -136.5zM259 1307v164h816v-164h-816z" />
    <glyph glyph-name="oslash" unicode="&#xf8;" horiz-adv-x="1334" 
d="M368 38l-57 -70h-122l99 120q-97 73 -152 181t-55 243q0 120 45 220t124 172t186 112t231 40q97 0 182 -23.5t156 -68.5l76 92h122l-122 -149q81 -72 126.5 -172.5t45.5 -222.5q0 -120 -45 -220t-124 -172t-186 -112t-231 -40q-83 0 -158 18t-141 52zM865 792
q-42 29 -91.5 44t-106.5 15q-72 0 -134 -25t-107.5 -70t-71 -107.5t-25.5 -136.5q0 -77 27 -140.5t75 -108.5zM509 209q35 -17 74.5 -26.5t83.5 -9.5q72 0 134 25t107.5 70t71 107.5t25.5 136.5q0 63 -18.5 117.5t-52.5 97.5z" />
    <glyph glyph-name="otilde" unicode="&#xf5;" horiz-adv-x="1334" 
d="M81 512q0 120 45 220t124 172t186 112t231 40t231 -40t186 -112t124 -172t45 -220t-45 -220t-124 -172t-186 -112t-231 -40t-231 40t-186 112t-124 172t-45 220zM329 512q0 -74 25.5 -136.5t71 -107.5t107.5 -70t134 -25t134 25t107.5 70t71 107.5t25.5 136.5
t-25.5 136.5t-71 107.5t-107.5 70t-134 25t-134 -25t-107.5 -70t-71 -107.5t-25.5 -136.5zM147 1332q56 107 134 165.5t178 58.5q46 0 83.5 -12t70 -30t62 -38.5t59.5 -38.5t62 -30t71 -12q66 0 113 35t79 92l128 -84q-56 -107 -134 -165.5t-178 -58.5q-46 0 -83.5 12
t-70 30t-62 38.5t-59.5 38.5t-62 30t-71 12q-66 0 -113 -35t-79 -92z" />
    <glyph glyph-name="oe" unicode="&#x153;" horiz-adv-x="2167" 
d="M81 512q0 120 43.5 220t120 172t182.5 112t230 40q76 0 144 -17t126 -48.5t104 -77.5t77 -105q35 57 82 103t103 78t121 49.5t136 17.5q115 0 213 -40t170 -111t112.5 -168.5t40.5 -211.5v-14.5t-2 -27.5h-845q0 -72 25 -131.5t70 -102.5t108 -66.5t139 -23.5
q95 0 169.5 38.5t134.5 117.5l172 -89q-37 -61 -89 -109t-115 -81t-136.5 -50.5t-154.5 -17.5q-151 0 -267 64t-188 182q-30 -58 -75.5 -103.5t-103.5 -77t-126 -48.5t-145 -17q-124 0 -230 40t-182.5 112t-120 172t-43.5 220zM667 172q74 0 136 25.5t108 70.5t71.5 107.5
t25.5 136.5t-25.5 136.5t-71.5 107.5t-108 70.5t-136 25.5q-73 0 -135.5 -25.5t-108 -70.5t-71 -107.5t-25.5 -136.5t25.5 -136.5t71 -107.5t108 -70.5t135.5 -25.5zM1853 617q-7 60 -32 110.5t-65 87t-92 56.5t-113 20q-62 0 -115.5 -20.5t-94 -57t-65.5 -87t-30 -109.5
h607z" />
    <glyph glyph-name="p" unicode="p" horiz-adv-x="1376" 
d="M158 -520v1544h238v-170q67 97 166 149.5t220 52.5q111 0 204 -41.5t160.5 -114.5t105.5 -172.5t38 -215.5t-38 -215.5t-105.5 -172.5t-160.5 -114.5t-204 -41.5q-121 0 -220 52.5t-166 149.5v-690h-238zM389 512q0 -74 24 -136.5t67.5 -107.5t103.5 -70.5t131 -25.5
t131 25.5t103.5 70.5t68 107.5t24.5 136.5t-24.5 136.5t-68 107.5t-103.5 70.5t-131 25.5t-131 -25t-103.5 -70t-67.5 -107.5t-24 -137.5z" />
    <glyph glyph-name="thorn" unicode="&#xfe;" horiz-adv-x="1376" 
d="M396 1720v-866q67 97 166 149.5t220 52.5q111 0 204 -41.5t160.5 -114.5t105.5 -172.5t38 -215.5t-38 -215.5t-105.5 -172.5t-160.5 -114.5t-204 -41.5q-121 0 -220 52.5t-166 149.5v-690h-238v2240h238zM715 172q71 0 131 25.5t103.5 70.5t68 107.5t24.5 136.5
t-24.5 136.5t-68 107.5t-103.5 70.5t-131 25.5t-131 -25t-103.5 -70t-67.5 -107.5t-24 -137.5q0 -74 24 -136.5t67.5 -107.5t103.5 -70.5t131 -25.5z" />
    <glyph glyph-name="q" unicode="q" 
d="M596 1056q121 0 220 -52.5t166 -149.5v170h238v-1544h-238v690q-67 -97 -166 -149.5t-220 -52.5q-111 0 -204 41.5t-160.5 114.5t-105.5 172.5t-38 215.5t38 215.5t105.5 172.5t160.5 114.5t204 41.5zM336 512q0 -74 24.5 -136.5t68 -107.5t103.5 -70.5t131 -25.5
t131 25.5t103.5 70.5t67.5 107.5t24 136.5q0 75 -24 137.5t-67.5 107.5t-103.5 70t-131 25t-131 -25.5t-103.5 -70.5t-68 -107.5t-24.5 -136.5z" />
    <glyph glyph-name="r" unicode="r" horiz-adv-x="888" 
d="M158 1024h238v-175q23 54 56.5 93t74 64.5t86.5 37.5t95 12q54 0 104.5 -13.5t88.5 -34.5l-98 -201q-34 20 -75.5 31.5t-80.5 11.5q-50 0 -95.5 -20.5t-80 -60.5t-55 -99.5t-20.5 -136.5v-533h-238v1024z" />
    <glyph glyph-name="racute" unicode="&#x155;" horiz-adv-x="888" 
d="M158 1024h238v-175q23 54 56.5 93t74 64.5t86.5 37.5t95 12q54 0 104.5 -13.5t88.5 -34.5l-98 -201q-34 20 -75.5 31.5t-80.5 11.5q-50 0 -95.5 -20.5t-80 -60.5t-55 -99.5t-20.5 -136.5v-533h-238v1024zM698 1582l102 -178l-416 -212l-76 113z" />
    <glyph glyph-name="rcaron" unicode="&#x159;" horiz-adv-x="888" 
d="M158 1024h238v-175q23 54 56.5 93t74 64.5t86.5 37.5t95 12q54 0 104.5 -13.5t88.5 -34.5l-98 -201q-34 20 -75.5 31.5t-80.5 11.5q-50 0 -95.5 -20.5t-80 -60.5t-55 -99.5t-20.5 -136.5v-533h-238v1024zM501 1190l-400 294l94 127l306 -224l306 224l94 -127z" />
    <glyph glyph-name="uni0157" unicode="&#x157;" horiz-adv-x="888" 
d="M158 1024h238v-175q23 54 56.5 93t74 64.5t86.5 37.5t95 12q54 0 104.5 -13.5t88.5 -34.5l-98 -201q-34 20 -75.5 31.5t-80.5 11.5q-50 0 -95.5 -20.5t-80 -60.5t-55 -99.5t-20.5 -136.5v-533h-238v1024zM277 -118q43 0 69 -28.5t26 -83.5q0 -33 -10.5 -69.5t-29 -71.5
t-44.5 -67.5t-58 -57.5l-35 30q12 13 22.5 32t19.5 40.5t15 45.5t8 47q-35 6 -56.5 30.5t-21.5 60.5q0 40 26.5 66t68.5 26z" />
    <glyph glyph-name="s" unicode="s" horiz-adv-x="971" 
d="M88 146l117 117q57 -61 124.5 -89t135.5 -28q37 0 69.5 8.5t57 26t38.5 43.5t14 61q0 33 -16 58.5t-44.5 45.5t-69 37.5t-88.5 35.5q-50 19 -103.5 42.5t-98 58t-73 82.5t-28.5 115q0 63 27 117t75.5 93.5t117.5 62t153 22.5q96 0 179.5 -32.5t148.5 -95.5l-100 -116
q-46 42 -101 61t-112 19q-78 0 -120.5 -33t-42.5 -85q0 -29 14 -51t41 -40t66 -35t89 -35q74 -27 135 -58.5t105 -71t68 -89t24 -114.5q0 -75 -28.5 -132.5t-81 -97.5t-127 -60.5t-166.5 -20.5q-122 0 -222.5 41.5t-176.5 136.5z" />
    <glyph glyph-name="sacute" unicode="&#x15b;" horiz-adv-x="971" 
d="M88 146l117 117q57 -61 124.5 -89t135.5 -28q37 0 69.5 8.5t57 26t38.5 43.5t14 61q0 33 -16 58.5t-44.5 45.5t-69 37.5t-88.5 35.5q-50 19 -103.5 42.5t-98 58t-73 82.5t-28.5 115q0 63 27 117t75.5 93.5t117.5 62t153 22.5q96 0 179.5 -32.5t148.5 -95.5l-100 -116
q-46 42 -101 61t-112 19q-78 0 -120.5 -33t-42.5 -85q0 -29 14 -51t41 -40t66 -35t89 -35q74 -27 135 -58.5t105 -71t68 -89t24 -114.5q0 -75 -28.5 -132.5t-81 -97.5t-127 -60.5t-166.5 -20.5q-122 0 -222.5 41.5t-176.5 136.5zM688 1582l102 -178l-416 -212l-76 113z" />
    <glyph glyph-name="scaron" unicode="&#x161;" horiz-adv-x="971" 
d="M88 146l117 117q57 -61 124.5 -89t135.5 -28q37 0 69.5 8.5t57 26t38.5 43.5t14 61q0 33 -16 58.5t-44.5 45.5t-69 37.5t-88.5 35.5q-50 19 -103.5 42.5t-98 58t-73 82.5t-28.5 115q0 63 27 117t75.5 93.5t117.5 62t153 22.5q96 0 179.5 -32.5t148.5 -95.5l-100 -116
q-46 42 -101 61t-112 19q-78 0 -120.5 -33t-42.5 -85q0 -29 14 -51t41 -40t66 -35t89 -35q74 -27 135 -58.5t105 -71t68 -89t24 -114.5q0 -75 -28.5 -132.5t-81 -97.5t-127 -60.5t-166.5 -20.5q-122 0 -222.5 41.5t-176.5 136.5zM491 1190l-400 294l94 127l306 -224l306 224
l94 -127z" />
    <glyph glyph-name="scedilla" unicode="&#x15f;" horiz-adv-x="971" 
d="M88 146l117 117q57 -61 124.5 -89t135.5 -28q37 0 69.5 8.5t57 26t38.5 43.5t14 61q0 33 -16 58.5t-44.5 45.5t-69 37.5t-88.5 35.5q-50 19 -103.5 42.5t-98 58t-73 82.5t-28.5 115q0 63 27 117t75.5 93.5t117.5 62t153 22.5q96 0 179.5 -32.5t148.5 -95.5l-100 -116
q-46 42 -101 61t-112 19q-78 0 -120.5 -33t-42.5 -85q0 -29 14 -51t41 -40t66 -35t89 -35q74 -27 135 -58.5t105 -71t68 -89t24 -114.5q0 -75 -28.5 -132.5t-81 -97.5t-127 -60.5t-166.5 -20.5q-122 0 -222.5 41.5t-176.5 136.5zM218 -393l98 71q32 -47 77 -72t98 -25
q57 0 92 28.5t35 74.5t-36.5 73.5t-95.5 27.5q-31 0 -64 -7.5t-52 -18.5l-13 10l80 249h110l-50 -151q6 1 11.5 1h11.5q42 0 84 -11t75 -34t53.5 -58.5t20.5 -84.5q0 -48 -19 -89t-53.5 -70t-82 -45.5t-103.5 -16.5q-85 0 -154.5 38t-122.5 110z" />
    <glyph glyph-name="uni0219" unicode="&#x219;" horiz-adv-x="971" 
d="M88 146l117 117q57 -61 124.5 -89t135.5 -28q37 0 69.5 8.5t57 26t38.5 43.5t14 61q0 33 -16 58.5t-44.5 45.5t-69 37.5t-88.5 35.5q-50 19 -103.5 42.5t-98 58t-73 82.5t-28.5 115q0 63 27 117t75.5 93.5t117.5 62t153 22.5q96 0 179.5 -32.5t148.5 -95.5l-100 -116
q-46 42 -101 61t-112 19q-78 0 -120.5 -33t-42.5 -85q0 -29 14 -51t41 -40t66 -35t89 -35q74 -27 135 -58.5t105 -71t68 -89t24 -114.5q0 -75 -28.5 -132.5t-81 -97.5t-127 -60.5t-166.5 -20.5q-122 0 -222.5 41.5t-176.5 136.5zM501 -118q43 0 69 -28.5t26 -83.5
q0 -33 -10.5 -69.5t-29 -71.5t-44.5 -67.5t-58 -57.5l-35 30q12 13 22.5 32t19.5 40.5t15 45.5t8 47q-35 6 -56.5 30.5t-21.5 60.5q0 40 26.5 66t68.5 26z" />
    <glyph glyph-name="germandbls" unicode="&#xdf;" horiz-adv-x="1293" 
d="M66 879h132v395q0 101 37 187.5t101.5 151t152.5 101t190 36.5q101 0 188 -36t151.5 -98.5t101 -147t36.5 -182.5q0 -122 -59.5 -217t-169.5 -148q69 -29 123 -72.5t91.5 -98.5t57 -121t19.5 -140q0 -111 -41 -205.5t-113.5 -164t-171.5 -110t-216 -41.5h-109v219h109
q62 0 115.5 24.5t92.5 67t61.5 101t22.5 125.5q0 68 -22.5 126t-61.5 100.5t-92.5 66.5t-115.5 24h-109v186h109q54 0 100.5 21t81 58t54 86.5t19.5 107.5q0 56 -19.5 104.5t-54 84.5t-81 56.5t-100.5 20.5q-52 0 -96 -19.5t-76 -55t-50.5 -84t-18.5 -106.5v-1282h-237v692
h-132v187z" />
    <glyph glyph-name="t" unicode="t" horiz-adv-x="730" 
d="M73 843v181h123v383h238v-383h238v-181h-238v-521q0 -69 27 -105.5t79 -36.5q44 0 81 23l94 -168q-43 -31 -106 -49t-125 -18q-68 0 -121.5 23t-90.5 66.5t-56.5 106t-19.5 142.5v537h-123z" />
    <glyph glyph-name="tbar" unicode="&#x167;" horiz-adv-x="730" 
d="M73 694v130h123v121h-123v130h123v332h238v-332h238v-130h-238v-121h238v-130h-238v-372q0 -69 27 -105.5t79 -36.5q44 0 81 23l94 -168q-43 -31 -106 -49t-125 -18q-68 0 -121.5 23t-90.5 66.5t-56.5 106t-19.5 142.5v388h-123z" />
    <glyph glyph-name="tcaron" unicode="&#x165;" horiz-adv-x="730" 
d="M73 843v181h123v383h238v-383h238v-181h-238v-521q0 -69 27 -105.5t79 -36.5q44 0 81 23l94 -168q-43 -31 -106 -49t-125 -18q-68 0 -121.5 23t-90.5 66.5t-56.5 106t-19.5 142.5v537h-123zM405 1573l-400 294l94 127l306 -224l306 224l94 -127z" />
    <glyph glyph-name="uni0163" unicode="&#x163;" horiz-adv-x="730" 
d="M73 843v181h123v383h238v-383h238v-181h-238v-521q0 -69 27 -105.5t79 -36.5q44 0 81 23l94 -168q-43 -31 -106 -49t-125 -18q-68 0 -121.5 23t-90.5 66.5t-56.5 106t-19.5 142.5v537h-123zM150 -411l98 71q32 -47 77 -72t98 -25q57 0 92 28.5t35 74.5t-36.5 73.5
t-95.5 27.5q-31 0 -64 -7.5t-52 -18.5l-13 10l80 249h110l-50 -151q6 1 11.5 1h11.5q42 0 84 -11t75 -34t53.5 -58.5t20.5 -84.5q0 -48 -19 -89t-53.5 -70t-82 -45.5t-103.5 -16.5q-85 0 -154.5 38t-122.5 110z" />
    <glyph glyph-name="uni021B" unicode="&#x21b;" horiz-adv-x="730" 
d="M73 843v181h123v383h238v-383h238v-181h-238v-521q0 -69 27 -105.5t79 -36.5q44 0 81 23l94 -168q-43 -31 -106 -49t-125 -18q-68 0 -121.5 23t-90.5 66.5t-56.5 106t-19.5 142.5v537h-123zM489 -118q43 0 69 -28.5t26 -83.5q0 -33 -10.5 -69.5t-29 -71.5t-44.5 -67.5
t-58 -57.5l-35 30q12 13 22.5 32t19.5 40.5t15 45.5t8 47q-35 6 -56.5 30.5t-21.5 60.5q0 40 26.5 66t68.5 26z" />
    <glyph glyph-name="u" unicode="u" horiz-adv-x="1254" 
d="M141 1024h238v-493q0 -97 14 -166.5t44 -114.5t77 -66t113 -21t113 21t77 66t44 114.5t14 166.5v493h238v-546q0 -255 -120 -382.5t-366 -127.5t-366 127.5t-120 382.5v546z" />
    <glyph glyph-name="uacute" unicode="&#xfa;" horiz-adv-x="1254" 
d="M141 1024h238v-493q0 -97 14 -166.5t44 -114.5t77 -66t113 -21t113 21t77 66t44 114.5t14 166.5v493h238v-546q0 -255 -120 -382.5t-366 -127.5t-366 127.5t-120 382.5v546zM824 1582l102 -178l-416 -212l-76 113z" />
    <glyph glyph-name="ucircumflex" unicode="&#xfb;" horiz-adv-x="1254" 
d="M141 1024h238v-493q0 -97 14 -166.5t44 -114.5t77 -66t113 -21t113 21t77 66t44 114.5t14 166.5v493h238v-546q0 -255 -120 -382.5t-366 -127.5t-366 127.5t-120 382.5v546zM322 1259l-94 127l400 293l400 -293l-94 -127l-306 224z" />
    <glyph glyph-name="udieresis" unicode="&#xfc;" horiz-adv-x="1254" 
d="M141 1024h238v-493q0 -97 14 -166.5t44 -114.5t77 -66t113 -21t113 21t77 66t44 114.5t14 166.5v493h238v-546q0 -255 -120 -382.5t-366 -127.5t-366 127.5t-120 382.5v546zM863 1529q27 0 51 -10.5t42 -28t28 -41.5t10 -51t-10 -51t-28 -41.5t-42 -28t-51 -10.5
t-51 10.5t-42 28t-28 41.5t-10 51t10 51t28 41.5t42 28t51 10.5zM262 1398q0 27 10 51t28 41.5t42 28t51 10.5t51 -10.5t42 -28t28 -41.5t10 -51t-10 -51t-28 -41.5t-42 -28t-51 -10.5t-51 10.5t-42 28t-28 41.5t-10 51z" />
    <glyph glyph-name="ugrave" unicode="&#xf9;" horiz-adv-x="1254" 
d="M141 1024h238v-493q0 -97 14 -166.5t44 -114.5t77 -66t113 -21t113 21t77 66t44 114.5t14 166.5v493h238v-546q0 -255 -120 -382.5t-366 -127.5t-366 127.5t-120 382.5v546zM718 1192l-426 218l112 172l390 -277z" />
    <glyph glyph-name="uhungarumlaut" unicode="&#x171;" horiz-adv-x="1254" 
d="M141 1024h238v-493q0 -97 14 -166.5t44 -114.5t77 -66t113 -21t113 21t77 66t44 114.5t14 166.5v493h238v-546q0 -255 -120 -382.5t-366 -127.5t-366 127.5t-120 382.5v546zM799 1290l-95 110l284 280l153 -164zM360 1290l-96 110l285 280l152 -164z" />
    <glyph glyph-name="umacron" unicode="&#x16b;" horiz-adv-x="1254" 
d="M141 1024h238v-493q0 -97 14 -166.5t44 -114.5t77 -66t113 -21t113 21t77 66t44 114.5t14 166.5v493h238v-546q0 -255 -120 -382.5t-366 -127.5t-366 127.5t-120 382.5v546zM219 1307v164h816v-164h-816z" />
    <glyph glyph-name="uogonek" unicode="&#x173;" horiz-adv-x="1256" 
d="M378 1024v-493q0 -97 14 -166.5t44.5 -114.5t78 -66t113.5 -21t113.5 21t78 66t44.5 114.5t14 166.5v493h237v-546q0 -277 -144 -405q-51 -44 -92 -93t-70 -97.5t-44.5 -94.5t-15.5 -85q0 -54 32 -89.5t95 -35.5q87 0 154 82l100 -75q-22 -33 -52.5 -60t-66.5 -45.5
t-75 -28.5t-80 -10q-55 0 -101 18t-79.5 48.5t-52.5 72t-19 89.5q0 71 40.5 146.5t118.5 163.5q-32 -5 -65 -8t-70 -3q-245 0 -366 127.5t-121 382.5v546h237z" />
    <glyph glyph-name="uring" unicode="&#x16f;" horiz-adv-x="1254" 
d="M141 1024h238v-493q0 -97 14 -166.5t44 -114.5t77 -66t113 -21t113 21t77 66t44 114.5t14 166.5v493h238v-546q0 -255 -120 -382.5t-366 -127.5t-366 127.5t-120 382.5v546zM355 1465q0 53 21 97t58 75.5t86.5 49t106.5 17.5t106.5 -17.5t86.5 -49t58 -75.5t21 -97
t-21 -97t-58 -75.5t-86.5 -49t-106.5 -17.5t-106.5 17.5t-86.5 49t-58 75.5t-21 97zM497 1465q0 -26 10 -48t28 -38.5t41.5 -26t50.5 -9.5t50.5 9.5t41.5 26t28 38.5t10 48t-10 48t-28 38.5t-41.5 26t-50.5 9.5t-50.5 -9.5t-41.5 -26t-28 -38.5t-10 -48z" />
    <glyph glyph-name="v" unicode="v" horiz-adv-x="1156" 
d="M-22 1024h280l320 -703l320 703h280l-520 -1024h-160z" />
    <glyph glyph-name="w" unicode="w" horiz-adv-x="1880" 
d="M-22 1024h272l320 -701l290 701h160l290 -701l320 701h272l-519 -1024h-159l-284 680l-284 -680h-159z" />
    <glyph glyph-name="wacute" unicode="&#x1e83;" horiz-adv-x="1880" 
d="M-22 1024h272l320 -701l290 701h160l290 -701l320 701h272l-519 -1024h-159l-284 680l-284 -680h-159zM1137 1582l102 -178l-416 -212l-76 113z" />
    <glyph glyph-name="wcircumflex" unicode="&#x175;" horiz-adv-x="1880" 
d="M-22 1024h272l320 -701l290 701h160l290 -701l320 701h272l-519 -1024h-159l-284 680l-284 -680h-159zM635 1259l-94 127l400 293l400 -293l-94 -127l-306 224z" />
    <glyph glyph-name="wdieresis" unicode="&#x1e85;" horiz-adv-x="1880" 
d="M-22 1024h272l320 -701l290 701h160l290 -701l320 701h272l-519 -1024h-159l-284 680l-284 -680h-159zM1176 1529q27 0 51 -10.5t42 -28t28 -41.5t10 -51t-10 -51t-28 -41.5t-42 -28t-51 -10.5t-51 10.5t-42 28t-28 41.5t-10 51t10 51t28 41.5t42 28t51 10.5zM575 1398
q0 27 10 51t28 41.5t42 28t51 10.5t51 -10.5t42 -28t28 -41.5t10 -51t-10 -51t-28 -41.5t-42 -28t-51 -10.5t-51 10.5t-42 28t-28 41.5t-10 51z" />
    <glyph glyph-name="wgrave" unicode="&#x1e81;" horiz-adv-x="1880" 
d="M-22 1024h272l320 -701l290 701h160l290 -701l320 701h272l-519 -1024h-159l-284 680l-284 -680h-159zM1031 1192l-426 218l112 172l390 -277z" />
    <glyph glyph-name="x" unicode="x" horiz-adv-x="1120" 
d="M-22 0l435 534l-374 490h274l247 -327l247 327h274l-374 -490l435 -534h-284l-298 372l-298 -372h-284z" />
    <glyph glyph-name="y" unicode="y" horiz-adv-x="1165" 
d="M250 1024l352 -707l312 707h273l-749 -1544h-271l297 604l-486 940h272z" />
    <glyph glyph-name="yacute" unicode="&#xfd;" horiz-adv-x="1165" 
d="M250 1024l352 -707l312 707h273l-749 -1544h-271l297 604l-486 940h272zM782 1582l102 -178l-416 -212l-76 113z" />
    <glyph glyph-name="ycircumflex" unicode="&#x177;" horiz-adv-x="1165" 
d="M250 1024l352 -707l312 707h273l-749 -1544h-271l297 604l-486 940h272zM280 1259l-94 127l400 293l400 -293l-94 -127l-306 224z" />
    <glyph glyph-name="ydieresis" unicode="&#xff;" horiz-adv-x="1165" 
d="M250 1024l352 -707l312 707h273l-749 -1544h-271l297 604l-486 940h272zM821 1529q27 0 51 -10.5t42 -28t28 -41.5t10 -51t-10 -51t-28 -41.5t-42 -28t-51 -10.5t-51 10.5t-42 28t-28 41.5t-10 51t10 51t28 41.5t42 28t51 10.5zM220 1398q0 27 10 51t28 41.5t42 28
t51 10.5t51 -10.5t42 -28t28 -41.5t10 -51t-10 -51t-28 -41.5t-42 -28t-51 -10.5t-51 10.5t-42 28t-28 41.5t-10 51z" />
    <glyph glyph-name="ygrave" unicode="&#x1ef3;" horiz-adv-x="1165" 
d="M250 1024l352 -707l312 707h273l-749 -1544h-271l297 604l-486 940h272zM676 1192l-426 218l112 172l390 -277z" />
    <glyph glyph-name="z" unicode="z" horiz-adv-x="1124" 
d="M33 0l647 838h-568v186h979l-650 -838h619v-186h-1027z" />
    <glyph glyph-name="zacute" unicode="&#x17a;" horiz-adv-x="1124" 
d="M33 0l647 838h-568v186h979l-650 -838h619v-186h-1027zM767 1581l102 -178l-416 -212l-76 113z" />
    <glyph glyph-name="zcaron" unicode="&#x17e;" horiz-adv-x="1124" 
d="M33 0l647 838h-568v186h979l-650 -838h619v-186h-1027zM570 1189l-400 294l94 127l306 -224l306 224l94 -127z" />
    <glyph glyph-name="zdotaccent" unicode="&#x17c;" horiz-adv-x="1124" 
d="M33 0l647 838h-568v186h979l-650 -838h619v-186h-1027zM425 1476q0 30 11.5 56.5t31 46t46 31t56.5 11.5t56.5 -11.5t46 -31t31 -46t11.5 -56.5t-11.5 -56.5t-31 -46t-46 -31t-56.5 -11.5t-56.5 11.5t-46 31t-31 46t-11.5 56.5z" />
    <glyph glyph-name="a.alt" horiz-adv-x="1222" 
d="M104 288q0 71 28 131t79.5 103.5t123 68t158.5 24.5q93 0 178.5 -28.5t143.5 -79.5v101q0 58 -20 105.5t-56.5 81.5t-88.5 52.5t-116 18.5q-66 0 -137 -20.5t-126 -58.5l-101 143q72 60 168.5 93t213.5 33q114 0 206.5 -31.5t158 -90t101 -141t35.5 -184.5v-609h-238v74
q-63 -51 -144.5 -78.5t-172.5 -27.5q-88 0 -160.5 23.5t-124.5 65.5t-80.5 101t-28.5 130zM338 302q0 -40 18.5 -73.5t51 -58t77 -38.5t96.5 -14t96.5 13.5t77.5 38t51.5 57.5t18.5 72t-18.5 72t-51.5 57.5t-78 38t-98 13.5t-97 -13.5t-76 -37t-50 -56t-18 -71.5z" />
    <glyph glyph-name="j.alt" horiz-adv-x="532" 
d="M385 1024v-1544h-237v1544h237zM121 1380q0 30 11.5 56.5t31.5 46t46.5 31t56.5 11.5t56 -11.5t45.5 -31t31 -46t11.5 -56.5t-11.5 -56.5t-31 -46t-45.5 -31t-56 -11.5t-56.5 11.5t-46.5 31t-31.5 46t-11.5 56.5z" />
    <glyph glyph-name="t.alt" horiz-adv-x="756" 
d="M231 1024v383h237v-383h223v-181h-223v-843h-237v843h-139v181h139z" />
    <glyph glyph-name="u.alt" horiz-adv-x="1346" 
d="M414 1024v-597q0 -62 15 -112t45.5 -85.5t76 -54.5t106.5 -19q58 0 105 21t80.5 54.5t51.5 76.5t18 88v628h238v-1024h-238v125q-23 -37 -58.5 -66.5t-77.5 -49.5t-87 -30.5t-87 -10.5q-85 0 -162.5 24t-136 73t-93 123t-34.5 174v662h238z" />
    <glyph glyph-name="ordfeminine" unicode="&#xaa;" horiz-adv-x="966" 
d="M128 1344q0 71 23.5 132.5t65.5 106.5t100.5 71t128.5 26q73 0 134 -31.5t100 -88.5v100h147v-632h-147v106q-37 -57 -99 -91.5t-140 -34.5q-66 0 -123 25t-99.5 70t-66.5 106.5t-24 134.5zM483 1133q44 0 80.5 16t63 44t41.5 67t15 84q0 46 -15 85t-42 67t-63.5 43.5
t-79.5 15.5t-80 -15.5t-64 -43.5t-42.5 -67t-15.5 -85q0 -45 15 -84t42 -67t64 -44t81 -16z" />
    <glyph glyph-name="ordmasculine" unicode="&#xba;" horiz-adv-x="937" 
d="M110 1343q0 75 27.5 137t76 106.5t114 69t141.5 24.5t141.5 -24.5t113.5 -69t75.5 -106.5t27.5 -137q0 -74 -27.5 -136t-75.5 -106.5t-113.5 -69.5t-141.5 -25t-141.5 25t-114 69.5t-76 106.5t-27.5 136zM264 1343q0 -47 15.5 -86t42.5 -67t64.5 -43.5t81.5 -15.5
t81.5 15.5t65 44t43 67.5t15.5 85t-15.5 85t-42.5 67t-64.5 44t-81.5 16q-45 0 -82.5 -16t-64.5 -44t-42.5 -67t-15.5 -85z" />
    <glyph glyph-name="uni0394" unicode="&#x394;" horiz-adv-x="1291" 
d="M611 1650h69l646 -1650h-1361zM1076 161l-430 1195l-431 -1195h861z" />
    <glyph glyph-name="uni03A9" unicode="&#x3a9;" horiz-adv-x="1738" 
d="M869 1680q112 0 213.5 -27.5t188.5 -77.5t157.5 -121t120 -159t76.5 -189.5t27 -213.5q0 -139 -41.5 -259t-112.5 -215.5t-165 -164.5t-199 -105l439 20v-168h-659v113l23 12q97 49 185 127t154.5 175t105.5 208.5t39 226.5q0 113 -36.5 222.5t-107 196t-173.5 139.5
t-235 53t-234.5 -53t-173 -139.5t-107.5 -196t-37 -222.5q0 -115 39 -226.5t105.5 -208.5t154.5 -175t185 -127l23 -12v-113h-660v168l439 -20q-105 36 -198.5 105t-164.5 164.5t-112.5 215.5t-41.5 259q0 112 27 213.5t76.5 189.5t120 159t157.5 121t188.5 77.5t213.5 27.5
z" />
    <glyph glyph-name="uni03BC" unicode="&#x3bc;" horiz-adv-x="1359" 
d="M141 -320q0 104 7.5 189.5t17 170.5t17 178t7.5 211v595h237v-597q0 -62 15 -112t45.5 -85.5t76 -54.5t106.5 -19q58 0 105.5 21t81 54.5t51.5 76.5t18 88v628h237v-1024h-237v125q-23 -38 -58.5 -67t-77.5 -49t-87 -30.5t-87 -10.5q-70 0 -116.5 22t-72.5 61v-371h-286z
" />
    <glyph glyph-name="pi" unicode="&#x3c0;" horiz-adv-x="1255" 
d="M1114 1024v-173h-167v-568q0 -55 22 -76t81 -21v-186q-79 0 -134 13.5t-89.5 42.5t-50 76t-15.5 114v605h-250v-851h-186v851h-167v173h956z" />
    <glyph glyph-name="zero" unicode="0" horiz-adv-x="1567" 
d="M108 824q0 191 49 349t137.5 270.5t213.5 174.5t276 62q152 0 276.5 -62t213 -174.5t137.5 -270.5t49 -349t-49 -349t-137.5 -270.5t-213 -174.5t-276.5 -62q-151 0 -276 62t-213.5 174.5t-137.5 270.5t-49 349zM372 824q0 -145 29 -262.5t83 -200t130 -127t170 -44.5
t170 44.5t130 127t83 200t29 262.5q0 146 -29 263t-83 199.5t-130 127t-170 44.5t-170 -44.5t-130 -127t-83 -199.5t-29 -263z" />
    <glyph glyph-name="one" unicode="1" horiz-adv-x="758" 
d="M345 0v1404h-182v246h432v-1650h-250z" />
    <glyph glyph-name="two" unicode="2" horiz-adv-x="1493" 
d="M136 125q175 136 311.5 247.5t238.5 204.5t173 170t115 142.5t63.5 123.5t19.5 112q0 68 -25 128t-69 104.5t-103.5 70.5t-128.5 26q-64 0 -121.5 -23.5t-103 -65.5t-77.5 -101t-45 -131l-214 56q22 111 73 202t126 155.5t170.5 99.5t206.5 35q125 0 231 -41.5t184 -115
t122 -174t44 -219.5q0 -100 -36 -196t-120 -202t-222.5 -229t-342.5 -278h751v-226h-1221v125z" />
    <glyph glyph-name="three" unicode="3" horiz-adv-x="1276" 
d="M66 389l221 41q10 -54 37.5 -98.5t69.5 -76t97 -49t120 -17.5q69 0 125 20t95 56t60.5 87t21.5 113q0 66 -23.5 122.5t-64 98.5t-94.5 66t-116 24q-39 0 -69 -11v173h67q58 0 109 22.5t88.5 60.5t59 88.5t21.5 105.5t-21 102.5t-58 82.5t-86 55t-106 20
q-53 0 -100.5 -17.5t-85.5 -49t-64 -74.5t-36 -94l-191 53q17 88 60 159.5t106 122t143.5 78t172.5 27.5q107 0 197.5 -35t157.5 -97t104.5 -146t37.5 -182q0 -57 -14.5 -110t-41.5 -98t-65 -81.5t-86 -62.5q56 -25 102 -63.5t79 -89.5t51.5 -114t18.5 -135
q0 -107 -39.5 -198.5t-112.5 -158t-175.5 -104t-227.5 -37.5q-110 0 -204 30t-165 85t-116.5 132.5t-59.5 173.5z" />
    <glyph glyph-name="four" unicode="4" horiz-adv-x="1262" 
d="M-26 309v87l812 1254h249v-1122h192v-219h-192v-309h-236v309h-825zM310 528h489v783z" />
    <glyph glyph-name="five" unicode="5" horiz-adv-x="1331" 
d="M66 327l198 97q19 -56 55 -101.5t85.5 -78t110.5 -50t129 -17.5q81 0 146.5 24.5t112 69.5t71.5 108t25 140q0 90 -34 161.5t-95 121.5t-146 76.5t-187 26.5q-106 0 -200.5 -35.5t-174.5 -104.5l137 885h842v-219h-629l-63 -404q106 61 239 61q123 0 225.5 -39.5
t177 -112.5t115.5 -175t41 -228q0 -135 -47 -240.5t-128.5 -177.5t-190.5 -109.5t-234 -37.5q-99 0 -190.5 24t-167.5 70t-133.5 113t-89.5 152z" />
    <glyph glyph-name="six" unicode="6" horiz-adv-x="1389" 
d="M88 541q0 67 14.5 136t43 137.5t69.5 135.5t93 130l474 570h303l-495 -589q40 20 85 31t96 11q111 0 208 -42t168.5 -117t112.5 -179t41 -229q0 -126 -43.5 -230.5t-122.5 -179.5t-188 -116.5t-241 -41.5q-140 0 -254 46t-195 124t-125 182t-44 221zM695 177
q77 0 142.5 26.5t113 73.5t74.5 111.5t27 140.5q0 78 -27 143.5t-74.5 113.5t-111 75t-136.5 27q-75 0 -140 -28t-113 -77t-76 -115t-28 -143q0 -72 25 -135t71 -110.5t110 -75t143 -27.5z" />
    <glyph glyph-name="seven" unicode="7" horiz-adv-x="1247" 
d="M110 0l799 1431h-768v219h1137v-77l-872 -1573h-296z" />
    <glyph glyph-name="eight" unicode="8" horiz-adv-x="1323" 
d="M97 449q0 73 21.5 140t61 123t95 100t122.5 71q-55 27 -98.5 66.5t-74 87.5t-46.5 103.5t-16 113.5q0 91 39 169t106.5 135t158.5 89.5t195 32.5q94 0 184 -29.5t160 -84.5t112.5 -134t42.5 -177q0 -60 -16.5 -115.5t-47.5 -103.5t-74 -87t-97 -66q68 -27 123.5 -71
t95 -100.5t61 -123.5t21.5 -140q0 -103 -43.5 -191t-119.5 -152.5t-179 -100.5t-223 -36t-223 36t-178.5 100t-119 152.5t-43.5 192.5zM368 474q0 -61 21.5 -114t60 -92t92.5 -61t119 -22t119 22t92.5 61t60 92t21.5 114q0 63 -22 116t-61 92t-93 60.5t-117 21.5
q-62 0 -115.5 -21.5t-93 -60t-62 -91.5t-22.5 -117zM404 1231q0 -55 19.5 -101.5t53.5 -80.5t81.5 -53.5t102.5 -19.5q56 0 103 19.5t81 53.5t53.5 80.5t19.5 101.5t-19.5 102t-54 81.5t-81.5 54t-102 19.5t-102 -19.5t-81.5 -54t-54 -81.5t-19.5 -102z" />
    <glyph glyph-name="nine" unicode="9" horiz-adv-x="1388" 
d="M682 1680q138 0 252 -44.5t195.5 -122.5t126 -184t44.5 -229q0 -131 -55 -265t-164 -265l-474 -570h-304l504 596q-37 -24 -83 -37t-96 -13q-107 0 -205 42t-172.5 118t-118.5 180.5t-44 229.5q0 119 41.5 222t119 179t187.5 119.5t246 43.5zM693 764q72 0 135.5 28
t110.5 76t74 113t27 139q0 76 -26 139.5t-72 110t-109.5 72.5t-139.5 26t-140.5 -26t-112 -72.5t-74 -110.5t-26.5 -139q0 -76 27 -141t74 -113t112 -75t140 -27z" />
    <glyph glyph-name="zero.dnom" horiz-adv-x="1019" 
d="M70 536q0 124 32 226.5t89.5 175.5t138.5 113.5t179 40.5q99 0 180 -40.5t138.5 -113.5t89.5 -175.5t32 -226.5t-32 -227t-89.5 -176t-138.5 -113.5t-180 -40.5q-98 0 -179 40.5t-138.5 113.5t-89.5 176t-32 227zM242 536q0 -95 19 -171.5t53.5 -130t84 -82.5t110.5 -29
t110.5 29t84.5 82.5t54 130t19 171.5t-19 171t-54 129.5t-84.5 82.5t-110.5 29t-110.5 -29t-84 -82.5t-53.5 -129.5t-19 -171z" />
    <glyph glyph-name="one.dnom" horiz-adv-x="493" 
d="M224 0v913h-118v159h281v-1072h-163z" />
    <glyph glyph-name="two.dnom" horiz-adv-x="970" 
d="M88 81q171 132 285.5 230.5t184.5 174t99.5 134t29.5 111.5q0 45 -16.5 84t-45 68t-67 45.5t-83.5 16.5q-42 0 -79 -15t-67 -42.5t-50.5 -66t-29.5 -85.5l-139 37q14 72 47.5 131t82 101t110.5 65t134 23q81 0 150 -27t120 -75t79.5 -113.5t28.5 -142.5q0 -65 -23.5 -127
t-78 -131t-144.5 -149t-223 -181h489v-147h-794v81z" />
    <glyph glyph-name="three.dnom" horiz-adv-x="829" 
d="M43 253l144 26q13 -71 69 -113.5t141 -42.5q45 0 81.5 13t62 36t39.5 56.5t14 73.5q0 43 -15.5 80t-41.5 64t-61.5 42.5t-75.5 15.5q-28 0 -45 -7v113h44q38 0 70.5 14.5t57 39.5t38.5 57.5t14 68.5t-13.5 66.5t-37.5 53.5t-56 36t-69 13q-34 0 -65 -11.5t-55.5 -32
t-41.5 -48.5t-24 -61l-124 34q11 57 39 103.5t69 79.5t93 51t112 18q69 0 128.5 -23t102.5 -63t67.5 -94.5t24.5 -118.5q0 -75 -36 -135.5t-98 -93.5q36 -16 66 -41.5t51.5 -58.5t33.5 -73.5t12 -87.5q0 -70 -26 -129t-73 -102.5t-114 -68t-148 -24.5q-71 0 -132 19.5
t-107.5 55.5t-76 86.5t-38.5 112.5z" />
    <glyph glyph-name="four.dnom" horiz-adv-x="820" 
d="M-17 201v56l528 815h162v-729h124v-142h-124v-201h-154v201h-536zM201 343h318v509z" />
    <glyph glyph-name="five.dnom" horiz-adv-x="865" 
d="M43 213l129 63q25 -74 91 -117.5t156 -43.5q53 0 95.5 16t72.5 45t46 70t16 91q0 59 -22 105.5t-61.5 78.5t-94.5 49.5t-122 17.5q-69 0 -130.5 -23t-113.5 -68l89 575h548v-142h-409l-41 -262q69 39 155 39q80 0 147 -25.5t115 -73t75 -114t27 -148.5q0 -88 -30.5 -156
t-83.5 -115t-124 -71.5t-152 -24.5q-65 0 -124.5 15.5t-109 45.5t-86.5 73.5t-58 99.5z" />
    <glyph glyph-name="six.dnom" horiz-adv-x="903" 
d="M57 352q0 87 37 177.5t106 172.5l308 370h197l-322 -382q26 13 55.5 20t62.5 7q72 0 135 -27.5t109.5 -76t73 -116.5t26.5 -149q0 -82 -28 -149.5t-79 -116.5t-122 -76t-157 -27q-91 0 -165.5 29.5t-127 80.5t-81 119t-28.5 144zM452 115q50 0 92.5 17t73.5 48t48.5 73
t17.5 91q0 50 -17.5 93t-48.5 74t-72.5 48.5t-88.5 17.5q-49 0 -91 -18t-73.5 -50t-49.5 -75t-18 -93q0 -46 16 -87.5t46 -72t72 -48.5t93 -18z" />
    <glyph glyph-name="seven.dnom" horiz-adv-x="820" 
d="M81 0l520 930h-500v142h739v-50l-566 -1022h-193z" />
    <glyph glyph-name="eight.dnom" horiz-adv-x="860" 
d="M63 292q0 48 14 91t39.5 80t61.5 65t80 46q-36 18 -64 43.5t-48 57t-30.5 67t-10.5 73.5q0 59 25.5 110t69.5 88t103 58t127 21q61 0 119.5 -19t104 -55t73 -87t27.5 -115q0 -39 -11 -75t-31 -67.5t-48 -57t-63 -42.5q44 -18 80.5 -46.5t62 -65.5t39.5 -80t14 -91
q0 -67 -28 -124t-77.5 -99t-116.5 -65.5t-145 -23.5t-145 23.5t-116.5 65t-77.5 99t-28 125.5zM239 308q0 -40 14 -74.5t39 -59.5t60.5 -39.5t77.5 -14.5t77 14.5t60 39.5t39 59.5t14 74.5q0 41 -14.5 75.5t-40 60t-60 39.5t-75.5 14q-40 0 -75 -14t-61 -39t-40.5 -59.5
t-14.5 -76.5zM263 800q0 -36 12.5 -66t34.5 -52.5t53 -35t67 -12.5t66.5 12.5t53 35t35 52.5t12.5 66t-12.5 66.5t-35 53t-53 35t-66.5 12.5t-66.5 -12.5t-53 -35t-35 -53t-12.5 -66.5z" />
    <glyph glyph-name="nine.dnom" horiz-adv-x="902" 
d="M443 1092q90 0 164 -29t127 -79.5t82 -119.5t29 -149q0 -85 -36 -172t-107 -173l-308 -370h-197l327 387q-24 -15 -54 -23.5t-62 -8.5q-70 0 -133.5 27.5t-112 76.5t-77 117t-28.5 149q0 77 27 144t77 116.5t121.5 78t160.5 28.5zM450 497q47 0 88.5 18t72 49.5t48 73.5
t17.5 90q0 49 -16.5 90.5t-46.5 71.5t-71.5 47t-91.5 17q-49 0 -91 -17t-73 -47t-48 -71.5t-17 -90.5t17.5 -91.5t48.5 -73.5t72.5 -48.5t90.5 -17.5z" />
    <glyph glyph-name="zero.numr" horiz-adv-x="1019" 
d="M70 1114q0 124 32 226.5t89.5 175.5t138.5 113.5t179 40.5q99 0 180 -40.5t138.5 -113.5t89.5 -175.5t32 -226.5t-32 -227t-89.5 -176t-138.5 -113.5t-180 -40.5q-98 0 -179 40.5t-138.5 113.5t-89.5 176t-32 227zM242 1114q0 -95 19 -171.5t53.5 -130t84 -82.5
t110.5 -29t110.5 29t84.5 82.5t54 130t19 171.5t-19 171t-54 129.5t-84.5 82.5t-110.5 29t-110.5 -29t-84 -82.5t-53.5 -129.5t-19 -171z" />
    <glyph glyph-name="one.numr" horiz-adv-x="493" 
d="M224 577v913h-118v159h281v-1072h-163z" />
    <glyph glyph-name="two.numr" horiz-adv-x="970" 
d="M88 658q171 132 285.5 230.5t184.5 174t99.5 134t29.5 111.5q0 45 -16.5 84t-45 68t-67 45.5t-83.5 16.5q-42 0 -79 -15t-67 -42.5t-50.5 -66t-29.5 -85.5l-139 37q14 72 47.5 131t82 101t110.5 65t134 23q81 0 150 -27t120 -75t79.5 -113.5t28.5 -142.5
q0 -65 -23.5 -127t-78 -131t-144.5 -149t-223 -181h489v-147h-794v81z" />
    <glyph glyph-name="three.numr" horiz-adv-x="829" 
d="M43 830l144 26q13 -71 69 -113.5t141 -42.5q45 0 81.5 13t62 36t39.5 56.5t14 73.5q0 43 -15.5 80t-41.5 64t-61.5 42.5t-75.5 15.5q-28 0 -45 -7v113h44q38 0 70.5 14.5t57 39.5t38.5 57.5t14 68.5t-13.5 66.5t-37.5 53.5t-56 36t-69 13q-34 0 -65 -11.5t-55.5 -32
t-41.5 -48.5t-24 -61l-124 34q11 57 39 103.5t69 79.5t93 51t112 18q69 0 128.5 -23t102.5 -63t67.5 -94.5t24.5 -118.5q0 -75 -36 -135.5t-98 -93.5q36 -16 66 -41.5t51.5 -58.5t33.5 -73.5t12 -87.5q0 -70 -26 -129t-73 -102.5t-114 -68t-148 -24.5q-71 0 -132 19.5
t-107.5 55.5t-76 86.5t-38.5 112.5z" />
    <glyph glyph-name="four.numr" horiz-adv-x="820" 
d="M-17 778v56l528 815h162v-729h124v-142h-124v-201h-154v201h-536zM201 920h318v509z" />
    <glyph glyph-name="five.numr" horiz-adv-x="865" 
d="M43 790l129 63q25 -74 91 -117.5t156 -43.5q53 0 95.5 16t72.5 45t46 70t16 91q0 59 -22 105.5t-61.5 78.5t-94.5 49.5t-122 17.5q-69 0 -130.5 -23t-113.5 -68l89 575h548v-142h-409l-41 -262q69 39 155 39q80 0 147 -25.5t115 -73t75 -114t27 -148.5q0 -88 -30.5 -156
t-83.5 -115t-124 -71.5t-152 -24.5q-65 0 -124.5 15.5t-109 45.5t-86.5 73.5t-58 99.5z" />
    <glyph glyph-name="six.numr" horiz-adv-x="903" 
d="M57 929q0 87 37 177.5t106 172.5l308 370h197l-322 -382q26 13 55.5 20t62.5 7q72 0 135 -27.5t109.5 -76t73 -116.5t26.5 -149q0 -82 -28 -149.5t-79 -116.5t-122 -76t-157 -27q-91 0 -165.5 29.5t-127 80.5t-81 119t-28.5 144zM452 692q50 0 92.5 17t73.5 48t48.5 73
t17.5 91q0 50 -17.5 93t-48.5 74t-72.5 48.5t-88.5 17.5q-49 0 -91 -18t-73.5 -50t-49.5 -75t-18 -93q0 -46 16 -87.5t46 -72t72 -48.5t93 -18z" />
    <glyph glyph-name="seven.numr" horiz-adv-x="820" 
d="M81 577l520 930h-500v142h739v-50l-566 -1022h-193z" />
    <glyph glyph-name="eight.numr" horiz-adv-x="860" 
d="M63 869q0 48 14 91t39.5 80t61.5 65t80 46q-36 18 -64 43.5t-48 57t-30.5 67t-10.5 73.5q0 59 25.5 110t69.5 88t103 58t127 21q61 0 119.5 -19t104 -55t73 -87t27.5 -115q0 -39 -11 -75t-31 -67.5t-48 -57t-63 -42.5q44 -18 80.5 -46.5t62 -65.5t39.5 -80t14 -91
q0 -67 -28 -124t-77.5 -99t-116.5 -65.5t-145 -23.5t-145 23.5t-116.5 65t-77.5 99t-28 125.5zM239 885q0 -40 14 -74.5t39 -59.5t60.5 -39.5t77.5 -14.5t77 14.5t60 39.5t39 59.5t14 74.5q0 41 -14.5 75.5t-40 60t-60 39.5t-75.5 14q-40 0 -75 -14t-61 -39t-40.5 -59.5
t-14.5 -76.5zM263 1377q0 -36 12.5 -66t34.5 -52.5t53 -35t67 -12.5t66.5 12.5t53 35t35 52.5t12.5 66t-12.5 66.5t-35 53t-53 35t-66.5 12.5t-66.5 -12.5t-53 -35t-35 -53t-12.5 -66.5z" />
    <glyph glyph-name="nine.numr" horiz-adv-x="1426" 
d="M443 1669q90 0 164 -29t127 -79.5t82 -119.5t29 -149q0 -85 -36 -172t-106 -173l-308 -370h-198l328 387q-24 -15 -54.5 -23.5t-62.5 -8.5q-70 0 -133.5 27.5t-112 76.5t-77 117t-28.5 149q0 77 27 144t77.5 116.5t122 78t159.5 28.5zM450 1074q47 0 88.5 18t72 49.5
t48 73.5t17.5 90q0 49 -16.5 90.5t-46.5 71.5t-71.5 47t-91.5 17q-49 0 -91 -17t-73 -47t-48 -71.5t-17 -90.5t17.5 -91.5t48.5 -73.5t72.5 -48.5t90.5 -17.5z" />
    <glyph glyph-name="onesuperior" unicode="&#xb9;" horiz-adv-x="282" 
d="M125 1026v511h-88v113h201v-624h-113z" />
    <glyph glyph-name="twosuperior" unicode="&#xb2;" horiz-adv-x="549" 
d="M64 1090q92 66 157.5 120.5t107.5 101t62 86.5t20 75q0 48 -30.5 78t-76.5 30q-50 0 -85.5 -36.5t-52.5 -101.5l-99 46q23 90 85.5 141t151.5 51q50 0 93 -16t74 -44.5t48.5 -68t17.5 -87.5q0 -39 -14 -76.5t-45 -77.5t-81.5 -85t-124.5 -98h277v-102h-485v64z" />
    <glyph glyph-name="threesuperior" unicode="&#xb3;" horiz-adv-x="522" 
d="M35 1183l107 50q2 -48 34 -77.5t86 -29.5q50 0 77.5 26t27.5 67q0 24 -9.5 44.5t-25 35.5t-37 23.5t-45.5 8.5q-16 0 -26 -5v78h28q21 0 39.5 7.5t33 21t23 31t8.5 36.5q0 37 -27 62t-66 25q-40 0 -70 -26t-35 -67l-92 41q17 66 69 105.5t137 39.5q44 0 80.5 -11t63 -32
t41 -50.5t14.5 -66.5q0 -44 -21 -82.5t-59 -64.5q48 -21 74 -64t26 -97q0 -44 -16.5 -78.5t-46 -58.5t-70.5 -36.5t-90 -12.5q-95 0 -154 43t-79 114z" />
    <glyph glyph-name="uni2074" unicode="&#x2074;" horiz-adv-x="576" 
d="M25 1150v39l334 461h113v-399h79v-101h-79v-110h-109v110h-338zM183 1251h180v257z" />
    <glyph glyph-name="fraction" unicode="&#x2044;" horiz-adv-x="1148" 
d="M-35 0l1059 1650h159l-1059 -1650h-159z" />
    <glyph glyph-name="uni215F" unicode="&#x215f;" horiz-adv-x="1459" 
d="M224 577v913h-118v159h281v-1072h-163zM135 0l1059 1650h159l-1059 -1650h-159z" />
    <glyph glyph-name="onehalf" unicode="&#xbd;" horiz-adv-x="1788" 
d="M906 81q171 132 285.5 230.5t184.5 174t99.5 134t29.5 111.5q0 45 -16.5 84t-45 68t-67 45.5t-83.5 16.5q-42 0 -79 -15t-67 -42.5t-50.5 -66t-29.5 -85.5l-139 37q14 72 47.5 131t82 101t110.5 65t134 23q81 0 150 -27t120 -75t79.5 -113.5t28.5 -142.5
q0 -65 -23.5 -127t-78 -131t-144.5 -149t-223 -181h489v-147h-794v81zM234 577v913h-118v159h281v-1072h-163zM106 0l1059 1650h159l-1059 -1650h-159z" />
    <glyph glyph-name="uni2189" unicode="&#x2189;" horiz-adv-x="2145" 
d="M1359 253l144 26q13 -71 69 -113.5t141 -42.5q45 0 81.5 13t62 36t39.5 56.5t14 73.5q0 43 -15.5 80t-41.5 64t-61.5 42.5t-75.5 15.5q-28 0 -45 -7v113h44q38 0 70.5 14.5t57 39.5t38.5 57.5t14 68.5t-13.5 66.5t-37.5 53.5t-56 36t-69 13q-34 0 -65 -11.5t-55.5 -32
t-41.5 -48.5t-24 -61l-124 34q11 57 39 103.5t69 79.5t93 51t112 18q69 0 128.5 -23t102.5 -63t67.5 -94.5t24.5 -118.5q0 -75 -36 -135.5t-98 -93.5q36 -16 66 -41.5t51.5 -58.5t33.5 -73.5t12 -87.5q0 -70 -26 -129t-73 -102.5t-114 -68t-148 -24.5q-71 0 -132 19.5
t-107.5 55.5t-76 86.5t-38.5 112.5zM70 1114q0 124 32 226.5t89.5 175.5t138.5 113.5t179 40.5q99 0 180 -40.5t138.5 -113.5t89.5 -175.5t32 -226.5t-32 -227t-89.5 -176t-138.5 -113.5t-180 -40.5q-98 0 -179 40.5t-138.5 113.5t-89.5 176t-32 227zM242 1114
q0 -95 19 -171.5t53.5 -130t84 -82.5t110.5 -29t110.5 29t84.5 82.5t54 130t19 171.5t-19 171t-54 129.5t-84.5 82.5t-110.5 29t-110.5 -29t-84 -82.5t-53.5 -129.5t-19 -171zM493 0l1059 1650h159l-1059 -1650h-159z" />
    <glyph glyph-name="onethird" unicode="&#x2153;" horiz-adv-x="1699" 
d="M913 253l144 26q13 -71 69 -113.5t141 -42.5q45 0 81.5 13t62 36t39.5 56.5t14 73.5q0 43 -15.5 80t-41.5 64t-61.5 42.5t-75.5 15.5q-28 0 -45 -7v113h44q38 0 70.5 14.5t57 39.5t38.5 57.5t14 68.5t-13.5 66.5t-37.5 53.5t-56 36t-69 13q-34 0 -65 -11.5t-55.5 -32
t-41.5 -48.5t-24 -61l-124 34q11 57 39 103.5t69 79.5t93 51t112 18q69 0 128.5 -23t102.5 -63t67.5 -94.5t24.5 -118.5q0 -75 -36 -135.5t-98 -93.5q36 -16 66 -41.5t51.5 -58.5t33.5 -73.5t12 -87.5q0 -70 -26 -129t-73 -102.5t-114 -68t-148 -24.5q-71 0 -132 19.5
t-107.5 55.5t-76 86.5t-38.5 112.5zM234 577v913h-118v159h281v-1072h-163zM106 0l1059 1650h159l-1059 -1650h-159z" />
    <glyph glyph-name="twothirds" unicode="&#x2154;" horiz-adv-x="2192" 
d="M1405 253l144 26q13 -71 69 -113.5t141 -42.5q45 0 81.5 13t62 36t39.5 56.5t14 73.5q0 43 -15.5 80t-41.5 64t-61.5 42.5t-75.5 15.5q-28 0 -45 -7v113h44q38 0 70.5 14.5t57 39.5t38.5 57.5t14 68.5t-13.5 66.5t-37.5 53.5t-56 36t-69 13q-34 0 -65 -11.5t-55.5 -32
t-41.5 -48.5t-24 -61l-124 34q11 57 39 103.5t69 79.5t93 51t112 18q69 0 128.5 -23t102.5 -63t67.5 -94.5t24.5 -118.5q0 -75 -36 -135.5t-98 -93.5q36 -16 66 -41.5t51.5 -58.5t33.5 -73.5t12 -87.5q0 -70 -26 -129t-73 -102.5t-114 -68t-148 -24.5q-71 0 -132 19.5
t-107.5 55.5t-76 86.5t-38.5 112.5zM88 658q171 132 285.5 230.5t184.5 174t99.5 134t29.5 111.5q0 45 -16.5 84t-45 68t-67 45.5t-83.5 16.5q-42 0 -79 -15t-67 -42.5t-50.5 -66t-29.5 -85.5l-139 37q14 72 47.5 131t82 101t110.5 65t134 23q81 0 150 -27t120 -75
t79.5 -113.5t28.5 -142.5q0 -65 -23.5 -127t-78 -131t-144.5 -149t-223 -181h489v-147h-794v81zM587 0l1059 1650h159l-1059 -1650h-159z" />
    <glyph glyph-name="onequarter" unicode="&#xbc;" horiz-adv-x="1475" 
d="M638 201v56l528 815h162v-729h124v-142h-124v-201h-154v201h-536zM856 343h318v509zM234 577v913h-118v159h281v-1072h-163zM106 0l1059 1650h159l-1059 -1650h-159z" />
    <glyph glyph-name="threequarters" unicode="&#xbe;" horiz-adv-x="1759" 
d="M922 201v56l528 815h162v-729h124v-142h-124v-201h-154v201h-536zM1140 343h318v509zM43 830l144 26q13 -71 69 -113.5t141 -42.5q45 0 81.5 13t62 36t39.5 56.5t14 73.5q0 43 -15.5 80t-41.5 64t-61.5 42.5t-75.5 15.5q-28 0 -45 -7v113h44q38 0 70.5 14.5t57 39.5
t38.5 57.5t14 68.5t-13.5 66.5t-37.5 53.5t-56 36t-69 13q-34 0 -65 -11.5t-55.5 -32t-41.5 -48.5t-24 -61l-124 34q11 57 39 103.5t69 79.5t93 51t112 18q69 0 128.5 -23t102.5 -63t67.5 -94.5t24.5 -118.5q0 -75 -36 -135.5t-98 -93.5q36 -16 66 -41.5t51.5 -58.5
t33.5 -73.5t12 -87.5q0 -70 -26 -129t-73 -102.5t-114 -68t-148 -24.5q-71 0 -132 19.5t-107.5 55.5t-76 86.5t-38.5 112.5zM372 0l1059 1650h159l-1059 -1650h-159z" />
    <glyph glyph-name="uni2155" unicode="&#x2155;" horiz-adv-x="1743" 
d="M921 213l129 63q25 -74 91 -117.5t156 -43.5q53 0 95.5 16t72.5 45t46 70t16 91q0 59 -22 105.5t-61.5 78.5t-94.5 49.5t-122 17.5q-69 0 -130.5 -23t-113.5 -68l89 575h548v-142h-409l-41 -262q69 39 155 39q80 0 147 -25.5t115 -73t75 -114t27 -148.5q0 -88 -30.5 -156
t-83.5 -115t-124 -71.5t-152 -24.5q-65 0 -124.5 15.5t-109 45.5t-86.5 73.5t-58 99.5zM234 577v913h-118v159h281v-1072h-163zM106 0l1059 1650h159l-1059 -1650h-159z" />
    <glyph glyph-name="uni2156" unicode="&#x2156;" horiz-adv-x="2177" 
d="M1354 213l129 63q25 -74 91 -117.5t156 -43.5q53 0 95.5 16t72.5 45t46 70t16 91q0 59 -22 105.5t-61.5 78.5t-94.5 49.5t-122 17.5q-69 0 -130.5 -23t-113.5 -68l89 575h548v-142h-409l-41 -262q69 39 155 39q80 0 147 -25.5t115 -73t75 -114t27 -148.5
q0 -88 -30.5 -156t-83.5 -115t-124 -71.5t-152 -24.5q-65 0 -124.5 15.5t-109 45.5t-86.5 73.5t-58 99.5zM88 658q171 132 285.5 230.5t184.5 174t99.5 134t29.5 111.5q0 45 -16.5 84t-45 68t-67 45.5t-83.5 16.5q-42 0 -79 -15t-67 -42.5t-50.5 -66t-29.5 -85.5l-139 37
q14 72 47.5 131t82 101t110.5 65t134 23q81 0 150 -27t120 -75t79.5 -113.5t28.5 -142.5q0 -65 -23.5 -127t-78 -131t-144.5 -149t-223 -181h489v-147h-794v81zM587 0l1059 1650h159l-1059 -1650h-159z" />
    <glyph glyph-name="uni2157" unicode="&#x2157;" horiz-adv-x="2009" 
d="M1187 213l129 63q25 -74 91 -117.5t156 -43.5q53 0 95.5 16t72.5 45t46 70t16 91q0 59 -22 105.5t-61.5 78.5t-94.5 49.5t-122 17.5q-69 0 -130.5 -23t-113.5 -68l89 575h548v-142h-409l-41 -262q69 39 155 39q80 0 147 -25.5t115 -73t75 -114t27 -148.5
q0 -88 -30.5 -156t-83.5 -115t-124 -71.5t-152 -24.5q-65 0 -124.5 15.5t-109 45.5t-86.5 73.5t-58 99.5zM43 830l144 26q13 -71 69 -113.5t141 -42.5q45 0 81.5 13t62 36t39.5 56.5t14 73.5q0 43 -15.5 80t-41.5 64t-61.5 42.5t-75.5 15.5q-28 0 -45 -7v113h44
q38 0 70.5 14.5t57 39.5t38.5 57.5t14 68.5t-13.5 66.5t-37.5 53.5t-56 36t-69 13q-34 0 -65 -11.5t-55.5 -32t-41.5 -48.5t-24 -61l-124 34q11 57 39 103.5t69 79.5t93 51t112 18q69 0 128.5 -23t102.5 -63t67.5 -94.5t24.5 -118.5q0 -75 -36 -135.5t-98 -93.5
q36 -16 66 -41.5t51.5 -58.5t33.5 -73.5t12 -87.5q0 -70 -26 -129t-73 -102.5t-114 -68t-148 -24.5q-71 0 -132 19.5t-107.5 55.5t-76 86.5t-38.5 112.5zM394 0l1059 1650h159l-1059 -1650h-159z" />
    <glyph glyph-name="uni2158" unicode="&#x2158;" horiz-adv-x="2091" 
d="M1269 213l129 63q25 -74 91 -117.5t156 -43.5q53 0 95.5 16t72.5 45t46 70t16 91q0 59 -22 105.5t-61.5 78.5t-94.5 49.5t-122 17.5q-69 0 -130.5 -23t-113.5 -68l89 575h548v-142h-409l-41 -262q69 39 155 39q80 0 147 -25.5t115 -73t75 -114t27 -148.5
q0 -88 -30.5 -156t-83.5 -115t-124 -71.5t-152 -24.5q-65 0 -124.5 15.5t-109 45.5t-86.5 73.5t-58 99.5zM-17 778v56l528 815h162v-729h124v-142h-124v-201h-154v201h-536zM201 920h318v509zM445 0l1059 1650h159l-1059 -1650h-159z" />
    <glyph glyph-name="uni2159" unicode="&#x2159;" horiz-adv-x="1620" 
d="M774 352q0 87 37 177.5t106 172.5l308 370h197l-322 -382q26 13 55.5 20t62.5 7q72 0 135 -27.5t109.5 -76t73 -116.5t26.5 -149q0 -82 -28 -149.5t-79 -116.5t-122 -76t-157 -27q-91 0 -165.5 29.5t-127 80.5t-81 119t-28.5 144zM1169 115q50 0 92.5 17t73.5 48t48.5 73
t17.5 91q0 50 -17.5 93t-48.5 74t-72.5 48.5t-88.5 17.5q-49 0 -91 -18t-73.5 -50t-49.5 -75t-18 -93q0 -46 16 -87.5t46 -72t72 -48.5t93 -18zM234 577v913h-118v159h281v-1072h-163zM106 0l1059 1650h159l-1059 -1650h-159z" />
    <glyph glyph-name="uni215A" unicode="&#x215a;" horiz-adv-x="1941" 
d="M1095 352q0 87 37 177.5t106 172.5l308 370h197l-322 -382q26 13 55.5 20t62.5 7q72 0 135 -27.5t109.5 -76t73 -116.5t26.5 -149q0 -82 -28 -149.5t-79 -116.5t-122 -76t-157 -27q-91 0 -165.5 29.5t-127 80.5t-81 119t-28.5 144zM1490 115q50 0 92.5 17t73.5 48
t48.5 73t17.5 91q0 50 -17.5 93t-48.5 74t-72.5 48.5t-88.5 17.5q-49 0 -91 -18t-73.5 -50t-49.5 -75t-18 -93q0 -46 16 -87.5t46 -72t72 -48.5t93 -18zM43 793l129 63q25 -74 91 -117.5t156 -43.5q53 0 95.5 16t72.5 45t46 70t16 91q0 59 -22 105.5t-61.5 78.5t-94.5 49.5
t-122 17.5q-69 0 -130.5 -23t-113.5 -68l89 575h548v-142h-409l-41 -262q69 39 155 39q80 0 147 -25.5t115 -73t75 -114t27 -148.5q0 -88 -30.5 -156t-83.5 -115t-124 -71.5t-152 -24.5q-65 0 -124.5 15.5t-109 45.5t-86.5 73.5t-58 99.5zM393 0l1059 1650h159l-1059 -1650
h-159z" />
    <glyph glyph-name="uni2150" unicode="&#x2150;" horiz-adv-x="1857" 
d="M992 0l520 930h-500v142h739v-50l-566 -1022h-193zM234 577v913h-118v159h281v-1072h-163zM106 0l1059 1650h159l-1059 -1650h-159z" />
    <glyph glyph-name="oneeighth" unicode="&#x215b;" horiz-adv-x="1735" 
d="M938 292q0 48 14 91t39.5 80t61.5 65t80 46q-36 18 -64 43.5t-48 57t-30.5 67t-10.5 73.5q0 59 25.5 110t69.5 88t103 58t127 21q61 0 119.5 -19t104 -55t73 -87t27.5 -115q0 -39 -11 -75t-31 -67.5t-48 -57t-63 -42.5q44 -18 80.5 -46.5t62 -65.5t39.5 -80t14 -91
q0 -67 -28 -124t-77.5 -99t-116.5 -65.5t-145 -23.5t-145 23.5t-116.5 65t-77.5 99t-28 125.5zM1114 308q0 -40 14 -74.5t39 -59.5t60.5 -39.5t77.5 -14.5t77 14.5t60 39.5t39 59.5t14 74.5q0 41 -14.5 75.5t-40 60t-60 39.5t-75.5 14q-40 0 -75 -14t-61 -39t-40.5 -59.5
t-14.5 -76.5zM1138 800q0 -36 12.5 -66t34.5 -52.5t53 -35t67 -12.5t66.5 12.5t53 35t35 52.5t12.5 66t-12.5 66.5t-35 53t-53 35t-66.5 12.5t-66.5 -12.5t-53 -35t-35 -53t-12.5 -66.5zM234 577v913h-118v159h281v-1072h-163zM106 0l1059 1650h159l-1059 -1650h-159z" />
    <glyph glyph-name="threeeighths" unicode="&#x215c;" horiz-adv-x="2007" 
d="M1210 292q0 48 14 91t39.5 80t61.5 65t80 46q-36 18 -64 43.5t-48 57t-30.5 67t-10.5 73.5q0 59 25.5 110t69.5 88t103 58t127 21q61 0 119.5 -19t104 -55t73 -87t27.5 -115q0 -39 -11 -75t-31 -67.5t-48 -57t-63 -42.5q44 -18 80.5 -46.5t62 -65.5t39.5 -80t14 -91
q0 -67 -28 -124t-77.5 -99t-116.5 -65.5t-145 -23.5t-145 23.5t-116.5 65t-77.5 99t-28 125.5zM1386 308q0 -40 14 -74.5t39 -59.5t60.5 -39.5t77.5 -14.5t77 14.5t60 39.5t39 59.5t14 74.5q0 41 -14.5 75.5t-40 60t-60 39.5t-75.5 14q-40 0 -75 -14t-61 -39t-40.5 -59.5
t-14.5 -76.5zM1410 800q0 -36 12.5 -66t34.5 -52.5t53 -35t67 -12.5t66.5 12.5t53 35t35 52.5t12.5 66t-12.5 66.5t-35 53t-53 35t-66.5 12.5t-66.5 -12.5t-53 -35t-35 -53t-12.5 -66.5zM43 830l144 26q13 -71 69 -113.5t141 -42.5q45 0 81.5 13t62 36t39.5 56.5t14 73.5
q0 43 -15.5 80t-41.5 64t-61.5 42.5t-75.5 15.5q-28 0 -45 -7v113h44q38 0 70.5 14.5t57 39.5t38.5 57.5t14 68.5t-13.5 66.5t-37.5 53.5t-56 36t-69 13q-34 0 -65 -11.5t-55.5 -32t-41.5 -48.5t-24 -61l-124 34q11 57 39 103.5t69 79.5t93 51t112 18q69 0 128.5 -23
t102.5 -63t67.5 -94.5t24.5 -118.5q0 -75 -36 -135.5t-98 -93.5q36 -16 66 -41.5t51.5 -58.5t33.5 -73.5t12 -87.5q0 -70 -26 -129t-73 -102.5t-114 -68t-148 -24.5q-71 0 -132 19.5t-107.5 55.5t-76 86.5t-38.5 112.5zM394 0l1059 1650h159l-1059 -1650h-159z" />
    <glyph glyph-name="fiveeighths" unicode="&#x215d;" horiz-adv-x="2010" 
d="M1213 292q0 48 14 91t39.5 80t61.5 65t80 46q-36 18 -64 43.5t-48 57t-30.5 67t-10.5 73.5q0 59 25.5 110t69.5 88t103 58t127 21q61 0 119.5 -19t104 -55t73 -87t27.5 -115q0 -39 -11 -75t-31 -67.5t-48 -57t-63 -42.5q44 -18 80.5 -46.5t62 -65.5t39.5 -80t14 -91
q0 -67 -28 -124t-77.5 -99t-116.5 -65.5t-145 -23.5t-145 23.5t-116.5 65t-77.5 99t-28 125.5zM1389 308q0 -40 14 -74.5t39 -59.5t60.5 -39.5t77.5 -14.5t77 14.5t60 39.5t39 59.5t14 74.5q0 41 -14.5 75.5t-40 60t-60 39.5t-75.5 14q-40 0 -75 -14t-61 -39t-40.5 -59.5
t-14.5 -76.5zM1413 800q0 -36 12.5 -66t34.5 -52.5t53 -35t67 -12.5t66.5 12.5t53 35t35 52.5t12.5 66t-12.5 66.5t-35 53t-53 35t-66.5 12.5t-66.5 -12.5t-53 -35t-35 -53t-12.5 -66.5zM43 793l129 63q25 -74 91 -117.5t156 -43.5q53 0 95.5 16t72.5 45t46 70t16 91
q0 59 -22 105.5t-61.5 78.5t-94.5 49.5t-122 17.5q-69 0 -130.5 -23t-113.5 -68l89 575h548v-142h-409l-41 -262q69 39 155 39q80 0 147 -25.5t115 -73t75 -114t27 -148.5q0 -88 -30.5 -156t-83.5 -115t-124 -71.5t-152 -24.5q-65 0 -124.5 15.5t-109 45.5t-86.5 73.5
t-58 99.5zM396 0l1059 1650h159l-1059 -1650h-159z" />
    <glyph glyph-name="seveneighths" unicode="&#x215e;" horiz-adv-x="1770" 
d="M973 292q0 48 14 91t39.5 80t61.5 65t80 46q-36 18 -64 43.5t-48 57t-30.5 67t-10.5 73.5q0 59 25.5 110t69.5 88t103 58t127 21q61 0 119.5 -19t104 -55t73 -87t27.5 -115q0 -39 -11 -75t-31 -67.5t-48 -57t-63 -42.5q44 -18 80.5 -46.5t62 -65.5t39.5 -80t14 -91
q0 -67 -28 -124t-77.5 -99t-116.5 -65.5t-145 -23.5t-145 23.5t-116.5 65t-77.5 99t-28 125.5zM1149 308q0 -40 14 -74.5t39 -59.5t60.5 -39.5t77.5 -14.5t77 14.5t60 39.5t39 59.5t14 74.5q0 41 -14.5 75.5t-40 60t-60 39.5t-75.5 14q-40 0 -75 -14t-61 -39t-40.5 -59.5
t-14.5 -76.5zM1173 800q0 -36 12.5 -66t34.5 -52.5t53 -35t67 -12.5t66.5 12.5t53 35t35 52.5t12.5 66t-12.5 66.5t-35 53t-53 35t-66.5 12.5t-66.5 -12.5t-53 -35t-35 -53t-12.5 -66.5zM71 577l520 930h-500v142h739v-50l-566 -1022h-193zM140 0l1059 1650h159l-1059 -1650
h-159z" />
    <glyph glyph-name="uni2151" unicode="&#x2151;" horiz-adv-x="1812" 
d="M1353 1092q90 0 164 -29t127 -79.5t82 -119.5t29 -149q0 -85 -36 -172t-107 -173l-308 -370h-197l327 387q-24 -15 -54 -23.5t-62 -8.5q-70 0 -133.5 27.5t-112 76.5t-77 117t-28.5 149q0 77 27 144t77 116.5t121.5 78t160.5 28.5zM1360 497q47 0 88.5 18t72 49.5
t48 73.5t17.5 90q0 49 -16.5 90.5t-46.5 71.5t-71.5 47t-91.5 17q-49 0 -91 -17t-73 -47t-48 -71.5t-17 -90.5t17.5 -91.5t48.5 -73.5t72.5 -48.5t90.5 -17.5zM234 577v913h-118v159h281v-1072h-163zM106 0l1059 1650h159l-1059 -1650h-159z" />
    <glyph glyph-name="uni2152" unicode="&#x2152;" horiz-adv-x="2428" 
d="M1479 536q0 124 32 226.5t89.5 175.5t138.5 113.5t179 40.5q99 0 180 -40.5t138.5 -113.5t89.5 -175.5t32 -226.5t-32 -227t-89.5 -176t-138.5 -113.5t-180 -40.5q-98 0 -179 40.5t-138.5 113.5t-89.5 176t-32 227zM1651 536q0 -95 19 -171.5t53.5 -130t84 -82.5
t110.5 -29t110.5 29t84.5 82.5t54 130t19 171.5t-19 171t-54 129.5t-84.5 82.5t-110.5 29t-110.5 -29t-84 -82.5t-53.5 -129.5t-19 -171zM1206 0v913h-118v159h281v-1072h-163zM234 577v913h-118v159h281v-1072h-163zM106 0l1059 1650h159l-1059 -1650h-159z" />
    <glyph glyph-name="period" unicode="." horiz-adv-x="546" 
d="M115 126q0 33 12.5 62t33.5 50t50 33.5t62 12.5t62 -12.5t50 -33.5t33.5 -50t12.5 -62t-12.5 -62t-33.5 -50t-50 -33.5t-62 -12.5t-62 12.5t-50 33.5t-33.5 50t-12.5 62z" />
    <glyph glyph-name="comma" unicode="," horiz-adv-x="551" 
d="M275 284q34 0 63.5 -12t51 -35t34 -56t12.5 -75q0 -49 -17 -102.5t-48 -106.5t-75 -103.5t-98 -94.5l-66 54q17 17 34 43.5t32 57.5t25.5 64t14.5 62q-57 13 -90 53t-33 95q0 33 12 61.5t33.5 49.5t51 33t63.5 12z" />
    <glyph glyph-name="colon" unicode=":" horiz-adv-x="546" 
d="M115 126q0 33 12.5 62t33.5 50t50 33.5t62 12.5t62 -12.5t50 -33.5t33.5 -50t12.5 -62t-12.5 -62t-33.5 -50t-50 -33.5t-62 -12.5t-62 12.5t-50 33.5t-33.5 50t-12.5 62zM115 981q0 33 12.5 62t33.5 50t50 33.5t62 12.5t62 -12.5t50 -33.5t33.5 -50t12.5 -62t-12.5 -62
t-33.5 -50t-50 -33.5t-62 -12.5t-62 12.5t-50 33.5t-33.5 50t-12.5 62z" />
    <glyph glyph-name="semicolon" unicode=";" horiz-adv-x="569" 
d="M115 981q0 33 12.5 62t33.5 50t50 33.5t62 12.5t62 -12.5t50 -33.5t33.5 -50t12.5 -62t-12.5 -62t-33.5 -50t-50 -33.5t-62 -12.5t-62 12.5t-50 33.5t-33.5 50t-12.5 62zM293 284q34 0 63.5 -12t51 -35t34 -56t12.5 -75q0 -49 -17 -102.5t-48 -106.5t-75 -103.5
t-98 -94.5l-66 54q17 17 34 43.5t32 57.5t25.5 64t14.5 62q-57 13 -90 53t-33 95q0 33 12 61.5t33.5 49.5t51 33t63.5 12z" />
    <glyph glyph-name="ellipsis" unicode="&#x2026;" horiz-adv-x="1555" 
d="M115 126q0 33 12.5 62t33.5 50t50 33.5t62 12.5t62 -12.5t50 -33.5t33.5 -50t12.5 -62t-12.5 -62t-33.5 -50t-50 -33.5t-62 -12.5t-62 12.5t-50 33.5t-33.5 50t-12.5 62zM620 126q0 33 12.5 62t33.5 50t50 33.5t62 12.5t62 -12.5t50 -33.5t33.5 -50t12.5 -62t-12.5 -62
t-33.5 -50t-50 -33.5t-62 -12.5t-62 12.5t-50 33.5t-33.5 50t-12.5 62zM1124 126q0 33 12.5 62t33.5 50t50 33.5t62 12.5t62 -12.5t50 -33.5t33.5 -50t12.5 -62t-12.5 -62t-33.5 -50t-50 -33.5t-62 -12.5t-62 12.5t-50 33.5t-33.5 50t-12.5 62z" />
    <glyph glyph-name="exclam" unicode="!" horiz-adv-x="642" 
d="M439 1720l-30 -1261h-176l-30 1261h236zM163 126q0 33 12.5 62t33.5 50t50 33.5t62 12.5t62 -12.5t50 -33.5t33.5 -50t12.5 -62t-12.5 -62t-33.5 -50t-50 -33.5t-62 -12.5t-62 12.5t-50 33.5t-33.5 50t-12.5 62z" />
    <glyph glyph-name="exclamdown" unicode="&#xa1;" horiz-adv-x="642" 
d="M203 -522l30 1261h176l30 -1261h-236zM479 1072q0 -33 -12.5 -62t-33.5 -50t-50 -33.5t-62 -12.5t-62 12.5t-50 33.5t-33.5 50t-12.5 62t12.5 62t33.5 50t50 33.5t62 12.5t62 -12.5t50 -33.5t33.5 -50t12.5 -62z" />
    <glyph glyph-name="question" unicode="?" horiz-adv-x="1165" 
d="M562 1680q116 0 213 -39t167 -106t109 -157t39 -192q0 -95 -33 -179.5t-92 -150t-139.5 -107.5t-175.5 -52v-223h-220v433q44 -11 102 -11q75 0 137 19.5t105.5 56t67.5 90.5t24 123q0 66 -22 118.5t-62.5 89t-97.5 56t-126 19.5q-123 0 -205.5 -61.5t-111.5 -171.5
l-186 54q20 93 67 166t114 123t150.5 76t175.5 26zM540 284q33 0 62 -12.5t50 -33.5t33.5 -50t12.5 -62t-12.5 -62t-33.5 -50t-50 -33.5t-62 -12.5t-62 12.5t-50 33.5t-33.5 50t-12.5 62t12.5 62t33.5 50t50 33.5t62 12.5z" />
    <glyph glyph-name="questiondown" unicode="&#xbf;" horiz-adv-x="1165" 
d="M603 -550q-116 0 -213 39t-167 106t-109 157t-39 192q0 95 33 179.5t92 150t139.5 107.5t175.5 52v223h220v-433q-44 11 -102 11q-75 0 -137 -19.5t-105.5 -56t-67.5 -90.5t-24 -123q0 -66 22.5 -118.5t63 -89t97 -56t125.5 -19.5q123 0 205.5 61.5t111.5 171.5l186 -54
q-20 -93 -67 -166t-114 -123t-150.5 -76t-175.5 -26zM625 846q-33 0 -62 12.5t-50 33.5t-33.5 50t-12.5 62t12.5 62t33.5 50t50 33.5t62 12.5t62 -12.5t50 -33.5t33.5 -50t12.5 -62t-12.5 -62t-33.5 -50t-50 -33.5t-62 -12.5z" />
    <glyph glyph-name="periodcentered" unicode="&#xb7;" horiz-adv-x="546" 
d="M115 539q0 33 12.5 62t33.5 50t50 33.5t62 12.5t62 -12.5t50 -33.5t33.5 -50t12.5 -62t-12.5 -62t-33.5 -50t-50 -33.5t-62 -12.5t-62 12.5t-50 33.5t-33.5 50t-12.5 62z" />
    <glyph glyph-name="bullet" unicode="&#x2022;" horiz-adv-x="750" 
d="M115 714q0 54 20 101.5t55.5 83t83 55.5t101.5 20t101.5 -20t83 -55.5t55.5 -83t20 -101.5t-20 -101.5t-55.5 -83t-83 -55.5t-101.5 -20t-101.5 20t-83 55.5t-55.5 83t-20 101.5z" />
    <glyph glyph-name="asterisk" unicode="*" horiz-adv-x="744" 
d="M250 1171l-89 61l117 171l-197 68l35 106l197 -61v204h118v-204l197 61l35 -106l-197 -68l116 -171l-88 -61l-123 161z" />
    <glyph glyph-name="numbersign" unicode="#" horiz-adv-x="1485" 
d="M346 590l47 358h-259v162h279l54 428h163l-56 -428h375l56 428h162l-56 -428h194v-162h-214l-47 -358h261v-162h-281l-54 -428h-161l54 428h-376l-54 -428h-162l54 428h-191v162h212zM507 590h376l47 358h-375z" />
    <glyph glyph-name="slash" unicode="/" horiz-adv-x="1077" 
d="M26 -240l824 1960h201l-824 -1960h-201z" />
    <glyph glyph-name="backslash" unicode="\" horiz-adv-x="1075" 
d="M850 0l-824 1720h201l824 -1720h-201z" />
    <glyph glyph-name="parenleft" unicode="(" horiz-adv-x="718" 
d="M136 614q0 194 34 367t87 318.5t117 260t124 190.5l150 -71q-49 -72 -100 -178.5t-93 -241.5t-69 -297.5t-27 -347.5q0 -181 26.5 -342t68.5 -296.5t93.5 -242.5t100.5 -182l-150 -71q-60 77 -124 191t-117 259t-87 317.5t-34 366.5z" />
    <glyph glyph-name="parenright" unicode=")" horiz-adv-x="719" 
d="M583 615q0 194 -34 367t-87 318.5t-117 260t-124 190.5l-150 -71q49 -72 100 -178.5t93 -241.5t69 -297.5t27 -347.5q0 -181 -26.5 -342t-68.5 -296.5t-93 -242.5t-101 -182l150 -71q60 77 124 191t117 259t87 317.5t34 366.5z" />
    <glyph glyph-name="braceleft" unicode="{" horiz-adv-x="742" 
d="M136 534v132q54 0 83 26t29 86v580q0 62 13.5 126.5t49.5 117t97.5 85.5t157.5 33h130v-177h-61q-87 0 -133 -54.5t-46 -148.5v-580q0 -65 -24.5 -102.5t-61.5 -57.5q37 -20 61.5 -58.5t24.5 -101.5v-580q0 -94 46 -148.5t133 -54.5h61v-177h-130q-96 0 -157.5 33
t-97.5 85.5t-49.5 117t-13.5 126.5v580q0 60 -29 86t-83 26z" />
    <glyph glyph-name="braceright" unicode="}" horiz-adv-x="743" 
d="M592 666v-132q-54 0 -83 -26t-29 -86v-580q0 -62 -13.5 -126.5t-49.5 -117t-97.5 -85.5t-157.5 -33h-130v177h61q87 0 133 54.5t46 148.5v580q0 65 24.5 102.5t61.5 57.5q-37 20 -61.5 58.5t-24.5 101.5v580q0 94 -46 148.5t-133 54.5h-61v177h130q96 0 157.5 -33
t97.5 -85.5t49.5 -117t13.5 -126.5v-580q0 -60 29 -86t83 -26z" />
    <glyph glyph-name="bracketleft" unicode="[" horiz-adv-x="736" 
d="M681 1720v-164h-311v-1912h311v-164h-518v2240h518z" />
    <glyph glyph-name="bracketright" unicode="]" horiz-adv-x="738" 
d="M129 -520v164h311v1912h-311v164h518v-2240h-518z" />
    <glyph glyph-name="hyphen" unicode="-" horiz-adv-x="900" 
d="M128 477v204h644v-204h-644z" />
    <glyph glyph-name="uni00AD" unicode="&#xad;" horiz-adv-x="900" 
d="M128 477v204h644v-204h-644z" />
    <glyph glyph-name="endash" unicode="&#x2013;" horiz-adv-x="1215" 
d="M128 477v203h959v-203h-959z" />
    <glyph glyph-name="emdash" unicode="&#x2014;" horiz-adv-x="2156" 
d="M128 477v203h1900v-203h-1900z" />
    <glyph glyph-name="underscore" unicode="_" horiz-adv-x="1026" 
d="M0 -201v119h1026v-119h-1026z" />
    <glyph glyph-name="quotesinglbase" unicode="&#x201a;" horiz-adv-x="526" 
d="M263 274q31 0 58 -11t47 -32.5t31.5 -52t11.5 -69.5q0 -45 -15.5 -94.5t-44.5 -98t-69.5 -95.5t-90.5 -88l-60 50q15 16 31 40.5t29.5 53t23.5 59t13 57.5q-52 11 -82.5 48.5t-30.5 88.5q0 30 11.5 56.5t31 46t47 30.5t58.5 11z" />
    <glyph glyph-name="quotedblbase" unicode="&#x201e;" horiz-adv-x="893" 
d="M263 274q31 0 58 -11t47 -32.5t31.5 -52t11.5 -69.5q0 -45 -15.5 -94.5t-44.5 -98t-69.5 -95.5t-90.5 -88l-60 50q15 16 31 40.5t29.5 53t23.5 59t13 57.5q-52 11 -82.5 48.5t-30.5 88.5q0 30 11.5 56.5t31 46t47 30.5t58.5 11zM630 274q31 0 58 -11t47 -32.5t31.5 -52
t11.5 -69.5q0 -45 -15.5 -94.5t-44.5 -98t-69.5 -95.5t-90.5 -88l-60 50q15 16 31 40.5t29.5 53t23.5 59t13 57.5q-52 11 -82.5 48.5t-30.5 88.5q0 30 11.5 56.5t31 46t47 30.5t58.5 11z" />
    <glyph glyph-name="quotedblleft" unicode="&#x201c;" horiz-adv-x="893" 
d="M630 1137q-31 0 -58 11t-47 32.5t-31.5 52t-11.5 69.5q0 45 15.5 94.5t44.5 98t69.5 95.5t90.5 88l60 -50q-15 -16 -31 -40.5t-29.5 -53t-23.5 -59t-13 -57.5q52 -11 82.5 -48.5t30.5 -88.5q0 -30 -11.5 -56.5t-31 -46t-46.5 -30.5t-59 -11zM263 1137q-31 0 -58 11
t-47 32.5t-31.5 52t-11.5 69.5q0 45 15.5 94.5t44.5 98t69.5 95.5t90.5 88l60 -50q-15 -16 -31 -40.5t-29.5 -53t-23.5 -59t-13 -57.5q52 -11 82.5 -48.5t30.5 -88.5q0 -30 -11.5 -56.5t-31 -46t-46.5 -30.5t-59 -11z" />
    <glyph glyph-name="quotedblright" unicode="&#x201d;" horiz-adv-x="893" 
d="M263 1680q31 0 58 -11t47 -32.5t31.5 -52t11.5 -69.5q0 -45 -15.5 -94.5t-44.5 -98t-69.5 -95.5t-90.5 -88l-60 50q15 16 31 40.5t29.5 53t23.5 59t13 57.5q-52 11 -82.5 48.5t-30.5 88.5q0 30 11.5 56.5t31 46t47 30.5t58.5 11zM630 1680q31 0 58 -11t47 -32.5t31.5 -52
t11.5 -69.5q0 -45 -15.5 -94.5t-44.5 -98t-69.5 -95.5t-90.5 -88l-60 50q15 16 31 40.5t29.5 53t23.5 59t13 57.5q-52 11 -82.5 48.5t-30.5 88.5q0 30 11.5 56.5t31 46t47 30.5t58.5 11z" />
    <glyph glyph-name="quoteleft" unicode="&#x2018;" horiz-adv-x="526" 
d="M263 1137q-31 0 -58 11t-47 32.5t-31.5 52t-11.5 69.5q0 45 15.5 94.5t44.5 98t69.5 95.5t90.5 88l60 -50q-15 -16 -31 -40.5t-29.5 -53t-23.5 -59t-13 -57.5q52 -11 82.5 -48.5t30.5 -88.5q0 -30 -11.5 -56.5t-31 -46t-46.5 -30.5t-59 -11z" />
    <glyph glyph-name="quoteright" unicode="&#x2019;" horiz-adv-x="526" 
d="M263 1680q31 0 58 -11t47 -32.5t31.5 -52t11.5 -69.5q0 -45 -15.5 -94.5t-44.5 -98t-69.5 -95.5t-90.5 -88l-60 50q15 16 31 40.5t29.5 53t23.5 59t13 57.5q-52 11 -82.5 48.5t-30.5 88.5q0 30 11.5 56.5t31 46t47 30.5t58.5 11z" />
    <glyph glyph-name="guillemotleft" unicode="&#xab;" horiz-adv-x="1079" 
d="M869 56l-390 500l390 500l131 -102l-311 -398l311 -397zM436 56l-390 500l390 500l131 -102l-311 -398l311 -397z" />
    <glyph glyph-name="guillemotright" unicode="&#xbb;" horiz-adv-x="1081" 
d="M212 56l-131 103l311 397l-311 398l131 102l390 -500zM645 56l-131 103l311 397l-311 398l131 102l390 -500z" />
    <glyph glyph-name="guilsinglleft" unicode="&#x2039;" horiz-adv-x="646" 
d="M436 57l-390 500l390 500l131 -103l-310 -397l310 -397z" />
    <glyph glyph-name="guilsinglright" unicode="&#x203a;" horiz-adv-x="648" 
d="M212 57l-131 103l311 397l-311 397l131 103l390 -500z" />
    <glyph glyph-name="quotedbl" unicode="&#x22;" horiz-adv-x="788" 
d="M158 1166l-43 554h234l-43 -554h-148zM482 1166l-43 554h234l-43 -554h-148z" />
    <glyph glyph-name="quotesingle" unicode="'" horiz-adv-x="464" 
d="M158 1166l-43 554h234l-43 -554h-148z" />
    <glyph glyph-name="uni00A0" unicode="&#xa0;" horiz-adv-x="532" 
 />
    <glyph glyph-name="cent" unicode="&#xa2;" horiz-adv-x="1063" 
d="M54 512q0 100 33.5 189t93.5 159.5t142.5 119t181.5 66.5v226h149v-217q91 -5 171 -33.5t136 -71.5l-96 -152q-44 30 -98.5 46t-114.5 16q-79 0 -143.5 -27.5t-110.5 -74.5t-71 -110.5t-25 -135.5t25 -135.5t71 -110.5t110.5 -74.5t143.5 -27.5q60 0 114.5 16t98.5 46
l96 -152q-48 -37 -113 -63t-140 -37v-232h-149v229q-109 10 -201.5 56t-160 118t-105.5 166t-38 201z" />
    <glyph glyph-name="currency" unicode="&#xa4;" horiz-adv-x="1230" 
d="M247 348q-45 59 -70 130.5t-25 153.5q0 81 25 152.5t70 130.5l-138 137l86 86l137 -138q58 46 130 71t154 25q81 0 153 -25t130 -71l137 138l86 -86l-138 -137q45 -59 70 -130.5t25 -152.5q0 -82 -25 -153.5t-70 -130.5l138 -137l-86 -86l-137 138q-58 -46 -130 -71
t-153 -25q-82 0 -154 25t-130 71l-137 -138l-86 86zM616 364q57 0 106 20t85.5 56t57 85t20.5 107q0 57 -20.5 106t-57 85t-85.5 56t-106 20t-106.5 -20t-86 -56t-57 -85t-20.5 -106q0 -58 20.5 -107t57 -85t86 -56t106.5 -20z" />
    <glyph glyph-name="dollar" unicode="$" horiz-adv-x="1309" 
d="M64 251l153 151q43 -46 93 -83.5t104.5 -64t112.5 -41t116 -14.5q62 0 116 17t94 49t63.5 78.5t23.5 105.5q0 51 -18 92.5t-60 78.5t-111 72t-171 74q-109 42 -188.5 90t-131 104.5t-76.5 121.5t-25 140q0 88 33 167t93 140.5t145 101t190 47.5v248h149v-254
q57 -9 109 -27.5t96.5 -43t81 -53.5t61.5 -59l-137 -160q-29 26 -64.5 48t-75.5 39t-84 26.5t-91 9.5q-63 0 -112 -18.5t-82.5 -49.5t-51 -71.5t-17.5 -85.5q0 -41 17 -76.5t53.5 -68.5t95 -63.5t141.5 -61.5q122 -45 215 -93.5t157 -107.5t96.5 -132.5t32.5 -168.5
q0 -101 -32.5 -183t-91 -143t-139.5 -99.5t-178 -53.5v-252h-149v245q-91 4 -175 27t-156.5 60.5t-130 87.5t-94.5 107z" />
    <glyph glyph-name="Euro" unicode="&#x20ac;" horiz-adv-x="1906" 
d="M312 729q-2 23 -3.5 47t-1.5 48q0 23 1.5 46.5t3.5 46.5h-133v149h161q38 135 115.5 247.5t187 194t246.5 127t293 45.5q154 0 290 -43.5t237 -118.5l-123 -204q-76 58 -176.5 89t-211.5 31q-105 0 -196 -26.5t-164.5 -75t-127.5 -116.5t-87 -150h802v-149h-840
q-4 -23 -5.5 -46t-1.5 -47t2 -48t5 -47h840v-149h-801q33 -82 87 -149.5t127.5 -115.5t164 -74.5t195.5 -26.5q111 0 211.5 31t176.5 89l123 -204q-101 -75 -237 -118.5t-290 -43.5q-156 0 -292.5 45.5t-245.5 126.5t-187 193.5t-116 246.5h-162v149h133z" />
    <glyph glyph-name="florin" unicode="&#x192;" horiz-adv-x="867" 
d="M-49 -312q20 -14 48 -22t57 -8q71 0 110.5 51t50.5 165l95 971h-122l16 180h123l30 302q10 98 41 176.5t79.5 133.5t114 84t144.5 29q66 0 125 -19.5t101 -54.5l-102 -165q-20 14 -47.5 22t-56.5 8q-72 0 -111 -51t-50 -165l-31 -300h250l-16 -180h-250l-95 -973
q-9 -98 -40 -176.5t-79.5 -133.5t-114 -84t-144.5 -29q-66 0 -125.5 19.5t-101.5 54.5z" />
    <glyph glyph-name="sterling" unicode="&#xa3;" horiz-adv-x="1505" 
d="M125 740h245q-26 42 -49.5 87t-41 94.5t-28 104.5t-10.5 116q0 124 40 223.5t112.5 170t173.5 108.5t222 38q105 0 195.5 -28.5t161 -81t119 -126t70.5 -164.5l-204 -96q-14 58 -40.5 110.5t-68.5 92t-100.5 63t-135.5 23.5q-73 0 -130.5 -22.5t-97.5 -64.5t-61.5 -102
t-21.5 -135q0 -54 10.5 -106t28.5 -102.5t41.5 -100.5t48.5 -102h434v-137h-394q17 -33 26 -67.5t9 -77.5q0 -42 -10 -87.5t-33 -93.5q48 -4 97 -22.5t98.5 -38t99 -35.5t99.5 -16q49 0 86 15t62.5 42t40.5 63t21 78l188 -92q-12 -66 -43 -121.5t-78.5 -95.5t-110 -62
t-137.5 -22q-79 0 -149.5 22.5t-135.5 49.5t-127 49.5t-123 22.5q-33 0 -61.5 -7.5t-51 -22.5t-36.5 -36t-17 -48h-208q1 59 23 112t60.5 92.5t91.5 64t115 26.5q15 31 25 75t10 89t-11.5 80t-28.5 64h-310v137z" />
    <glyph glyph-name="yen" unicode="&#xa5;" horiz-adv-x="1350" 
d="M-35 1650h301l409 -666l409 666h301l-525 -829h349v-180h-409v-186h409v-180h-409v-275h-250v275h-409v180h409v186h-409v180h349z" />
    <glyph glyph-name="plus" unicode="+" horiz-adv-x="1259" 
d="M527 931v410h205v-410h410v-205h-410v-410h-205v410h-410v205h410z" />
    <glyph glyph-name="minus" unicode="&#x2212;" horiz-adv-x="1282" 
d="M128 726v205h1026v-205h-1026z" />
    <glyph glyph-name="multiply" unicode="&#xd7;" horiz-adv-x="1191" 
d="M253 344l-143 143l341 342l-341 342l144 142l340 -340l342 340l143 -142l-341 -342l341 -342l-145 -143l-340 341z" />
    <glyph glyph-name="divide" unicode="&#xf7;" horiz-adv-x="1290" 
d="M132 727v205h1026v-205h-1026zM529 360q0 25 9 47t25 38t37 25t45 9t45 -9t37 -25t25 -38t9 -47t-9 -47t-25 -38t-37 -25t-45 -9t-45 9t-37 25t-25 38t-9 47zM645 1420q24 0 45 -9t37 -25t25 -38t9 -47t-9 -47t-25 -38t-37 -25t-45 -9t-45 9t-37 25t-25 38t-9 47t9 47
t25 38t37 25t45 9z" />
    <glyph glyph-name="equal" unicode="=" horiz-adv-x="1280" 
d="M128 946v205h1024v-205h-1024zM1152 714v-205h-1024v205h1024z" />
    <glyph glyph-name="notequal" unicode="&#x2260;" horiz-adv-x="1280" 
d="M128 714h366l135 232h-501v205h619l170 293h163l-170 -293h242v-205h-360l-135 -232h495v-205h-614l-175 -303h-163l175 303h-247v205z" />
    <glyph glyph-name="greater" unicode="&#x3e;" horiz-adv-x="1271" 
d="M1196 910v-156l-1093 -484v193l840 369l-840 369v193z" />
    <glyph glyph-name="less" unicode="&#x3c;" horiz-adv-x="1271" 
d="M75 910l1093 484v-193l-840 -369l840 -369v-193l-1093 484v156z" />
    <glyph glyph-name="greaterequal" unicode="&#x2265;" horiz-adv-x="1280" 
d="M110 1414v191l1095 -484v-157l-1095 -483v189l845 370zM110 96v205h1095v-205h-1095z" />
    <glyph glyph-name="lessequal" unicode="&#x2264;" horiz-adv-x="1281" 
d="M1171 1605v-191l-846 -374l846 -370v-189l-1096 483v157zM1171 301v-205h-1096v205h1096z" />
    <glyph glyph-name="plusminus" unicode="&#xb1;" horiz-adv-x="1294" 
d="M544 961v380h206v-380h410v-204h-410v-381h-206v381h-410v204h410zM134 205h1026v-205h-1026v205z" />
    <glyph glyph-name="approxequal" unicode="&#x2248;" horiz-adv-x="1296" 
d="M131 1017q56 107 134 165.5t178 58.5q46 0 83.5 -12t70 -30t62 -38.5t59.5 -38.5t62.5 -30t70.5 -12q66 0 113 35t79 92l128 -84q-56 -107 -134 -165.5t-178 -58.5q-46 0 -83.5 12t-70 30t-62 38.5t-59.5 38.5t-62 30t-71 12q-66 0 -113 -35t-79 -92zM128 515
q56 107 134 165.5t178 58.5q46 0 83.5 -12t70 -30t62 -38.5t59.5 -38.5t62 -30t71 -12q66 0 113 35t79 92l128 -84q-56 -107 -134 -165.5t-178 -58.5q-46 0 -83.5 12t-70 30t-62 38.5t-59.5 38.5t-62.5 30t-70.5 12q-66 0 -113 -35t-79 -92z" />
    <glyph glyph-name="asciitilde" unicode="~" horiz-adv-x="1302" 
d="M132 779q56 108 134 166.5t178 58.5q46 0 83.5 -12t70 -30t62 -38.5t59 -38.5t62 -30t70.5 -12q61 0 110 32t84 95l127 -83q-59 -115 -138.5 -170t-173.5 -55q-46 0 -83.5 12t-70 30t-62 38.5t-59.5 38.5t-62.5 30t-70.5 12q-65 0 -112.5 -35t-79.5 -92z" />
    <glyph glyph-name="logicalnot" unicode="&#xac;" horiz-adv-x="1380" 
d="M998 316v410h-821v206h1026v-616h-205z" />
    <glyph glyph-name="asciicircum" unicode="^" horiz-adv-x="934" 
d="M407 1681h122l414 -471h-213l-262 304l-262 -304h-213z" />
    <glyph glyph-name="infinity" unicode="&#x221e;" horiz-adv-x="2065" 
d="M81 545q0 102 39 187t102.5 146.5t145.5 95.5t168 34q71 0 135.5 -24t125 -66t119 -100t116.5 -126q59 68 117 126t118.5 100t125 66t135.5 24q86 0 168 -34t146 -95.5t103 -146.5t39 -187t-39 -187t-102.5 -146.5t-145.5 -96t-169 -34.5q-71 0 -135.5 24t-125 66.5
t-118.5 100.5t-117 126q-58 -68 -116.5 -126t-119 -100.5t-125 -66.5t-135.5 -24q-86 0 -168 34.5t-145.5 96t-102.5 146.5t-39 187zM1154 545q45 -53 86.5 -100t83 -81.5t84.5 -54.5t92 -20q47 0 92 18.5t80 52.5t56.5 81t21.5 104t-21.5 104t-57 80.5t-80 52t-91.5 18.5
q-49 0 -92 -20t-84.5 -54.5t-83 -81t-86.5 -99.5zM314 545q0 -57 21.5 -104t57 -81t80.5 -52.5t91 -18.5q49 0 92 20t84.5 54.5t83 81.5t86.5 100q-45 53 -86.5 99.5t-83 81t-84.5 54.5t-92 20q-46 0 -91 -18.5t-80 -52t-57 -80.5t-22 -104z" />
    <glyph glyph-name="emptyset" unicode="&#x2205;" horiz-adv-x="1200" 
d="M246 347q-45 59 -69.5 130.5t-24.5 152.5q0 98 36 183t98.5 148t147 99t182.5 36q81 0 153 -25t131 -70l137 137l84 -86l-136 -137q44 -58 68.5 -130.5t24.5 -153.5q0 -99 -36 -184t-98.5 -147.5t-147 -98t-181.5 -35.5q-81 0 -153 25t-131 70l-136 -136l-86 85zM442 372
q37 -23 80.5 -36t92.5 -13q66 0 123 23t99 64t65.5 97.5t23.5 123.5q0 50 -13.5 94t-37.5 81zM789 890q-37 23 -81 36t-93 13q-66 0 -122.5 -23t-98.5 -64t-65.5 -97.5t-23.5 -123.5q0 -100 51 -174z" />
    <glyph glyph-name="integral" unicode="&#x222b;" horiz-adv-x="867" 
d="M-52 -310q20 -14 48 -23t60 -9q72 0 111 51t50 165l142 1453q9 100 39.5 178.5t78.5 133t113.5 83t144.5 28.5q67 0 127 -19.5t102 -55.5l-99 -166q-20 14 -48 23t-59 9q-73 0 -111.5 -51t-49.5 -165l-142 -1453q-9 -100 -39.5 -178.5t-78.5 -133t-113.5 -83
t-145.5 -28.5q-66 0 -126 19.5t-102 55.5z" />
    <glyph glyph-name="product" unicode="&#x220f;" horiz-adv-x="1652" 
d="M163 1547v173h1326v-173h-167v-1547h-186v1547h-620v-1547h-186v1547h-167z" />
    <glyph glyph-name="summation" unicode="&#x2211;" horiz-adv-x="1438" 
d="M1275 1720v-173h-792l464 -687l-464 -687h792v-173h-1112l584 860l-584 860h1112z" />
    <glyph glyph-name="radical" unicode="&#x221a;" horiz-adv-x="1584" 
d="M422 -32l-259 641h187l172 -431l364 1542h535v-173h-387l-391 -1579h-221z" />
    <glyph glyph-name="partialdiff" unicode="&#x2202;" horiz-adv-x="1374" 
d="M88 525q0 113 42.5 212.5t117 174.5t176.5 118.5t221 43.5q59 0 114.5 -13t103.5 -37.5t85.5 -59.5t59.5 -78q-38 242 -173.5 431t-361.5 318l106 177q164 -92 294.5 -212t222.5 -264.5t141 -312t49 -354.5q0 -166 -39 -297t-113 -221.5t-182.5 -138t-246.5 -47.5
q-130 0 -243 42.5t-196 117.5t-130.5 177.5t-47.5 222.5zM682 175q77 0 139 28.5t105.5 76t67.5 110t24 131.5q0 76 -28 138t-75.5 105.5t-110 67.5t-131.5 24q-77 0 -139.5 -28.5t-106.5 -76.5t-67.5 -110.5t-23.5 -131.5q0 -76 28 -138t76 -105.5t110.5 -67t131.5 -23.5z
" />
    <glyph glyph-name="uni00B5" unicode="&#xb5;" horiz-adv-x="1540" 
d="M258 -320q0 104 7.5 190t16.5 171t16.5 177.5t7.5 210.5v595h237v-597q0 -131 63 -201t180 -70q53 0 99.5 19t81.5 52t55 76.5t20 92.5v628h238v-1024h-238v125q-23 -35 -57 -64t-75 -49.5t-86.5 -32t-91.5 -11.5q-65 0 -112.5 20.5t-76.5 62.5v-371h-285z" />
    <glyph glyph-name="percent" unicode="%" horiz-adv-x="1987" 
d="M73 1286q0 87 32.5 159.5t90 124.5t135.5 81t168 29t168 -29t135.5 -81t90 -124.5t32.5 -159.5t-32.5 -159.5t-90 -124.5t-135.5 -81t-168 -29t-168 29t-135.5 81t-90 124.5t-32.5 159.5zM1060 362q0 87 32.5 159.5t90 124.5t135.5 81t168 29t168 -29t135.5 -81
t90 -124.5t32.5 -159.5t-32.5 -159.5t-90 -124.5t-135.5 -81t-168 -29t-168 29t-135.5 81t-90 124.5t-32.5 159.5zM1389 1650h167l-961 -1650h-166zM1486 117q52 0 96.5 18t77.5 50.5t52 77.5t19 99t-19 99t-52 77.5t-77.5 50.5t-96.5 18t-96.5 -18t-77.5 -50.5t-52 -77.5
t-19 -99t19 -99t52 -77.5t77.5 -50.5t96.5 -18zM499 1041q52 0 96.5 18t77.5 50.5t52 77.5t19 99t-19 99t-52 77.5t-77.5 50.5t-96.5 18t-96.5 -18t-77.5 -50.5t-52 -77.5t-19 -99t19 -99t52 -77.5t77.5 -50.5t96.5 -18z" />
    <glyph glyph-name="perthousand" unicode="&#x2030;" horiz-adv-x="2922" 
d="M73 1286q0 87 32.5 159.5t90 124.5t135.5 81t168 29t168 -29t135.5 -81t90 -124.5t32.5 -159.5t-32.5 -159.5t-90 -124.5t-135.5 -81t-168 -29t-168 29t-135.5 81t-90 124.5t-32.5 159.5zM1060 362q0 87 32.5 159.5t90 124.5t135.5 81t168 29t168 -29t135.5 -81
t90 -124.5t32.5 -159.5t-32.5 -159.5t-90 -124.5t-135.5 -81t-168 -29t-168 29t-135.5 81t-90 124.5t-32.5 159.5zM2421 756q90 0 168 -29t135.5 -81t90 -124.5t32.5 -159.5t-32.5 -159.5t-90 -124.5t-135.5 -81t-168 -29t-168 29t-135.5 81t-90 124.5t-32.5 159.5
t32.5 159.5t90 124.5t135.5 81t168 29zM1389 1650h167l-961 -1650h-166zM2176 362q0 -54 19 -99t52 -77.5t77.5 -50.5t96.5 -18t96.5 18t77.5 50.5t52 77.5t19 99t-19 99t-52 77.5t-77.5 50.5t-96.5 18t-96.5 -18t-77.5 -50.5t-52 -77.5t-19 -99zM1486 117q52 0 96.5 18
t77.5 50.5t52 77.5t19 99t-19 99t-52 77.5t-77.5 50.5t-96.5 18t-96.5 -18t-77.5 -50.5t-52 -77.5t-19 -99t19 -99t52 -77.5t77.5 -50.5t96.5 -18zM499 1041q52 0 96.5 18t77.5 50.5t52 77.5t19 99t-19 99t-52 77.5t-77.5 50.5t-96.5 18t-96.5 -18t-77.5 -50.5t-52 -77.5
t-19 -99t19 -99t52 -77.5t77.5 -50.5t96.5 -18z" />
    <glyph glyph-name="lozenge" unicode="&#x25ca;" horiz-adv-x="1200" 
d="M515 -80l-420 875l420 875h170l420 -875l-420 -875h-170zM600 183l295 612l-295 612l-295 -612z" />
    <glyph glyph-name="at" unicode="@" horiz-adv-x="1889" 
d="M86 414q0 124 31 236t88 207.5t136.5 172t177 130.5t209.5 83t233 29q112 0 218 -25t199.5 -72.5t171.5 -117t134 -159t87.5 -197.5t31.5 -233q0 -101 -25 -180.5t-68.5 -134t-103.5 -83.5t-129 -29q-78 0 -139 31t-100 79q-24 -43 -58 -78.5t-76.5 -61t-93 -39.5
t-107.5 -14q-89 0 -165.5 33.5t-132.5 92.5t-88 140.5t-32 178.5q0 96 31.5 177.5t88 141t134 93.5t168.5 34q104 0 188.5 -46.5t133.5 -125.5v146h156v-490q0 -30 6.5 -56t20.5 -46t36.5 -31.5t55.5 -11.5q62 0 101.5 65.5t39.5 199.5q0 110 -27.5 200t-75.5 161.5
t-113 124.5t-140.5 88t-157 52t-163.5 17q-152 0 -277.5 -54.5t-215.5 -147.5t-139.5 -216.5t-49.5 -260.5q0 -92 23 -177t65.5 -159t103 -134.5t135.5 -103.5t162.5 -66.5t184.5 -23.5q81 0 150.5 16t127.5 43t103 62.5t77 74.5l160 -104q-41 -57 -101.5 -108.5t-138.5 -91
t-173.5 -62.5t-206.5 -23q-122 0 -234.5 29t-209.5 83t-176 130.5t-135 171.5t-86.5 206t-30.5 234zM945 108q63 0 115.5 22t90.5 61t59 93.5t21 119.5q0 66 -21.5 121t-60 94.5t-90.5 61.5t-113 22q-60 0 -112.5 -22t-90.5 -61.5t-60 -94.5t-22 -122q0 -65 21.5 -119.5
t59 -93.5t90 -60.5t113.5 -21.5z" />
    <glyph glyph-name="ampersand" unicode="&#x26;" horiz-adv-x="1582" 
d="M92 415q0 163 99 283.5t299 208.5q-55 60 -93 110.5t-61 96.5t-33.5 89t-10.5 88q0 91 34.5 163t95 122.5t141.5 77.5t174 27q107 0 189.5 -33t138.5 -88t84.5 -125t28.5 -145q0 -65 -22 -122t-64.5 -107.5t-105.5 -96t-145 -87.5l347 -372q24 21 55 53.5t61.5 67
t57.5 66t42 50.5l155 -143q-24 -32 -51.5 -66.5t-56 -68t-56 -64.5t-51.5 -55l322 -345h-312l-194 208q-119 -115 -257.5 -177.5t-294.5 -62.5q-112 0 -206.5 31t-163.5 89t-107.5 141t-38.5 186zM369 450q0 -59 21.5 -105t58 -77.5t86 -47.5t105.5 -16q94 0 185 44.5
t174 128.5l-379 395q-120 -51 -185.5 -135t-65.5 -187zM712 1016q60 32 106 62t77.5 62.5t47.5 69.5t16 82q0 47 -16 85t-44.5 65.5t-67 42.5t-83.5 15t-82.5 -15t-65 -42t-42.5 -64.5t-15 -82.5q0 -33 9 -64t29 -64t52 -70t79 -82z" />
    <glyph glyph-name="paragraph" unicode="&#xb6;" horiz-adv-x="1399" 
d="M136 1165q0 104 35.5 193t102.5 154t162.5 101.5t216.5 36.5h581v-1650h-147v1505h-94v-1505h-147v661h-193q-121 0 -216.5 40t-162.5 109t-102.5 160.5t-35.5 194.5z" />
    <glyph glyph-name="section" unicode="&#xa7;" horiz-adv-x="1304" 
d="M103 -178l215 51q17 -47 47.5 -87.5t73 -70t95 -46.5t112.5 -17q59 0 106 16.5t80 46t51 70t18 88.5q0 56 -28 97.5t-77.5 75.5t-116 64t-144.5 63q-69 31 -140 70t-127.5 90.5t-91 117.5t-31.5 150q4 105 67.5 189t177.5 130q-97 62 -145.5 144t-48.5 192q0 89 32 166.5
t93 134.5t148.5 90t199.5 33q103 0 181 -27t133.5 -71.5t90.5 -100.5t52 -115l-216 -50q-9 33 -29 62t-50 51.5t-69 35.5t-85 13q-49 0 -89.5 -16t-70 -44t-45.5 -65.5t-16 -79.5q0 -55 31.5 -97.5t80 -75t106.5 -58t112 -48.5q49 -22 100.5 -47t99.5 -55t90 -65.5
t73.5 -77.5t48.5 -91t16 -106q-3 -104 -66.5 -187.5t-176.5 -131.5q94 -65 143 -150t49 -198q0 -104 -40 -184.5t-110 -136.5t-164 -85t-201 -29q-122 0 -216.5 34t-162 88t-109 120t-57.5 130zM607 420q38 -17 65.5 -30t50.5 -23.5t44 -20.5t44 -21q30 10 59.5 28t53 42
t38 54.5t14.5 64.5q0 36 -16 68t-52.5 62.5t-96.5 62t-147 66.5q-14 6 -26.5 11t-25.5 11t-28 13t-35 16q-30 -9 -60 -25.5t-53.5 -40.5t-38 -54.5t-14.5 -68.5q0 -36 14 -65t42 -54.5t70 -48.5t98 -47z" />
    <glyph glyph-name="copyright" unicode="&#xa9;" horiz-adv-x="1866" 
d="M86 824q0 118 30 227.5t85 204.5t132 173t170.5 134t202 86.5t225.5 30.5q118 0 226.5 -30.5t203 -86t171.5 -134t132.5 -173.5t85.5 -205t30 -229q0 -118 -30 -227.5t-85 -204.5t-132.5 -172.5t-171.5 -132.5t-202.5 -85.5t-226.5 -30.5q-117 0 -225.5 30t-202.5 85.5
t-171 133t-132 172.5t-85 205t-30 229zM932 129q96 0 183.5 24.5t164 69.5t139 108t106.5 140t68.5 166t24.5 185q0 97 -24.5 186.5t-69 167t-107.5 141t-139 109t-164 70.5t-183 25q-94 0 -181.5 -25t-163.5 -70.5t-138.5 -109t-106.5 -141t-68.5 -167t-24.5 -185.5
q0 -146 53 -272.5t145.5 -220.5t217.5 -147.5t268 -53.5zM463 826q0 97 36.5 181t101 146.5t152 98.5t189.5 36q87 0 163.5 -24.5t128.5 -65.5l-82 -129q-37 26 -83.5 39t-97.5 13q-67 0 -122 -23t-94 -63t-60.5 -94t-21.5 -115t21.5 -115t60.5 -94.5t94 -63.5t122 -23
q51 0 97.5 13t83.5 39l82 -129q-52 -40 -128.5 -65t-163.5 -25q-102 0 -189.5 36t-152 98.5t-101 147t-36.5 181.5z" />
    <glyph glyph-name="registered" unicode="&#xae;" horiz-adv-x="1018" 
d="M55 1231q0 93 35.5 176t97 145.5t144.5 98.5t177 36t177 -36t144.5 -98.5t97 -145.5t35.5 -176q0 -94 -35.5 -177t-97 -145t-144.5 -98.5t-177 -36.5t-177 36.5t-144.5 98.5t-97 145t-35.5 177zM144 1231q0 -75 28.5 -142t78 -117.5t116 -79.5t142.5 -29t142.5 29
t116 79.5t78 117.5t28.5 142t-28.5 141.5t-78 117t-116 79.5t-142.5 29t-142.5 -29t-116 -79.5t-78 -117t-28.5 -141.5zM479 1481q75 0 119.5 -39t44.5 -109q0 -60 -32.5 -96.5t-89.5 -47.5l165 -205h-96l-150 197h-37v-197h-75v497h151zM403 1421v-176h55q48 0 77 22.5
t29 65.5t-29 65.5t-77 22.5h-55z" />
    <glyph glyph-name="trademark" unicode="&#x2122;" horiz-adv-x="1244" 
d="M163 1650h360v-69h-141v-443h-78v443h-141v69zM590 1650h83l134 -354l134 354h83l57 -511h-78l-42 371l-129 -351h-50l-130 351l-42 -371h-78z" />
    <glyph glyph-name="degree" unicode="&#xb0;" horiz-adv-x="656" 
d="M108 1543q0 46 17 84t47 65.5t70.5 42.5t86.5 15q47 0 87 -15t70 -42t47 -65t17 -84q0 -45 -16.5 -83t-46 -65.5t-70 -42.5t-88.5 -15t-89 15.5t-70 43t-45.5 65t-16.5 81.5zM215 1543q0 -51 31.5 -83t82.5 -32q50 0 81.5 32t31.5 83q0 54 -33 85.5t-80 31.5
q-49 0 -81.5 -32.5t-32.5 -84.5z" />
    <glyph glyph-name="bar" unicode="|" horiz-adv-x="536" 
d="M163 0v1720h208v-1720h-208z" />
    <glyph glyph-name="brokenbar" unicode="&#xa6;" horiz-adv-x="536" 
d="M163 1056v664h208v-664h-208zM371 664v-664h-208v664h208z" />
    <glyph glyph-name="dagger" unicode="&#x2020;" horiz-adv-x="934" 
d="M362 1258v462h208v-462h298v-188h-298v-1070h-208v1070h-298v188h298z" />
    <glyph glyph-name="daggerdbl" unicode="&#x2021;" horiz-adv-x="934" 
d="M64 1234h298v486h208v-486h298v-188h-298v-356h298v-188h-298v-502h-208v502h-298v188h298v356h-298v188z" />
    <glyph glyph-name="uni0308" unicode="&#x308;" horiz-adv-x="732" 
d="M601 1529q27 0 51 -10.5t42 -28t28 -41.5t10 -51t-10 -51t-28 -41.5t-42 -28t-51 -10.5t-51 10.5t-42 28t-28 41.5t-10 51t10 51t28 41.5t42 28t51 10.5zM0 1398q0 27 10 51t28 41.5t42 28t51 10.5t51 -10.5t42 -28t28 -41.5t10 -51t-10 -51t-28 -41.5t-42 -28t-51 -10.5
t-51 10.5t-42 28t-28 41.5t-10 51z" />
    <glyph glyph-name="uni0307" unicode="&#x307;" horiz-adv-x="290" 
d="M0 1477q0 30 11.5 56.5t31 46t46 31t56.5 11.5t56.5 -11.5t46 -31t31 -46t11.5 -56.5t-11.5 -56.5t-31 -46t-46 -31t-56.5 -11.5t-56.5 11.5t-46 31t-31 46t-11.5 56.5z" />
    <glyph glyph-name="gravecomb" unicode="&#x300;" horiz-adv-x="431" 
d="M390 1192l-426 218l112 172l390 -277z" />
    <glyph glyph-name="acutecomb" unicode="&#x301;" horiz-adv-x="406" 
d="M329 1582l102 -178l-416 -212l-76 113z" />
    <glyph glyph-name="uni030B" unicode="&#x30b;" horiz-adv-x="877" 
d="M535 1290l-95 110l284 280l153 -164zM96 1290l-96 110l285 280l152 -164z" />
    <glyph glyph-name="uni0302" unicode="&#x302;" horiz-adv-x="799" 
d="M94 1260l-94 127l400 293l400 -293l-94 -127l-306 224z" />
    <glyph glyph-name="uni030C" unicode="&#x30c;" horiz-adv-x="800" 
d="M400 1190l-400 294l94 127l306 -224l306 224l94 -127z" />
    <glyph glyph-name="uni0306" unicode="&#x306;" horiz-adv-x="866" 
d="M0 1638l172 42q8 -46 28 -87.5t52.5 -73t78 -50t102.5 -18.5t102.5 18.5t78 50t53 73t27.5 87.5l172 -42q-12 -76 -48.5 -138.5t-93 -107.5t-130.5 -69.5t-161 -24.5t-161 24.5t-130.5 69.5t-93 107.5t-48.5 138.5z" />
    <glyph glyph-name="uni030A" unicode="&#x30a;" horiz-adv-x="544" 
d="M0 1465q0 53 21 97t58 75.5t86.5 49t106.5 17.5t106.5 -17.5t86.5 -49t58 -75.5t21 -97t-21 -97t-58 -75.5t-86.5 -49t-106.5 -17.5t-106.5 17.5t-86.5 49t-58 75.5t-21 97zM142 1465q0 -26 10 -48t28 -38.5t41.5 -26t50.5 -9.5t50.5 9.5t41.5 26t28 38.5t10 48t-10 48
t-28 38.5t-41.5 26t-50.5 9.5t-50.5 -9.5t-41.5 -26t-28 -38.5t-10 -48z" />
    <glyph glyph-name="tildecomb" unicode="&#x303;" horiz-adv-x="1040" 
d="M0 1332q56 107 134 165.5t178 58.5q46 0 83.5 -12t70 -30t62 -38.5t59.5 -38.5t62 -30t71 -12q66 0 113 35t79 92l128 -84q-56 -107 -134 -165.5t-178 -58.5q-46 0 -83.5 12t-70 30t-62 38.5t-59.5 38.5t-62.5 30t-70.5 12q-66 0 -113 -35t-79 -92z" />
    <glyph glyph-name="uni0304" unicode="&#x304;" horiz-adv-x="816" 
d="M0 1307v164h816v-164h-816z" />
    <glyph glyph-name="uni0312" unicode="&#x312;" horiz-adv-x="743" 
d="M368 1287q-43 0 -69 28.5t-26 83.5q0 33 10.5 69.5t29 71.5t45 67.5t57.5 57.5l35 -30q-12 -13 -22.5 -32t-19.5 -40.5t-15 -45.5t-8 -47q35 -6 56.5 -30.5t21.5 -60.5q0 -40 -26.5 -66t-68.5 -26z" />
    <glyph glyph-name="uni0326" unicode="&#x326;" horiz-adv-x="743" 
d="M373 -118q43 0 69 -28.5t26 -83.5q0 -33 -10.5 -69.5t-29 -71.5t-44.5 -67.5t-58 -57.5l-35 30q12 13 22.5 32t19.5 40.5t15 45.5t8 47q-35 6 -56.5 30.5t-21.5 60.5q0 40 26.5 66t68.5 26z" />
    <glyph glyph-name="uni0327" unicode="&#x327;" horiz-adv-x="535" 
d="M0 -393l98 71q32 -47 77 -72t98 -25q57 0 92 28.5t35 74.5t-36.5 73.5t-95.5 27.5q-31 0 -64 -7.5t-52 -18.5l-13 10l80 249h110l-50 -151q6 1 11.5 1h11.5q42 0 84 -11t75 -34t53.5 -58.5t20.5 -84.5q0 -48 -19 -89t-53.5 -70t-82 -45.5t-103.5 -16.5q-85 0 -154.5 38
t-122.5 110z" />
    <glyph glyph-name="uni0328" unicode="&#x328;" horiz-adv-x="526" 
d="M0 -315q0 69 45.5 154t131.5 179h118q-70 -80 -110 -160.5t-40 -140.5q0 -51 32 -85.5t95 -34.5q86 0 153 82l101 -75q-23 -33 -53.5 -60t-66.5 -45.5t-75 -28.5t-80 -10q-54 0 -100 17.5t-79.5 48.5t-52.5 71.5t-19 87.5z" />
    <glyph glyph-name="dieresis" unicode="&#xa8;" horiz-adv-x="732" 
d="M601 1529q27 0 51 -10.5t42 -28t28 -41.5t10 -51t-10 -51t-28 -41.5t-42 -28t-51 -10.5t-51 10.5t-42 28t-28 41.5t-10 51t10 51t28 41.5t42 28t51 10.5zM0 1398q0 27 10 51t28 41.5t42 28t51 10.5t51 -10.5t42 -28t28 -41.5t10 -51t-10 -51t-28 -41.5t-42 -28t-51 -10.5
t-51 10.5t-42 28t-28 41.5t-10 51z" />
    <glyph glyph-name="dotaccent" unicode="&#x2d9;" horiz-adv-x="290" 
d="M0 1477q0 30 11.5 56.5t31 46t46 31t56.5 11.5t56.5 -11.5t46 -31t31 -46t11.5 -56.5t-11.5 -56.5t-31 -46t-46 -31t-56.5 -11.5t-56.5 11.5t-46 31t-31 46t-11.5 56.5z" />
    <glyph glyph-name="grave" unicode="`" horiz-adv-x="431" 
d="M390 1192l-426 218l112 172l390 -277z" />
    <glyph glyph-name="acute" unicode="&#xb4;" horiz-adv-x="406" 
d="M329 1582l102 -178l-416 -212l-76 113z" />
    <glyph glyph-name="hungarumlaut" unicode="&#x2dd;" horiz-adv-x="877" 
d="M535 1290l-95 110l284 280l153 -164zM96 1290l-96 110l285 280l152 -164z" />
    <glyph glyph-name="circumflex" unicode="&#x2c6;" horiz-adv-x="799" 
d="M94 1260l-94 127l400 293l400 -293l-94 -127l-306 224z" />
    <glyph glyph-name="caron" unicode="&#x2c7;" horiz-adv-x="800" 
d="M400 1190l-400 294l94 127l306 -224l306 224l94 -127z" />
    <glyph glyph-name="breve" unicode="&#x2d8;" horiz-adv-x="866" 
d="M0 1638l172 42q8 -46 28 -87.5t52.5 -73t78 -50t102.5 -18.5t102.5 18.5t78 50t53 73t27.5 87.5l172 -42q-12 -76 -48.5 -138.5t-93 -107.5t-130.5 -69.5t-161 -24.5t-161 24.5t-130.5 69.5t-93 107.5t-48.5 138.5z" />
    <glyph glyph-name="ring" unicode="&#x2da;" horiz-adv-x="544" 
d="M0 1465q0 53 21 97t58 75.5t86.5 49t106.5 17.5t106.5 -17.5t86.5 -49t58 -75.5t21 -97t-21 -97t-58 -75.5t-86.5 -49t-106.5 -17.5t-106.5 17.5t-86.5 49t-58 75.5t-21 97zM142 1465q0 -26 10 -48t28 -38.5t41.5 -26t50.5 -9.5t50.5 9.5t41.5 26t28 38.5t10 48t-10 48
t-28 38.5t-41.5 26t-50.5 9.5t-50.5 -9.5t-41.5 -26t-28 -38.5t-10 -48z" />
    <glyph glyph-name="tilde" unicode="&#x2dc;" horiz-adv-x="1040" 
d="M0 1332q56 107 134 165.5t178 58.5q46 0 83.5 -12t70 -30t62 -38.5t59.5 -38.5t62 -30t71 -12q66 0 113 35t79 92l128 -84q-56 -107 -134 -165.5t-178 -58.5q-46 0 -83.5 12t-70 30t-62 38.5t-59.5 38.5t-62.5 30t-70.5 12q-66 0 -113 -35t-79 -92z" />
    <glyph glyph-name="macron" unicode="&#xaf;" horiz-adv-x="816" 
d="M0 1307v164h816v-164h-816z" />
    <glyph glyph-name="cedilla" unicode="&#xb8;" horiz-adv-x="535" 
d="M0 -393l98 71q32 -47 77 -72t98 -25q57 0 92 28.5t35 74.5t-36.5 73.5t-95.5 27.5q-31 0 -64 -7.5t-52 -18.5l-13 10l80 249h110l-50 -151q6 1 11.5 1h11.5q42 0 84 -11t75 -34t53.5 -58.5t20.5 -84.5q0 -48 -19 -89t-53.5 -70t-82 -45.5t-103.5 -16.5q-85 0 -154.5 38
t-122.5 110z" />
    <glyph glyph-name="ogonek" unicode="&#x2db;" horiz-adv-x="526" 
d="M0 -315q0 69 45.5 154t131.5 179h118q-70 -80 -110 -160.5t-40 -140.5q0 -51 32 -85.5t95 -34.5q86 0 153 82l101 -75q-23 -33 -53.5 -60t-66.5 -45.5t-75 -28.5t-80 -10q-54 0 -100 17.5t-79.5 48.5t-52.5 71.5t-19 87.5z" />
    <glyph glyph-name="uni2215" unicode="&#x2215;" horiz-adv-x="1026" 
d="M0 -240l824 1960h201l-824 -1960h-201z" />
    </font>
</defs>
</svg>
