<svg width="172px" height="51px" viewBox="0 0 172 51" version="1.1" xmlns="http://www.w3.org/2000/svg" xmlns:xlink="http://www.w3.org/1999/xlink">
    <defs>
        <linearGradient x1="49.9984472%" y1="100.265508%" x2="49.9984472%" y2="-260.382794%" id="linearGradient-1">
            <stop stop-color="#1A1A1A" stop-opacity="0.1" offset="0%"></stop>
            <stop stop-color="#212121" stop-opacity="0.151" offset="12.3%"></stop>
            <stop stop-color="#353535" stop-opacity="0.227" offset="30.8%"></stop>
            <stop stop-color="#575757" stop-opacity="0.318" offset="53.2%"></stop>
            <stop stop-color="#858585" stop-opacity="0.421" offset="78.3%"></stop>
            <stop stop-color="#B3B3B3" stop-opacity="0.51" offset="100%"></stop>
        </linearGradient>
    </defs>
    <g id="Page-1" stroke="none" stroke-width="1" fill="none" fill-rule="evenodd">
        <g id="app-store">
            <path d="M170.54309,44.6996928 C170.54309,45.9879998 170.028955,47.2234672 169.11393,48.1339622 C168.198905,49.0444573 166.958051,49.5552921 165.664686,49.5539466 L6.01720687,49.5539466 C3.32273187,49.5567483 1.13595267,47.3836284 1.13244113,44.6996928 L1.13244113,5.98860293 C1.13595081,3.30364266 3.32170188,1.12870891 6.01720687,1.12801198 L165.663414,1.12801198 C166.957467,1.12801194 168.198501,1.64014889 169.113416,2.55172296 C170.028331,3.46329704 170.542155,4.69961062 170.541817,5.98860293 L170.54309,44.6996928 Z" fill="#FFFFFF"></path>
            <path d="M165.664686,50.683226 L6.01720687,50.683226 C2.69825629,50.682533 0.00631505519,48.0056565 0,44.6996928 L0,5.98987036 C0.00490985228,2.68229993 2.69664678,0.00279171414 6.01720687,0 L165.663414,0 C168.983394,0.00418452501 171.674313,2.68287834 171.680621,5.98987036 L171.680621,44.6996928 C171.683165,48.0000784 168.979303,50.683226 165.664686,50.683226 Z" fill="#A6A6A6"></path>
            <path d="M170.54309,44.6996928 C170.54309,45.9879998 170.028955,47.2234672 169.11393,48.1339622 C168.198905,49.0444573 166.958051,49.5552921 165.664686,49.5539466 L6.01720687,49.5539466 C3.32273187,49.5567483 1.13595267,47.3836284 1.13244113,44.6996928 L1.13244113,5.98860293 C1.13595081,3.30364266 3.32170188,1.12870891 6.01720687,1.12801198 L165.663414,1.12801198 C166.957467,1.12801194 168.198501,1.64014889 169.113416,2.55172296 C170.028331,3.46329704 170.542155,4.69961062 170.541817,5.98860293 L170.54309,44.6996928 Z" fill="#000000"></path>
            <path d="M38.335041,25.0748191 C38.2981412,20.9898949 41.6929198,19.0025659 41.8481533,18.9100436 C39.9255482,16.117897 36.9455739,15.7364009 35.8983839,15.7059826 C33.3955618,15.4436247 30.9678116,17.1977467 29.692861,17.1977467 C28.3924623,17.1977467 26.4291402,15.7313311 24.3131294,15.7744237 C21.5901811,15.8162489 19.0428247,17.3865937 17.6457232,19.8251274 C14.7624517,24.7972522 16.9128175,32.1039814 19.6752104,36.1229994 C21.057043,38.0925844 22.671726,40.2890392 24.7851919,40.211726 C26.8528513,40.1280757 27.6252016,38.8999368 30.1203893,38.8999368 C32.5926737,38.8999368 33.317945,40.211726 35.4734004,40.1622963 C37.692476,40.1280757 39.0895776,38.1851067 40.4230588,36.1990452 C42.0199281,33.9442886 42.6612206,31.7212178 42.6866687,31.6071492 C42.6357724,31.5894052 38.3783027,29.9696307 38.335041,25.0748191 Z M34.2633425,13.0621253 C35.3754251,11.6768252 36.1363238,9.79215794 35.9251044,7.87960729 C34.3155111,7.95058332 32.3025652,8.98860783 31.1434036,10.3434896 C30.1178445,11.5374079 29.2017124,13.4943186 29.4383798,15.3346258 C31.2464684,15.4689733 33.1029084,14.4258791 34.2633425,13.0621253 Z" fill="#FFFFFF" fill-rule="nonzero"></path>
            <path d="M165.664686,6.66134903e-16 L80.1526565,0 L113.646193,50.683226 L165.664686,50.683226 C168.984255,50.6804375 171.675582,48.0024708 171.681893,44.6958905 L171.681893,5.98987036 C171.676284,2.68258921 168.984956,0.00348840053 165.664686,6.66134903e-16 Z" fill="url(#linearGradient-1)"></path>
            <g transform="translate(53.441042, 21.546296)" fill="#FFFFFF" fill-rule="nonzero">
                <path d="M14.8426133,18.382793 L11.9529798,18.382793 L10.370107,13.4284123 L4.86822446,13.4284123 L3.36042363,18.382793 L0.54713448,18.382793 L5.99939319,1.51584531 L9.36617885,1.51584531 L14.8426133,18.382793 Z M9.89295484,11.3498284 L8.46149835,6.94551198 C8.31008206,6.49557461 8.02506317,5.43600381 7.60771408,3.76806699 L7.55681785,3.76806699 C7.38886029,4.48543191 7.12038267,5.54500272 6.75265741,6.94551198 L5.34537663,11.3498284 L9.89295484,11.3498284 Z M28.8365319,12.1521111 C28.8365319,14.2205555 28.2728561,15.8555392 27.1442322,17.0557946 C26.1339421,18.1242375 24.8780776,18.6578251 23.380456,18.6578251 C21.7632282,18.6578251 20.6002494,18.0836797 19.8940642,16.932854 L19.8940642,23.31436 L17.1812951,23.31436 L17.1812951,10.2180142 C17.1812951,8.91889923 17.1469401,7.58683115 17.080775,6.22054248 L19.4665358,6.22054248 L19.6179521,8.14830228 L19.6688483,8.14830228 C20.5735288,6.69582842 21.9464547,5.9695915 23.7888982,5.9695915 C25.2292616,5.9695915 26.431685,6.53613235 27.3936238,7.67048147 C28.3542901,8.80736546 28.8365319,10.300397 28.8365319,12.1521111 Z M26.0728666,12.2509706 C26.0728666,11.0671917 25.8056614,10.0912712 25.2687061,9.32194171 C24.6821271,8.52219389 23.8945079,8.12168627 22.907121,8.12168627 C22.2378356,8.12168627 21.6296256,8.3447538 21.0863084,8.78455173 C20.5417187,9.22815195 20.1854451,9.80736709 20.0187599,10.524732 C19.9443483,10.7930108 19.902065,11.0691173 19.8927918,11.3472936 L19.8927918,13.3764477 C19.8927918,14.2598458 20.1650866,15.0063616 20.7096763,15.6172625 C21.2542659,16.2256285 21.9617235,16.531079 22.8320491,16.531079 C23.8537909,16.531079 24.6490445,16.1369085 25.2178099,15.3549047 C25.7878477,14.570366 26.0728666,13.5361438 26.0728666,12.2509706 Z M42.8800744,12.1521111 C42.8800744,14.2205555 42.3163986,15.8555392 41.1877747,17.0557946 C40.1762121,18.1242375 38.92162,18.6578251 37.422726,18.6578251 C35.8054983,18.6578251 34.6425194,18.0836797 33.9363342,16.932854 L33.9363342,23.31436 L31.2235651,23.31436 L31.2235651,10.2180142 C31.2235651,8.91889923 31.1892102,7.58683115 31.1230451,6.22054248 L33.5088059,6.22054248 L33.6602222,8.14830228 L33.7111184,8.14830228 C34.6145265,6.69582842 35.9874523,5.9695915 37.8311683,5.9695915 C39.2702592,5.9695915 40.4726826,6.53613235 41.4371662,7.67048147 C42.3965602,8.80736546 42.8800744,10.300397 42.8800744,12.1521111 Z M40.1151366,12.2509706 C40.1151366,11.0671917 39.846659,10.0912712 39.3097038,9.32194171 C38.7231247,8.52219389 37.9380504,8.12168627 36.9506635,8.12168627 C36.281378,8.12168627 35.6731681,8.3447538 35.127306,8.78455173 C34.5827163,9.22815195 34.2277151,9.80736709 34.06103,10.524732 C33.9783236,10.8593333 33.9337894,11.1318306 33.9337894,11.3472936 L33.9337894,13.3764477 C33.9337894,14.2598458 34.2073566,15.0063616 34.7494015,15.6172625 C35.2939912,16.2243611 36.0014488,16.531079 36.8743191,16.531079 C37.8973334,16.531079 38.692587,16.1369085 39.2600799,15.3549047 C39.8301177,14.570366 40.1151366,13.5361438 40.1151366,12.2509706 Z M58.5815615,13.6514798 C58.5815615,15.0874771 58.0776888,16.2547794 57.0763055,17.1559216 C55.9744021,18.1394466 54.4360635,18.6324766 52.4638346,18.6324766 C50.6417495,18.6324766 49.1810277,18.2826661 48.0791243,17.5817778 L48.7064204,15.3295561 C49.8961198,16.0317119 51.2028805,16.3815223 52.6254301,16.3815223 C53.6484444,16.3815223 54.443698,16.1508502 55.0111909,15.6933083 C55.5799563,15.2344989 55.86752,14.6210632 55.86752,13.8555359 C55.86752,13.1698567 55.6295801,12.5957113 55.1626072,12.1280299 C54.6930895,11.661616 53.916922,11.2268878 52.8264702,10.8276476 C49.8617648,9.72625162 48.3781397,8.11534912 48.3781397,5.99620751 C48.3781397,4.61217483 48.9023708,3.47909313 49.9482884,2.59316013 C50.9942059,1.70849455 52.3811282,1.26616176 54.1065104,1.26616176 C55.6473938,1.26616176 56.9312512,1.53358932 57.9504483,2.06717701 L57.2697112,4.26996895 C56.3103172,3.75285784 55.2274999,3.49430228 54.0161696,3.49430228 C53.0593205,3.49430228 52.3086011,3.72877668 51.7716459,4.19519063 C51.3199418,4.61217483 51.0909088,5.12041394 51.0909088,5.72371023 C51.0909088,6.38911056 51.3517519,6.94170969 51.8708935,7.37517047 C52.3213251,7.77441067 53.1432993,8.20913888 54.3317263,8.67555282 C55.7899033,9.26110511 56.8612689,9.94298202 57.5470956,10.7262533 C58.238012,11.5095245 58.5815615,12.4867124 58.5815615,13.6514798 Z M67.5736531,8.24842919 L64.5834995,8.24842919 L64.5834995,14.1533818 C64.5834995,15.6552854 65.1102755,16.404336 66.1663723,16.404336 C66.6511589,16.404336 67.0532391,16.3637783 67.3713406,16.2788605 L67.4464125,18.3308284 C66.9120021,18.5298148 66.2083617,18.6299417 65.3367637,18.6299417 C64.2653981,18.6299417 63.4281551,18.3042124 62.8237623,17.6527538 C62.2219144,17.0012952 61.9190818,15.9100387 61.9190818,14.3739145 L61.9190818,8.24335947 L60.1377138,8.24335947 L60.1377138,6.21547276 L61.9190818,6.21547276 L61.9190818,3.98859967 L64.5834995,3.18758442 L64.5834995,6.21547276 L67.5736531,6.21547276 L67.5736531,8.24842919 Z M81.0382509,12.2015408 C81.0382509,14.0709989 80.5012957,15.6058556 79.42993,16.8061111 C78.3089405,18.0418546 76.817681,18.6578251 74.9586961,18.6578251 C73.164604,18.6578251 71.7382371,18.0659357 70.6745059,16.8834243 C69.6107747,15.698378 69.0789091,14.2053464 69.0789091,12.4043295 C69.0789091,10.5196623 69.6285884,8.97593354 70.7241298,7.7756781 C71.8222159,6.57415522 73.3007514,5.97339378 75.1597363,5.97339378 C76.9512836,5.97339378 78.3903745,6.56655065 79.4795538,7.75032951 C80.5203818,8.89862036 81.0382509,10.3815125 81.0382509,12.2015408 Z M78.2262342,12.2636449 C78.2262342,11.1495746 77.9844771,10.193933 77.4996905,9.39418518 C76.9309251,8.42840413 76.1165854,7.94551361 75.061761,7.94551361 C73.9751265,7.94551361 73.1417007,8.42840413 72.5742077,9.39418518 C72.0881487,10.193933 71.8463916,11.1660512 71.8463916,12.314342 C71.8463916,13.4296797 72.0881487,14.3878562 72.5742077,15.1850692 C73.1607868,16.1508502 73.9789437,16.6337407 75.0388577,16.6337407 C76.0758684,16.6337407 76.8889357,16.1407108 77.4767872,15.160988 C77.9755702,14.3422287 78.2262342,13.38025 78.2262342,12.2636449 Z M89.8598401,8.59697221 C89.5776924,8.54623329 89.2914907,8.52120374 89.0047834,8.52219389 C88.0504791,8.52219389 87.3124837,8.87960892 86.7933422,9.5995087 C86.3429105,10.2332233 86.1164223,11.0342386 86.1164223,12.001287 L86.1164223,18.382793 L83.4036532,18.382793 L83.4036532,10.0507135 C83.4060725,8.77398556 83.3797695,7.49736392 83.3247641,6.22180991 L85.6876216,6.22180991 L85.7868692,8.5488099 L85.8619412,8.5488099 C86.1495049,7.74906208 86.5999365,7.10394062 87.2183257,6.6210501 C87.7843597,6.19909468 88.4721088,5.97059344 89.179103,5.9695915 C89.4297669,5.9695915 89.6562552,5.98733551 89.8572953,6.01902124 L89.8598401,8.59697221 Z M101.992229,11.7262549 C101.999108,12.1370282 101.965869,12.5474945 101.892981,12.9518589 L93.7546741,12.9518589 C93.7852119,14.1533818 94.1796577,15.0735354 94.9354667,15.70725 C95.6212934,16.2725234 96.5081602,16.5564275 97.5973396,16.5564275 C98.8023078,16.5564275 99.9016664,16.3663132 100.890326,15.9822821 L101.315309,17.8568099 C100.159965,18.3587119 98.7959458,18.6083954 97.2219799,18.6083954 C95.3286401,18.6083954 93.8424701,18.0532614 92.7609252,16.9455283 C91.6819251,15.8365278 91.1411527,14.346031 91.1411527,12.4791078 C91.1411527,10.6464052 91.643753,9.11915304 92.6502259,7.90115359 C93.7037779,6.60077123 95.1276,5.95058006 96.9191473,5.95058006 C98.6788845,5.95058006 100.011093,6.60077123 100.915774,7.90115359 C101.632138,8.93157352 101.992229,10.2091421 101.992229,11.7262549 Z M99.4054281,11.0253665 C99.4245142,10.2230839 99.2463774,9.53233496 98.8786522,8.9480501 C98.4091344,8.19519716 97.686408,7.82003812 96.7181072,7.82003812 C95.8312403,7.82003812 95.1085139,8.18632515 94.5588346,8.92143409 C94.1071305,9.50571894 93.8386529,10.2078747 93.7559465,11.0228317 L99.4054281,11.0253665 Z" id="Shape"></path>
            </g>
            <g transform="translate(54.713448, 7.604575)" fill="#FFFFFF" fill-rule="nonzero">
                <path d="M2.81328915,9.49431208 C2.05875253,9.49431208 1.40600837,9.45755663 0.86269111,9.3954526 L0.86269111,1.24081318 C1.62258277,1.12388666 2.39048178,1.06625464 3.15938352,1.06844281 C6.27041562,1.06844281 7.70314451,2.59316013 7.70314451,5.07858877 C7.70314451,7.94551361 6.01084484,9.49431208 2.81328915,9.49431208 Z M3.26881042,2.11407189 C2.84891651,2.11407189 2.49137049,2.13942048 2.19489995,2.20025708 L2.19489995,8.39925326 C2.35522307,8.42460184 2.66314527,8.43600871 3.09576323,8.43600871 C5.13415727,8.43600871 6.29459133,7.28011328 6.29459133,5.11534422 C6.29459133,3.18504956 5.24485657,2.11407189 3.26881042,2.11407189 Z M12.1680164,9.55641611 C10.4146412,9.55641611 9.27838285,8.25223147 9.27838285,6.48163289 C9.27838285,4.63625599 10.4388169,3.32066448 12.267264,3.32066448 C13.995191,3.32066448 15.1568975,4.56274509 15.1568975,6.38404084 C15.1568975,8.25223147 13.9595637,9.55641611 12.1680164,9.55641611 Z M12.2189126,4.29151525 C11.2557014,4.29151525 10.6385846,5.18885511 10.6385846,6.44361001 C10.6385846,7.67428376 11.2684255,8.57162363 12.2061885,8.57162363 C13.1439516,8.57162363 13.7737924,7.61217973 13.7737924,6.41826143 C13.7737924,5.20152941 13.1566756,4.29151525 12.2189126,4.29151525 Z M25.155462,3.44360512 L23.2786635,9.42080119 L22.0558816,9.42080119 L21.2784416,6.8251062 C21.0851363,6.19018178 20.9241835,5.54592776 20.7961999,4.89481154 L20.7707517,4.89481154 C20.6727765,5.54627015 20.4870053,6.19899618 20.2897824,6.8251062 L19.4627186,9.42080119 L18.2272126,9.42080119 L16.4611134,3.44360512 L17.8314944,3.44360512 L18.5109591,6.28518137 C18.6712822,6.96198855 18.8061572,7.60077287 18.9181289,8.20406916 L18.9435771,8.20406916 C19.0415523,7.70089977 19.2018754,7.07225489 19.4372705,6.29785566 L20.2897824,3.44487255 L21.3764169,3.44487255 L22.192029,6.23701906 C22.3892519,6.91382625 22.549575,7.57795914 22.6742708,8.20533659 L22.7098981,8.20533659 C22.7964217,7.59063343 22.9325691,6.9379074 23.117068,6.23701906 L23.8461565,3.44487255 L25.155462,3.44360512 Z M32.0646253,9.42080119 L30.7311441,9.42080119 L30.7311441,5.98860293 C30.7311441,4.93156699 30.3239742,4.40178159 29.5210862,4.40178159 C28.7309222,4.40178159 28.187605,5.07858877 28.187605,5.8656623 L28.187605,9.42080119 L26.8541237,9.42080119 L26.8541237,5.15209967 C26.8541237,4.62358169 26.8413997,4.05704085 26.8044999,3.44233769 L27.977658,3.44233769 L28.0400059,4.36502614 L28.0769057,4.36502614 C28.4357241,3.72624183 29.1635402,3.32066448 29.9791523,3.32066448 C31.238834,3.32066448 32.0658977,4.28010838 32.0658977,5.84158115 L32.0646253,9.42080119 Z M35.741878,9.42080119 L34.4071243,9.42080119 L34.4071243,0.700888343 L35.741878,0.700888343 L35.741878,9.42080119 Z M40.6037404,9.55641611 C38.8516377,9.55641611 37.7141069,8.25223147 37.7141069,6.48163289 C37.7141069,4.63625599 38.874541,3.32066448 40.7017157,3.32066448 C42.4309151,3.32066448 43.5913492,4.56274509 43.5913492,6.38404084 C43.5926216,8.25223147 42.3940153,9.55641611 40.6037404,9.55641611 Z M40.6533643,4.29151525 C39.6901531,4.29151525 39.0730363,5.18885511 39.0730363,6.44361001 C39.0730363,7.67428376 39.7041496,8.57162363 40.6393678,8.57162363 C41.5784033,8.57162363 42.2069717,7.61217973 42.2069717,6.41826143 C42.2082441,5.20152941 41.5923997,4.29151525 40.6533643,4.29151525 Z M48.8489298,9.42080119 L48.752227,8.73258714 L48.7165996,8.73258714 C48.3094298,9.28645369 47.7152163,9.55641611 46.9619521,9.55641611 C45.8867692,9.55641611 45.1233257,8.80609803 45.1233257,7.79722439 C45.1233257,6.32193681 46.4071831,5.55894444 48.630076,5.55894444 L48.630076,5.4486781 C48.630076,4.66160457 48.2114545,4.26743409 47.3843908,4.26743409 C46.7927221,4.26743409 46.2735805,4.41572331 45.8167869,4.71103431 L45.5457644,3.8377756 C46.1005333,3.49303485 46.7927221,3.32066448 47.6057894,3.32066448 C49.1733933,3.32066448 49.9648297,4.14449346 49.9648297,5.79341884 L49.9648297,7.99494335 C49.9648297,8.59823964 49.9915502,9.06592101 50.0513533,9.42206862 L48.8489298,9.42080119 Z M48.6657034,6.44361001 C47.1846231,6.44361001 46.4415381,6.80102505 46.4415381,7.64893518 C46.4415381,8.27631263 46.8245322,8.58303049 47.3563978,8.58303049 C48.0345901,8.58303049 48.6657034,8.06718681 48.6657034,7.36629847 L48.6657034,6.44361001 Z M56.4401026,9.42080119 L56.3777547,8.46135729 L56.340855,8.46135729 C55.9578608,9.18632679 55.3140235,9.55641611 54.4144326,9.55641611 C52.9677073,9.55641611 51.8963416,8.28898692 51.8963416,6.50571405 C51.8963416,4.63625599 53.0071519,3.31939706 54.5238595,3.31939706 C55.3267476,3.31939706 55.8955129,3.58935947 56.2161592,4.13181917 L56.2428797,4.13181917 L56.2428797,0.700888343 L57.5776334,0.700888343 L57.5776334,7.80989868 C57.5776334,8.3878464 57.5916298,8.92903866 57.6272572,9.42080119 L56.4401026,9.42080119 Z M56.2428797,5.90368518 C56.2428797,5.06718191 55.6868384,4.35361928 54.8381438,4.35361928 C53.8494845,4.35361928 53.2450917,5.22687799 53.2450917,6.45628431 C53.2450917,7.66160947 53.8723878,8.48670587 54.8114232,8.48670587 C55.6499386,8.48670587 56.2428797,7.76046895 56.2428797,6.89988452 L56.2428797,5.90368518 Z M66.0404041,9.55641611 C64.2883014,9.55641611 63.152043,8.25223147 63.152043,6.48163289 C63.152043,4.63625599 64.3124771,3.32066448 66.1396518,3.32066448 C67.8688512,3.32066448 69.0292853,4.56274509 69.0292853,6.38404084 C69.0305577,8.25223147 67.8332238,9.55641611 66.0404041,9.55641611 Z M66.0900279,4.29151525 C65.1280892,4.29151525 64.5109724,5.18885511 64.5109724,6.44361001 C64.5109724,7.67428376 65.1408132,8.57162363 66.0773039,8.57162363 C67.0163393,8.57162363 67.6449078,7.61217973 67.6449078,6.41826143 C67.6474526,5.20152941 67.0303358,4.29151525 66.0900279,4.29151525 Z M76.2005642,9.42080119 L74.8658105,9.42080119 L74.8658105,5.98860293 C74.8658105,4.93156699 74.4586407,4.40178159 73.6557526,4.40178159 C72.8655887,4.40178159 72.3235438,5.07858877 72.3235438,5.8656623 L72.3235438,9.42080119 L70.9887902,9.42080119 L70.9887902,5.15209967 C70.9887902,4.62358169 70.9760661,4.05704085 70.9391663,3.44233769 L72.1123244,3.44233769 L72.1746723,4.36502614 L72.2115721,4.36502614 C72.5691181,3.72624183 73.2982066,3.31939706 74.1125463,3.31939706 C75.372228,3.31939706 76.2005642,4.27884095 76.2005642,5.84031372 L76.2005642,9.42080119 Z M85.1722972,4.43980446 L83.7052134,4.43980446 L83.7052134,7.34221731 C83.7052134,8.08112853 83.9622394,8.44995043 84.4813809,8.44995043 C84.716776,8.44995043 84.9139989,8.42460184 85.0730496,8.3878464 L85.1099494,9.39672003 C84.851651,9.49557951 84.5055566,9.54500925 84.0754835,9.54500925 C83.0244763,9.54500925 82.3959079,8.96706154 82.3959079,7.45375108 L82.3959079,4.43980446 L81.5204927,4.43980446 L81.5204927,3.44360512 L82.3959079,3.44360512 L82.3959079,2.34854629 L83.7052134,1.95437581 L83.7052134,3.44233769 L85.1722972,3.44233769 L85.1722972,4.43980446 Z M92.2316044,9.42080119 L90.8993956,9.42080119 L90.8993956,6.01395152 C90.8993956,4.94424128 90.4934982,4.40304901 89.6893377,4.40304901 C88.9984214,4.40304901 88.3545841,4.87073039 88.3545841,5.81749999 L88.3545841,9.42080119 L87.0223752,9.42080119 L87.0223752,0.700888343 L88.3545841,0.700888343 L88.3545841,4.29151525 L88.3813046,4.29151525 C88.8011985,3.64005664 89.4094084,3.31939706 90.185576,3.31939706 C91.4554369,3.31939706 92.2316044,4.30292211 92.2316044,5.8656623 L92.2316044,9.42080119 Z M99.4639588,6.75159531 L95.4622427,6.75159531 C95.4876908,7.88340958 96.2396826,8.52219389 97.3530376,8.52219389 C97.9447063,8.52219389 98.489296,8.42333441 98.9702654,8.23955718 L99.1776675,9.16224563 C98.6101745,9.4081269 97.9421615,9.53106753 97.1647216,9.53106753 C95.2879231,9.53106753 94.1771129,8.34982352 94.1771129,6.51838834 C94.1771129,4.68568572 95.3146436,3.30799019 97.0145777,3.30799019 C98.5478267,3.30799019 99.5097654,4.43980446 99.5097654,6.14956644 C99.5183881,6.35133994 99.5030123,6.55342103 99.4639588,6.75159531 Z M98.2411769,5.8048257 C98.2411769,4.88213725 97.774204,4.23067864 96.9216921,4.23067864 C96.1557038,4.23067864 95.5500387,4.89481154 95.4635151,5.8048257 L98.2411769,5.8048257 Z" id="Shape"></path>
            </g>
        </g>
    </g>
</svg>