<?xml version="1.0" encoding="UTF-8" standalone="no"?><!-- Generator: Gravit.io --><svg xmlns="http://www.w3.org/2000/svg" xmlns:xlink="http://www.w3.org/1999/xlink" style="isolation:isolate" viewBox="0 0 128 128" width="128pt" height="128pt"><defs><clipPath id="_clipPath_ngc5fTUc0CwxrwxDO4MhalcSqaqtcphD"><rect width="128" height="128"/></clipPath></defs><g clip-path="url(#_clipPath_ngc5fTUc0CwxrwxDO4MhalcSqaqtcphD)"><g><path d=" M 26.331 75.699 C 17.037 65.563 17.723 49.752 27.857 40.456 C 32.47 36.228 38.454 33.899 44.705 33.899 C 51.682 33.899 58.387 36.846 63.098 41.983 C 70.93 50.525 71.655 63.079 65.631 72.385 L 65.587 72.385 C 63.914 75.015 61.744 77.281 59.218 79.12 L 59.209 79.113 C 54.997 82.127 49.96 83.782 44.725 83.782 C 37.747 83.782 31.044 80.834 26.331 75.699 Z  M 67.922 87.314 C 69.244 86.225 70.489 85.054 71.642 83.798 L 71.653 83.808 C 84.53 69.933 84.806 48.2 71.792 34.01 C 64.851 26.444 54.979 22.102 44.705 22.102 C 35.495 22.102 26.681 25.532 19.885 31.762 C 6.196 44.318 4.22 64.935 14.539 79.784 C 14.6 79.874 14.655 79.968 14.717 80.059 L 14.714 80.058 C 14.714 80.058 29.855 109.247 87.598 105.834 L 67.922 87.314 Z " fill="rgb(40,37,106)"/><path d=" M 87.736 28.202 L 87.736 49.725 L 87.742 49.732 C 87.726 51.071 87.869 52.412 88.184 53.723 L 88.184 53.723 C 88.203 53.806 88.225 53.889 88.246 53.971 L 88.246 53.971 C 88.301 54.187 88.356 54.404 88.42 54.619 L 88.42 54.619 C 88.521 54.953 88.628 55.285 88.751 55.615 L 88.751 55.615 C 88.757 55.633 88.765 55.652 88.772 55.671 L 88.772 55.671 C 88.879 55.956 88.995 56.238 89.118 56.518 L 89.118 56.518 C 89.13 56.546 89.142 56.575 89.155 56.603 L 89.155 56.603 C 89.262 56.845 89.381 57.082 89.502 57.321 L 89.502 57.321 C 89.585 57.482 89.67 57.641 89.759 57.8 L 89.759 57.8 C 89.794 57.864 89.831 57.928 89.867 57.99 L 89.867 57.99 C 90.094 58.385 90.336 58.772 90.598 59.149 L 90.598 59.149 C 90.626 59.19 90.649 59.23 90.677 59.271 L 90.677 59.271 L 90.675 59.271 C 90.675 59.271 90.682 59.284 90.687 59.291 L 90.687 59.291 C 91.079 59.847 91.509 60.384 91.981 60.897 L 91.981 60.897 C 95.031 64.224 99.371 66.132 103.886 66.132 L 103.886 66.132 C 107.626 66.132 111.215 64.843 114.095 62.49 L 114.095 62.49 L 114.063 62.459 C 114.643 61.982 115.191 61.466 115.698 60.914 L 115.698 60.914 L 115.703 60.918 C 117.637 58.834 118.924 56.345 119.552 53.723 L 119.552 53.723 C 120.762 48.676 119.528 43.135 115.764 39.03 L 115.764 39.03 C 112.713 35.704 108.374 33.795 103.857 33.795 L 103.857 33.795 C 99.81 33.795 95.844 35.304 92.857 38.042 L 92.857 38.042 L 92.857 21.888 L 87.736 28.202 Z  M 95.782 57.354 C 95.283 56.809 94.851 56.227 94.482 55.617 L 94.482 55.617 C 94.114 55.01 93.814 54.375 93.575 53.723 L 93.575 53.723 C 92.095 49.675 93.084 44.952 96.452 41.863 L 96.452 41.863 C 98.48 40.005 101.11 38.981 103.857 38.981 L 103.857 38.981 C 106.924 38.981 109.872 40.276 111.942 42.534 L 111.942 42.534 C 115.385 46.289 115.703 51.808 113.055 55.897 L 113.055 55.897 L 113.036 55.897 C 112.301 57.054 111.348 58.05 110.236 58.857 L 110.236 58.857 L 110.233 58.854 C 108.382 60.18 106.168 60.906 103.866 60.906 L 103.866 60.906 C 100.8 60.906 97.853 59.611 95.782 57.354" fill="rgb(40,37,106)"/></g></g></svg>