<?xml version="1.0" encoding="UTF-8" standalone="no"?><svg xmlns="http://www.w3.org/2000/svg" xmlns:xlink="http://www.w3.org/1999/xlink" style="isolation:isolate" viewBox="0 0 128 128" width="128pt" height="128pt"><defs><clipPath id="_clipPath_KJFwfO9ALLRutJRKpwP7JhvVloaYXxcS"><rect width="128" height="128"/></clipPath></defs><g clip-path="url(#_clipPath_KJFwfO9ALLRutJRKpwP7JhvVloaYXxcS)"><path d=" M 119.003 74.358 L 117.896 72.229 C 120.409 70.799 121.791 67.977 121.381 65.115 C 120.972 62.253 118.853 59.932 116.04 59.264 C 113.227 58.596 110.291 59.716 108.638 62.088 L 54.097 62.088 L 66.61 44.533 C 67.364 43.473 68.585 42.843 69.887 42.843 L 77.399 42.843 C 79.035 45.245 81.978 46.395 84.809 45.74 C 87.64 45.084 89.779 42.758 90.193 39.881 C 90.607 37.005 89.212 34.169 86.681 32.742 L 87.795 30.605 C 94.01 28.373 97.72 21.995 96.587 15.49 C 95.454 8.984 89.807 4.235 83.203 4.235 C 76.6 4.235 70.953 8.984 69.82 15.49 C 68.687 21.995 72.397 28.373 78.612 30.605 L 79.726 32.742 C 78.831 33.253 78.059 33.953 77.462 34.792 L 69.887 34.792 C 65.983 34.796 62.32 36.684 60.053 39.863 L 44.216 62.088 L 23.385 62.088 C 22.78 61.224 21.989 60.506 21.071 59.987 L 22.201 57.82 C 28.416 55.588 32.126 49.21 30.993 42.705 C 29.86 36.199 24.213 31.45 17.609 31.45 C 11.006 31.45 5.359 36.199 4.226 42.705 C 3.093 49.21 6.803 55.588 13.018 57.82 L 14.148 59.987 C 11.616 61.406 10.214 64.233 10.616 67.107 C 11.018 69.981 13.141 72.314 15.965 72.985 C 18.789 73.655 21.735 72.525 23.385 70.138 L 84.617 70.138 L 71.901 87.989 C 71.144 89.048 69.923 89.676 68.622 89.677 L 51.583 89.677 C 49.961 87.306 47.06 86.158 44.255 86.777 C 41.449 87.397 39.302 89.659 38.829 92.493 C 38.357 95.327 39.654 98.164 42.106 99.66 L 41.188 101.42 C 34.973 103.652 31.263 110.03 32.396 116.536 C 33.529 123.041 39.176 127.79 45.779 127.79 C 52.383 127.79 58.03 123.041 59.163 116.536 C 60.296 110.03 56.586 103.652 50.371 101.42 L 49.453 99.66 C 50.265 99.161 50.968 98.504 51.52 97.728 L 68.622 97.728 C 72.526 97.724 76.188 95.837 78.457 92.66 L 94.503 70.138 L 108.638 70.138 C 109.238 70.996 110.021 71.71 110.93 72.229 L 109.823 74.358 C 103.607 76.59 99.898 82.968 101.03 89.473 C 102.163 95.979 107.81 100.728 114.414 100.728 C 121.018 100.728 126.665 95.979 127.797 89.473 C 128.93 82.968 125.22 76.59 119.005 74.358 L 119.003 74.358 Z " fill="rgb(230,231,232)"/><path d=" M 104.351 62.088 C 104.352 61.027 104.633 59.986 105.167 59.069 L 48.123 59.069 L 61.764 39.925 C 62.709 38.6 64.235 37.813 65.862 37.811 L 73.929 37.811 C 72.859 35.936 72.879 33.63 73.981 31.774 L 65.862 31.774 C 62.283 31.777 58.925 33.508 56.847 36.422 L 40.709 59.069 L 18.811 59.069 C 19.896 60.935 19.896 63.241 18.811 65.107 L 82.545 65.107 L 68.695 84.547 C 67.751 85.873 66.224 86.66 64.597 86.661 L 47.003 86.661 C 48.073 88.536 48.054 90.841 46.953 92.698 L 64.597 92.698 C 68.176 92.695 71.533 90.964 73.611 88.05 L 89.961 65.107 L 105.165 65.107 C 104.632 64.19 104.351 63.148 104.351 62.088 Z " fill="rgb(0,137,239)"/><circle vector-effect="non-scaling-stroke" cx="41.754222795606616" cy="89.6362161332331" r="6.037733427516038" fill="rgb(109,201,247)"/><circle vector-effect="non-scaling-stroke" cx="79.17810715716021" cy="34.83472867838377" r="6.037733427516045" fill="rgb(109,201,247)"/><circle vector-effect="non-scaling-stroke" cx="13.587190067339701" cy="62.08905737019117" r="6.037733427516041" fill="rgb(109,201,247)"/><circle vector-effect="non-scaling-stroke" cx="110.38614495508604" cy="62.08905737019117" r="6.037733427516045" fill="rgb(109,201,247)"/><path d=" M 91.757 13.798 C 91.757 7.36 86.896 1.961 80.493 1.288 C 74.09 0.615 68.212 4.885 66.874 11.183 C 65.536 17.481 69.169 23.772 75.293 25.761 L 79.178 33.208 L 83.063 25.761 C 88.247 24.078 91.756 19.248 91.757 13.798 Z " fill="rgb(150,70,95)"/><path d=" M 79.178 4.239 C 85.538 4.243 90.893 8.994 91.656 15.308 C 92.272 10.471 90.037 5.715 85.921 3.101 C 81.806 0.488 76.551 0.488 72.435 3.101 C 68.319 5.715 66.085 10.471 66.7 15.308 C 67.463 8.994 72.819 4.243 79.178 4.239 L 79.178 4.239 Z " fill="rgb(255,255,255)"/><path d=" M 26.163 41.013 C 26.165 34.574 21.304 29.173 14.9 28.5 C 8.496 27.826 2.618 32.098 1.28 38.396 C -0.058 44.695 3.577 50.987 9.702 52.974 L 13.587 60.421 L 17.472 52.974 C 22.654 51.29 26.162 46.462 26.163 41.013 Z " fill="rgb(150,70,95)"/><path d=" M 122.968 83.119 C 122.967 89.557 118.105 94.955 111.703 95.627 C 105.301 96.299 99.424 92.029 98.085 85.733 C 96.747 79.436 100.379 73.145 106.501 71.155 L 110.386 63.708 L 114.271 71.155 C 119.457 72.837 122.968 77.668 122.968 83.119 L 122.968 83.119 Z " fill="rgb(250,117,158)"/><path d=" M 54.333 110.177 C 54.333 116.615 49.472 122.014 43.069 122.687 C 36.666 123.36 30.788 119.089 29.45 112.792 C 28.112 106.494 31.745 100.202 37.869 98.214 L 41.754 90.767 L 45.64 98.214 C 50.823 99.897 54.333 104.727 54.333 110.177 Z " fill="rgb(150,70,95)"/><path d=" M 61.351 66.113 C 61.906 66.113 62.357 65.663 62.357 65.107 C 62.357 64.551 61.906 64.101 61.351 64.101 L 53.426 64.101 C 52.87 64.101 52.42 64.551 52.42 65.107 C 52.42 65.663 52.87 66.113 53.426 66.113 L 61.351 66.113 Z " fill="rgb(58,44,96)"/><path d=" M 114.978 70.333 L 113.871 68.201 C 116.382 66.77 117.762 63.95 117.352 61.089 C 116.942 58.228 114.825 55.909 112.013 55.241 C 109.201 54.573 106.267 55.692 104.614 58.063 L 50.073 58.063 L 62.584 40.508 C 63.34 39.449 64.561 38.82 65.862 38.819 L 73.375 38.819 C 75.013 41.211 77.951 42.354 80.775 41.698 C 83.599 41.042 85.732 38.721 86.148 35.851 C 86.563 32.982 85.176 30.151 82.654 28.721 L 83.77 26.58 C 89.985 24.348 93.694 17.97 92.562 11.464 C 91.429 4.959 85.782 0.21 79.178 0.21 C 72.574 0.21 66.927 4.959 65.795 11.464 C 64.662 17.97 68.371 24.348 74.586 26.58 L 75.702 28.721 C 74.809 29.231 74.037 29.93 73.44 30.768 L 65.862 30.768 C 61.958 30.772 58.295 32.66 56.027 35.838 L 40.189 58.063 L 19.36 58.063 C 18.754 57.2 17.963 56.484 17.046 55.965 L 18.178 53.794 C 24.393 51.562 28.103 45.184 26.97 38.678 C 25.837 32.173 20.19 27.424 13.586 27.424 C 6.983 27.424 1.335 32.173 0.203 38.678 C -0.93 45.184 2.78 51.562 8.994 53.794 L 10.127 55.965 C 7.605 57.387 6.211 60.207 6.614 63.074 C 7.017 65.941 9.134 68.268 11.95 68.94 C 14.766 69.611 17.706 68.49 19.359 66.113 L 49.129 66.113 C 49.685 66.113 50.136 65.663 50.136 65.107 C 50.136 64.551 49.685 64.101 49.129 64.101 L 20.334 64.101 C 20.732 62.788 20.73 61.387 20.328 60.075 L 40.709 60.075 C 41.034 60.075 41.339 59.918 41.528 59.653 L 57.667 37.005 C 59.556 34.356 62.608 32.782 65.862 32.779 L 72.446 32.779 C 72.039 34.088 72.03 35.489 72.42 36.804 L 65.862 36.804 C 63.91 36.806 62.078 37.75 60.944 39.339 L 47.303 58.487 C 47.084 58.793 47.056 59.197 47.228 59.532 C 47.401 59.866 47.746 60.077 48.123 60.076 L 103.639 60.076 C 103.241 61.389 103.243 62.79 103.645 64.102 L 89.961 64.102 C 89.636 64.102 89.331 64.259 89.142 64.524 L 72.795 87.468 C 70.905 90.116 67.854 91.69 64.6 91.694 L 48.49 91.694 C 48.893 90.384 48.901 88.984 48.512 87.669 L 64.597 87.669 C 66.549 87.666 68.38 86.721 69.515 85.132 L 83.364 65.692 C 83.583 65.385 83.612 64.982 83.439 64.647 C 83.267 64.312 82.922 64.102 82.545 64.102 L 65.879 64.102 C 65.323 64.102 64.873 64.552 64.873 65.108 C 64.873 65.664 65.323 66.114 65.879 66.114 L 80.592 66.114 L 67.875 83.963 C 67.119 85.022 65.899 85.652 64.597 85.653 L 47.558 85.653 C 45.938 83.276 43.033 82.123 40.223 82.742 C 37.413 83.361 35.262 85.627 34.79 88.466 C 34.318 91.304 35.62 94.145 38.078 95.64 L 37.164 97.395 C 30.948 99.627 27.238 106.005 28.371 112.51 C 29.504 119.016 35.151 123.765 41.755 123.765 C 48.358 123.765 54.006 119.016 55.138 112.51 C 56.271 106.005 52.561 99.627 46.346 97.395 L 45.43 95.639 C 46.239 95.138 46.938 94.48 47.487 93.704 L 64.594 93.704 C 68.498 93.7 72.16 91.813 74.428 88.636 L 90.478 66.113 L 104.614 66.113 C 105.215 66.969 105.998 67.682 106.906 68.2 L 105.799 70.332 C 99.585 72.564 95.875 78.942 97.008 85.447 C 98.14 91.953 103.788 96.702 110.391 96.702 C 116.995 96.702 122.642 91.953 123.775 85.447 C 124.908 78.942 121.198 72.564 114.983 70.332 L 114.978 70.333 Z  M 2.012 41.013 C 2.011 35.09 6.482 30.123 12.372 29.502 C 18.262 28.882 23.67 32.809 24.903 38.603 C 26.136 44.396 22.795 50.185 17.163 52.016 C 16.911 52.097 16.702 52.274 16.58 52.508 L 13.587 58.244 L 10.593 52.508 C 10.472 52.274 10.263 52.098 10.012 52.016 C 5.237 50.477 2.003 46.03 2.012 41.013 Z  M 13.584 67.119 C 11.311 67.13 9.316 65.609 8.726 63.414 C 8.135 61.219 9.097 58.902 11.068 57.771 L 12.694 60.891 C 12.867 61.223 13.211 61.432 13.586 61.432 C 13.961 61.432 14.305 61.223 14.479 60.891 L 16.104 57.771 C 18.075 58.902 19.037 61.219 18.447 63.414 C 17.856 65.609 15.861 67.13 13.588 67.119 L 13.584 67.119 Z  M 67.606 13.798 C 67.604 7.875 72.076 2.906 77.966 2.286 C 83.857 1.666 89.266 5.594 90.497 11.388 C 91.729 17.182 88.387 22.971 82.753 24.801 C 82.503 24.882 82.294 25.059 82.172 25.293 L 79.178 31.029 L 76.184 25.293 C 76.063 25.059 75.854 24.882 75.603 24.801 C 70.829 23.261 67.597 18.814 67.606 13.798 Z  M 76.645 30.527 L 78.286 33.673 C 78.459 34.006 78.803 34.215 79.178 34.215 C 79.553 34.215 79.897 34.006 80.071 33.673 L 81.711 30.527 C 83.675 31.671 84.628 33.991 84.036 36.186 C 83.443 38.381 81.452 39.906 79.178 39.906 C 76.905 39.906 74.913 38.381 74.321 36.186 C 73.728 33.991 74.681 31.671 76.645 30.527 L 76.645 30.527 Z  M 53.327 110.177 C 53.328 116.1 48.857 121.069 42.966 121.689 C 37.075 122.309 31.666 118.381 30.435 112.586 C 29.203 106.792 32.546 101.003 38.18 99.174 C 38.431 99.092 38.64 98.916 38.762 98.682 L 41.754 92.946 L 44.748 98.682 C 44.87 98.915 45.078 99.092 45.329 99.174 C 50.102 100.714 53.335 105.161 53.327 110.177 L 53.327 110.177 Z  M 42.647 90.301 C 42.456 89.991 42.118 89.802 41.754 89.802 C 41.39 89.802 41.052 89.991 40.862 90.301 L 39.021 93.832 C 37.149 92.621 36.298 90.322 36.929 88.183 C 37.561 86.045 39.525 84.577 41.755 84.577 C 43.985 84.577 45.948 86.045 46.58 88.183 C 47.212 90.322 46.36 92.621 44.488 93.832 L 42.647 90.301 Z  M 105.358 62.088 C 105.339 59.645 107.078 57.541 109.481 57.1 C 111.884 56.659 114.257 58.008 115.107 60.299 C 115.956 62.59 115.037 65.16 112.927 66.393 L 111.282 63.238 C 111.091 62.928 110.754 62.739 110.39 62.739 C 110.026 62.739 109.688 62.928 109.498 63.238 L 107.851 66.393 C 106.313 65.504 105.363 63.865 105.358 62.088 Z  M 110.389 94.686 C 104.701 94.68 99.86 90.541 98.971 84.923 C 98.081 79.305 101.407 73.873 106.815 72.111 C 107.066 72.029 107.275 71.853 107.396 71.619 L 110.389 65.883 L 113.383 71.619 C 113.505 71.852 113.713 72.029 113.964 72.111 C 119.382 73.866 122.717 79.303 121.826 84.929 C 120.936 90.554 116.085 94.695 110.389 94.692 L 110.389 94.686 Z " fill="rgb(58,44,96)"/><path d=" M 20.075 37.938 L 20.075 37.938 Q 20.255 37.938 20.35 38.033 L 20.35 38.033 L 20.35 38.033 Q 20.445 38.128 20.445 38.278 L 20.445 38.278 L 20.445 38.278 Q 20.445 38.418 20.355 38.588 L 20.355 38.588 L 17.035 44.838 L 17.035 44.838 Q 16.915 45.058 16.685 45.058 L 16.685 45.058 L 16.685 45.058 Q 16.525 45.058 16.4 44.948 L 16.4 44.948 L 16.4 44.948 Q 16.275 44.838 16.275 44.678 L 16.275 44.678 L 16.275 44.678 Q 16.275 44.568 16.345 44.458 L 16.345 44.458 L 19.465 38.628 L 16.015 38.628 L 16.015 38.628 Q 15.835 38.628 15.74 38.538 L 15.74 38.538 L 15.74 38.538 Q 15.645 38.448 15.645 38.288 L 15.645 38.288 L 15.645 38.288 Q 15.645 38.118 15.74 38.028 L 15.74 38.028 L 15.74 38.028 Q 15.835 37.938 16.015 37.938 L 16.015 37.938 L 20.075 37.938 L 20.075 37.938 Z  M 9.755 45.068 L 9.755 45.068 Q 8.545 45.068 7.915 44.148 L 7.915 44.148 L 7.915 44.148 Q 7.285 43.228 7.285 41.468 L 7.285 41.468 L 7.285 41.468 Q 7.285 39.698 7.915 38.778 L 7.915 38.778 L 7.915 38.778 Q 8.545 37.858 9.755 37.858 L 9.755 37.858 L 9.755 37.858 Q 10.965 37.858 11.595 38.773 L 11.595 38.773 L 11.595 38.773 Q 12.225 39.688 12.225 41.458 L 12.225 41.458 L 12.225 41.458 Q 12.225 43.228 11.595 44.148 L 11.595 44.148 L 11.595 44.148 Q 10.965 45.068 9.755 45.068 L 9.755 45.068 L 9.755 45.068 Z  M 9.755 44.378 L 9.755 44.378 Q 10.595 44.378 10.995 43.668 L 10.995 43.668 L 10.995 43.668 Q 11.395 42.958 11.395 41.458 L 11.395 41.458 L 11.395 41.458 Q 11.395 39.948 11 39.248 L 11 39.248 L 11 39.248 Q 10.605 38.548 9.755 38.548 L 9.755 38.548 L 9.755 38.548 Q 8.915 38.548 8.515 39.253 L 8.515 39.253 L 8.515 39.253 Q 8.115 39.958 8.115 41.458 L 8.115 41.458 L 8.115 41.458 Q 8.115 42.958 8.515 43.668 L 8.515 43.668 L 8.515 43.668 Q 8.915 44.378 9.755 44.378 L 9.755 44.378 L 9.755 44.378 Z  M 13.905 45.038 L 13.905 45.038 Q 13.665 45.038 13.505 44.883 L 13.505 44.883 L 13.505 44.883 Q 13.345 44.728 13.345 44.478 L 13.345 44.478 L 13.345 44.478 Q 13.345 44.228 13.505 44.068 L 13.505 44.068 L 13.505 44.068 Q 13.665 43.908 13.905 43.908 L 13.905 43.908 L 13.905 43.908 Q 14.135 43.908 14.29 44.068 L 14.29 44.068 L 14.29 44.068 Q 14.445 44.228 14.445 44.478 L 14.445 44.478 L 14.445 44.478 Q 14.445 44.728 14.29 44.883 L 14.29 44.883 L 14.29 44.883 Q 14.135 45.038 13.905 45.038 L 13.905 45.038 L 13.905 45.038 Z " fill="rgb(255,255,255)"/><path d=" M 82.102 9.958 L 82.102 9.958 Q 83.382 9.958 84.077 10.848 L 84.077 10.848 L 84.077 10.848 Q 84.772 11.738 84.772 13.388 L 84.772 13.388 L 84.772 13.388 Q 84.772 14.568 84.452 15.418 L 84.452 15.418 L 84.452 15.418 Q 84.132 16.268 83.522 16.718 L 83.522 16.718 L 83.522 16.718 Q 82.912 17.168 82.072 17.168 L 82.072 17.168 L 82.072 17.168 Q 81.502 17.168 80.937 16.948 L 80.937 16.948 L 80.937 16.948 Q 80.372 16.728 79.972 16.348 L 79.972 16.348 L 79.972 16.348 Q 79.802 16.188 79.802 16.008 L 79.802 16.008 L 79.802 16.008 Q 79.802 15.858 79.882 15.758 L 79.882 15.758 L 79.882 15.758 Q 79.962 15.658 80.072 15.658 L 80.072 15.658 L 80.072 15.658 Q 80.212 15.658 80.362 15.768 L 80.362 15.768 L 80.362 15.768 Q 81.232 16.478 82.052 16.478 L 82.052 16.478 L 82.052 16.478 Q 82.942 16.478 83.442 15.668 L 83.442 15.668 L 83.442 15.668 Q 83.942 14.858 83.942 13.398 L 83.942 13.398 L 83.942 13.268 L 83.942 13.268 Q 83.712 13.828 83.197 14.148 L 83.197 14.148 L 83.197 14.148 Q 82.682 14.468 82.032 14.468 L 82.032 14.468 L 82.032 14.468 Q 81.392 14.468 80.892 14.188 L 80.892 14.188 L 80.892 14.188 Q 80.392 13.908 80.112 13.398 L 80.112 13.398 L 80.112 13.398 Q 79.832 12.888 79.832 12.228 L 79.832 12.228 L 79.832 12.228 Q 79.832 11.578 80.122 11.058 L 80.122 11.058 L 80.122 11.058 Q 80.412 10.538 80.932 10.248 L 80.932 10.248 L 80.932 10.248 Q 81.452 9.958 82.102 9.958 L 82.102 9.958 L 82.102 9.958 Z  M 82.152 13.778 L 82.152 13.778 Q 82.842 13.778 83.277 13.343 L 83.277 13.343 L 83.277 13.343 Q 83.712 12.908 83.712 12.218 L 83.712 12.218 L 83.712 12.218 Q 83.712 11.518 83.277 11.083 L 83.277 11.083 L 83.277 11.083 Q 82.842 10.648 82.142 10.648 L 82.142 10.648 L 82.142 10.648 Q 81.462 10.648 81.052 11.078 L 81.052 11.078 L 81.052 11.078 Q 80.642 11.508 80.642 12.218 L 80.642 12.218 L 80.642 12.218 Q 80.642 12.928 81.057 13.353 L 81.057 13.353 L 81.057 13.353 Q 81.472 13.778 82.152 13.778 L 82.152 13.778 L 82.152 13.778 Z  M 74.032 17.168 L 74.032 17.168 Q 72.822 17.168 72.192 16.248 L 72.192 16.248 L 72.192 16.248 Q 71.562 15.328 71.562 13.568 L 71.562 13.568 L 71.562 13.568 Q 71.562 11.798 72.192 10.878 L 72.192 10.878 L 72.192 10.878 Q 72.822 9.958 74.032 9.958 L 74.032 9.958 L 74.032 9.958 Q 75.242 9.958 75.872 10.873 L 75.872 10.873 L 75.872 10.873 Q 76.502 11.788 76.502 13.558 L 76.502 13.558 L 76.502 13.558 Q 76.502 15.328 75.872 16.248 L 75.872 16.248 L 75.872 16.248 Q 75.242 17.168 74.032 17.168 L 74.032 17.168 L 74.032 17.168 Z  M 74.032 16.478 L 74.032 16.478 Q 74.872 16.478 75.272 15.768 L 75.272 15.768 L 75.272 15.768 Q 75.672 15.058 75.672 13.558 L 75.672 13.558 L 75.672 13.558 Q 75.672 12.048 75.277 11.348 L 75.277 11.348 L 75.277 11.348 Q 74.882 10.648 74.032 10.648 L 74.032 10.648 L 74.032 10.648 Q 73.192 10.648 72.792 11.353 L 72.792 11.353 L 72.792 11.353 Q 72.392 12.058 72.392 13.558 L 72.392 13.558 L 72.392 13.558 Q 72.392 15.058 72.792 15.768 L 72.792 15.768 L 72.792 15.768 Q 73.192 16.478 74.032 16.478 L 74.032 16.478 L 74.032 16.478 Z  M 78.182 17.138 L 78.182 17.138 Q 77.942 17.138 77.782 16.983 L 77.782 16.983 L 77.782 16.983 Q 77.622 16.828 77.622 16.578 L 77.622 16.578 L 77.622 16.578 Q 77.622 16.328 77.782 16.168 L 77.782 16.168 L 77.782 16.168 Q 77.942 16.008 78.182 16.008 L 78.182 16.008 L 78.182 16.008 Q 78.412 16.008 78.567 16.168 L 78.567 16.168 L 78.567 16.168 Q 78.722 16.328 78.722 16.578 L 78.722 16.578 L 78.722 16.578 Q 78.722 16.828 78.567 16.983 L 78.567 16.983 L 78.567 16.983 Q 78.412 17.138 78.182 17.138 L 78.182 17.138 L 78.182 17.138 Z " fill="rgb(255,255,255)"/><path d=" M 47.012 110.49 L 47.012 110.49 Q 47.632 110.68 47.977 111.14 L 47.977 111.14 L 47.977 111.14 Q 48.322 111.6 48.322 112.24 L 48.322 112.24 L 48.322 112.24 Q 48.322 113.15 47.662 113.665 L 47.662 113.665 L 47.662 113.665 Q 47.002 114.18 45.792 114.18 L 45.792 114.18 L 45.792 114.18 Q 44.582 114.18 43.922 113.665 L 43.922 113.665 L 43.922 113.665 Q 43.262 113.15 43.262 112.24 L 43.262 112.24 L 43.262 112.24 Q 43.262 111.59 43.612 111.13 L 43.612 111.13 L 43.612 111.13 Q 43.962 110.67 44.582 110.49 L 44.582 110.49 L 44.582 110.49 Q 44.052 110.29 43.742 109.86 L 43.742 109.86 L 43.742 109.86 Q 43.432 109.43 43.432 108.85 L 43.432 108.85 L 43.432 108.85 Q 43.432 107.99 44.057 107.485 L 44.057 107.485 L 44.057 107.485 Q 44.682 106.98 45.792 106.98 L 45.792 106.98 L 45.792 106.98 Q 46.902 106.98 47.527 107.485 L 47.527 107.485 L 47.527 107.485 Q 48.152 107.99 48.152 108.85 L 48.152 108.85 L 48.152 108.85 Q 48.152 109.43 47.842 109.865 L 47.842 109.865 L 47.842 109.865 Q 47.532 110.3 47.012 110.49 L 47.012 110.49 L 47.012 110.49 Z  M 44.242 108.91 L 44.242 108.91 Q 44.242 109.53 44.637 109.86 L 44.637 109.86 L 44.637 109.86 Q 45.032 110.19 45.792 110.19 L 45.792 110.19 L 45.792 110.19 Q 46.552 110.19 46.947 109.86 L 46.947 109.86 L 46.947 109.86 Q 47.342 109.53 47.342 108.91 L 47.342 108.91 L 47.342 108.91 Q 47.342 108.32 46.947 107.99 L 46.947 107.99 L 46.947 107.99 Q 46.552 107.66 45.792 107.66 L 45.792 107.66 L 45.792 107.66 Q 45.032 107.66 44.637 107.99 L 44.637 107.99 L 44.637 107.99 Q 44.242 108.32 44.242 108.91 L 44.242 108.91 L 44.242 108.91 Z  M 45.792 113.5 L 45.792 113.5 Q 47.512 113.5 47.512 112.19 L 47.512 112.19 L 47.512 112.19 Q 47.512 110.88 45.792 110.88 L 45.792 110.88 L 45.792 110.88 Q 44.072 110.88 44.072 112.19 L 44.072 112.19 L 44.072 112.19 Q 44.072 113.5 45.792 113.5 L 45.792 113.5 L 45.792 113.5 Z  M 37.502 114.19 L 37.502 114.19 Q 36.292 114.19 35.662 113.27 L 35.662 113.27 L 35.662 113.27 Q 35.032 112.35 35.032 110.59 L 35.032 110.59 L 35.032 110.59 Q 35.032 108.82 35.662 107.9 L 35.662 107.9 L 35.662 107.9 Q 36.292 106.98 37.502 106.98 L 37.502 106.98 L 37.502 106.98 Q 38.712 106.98 39.342 107.895 L 39.342 107.895 L 39.342 107.895 Q 39.972 108.81 39.972 110.58 L 39.972 110.58 L 39.972 110.58 Q 39.972 112.35 39.342 113.27 L 39.342 113.27 L 39.342 113.27 Q 38.712 114.19 37.502 114.19 L 37.502 114.19 L 37.502 114.19 Z  M 37.502 113.5 L 37.502 113.5 Q 38.342 113.5 38.742 112.79 L 38.742 112.79 L 38.742 112.79 Q 39.142 112.08 39.142 110.58 L 39.142 110.58 L 39.142 110.58 Q 39.142 109.07 38.747 108.37 L 38.747 108.37 L 38.747 108.37 Q 38.352 107.67 37.502 107.67 L 37.502 107.67 L 37.502 107.67 Q 36.662 107.67 36.262 108.375 L 36.262 108.375 L 36.262 108.375 Q 35.862 109.08 35.862 110.58 L 35.862 110.58 L 35.862 110.58 Q 35.862 112.08 36.262 112.79 L 36.262 112.79 L 36.262 112.79 Q 36.662 113.5 37.502 113.5 L 37.502 113.5 L 37.502 113.5 Z  M 41.652 114.16 L 41.652 114.16 Q 41.412 114.16 41.252 114.005 L 41.252 114.005 L 41.252 114.005 Q 41.092 113.85 41.092 113.6 L 41.092 113.6 L 41.092 113.6 Q 41.092 113.35 41.252 113.19 L 41.252 113.19 L 41.252 113.19 Q 41.412 113.03 41.652 113.03 L 41.652 113.03 L 41.652 113.03 Q 41.882 113.03 42.037 113.19 L 42.037 113.19 L 42.037 113.19 Q 42.192 113.35 42.192 113.6 L 42.192 113.6 L 42.192 113.6 Q 42.192 113.85 42.037 114.005 L 42.037 114.005 L 42.037 114.005 Q 41.882 114.16 41.652 114.16 L 41.652 114.16 L 41.652 114.16 Z " fill="rgb(255,255,255)"/><path d=" M 113.768 86.198 L 113.768 86.198 Q 113.948 86.198 114.048 86.288 L 114.048 86.288 L 114.048 86.288 Q 114.148 86.378 114.148 86.538 L 114.148 86.538 L 114.148 86.538 Q 114.148 86.708 114.053 86.798 L 114.053 86.798 L 114.053 86.798 Q 113.958 86.888 113.768 86.888 L 113.768 86.888 L 110.458 86.888 L 110.458 86.888 Q 110.268 86.888 110.173 86.798 L 110.173 86.798 L 110.173 86.798 Q 110.078 86.708 110.078 86.538 L 110.078 86.538 L 110.078 86.538 Q 110.078 86.378 110.178 86.288 L 110.178 86.288 L 110.178 86.288 Q 110.278 86.198 110.458 86.198 L 110.458 86.198 L 111.698 86.198 L 111.698 80.838 L 110.608 81.548 L 110.608 81.548 Q 110.528 81.598 110.448 81.598 L 110.448 81.598 L 110.448 81.598 Q 110.308 81.598 110.203 81.468 L 110.203 81.468 L 110.203 81.468 Q 110.098 81.338 110.098 81.188 L 110.098 81.188 L 110.098 81.188 Q 110.098 80.978 110.258 80.888 L 110.258 80.888 L 111.778 79.898 L 111.778 79.898 Q 111.948 79.788 112.128 79.788 L 112.128 79.788 L 112.128 79.788 Q 112.298 79.788 112.408 79.898 L 112.408 79.898 L 112.408 79.898 Q 112.518 80.008 112.518 80.208 L 112.518 80.208 L 112.518 86.198 L 113.768 86.198 L 113.768 86.198 Z  M 117.848 86.968 L 117.848 86.968 Q 116.638 86.968 116.008 86.048 L 116.008 86.048 L 116.008 86.048 Q 115.378 85.128 115.378 83.368 L 115.378 83.368 L 115.378 83.368 Q 115.378 81.598 116.008 80.678 L 116.008 80.678 L 116.008 80.678 Q 116.638 79.758 117.848 79.758 L 117.848 79.758 L 117.848 79.758 Q 119.058 79.758 119.688 80.673 L 119.688 80.673 L 119.688 80.673 Q 120.318 81.588 120.318 83.358 L 120.318 83.358 L 120.318 83.358 Q 120.318 85.128 119.688 86.048 L 119.688 86.048 L 119.688 86.048 Q 119.058 86.968 117.848 86.968 L 117.848 86.968 L 117.848 86.968 Z  M 117.848 86.278 L 117.848 86.278 Q 118.688 86.278 119.088 85.568 L 119.088 85.568 L 119.088 85.568 Q 119.488 84.858 119.488 83.358 L 119.488 83.358 L 119.488 83.358 Q 119.488 81.848 119.093 81.148 L 119.093 81.148 L 119.093 81.148 Q 118.698 80.448 117.848 80.448 L 117.848 80.448 L 117.848 80.448 Q 117.008 80.448 116.608 81.153 L 116.608 81.153 L 116.608 81.153 Q 116.208 81.858 116.208 83.358 L 116.208 83.358 L 116.208 83.358 Q 116.208 84.858 116.608 85.568 L 116.608 85.568 L 116.608 85.568 Q 117.008 86.278 117.848 86.278 L 117.848 86.278 L 117.848 86.278 Z  M 103.558 86.968 L 103.558 86.968 Q 102.348 86.968 101.718 86.048 L 101.718 86.048 L 101.718 86.048 Q 101.088 85.128 101.088 83.368 L 101.088 83.368 L 101.088 83.368 Q 101.088 81.598 101.718 80.678 L 101.718 80.678 L 101.718 80.678 Q 102.348 79.758 103.558 79.758 L 103.558 79.758 L 103.558 79.758 Q 104.768 79.758 105.398 80.673 L 105.398 80.673 L 105.398 80.673 Q 106.028 81.588 106.028 83.358 L 106.028 83.358 L 106.028 83.358 Q 106.028 85.128 105.398 86.048 L 105.398 86.048 L 105.398 86.048 Q 104.768 86.968 103.558 86.968 L 103.558 86.968 L 103.558 86.968 Z  M 103.558 86.278 L 103.558 86.278 Q 104.398 86.278 104.798 85.568 L 104.798 85.568 L 104.798 85.568 Q 105.198 84.858 105.198 83.358 L 105.198 83.358 L 105.198 83.358 Q 105.198 81.848 104.803 81.148 L 104.803 81.148 L 104.803 81.148 Q 104.408 80.448 103.558 80.448 L 103.558 80.448 L 103.558 80.448 Q 102.718 80.448 102.318 81.153 L 102.318 81.153 L 102.318 81.153 Q 101.918 81.858 101.918 83.358 L 101.918 83.358 L 101.918 83.358 Q 101.918 84.858 102.318 85.568 L 102.318 85.568 L 102.318 85.568 Q 102.718 86.278 103.558 86.278 L 103.558 86.278 L 103.558 86.278 Z  M 107.708 86.938 L 107.708 86.938 Q 107.468 86.938 107.308 86.783 L 107.308 86.783 L 107.308 86.783 Q 107.148 86.628 107.148 86.378 L 107.148 86.378 L 107.148 86.378 Q 107.148 86.128 107.308 85.968 L 107.308 85.968 L 107.308 85.968 Q 107.468 85.808 107.708 85.808 L 107.708 85.808 L 107.708 85.808 Q 107.938 85.808 108.093 85.968 L 108.093 85.968 L 108.093 85.968 Q 108.248 86.128 108.248 86.378 L 108.248 86.378 L 108.248 86.378 Q 108.248 86.628 108.093 86.783 L 108.093 86.783 L 108.093 86.783 Q 107.938 86.938 107.708 86.938 L 107.708 86.938 L 107.708 86.938 Z " fill="rgb(255,255,255)"/></g></svg>
