<?xml version="1.0" encoding="iso-8859-1"?>
<!-- Generator: Adobe Illustrator 19.0.0, SVG Export Plug-In . SVG Version: 6.00 Build 0)  -->
<svg version="1.1" id="Layer_1" xmlns="http://www.w3.org/2000/svg" xmlns:xlink="http://www.w3.org/1999/xlink" x="0px" y="0px"
	 viewBox="0 0 512.003 512.003" style="enable-background:new 0 0 512.003 512.003;" xml:space="preserve">
<g>
	<path style="fill:#84DBFF;" d="M385.906,320.591c-17.444-22.362-51.201-22.38-68.66,0.007c-0.143,0.183-0.289,0.363-0.439,0.54
		c-31.285,39.391-91.104,39.117-122.048-0.546c-17.444-22.362-51.201-22.38-68.66,0.007c-0.143,0.183-0.289,0.363-0.439,0.54
		c-31.285,39.391-91.104,39.117-122.048-0.546c-5.799-7.431-4.475-18.155,2.958-23.954c7.431-5.802,18.157-4.474,23.954,2.958
		c17.443,22.355,51.197,22.386,68.66-0.007c0.142-0.183,0.289-0.363,0.439-0.539c31.222-39.316,91.042-39.196,122.049,0.545
		c17.44,22.354,51.196,22.387,68.659-0.007c0.142-0.183,0.289-0.363,0.439-0.539c31.222-39.316,91.042-39.196,122.049,0.545
		c17.44,22.354,51.196,22.387,68.659-0.007c5.795-7.431,16.52-8.762,23.954-2.963c7.432,5.796,8.759,16.52,2.963,23.954
		C477.299,360.45,417.052,360.513,385.906,320.591z"/>
	<path style="fill:#84DBFF;" d="M194.759,428.014c-17.441-22.357-51.196-22.386-68.659,0.007c-5.796,7.431-16.52,8.757-23.954,2.963
		c-7.432-5.796-8.759-16.52-2.963-23.954c31.084-39.861,91.34-39.934,122.487-0.011c17.442,22.36,51.2,22.379,68.659-0.007
		c0.142-0.183,0.289-0.363,0.439-0.539c31.271-39.375,91.101-39.121,122.049,0.545c5.798,7.432,4.473,18.157-2.959,23.955
		c-7.432,5.797-18.157,4.471-23.955-2.959c-17.441-22.357-51.196-22.386-68.659,0.007c-0.143,0.183-0.289,0.363-0.439,0.54
		C285.593,467.863,225.757,467.746,194.759,428.014z"/>
</g>
<path style="fill:#FFE365;" d="M335.065,133.14h-18.551c-1.357-4.805-3.267-9.376-5.665-13.643l13.129-13.128
	c6.665-6.664,6.665-17.469,0-24.136c-6.663-6.665-17.469-6.665-24.136,0l-13.129,13.128c-4.267-2.398-8.839-4.309-13.644-5.666
	V71.144c0-9.425-7.641-17.067-17.067-17.067c-9.425,0-17.067,7.641-17.067,17.067v18.551c-4.805,1.357-9.378,3.268-13.644,5.666
	l-13.129-13.128c-6.664-6.666-17.47-6.664-24.136,0c-6.665,6.665-6.665,17.47,0,24.136l13.129,13.128
	c-2.398,4.267-4.309,8.838-5.665,13.643H176.94c-9.425,0-17.067,7.641-17.067,17.067s7.641,17.067,17.067,17.067h18.551
	c1.357,4.805,3.268,9.378,5.666,13.644l-13.129,13.129c-6.665,6.664-6.665,17.469,0,24.136c6.663,6.665,17.469,6.666,24.136,0
	l13.129-13.129c4.267,2.398,8.838,4.309,13.643,5.665v18.553c0,9.425,7.641,17.067,17.067,17.067
	c9.425,0,17.067-7.641,17.067-17.067v-18.553c4.805-1.357,9.376-3.268,13.643-5.665l13.129,13.129
	c6.663,6.665,17.469,6.666,24.136,0c6.665-6.665,6.665-17.471,0-24.136l-13.129-13.129c2.398-4.267,4.309-8.839,5.666-13.644h18.551
	c9.425,0,17.067-7.641,17.067-17.067S344.49,133.14,335.065,133.14z"/>
<g>
	<path style="fill:#FFC733;" d="M335.065,133.14h-18.551c-1.357-4.805-3.267-9.376-5.665-13.643l13.129-13.128
		c6.665-6.664,6.665-17.469,0-24.136c-6.663-6.665-17.469-6.665-24.136,0l-13.129,13.128c-4.267-2.398-8.839-4.309-13.644-5.666
		V71.144c0-9.425-7.641-17.067-17.067-17.067v192.26c9.425,0,17.067-7.641,17.067-17.067v-18.553
		c4.805-1.357,9.376-3.268,13.643-5.665l13.129,13.129c6.663,6.665,17.469,6.666,24.136,0c6.665-6.665,6.665-17.471,0-24.136
		l-13.129-13.129c2.398-4.267,4.309-8.839,5.666-13.644h18.551c9.425,0,17.067-7.641,17.067-17.067S344.49,133.14,335.065,133.14z"
		/>
	<path style="fill:#FFC733;" d="M256.002,213.091c-34.675,0-62.885-28.21-62.885-62.885s28.21-62.885,62.885-62.885
		s62.885,28.21,62.885,62.885S290.677,213.091,256.002,213.091z"/>
</g>
<g>
	<path style="fill:#54C9EB;" d="M505.43,296.626c-7.433-5.8-18.159-4.469-23.954,2.963c-17.463,22.393-51.218,22.361-68.659,0.007
		c-31.005-39.742-90.826-39.861-122.049-0.545c-0.15,0.175-0.297,0.356-0.439,0.539c-8.729,11.193-21.53,16.784-34.329,16.783v34.13
		c22.618,0.002,45.242-9.769,60.805-29.364c0.15-0.176,0.296-0.356,0.439-0.54c17.459-22.386,51.216-22.369,68.66-0.007
		c31.147,39.922,91.393,39.86,122.486-0.011C514.189,313.146,512.862,302.422,505.43,296.626z"/>
	<path style="fill:#54C9EB;" d="M412.818,407.018c-30.946-39.666-90.777-39.92-122.049-0.545c-0.15,0.175-0.297,0.356-0.439,0.539
		c-8.728,11.191-21.529,16.782-34.329,16.782v34.124c22.636-0.005,45.267-9.793,60.805-29.358c0.15-0.176,0.296-0.356,0.439-0.54
		c17.463-22.393,51.218-22.363,68.659-0.007c5.798,7.43,16.522,8.755,23.955,2.959C417.291,425.175,418.616,414.45,412.818,407.018z
		"/>
</g>
<path style="fill:#FFAF00;" d="M256.002,87.322v125.768c34.675,0,62.885-28.21,62.885-62.885S290.677,87.322,256.002,87.322z"/>
<g>
</g>
<g>
</g>
<g>
</g>
<g>
</g>
<g>
</g>
<g>
</g>
<g>
</g>
<g>
</g>
<g>
</g>
<g>
</g>
<g>
</g>
<g>
</g>
<g>
</g>
<g>
</g>
<g>
</g>
</svg>
