<?xml version="1.0" encoding="UTF-8" standalone="no"?><!-- Generator: Gravit.io --><svg xmlns="http://www.w3.org/2000/svg" xmlns:xlink="http://www.w3.org/1999/xlink" style="isolation:isolate" viewBox="0 0 446.393 549.699" width="446.393pt" height="549.699pt"><g><g><path d=" M 328.672 164.326 L 85.708 164.326 C 83.152 164.326 81.012 166.368 81 168.924 C 81 169.082 81 169.242 81.002 169.4 C 81.194 182.05 92.06 191.958 104.712 191.958 L 309.666 191.958 C 322.318 191.958 333.186 182.05 333.376 169.4 C 333.378 169.242 333.38 169.082 333.378 168.924 C 333.368 166.37 331.228 164.326 328.672 164.326 Z " fill="rgb(237,244,252)"/></g></g><g><g><path d=" M 299.27 5.002 L 115.11 5.002 C 107.898 5.002 101.996 10.902 101.996 18.116 L 101.996 151.214 C 101.996 158.426 107.896 164.328 115.11 164.328 L 299.268 164.328 C 306.48 164.328 312.382 158.428 312.382 151.214 L 312.382 18.114 C 312.382 10.902 306.482 5.002 299.27 5.002 L 299.27 5.002 Z " fill="rgb(82,144,219)"/></g></g><g><g><path d=" M 303.186 23.934 L 111.194 23.934 C 106.136 23.934 101.998 28.072 101.998 33.13 L 101.998 135.1 C 101.998 140.158 106.136 144.296 111.194 144.296 L 303.184 144.296 C 308.242 144.296 312.38 140.158 312.38 135.1 L 312.38 33.13 C 312.382 28.072 308.244 23.934 303.186 23.934 L 303.186 23.934 Z " fill="rgb(252,221,134)"/></g></g><g><g><path d=" M 309.666 196.96 L 104.714 196.96 C 89.112 196.96 76.232 184.63 76.006 169.476 L 76.002 168.894 C 76.026 163.622 80.38 159.328 85.71 159.328 L 328.674 159.328 C 334.002 159.328 338.358 163.622 338.382 168.902 L 338.38 169.462 C 338.148 184.63 325.268 196.96 309.666 196.96 L 309.666 196.96 Z  M 86.002 169.328 C 86.16 179.06 94.548 186.96 104.712 186.96 L 309.666 186.96 C 319.836 186.96 328.228 179.05 328.376 169.328 L 86.002 169.328 Z  M 328.672 169.328 L 328.692 169.328 L 328.672 169.328 Z " fill="rgb(0,0,0)"/></g></g><g><g><path d=" M 352.19 310.9 C 349.428 310.9 347.19 308.662 347.19 305.9 L 347.19 264.3 L 67.19 264.3 L 67.19 305.9 C 67.19 308.662 64.952 310.9 62.19 310.9 C 59.428 310.9 57.19 308.662 57.19 305.9 L 57.19 259.3 C 57.19 256.538 59.428 254.3 62.19 254.3 L 352.19 254.3 C 354.952 254.3 357.19 256.538 357.19 259.3 L 357.19 305.9 C 357.19 308.662 354.952 310.9 352.19 310.9 Z " fill="rgb(0,0,0)"/></g></g><g><g><path d=" M 207.19 264.3 C 204.428 264.3 202.19 262.062 202.19 259.3 L 202.19 193.002 C 202.19 190.24 204.428 188.002 207.19 188.002 C 209.952 188.002 212.19 190.24 212.19 193.002 L 212.19 259.3 C 212.19 262.062 209.952 264.3 207.19 264.3 Z " fill="rgb(0,0,0)"/></g></g><g><g><path d=" M 299.27 169.328 C 296.508 169.328 294.27 167.09 294.27 164.328 C 294.27 161.566 296.508 159.328 299.27 159.328 C 303.742 159.328 307.382 155.69 307.382 151.214 L 307.382 18.114 C 307.382 13.64 303.744 10 299.27 10 L 115.11 10 C 110.636 10 106.996 13.638 106.996 18.114 L 106.996 151.214 C 106.996 155.688 110.636 159.328 115.11 159.328 C 117.872 159.328 120.11 161.566 120.11 164.328 C 120.11 167.09 117.872 169.328 115.11 169.328 C 105.122 169.328 96.996 161.202 96.996 151.214 L 96.996 18.114 C 96.996 8.126 105.122 0 115.11 0 L 299.27 0 C 309.256 0 317.382 8.126 317.382 18.114 L 317.382 151.214 C 317.382 161.202 309.256 169.328 299.27 169.328 Z " fill="rgb(0,0,0)"/></g></g><g><g><path d=" M 303.186 149.298 L 111.194 149.298 C 103.366 149.298 96.996 142.928 96.996 135.1 C 96.996 132.338 99.234 130.1 101.996 130.1 C 104.758 130.1 106.996 132.338 106.996 135.1 C 106.996 137.414 108.878 139.298 111.194 139.298 L 303.186 139.298 C 305.498 139.298 307.382 137.416 307.382 135.1 C 307.382 132.338 309.62 130.1 312.382 130.1 C 315.144 130.1 317.382 132.338 317.382 135.1 C 317.382 142.93 311.014 149.298 303.186 149.298 Z " fill="rgb(0,0,0)"/></g></g><g><g><path d=" M 312.382 38.13 C 309.62 38.13 307.382 35.892 307.382 33.13 C 307.382 30.816 305.5 28.932 303.186 28.932 L 111.194 28.932 C 108.88 28.932 106.996 30.814 106.996 33.13 C 106.996 35.892 104.758 38.13 101.996 38.13 C 99.234 38.13 96.996 35.892 96.996 33.13 C 96.996 25.302 103.366 18.932 111.194 18.932 L 303.186 18.932 C 311.014 18.932 317.382 25.302 317.382 33.13 C 317.382 35.892 315.144 38.13 312.382 38.13 Z " fill="rgb(0,0,0)"/></g></g><g filter="url(#recvgNSAALc5qAU8VnhLsMdJecsI8BTB)"><g><path d=" M 116.172 345.728 L 91.345 345.728 L 91.345 320.9 L 116.172 345.728 Z " fill="rgb(189,195,199)"/><path d=" M 29.276 416.072 L 141 416.072 L 141 366.417 L 29.276 366.417 L 29.276 416.072 Z " fill="rgb(219,156,117)"/><path d=" M 68.586 409.865 C 62.882 409.865 58.241 405.225 58.241 399.521 C 58.241 398.379 59.168 397.452 60.31 397.452 C 61.452 397.452 62.379 398.379 62.379 399.521 C 62.379 402.943 65.164 405.728 68.586 405.728 C 72.008 405.728 74.793 402.943 74.793 399.521 C 74.793 396.099 72.008 393.314 68.586 393.314 C 62.882 393.314 58.241 388.673 58.241 382.969 C 58.241 377.265 62.882 372.624 68.586 372.624 C 74.291 372.624 78.931 377.265 78.931 382.969 C 78.931 384.111 78.004 385.038 76.862 385.038 C 75.72 385.038 74.793 384.111 74.793 382.969 C 74.793 379.547 72.008 376.762 68.586 376.762 C 65.164 376.762 62.379 379.547 62.379 382.969 C 62.379 386.391 65.164 389.176 68.586 389.176 C 74.29 389.176 78.931 393.816 78.931 399.521 C 78.931 405.225 74.29 409.865 68.586 409.865 Z " fill="rgb(255,255,255)"/><path d=" M 29.276 416.072 L 29.276 366.417 L 116.172 366.417 L 116.172 345.728 L 91.345 345.728 L 91.345 320.9 L 21 320.9 L 21 440.9 L 116.172 440.9 L 116.172 416.072 L 29.276 416.072 Z " fill="rgb(236,240,241)"/><g><path d=" M 43.759 409.865 C 39.194 409.865 35.483 406.154 35.483 401.59 C 35.483 400.448 36.41 399.521 37.552 399.521 C 38.694 399.521 39.621 400.448 39.621 401.59 C 39.621 403.872 41.477 405.728 43.759 405.728 C 46.041 405.728 47.897 403.872 47.897 401.59 L 47.897 376.762 C 47.897 375.62 48.824 374.693 49.966 374.693 C 51.108 374.693 52.035 375.62 52.035 376.762 L 52.035 401.59 C 52.035 406.154 48.323 409.865 43.759 409.865 Z " fill="rgb(255,255,255)"/><path d=" M 93.414 376.762 C 91.132 376.762 89.276 378.618 89.276 380.9 L 89.276 401.59 C 89.276 403.872 91.132 405.728 93.414 405.728 L 95.483 405.728 C 97.765 405.728 99.621 403.872 99.621 401.59 L 99.621 380.9 C 99.621 378.618 97.765 376.762 95.483 376.762 L 93.414 376.762 Z  M 95.483 409.865 L 93.414 409.865 C 88.849 409.865 85.138 406.154 85.138 401.59 L 85.138 380.9 C 85.138 376.336 88.85 372.624 93.414 372.624 L 95.483 372.624 C 100.047 372.624 103.759 376.336 103.759 380.9 L 103.759 401.59 C 103.759 406.154 100.047 409.865 95.483 409.865 L 95.483 409.865 Z " fill="rgb(255,255,255)"/><path d=" M 132.724 409.865 C 132.025 409.865 131.355 409.51 130.97 408.893 L 114.104 381.908 L 114.104 407.797 C 114.104 408.939 113.177 409.866 112.035 409.866 C 110.892 409.866 109.965 408.939 109.965 407.797 L 109.965 374.693 C 109.965 373.77 110.576 372.959 111.463 372.705 C 112.351 372.452 113.301 372.812 113.789 373.597 L 130.655 400.582 L 130.655 374.693 C 130.655 373.551 131.582 372.624 132.724 372.624 C 133.866 372.624 134.793 373.551 134.793 374.693 L 134.793 407.796 C 134.793 408.719 134.183 409.53 133.295 409.785 C 133.107 409.839 132.915 409.865 132.724 409.865 Z " fill="rgb(255,255,255)"/></g></g></g><defs><filter id="recvgNSAALc5qAU8VnhLsMdJecsI8BTB" x="-200%" y="-200%" width="400%" height="400%" filterUnits="objectBoundingBox" color-interpolation-filters="sRGB"><feGaussianBlur xmlns="http://www.w3.org/2000/svg" in="SourceGraphic" stdDeviation="2.146804531419514"/><feOffset xmlns="http://www.w3.org/2000/svg" dx="0" dy="0" result="pf_100_offsetBlur"/><feFlood xmlns="http://www.w3.org/2000/svg" flood-color="#000000" flood-opacity="0.65"/><feComposite xmlns="http://www.w3.org/2000/svg" in2="pf_100_offsetBlur" operator="in" result="pf_100_dropShadow"/><feBlend xmlns="http://www.w3.org/2000/svg" in="SourceGraphic" in2="pf_100_dropShadow" mode="normal"/></filter></defs><g filter="url(#IUUiqwZ61iYpkN84qLstxfRODkZSStyo)"><g><path d=" M 399.773 345.728 L 374.945 345.728 L 374.945 320.9 L 399.773 345.728 Z " fill="rgb(189,195,199)"/><path d=" M 312.876 416.072 L 424.6 416.072 L 424.6 366.417 L 312.876 366.417 L 312.876 416.072 Z " fill="rgb(146,82,219)"/><path d=" M 352.186 409.865 C 346.482 409.865 341.842 405.225 341.842 399.521 C 341.842 398.379 342.768 397.452 343.911 397.452 C 345.053 397.452 345.98 398.379 345.98 399.521 C 345.98 402.943 348.765 405.728 352.187 405.728 C 355.609 405.728 358.394 402.943 358.394 399.521 C 358.394 396.099 355.609 393.314 352.187 393.314 C 346.482 393.314 341.842 388.673 341.842 382.969 C 341.842 377.265 346.482 372.624 352.187 372.624 C 357.891 372.624 362.531 377.265 362.531 382.969 C 362.531 384.111 361.605 385.038 360.462 385.038 C 359.32 385.038 358.393 384.111 358.393 382.969 C 358.393 379.547 355.608 376.762 352.186 376.762 C 348.764 376.762 345.979 379.547 345.979 382.969 C 345.979 386.391 348.764 389.176 352.186 389.176 C 357.891 389.176 362.531 393.816 362.531 399.521 C 362.531 405.225 357.891 409.865 352.186 409.865 Z " fill="rgb(255,255,255)"/><path d=" M 312.876 416.072 L 312.876 366.417 L 399.773 366.417 L 399.773 345.728 L 374.945 345.728 L 374.945 320.9 L 304.6 320.9 L 304.6 440.9 L 399.773 440.9 L 399.773 416.072 L 312.876 416.072 Z " fill="rgb(236,240,241)"/><g><path d=" M 327.359 409.865 C 322.795 409.865 319.083 406.154 319.083 401.59 C 319.083 400.448 320.01 399.521 321.152 399.521 C 322.294 399.521 323.221 400.448 323.221 401.59 C 323.221 403.872 325.077 405.728 327.359 405.728 C 329.641 405.728 331.497 403.872 331.497 401.59 L 331.497 376.762 C 331.497 375.62 332.424 374.693 333.566 374.693 C 334.708 374.693 335.635 375.62 335.635 376.762 L 335.635 401.59 C 335.635 406.154 331.923 409.865 327.359 409.865 Z " fill="rgb(255,255,255)"/><path d=" M 377.014 376.762 C 374.732 376.762 372.876 378.618 372.876 380.9 L 372.876 401.59 C 372.876 403.872 374.732 405.728 377.014 405.728 L 379.083 405.728 C 381.365 405.728 383.221 403.872 383.221 401.59 L 383.221 380.9 C 383.221 378.618 381.365 376.762 379.083 376.762 L 377.014 376.762 Z  M 379.083 409.865 L 377.014 409.865 C 372.45 409.865 368.738 406.154 368.738 401.59 L 368.738 380.9 C 368.738 376.336 372.45 372.624 377.014 372.624 L 379.083 372.624 C 383.647 372.624 387.359 376.336 387.359 380.9 L 387.359 401.59 C 387.359 406.154 383.647 409.865 379.083 409.865 L 379.083 409.865 Z " fill="rgb(255,255,255)"/><path d=" M 416.325 409.865 C 415.625 409.865 414.955 409.51 414.57 408.893 L 397.704 381.908 L 397.704 407.797 C 397.704 408.939 396.777 409.866 395.635 409.866 C 394.493 409.866 393.566 408.939 393.566 407.797 L 393.566 374.693 C 393.566 373.77 394.176 372.959 395.064 372.705 C 395.951 372.452 396.901 372.812 397.389 373.597 L 414.255 400.582 L 414.255 374.693 C 414.255 373.551 415.182 372.624 416.324 372.624 C 417.466 372.624 418.393 373.551 418.393 374.693 L 418.393 407.796 C 418.393 408.719 417.783 409.53 416.895 409.785 C 416.707 409.839 416.515 409.865 416.325 409.865 Z " fill="rgb(255,255,255)"/></g></g></g><defs><filter id="IUUiqwZ61iYpkN84qLstxfRODkZSStyo" x="-200%" y="-200%" width="400%" height="400%" filterUnits="objectBoundingBox" color-interpolation-filters="sRGB"><feGaussianBlur xmlns="http://www.w3.org/2000/svg" in="SourceGraphic" stdDeviation="2.146804531419514"/><feOffset xmlns="http://www.w3.org/2000/svg" dx="0" dy="0" result="pf_100_offsetBlur"/><feFlood xmlns="http://www.w3.org/2000/svg" flood-color="#000000" flood-opacity="0.65"/><feComposite xmlns="http://www.w3.org/2000/svg" in2="pf_100_offsetBlur" operator="in" result="pf_100_dropShadow"/><feBlend xmlns="http://www.w3.org/2000/svg" in="SourceGraphic" in2="pf_100_dropShadow" mode="normal"/></filter></defs><path d=" M 260.381 83.774 L 260.381 83.774 Q 260.908 84.022 261.218 84.456 L 261.218 84.456 L 261.218 84.456 Q 261.528 84.89 261.528 85.479 L 261.528 85.479 L 261.528 85.479 Q 261.528 86.068 261.218 86.518 L 261.218 86.518 L 261.218 86.518 Q 260.908 86.967 260.381 87.184 L 260.381 87.184 L 248.322 92.516 L 248.322 92.516 Q 247.919 92.671 247.609 92.671 L 247.609 92.671 L 247.609 92.671 Q 247.082 92.671 246.741 92.346 L 246.741 92.346 L 246.741 92.346 Q 246.4 92.02 246.4 91.524 L 246.4 91.524 L 246.4 91.524 Q 246.4 90.873 247.051 90.563 L 247.051 90.563 L 258.707 85.479 L 247.051 80.426 L 247.051 80.426 Q 246.4 80.116 246.4 79.465 L 246.4 79.465 L 246.4 79.465 Q 246.4 78.938 246.757 78.613 L 246.757 78.613 L 246.757 78.613 Q 247.113 78.287 247.64 78.287 L 247.64 78.287 L 247.64 78.287 Q 247.919 78.287 248.322 78.442 L 248.322 78.442 L 260.381 83.774 L 260.381 83.774 Z  M 179.812 94.314 L 179.812 94.314 Q 179.099 94.314 178.681 93.911 L 178.681 93.911 L 178.681 93.911 Q 178.262 93.508 178.262 92.826 L 178.262 92.826 L 178.262 73.916 L 178.262 73.916 Q 178.262 73.203 178.696 72.754 L 178.696 72.754 L 178.696 72.754 Q 179.13 72.304 179.843 72.304 L 179.843 72.304 L 179.843 72.304 Q 180.587 72.304 181.021 72.738 L 181.021 72.738 L 181.021 72.738 Q 181.455 73.172 181.455 73.916 L 181.455 73.916 L 181.455 91.648 L 190.879 91.648 L 190.879 91.648 Q 191.592 91.648 191.98 91.989 L 191.98 91.989 L 191.98 91.989 Q 192.367 92.33 192.367 92.981 L 192.367 92.981 L 192.367 92.981 Q 192.367 93.632 191.98 93.973 L 191.98 93.973 L 191.98 93.973 Q 191.592 94.314 190.879 94.314 L 190.879 94.314 L 179.812 94.314 L 179.812 94.314 Z  M 196.8 94.469 L 196.8 94.469 Q 196.087 94.469 195.653 94.035 L 195.653 94.035 L 195.653 94.035 Q 195.219 93.601 195.219 92.857 L 195.219 92.857 L 195.219 73.916 L 195.219 73.916 Q 195.219 73.203 195.653 72.754 L 195.653 72.754 L 195.653 72.754 Q 196.087 72.304 196.8 72.304 L 196.8 72.304 L 196.8 72.304 Q 197.544 72.304 197.978 72.738 L 197.978 72.738 L 197.978 72.738 Q 198.412 73.172 198.412 73.916 L 198.412 73.916 L 198.412 92.857 L 198.412 92.857 Q 198.412 93.601 197.994 94.035 L 197.994 94.035 L 197.994 94.035 Q 197.575 94.469 196.8 94.469 L 196.8 94.469 L 196.8 94.469 Z  M 205.077 94.314 L 205.077 94.314 Q 204.333 94.314 203.915 93.896 L 203.915 93.896 L 203.915 93.896 Q 203.496 93.477 203.496 92.764 L 203.496 92.764 L 203.496 74.009 L 203.496 74.009 Q 203.496 73.296 203.915 72.878 L 203.915 72.878 L 203.915 72.878 Q 204.333 72.459 205.077 72.459 L 205.077 72.459 L 216.485 72.459 L 216.485 72.459 Q 217.198 72.459 217.586 72.8 L 217.586 72.8 L 217.586 72.8 Q 217.973 73.141 217.973 73.761 L 217.973 73.761 L 217.973 73.761 Q 217.973 74.381 217.586 74.707 L 217.586 74.707 L 217.586 74.707 Q 217.198 75.032 216.485 75.032 L 216.485 75.032 L 206.627 75.032 L 206.627 81.914 L 215.865 81.914 L 215.865 81.914 Q 216.578 81.914 216.966 82.255 L 216.966 82.255 L 216.966 82.255 Q 217.353 82.596 217.353 83.216 L 217.353 83.216 L 217.353 83.216 Q 217.353 83.836 216.966 84.177 L 216.966 84.177 L 216.966 84.177 Q 216.578 84.518 215.865 84.518 L 215.865 84.518 L 206.627 84.518 L 206.627 91.741 L 216.485 91.741 L 216.485 91.741 Q 217.973 91.741 217.973 93.012 L 217.973 93.012 L 217.973 93.012 Q 217.973 93.632 217.586 93.973 L 217.586 93.973 L 217.586 93.973 Q 217.198 94.314 216.485 94.314 L 216.485 94.314 L 205.077 94.314 L 205.077 94.314 Z  M 223.212 94.469 L 223.212 94.469 Q 222.499 94.469 222.065 94.02 L 222.065 94.02 L 222.065 94.02 Q 221.631 93.57 221.631 92.857 L 221.631 92.857 L 221.631 74.009 L 221.631 74.009 Q 221.631 73.296 222.05 72.878 L 222.05 72.878 L 222.05 72.878 Q 222.468 72.459 223.212 72.459 L 223.212 72.459 L 234.31 72.459 L 234.31 72.459 Q 235.798 72.459 235.798 73.761 L 235.798 73.761 L 235.798 73.761 Q 235.798 75.063 234.31 75.063 L 234.31 75.063 L 224.793 75.063 L 224.793 81.914 L 233.69 81.914 L 233.69 81.914 Q 235.178 81.914 235.178 83.216 L 235.178 83.216 L 235.178 83.216 Q 235.178 84.518 233.69 84.518 L 233.69 84.518 L 224.793 84.518 L 224.793 92.857 L 224.793 92.857 Q 224.793 93.601 224.375 94.035 L 224.375 94.035 L 224.375 94.035 Q 223.956 94.469 223.212 94.469 L 223.212 94.469 L 223.212 94.469 Z  M 165.149 90.563 L 165.149 90.563 Q 165.8 90.873 165.8 91.524 L 165.8 91.524 L 165.8 91.524 Q 165.8 92.02 165.459 92.346 L 165.459 92.346 L 165.459 92.346 Q 165.118 92.671 164.591 92.671 L 164.591 92.671 L 164.591 92.671 Q 164.281 92.671 163.878 92.516 L 163.878 92.516 L 151.819 87.184 L 151.819 87.184 Q 151.292 86.967 150.982 86.518 L 150.982 86.518 L 150.982 86.518 Q 150.672 86.068 150.672 85.479 L 150.672 85.479 L 150.672 85.479 Q 150.672 84.89 150.982 84.456 L 150.982 84.456 L 150.982 84.456 Q 151.292 84.022 151.819 83.774 L 151.819 83.774 L 163.878 78.442 L 163.878 78.442 Q 164.281 78.287 164.56 78.287 L 164.56 78.287 L 164.56 78.287 Q 165.087 78.287 165.444 78.613 L 165.444 78.613 L 165.444 78.613 Q 165.8 78.938 165.8 79.465 L 165.8 79.465 L 165.8 79.465 Q 165.8 80.116 165.149 80.426 L 165.149 80.426 L 153.493 85.479 L 165.149 90.563 L 165.149 90.563 Z " fill="rgb(0,0,0)"/><path d=" M 243.779 504.562 L 243.779 504.562 Q 241.423 504.562 239.3 503.911 L 239.3 503.911 L 239.3 503.911 Q 237.176 503.26 235.905 502.113 L 235.905 502.113 L 235.905 502.113 Q 235.316 501.617 235.316 500.842 L 235.316 500.842 L 235.316 500.842 Q 235.316 500.284 235.626 499.897 L 235.626 499.897 L 235.626 499.897 Q 235.936 499.509 236.37 499.509 L 236.37 499.509 L 236.37 499.509 Q 236.804 499.509 237.424 499.912 L 237.424 499.912 L 237.424 499.912 Q 240.183 501.958 243.717 501.958 L 243.717 501.958 L 243.717 501.958 Q 246.197 501.958 247.53 501.028 L 247.53 501.028 L 247.53 501.028 Q 248.863 500.098 248.863 498.362 L 248.863 498.362 L 248.863 498.362 Q 248.863 496.998 247.623 496.316 L 247.623 496.316 L 247.623 496.316 Q 246.383 495.634 243.655 495.014 L 243.655 495.014 L 243.655 495.014 Q 241.051 494.456 239.377 493.743 L 239.377 493.743 L 239.377 493.743 Q 237.703 493.03 236.758 491.806 L 236.758 491.806 L 236.758 491.806 Q 235.812 490.581 235.812 488.69 L 235.812 488.69 L 235.812 488.69 Q 235.812 486.799 236.851 485.327 L 236.851 485.327 L 236.851 485.327 Q 237.889 483.854 239.749 483.033 L 239.749 483.033 L 239.749 483.033 Q 241.609 482.211 243.996 482.211 L 243.996 482.211 L 243.996 482.211 Q 246.197 482.211 248.057 482.831 L 248.057 482.831 L 248.057 482.831 Q 249.917 483.451 251.219 484.66 L 251.219 484.66 L 251.219 484.66 Q 251.839 485.187 251.839 485.931 L 251.839 485.931 L 251.839 485.931 Q 251.839 486.458 251.514 486.861 L 251.514 486.861 L 251.514 486.861 Q 251.188 487.264 250.754 487.264 L 250.754 487.264 L 250.754 487.264 Q 250.351 487.264 249.731 486.861 L 249.731 486.861 L 249.731 486.861 Q 248.305 485.776 247.05 485.296 L 247.05 485.296 L 247.05 485.296 Q 245.794 484.815 244.027 484.815 L 244.027 484.815 L 244.027 484.815 Q 241.64 484.815 240.307 485.792 L 240.307 485.792 L 240.307 485.792 Q 238.974 486.768 238.974 488.504 L 238.974 488.504 L 238.974 488.504 Q 238.974 489.992 240.152 490.752 L 240.152 490.752 L 240.152 490.752 Q 241.33 491.511 243.934 492.131 L 243.934 492.131 L 243.934 492.131 Q 246.662 492.751 248.352 493.418 L 248.352 493.418 L 248.352 493.418 Q 250.041 494.084 251.049 495.247 L 251.049 495.247 L 251.049 495.247 Q 252.056 496.409 252.056 498.238 L 252.056 498.238 L 252.056 498.238 Q 252.056 500.098 251.018 501.54 L 251.018 501.54 L 251.018 501.54 Q 249.979 502.981 248.104 503.772 L 248.104 503.772 L 248.104 503.772 Q 246.228 504.562 243.779 504.562 L 243.779 504.562 L 243.779 504.562 Z  M 267.463 500.501 L 267.463 500.501 Q 267.897 500.501 268.176 500.842 L 268.176 500.842 L 268.176 500.842 Q 268.455 501.183 268.455 501.71 L 268.455 501.71 L 268.455 501.71 Q 268.455 502.609 267.339 503.229 L 267.339 503.229 L 267.339 503.229 Q 266.254 503.849 264.968 504.19 L 264.968 504.19 L 264.968 504.19 Q 263.681 504.531 262.503 504.531 L 262.503 504.531 L 262.503 504.531 Q 258.907 504.531 256.83 502.439 L 256.83 502.439 L 256.83 502.439 Q 254.753 500.346 254.753 496.719 L 254.753 496.719 L 254.753 496.719 Q 254.753 494.394 255.668 492.596 L 255.668 492.596 L 255.668 492.596 Q 256.582 490.798 258.241 489.806 L 258.241 489.806 L 258.241 489.806 Q 259.899 488.814 262.007 488.814 L 262.007 488.814 L 262.007 488.814 Q 265.045 488.814 266.812 490.767 L 266.812 490.767 L 266.812 490.767 Q 268.579 492.72 268.579 496.037 L 268.579 496.037 L 268.579 496.037 Q 268.579 497.277 267.463 497.277 L 267.463 497.277 L 257.884 497.277 L 257.884 497.277 Q 258.194 502.082 262.503 502.082 L 262.503 502.082 L 262.503 502.082 Q 263.65 502.082 264.487 501.772 L 264.487 501.772 L 264.487 501.772 Q 265.324 501.462 266.254 500.966 L 266.254 500.966 L 266.254 500.966 Q 266.347 500.904 266.766 500.703 L 266.766 500.703 L 266.766 500.703 Q 267.184 500.501 267.463 500.501 L 267.463 500.501 L 267.463 500.501 Z  M 262.069 491.108 L 262.069 491.108 Q 260.271 491.108 259.186 492.255 L 259.186 492.255 L 259.186 492.255 Q 258.101 493.402 257.884 495.479 L 257.884 495.479 L 265.882 495.479 L 265.882 495.479 Q 265.789 493.371 264.813 492.24 L 264.813 492.24 L 264.813 492.24 Q 263.836 491.108 262.069 491.108 L 262.069 491.108 L 262.069 491.108 Z  M 279.956 488.876 L 279.956 488.876 Q 281.444 488.783 281.444 490.147 L 281.444 490.147 L 281.444 490.147 Q 281.444 490.829 281.103 491.17 L 281.103 491.17 L 281.103 491.17 Q 280.762 491.511 279.925 491.573 L 279.925 491.573 L 278.995 491.666 L 278.995 491.666 Q 277.042 491.852 276.097 493.03 L 276.097 493.03 L 276.097 493.03 Q 275.151 494.208 275.151 495.882 L 275.151 495.882 L 275.151 502.981 L 275.151 502.981 Q 275.151 503.725 274.717 504.097 L 274.717 504.097 L 274.717 504.097 Q 274.283 504.469 273.601 504.469 L 273.601 504.469 L 273.601 504.469 Q 272.919 504.469 272.47 504.097 L 272.47 504.097 L 272.47 504.097 Q 272.02 503.725 272.02 502.981 L 272.02 502.981 L 272.02 490.364 L 272.02 490.364 Q 272.02 489.651 272.47 489.264 L 272.47 489.264 L 272.47 489.264 Q 272.919 488.876 273.601 488.876 L 273.601 488.876 L 273.601 488.876 Q 274.221 488.876 274.64 489.264 L 274.64 489.264 L 274.64 489.264 Q 275.058 489.651 275.058 490.333 L 275.058 490.333 L 275.058 491.821 L 275.058 491.821 Q 275.678 490.457 276.856 489.744 L 276.856 489.744 L 276.856 489.744 Q 278.034 489.031 279.522 488.907 L 279.522 488.907 L 279.956 488.876 L 279.956 488.876 Z  M 284.947 504.469 L 284.947 504.469 Q 284.265 504.469 283.816 504.097 L 283.816 504.097 L 283.816 504.097 Q 283.366 503.725 283.366 502.981 L 283.366 502.981 L 283.366 490.395 L 283.366 490.395 Q 283.366 489.651 283.816 489.264 L 283.816 489.264 L 283.816 489.264 Q 284.265 488.876 284.947 488.876 L 284.947 488.876 L 284.947 488.876 Q 285.629 488.876 286.063 489.264 L 286.063 489.264 L 286.063 489.264 Q 286.497 489.651 286.497 490.395 L 286.497 490.395 L 286.497 502.981 L 286.497 502.981 Q 286.497 503.725 286.063 504.097 L 286.063 504.097 L 286.063 504.097 Q 285.629 504.469 284.947 504.469 L 284.947 504.469 L 284.947 504.469 Z  M 284.947 485.838 L 284.947 485.838 Q 284.048 485.838 283.521 485.342 L 283.521 485.342 L 283.521 485.342 Q 282.994 484.846 282.994 484.04 L 282.994 484.04 L 282.994 484.04 Q 282.994 483.234 283.521 482.754 L 283.521 482.754 L 283.521 482.754 Q 284.048 482.273 284.947 482.273 L 284.947 482.273 L 284.947 482.273 Q 285.815 482.273 286.358 482.754 L 286.358 482.754 L 286.358 482.754 Q 286.9 483.234 286.9 484.04 L 286.9 484.04 L 286.9 484.04 Q 286.9 484.846 286.373 485.342 L 286.373 485.342 L 286.373 485.342 Q 285.846 485.838 284.947 485.838 L 284.947 485.838 L 284.947 485.838 Z  M 297.223 488.814 L 297.223 488.814 Q 300.23 488.814 301.703 490.333 L 301.703 490.333 L 301.703 490.333 Q 303.175 491.852 303.175 494.952 L 303.175 494.952 L 303.175 502.981 L 303.175 502.981 Q 303.175 503.694 302.772 504.082 L 302.772 504.082 L 302.772 504.082 Q 302.369 504.469 301.656 504.469 L 301.656 504.469 L 301.656 504.469 Q 300.974 504.469 300.571 504.066 L 300.571 504.066 L 300.571 504.066 Q 300.168 503.663 300.168 502.981 L 300.168 502.981 L 300.168 501.834 L 300.168 501.834 Q 299.579 503.136 298.417 503.834 L 298.417 503.834 L 298.417 503.834 Q 297.254 504.531 295.704 504.531 L 295.704 504.531 L 295.704 504.531 Q 294.216 504.531 292.992 503.927 L 292.992 503.927 L 292.992 503.927 Q 291.767 503.322 291.054 502.268 L 291.054 502.268 L 291.054 502.268 Q 290.341 501.214 290.341 499.881 L 290.341 499.881 L 290.341 499.881 Q 290.31 498.207 291.178 497.262 L 291.178 497.262 L 291.178 497.262 Q 292.046 496.316 293.999 495.898 L 293.999 495.898 L 293.999 495.898 Q 295.952 495.479 299.424 495.479 L 299.424 495.479 L 300.137 495.479 L 300.137 494.58 L 300.137 494.58 Q 300.137 492.844 299.424 492.069 L 299.424 492.069 L 299.424 492.069 Q 298.711 491.294 297.13 491.294 L 297.13 491.294 L 297.13 491.294 Q 296.045 491.294 295.084 491.573 L 295.084 491.573 L 295.084 491.573 Q 294.123 491.852 292.976 492.379 L 292.976 492.379 L 292.976 492.379 Q 292.139 492.844 291.798 492.844 L 291.798 492.844 L 291.798 492.844 Q 291.333 492.844 291.039 492.503 L 291.039 492.503 L 291.039 492.503 Q 290.744 492.162 290.744 491.635 L 290.744 491.635 L 290.744 491.635 Q 290.744 491.17 291.008 490.814 L 291.008 490.814 L 291.008 490.814 Q 291.271 490.457 291.86 490.116 L 291.86 490.116 L 291.86 490.116 Q 292.945 489.527 294.402 489.171 L 294.402 489.171 L 294.402 489.171 Q 295.859 488.814 297.223 488.814 L 297.223 488.814 L 297.223 488.814 Z  M 296.262 502.206 L 296.262 502.206 Q 297.967 502.206 299.052 501.044 L 299.052 501.044 L 299.052 501.044 Q 300.137 499.881 300.137 498.052 L 300.137 498.052 L 300.137 497.246 L 299.579 497.246 L 299.579 497.246 Q 297.161 497.246 295.859 497.463 L 295.859 497.463 L 295.859 497.463 Q 294.557 497.68 293.999 498.192 L 293.999 498.192 L 293.999 498.192 Q 293.441 498.703 293.441 499.664 L 293.441 499.664 L 293.441 499.664 Q 293.441 500.78 294.247 501.493 L 294.247 501.493 L 294.247 501.493 Q 295.053 502.206 296.262 502.206 L 296.262 502.206 L 296.262 502.206 Z  M 309.034 504.469 L 309.034 504.469 Q 308.352 504.469 307.903 504.097 L 307.903 504.097 L 307.903 504.097 Q 307.453 503.725 307.453 502.981 L 307.453 502.981 L 307.453 483.823 L 307.453 483.823 Q 307.453 483.079 307.903 482.692 L 307.903 482.692 L 307.903 482.692 Q 308.352 482.304 309.034 482.304 L 309.034 482.304 L 309.034 482.304 Q 309.716 482.304 310.15 482.692 L 310.15 482.692 L 310.15 482.692 Q 310.584 483.079 310.584 483.823 L 310.584 483.823 L 310.584 502.981 L 310.584 502.981 Q 310.584 503.725 310.15 504.097 L 310.15 504.097 L 310.15 504.097 Q 309.716 504.469 309.034 504.469 L 309.034 504.469 L 309.034 504.469 Z  M 316.536 504.469 L 316.536 504.469 Q 315.854 504.469 315.405 504.097 L 315.405 504.097 L 315.405 504.097 Q 314.955 503.725 314.955 502.981 L 314.955 502.981 L 314.955 490.395 L 314.955 490.395 Q 314.955 489.651 315.405 489.264 L 315.405 489.264 L 315.405 489.264 Q 315.854 488.876 316.536 488.876 L 316.536 488.876 L 316.536 488.876 Q 317.218 488.876 317.652 489.264 L 317.652 489.264 L 317.652 489.264 Q 318.086 489.651 318.086 490.395 L 318.086 490.395 L 318.086 502.981 L 318.086 502.981 Q 318.086 503.725 317.652 504.097 L 317.652 504.097 L 317.652 504.097 Q 317.218 504.469 316.536 504.469 L 316.536 504.469 L 316.536 504.469 Z  M 316.536 485.838 L 316.536 485.838 Q 315.637 485.838 315.11 485.342 L 315.11 485.342 L 315.11 485.342 Q 314.583 484.846 314.583 484.04 L 314.583 484.04 L 314.583 484.04 Q 314.583 483.234 315.11 482.754 L 315.11 482.754 L 315.11 482.754 Q 315.637 482.273 316.536 482.273 L 316.536 482.273 L 316.536 482.273 Q 317.404 482.273 317.947 482.754 L 317.947 482.754 L 317.947 482.754 Q 318.489 483.234 318.489 484.04 L 318.489 484.04 L 318.489 484.04 Q 318.489 484.846 317.962 485.342 L 317.962 485.342 L 317.962 485.342 Q 317.435 485.838 316.536 485.838 L 316.536 485.838 L 316.536 485.838 Z  M 333.648 501.896 L 333.648 501.896 Q 334.33 501.896 334.687 502.222 L 334.687 502.222 L 334.687 502.222 Q 335.043 502.547 335.043 503.105 L 335.043 503.105 L 335.043 503.105 Q 335.043 503.663 334.687 503.989 L 334.687 503.989 L 334.687 503.989 Q 334.33 504.314 333.648 504.314 L 333.648 504.314 L 323.046 504.314 L 323.046 504.314 Q 322.364 504.314 321.961 503.927 L 321.961 503.927 L 321.961 503.927 Q 321.558 503.539 321.558 502.95 L 321.558 502.95 L 321.558 502.95 Q 321.558 502.361 322.023 501.803 L 322.023 501.803 L 330.641 491.604 L 322.86 491.604 L 322.86 491.604 Q 322.209 491.604 321.853 491.279 L 321.853 491.279 L 321.853 491.279 Q 321.496 490.953 321.496 490.395 L 321.496 490.395 L 321.496 490.395 Q 321.496 489.837 321.853 489.512 L 321.853 489.512 L 321.853 489.512 Q 322.209 489.186 322.86 489.186 L 322.86 489.186 L 333.152 489.186 L 333.152 489.186 Q 333.803 489.186 334.222 489.589 L 334.222 489.589 L 334.222 489.589 Q 334.64 489.992 334.64 490.55 L 334.64 490.55 L 334.64 490.55 Q 334.64 491.139 334.175 491.697 L 334.175 491.697 L 325.557 501.896 L 333.648 501.896 L 333.648 501.896 Z  M 344.343 488.814 L 344.343 488.814 Q 347.35 488.814 348.823 490.333 L 348.823 490.333 L 348.823 490.333 Q 350.295 491.852 350.295 494.952 L 350.295 494.952 L 350.295 502.981 L 350.295 502.981 Q 350.295 503.694 349.892 504.082 L 349.892 504.082 L 349.892 504.082 Q 349.489 504.469 348.776 504.469 L 348.776 504.469 L 348.776 504.469 Q 348.094 504.469 347.691 504.066 L 347.691 504.066 L 347.691 504.066 Q 347.288 503.663 347.288 502.981 L 347.288 502.981 L 347.288 501.834 L 347.288 501.834 Q 346.699 503.136 345.537 503.834 L 345.537 503.834 L 345.537 503.834 Q 344.374 504.531 342.824 504.531 L 342.824 504.531 L 342.824 504.531 Q 341.336 504.531 340.112 503.927 L 340.112 503.927 L 340.112 503.927 Q 338.887 503.322 338.174 502.268 L 338.174 502.268 L 338.174 502.268 Q 337.461 501.214 337.461 499.881 L 337.461 499.881 L 337.461 499.881 Q 337.43 498.207 338.298 497.262 L 338.298 497.262 L 338.298 497.262 Q 339.166 496.316 341.119 495.898 L 341.119 495.898 L 341.119 495.898 Q 343.072 495.479 346.544 495.479 L 346.544 495.479 L 347.257 495.479 L 347.257 494.58 L 347.257 494.58 Q 347.257 492.844 346.544 492.069 L 346.544 492.069 L 346.544 492.069 Q 345.831 491.294 344.25 491.294 L 344.25 491.294 L 344.25 491.294 Q 343.165 491.294 342.204 491.573 L 342.204 491.573 L 342.204 491.573 Q 341.243 491.852 340.096 492.379 L 340.096 492.379 L 340.096 492.379 Q 339.259 492.844 338.918 492.844 L 338.918 492.844 L 338.918 492.844 Q 338.453 492.844 338.159 492.503 L 338.159 492.503 L 338.159 492.503 Q 337.864 492.162 337.864 491.635 L 337.864 491.635 L 337.864 491.635 Q 337.864 491.17 338.128 490.814 L 338.128 490.814 L 338.128 490.814 Q 338.391 490.457 338.98 490.116 L 338.98 490.116 L 338.98 490.116 Q 340.065 489.527 341.522 489.171 L 341.522 489.171 L 341.522 489.171 Q 342.979 488.814 344.343 488.814 L 344.343 488.814 L 344.343 488.814 Z  M 343.382 502.206 L 343.382 502.206 Q 345.087 502.206 346.172 501.044 L 346.172 501.044 L 346.172 501.044 Q 347.257 499.881 347.257 498.052 L 347.257 498.052 L 347.257 497.246 L 346.699 497.246 L 346.699 497.246 Q 344.281 497.246 342.979 497.463 L 342.979 497.463 L 342.979 497.463 Q 341.677 497.68 341.119 498.192 L 341.119 498.192 L 341.119 498.192 Q 340.561 498.703 340.561 499.664 L 340.561 499.664 L 340.561 499.664 Q 340.561 500.78 341.367 501.493 L 341.367 501.493 L 341.367 501.493 Q 342.173 502.206 343.382 502.206 L 343.382 502.206 L 343.382 502.206 Z  M 361.982 502.082 L 361.982 502.082 Q 362.664 502.144 362.959 502.439 L 362.959 502.439 L 362.959 502.439 Q 363.253 502.733 363.253 503.26 L 363.253 503.26 L 363.253 503.26 Q 363.253 503.88 362.773 504.206 L 362.773 504.206 L 362.773 504.206 Q 362.292 504.531 361.362 504.469 L 361.362 504.469 L 360.525 504.407 L 360.525 504.407 Q 358.014 504.221 356.774 502.873 L 356.774 502.873 L 356.774 502.873 Q 355.534 501.524 355.534 498.889 L 355.534 498.889 L 355.534 491.604 L 353.674 491.604 L 353.674 491.604 Q 352.31 491.604 352.31 490.395 L 352.31 490.395 L 352.31 490.395 Q 352.31 489.837 352.667 489.512 L 352.667 489.512 L 352.667 489.512 Q 353.023 489.186 353.674 489.186 L 353.674 489.186 L 355.534 489.186 L 355.534 485.993 L 355.534 485.993 Q 355.534 485.28 355.953 484.877 L 355.953 484.877 L 355.953 484.877 Q 356.371 484.474 357.084 484.474 L 357.084 484.474 L 357.084 484.474 Q 357.797 484.474 358.231 484.877 L 358.231 484.877 L 358.231 484.877 Q 358.665 485.28 358.665 485.993 L 358.665 485.993 L 358.665 489.186 L 361.734 489.186 L 361.734 489.186 Q 362.385 489.186 362.742 489.512 L 362.742 489.512 L 362.742 489.512 Q 363.098 489.837 363.098 490.395 L 363.098 490.395 L 363.098 490.395 Q 363.098 490.984 362.742 491.294 L 362.742 491.294 L 362.742 491.294 Q 362.385 491.604 361.734 491.604 L 361.734 491.604 L 358.665 491.604 L 358.665 499.106 L 358.665 499.106 Q 358.665 500.563 359.27 501.245 L 359.27 501.245 L 359.27 501.245 Q 359.874 501.927 361.114 502.02 L 361.114 502.02 L 361.982 502.082 L 361.982 502.082 Z  M 367.097 504.469 L 367.097 504.469 Q 366.415 504.469 365.966 504.097 L 365.966 504.097 L 365.966 504.097 Q 365.516 503.725 365.516 502.981 L 365.516 502.981 L 365.516 490.395 L 365.516 490.395 Q 365.516 489.651 365.966 489.264 L 365.966 489.264 L 365.966 489.264 Q 366.415 488.876 367.097 488.876 L 367.097 488.876 L 367.097 488.876 Q 367.779 488.876 368.213 489.264 L 368.213 489.264 L 368.213 489.264 Q 368.647 489.651 368.647 490.395 L 368.647 490.395 L 368.647 502.981 L 368.647 502.981 Q 368.647 503.725 368.213 504.097 L 368.213 504.097 L 368.213 504.097 Q 367.779 504.469 367.097 504.469 L 367.097 504.469 L 367.097 504.469 Z  M 367.097 485.838 L 367.097 485.838 Q 366.198 485.838 365.671 485.342 L 365.671 485.342 L 365.671 485.342 Q 365.144 484.846 365.144 484.04 L 365.144 484.04 L 365.144 484.04 Q 365.144 483.234 365.671 482.754 L 365.671 482.754 L 365.671 482.754 Q 366.198 482.273 367.097 482.273 L 367.097 482.273 L 367.097 482.273 Q 367.965 482.273 368.508 482.754 L 368.508 482.754 L 368.508 482.754 Q 369.05 483.234 369.05 484.04 L 369.05 484.04 L 369.05 484.04 Q 369.05 484.846 368.523 485.342 L 368.523 485.342 L 368.523 485.342 Q 367.996 485.838 367.097 485.838 L 367.097 485.838 L 367.097 485.838 Z  M 379.59 504.531 L 379.59 504.531 Q 377.358 504.531 375.669 503.57 L 375.669 503.57 L 375.669 503.57 Q 373.979 502.609 373.065 500.827 L 373.065 500.827 L 373.065 500.827 Q 372.15 499.044 372.15 496.688 L 372.15 496.688 L 372.15 496.688 Q 372.15 494.301 373.065 492.519 L 373.065 492.519 L 373.065 492.519 Q 373.979 490.736 375.669 489.775 L 375.669 489.775 L 375.669 489.775 Q 377.358 488.814 379.59 488.814 L 379.59 488.814 L 379.59 488.814 Q 381.822 488.814 383.512 489.775 L 383.512 489.775 L 383.512 489.775 Q 385.201 490.736 386.116 492.519 L 386.116 492.519 L 386.116 492.519 Q 387.03 494.301 387.03 496.688 L 387.03 496.688 L 387.03 496.688 Q 387.03 499.044 386.116 500.827 L 386.116 500.827 L 386.116 500.827 Q 385.201 502.609 383.512 503.57 L 383.512 503.57 L 383.512 503.57 Q 381.822 504.531 379.59 504.531 L 379.59 504.531 L 379.59 504.531 Z  M 379.59 502.051 L 379.59 502.051 Q 381.667 502.051 382.768 500.687 L 382.768 500.687 L 382.768 500.687 Q 383.868 499.323 383.868 496.688 L 383.868 496.688 L 383.868 496.688 Q 383.868 494.084 382.752 492.705 L 382.752 492.705 L 382.752 492.705 Q 381.636 491.325 379.59 491.325 L 379.59 491.325 L 379.59 491.325 Q 377.544 491.325 376.428 492.705 L 376.428 492.705 L 376.428 492.705 Q 375.312 494.084 375.312 496.688 L 375.312 496.688 L 375.312 496.688 Q 375.312 499.323 376.413 500.687 L 376.413 500.687 L 376.413 500.687 Q 377.513 502.051 379.59 502.051 L 379.59 502.051 L 379.59 502.051 Z  M 398.655 488.814 L 398.655 488.814 Q 404.08 488.814 404.08 494.921 L 404.08 494.921 L 404.08 502.981 L 404.08 502.981 Q 404.08 503.694 403.662 504.082 L 403.662 504.082 L 403.662 504.082 Q 403.243 504.469 402.499 504.469 L 402.499 504.469 L 402.499 504.469 Q 401.786 504.469 401.368 504.066 L 401.368 504.066 L 401.368 504.066 Q 400.949 503.663 400.949 502.981 L 400.949 502.981 L 400.949 495.076 L 400.949 495.076 Q 400.949 493.154 400.19 492.255 L 400.19 492.255 L 400.19 492.255 Q 399.43 491.356 397.818 491.356 L 397.818 491.356 L 397.818 491.356 Q 395.927 491.356 394.78 492.534 L 394.78 492.534 L 394.78 492.534 Q 393.633 493.712 393.633 495.696 L 393.633 495.696 L 393.633 502.981 L 393.633 502.981 Q 393.633 503.663 393.215 504.066 L 393.215 504.066 L 393.215 504.066 Q 392.796 504.469 392.083 504.469 L 392.083 504.469 L 392.083 504.469 Q 391.37 504.469 390.936 504.066 L 390.936 504.066 L 390.936 504.066 Q 390.502 503.663 390.502 502.981 L 390.502 502.981 L 390.502 490.364 L 390.502 490.364 Q 390.502 489.713 390.952 489.295 L 390.952 489.295 L 390.952 489.295 Q 391.401 488.876 392.083 488.876 L 392.083 488.876 L 392.083 488.876 Q 392.765 488.876 393.168 489.279 L 393.168 489.279 L 393.168 489.279 Q 393.571 489.682 393.571 490.333 L 393.571 490.333 L 393.571 491.604 L 393.571 491.604 Q 394.315 490.24 395.648 489.527 L 395.648 489.527 L 395.648 489.527 Q 396.981 488.814 398.655 488.814 L 398.655 488.814 L 398.655 488.814 Z  M 150.438 504.469 L 150.438 504.469 Q 149.508 504.531 149.012 504.19 L 149.012 504.19 L 149.012 504.19 Q 148.516 503.849 148.516 503.167 L 148.516 503.167 L 148.516 503.167 Q 148.516 501.958 149.849 501.865 L 149.849 501.865 L 150.81 501.803 L 150.81 501.803 Q 152.267 501.741 152.98 500.92 L 152.98 500.92 L 152.98 500.92 Q 153.693 500.098 153.693 498.331 L 153.693 498.331 L 153.693 483.916 L 153.693 483.916 Q 153.693 483.203 154.143 482.754 L 154.143 482.754 L 154.143 482.754 Q 154.592 482.304 155.305 482.304 L 155.305 482.304 L 155.305 482.304 Q 156.049 482.304 156.483 482.754 L 156.483 482.754 L 156.483 482.754 Q 156.917 483.203 156.917 483.916 L 156.917 483.916 L 156.917 498.331 L 156.917 498.331 Q 156.917 501.245 155.538 502.749 L 155.538 502.749 L 155.538 502.749 Q 154.158 504.252 151.399 504.407 L 151.399 504.407 L 150.438 504.469 L 150.438 504.469 Z  M 169.224 504.562 L 169.224 504.562 Q 166.868 504.562 164.745 503.911 L 164.745 503.911 L 164.745 503.911 Q 162.621 503.26 161.35 502.113 L 161.35 502.113 L 161.35 502.113 Q 160.761 501.617 160.761 500.842 L 160.761 500.842 L 160.761 500.842 Q 160.761 500.284 161.071 499.897 L 161.071 499.897 L 161.071 499.897 Q 161.381 499.509 161.815 499.509 L 161.815 499.509 L 161.815 499.509 Q 162.249 499.509 162.869 499.912 L 162.869 499.912 L 162.869 499.912 Q 165.628 501.958 169.162 501.958 L 169.162 501.958 L 169.162 501.958 Q 171.642 501.958 172.975 501.028 L 172.975 501.028 L 172.975 501.028 Q 174.308 500.098 174.308 498.362 L 174.308 498.362 L 174.308 498.362 Q 174.308 496.998 173.068 496.316 L 173.068 496.316 L 173.068 496.316 Q 171.828 495.634 169.1 495.014 L 169.1 495.014 L 169.1 495.014 Q 166.496 494.456 164.822 493.743 L 164.822 493.743 L 164.822 493.743 Q 163.148 493.03 162.203 491.806 L 162.203 491.806 L 162.203 491.806 Q 161.257 490.581 161.257 488.69 L 161.257 488.69 L 161.257 488.69 Q 161.257 486.799 162.296 485.327 L 162.296 485.327 L 162.296 485.327 Q 163.334 483.854 165.194 483.033 L 165.194 483.033 L 165.194 483.033 Q 167.054 482.211 169.441 482.211 L 169.441 482.211 L 169.441 482.211 Q 171.642 482.211 173.502 482.831 L 173.502 482.831 L 173.502 482.831 Q 175.362 483.451 176.664 484.66 L 176.664 484.66 L 176.664 484.66 Q 177.284 485.187 177.284 485.931 L 177.284 485.931 L 177.284 485.931 Q 177.284 486.458 176.959 486.861 L 176.959 486.861 L 176.959 486.861 Q 176.633 487.264 176.199 487.264 L 176.199 487.264 L 176.199 487.264 Q 175.796 487.264 175.176 486.861 L 175.176 486.861 L 175.176 486.861 Q 173.75 485.776 172.495 485.296 L 172.495 485.296 L 172.495 485.296 Q 171.239 484.815 169.472 484.815 L 169.472 484.815 L 169.472 484.815 Q 167.085 484.815 165.752 485.792 L 165.752 485.792 L 165.752 485.792 Q 164.419 486.768 164.419 488.504 L 164.419 488.504 L 164.419 488.504 Q 164.419 489.992 165.597 490.752 L 165.597 490.752 L 165.597 490.752 Q 166.775 491.511 169.379 492.131 L 169.379 492.131 L 169.379 492.131 Q 172.107 492.751 173.797 493.418 L 173.797 493.418 L 173.797 493.418 Q 175.486 494.084 176.494 495.247 L 176.494 495.247 L 176.494 495.247 Q 177.501 496.409 177.501 498.238 L 177.501 498.238 L 177.501 498.238 Q 177.501 500.098 176.463 501.54 L 176.463 501.54 L 176.463 501.54 Q 175.424 502.981 173.549 503.772 L 173.549 503.772 L 173.549 503.772 Q 171.673 504.562 169.224 504.562 L 169.224 504.562 L 169.224 504.562 Z  M 190.831 504.562 L 190.831 504.562 Q 187.731 504.562 185.453 503.198 L 185.453 503.198 L 185.453 503.198 Q 183.174 501.834 181.934 499.323 L 181.934 499.323 L 181.934 499.323 Q 180.694 496.812 180.694 493.402 L 180.694 493.402 L 180.694 493.402 Q 180.694 489.961 181.919 487.435 L 181.919 487.435 L 181.919 487.435 Q 183.143 484.908 185.437 483.56 L 185.437 483.56 L 185.437 483.56 Q 187.731 482.211 190.831 482.211 L 190.831 482.211 L 190.831 482.211 Q 193.962 482.211 196.256 483.56 L 196.256 483.56 L 196.256 483.56 Q 198.55 484.908 199.775 487.435 L 199.775 487.435 L 199.775 487.435 Q 200.999 489.961 200.999 493.371 L 200.999 493.371 L 200.999 493.371 Q 200.999 496.781 199.775 499.308 L 199.775 499.308 L 199.775 499.308 Q 198.55 501.834 196.256 503.198 L 196.256 503.198 L 196.256 503.198 Q 193.962 504.562 190.831 504.562 L 190.831 504.562 L 190.831 504.562 Z  M 190.831 501.958 L 190.831 501.958 Q 194.117 501.958 195.946 499.726 L 195.946 499.726 L 195.946 499.726 Q 197.775 497.494 197.775 493.371 L 197.775 493.371 L 197.775 493.371 Q 197.775 489.248 195.962 487.032 L 195.962 487.032 L 195.962 487.032 Q 194.148 484.815 190.831 484.815 L 190.831 484.815 L 190.831 484.815 Q 187.576 484.815 185.763 487.032 L 185.763 487.032 L 185.763 487.032 Q 183.949 489.248 183.949 493.371 L 183.949 493.371 L 183.949 493.371 Q 183.949 497.494 185.763 499.726 L 185.763 499.726 L 185.763 499.726 Q 187.576 501.958 190.831 501.958 L 190.831 501.958 L 190.831 501.958 Z  M 221.769 482.304 L 221.769 482.304 Q 222.451 482.304 222.87 482.754 L 222.87 482.754 L 222.87 482.754 Q 223.288 483.203 223.288 483.916 L 223.288 483.916 L 223.288 502.857 L 223.288 502.857 Q 223.288 503.57 222.854 504.02 L 222.854 504.02 L 222.854 504.02 Q 222.42 504.469 221.738 504.469 L 221.738 504.469 L 221.738 504.469 Q 220.932 504.469 220.498 503.849 L 220.498 503.849 L 208.346 487.822 L 208.346 502.857 L 208.346 502.857 Q 208.346 503.57 207.928 504.02 L 207.928 504.02 L 207.928 504.02 Q 207.509 504.469 206.827 504.469 L 206.827 504.469 L 206.827 504.469 Q 206.145 504.469 205.742 504.035 L 205.742 504.035 L 205.742 504.035 Q 205.339 503.601 205.339 502.857 L 205.339 502.857 L 205.339 483.916 L 205.339 483.916 Q 205.339 483.203 205.773 482.754 L 205.773 482.754 L 205.773 482.754 Q 206.207 482.304 206.889 482.304 L 206.889 482.304 L 206.889 482.304 Q 207.695 482.304 208.129 482.924 L 208.129 482.924 L 220.281 498.982 L 220.281 483.916 L 220.281 483.916 Q 220.281 483.203 220.684 482.754 L 220.684 482.754 L 220.684 482.754 Q 221.087 482.304 221.769 482.304 L 221.769 482.304 L 221.769 482.304 Z  M 52.819 493.061 L 52.819 493.061 Q 54.71 493.588 55.749 494.952 L 55.749 494.952 L 55.749 494.952 Q 56.787 496.316 56.787 498.362 L 56.787 498.362 L 56.787 498.362 Q 56.787 501.183 54.85 502.749 L 54.85 502.749 L 54.85 502.749 Q 52.912 504.314 49.44 504.314 L 49.44 504.314 L 41.535 504.314 L 41.535 504.314 Q 40.791 504.314 40.373 503.896 L 40.373 503.896 L 40.373 503.896 Q 39.954 503.477 39.954 502.764 L 39.954 502.764 L 39.954 484.009 L 39.954 484.009 Q 39.954 483.296 40.373 482.878 L 40.373 482.878 L 40.373 482.878 Q 40.791 482.459 41.535 482.459 L 41.535 482.459 L 49.099 482.459 L 49.099 482.459 Q 52.478 482.459 54.385 483.963 L 54.385 483.963 L 54.385 483.963 Q 56.291 485.466 56.291 488.163 L 56.291 488.163 L 56.291 488.163 Q 56.291 489.899 55.377 491.17 L 55.377 491.17 L 55.377 491.17 Q 54.462 492.441 52.819 493.061 L 52.819 493.061 L 52.819 493.061 Z  M 43.085 485.032 L 43.085 491.914 L 48.603 491.914 L 48.603 491.914 Q 53.191 491.914 53.191 488.442 L 53.191 488.442 L 53.191 488.442 Q 53.191 486.706 52.06 485.869 L 52.06 485.869 L 52.06 485.869 Q 50.928 485.032 48.603 485.032 L 48.603 485.032 L 43.085 485.032 L 43.085 485.032 Z  M 49.099 501.741 L 49.099 501.741 Q 51.486 501.741 52.602 500.873 L 52.602 500.873 L 52.602 500.873 Q 53.718 500.005 53.718 498.176 L 53.718 498.176 L 53.718 498.176 Q 53.718 496.316 52.587 495.402 L 52.587 495.402 L 52.587 495.402 Q 51.455 494.487 49.099 494.487 L 49.099 494.487 L 43.085 494.487 L 43.085 501.741 L 49.099 501.741 L 49.099 501.741 Z  M 72.318 488.876 L 72.318 488.876 Q 73.031 488.876 73.45 489.279 L 73.45 489.279 L 73.45 489.279 Q 73.868 489.682 73.868 490.395 L 73.868 490.395 L 73.868 503.012 L 73.868 503.012 Q 73.868 503.663 73.434 504.066 L 73.434 504.066 L 73.434 504.066 Q 73 504.469 72.287 504.469 L 72.287 504.469 L 72.287 504.469 Q 71.636 504.469 71.233 504.082 L 71.233 504.082 L 71.233 504.082 Q 70.83 503.694 70.83 503.043 L 70.83 503.043 L 70.83 501.865 L 70.83 501.865 Q 70.117 503.167 68.862 503.849 L 68.862 503.849 L 68.862 503.849 Q 67.606 504.531 66.056 504.531 L 66.056 504.531 L 66.056 504.531 Q 60.538 504.531 60.538 498.455 L 60.538 498.455 L 60.538 490.395 L 60.538 490.395 Q 60.538 489.682 60.957 489.279 L 60.957 489.279 L 60.957 489.279 Q 61.375 488.876 62.119 488.876 L 62.119 488.876 L 62.119 488.876 Q 62.832 488.876 63.251 489.279 L 63.251 489.279 L 63.251 489.279 Q 63.669 489.682 63.669 490.395 L 63.669 490.395 L 63.669 498.424 L 63.669 498.424 Q 63.669 500.253 64.413 501.121 L 64.413 501.121 L 64.413 501.121 Q 65.157 501.989 66.707 501.989 L 66.707 501.989 L 66.707 501.989 Q 68.536 501.989 69.637 500.811 L 69.637 500.811 L 69.637 500.811 Q 70.737 499.633 70.737 497.68 L 70.737 497.68 L 70.737 490.395 L 70.737 490.395 Q 70.737 489.713 71.171 489.295 L 71.171 489.295 L 71.171 489.295 Q 71.605 488.876 72.318 488.876 L 72.318 488.876 L 72.318 488.876 Z  M 79.82 504.469 L 79.82 504.469 Q 79.138 504.469 78.689 504.097 L 78.689 504.097 L 78.689 504.097 Q 78.239 503.725 78.239 502.981 L 78.239 502.981 L 78.239 490.395 L 78.239 490.395 Q 78.239 489.651 78.689 489.264 L 78.689 489.264 L 78.689 489.264 Q 79.138 488.876 79.82 488.876 L 79.82 488.876 L 79.82 488.876 Q 80.502 488.876 80.936 489.264 L 80.936 489.264 L 80.936 489.264 Q 81.37 489.651 81.37 490.395 L 81.37 490.395 L 81.37 502.981 L 81.37 502.981 Q 81.37 503.725 80.936 504.097 L 80.936 504.097 L 80.936 504.097 Q 80.502 504.469 79.82 504.469 L 79.82 504.469 L 79.82 504.469 Z  M 79.82 485.838 L 79.82 485.838 Q 78.921 485.838 78.394 485.342 L 78.394 485.342 L 78.394 485.342 Q 77.867 484.846 77.867 484.04 L 77.867 484.04 L 77.867 484.04 Q 77.867 483.234 78.394 482.754 L 78.394 482.754 L 78.394 482.754 Q 78.921 482.273 79.82 482.273 L 79.82 482.273 L 79.82 482.273 Q 80.688 482.273 81.231 482.754 L 81.231 482.754 L 81.231 482.754 Q 81.773 483.234 81.773 484.04 L 81.773 484.04 L 81.773 484.04 Q 81.773 484.846 81.246 485.342 L 81.246 485.342 L 81.246 485.342 Q 80.719 485.838 79.82 485.838 L 79.82 485.838 L 79.82 485.838 Z  M 87.322 504.469 L 87.322 504.469 Q 86.64 504.469 86.191 504.097 L 86.191 504.097 L 86.191 504.097 Q 85.741 503.725 85.741 502.981 L 85.741 502.981 L 85.741 483.823 L 85.741 483.823 Q 85.741 483.079 86.191 482.692 L 86.191 482.692 L 86.191 482.692 Q 86.64 482.304 87.322 482.304 L 87.322 482.304 L 87.322 482.304 Q 88.004 482.304 88.438 482.692 L 88.438 482.692 L 88.438 482.692 Q 88.872 483.079 88.872 483.823 L 88.872 483.823 L 88.872 502.981 L 88.872 502.981 Q 88.872 503.725 88.438 504.097 L 88.438 504.097 L 88.438 504.097 Q 88.004 504.469 87.322 504.469 L 87.322 504.469 L 87.322 504.469 Z  M 101.086 502.082 L 101.086 502.082 Q 101.768 502.144 102.063 502.439 L 102.063 502.439 L 102.063 502.439 Q 102.357 502.733 102.357 503.26 L 102.357 503.26 L 102.357 503.26 Q 102.357 503.88 101.877 504.206 L 101.877 504.206 L 101.877 504.206 Q 101.396 504.531 100.466 504.469 L 100.466 504.469 L 99.629 504.407 L 99.629 504.407 Q 97.118 504.221 95.878 502.873 L 95.878 502.873 L 95.878 502.873 Q 94.638 501.524 94.638 498.889 L 94.638 498.889 L 94.638 491.604 L 92.778 491.604 L 92.778 491.604 Q 91.414 491.604 91.414 490.395 L 91.414 490.395 L 91.414 490.395 Q 91.414 489.837 91.771 489.512 L 91.771 489.512 L 91.771 489.512 Q 92.127 489.186 92.778 489.186 L 92.778 489.186 L 94.638 489.186 L 94.638 485.993 L 94.638 485.993 Q 94.638 485.28 95.057 484.877 L 95.057 484.877 L 95.057 484.877 Q 95.475 484.474 96.188 484.474 L 96.188 484.474 L 96.188 484.474 Q 96.901 484.474 97.335 484.877 L 97.335 484.877 L 97.335 484.877 Q 97.769 485.28 97.769 485.993 L 97.769 485.993 L 97.769 489.186 L 100.838 489.186 L 100.838 489.186 Q 101.489 489.186 101.846 489.512 L 101.846 489.512 L 101.846 489.512 Q 102.202 489.837 102.202 490.395 L 102.202 490.395 L 102.202 490.395 Q 102.202 490.984 101.846 491.294 L 101.846 491.294 L 101.846 491.294 Q 101.489 491.604 100.838 491.604 L 100.838 491.604 L 97.769 491.604 L 97.769 499.106 L 97.769 499.106 Q 97.769 500.563 98.374 501.245 L 98.374 501.245 L 98.374 501.245 Q 98.978 501.927 100.218 502.02 L 100.218 502.02 L 101.086 502.082 L 101.086 502.082 Z  M 105.395 497.308 L 105.395 497.308 Q 104.682 497.308 104.31 496.983 L 104.31 496.983 L 104.31 496.983 Q 103.938 496.657 103.938 496.068 L 103.938 496.068 L 103.938 496.068 Q 103.938 495.479 104.31 495.138 L 104.31 495.138 L 104.31 495.138 Q 104.682 494.797 105.395 494.797 L 105.395 494.797 L 111.998 494.797 L 111.998 494.797 Q 112.711 494.797 113.083 495.138 L 113.083 495.138 L 113.083 495.138 Q 113.455 495.479 113.455 496.068 L 113.455 496.068 L 113.455 496.068 Q 113.455 496.657 113.083 496.983 L 113.083 496.983 L 113.083 496.983 Q 112.711 497.308 111.998 497.308 L 111.998 497.308 L 105.395 497.308 L 105.395 497.308 Z  M 119.097 504.469 L 119.097 504.469 Q 118.415 504.469 117.966 504.097 L 117.966 504.097 L 117.966 504.097 Q 117.516 503.725 117.516 502.981 L 117.516 502.981 L 117.516 490.395 L 117.516 490.395 Q 117.516 489.651 117.966 489.264 L 117.966 489.264 L 117.966 489.264 Q 118.415 488.876 119.097 488.876 L 119.097 488.876 L 119.097 488.876 Q 119.779 488.876 120.213 489.264 L 120.213 489.264 L 120.213 489.264 Q 120.647 489.651 120.647 490.395 L 120.647 490.395 L 120.647 502.981 L 120.647 502.981 Q 120.647 503.725 120.213 504.097 L 120.213 504.097 L 120.213 504.097 Q 119.779 504.469 119.097 504.469 L 119.097 504.469 L 119.097 504.469 Z  M 119.097 485.838 L 119.097 485.838 Q 118.198 485.838 117.671 485.342 L 117.671 485.342 L 117.671 485.342 Q 117.144 484.846 117.144 484.04 L 117.144 484.04 L 117.144 484.04 Q 117.144 483.234 117.671 482.754 L 117.671 482.754 L 117.671 482.754 Q 118.198 482.273 119.097 482.273 L 119.097 482.273 L 119.097 482.273 Q 119.965 482.273 120.508 482.754 L 120.508 482.754 L 120.508 482.754 Q 121.05 483.234 121.05 484.04 L 121.05 484.04 L 121.05 484.04 Q 121.05 484.846 120.523 485.342 L 120.523 485.342 L 120.523 485.342 Q 119.996 485.838 119.097 485.838 L 119.097 485.838 L 119.097 485.838 Z  M 133.171 488.814 L 133.171 488.814 Q 138.596 488.814 138.596 494.921 L 138.596 494.921 L 138.596 502.981 L 138.596 502.981 Q 138.596 503.694 138.178 504.082 L 138.178 504.082 L 138.178 504.082 Q 137.759 504.469 137.015 504.469 L 137.015 504.469 L 137.015 504.469 Q 136.302 504.469 135.884 504.066 L 135.884 504.066 L 135.884 504.066 Q 135.465 503.663 135.465 502.981 L 135.465 502.981 L 135.465 495.076 L 135.465 495.076 Q 135.465 493.154 134.706 492.255 L 134.706 492.255 L 134.706 492.255 Q 133.946 491.356 132.334 491.356 L 132.334 491.356 L 132.334 491.356 Q 130.443 491.356 129.296 492.534 L 129.296 492.534 L 129.296 492.534 Q 128.149 493.712 128.149 495.696 L 128.149 495.696 L 128.149 502.981 L 128.149 502.981 Q 128.149 503.663 127.731 504.066 L 127.731 504.066 L 127.731 504.066 Q 127.312 504.469 126.599 504.469 L 126.599 504.469 L 126.599 504.469 Q 125.886 504.469 125.452 504.066 L 125.452 504.066 L 125.452 504.066 Q 125.018 503.663 125.018 502.981 L 125.018 502.981 L 125.018 490.364 L 125.018 490.364 Q 125.018 489.713 125.468 489.295 L 125.468 489.295 L 125.468 489.295 Q 125.917 488.876 126.599 488.876 L 126.599 488.876 L 126.599 488.876 Q 127.281 488.876 127.684 489.279 L 127.684 489.279 L 127.684 489.279 Q 128.087 489.682 128.087 490.333 L 128.087 490.333 L 128.087 491.604 L 128.087 491.604 Q 128.831 490.24 130.164 489.527 L 130.164 489.527 L 130.164 489.527 Q 131.497 488.814 133.171 488.814 L 133.171 488.814 L 133.171 488.814 Z " fill="rgb(0,0,0)"/></svg>